<?xml version="1.0" encoding="utf-8" standalone="no"?>
<!DOCTYPE svg PUBLIC "-//W3C//DTD SVG 1.1//EN"
  "http://www.w3.org/Graphics/SVG/1.1/DTD/svg11.dtd">
<svg xmlns:xlink="http://www.w3.org/1999/xlink" width="432pt" height="288pt" viewBox="0 0 432 288" xmlns="http://www.w3.org/2000/svg" version="1.1">
 <metadata>
  <rdf:RDF xmlns:dc="http://purl.org/dc/elements/1.1/" xmlns:cc="http://creativecommons.org/ns#" xmlns:rdf="http://www.w3.org/1999/02/22-rdf-syntax-ns#">
   <cc:Work>
    <dc:type rdf:resource="http://purl.org/dc/dcmitype/StillImage"/>
    <dc:date>2022-04-07T12:50:02.137659</dc:date>
    <dc:format>image/svg+xml</dc:format>
    <dc:creator>
     <cc:Agent>
      <dc:title>Matplotlib v3.5.1, https://matplotlib.org/</dc:title>
     </cc:Agent>
    </dc:creator>
   </cc:Work>
  </rdf:RDF>
 </metadata>
 <defs>
  <style type="text/css">*{stroke-linejoin: round; stroke-linecap: butt}</style>
 </defs>
 <g id="figure_1">
  <g id="patch_1">
   <path d="M 0 288 
L 432 288 
L 432 0 
L 0 0 
L 0 288 
z
" style="fill: none"/>
  </g>
  <g id="axes_1">
   <g id="patch_2">
    <path d="M 54 252 
L 388.8 252 
L 388.8 34.56 
L 54 34.56 
z
" style="fill: #ffffff"/>
   </g>
   <g id="PolyCollection_1">
    <defs>
     <path id="m9d0560e2f5" d="M 69.218182 -201.490285 
L 69.218182 -201.490285 
L 79.036364 -203.850594 
L 88.854545 -208.360123 
L 98.672727 -210.098182 
L 108.490909 -213.37329 
L 118.309091 -215.265721 
L 128.127273 -217.55876 
L 137.945455 -218.871318 
L 147.763636 -221.616449 
L 157.581818 -221.650189 
L 167.4 -225.028332 
L 177.218182 -224.321925 
L 187.036364 -227.240132 
L 196.854545 -228.451776 
L 206.672727 -229.191491 
L 216.490909 -229.271634 
L 226.309091 -231.906197 
L 236.127273 -231.672985 
L 245.945455 -233.491954 
L 255.763636 -234.373735 
L 265.581818 -235.800053 
L 275.4 -236.361601 
L 285.218182 -236.961444 
L 295.036364 -237.838493 
L 304.854545 -238.52314 
L 314.672727 -239.117151 
L 324.490909 -239.980736 
L 334.309091 -240.647319 
L 344.127273 -241.219352 
L 353.945455 -241.583392 
L 363.763636 -242.852088 
L 373.581818 -243.556364 
L 373.581818 -243.556364 
L 373.581818 -243.556364 
L 363.763636 -242.852088 
L 353.945455 -241.583392 
L 344.127273 -241.219352 
L 334.309091 -240.647319 
L 324.490909 -239.980736 
L 314.672727 -239.117151 
L 304.854545 -238.52314 
L 295.036364 -237.838493 
L 285.218182 -236.961444 
L 275.4 -236.361601 
L 265.581818 -235.800053 
L 255.763636 -234.373735 
L 245.945455 -233.491954 
L 236.127273 -231.672985 
L 226.309091 -231.906197 
L 216.490909 -229.271634 
L 206.672727 -229.191491 
L 196.854545 -228.451776 
L 187.036364 -227.240132 
L 177.218182 -224.321925 
L 167.4 -225.028332 
L 157.581818 -221.650189 
L 147.763636 -221.616449 
L 137.945455 -218.871318 
L 128.127273 -217.55876 
L 118.309091 -215.265721 
L 108.490909 -213.37329 
L 98.672727 -210.098182 
L 88.854545 -208.360123 
L 79.036364 -203.850594 
L 69.218182 -201.490285 
z
" style="stroke: #ffe4c4"/>
    </defs>
    <g clip-path="url(#p451ff48ed1)">
     <use xlink:href="#m9d0560e2f5" x="0" y="288" style="fill: #ffe4c4; stroke: #ffe4c4"/>
    </g>
   </g>
   <g id="PolyCollection_2">
    <defs>
     <path id="mf84f5b26f8" d="M 69.218182 -173.455269 
L 69.218182 -172.322974 
L 79.036364 -172.88971 
L 88.854545 -176.025249 
L 98.672727 -178.371692 
L 108.490909 -179.193082 
L 118.309091 -181.147444 
L 128.127273 -183.710952 
L 137.945455 -184.986605 
L 147.763636 -186.69804 
L 157.581818 -188.397804 
L 167.4 -189.191121 
L 177.218182 -189.380098 
L 187.036364 -190.161565 
L 196.854545 -192.389088 
L 206.672727 -193.53166 
L 216.490909 -193.363425 
L 226.309091 -194.820104 
L 236.127273 -196.132734 
L 245.945455 -196.362448 
L 255.763636 -197.974965 
L 265.581818 -198.297648 
L 275.4 -199.003929 
L 285.218182 -200.136271 
L 295.036364 -200.62382 
L 304.854545 -201.349379 
L 314.672727 -201.306945 
L 324.490909 -203.103083 
L 334.309091 -202.34216 
L 344.127273 -203.692668 
L 353.945455 -203.01918 
L 363.763636 -204.415251 
L 373.581818 -204.298775 
L 373.581818 -204.517278 
L 373.581818 -204.517278 
L 363.763636 -204.552995 
L 353.945455 -203.921758 
L 344.127273 -204.148863 
L 334.309091 -202.781868 
L 324.490909 -204.004419 
L 314.672727 -202.373525 
L 304.854545 -202.15299 
L 295.036364 -201.366808 
L 285.218182 -201.527888 
L 275.4 -200.156485 
L 265.581818 -199.648698 
L 255.763636 -198.111547 
L 245.945455 -198.001583 
L 236.127273 -196.592914 
L 226.309091 -196.336225 
L 216.490909 -194.222379 
L 206.672727 -193.726845 
L 196.854545 -192.860621 
L 187.036364 -192.931243 
L 177.218182 -190.485798 
L 167.4 -189.581505 
L 157.581818 -188.636966 
L 147.763636 -187.225717 
L 137.945455 -185.014424 
L 128.127273 -183.851147 
L 118.309091 -182.037108 
L 108.490909 -180.236796 
L 98.672727 -178.907299 
L 88.854545 -176.178159 
L 79.036364 -174.460149 
L 69.218182 -173.455269 
z
" style="stroke: #ffe4c4"/>
    </defs>
    <g clip-path="url(#p451ff48ed1)">
     <use xlink:href="#mf84f5b26f8" x="0" y="288" style="fill: #ffe4c4; stroke: #ffe4c4"/>
    </g>
   </g>
   <g id="PolyCollection_3">
    <defs>
     <path id="ma3c34546e0" d="M 69.218182 -168.743568 
L 69.218182 -167.896647 
L 79.036364 -168.638232 
L 88.854545 -173.482645 
L 98.672727 -176.490583 
L 108.490909 -179.361265 
L 118.309091 -181.339391 
L 128.127273 -184.24857 
L 137.945455 -185.081797 
L 147.763636 -187.787872 
L 157.581818 -190.070766 
L 167.4 -190.926822 
L 177.218182 -192.440651 
L 187.036364 -194.171541 
L 196.854545 -195.530719 
L 206.672727 -196.309465 
L 216.490909 -197.195207 
L 226.309091 -199.060433 
L 236.127273 -200.186618 
L 245.945455 -200.494627 
L 255.763636 -202.118088 
L 265.581818 -202.542378 
L 275.4 -203.806897 
L 285.218182 -204.654787 
L 295.036364 -205.342508 
L 304.854545 -206.103584 
L 314.672727 -205.983784 
L 324.490909 -207.551154 
L 334.309091 -207.806065 
L 344.127273 -208.525881 
L 353.945455 -208.994315 
L 363.763636 -209.999607 
L 373.581818 -210.435711 
L 373.581818 -210.51307 
L 373.581818 -210.51307 
L 363.763636 -210.35917 
L 353.945455 -209.014192 
L 344.127273 -209.354295 
L 334.309091 -207.893906 
L 324.490909 -207.604057 
L 314.672727 -207.531171 
L 304.854545 -206.16113 
L 295.036364 -205.852323 
L 285.218182 -204.693444 
L 275.4 -203.866629 
L 265.581818 -203.472168 
L 255.763636 -202.321691 
L 245.945455 -200.637001 
L 236.127273 -200.271166 
L 226.309091 -199.131484 
L 216.490909 -197.586942 
L 206.672727 -196.497098 
L 196.854545 -195.598491 
L 187.036364 -194.803361 
L 177.218182 -192.467221 
L 167.4 -191.989695 
L 157.581818 -190.248992 
L 147.763636 -188.128145 
L 137.945455 -185.255259 
L 128.127273 -184.299938 
L 118.309091 -181.387427 
L 108.490909 -179.906018 
L 98.672727 -176.54003 
L 88.854545 -173.558211 
L 79.036364 -169.65404 
L 69.218182 -168.743568 
z
" style="stroke: #ffe4c4"/>
    </defs>
    <g clip-path="url(#p451ff48ed1)">
     <use xlink:href="#ma3c34546e0" x="0" y="288" style="fill: #ffe4c4; stroke: #ffe4c4"/>
    </g>
   </g>
   <g id="PolyCollection_4">
    <defs>
     <path id="m5cb9a16aeb" d="M 69.218182 -46.268485 
L 69.218182 -45.883636 
L 79.036364 -54.185123 
L 88.854545 -62.508012 
L 98.672727 -69.829824 
L 108.490909 -74.685483 
L 118.309091 -72.858844 
L 128.127273 -77.942309 
L 137.945455 -82.76935 
L 147.763636 -84.430873 
L 157.581818 -87.113902 
L 167.4 -89.179033 
L 177.218182 -88.223381 
L 187.036364 -88.807804 
L 196.854545 -88.204179 
L 206.672727 -88.356546 
L 216.490909 -91.103567 
L 226.309091 -96.927422 
L 236.127273 -98.113537 
L 245.945455 -97.119687 
L 255.763636 -98.10558 
L 265.581818 -98.604532 
L 275.4 -97.266502 
L 285.218182 -96.970691 
L 295.036364 -96.813999 
L 304.854545 -99.830551 
L 314.672727 -95.070144 
L 324.490909 -93.311674 
L 334.309091 -91.470577 
L 344.127273 -92.726769 
L 353.945455 -85.345716 
L 363.763636 -82.77665 
L 373.581818 -72.020714 
L 373.581818 -72.315091 
L 373.581818 -72.315091 
L 363.763636 -82.906101 
L 353.945455 -85.49791 
L 344.127273 -92.732051 
L 334.309091 -91.51624 
L 324.490909 -93.361295 
L 314.672727 -95.082433 
L 304.854545 -99.832818 
L 295.036364 -96.838021 
L 285.218182 -97.024297 
L 275.4 -97.296097 
L 265.581818 -98.639103 
L 255.763636 -98.136045 
L 245.945455 -97.179921 
L 236.127273 -98.149137 
L 226.309091 -96.952618 
L 216.490909 -91.146475 
L 206.672727 -88.389882 
L 196.854545 -88.214812 
L 187.036364 -88.869491 
L 177.218182 -88.252331 
L 167.4 -89.201759 
L 157.581818 -87.130867 
L 147.763636 -84.450985 
L 137.945455 -82.774376 
L 128.127273 -78.061188 
L 118.309091 -72.875833 
L 108.490909 -74.723752 
L 98.672727 -69.918556 
L 88.854545 -62.723116 
L 79.036364 -54.281349 
L 69.218182 -46.268485 
z
" style="stroke: #ffe4c4"/>
    </defs>
    <g clip-path="url(#p451ff48ed1)">
     <use xlink:href="#m5cb9a16aeb" x="0" y="288" style="fill: #ffe4c4; stroke: #ffe4c4"/>
    </g>
   </g>
   <g id="PolyCollection_5">
    <defs>
     <path id="mc285ad4e9e" d="M 69.218182 -124.065932 
L 69.218182 -124.065932 
L 79.036364 -124.066201 
L 88.854545 -124.066547 
L 98.672727 -124.066816 
L 108.490909 -124.06695 
L 118.309091 -124.067354 
L 128.127273 -124.067546 
L 137.945455 -124.067892 
L 147.763636 -124.068123 
L 157.581818 -124.068372 
L 167.4 -124.068603 
L 177.218182 -124.068911 
L 187.036364 -124.069084 
L 196.854545 -124.069295 
L 206.672727 -124.069564 
L 216.490909 -124.069871 
L 226.309091 -124.070064 
L 236.127273 -124.070429 
L 245.945455 -124.070698 
L 255.763636 -124.070832 
L 265.581818 -124.071101 
L 275.4 -124.071197 
L 285.218182 -124.07139 
L 295.036364 -124.071832 
L 304.854545 -124.072197 
L 314.672727 -124.07237 
L 324.490909 -124.072466 
L 334.309091 -124.072869 
L 344.127273 -124.073061 
L 353.945455 -124.07333 
L 363.763636 -124.073523 
L 373.581818 -124.073619 
L 373.581818 -124.073619 
L 373.581818 -124.073619 
L 363.763636 -124.073523 
L 353.945455 -124.07333 
L 344.127273 -124.073061 
L 334.309091 -124.072869 
L 324.490909 -124.072466 
L 314.672727 -124.07237 
L 304.854545 -124.072197 
L 295.036364 -124.071832 
L 285.218182 -124.07139 
L 275.4 -124.071197 
L 265.581818 -124.071101 
L 255.763636 -124.070832 
L 245.945455 -124.070698 
L 236.127273 -124.070429 
L 226.309091 -124.070064 
L 216.490909 -124.069871 
L 206.672727 -124.069564 
L 196.854545 -124.069295 
L 187.036364 -124.069084 
L 177.218182 -124.068911 
L 167.4 -124.068603 
L 157.581818 -124.068372 
L 147.763636 -124.068123 
L 137.945455 -124.067892 
L 128.127273 -124.067546 
L 118.309091 -124.067354 
L 108.490909 -124.06695 
L 98.672727 -124.066816 
L 88.854545 -124.066547 
L 79.036364 -124.066201 
L 69.218182 -124.065932 
z
" style="stroke: #ffe4c4"/>
    </defs>
    <g clip-path="url(#p451ff48ed1)">
     <use xlink:href="#mc285ad4e9e" x="0" y="288" style="fill: #ffe4c4; stroke: #ffe4c4"/>
    </g>
   </g>
   <g id="matplotlib.axis_1">
    <g id="xtick_1">
     <g id="line2d_1">
      <defs>
       <path id="m89cd7d1525" d="M 0 0 
L 0 3.5 
" style="stroke: #000000; stroke-width: 0.8"/>
      </defs>
      <g>
       <use xlink:href="#m89cd7d1525" x="59.4" y="252" style="stroke: #000000; stroke-width: 0.8"/>
      </g>
     </g>
     <g id="text_1">
      <!-- 0 -->
      <g transform="translate(56.21875 266.598437)scale(0.1 -0.1)">
       <defs>
        <path id="DejaVuSans-30" d="M 2034 4250 
Q 1547 4250 1301 3770 
Q 1056 3291 1056 2328 
Q 1056 1369 1301 889 
Q 1547 409 2034 409 
Q 2525 409 2770 889 
Q 3016 1369 3016 2328 
Q 3016 3291 2770 3770 
Q 2525 4250 2034 4250 
z
M 2034 4750 
Q 2819 4750 3233 4129 
Q 3647 3509 3647 2328 
Q 3647 1150 3233 529 
Q 2819 -91 2034 -91 
Q 1250 -91 836 529 
Q 422 1150 422 2328 
Q 422 3509 836 4129 
Q 1250 4750 2034 4750 
z
" transform="scale(0.015625)"/>
       </defs>
       <use xlink:href="#DejaVuSans-30"/>
      </g>
     </g>
    </g>
    <g id="xtick_2">
     <g id="line2d_2">
      <g>
       <use xlink:href="#m89cd7d1525" x="108.490909" y="252" style="stroke: #000000; stroke-width: 0.8"/>
      </g>
     </g>
     <g id="text_2">
      <!-- 10 -->
      <g transform="translate(102.128409 266.598437)scale(0.1 -0.1)">
       <defs>
        <path id="DejaVuSans-31" d="M 794 531 
L 1825 531 
L 1825 4091 
L 703 3866 
L 703 4441 
L 1819 4666 
L 2450 4666 
L 2450 531 
L 3481 531 
L 3481 0 
L 794 0 
L 794 531 
z
" transform="scale(0.015625)"/>
       </defs>
       <use xlink:href="#DejaVuSans-31"/>
       <use xlink:href="#DejaVuSans-30" x="63.623047"/>
      </g>
     </g>
    </g>
    <g id="xtick_3">
     <g id="line2d_3">
      <g>
       <use xlink:href="#m89cd7d1525" x="157.581818" y="252" style="stroke: #000000; stroke-width: 0.8"/>
      </g>
     </g>
     <g id="text_3">
      <!-- 20 -->
      <g transform="translate(151.219318 266.598437)scale(0.1 -0.1)">
       <defs>
        <path id="DejaVuSans-32" d="M 1228 531 
L 3431 531 
L 3431 0 
L 469 0 
L 469 531 
Q 828 903 1448 1529 
Q 2069 2156 2228 2338 
Q 2531 2678 2651 2914 
Q 2772 3150 2772 3378 
Q 2772 3750 2511 3984 
Q 2250 4219 1831 4219 
Q 1534 4219 1204 4116 
Q 875 4013 500 3803 
L 500 4441 
Q 881 4594 1212 4672 
Q 1544 4750 1819 4750 
Q 2544 4750 2975 4387 
Q 3406 4025 3406 3419 
Q 3406 3131 3298 2873 
Q 3191 2616 2906 2266 
Q 2828 2175 2409 1742 
Q 1991 1309 1228 531 
z
" transform="scale(0.015625)"/>
       </defs>
       <use xlink:href="#DejaVuSans-32"/>
       <use xlink:href="#DejaVuSans-30" x="63.623047"/>
      </g>
     </g>
    </g>
    <g id="xtick_4">
     <g id="line2d_4">
      <g>
       <use xlink:href="#m89cd7d1525" x="206.672727" y="252" style="stroke: #000000; stroke-width: 0.8"/>
      </g>
     </g>
     <g id="text_4">
      <!-- 30 -->
      <g transform="translate(200.310227 266.598437)scale(0.1 -0.1)">
       <defs>
        <path id="DejaVuSans-33" d="M 2597 2516 
Q 3050 2419 3304 2112 
Q 3559 1806 3559 1356 
Q 3559 666 3084 287 
Q 2609 -91 1734 -91 
Q 1441 -91 1130 -33 
Q 819 25 488 141 
L 488 750 
Q 750 597 1062 519 
Q 1375 441 1716 441 
Q 2309 441 2620 675 
Q 2931 909 2931 1356 
Q 2931 1769 2642 2001 
Q 2353 2234 1838 2234 
L 1294 2234 
L 1294 2753 
L 1863 2753 
Q 2328 2753 2575 2939 
Q 2822 3125 2822 3475 
Q 2822 3834 2567 4026 
Q 2313 4219 1838 4219 
Q 1578 4219 1281 4162 
Q 984 4106 628 3988 
L 628 4550 
Q 988 4650 1302 4700 
Q 1616 4750 1894 4750 
Q 2613 4750 3031 4423 
Q 3450 4097 3450 3541 
Q 3450 3153 3228 2886 
Q 3006 2619 2597 2516 
z
" transform="scale(0.015625)"/>
       </defs>
       <use xlink:href="#DejaVuSans-33"/>
       <use xlink:href="#DejaVuSans-30" x="63.623047"/>
      </g>
     </g>
    </g>
    <g id="xtick_5">
     <g id="line2d_5">
      <g>
       <use xlink:href="#m89cd7d1525" x="255.763636" y="252" style="stroke: #000000; stroke-width: 0.8"/>
      </g>
     </g>
     <g id="text_5">
      <!-- 40 -->
      <g transform="translate(249.401136 266.598437)scale(0.1 -0.1)">
       <defs>
        <path id="DejaVuSans-34" d="M 2419 4116 
L 825 1625 
L 2419 1625 
L 2419 4116 
z
M 2253 4666 
L 3047 4666 
L 3047 1625 
L 3713 1625 
L 3713 1100 
L 3047 1100 
L 3047 0 
L 2419 0 
L 2419 1100 
L 313 1100 
L 313 1709 
L 2253 4666 
z
" transform="scale(0.015625)"/>
       </defs>
       <use xlink:href="#DejaVuSans-34"/>
       <use xlink:href="#DejaVuSans-30" x="63.623047"/>
      </g>
     </g>
    </g>
    <g id="xtick_6">
     <g id="line2d_6">
      <g>
       <use xlink:href="#m89cd7d1525" x="304.854545" y="252" style="stroke: #000000; stroke-width: 0.8"/>
      </g>
     </g>
     <g id="text_6">
      <!-- 50 -->
      <g transform="translate(298.492045 266.598437)scale(0.1 -0.1)">
       <defs>
        <path id="DejaVuSans-35" d="M 691 4666 
L 3169 4666 
L 3169 4134 
L 1269 4134 
L 1269 2991 
Q 1406 3038 1543 3061 
Q 1681 3084 1819 3084 
Q 2600 3084 3056 2656 
Q 3513 2228 3513 1497 
Q 3513 744 3044 326 
Q 2575 -91 1722 -91 
Q 1428 -91 1123 -41 
Q 819 9 494 109 
L 494 744 
Q 775 591 1075 516 
Q 1375 441 1709 441 
Q 2250 441 2565 725 
Q 2881 1009 2881 1497 
Q 2881 1984 2565 2268 
Q 2250 2553 1709 2553 
Q 1456 2553 1204 2497 
Q 953 2441 691 2322 
L 691 4666 
z
" transform="scale(0.015625)"/>
       </defs>
       <use xlink:href="#DejaVuSans-35"/>
       <use xlink:href="#DejaVuSans-30" x="63.623047"/>
      </g>
     </g>
    </g>
    <g id="xtick_7">
     <g id="line2d_7">
      <g>
       <use xlink:href="#m89cd7d1525" x="353.945455" y="252" style="stroke: #000000; stroke-width: 0.8"/>
      </g>
     </g>
     <g id="text_7">
      <!-- 60 -->
      <g transform="translate(347.582955 266.598437)scale(0.1 -0.1)">
       <defs>
        <path id="DejaVuSans-36" d="M 2113 2584 
Q 1688 2584 1439 2293 
Q 1191 2003 1191 1497 
Q 1191 994 1439 701 
Q 1688 409 2113 409 
Q 2538 409 2786 701 
Q 3034 994 3034 1497 
Q 3034 2003 2786 2293 
Q 2538 2584 2113 2584 
z
M 3366 4563 
L 3366 3988 
Q 3128 4100 2886 4159 
Q 2644 4219 2406 4219 
Q 1781 4219 1451 3797 
Q 1122 3375 1075 2522 
Q 1259 2794 1537 2939 
Q 1816 3084 2150 3084 
Q 2853 3084 3261 2657 
Q 3669 2231 3669 1497 
Q 3669 778 3244 343 
Q 2819 -91 2113 -91 
Q 1303 -91 875 529 
Q 447 1150 447 2328 
Q 447 3434 972 4092 
Q 1497 4750 2381 4750 
Q 2619 4750 2861 4703 
Q 3103 4656 3366 4563 
z
" transform="scale(0.015625)"/>
       </defs>
       <use xlink:href="#DejaVuSans-36"/>
       <use xlink:href="#DejaVuSans-30" x="63.623047"/>
      </g>
     </g>
    </g>
    <g id="text_8">
     <!-- Maximum program size (bin number) -->
     <g transform="translate(128.225 280.276563)scale(0.1 -0.1)">
      <defs>
       <path id="DejaVuSans-4d" d="M 628 4666 
L 1569 4666 
L 2759 1491 
L 3956 4666 
L 4897 4666 
L 4897 0 
L 4281 0 
L 4281 4097 
L 3078 897 
L 2444 897 
L 1241 4097 
L 1241 0 
L 628 0 
L 628 4666 
z
" transform="scale(0.015625)"/>
       <path id="DejaVuSans-61" d="M 2194 1759 
Q 1497 1759 1228 1600 
Q 959 1441 959 1056 
Q 959 750 1161 570 
Q 1363 391 1709 391 
Q 2188 391 2477 730 
Q 2766 1069 2766 1631 
L 2766 1759 
L 2194 1759 
z
M 3341 1997 
L 3341 0 
L 2766 0 
L 2766 531 
Q 2569 213 2275 61 
Q 1981 -91 1556 -91 
Q 1019 -91 701 211 
Q 384 513 384 1019 
Q 384 1609 779 1909 
Q 1175 2209 1959 2209 
L 2766 2209 
L 2766 2266 
Q 2766 2663 2505 2880 
Q 2244 3097 1772 3097 
Q 1472 3097 1187 3025 
Q 903 2953 641 2809 
L 641 3341 
Q 956 3463 1253 3523 
Q 1550 3584 1831 3584 
Q 2591 3584 2966 3190 
Q 3341 2797 3341 1997 
z
" transform="scale(0.015625)"/>
       <path id="DejaVuSans-78" d="M 3513 3500 
L 2247 1797 
L 3578 0 
L 2900 0 
L 1881 1375 
L 863 0 
L 184 0 
L 1544 1831 
L 300 3500 
L 978 3500 
L 1906 2253 
L 2834 3500 
L 3513 3500 
z
" transform="scale(0.015625)"/>
       <path id="DejaVuSans-69" d="M 603 3500 
L 1178 3500 
L 1178 0 
L 603 0 
L 603 3500 
z
M 603 4863 
L 1178 4863 
L 1178 4134 
L 603 4134 
L 603 4863 
z
" transform="scale(0.015625)"/>
       <path id="DejaVuSans-6d" d="M 3328 2828 
Q 3544 3216 3844 3400 
Q 4144 3584 4550 3584 
Q 5097 3584 5394 3201 
Q 5691 2819 5691 2113 
L 5691 0 
L 5113 0 
L 5113 2094 
Q 5113 2597 4934 2840 
Q 4756 3084 4391 3084 
Q 3944 3084 3684 2787 
Q 3425 2491 3425 1978 
L 3425 0 
L 2847 0 
L 2847 2094 
Q 2847 2600 2669 2842 
Q 2491 3084 2119 3084 
Q 1678 3084 1418 2786 
Q 1159 2488 1159 1978 
L 1159 0 
L 581 0 
L 581 3500 
L 1159 3500 
L 1159 2956 
Q 1356 3278 1631 3431 
Q 1906 3584 2284 3584 
Q 2666 3584 2933 3390 
Q 3200 3197 3328 2828 
z
" transform="scale(0.015625)"/>
       <path id="DejaVuSans-75" d="M 544 1381 
L 544 3500 
L 1119 3500 
L 1119 1403 
Q 1119 906 1312 657 
Q 1506 409 1894 409 
Q 2359 409 2629 706 
Q 2900 1003 2900 1516 
L 2900 3500 
L 3475 3500 
L 3475 0 
L 2900 0 
L 2900 538 
Q 2691 219 2414 64 
Q 2138 -91 1772 -91 
Q 1169 -91 856 284 
Q 544 659 544 1381 
z
M 1991 3584 
L 1991 3584 
z
" transform="scale(0.015625)"/>
       <path id="DejaVuSans-20" transform="scale(0.015625)"/>
       <path id="DejaVuSans-70" d="M 1159 525 
L 1159 -1331 
L 581 -1331 
L 581 3500 
L 1159 3500 
L 1159 2969 
Q 1341 3281 1617 3432 
Q 1894 3584 2278 3584 
Q 2916 3584 3314 3078 
Q 3713 2572 3713 1747 
Q 3713 922 3314 415 
Q 2916 -91 2278 -91 
Q 1894 -91 1617 61 
Q 1341 213 1159 525 
z
M 3116 1747 
Q 3116 2381 2855 2742 
Q 2594 3103 2138 3103 
Q 1681 3103 1420 2742 
Q 1159 2381 1159 1747 
Q 1159 1113 1420 752 
Q 1681 391 2138 391 
Q 2594 391 2855 752 
Q 3116 1113 3116 1747 
z
" transform="scale(0.015625)"/>
       <path id="DejaVuSans-72" d="M 2631 2963 
Q 2534 3019 2420 3045 
Q 2306 3072 2169 3072 
Q 1681 3072 1420 2755 
Q 1159 2438 1159 1844 
L 1159 0 
L 581 0 
L 581 3500 
L 1159 3500 
L 1159 2956 
Q 1341 3275 1631 3429 
Q 1922 3584 2338 3584 
Q 2397 3584 2469 3576 
Q 2541 3569 2628 3553 
L 2631 2963 
z
" transform="scale(0.015625)"/>
       <path id="DejaVuSans-6f" d="M 1959 3097 
Q 1497 3097 1228 2736 
Q 959 2375 959 1747 
Q 959 1119 1226 758 
Q 1494 397 1959 397 
Q 2419 397 2687 759 
Q 2956 1122 2956 1747 
Q 2956 2369 2687 2733 
Q 2419 3097 1959 3097 
z
M 1959 3584 
Q 2709 3584 3137 3096 
Q 3566 2609 3566 1747 
Q 3566 888 3137 398 
Q 2709 -91 1959 -91 
Q 1206 -91 779 398 
Q 353 888 353 1747 
Q 353 2609 779 3096 
Q 1206 3584 1959 3584 
z
" transform="scale(0.015625)"/>
       <path id="DejaVuSans-67" d="M 2906 1791 
Q 2906 2416 2648 2759 
Q 2391 3103 1925 3103 
Q 1463 3103 1205 2759 
Q 947 2416 947 1791 
Q 947 1169 1205 825 
Q 1463 481 1925 481 
Q 2391 481 2648 825 
Q 2906 1169 2906 1791 
z
M 3481 434 
Q 3481 -459 3084 -895 
Q 2688 -1331 1869 -1331 
Q 1566 -1331 1297 -1286 
Q 1028 -1241 775 -1147 
L 775 -588 
Q 1028 -725 1275 -790 
Q 1522 -856 1778 -856 
Q 2344 -856 2625 -561 
Q 2906 -266 2906 331 
L 2906 616 
Q 2728 306 2450 153 
Q 2172 0 1784 0 
Q 1141 0 747 490 
Q 353 981 353 1791 
Q 353 2603 747 3093 
Q 1141 3584 1784 3584 
Q 2172 3584 2450 3431 
Q 2728 3278 2906 2969 
L 2906 3500 
L 3481 3500 
L 3481 434 
z
" transform="scale(0.015625)"/>
       <path id="DejaVuSans-73" d="M 2834 3397 
L 2834 2853 
Q 2591 2978 2328 3040 
Q 2066 3103 1784 3103 
Q 1356 3103 1142 2972 
Q 928 2841 928 2578 
Q 928 2378 1081 2264 
Q 1234 2150 1697 2047 
L 1894 2003 
Q 2506 1872 2764 1633 
Q 3022 1394 3022 966 
Q 3022 478 2636 193 
Q 2250 -91 1575 -91 
Q 1294 -91 989 -36 
Q 684 19 347 128 
L 347 722 
Q 666 556 975 473 
Q 1284 391 1588 391 
Q 1994 391 2212 530 
Q 2431 669 2431 922 
Q 2431 1156 2273 1281 
Q 2116 1406 1581 1522 
L 1381 1569 
Q 847 1681 609 1914 
Q 372 2147 372 2553 
Q 372 3047 722 3315 
Q 1072 3584 1716 3584 
Q 2034 3584 2315 3537 
Q 2597 3491 2834 3397 
z
" transform="scale(0.015625)"/>
       <path id="DejaVuSans-7a" d="M 353 3500 
L 3084 3500 
L 3084 2975 
L 922 459 
L 3084 459 
L 3084 0 
L 275 0 
L 275 525 
L 2438 3041 
L 353 3041 
L 353 3500 
z
" transform="scale(0.015625)"/>
       <path id="DejaVuSans-65" d="M 3597 1894 
L 3597 1613 
L 953 1613 
Q 991 1019 1311 708 
Q 1631 397 2203 397 
Q 2534 397 2845 478 
Q 3156 559 3463 722 
L 3463 178 
Q 3153 47 2828 -22 
Q 2503 -91 2169 -91 
Q 1331 -91 842 396 
Q 353 884 353 1716 
Q 353 2575 817 3079 
Q 1281 3584 2069 3584 
Q 2775 3584 3186 3129 
Q 3597 2675 3597 1894 
z
M 3022 2063 
Q 3016 2534 2758 2815 
Q 2500 3097 2075 3097 
Q 1594 3097 1305 2825 
Q 1016 2553 972 2059 
L 3022 2063 
z
" transform="scale(0.015625)"/>
       <path id="DejaVuSans-28" d="M 1984 4856 
Q 1566 4138 1362 3434 
Q 1159 2731 1159 2009 
Q 1159 1288 1364 580 
Q 1569 -128 1984 -844 
L 1484 -844 
Q 1016 -109 783 600 
Q 550 1309 550 2009 
Q 550 2706 781 3412 
Q 1013 4119 1484 4856 
L 1984 4856 
z
" transform="scale(0.015625)"/>
       <path id="DejaVuSans-62" d="M 3116 1747 
Q 3116 2381 2855 2742 
Q 2594 3103 2138 3103 
Q 1681 3103 1420 2742 
Q 1159 2381 1159 1747 
Q 1159 1113 1420 752 
Q 1681 391 2138 391 
Q 2594 391 2855 752 
Q 3116 1113 3116 1747 
z
M 1159 2969 
Q 1341 3281 1617 3432 
Q 1894 3584 2278 3584 
Q 2916 3584 3314 3078 
Q 3713 2572 3713 1747 
Q 3713 922 3314 415 
Q 2916 -91 2278 -91 
Q 1894 -91 1617 61 
Q 1341 213 1159 525 
L 1159 0 
L 581 0 
L 581 4863 
L 1159 4863 
L 1159 2969 
z
" transform="scale(0.015625)"/>
       <path id="DejaVuSans-6e" d="M 3513 2113 
L 3513 0 
L 2938 0 
L 2938 2094 
Q 2938 2591 2744 2837 
Q 2550 3084 2163 3084 
Q 1697 3084 1428 2787 
Q 1159 2491 1159 1978 
L 1159 0 
L 581 0 
L 581 3500 
L 1159 3500 
L 1159 2956 
Q 1366 3272 1645 3428 
Q 1925 3584 2291 3584 
Q 2894 3584 3203 3211 
Q 3513 2838 3513 2113 
z
" transform="scale(0.015625)"/>
       <path id="DejaVuSans-29" d="M 513 4856 
L 1013 4856 
Q 1481 4119 1714 3412 
Q 1947 2706 1947 2009 
Q 1947 1309 1714 600 
Q 1481 -109 1013 -844 
L 513 -844 
Q 928 -128 1133 580 
Q 1338 1288 1338 2009 
Q 1338 2731 1133 3434 
Q 928 4138 513 4856 
z
" transform="scale(0.015625)"/>
      </defs>
      <use xlink:href="#DejaVuSans-4d"/>
      <use xlink:href="#DejaVuSans-61" x="86.279297"/>
      <use xlink:href="#DejaVuSans-78" x="147.558594"/>
      <use xlink:href="#DejaVuSans-69" x="206.738281"/>
      <use xlink:href="#DejaVuSans-6d" x="234.521484"/>
      <use xlink:href="#DejaVuSans-75" x="331.933594"/>
      <use xlink:href="#DejaVuSans-6d" x="395.3125"/>
      <use xlink:href="#DejaVuSans-20" x="492.724609"/>
      <use xlink:href="#DejaVuSans-70" x="524.511719"/>
      <use xlink:href="#DejaVuSans-72" x="587.988281"/>
      <use xlink:href="#DejaVuSans-6f" x="626.851562"/>
      <use xlink:href="#DejaVuSans-67" x="688.033203"/>
      <use xlink:href="#DejaVuSans-72" x="751.509766"/>
      <use xlink:href="#DejaVuSans-61" x="792.623047"/>
      <use xlink:href="#DejaVuSans-6d" x="853.902344"/>
      <use xlink:href="#DejaVuSans-20" x="951.314453"/>
      <use xlink:href="#DejaVuSans-73" x="983.101562"/>
      <use xlink:href="#DejaVuSans-69" x="1035.201172"/>
      <use xlink:href="#DejaVuSans-7a" x="1062.984375"/>
      <use xlink:href="#DejaVuSans-65" x="1115.474609"/>
      <use xlink:href="#DejaVuSans-20" x="1176.998047"/>
      <use xlink:href="#DejaVuSans-28" x="1208.785156"/>
      <use xlink:href="#DejaVuSans-62" x="1247.798828"/>
      <use xlink:href="#DejaVuSans-69" x="1311.275391"/>
      <use xlink:href="#DejaVuSans-6e" x="1339.058594"/>
      <use xlink:href="#DejaVuSans-20" x="1402.4375"/>
      <use xlink:href="#DejaVuSans-6e" x="1434.224609"/>
      <use xlink:href="#DejaVuSans-75" x="1497.603516"/>
      <use xlink:href="#DejaVuSans-6d" x="1560.982422"/>
      <use xlink:href="#DejaVuSans-62" x="1658.394531"/>
      <use xlink:href="#DejaVuSans-65" x="1721.871094"/>
      <use xlink:href="#DejaVuSans-72" x="1783.394531"/>
      <use xlink:href="#DejaVuSans-29" x="1824.507812"/>
     </g>
    </g>
   </g>
   <g id="matplotlib.axis_2">
    <g id="ytick_1">
     <g id="line2d_8">
      <defs>
       <path id="m8709b23883" d="M 0 0 
L -3.5 0 
" style="stroke: #000000; stroke-width: 0.8"/>
      </defs>
      <g>
       <use xlink:href="#m8709b23883" x="54" y="205.277606" style="stroke: #000000; stroke-width: 0.8"/>
      </g>
     </g>
     <g id="text_9">
      <!-- $\mathdefault{10^{-3}}$ -->
      <g transform="translate(23.5 209.076825)scale(0.1 -0.1)">
       <defs>
        <path id="DejaVuSans-2212" d="M 678 2272 
L 4684 2272 
L 4684 1741 
L 678 1741 
L 678 2272 
z
" transform="scale(0.015625)"/>
       </defs>
       <use xlink:href="#DejaVuSans-31" transform="translate(0 0.765625)"/>
       <use xlink:href="#DejaVuSans-30" transform="translate(63.623047 0.765625)"/>
       <use xlink:href="#DejaVuSans-2212" transform="translate(128.203125 39.046875)scale(0.7)"/>
       <use xlink:href="#DejaVuSans-33" transform="translate(186.855469 39.046875)scale(0.7)"/>
      </g>
     </g>
    </g>
    <g id="ytick_2">
     <g id="line2d_9">
      <g>
       <use xlink:href="#m8709b23883" x="54" y="148.604397" style="stroke: #000000; stroke-width: 0.8"/>
      </g>
     </g>
     <g id="text_10">
      <!-- $\mathdefault{10^{-2}}$ -->
      <g transform="translate(23.5 152.403615)scale(0.1 -0.1)">
       <use xlink:href="#DejaVuSans-31" transform="translate(0 0.765625)"/>
       <use xlink:href="#DejaVuSans-30" transform="translate(63.623047 0.765625)"/>
       <use xlink:href="#DejaVuSans-2212" transform="translate(128.203125 39.046875)scale(0.7)"/>
       <use xlink:href="#DejaVuSans-32" transform="translate(186.855469 39.046875)scale(0.7)"/>
      </g>
     </g>
    </g>
    <g id="ytick_3">
     <g id="line2d_10">
      <g>
       <use xlink:href="#m8709b23883" x="54" y="91.931187" style="stroke: #000000; stroke-width: 0.8"/>
      </g>
     </g>
     <g id="text_11">
      <!-- $\mathdefault{10^{-1}}$ -->
      <g transform="translate(23.5 95.730406)scale(0.1 -0.1)">
       <use xlink:href="#DejaVuSans-31" transform="translate(0 0.684375)"/>
       <use xlink:href="#DejaVuSans-30" transform="translate(63.623047 0.684375)"/>
       <use xlink:href="#DejaVuSans-2212" transform="translate(128.203125 38.965625)scale(0.7)"/>
       <use xlink:href="#DejaVuSans-31" transform="translate(186.855469 38.965625)scale(0.7)"/>
      </g>
     </g>
    </g>
    <g id="ytick_4">
     <g id="line2d_11">
      <g>
       <use xlink:href="#m8709b23883" x="54" y="35.257978" style="stroke: #000000; stroke-width: 0.8"/>
      </g>
     </g>
     <g id="text_12">
      <!-- $\mathdefault{10^{0}}$ -->
      <g transform="translate(29.4 39.057197)scale(0.1 -0.1)">
       <use xlink:href="#DejaVuSans-31" transform="translate(0 0.765625)"/>
       <use xlink:href="#DejaVuSans-30" transform="translate(63.623047 0.765625)"/>
       <use xlink:href="#DejaVuSans-30" transform="translate(128.203125 39.046875)scale(0.7)"/>
      </g>
     </g>
    </g>
    <g id="ytick_5">
     <g id="line2d_12">
      <defs>
       <path id="m0f655b2388" d="M 0 0 
L -2 0 
" style="stroke: #000000; stroke-width: 0.6"/>
      </defs>
      <g>
       <use xlink:href="#m0f655b2388" x="54" y="244.890479" style="stroke: #000000; stroke-width: 0.6"/>
      </g>
     </g>
    </g>
    <g id="ytick_6">
     <g id="line2d_13">
      <g>
       <use xlink:href="#m0f655b2388" x="54" y="234.910823" style="stroke: #000000; stroke-width: 0.6"/>
      </g>
     </g>
    </g>
    <g id="ytick_7">
     <g id="line2d_14">
      <g>
       <use xlink:href="#m0f655b2388" x="54" y="227.830143" style="stroke: #000000; stroke-width: 0.6"/>
      </g>
     </g>
    </g>
    <g id="ytick_8">
     <g id="line2d_15">
      <g>
       <use xlink:href="#m0f655b2388" x="54" y="222.337942" style="stroke: #000000; stroke-width: 0.6"/>
      </g>
     </g>
    </g>
    <g id="ytick_9">
     <g id="line2d_16">
      <g>
       <use xlink:href="#m0f655b2388" x="54" y="217.850487" style="stroke: #000000; stroke-width: 0.6"/>
      </g>
     </g>
    </g>
    <g id="ytick_10">
     <g id="line2d_17">
      <g>
       <use xlink:href="#m0f655b2388" x="54" y="214.056397" style="stroke: #000000; stroke-width: 0.6"/>
      </g>
     </g>
    </g>
    <g id="ytick_11">
     <g id="line2d_18">
      <g>
       <use xlink:href="#m0f655b2388" x="54" y="210.769807" style="stroke: #000000; stroke-width: 0.6"/>
      </g>
     </g>
    </g>
    <g id="ytick_12">
     <g id="line2d_19">
      <g>
       <use xlink:href="#m0f655b2388" x="54" y="207.87083" style="stroke: #000000; stroke-width: 0.6"/>
      </g>
     </g>
    </g>
    <g id="ytick_13">
     <g id="line2d_20">
      <g>
       <use xlink:href="#m0f655b2388" x="54" y="188.21727" style="stroke: #000000; stroke-width: 0.6"/>
      </g>
     </g>
    </g>
    <g id="ytick_14">
     <g id="line2d_21">
      <g>
       <use xlink:href="#m0f655b2388" x="54" y="178.237613" style="stroke: #000000; stroke-width: 0.6"/>
      </g>
     </g>
    </g>
    <g id="ytick_15">
     <g id="line2d_22">
      <g>
       <use xlink:href="#m0f655b2388" x="54" y="171.156934" style="stroke: #000000; stroke-width: 0.6"/>
      </g>
     </g>
    </g>
    <g id="ytick_16">
     <g id="line2d_23">
      <g>
       <use xlink:href="#m0f655b2388" x="54" y="165.664733" style="stroke: #000000; stroke-width: 0.6"/>
      </g>
     </g>
    </g>
    <g id="ytick_17">
     <g id="line2d_24">
      <g>
       <use xlink:href="#m0f655b2388" x="54" y="161.177277" style="stroke: #000000; stroke-width: 0.6"/>
      </g>
     </g>
    </g>
    <g id="ytick_18">
     <g id="line2d_25">
      <g>
       <use xlink:href="#m0f655b2388" x="54" y="157.383188" style="stroke: #000000; stroke-width: 0.6"/>
      </g>
     </g>
    </g>
    <g id="ytick_19">
     <g id="line2d_26">
      <g>
       <use xlink:href="#m0f655b2388" x="54" y="154.096598" style="stroke: #000000; stroke-width: 0.6"/>
      </g>
     </g>
    </g>
    <g id="ytick_20">
     <g id="line2d_27">
      <g>
       <use xlink:href="#m0f655b2388" x="54" y="151.19762" style="stroke: #000000; stroke-width: 0.6"/>
      </g>
     </g>
    </g>
    <g id="ytick_21">
     <g id="line2d_28">
      <g>
       <use xlink:href="#m0f655b2388" x="54" y="131.544061" style="stroke: #000000; stroke-width: 0.6"/>
      </g>
     </g>
    </g>
    <g id="ytick_22">
     <g id="line2d_29">
      <g>
       <use xlink:href="#m0f655b2388" x="54" y="121.564404" style="stroke: #000000; stroke-width: 0.6"/>
      </g>
     </g>
    </g>
    <g id="ytick_23">
     <g id="line2d_30">
      <g>
       <use xlink:href="#m0f655b2388" x="54" y="114.483725" style="stroke: #000000; stroke-width: 0.6"/>
      </g>
     </g>
    </g>
    <g id="ytick_24">
     <g id="line2d_31">
      <g>
       <use xlink:href="#m0f655b2388" x="54" y="108.991523" style="stroke: #000000; stroke-width: 0.6"/>
      </g>
     </g>
    </g>
    <g id="ytick_25">
     <g id="line2d_32">
      <g>
       <use xlink:href="#m0f655b2388" x="54" y="104.504068" style="stroke: #000000; stroke-width: 0.6"/>
      </g>
     </g>
    </g>
    <g id="ytick_26">
     <g id="line2d_33">
      <g>
       <use xlink:href="#m0f655b2388" x="54" y="100.709979" style="stroke: #000000; stroke-width: 0.6"/>
      </g>
     </g>
    </g>
    <g id="ytick_27">
     <g id="line2d_34">
      <g>
       <use xlink:href="#m0f655b2388" x="54" y="97.423389" style="stroke: #000000; stroke-width: 0.6"/>
      </g>
     </g>
    </g>
    <g id="ytick_28">
     <g id="line2d_35">
      <g>
       <use xlink:href="#m0f655b2388" x="54" y="94.524411" style="stroke: #000000; stroke-width: 0.6"/>
      </g>
     </g>
    </g>
    <g id="ytick_29">
     <g id="line2d_36">
      <g>
       <use xlink:href="#m0f655b2388" x="54" y="74.870851" style="stroke: #000000; stroke-width: 0.6"/>
      </g>
     </g>
    </g>
    <g id="ytick_30">
     <g id="line2d_37">
      <g>
       <use xlink:href="#m0f655b2388" x="54" y="64.891195" style="stroke: #000000; stroke-width: 0.6"/>
      </g>
     </g>
    </g>
    <g id="ytick_31">
     <g id="line2d_38">
      <g>
       <use xlink:href="#m0f655b2388" x="54" y="57.810515" style="stroke: #000000; stroke-width: 0.6"/>
      </g>
     </g>
    </g>
    <g id="ytick_32">
     <g id="line2d_39">
      <g>
       <use xlink:href="#m0f655b2388" x="54" y="52.318314" style="stroke: #000000; stroke-width: 0.6"/>
      </g>
     </g>
    </g>
    <g id="ytick_33">
     <g id="line2d_40">
      <g>
       <use xlink:href="#m0f655b2388" x="54" y="47.830859" style="stroke: #000000; stroke-width: 0.6"/>
      </g>
     </g>
    </g>
    <g id="ytick_34">
     <g id="line2d_41">
      <g>
       <use xlink:href="#m0f655b2388" x="54" y="44.036769" style="stroke: #000000; stroke-width: 0.6"/>
      </g>
     </g>
    </g>
    <g id="ytick_35">
     <g id="line2d_42">
      <g>
       <use xlink:href="#m0f655b2388" x="54" y="40.750179" style="stroke: #000000; stroke-width: 0.6"/>
      </g>
     </g>
    </g>
    <g id="ytick_36">
     <g id="line2d_43">
      <g>
       <use xlink:href="#m0f655b2388" x="54" y="37.851202" style="stroke: #000000; stroke-width: 0.6"/>
      </g>
     </g>
    </g>
    <g id="text_13">
     <!-- Median average runtime -->
     <g transform="translate(17.420312 204.804219)rotate(-90)scale(0.1 -0.1)">
      <defs>
       <path id="DejaVuSans-64" d="M 2906 2969 
L 2906 4863 
L 3481 4863 
L 3481 0 
L 2906 0 
L 2906 525 
Q 2725 213 2448 61 
Q 2172 -91 1784 -91 
Q 1150 -91 751 415 
Q 353 922 353 1747 
Q 353 2572 751 3078 
Q 1150 3584 1784 3584 
Q 2172 3584 2448 3432 
Q 2725 3281 2906 2969 
z
M 947 1747 
Q 947 1113 1208 752 
Q 1469 391 1925 391 
Q 2381 391 2643 752 
Q 2906 1113 2906 1747 
Q 2906 2381 2643 2742 
Q 2381 3103 1925 3103 
Q 1469 3103 1208 2742 
Q 947 2381 947 1747 
z
" transform="scale(0.015625)"/>
       <path id="DejaVuSans-76" d="M 191 3500 
L 800 3500 
L 1894 563 
L 2988 3500 
L 3597 3500 
L 2284 0 
L 1503 0 
L 191 3500 
z
" transform="scale(0.015625)"/>
       <path id="DejaVuSans-74" d="M 1172 4494 
L 1172 3500 
L 2356 3500 
L 2356 3053 
L 1172 3053 
L 1172 1153 
Q 1172 725 1289 603 
Q 1406 481 1766 481 
L 2356 481 
L 2356 0 
L 1766 0 
Q 1100 0 847 248 
Q 594 497 594 1153 
L 594 3053 
L 172 3053 
L 172 3500 
L 594 3500 
L 594 4494 
L 1172 4494 
z
" transform="scale(0.015625)"/>
      </defs>
      <use xlink:href="#DejaVuSans-4d"/>
      <use xlink:href="#DejaVuSans-65" x="86.279297"/>
      <use xlink:href="#DejaVuSans-64" x="147.802734"/>
      <use xlink:href="#DejaVuSans-69" x="211.279297"/>
      <use xlink:href="#DejaVuSans-61" x="239.0625"/>
      <use xlink:href="#DejaVuSans-6e" x="300.341797"/>
      <use xlink:href="#DejaVuSans-20" x="363.720703"/>
      <use xlink:href="#DejaVuSans-61" x="395.507812"/>
      <use xlink:href="#DejaVuSans-76" x="456.787109"/>
      <use xlink:href="#DejaVuSans-65" x="515.966797"/>
      <use xlink:href="#DejaVuSans-72" x="577.490234"/>
      <use xlink:href="#DejaVuSans-61" x="618.603516"/>
      <use xlink:href="#DejaVuSans-67" x="679.882812"/>
      <use xlink:href="#DejaVuSans-65" x="743.359375"/>
      <use xlink:href="#DejaVuSans-20" x="804.882812"/>
      <use xlink:href="#DejaVuSans-72" x="836.669922"/>
      <use xlink:href="#DejaVuSans-75" x="877.783203"/>
      <use xlink:href="#DejaVuSans-6e" x="941.162109"/>
      <use xlink:href="#DejaVuSans-74" x="1004.541016"/>
      <use xlink:href="#DejaVuSans-69" x="1043.75"/>
      <use xlink:href="#DejaVuSans-6d" x="1071.533203"/>
      <use xlink:href="#DejaVuSans-65" x="1168.945312"/>
     </g>
    </g>
   </g>
   <g id="line2d_44">
    <path d="M 69.218182 86.509715 
L 79.036364 84.149406 
L 88.854545 79.639877 
L 98.672727 77.901818 
L 108.490909 74.62671 
L 118.309091 72.734279 
L 128.127273 70.44124 
L 137.945455 69.128682 
L 147.763636 66.383551 
L 157.581818 66.349811 
L 167.4 62.971668 
L 177.218182 63.678075 
L 187.036364 60.759868 
L 196.854545 59.548224 
L 206.672727 58.808509 
L 216.490909 58.728366 
L 226.309091 56.093803 
L 236.127273 56.327015 
L 245.945455 54.508046 
L 255.763636 53.626265 
L 265.581818 52.199947 
L 275.4 51.638399 
L 285.218182 51.038556 
L 295.036364 50.161507 
L 304.854545 49.47686 
L 314.672727 48.882849 
L 324.490909 48.019264 
L 334.309091 47.352681 
L 344.127273 46.780648 
L 353.945455 46.416608 
L 363.763636 45.147912 
L 373.581818 44.443636 
" clip-path="url(#p451ff48ed1)" style="fill: none; stroke: #1f77b4; stroke-width: 1.5; stroke-linecap: square"/>
   </g>
   <g id="line2d_45">
    <path d="M 69.218182 115.104368 
L 79.036364 114.312547 
L 88.854545 111.898177 
L 98.672727 109.359048 
L 108.490909 108.279529 
L 118.309091 106.403704 
L 128.127273 104.218851 
L 137.945455 102.999482 
L 147.763636 101.036707 
L 157.581818 99.482324 
L 167.4 98.612913 
L 177.218182 98.060843 
L 187.036364 96.414658 
L 196.854545 95.374016 
L 206.672727 94.370554 
L 216.490909 94.203351 
L 226.309091 92.410163 
L 236.127273 91.6361 
L 245.945455 90.804342 
L 255.763636 89.95665 
L 265.581818 89.017558 
L 275.4 88.413047 
L 285.218182 87.158086 
L 295.036364 87.001883 
L 304.854545 86.245536 
L 314.672727 86.153988 
L 324.490909 84.442123 
L 334.309091 85.437004 
L 344.127273 84.078178 
L 353.945455 84.525394 
L 363.763636 83.51578 
L 373.581818 83.591731 
" clip-path="url(#p451ff48ed1)" style="fill: none; stroke: #ff7f0e; stroke-width: 1.5; stroke-linecap: square"/>
   </g>
   <g id="line2d_46">
    <path d="M 69.218182 119.67625 
L 79.036364 118.848624 
L 88.854545 114.479543 
L 98.672727 111.484681 
L 108.490909 108.364852 
L 118.309091 106.636579 
L 128.127273 103.725733 
L 137.945455 102.831319 
L 147.763636 100.041404 
L 157.581818 97.83996 
L 167.4 96.536005 
L 177.218182 95.54606 
L 187.036364 93.510522 
L 196.854545 92.435372 
L 206.672727 91.59654 
L 216.490909 90.608146 
L 226.309091 88.904016 
L 236.127273 87.771072 
L 245.945455 87.434083 
L 255.763636 85.7799 
L 265.581818 84.988337 
L 275.4 84.163219 
L 285.218182 83.325877 
L 295.036364 82.401265 
L 304.854545 81.867626 
L 314.672727 81.230364 
L 324.490909 80.42238 
L 334.309091 80.149976 
L 344.127273 79.056427 
L 353.945455 78.995744 
L 363.763636 77.819955 
L 373.581818 77.525579 
" clip-path="url(#p451ff48ed1)" style="fill: none; stroke: #2ca02c; stroke-width: 1.5; stroke-linecap: square"/>
   </g>
   <g id="line2d_47">
    <path d="M 69.218182 241.923187 
L 79.036364 233.766717 
L 88.854545 225.384201 
L 98.672727 218.12577 
L 108.490909 213.295375 
L 118.309091 215.13266 
L 128.127273 209.99818 
L 137.945455 205.228137 
L 147.763636 203.559069 
L 157.581818 200.877614 
L 167.4 198.809601 
L 177.218182 199.76214 
L 187.036364 199.161333 
L 196.854545 199.790504 
L 206.672727 199.62678 
L 216.490909 196.87497 
L 226.309091 191.059977 
L 236.127273 189.868657 
L 245.945455 190.850178 
L 255.763636 189.879183 
L 265.581818 189.378176 
L 275.4 190.718696 
L 285.218182 191.002492 
L 295.036364 191.173987 
L 304.854545 188.168316 
L 314.672727 192.923711 
L 324.490909 194.663503 
L 334.309091 196.506581 
L 344.127273 195.27059 
L 353.945455 202.57807 
L 363.763636 205.158539 
L 373.581818 215.831657 
" clip-path="url(#p451ff48ed1)" style="fill: none; stroke: #d62728; stroke-width: 1.5; stroke-linecap: square"/>
   </g>
   <g id="line2d_48">
    <path d="M 69.218182 163.934068 
L 79.036364 163.933799 
L 88.854545 163.933453 
L 98.672727 163.933184 
L 108.490909 163.93305 
L 118.309091 163.932646 
L 128.127273 163.932454 
L 137.945455 163.932108 
L 147.763636 163.931877 
L 157.581818 163.931628 
L 167.4 163.931397 
L 177.218182 163.931089 
L 187.036364 163.930916 
L 196.854545 163.930705 
L 206.672727 163.930436 
L 216.490909 163.930129 
L 226.309091 163.929936 
L 236.127273 163.929571 
L 245.945455 163.929302 
L 255.763636 163.929168 
L 265.581818 163.928899 
L 275.4 163.928803 
L 285.218182 163.92861 
L 295.036364 163.928168 
L 304.854545 163.927803 
L 314.672727 163.92763 
L 324.490909 163.927534 
L 334.309091 163.927131 
L 344.127273 163.926939 
L 353.945455 163.92667 
L 363.763636 163.926477 
L 373.581818 163.926381 
" clip-path="url(#p451ff48ed1)" style="fill: none; stroke: #9467bd; stroke-width: 1.5; stroke-linecap: square"/>
   </g>
   <g id="patch_3">
    <path d="M 54 252 
L 54 34.56 
" style="fill: none; stroke: #000000; stroke-width: 0.8; stroke-linejoin: miter; stroke-linecap: square"/>
   </g>
   <g id="patch_4">
    <path d="M 388.8 252 
L 388.8 34.56 
" style="fill: none; stroke: #000000; stroke-width: 0.8; stroke-linejoin: miter; stroke-linecap: square"/>
   </g>
   <g id="patch_5">
    <path d="M 54 252 
L 388.8 252 
" style="fill: none; stroke: #000000; stroke-width: 0.8; stroke-linejoin: miter; stroke-linecap: square"/>
   </g>
   <g id="patch_6">
    <path d="M 54 34.56 
L 388.8 34.56 
" style="fill: none; stroke: #000000; stroke-width: 0.8; stroke-linejoin: miter; stroke-linecap: square"/>
   </g>
   <g id="text_14">
    <!-- Median Average Runtime vs. Max. Program Size (10000 f.c., nicolau_b) -->
    <g transform="translate(9.329063 28.56)scale(0.12 -0.12)">
     <defs>
      <path id="DejaVuSans-41" d="M 2188 4044 
L 1331 1722 
L 3047 1722 
L 2188 4044 
z
M 1831 4666 
L 2547 4666 
L 4325 0 
L 3669 0 
L 3244 1197 
L 1141 1197 
L 716 0 
L 50 0 
L 1831 4666 
z
" transform="scale(0.015625)"/>
      <path id="DejaVuSans-52" d="M 2841 2188 
Q 3044 2119 3236 1894 
Q 3428 1669 3622 1275 
L 4263 0 
L 3584 0 
L 2988 1197 
Q 2756 1666 2539 1819 
Q 2322 1972 1947 1972 
L 1259 1972 
L 1259 0 
L 628 0 
L 628 4666 
L 2053 4666 
Q 2853 4666 3247 4331 
Q 3641 3997 3641 3322 
Q 3641 2881 3436 2590 
Q 3231 2300 2841 2188 
z
M 1259 4147 
L 1259 2491 
L 2053 2491 
Q 2509 2491 2742 2702 
Q 2975 2913 2975 3322 
Q 2975 3731 2742 3939 
Q 2509 4147 2053 4147 
L 1259 4147 
z
" transform="scale(0.015625)"/>
      <path id="DejaVuSans-2e" d="M 684 794 
L 1344 794 
L 1344 0 
L 684 0 
L 684 794 
z
" transform="scale(0.015625)"/>
      <path id="DejaVuSans-50" d="M 1259 4147 
L 1259 2394 
L 2053 2394 
Q 2494 2394 2734 2622 
Q 2975 2850 2975 3272 
Q 2975 3691 2734 3919 
Q 2494 4147 2053 4147 
L 1259 4147 
z
M 628 4666 
L 2053 4666 
Q 2838 4666 3239 4311 
Q 3641 3956 3641 3272 
Q 3641 2581 3239 2228 
Q 2838 1875 2053 1875 
L 1259 1875 
L 1259 0 
L 628 0 
L 628 4666 
z
" transform="scale(0.015625)"/>
      <path id="DejaVuSans-53" d="M 3425 4513 
L 3425 3897 
Q 3066 4069 2747 4153 
Q 2428 4238 2131 4238 
Q 1616 4238 1336 4038 
Q 1056 3838 1056 3469 
Q 1056 3159 1242 3001 
Q 1428 2844 1947 2747 
L 2328 2669 
Q 3034 2534 3370 2195 
Q 3706 1856 3706 1288 
Q 3706 609 3251 259 
Q 2797 -91 1919 -91 
Q 1588 -91 1214 -16 
Q 841 59 441 206 
L 441 856 
Q 825 641 1194 531 
Q 1563 422 1919 422 
Q 2459 422 2753 634 
Q 3047 847 3047 1241 
Q 3047 1584 2836 1778 
Q 2625 1972 2144 2069 
L 1759 2144 
Q 1053 2284 737 2584 
Q 422 2884 422 3419 
Q 422 4038 858 4394 
Q 1294 4750 2059 4750 
Q 2388 4750 2728 4690 
Q 3069 4631 3425 4513 
z
" transform="scale(0.015625)"/>
      <path id="DejaVuSans-66" d="M 2375 4863 
L 2375 4384 
L 1825 4384 
Q 1516 4384 1395 4259 
Q 1275 4134 1275 3809 
L 1275 3500 
L 2222 3500 
L 2222 3053 
L 1275 3053 
L 1275 0 
L 697 0 
L 697 3053 
L 147 3053 
L 147 3500 
L 697 3500 
L 697 3744 
Q 697 4328 969 4595 
Q 1241 4863 1831 4863 
L 2375 4863 
z
" transform="scale(0.015625)"/>
      <path id="DejaVuSans-63" d="M 3122 3366 
L 3122 2828 
Q 2878 2963 2633 3030 
Q 2388 3097 2138 3097 
Q 1578 3097 1268 2742 
Q 959 2388 959 1747 
Q 959 1106 1268 751 
Q 1578 397 2138 397 
Q 2388 397 2633 464 
Q 2878 531 3122 666 
L 3122 134 
Q 2881 22 2623 -34 
Q 2366 -91 2075 -91 
Q 1284 -91 818 406 
Q 353 903 353 1747 
Q 353 2603 823 3093 
Q 1294 3584 2113 3584 
Q 2378 3584 2631 3529 
Q 2884 3475 3122 3366 
z
" transform="scale(0.015625)"/>
      <path id="DejaVuSans-2c" d="M 750 794 
L 1409 794 
L 1409 256 
L 897 -744 
L 494 -744 
L 750 256 
L 750 794 
z
" transform="scale(0.015625)"/>
      <path id="DejaVuSans-6c" d="M 603 4863 
L 1178 4863 
L 1178 0 
L 603 0 
L 603 4863 
z
" transform="scale(0.015625)"/>
      <path id="DejaVuSans-5f" d="M 3263 -1063 
L 3263 -1509 
L -63 -1509 
L -63 -1063 
L 3263 -1063 
z
" transform="scale(0.015625)"/>
     </defs>
     <use xlink:href="#DejaVuSans-4d"/>
     <use xlink:href="#DejaVuSans-65" x="86.279297"/>
     <use xlink:href="#DejaVuSans-64" x="147.802734"/>
     <use xlink:href="#DejaVuSans-69" x="211.279297"/>
     <use xlink:href="#DejaVuSans-61" x="239.0625"/>
     <use xlink:href="#DejaVuSans-6e" x="300.341797"/>
     <use xlink:href="#DejaVuSans-20" x="363.720703"/>
     <use xlink:href="#DejaVuSans-41" x="395.507812"/>
     <use xlink:href="#DejaVuSans-76" x="458.041016"/>
     <use xlink:href="#DejaVuSans-65" x="517.220703"/>
     <use xlink:href="#DejaVuSans-72" x="578.744141"/>
     <use xlink:href="#DejaVuSans-61" x="619.857422"/>
     <use xlink:href="#DejaVuSans-67" x="681.136719"/>
     <use xlink:href="#DejaVuSans-65" x="744.613281"/>
     <use xlink:href="#DejaVuSans-20" x="806.136719"/>
     <use xlink:href="#DejaVuSans-52" x="837.923828"/>
     <use xlink:href="#DejaVuSans-75" x="902.90625"/>
     <use xlink:href="#DejaVuSans-6e" x="966.285156"/>
     <use xlink:href="#DejaVuSans-74" x="1029.664062"/>
     <use xlink:href="#DejaVuSans-69" x="1068.873047"/>
     <use xlink:href="#DejaVuSans-6d" x="1096.65625"/>
     <use xlink:href="#DejaVuSans-65" x="1194.068359"/>
     <use xlink:href="#DejaVuSans-20" x="1255.591797"/>
     <use xlink:href="#DejaVuSans-76" x="1287.378906"/>
     <use xlink:href="#DejaVuSans-73" x="1346.558594"/>
     <use xlink:href="#DejaVuSans-2e" x="1398.658203"/>
     <use xlink:href="#DejaVuSans-20" x="1430.445312"/>
     <use xlink:href="#DejaVuSans-4d" x="1462.232422"/>
     <use xlink:href="#DejaVuSans-61" x="1548.511719"/>
     <use xlink:href="#DejaVuSans-78" x="1609.791016"/>
     <use xlink:href="#DejaVuSans-2e" x="1668.970703"/>
     <use xlink:href="#DejaVuSans-20" x="1700.757812"/>
     <use xlink:href="#DejaVuSans-50" x="1732.544922"/>
     <use xlink:href="#DejaVuSans-72" x="1791.097656"/>
     <use xlink:href="#DejaVuSans-6f" x="1829.960938"/>
     <use xlink:href="#DejaVuSans-67" x="1891.142578"/>
     <use xlink:href="#DejaVuSans-72" x="1954.619141"/>
     <use xlink:href="#DejaVuSans-61" x="1995.732422"/>
     <use xlink:href="#DejaVuSans-6d" x="2057.011719"/>
     <use xlink:href="#DejaVuSans-20" x="2154.423828"/>
     <use xlink:href="#DejaVuSans-53" x="2186.210938"/>
     <use xlink:href="#DejaVuSans-69" x="2249.6875"/>
     <use xlink:href="#DejaVuSans-7a" x="2277.470703"/>
     <use xlink:href="#DejaVuSans-65" x="2329.960938"/>
     <use xlink:href="#DejaVuSans-20" x="2391.484375"/>
     <use xlink:href="#DejaVuSans-28" x="2423.271484"/>
     <use xlink:href="#DejaVuSans-31" x="2462.285156"/>
     <use xlink:href="#DejaVuSans-30" x="2525.908203"/>
     <use xlink:href="#DejaVuSans-30" x="2589.53125"/>
     <use xlink:href="#DejaVuSans-30" x="2653.154297"/>
     <use xlink:href="#DejaVuSans-30" x="2716.777344"/>
     <use xlink:href="#DejaVuSans-20" x="2780.400391"/>
     <use xlink:href="#DejaVuSans-66" x="2812.1875"/>
     <use xlink:href="#DejaVuSans-2e" x="2840.142578"/>
     <use xlink:href="#DejaVuSans-63" x="2871.929688"/>
     <use xlink:href="#DejaVuSans-2e" x="2926.910156"/>
     <use xlink:href="#DejaVuSans-2c" x="2958.697266"/>
     <use xlink:href="#DejaVuSans-20" x="2990.484375"/>
     <use xlink:href="#DejaVuSans-6e" x="3022.271484"/>
     <use xlink:href="#DejaVuSans-69" x="3085.650391"/>
     <use xlink:href="#DejaVuSans-63" x="3113.433594"/>
     <use xlink:href="#DejaVuSans-6f" x="3168.414062"/>
     <use xlink:href="#DejaVuSans-6c" x="3229.595703"/>
     <use xlink:href="#DejaVuSans-61" x="3257.378906"/>
     <use xlink:href="#DejaVuSans-75" x="3318.658203"/>
     <use xlink:href="#DejaVuSans-5f" x="3382.037109"/>
     <use xlink:href="#DejaVuSans-62" x="3432.037109"/>
     <use xlink:href="#DejaVuSans-29" x="3495.513672"/>
    </g>
   </g>
   <g id="legend_1">
    <g id="patch_7">
     <path d="M 61 115.950625 
L 171.19375 115.950625 
Q 173.19375 115.950625 173.19375 113.950625 
L 173.19375 41.56 
Q 173.19375 39.56 171.19375 39.56 
L 61 39.56 
Q 59 39.56 59 41.56 
L 59 113.950625 
Q 59 115.950625 61 115.950625 
z
" style="fill: #ffffff; opacity: 0.8; stroke: #cccccc; stroke-linejoin: miter"/>
    </g>
    <g id="line2d_49">
     <path d="M 63 47.658437 
L 73 47.658437 
L 83 47.658437 
" style="fill: none; stroke: #1f77b4; stroke-width: 1.5; stroke-linecap: square"/>
    </g>
    <g id="text_15">
     <!-- DEAP -->
     <g transform="translate(91 51.158437)scale(0.1 -0.1)">
      <defs>
       <path id="DejaVuSans-44" d="M 1259 4147 
L 1259 519 
L 2022 519 
Q 2988 519 3436 956 
Q 3884 1394 3884 2338 
Q 3884 3275 3436 3711 
Q 2988 4147 2022 4147 
L 1259 4147 
z
M 628 4666 
L 1925 4666 
Q 3281 4666 3915 4102 
Q 4550 3538 4550 2338 
Q 4550 1131 3912 565 
Q 3275 0 1925 0 
L 628 0 
L 628 4666 
z
" transform="scale(0.015625)"/>
       <path id="DejaVuSans-45" d="M 628 4666 
L 3578 4666 
L 3578 4134 
L 1259 4134 
L 1259 2753 
L 3481 2753 
L 3481 2222 
L 1259 2222 
L 1259 531 
L 3634 531 
L 3634 0 
L 628 0 
L 628 4666 
z
" transform="scale(0.015625)"/>
      </defs>
      <use xlink:href="#DejaVuSans-44"/>
      <use xlink:href="#DejaVuSans-45" x="77.001953"/>
      <use xlink:href="#DejaVuSans-41" x="140.185547"/>
      <use xlink:href="#DejaVuSans-50" x="208.59375"/>
     </g>
    </g>
    <g id="line2d_50">
     <path d="M 63 62.336562 
L 73 62.336562 
L 83 62.336562 
" style="fill: none; stroke: #ff7f0e; stroke-width: 1.5; stroke-linecap: square"/>
    </g>
    <g id="text_16">
     <!-- TensorGP (CPU) -->
     <g transform="translate(91 65.836562)scale(0.1 -0.1)">
      <defs>
       <path id="DejaVuSans-54" d="M -19 4666 
L 3928 4666 
L 3928 4134 
L 2272 4134 
L 2272 0 
L 1638 0 
L 1638 4134 
L -19 4134 
L -19 4666 
z
" transform="scale(0.015625)"/>
       <path id="DejaVuSans-47" d="M 3809 666 
L 3809 1919 
L 2778 1919 
L 2778 2438 
L 4434 2438 
L 4434 434 
Q 4069 175 3628 42 
Q 3188 -91 2688 -91 
Q 1594 -91 976 548 
Q 359 1188 359 2328 
Q 359 3472 976 4111 
Q 1594 4750 2688 4750 
Q 3144 4750 3555 4637 
Q 3966 4525 4313 4306 
L 4313 3634 
Q 3963 3931 3569 4081 
Q 3175 4231 2741 4231 
Q 1884 4231 1454 3753 
Q 1025 3275 1025 2328 
Q 1025 1384 1454 906 
Q 1884 428 2741 428 
Q 3075 428 3337 486 
Q 3600 544 3809 666 
z
" transform="scale(0.015625)"/>
       <path id="DejaVuSans-43" d="M 4122 4306 
L 4122 3641 
Q 3803 3938 3442 4084 
Q 3081 4231 2675 4231 
Q 1875 4231 1450 3742 
Q 1025 3253 1025 2328 
Q 1025 1406 1450 917 
Q 1875 428 2675 428 
Q 3081 428 3442 575 
Q 3803 722 4122 1019 
L 4122 359 
Q 3791 134 3420 21 
Q 3050 -91 2638 -91 
Q 1578 -91 968 557 
Q 359 1206 359 2328 
Q 359 3453 968 4101 
Q 1578 4750 2638 4750 
Q 3056 4750 3426 4639 
Q 3797 4528 4122 4306 
z
" transform="scale(0.015625)"/>
       <path id="DejaVuSans-55" d="M 556 4666 
L 1191 4666 
L 1191 1831 
Q 1191 1081 1462 751 
Q 1734 422 2344 422 
Q 2950 422 3222 751 
Q 3494 1081 3494 1831 
L 3494 4666 
L 4128 4666 
L 4128 1753 
Q 4128 841 3676 375 
Q 3225 -91 2344 -91 
Q 1459 -91 1007 375 
Q 556 841 556 1753 
L 556 4666 
z
" transform="scale(0.015625)"/>
      </defs>
      <use xlink:href="#DejaVuSans-54"/>
      <use xlink:href="#DejaVuSans-65" x="44.083984"/>
      <use xlink:href="#DejaVuSans-6e" x="105.607422"/>
      <use xlink:href="#DejaVuSans-73" x="168.986328"/>
      <use xlink:href="#DejaVuSans-6f" x="221.085938"/>
      <use xlink:href="#DejaVuSans-72" x="282.267578"/>
      <use xlink:href="#DejaVuSans-47" x="323.380859"/>
      <use xlink:href="#DejaVuSans-50" x="400.871094"/>
      <use xlink:href="#DejaVuSans-20" x="461.173828"/>
      <use xlink:href="#DejaVuSans-28" x="492.960938"/>
      <use xlink:href="#DejaVuSans-43" x="531.974609"/>
      <use xlink:href="#DejaVuSans-50" x="601.798828"/>
      <use xlink:href="#DejaVuSans-55" x="662.101562"/>
      <use xlink:href="#DejaVuSans-29" x="735.294922"/>
     </g>
    </g>
    <g id="line2d_51">
     <path d="M 63 77.014687 
L 73 77.014687 
L 83 77.014687 
" style="fill: none; stroke: #2ca02c; stroke-width: 1.5; stroke-linecap: square"/>
    </g>
    <g id="text_17">
     <!-- TensorGP (GPU) -->
     <g transform="translate(91 80.514687)scale(0.1 -0.1)">
      <use xlink:href="#DejaVuSans-54"/>
      <use xlink:href="#DejaVuSans-65" x="44.083984"/>
      <use xlink:href="#DejaVuSans-6e" x="105.607422"/>
      <use xlink:href="#DejaVuSans-73" x="168.986328"/>
      <use xlink:href="#DejaVuSans-6f" x="221.085938"/>
      <use xlink:href="#DejaVuSans-72" x="282.267578"/>
      <use xlink:href="#DejaVuSans-47" x="323.380859"/>
      <use xlink:href="#DejaVuSans-50" x="400.871094"/>
      <use xlink:href="#DejaVuSans-20" x="461.173828"/>
      <use xlink:href="#DejaVuSans-28" x="492.960938"/>
      <use xlink:href="#DejaVuSans-47" x="531.974609"/>
      <use xlink:href="#DejaVuSans-50" x="609.464844"/>
      <use xlink:href="#DejaVuSans-55" x="669.767578"/>
      <use xlink:href="#DejaVuSans-29" x="742.960938"/>
     </g>
    </g>
    <g id="line2d_52">
     <path d="M 63 91.692813 
L 73 91.692813 
L 83 91.692813 
" style="fill: none; stroke: #d62728; stroke-width: 1.5; stroke-linecap: square"/>
    </g>
    <g id="text_18">
     <!-- Operon -->
     <g transform="translate(91 95.192813)scale(0.1 -0.1)">
      <defs>
       <path id="DejaVuSans-4f" d="M 2522 4238 
Q 1834 4238 1429 3725 
Q 1025 3213 1025 2328 
Q 1025 1447 1429 934 
Q 1834 422 2522 422 
Q 3209 422 3611 934 
Q 4013 1447 4013 2328 
Q 4013 3213 3611 3725 
Q 3209 4238 2522 4238 
z
M 2522 4750 
Q 3503 4750 4090 4092 
Q 4678 3434 4678 2328 
Q 4678 1225 4090 567 
Q 3503 -91 2522 -91 
Q 1538 -91 948 565 
Q 359 1222 359 2328 
Q 359 3434 948 4092 
Q 1538 4750 2522 4750 
z
" transform="scale(0.015625)"/>
      </defs>
      <use xlink:href="#DejaVuSans-4f"/>
      <use xlink:href="#DejaVuSans-70" x="78.710938"/>
      <use xlink:href="#DejaVuSans-65" x="142.1875"/>
      <use xlink:href="#DejaVuSans-72" x="203.710938"/>
      <use xlink:href="#DejaVuSans-6f" x="242.574219"/>
      <use xlink:href="#DejaVuSans-6e" x="303.755859"/>
     </g>
    </g>
    <g id="line2d_53">
     <path d="M 63 106.370937 
L 73 106.370937 
L 83 106.370937 
" style="fill: none; stroke: #9467bd; stroke-width: 1.5; stroke-linecap: square"/>
    </g>
    <g id="text_19">
     <!-- FPGA -->
     <g transform="translate(91 109.870937)scale(0.1 -0.1)">
      <defs>
       <path id="DejaVuSans-46" d="M 628 4666 
L 3309 4666 
L 3309 4134 
L 1259 4134 
L 1259 2759 
L 3109 2759 
L 3109 2228 
L 1259 2228 
L 1259 0 
L 628 0 
L 628 4666 
z
" transform="scale(0.015625)"/>
      </defs>
      <use xlink:href="#DejaVuSans-46"/>
      <use xlink:href="#DejaVuSans-50" x="57.519531"/>
      <use xlink:href="#DejaVuSans-47" x="117.822266"/>
      <use xlink:href="#DejaVuSans-41" x="195.3125"/>
     </g>
    </g>
   </g>
  </g>
 </g>
 <defs>
  <clipPath id="p451ff48ed1">
   <rect x="54" y="34.56" width="334.8" height="217.44"/>
  </clipPath>
 </defs>
</svg>
