<?xml version="1.0" encoding="utf-8" standalone="no"?>
<!DOCTYPE svg PUBLIC "-//W3C//DTD SVG 1.1//EN"
  "http://www.w3.org/Graphics/SVG/1.1/DTD/svg11.dtd">
<svg xmlns:xlink="http://www.w3.org/1999/xlink" width="432pt" height="288pt" viewBox="0 0 432 288" xmlns="http://www.w3.org/2000/svg" version="1.1">
 <metadata>
  <rdf:RDF xmlns:dc="http://purl.org/dc/elements/1.1/" xmlns:cc="http://creativecommons.org/ns#" xmlns:rdf="http://www.w3.org/1999/02/22-rdf-syntax-ns#">
   <cc:Work>
    <dc:type rdf:resource="http://purl.org/dc/dcmitype/StillImage"/>
    <dc:date>2022-01-11T12:01:26.415410</dc:date>
    <dc:format>image/svg+xml</dc:format>
    <dc:creator>
     <cc:Agent>
      <dc:title>Matplotlib v3.5.1, https://matplotlib.org/</dc:title>
     </cc:Agent>
    </dc:creator>
   </cc:Work>
  </rdf:RDF>
 </metadata>
 <defs>
  <style type="text/css">*{stroke-linejoin: round; stroke-linecap: butt}</style>
 </defs>
 <g id="figure_1">
  <g id="patch_1">
   <path d="M 0 288 
L 432 288 
L 432 0 
L 0 0 
L 0 288 
z
" style="fill: none"/>
  </g>
  <g id="axes_1">
   <g id="patch_2">
    <path d="M 54 252 
L 388.8 252 
L 388.8 34.56 
L 54 34.56 
z
" style="fill: #ffffff"/>
   </g>
   <g id="patch_3">
    <path d="M 69.218182 252 
L 71.123431 252 
L 71.123431 252 
L 69.218182 252 
z
" clip-path="url(#p20b8b18c68)" style="fill: #1f77b4"/>
   </g>
   <g id="patch_4">
    <path d="M 71.599744 252 
L 73.504994 252 
L 73.504994 60.843956 
L 71.599744 60.843956 
z
" clip-path="url(#p20b8b18c68)" style="fill: #1f77b4"/>
   </g>
   <g id="patch_5">
    <path d="M 73.981306 252 
L 75.886556 252 
L 75.886556 156.421978 
L 73.981306 156.421978 
z
" clip-path="url(#p20b8b18c68)" style="fill: #1f77b4"/>
   </g>
   <g id="patch_6">
    <path d="M 76.362868 252 
L 78.268118 252 
L 78.268118 44.914286 
L 76.362868 44.914286 
z
" clip-path="url(#p20b8b18c68)" style="fill: #1f77b4"/>
   </g>
   <g id="patch_7">
    <path d="M 78.74443 252 
L 80.64968 252 
L 80.64968 144.474725 
L 78.74443 144.474725 
z
" clip-path="url(#p20b8b18c68)" style="fill: #1f77b4"/>
   </g>
   <g id="patch_8">
    <path d="M 81.125992 252 
L 83.031242 252 
L 83.031242 127.748571 
L 81.125992 127.748571 
z
" clip-path="url(#p20b8b18c68)" style="fill: #1f77b4"/>
   </g>
   <g id="patch_9">
    <path d="M 83.507554 252 
L 85.412804 252 
L 85.412804 92.703297 
L 83.507554 92.703297 
z
" clip-path="url(#p20b8b18c68)" style="fill: #1f77b4"/>
   </g>
   <g id="patch_10">
    <path d="M 85.889117 252 
L 87.794366 252 
L 87.794366 47.189953 
L 85.889117 47.189953 
z
" clip-path="url(#p20b8b18c68)" style="fill: #1f77b4"/>
   </g>
   <g id="patch_11">
    <path d="M 88.270679 252 
L 90.175928 252 
L 90.175928 120.58022 
L 88.270679 120.58022 
z
" clip-path="url(#p20b8b18c68)" style="fill: #1f77b4"/>
   </g>
   <g id="patch_12">
    <path d="M 90.652241 252 
L 92.55749 252 
L 92.55749 98.013187 
L 90.652241 98.013187 
z
" clip-path="url(#p20b8b18c68)" style="fill: #1f77b4"/>
   </g>
   <g id="patch_13">
    <path d="M 93.033803 252 
L 94.939052 252 
L 94.939052 99.075165 
L 93.033803 99.075165 
z
" clip-path="url(#p20b8b18c68)" style="fill: #1f77b4"/>
   </g>
   <g id="patch_14">
    <path d="M 95.415365 252 
L 97.320615 252 
L 97.320615 139.044156 
L 95.415365 139.044156 
z
" clip-path="url(#p20b8b18c68)" style="fill: #1f77b4"/>
   </g>
   <g id="patch_15">
    <path d="M 97.796927 252 
L 99.702177 252 
L 99.702177 76.773626 
L 97.796927 76.773626 
z
" clip-path="url(#p20b8b18c68)" style="fill: #1f77b4"/>
   </g>
   <g id="patch_16">
    <path d="M 100.178489 252 
L 102.083739 252 
L 102.083739 97.604734 
L 100.178489 97.604734 
z
" clip-path="url(#p20b8b18c68)" style="fill: #1f77b4"/>
   </g>
   <g id="patch_17">
    <path d="M 102.560051 252 
L 104.465301 252 
L 104.465301 146.181476 
L 102.560051 146.181476 
z
" clip-path="url(#p20b8b18c68)" style="fill: #1f77b4"/>
   </g>
   <g id="patch_18">
    <path d="M 104.941613 252 
L 106.846863 252 
L 106.846863 115.004835 
L 104.941613 115.004835 
z
" clip-path="url(#p20b8b18c68)" style="fill: #1f77b4"/>
   </g>
   <g id="patch_19">
    <path d="M 107.323175 252 
L 109.228425 252 
L 109.228425 72.791209 
L 107.323175 72.791209 
z
" clip-path="url(#p20b8b18c68)" style="fill: #1f77b4"/>
   </g>
   <g id="patch_20">
    <path d="M 109.704738 252 
L 111.609987 252 
L 111.609987 100.199612 
L 109.704738 100.199612 
z
" clip-path="url(#p20b8b18c68)" style="fill: #1f77b4"/>
   </g>
   <g id="patch_21">
    <path d="M 112.0863 252 
L 113.991549 252 
L 113.991549 108.632967 
L 112.0863 108.632967 
z
" clip-path="url(#p20b8b18c68)" style="fill: #1f77b4"/>
   </g>
   <g id="patch_22">
    <path d="M 114.467862 252 
L 116.373111 252 
L 116.373111 126.239445 
L 114.467862 126.239445 
z
" clip-path="url(#p20b8b18c68)" style="fill: #1f77b4"/>
   </g>
   <g id="patch_23">
    <path d="M 116.849424 252 
L 118.754673 252 
L 118.754673 130.138022 
L 116.849424 130.138022 
z
" clip-path="url(#p20b8b18c68)" style="fill: #1f77b4"/>
   </g>
   <g id="patch_24">
    <path d="M 119.230986 252 
L 121.136236 252 
L 121.136236 122.28697 
L 119.230986 122.28697 
z
" clip-path="url(#p20b8b18c68)" style="fill: #1f77b4"/>
   </g>
   <g id="patch_25">
    <path d="M 121.612548 252 
L 123.517798 252 
L 123.517798 123.838561 
L 121.612548 123.838561 
z
" clip-path="url(#p20b8b18c68)" style="fill: #1f77b4"/>
   </g>
   <g id="patch_26">
    <path d="M 123.99411 252 
L 125.89936 252 
L 125.89936 102.399618 
L 123.99411 102.399618 
z
" clip-path="url(#p20b8b18c68)" style="fill: #1f77b4"/>
   </g>
   <g id="patch_27">
    <path d="M 126.375672 252 
L 128.280922 252 
L 128.280922 94.694505 
L 126.375672 94.694505 
z
" clip-path="url(#p20b8b18c68)" style="fill: #1f77b4"/>
   </g>
   <g id="patch_28">
    <path d="M 128.757234 252 
L 130.662484 252 
L 130.662484 116.279209 
L 128.757234 116.279209 
z
" clip-path="url(#p20b8b18c68)" style="fill: #1f77b4"/>
   </g>
   <g id="patch_29">
    <path d="M 131.138796 252 
L 133.044046 252 
L 133.044046 99.442773 
L 131.138796 99.442773 
z
" clip-path="url(#p20b8b18c68)" style="fill: #1f77b4"/>
   </g>
   <g id="patch_30">
    <path d="M 133.520359 252 
L 135.425608 252 
L 135.425608 87.393407 
L 133.520359 87.393407 
z
" clip-path="url(#p20b8b18c68)" style="fill: #1f77b4"/>
   </g>
   <g id="patch_31">
    <path d="M 135.901921 252 
L 137.80717 252 
L 137.80717 139.354474 
L 135.901921 139.354474 
z
" clip-path="url(#p20b8b18c68)" style="fill: #1f77b4"/>
   </g>
   <g id="patch_32">
    <path d="M 138.283483 252 
L 140.188732 252 
L 140.188732 111.928761 
L 138.283483 111.928761 
z
" clip-path="url(#p20b8b18c68)" style="fill: #1f77b4"/>
   </g>
   <g id="patch_33">
    <path d="M 140.665045 252 
L 142.570294 252 
L 142.570294 91.11033 
L 140.665045 91.11033 
z
" clip-path="url(#p20b8b18c68)" style="fill: #1f77b4"/>
   </g>
   <g id="patch_34">
    <path d="M 143.046607 252 
L 144.951857 252 
L 144.951857 114.799291 
L 143.046607 114.799291 
z
" clip-path="url(#p20b8b18c68)" style="fill: #1f77b4"/>
   </g>
   <g id="patch_35">
    <path d="M 145.428169 252 
L 147.333419 252 
L 147.333419 114.606593 
L 145.428169 114.606593 
z
" clip-path="url(#p20b8b18c68)" style="fill: #1f77b4"/>
   </g>
   <g id="patch_36">
    <path d="M 147.809731 252 
L 149.714981 252 
L 149.714981 126.010789 
L 147.809731 126.010789 
z
" clip-path="url(#p20b8b18c68)" style="fill: #1f77b4"/>
   </g>
   <g id="patch_37">
    <path d="M 150.191293 252 
L 152.096543 252 
L 152.096543 111.444085 
L 150.191293 111.444085 
z
" clip-path="url(#p20b8b18c68)" style="fill: #1f77b4"/>
   </g>
   <g id="patch_38">
    <path d="M 152.572855 252 
L 154.478105 252 
L 154.478105 120.92157 
L 152.572855 120.92157 
z
" clip-path="url(#p20b8b18c68)" style="fill: #1f77b4"/>
   </g>
   <g id="patch_39">
    <path d="M 154.954417 252 
L 156.859667 252 
L 156.859667 103.323077 
L 154.954417 103.323077 
z
" clip-path="url(#p20b8b18c68)" style="fill: #1f77b4"/>
   </g>
   <g id="patch_40">
    <path d="M 157.33598 252 
L 159.241229 252 
L 159.241229 102.174993 
L 157.33598 102.174993 
z
" clip-path="url(#p20b8b18c68)" style="fill: #1f77b4"/>
   </g>
   <g id="patch_41">
    <path d="M 159.717542 252 
L 161.622791 252 
L 161.622791 97.314517 
L 159.717542 97.314517 
z
" clip-path="url(#p20b8b18c68)" style="fill: #1f77b4"/>
   </g>
   <g id="patch_42">
    <path d="M 162.099104 252 
L 164.004353 252 
L 164.004353 104.956889 
L 162.099104 104.956889 
z
" clip-path="url(#p20b8b18c68)" style="fill: #1f77b4"/>
   </g>
   <g id="patch_43">
    <path d="M 164.480666 252 
L 166.385915 252 
L 166.385915 130.138022 
L 164.480666 130.138022 
z
" clip-path="url(#p20b8b18c68)" style="fill: #1f77b4"/>
   </g>
   <g id="patch_44">
    <path d="M 166.862228 252 
L 168.767478 252 
L 168.767478 94.645939 
L 166.862228 94.645939 
z
" clip-path="url(#p20b8b18c68)" style="fill: #1f77b4"/>
   </g>
   <g id="patch_45">
    <path d="M 169.24379 252 
L 171.14904 252 
L 171.14904 99.530298 
L 169.24379 99.530298 
z
" clip-path="url(#p20b8b18c68)" style="fill: #1f77b4"/>
   </g>
   <g id="patch_46">
    <path d="M 171.625352 252 
L 173.530602 252 
L 173.530602 105.29885 
L 171.625352 105.29885 
z
" clip-path="url(#p20b8b18c68)" style="fill: #1f77b4"/>
   </g>
   <g id="patch_47">
    <path d="M 174.006914 252 
L 175.912164 252 
L 175.912164 94.513487 
L 174.006914 94.513487 
z
" clip-path="url(#p20b8b18c68)" style="fill: #1f77b4"/>
   </g>
   <g id="patch_48">
    <path d="M 176.388476 252 
L 178.293726 252 
L 178.293726 112.880879 
L 176.388476 112.880879 
z
" clip-path="url(#p20b8b18c68)" style="fill: #1f77b4"/>
   </g>
   <g id="patch_49">
    <path d="M 178.770038 252 
L 180.675288 252 
L 180.675288 93.049594 
L 178.770038 93.049594 
z
" clip-path="url(#p20b8b18c68)" style="fill: #1f77b4"/>
   </g>
   <g id="patch_50">
    <path d="M 181.151601 252 
L 183.05685 252 
L 183.05685 107.61618 
L 181.151601 107.61618 
z
" clip-path="url(#p20b8b18c68)" style="fill: #1f77b4"/>
   </g>
   <g id="patch_51">
    <path d="M 183.533163 252 
L 185.438412 252 
L 185.438412 115.602198 
L 183.533163 115.602198 
z
" clip-path="url(#p20b8b18c68)" style="fill: #1f77b4"/>
   </g>
   <g id="patch_52">
    <path d="M 185.914725 252 
L 187.819974 252 
L 187.819974 115.459969 
L 185.914725 115.459969 
z
" clip-path="url(#p20b8b18c68)" style="fill: #1f77b4"/>
   </g>
   <g id="patch_53">
    <path d="M 188.296287 252 
L 190.201536 252 
L 190.201536 100.986725 
L 188.296287 100.986725 
z
" clip-path="url(#p20b8b18c68)" style="fill: #1f77b4"/>
   </g>
   <g id="patch_54">
    <path d="M 190.677849 252 
L 192.583099 252 
L 192.583099 103.94777 
L 190.677849 103.94777 
z
" clip-path="url(#p20b8b18c68)" style="fill: #1f77b4"/>
   </g>
   <g id="patch_55">
    <path d="M 193.059411 252 
L 194.964661 252 
L 194.964661 116.904142 
L 193.059411 116.904142 
z
" clip-path="url(#p20b8b18c68)" style="fill: #1f77b4"/>
   </g>
   <g id="patch_56">
    <path d="M 195.440973 252 
L 197.346223 252 
L 197.346223 89.697699 
L 195.440973 89.697699 
z
" clip-path="url(#p20b8b18c68)" style="fill: #1f77b4"/>
   </g>
   <g id="patch_57">
    <path d="M 197.822535 252 
L 199.727785 252 
L 199.727785 106.863004 
L 197.822535 106.863004 
z
" clip-path="url(#p20b8b18c68)" style="fill: #1f77b4"/>
   </g>
   <g id="patch_58">
    <path d="M 200.204097 252 
L 202.109347 252 
L 202.109347 115.584096 
L 200.204097 115.584096 
z
" clip-path="url(#p20b8b18c68)" style="fill: #1f77b4"/>
   </g>
   <g id="patch_59">
    <path d="M 202.585659 252 
L 204.490909 252 
L 204.490909 123.140345 
L 202.585659 123.140345 
z
" clip-path="url(#p20b8b18c68)" style="fill: #1f77b4"/>
   </g>
   <g id="patch_60">
    <path d="M 204.967222 252 
L 206.872471 252 
L 206.872471 106.117756 
L 204.967222 106.117756 
z
" clip-path="url(#p20b8b18c68)" style="fill: #1f77b4"/>
   </g>
   <g id="patch_61">
    <path d="M 207.348784 252 
L 209.254033 252 
L 209.254033 103.689276 
L 207.348784 103.689276 
z
" clip-path="url(#p20b8b18c68)" style="fill: #1f77b4"/>
   </g>
   <g id="patch_62">
    <path d="M 209.730346 252 
L 211.635595 252 
L 211.635595 107.822984 
L 209.730346 107.822984 
z
" clip-path="url(#p20b8b18c68)" style="fill: #1f77b4"/>
   </g>
   <g id="patch_63">
    <path d="M 212.111908 252 
L 214.017157 252 
L 214.017157 111.818901 
L 212.111908 111.818901 
z
" clip-path="url(#p20b8b18c68)" style="fill: #1f77b4"/>
   </g>
   <g id="patch_64">
    <path d="M 214.49347 252 
L 216.39872 252 
L 216.39872 89.047307 
L 214.49347 89.047307 
z
" clip-path="url(#p20b8b18c68)" style="fill: #1f77b4"/>
   </g>
   <g id="patch_65">
    <path d="M 216.875032 252 
L 218.780282 252 
L 218.780282 113.25771 
L 216.875032 113.25771 
z
" clip-path="url(#p20b8b18c68)" style="fill: #1f77b4"/>
   </g>
   <g id="patch_66">
    <path d="M 219.256594 252 
L 221.161844 252 
L 221.161844 118.494192 
L 219.256594 118.494192 
z
" clip-path="url(#p20b8b18c68)" style="fill: #1f77b4"/>
   </g>
   <g id="patch_67">
    <path d="M 221.638156 252 
L 223.543406 252 
L 223.543406 111.61978 
L 221.638156 111.61978 
z
" clip-path="url(#p20b8b18c68)" style="fill: #1f77b4"/>
   </g>
   <g id="patch_68">
    <path d="M 224.019718 252 
L 225.924968 252 
L 225.924968 124.807709 
L 224.019718 124.807709 
z
" clip-path="url(#p20b8b18c68)" style="fill: #1f77b4"/>
   </g>
   <g id="patch_69">
    <path d="M 226.40128 252 
L 228.30653 252 
L 228.30653 110.081119 
L 226.40128 110.081119 
z
" clip-path="url(#p20b8b18c68)" style="fill: #1f77b4"/>
   </g>
   <g id="patch_70">
    <path d="M 228.782843 252 
L 230.688092 252 
L 230.688092 117.192193 
L 228.782843 117.192193 
z
" clip-path="url(#p20b8b18c68)" style="fill: #1f77b4"/>
   </g>
   <g id="patch_71">
    <path d="M 231.164405 252 
L 233.069654 252 
L 233.069654 103.01073 
L 231.164405 103.01073 
z
" clip-path="url(#p20b8b18c68)" style="fill: #1f77b4"/>
   </g>
   <g id="patch_72">
    <path d="M 233.545967 252 
L 235.451216 252 
L 235.451216 106.555184 
L 233.545967 106.555184 
z
" clip-path="url(#p20b8b18c68)" style="fill: #1f77b4"/>
   </g>
   <g id="patch_73">
    <path d="M 235.927529 252 
L 237.832778 252 
L 237.832778 125.017771 
L 235.927529 125.017771 
z
" clip-path="url(#p20b8b18c68)" style="fill: #1f77b4"/>
   </g>
   <g id="patch_74">
    <path d="M 238.309091 252 
L 240.214341 252 
L 240.214341 94.498189 
L 238.309091 94.498189 
z
" clip-path="url(#p20b8b18c68)" style="fill: #1f77b4"/>
   </g>
   <g id="patch_75">
    <path d="M 240.690653 252 
L 242.595903 252 
L 242.595903 133.854945 
L 240.690653 133.854945 
z
" clip-path="url(#p20b8b18c68)" style="fill: #1f77b4"/>
   </g>
   <g id="patch_76">
    <path d="M 243.072215 252 
L 244.977465 252 
L 244.977465 100.777239 
L 243.072215 100.777239 
z
" clip-path="url(#p20b8b18c68)" style="fill: #1f77b4"/>
   </g>
   <g id="patch_77">
    <path d="M 245.453777 252 
L 247.359027 252 
L 247.359027 107.341372 
L 245.453777 107.341372 
z
" clip-path="url(#p20b8b18c68)" style="fill: #1f77b4"/>
   </g>
   <g id="patch_78">
    <path d="M 247.835339 252 
L 249.740589 252 
L 249.740589 110.544527 
L 247.835339 110.544527 
z
" clip-path="url(#p20b8b18c68)" style="fill: #1f77b4"/>
   </g>
   <g id="patch_79">
    <path d="M 250.216901 252 
L 252.122151 252 
L 252.122151 106.746559 
L 250.216901 106.746559 
z
" clip-path="url(#p20b8b18c68)" style="fill: #1f77b4"/>
   </g>
   <g id="patch_80">
    <path d="M 252.598464 252 
L 254.503713 252 
L 254.503713 103.667875 
L 252.598464 103.667875 
z
" clip-path="url(#p20b8b18c68)" style="fill: #1f77b4"/>
   </g>
   <g id="patch_81">
    <path d="M 254.980026 252 
L 256.885275 252 
L 256.885275 117.210482 
L 254.980026 117.210482 
z
" clip-path="url(#p20b8b18c68)" style="fill: #1f77b4"/>
   </g>
   <g id="patch_82">
    <path d="M 257.361588 252 
L 259.266837 252 
L 259.266837 121.336375 
L 257.361588 121.336375 
z
" clip-path="url(#p20b8b18c68)" style="fill: #1f77b4"/>
   </g>
   <g id="patch_83">
    <path d="M 259.74315 252 
L 261.648399 252 
L 261.648399 124.164396 
L 259.74315 124.164396 
z
" clip-path="url(#p20b8b18c68)" style="fill: #1f77b4"/>
   </g>
   <g id="patch_84">
    <path d="M 262.124712 252 
L 264.029962 252 
L 264.029962 110.992918 
L 262.124712 110.992918 
z
" clip-path="url(#p20b8b18c68)" style="fill: #1f77b4"/>
   </g>
   <g id="patch_85">
    <path d="M 264.506274 252 
L 266.411524 252 
L 266.411524 103.387832 
L 264.506274 103.387832 
z
" clip-path="url(#p20b8b18c68)" style="fill: #1f77b4"/>
   </g>
   <g id="patch_86">
    <path d="M 266.887836 252 
L 268.793086 252 
L 268.793086 116.117993 
L 266.887836 116.117993 
z
" clip-path="url(#p20b8b18c68)" style="fill: #1f77b4"/>
   </g>
   <g id="patch_87">
    <path d="M 269.269398 252 
L 271.174648 252 
L 271.174648 120.011303 
L 269.269398 120.011303 
z
" clip-path="url(#p20b8b18c68)" style="fill: #1f77b4"/>
   </g>
   <g id="patch_88">
    <path d="M 271.65096 252 
L 273.55621 252 
L 273.55621 96.82627 
L 271.65096 96.82627 
z
" clip-path="url(#p20b8b18c68)" style="fill: #1f77b4"/>
   </g>
   <g id="patch_89">
    <path d="M 274.032522 252 
L 275.937772 252 
L 275.937772 108.077281 
L 274.032522 108.077281 
z
" clip-path="url(#p20b8b18c68)" style="fill: #1f77b4"/>
   </g>
   <g id="patch_90">
    <path d="M 276.414085 252 
L 278.319334 252 
L 278.319334 117.421751 
L 276.414085 117.421751 
z
" clip-path="url(#p20b8b18c68)" style="fill: #1f77b4"/>
   </g>
   <g id="patch_91">
    <path d="M 278.795647 252 
L 280.700896 252 
L 280.700896 103.745455 
L 278.795647 103.745455 
z
" clip-path="url(#p20b8b18c68)" style="fill: #1f77b4"/>
   </g>
   <g id="patch_92">
    <path d="M 281.177209 252 
L 283.082458 252 
L 283.082458 98.430819 
L 281.177209 98.430819 
z
" clip-path="url(#p20b8b18c68)" style="fill: #1f77b4"/>
   </g>
   <g id="patch_93">
    <path d="M 283.558771 252 
L 285.46402 252 
L 285.46402 115.535824 
L 283.558771 115.535824 
z
" clip-path="url(#p20b8b18c68)" style="fill: #1f77b4"/>
   </g>
   <g id="patch_94">
    <path d="M 285.940333 252 
L 287.845583 252 
L 287.845583 98.655042 
L 285.940333 98.655042 
z
" clip-path="url(#p20b8b18c68)" style="fill: #1f77b4"/>
   </g>
   <g id="patch_95">
    <path d="M 288.321895 252 
L 290.227145 252 
L 290.227145 100.84128 
L 288.321895 100.84128 
z
" clip-path="url(#p20b8b18c68)" style="fill: #1f77b4"/>
   </g>
   <g id="patch_96">
    <path d="M 290.703457 252 
L 292.608707 252 
L 292.608707 106.577526 
L 290.703457 106.577526 
z
" clip-path="url(#p20b8b18c68)" style="fill: #1f77b4"/>
   </g>
   <g id="patch_97">
    <path d="M 293.085019 252 
L 294.990269 252 
L 294.990269 102.532242 
L 293.085019 102.532242 
z
" clip-path="url(#p20b8b18c68)" style="fill: #1f77b4"/>
   </g>
   <g id="patch_98">
    <path d="M 295.466581 252 
L 297.371831 252 
L 297.371831 112.154263 
L 295.466581 112.154263 
z
" clip-path="url(#p20b8b18c68)" style="fill: #1f77b4"/>
   </g>
   <g id="patch_99">
    <path d="M 297.848143 252 
L 299.753393 252 
L 299.753393 115.104396 
L 297.848143 115.104396 
z
" clip-path="url(#p20b8b18c68)" style="fill: #1f77b4"/>
   </g>
   <g id="patch_100">
    <path d="M 300.229706 252 
L 302.134955 252 
L 302.134955 100.257573 
L 300.229706 100.257573 
z
" clip-path="url(#p20b8b18c68)" style="fill: #1f77b4"/>
   </g>
   <g id="patch_101">
    <path d="M 302.611268 252 
L 304.516517 252 
L 304.516517 98.392465 
L 302.611268 98.392465 
z
" clip-path="url(#p20b8b18c68)" style="fill: #1f77b4"/>
   </g>
   <g id="patch_102">
    <path d="M 304.99283 252 
L 306.898079 252 
L 306.898079 97.047752 
L 304.99283 97.047752 
z
" clip-path="url(#p20b8b18c68)" style="fill: #1f77b4"/>
   </g>
   <g id="patch_103">
    <path d="M 307.374392 252 
L 309.279641 252 
L 309.279641 108.155077 
L 307.374392 108.155077 
z
" clip-path="url(#p20b8b18c68)" style="fill: #1f77b4"/>
   </g>
   <g id="patch_104">
    <path d="M 309.755954 252 
L 311.661204 252 
L 311.661204 110.525601 
L 309.755954 110.525601 
z
" clip-path="url(#p20b8b18c68)" style="fill: #1f77b4"/>
   </g>
   <g id="patch_105">
    <path d="M 312.137516 252 
L 314.042766 252 
L 314.042766 122.688559 
L 312.137516 122.688559 
z
" clip-path="url(#p20b8b18c68)" style="fill: #1f77b4"/>
   </g>
   <g id="patch_106">
    <path d="M 314.519078 252 
L 316.424328 252 
L 316.424328 107.705025 
L 314.519078 107.705025 
z
" clip-path="url(#p20b8b18c68)" style="fill: #1f77b4"/>
   </g>
   <g id="patch_107">
    <path d="M 316.90064 252 
L 318.80589 252 
L 318.80589 93.469146 
L 316.90064 93.469146 
z
" clip-path="url(#p20b8b18c68)" style="fill: #1f77b4"/>
   </g>
   <g id="patch_108">
    <path d="M 319.282202 252 
L 321.187452 252 
L 321.187452 129.113972 
L 319.282202 129.113972 
z
" clip-path="url(#p20b8b18c68)" style="fill: #1f77b4"/>
   </g>
   <g id="patch_109">
    <path d="M 321.663764 252 
L 323.569014 252 
L 323.569014 108.182127 
L 321.663764 108.182127 
z
" clip-path="url(#p20b8b18c68)" style="fill: #1f77b4"/>
   </g>
   <g id="patch_110">
    <path d="M 324.045327 252 
L 325.950576 252 
L 325.950576 120.24525 
L 324.045327 120.24525 
z
" clip-path="url(#p20b8b18c68)" style="fill: #1f77b4"/>
   </g>
   <g id="patch_111">
    <path d="M 326.426889 252 
L 328.332138 252 
L 328.332138 99.340659 
L 326.426889 99.340659 
z
" clip-path="url(#p20b8b18c68)" style="fill: #1f77b4"/>
   </g>
   <g id="patch_112">
    <path d="M 328.808451 252 
L 330.7137 252 
L 330.7137 85.396108 
L 328.808451 85.396108 
z
" clip-path="url(#p20b8b18c68)" style="fill: #1f77b4"/>
   </g>
   <g id="patch_113">
    <path d="M 331.190013 252 
L 333.095262 252 
L 333.095262 119.05966 
L 331.190013 119.05966 
z
" clip-path="url(#p20b8b18c68)" style="fill: #1f77b4"/>
   </g>
   <g id="patch_114">
    <path d="M 333.571575 252 
L 335.476825 252 
L 335.476825 113.368815 
L 333.571575 113.368815 
z
" clip-path="url(#p20b8b18c68)" style="fill: #1f77b4"/>
   </g>
   <g id="patch_115">
    <path d="M 335.953137 252 
L 337.858387 252 
L 337.858387 93.698901 
L 335.953137 93.698901 
z
" clip-path="url(#p20b8b18c68)" style="fill: #1f77b4"/>
   </g>
   <g id="patch_116">
    <path d="M 338.334699 252 
L 340.239949 252 
L 340.239949 112.439171 
L 338.334699 112.439171 
z
" clip-path="url(#p20b8b18c68)" style="fill: #1f77b4"/>
   </g>
   <g id="patch_117">
    <path d="M 340.716261 252 
L 342.621511 252 
L 342.621511 101.925737 
L 340.716261 101.925737 
z
" clip-path="url(#p20b8b18c68)" style="fill: #1f77b4"/>
   </g>
   <g id="patch_118">
    <path d="M 343.097823 252 
L 345.003073 252 
L 345.003073 111.95742 
L 343.097823 111.95742 
z
" clip-path="url(#p20b8b18c68)" style="fill: #1f77b4"/>
   </g>
   <g id="patch_119">
    <path d="M 345.479385 252 
L 347.384635 252 
L 347.384635 114.812581 
L 345.479385 114.812581 
z
" clip-path="url(#p20b8b18c68)" style="fill: #1f77b4"/>
   </g>
   <g id="patch_120">
    <path d="M 347.860948 252 
L 349.766197 252 
L 349.766197 108.224514 
L 347.860948 108.224514 
z
" clip-path="url(#p20b8b18c68)" style="fill: #1f77b4"/>
   </g>
   <g id="patch_121">
    <path d="M 350.24251 252 
L 352.147759 252 
L 352.147759 115.517825 
L 350.24251 115.517825 
z
" clip-path="url(#p20b8b18c68)" style="fill: #1f77b4"/>
   </g>
   <g id="patch_122">
    <path d="M 352.624072 252 
L 354.529321 252 
L 354.529321 117.869499 
L 352.624072 117.869499 
z
" clip-path="url(#p20b8b18c68)" style="fill: #1f77b4"/>
   </g>
   <g id="patch_123">
    <path d="M 355.005634 252 
L 356.910883 252 
L 356.910883 105.048791 
L 355.005634 105.048791 
z
" clip-path="url(#p20b8b18c68)" style="fill: #1f77b4"/>
   </g>
   <g id="patch_124">
    <path d="M 357.387196 252 
L 359.292446 252 
L 359.292446 115.742076 
L 357.387196 115.742076 
z
" clip-path="url(#p20b8b18c68)" style="fill: #1f77b4"/>
   </g>
   <g id="patch_125">
    <path d="M 359.768758 252 
L 361.674008 252 
L 361.674008 115.292092 
L 359.768758 115.292092 
z
" clip-path="url(#p20b8b18c68)" style="fill: #1f77b4"/>
   </g>
   <g id="patch_126">
    <path d="M 362.15032 252 
L 364.05557 252 
L 364.05557 104.359153 
L 362.15032 104.359153 
z
" clip-path="url(#p20b8b18c68)" style="fill: #1f77b4"/>
   </g>
   <g id="patch_127">
    <path d="M 364.531882 252 
L 366.437132 252 
L 366.437132 105.9352 
L 364.531882 105.9352 
z
" clip-path="url(#p20b8b18c68)" style="fill: #1f77b4"/>
   </g>
   <g id="patch_128">
    <path d="M 366.913444 252 
L 368.818694 252 
L 368.818694 101.751349 
L 366.913444 101.751349 
z
" clip-path="url(#p20b8b18c68)" style="fill: #1f77b4"/>
   </g>
   <g id="patch_129">
    <path d="M 369.295006 252 
L 371.200256 252 
L 371.200256 105.978022 
L 369.295006 105.978022 
z
" clip-path="url(#p20b8b18c68)" style="fill: #1f77b4"/>
   </g>
   <g id="patch_130">
    <path d="M 371.676569 252 
L 373.581818 252 
L 373.581818 101.859721 
L 371.676569 101.859721 
z
" clip-path="url(#p20b8b18c68)" style="fill: #1f77b4"/>
   </g>
   <g id="matplotlib.axis_1">
    <g id="xtick_1">
     <g id="line2d_1">
      <defs>
       <path id="mb03d5dd2c0" d="M 0 0 
L 0 3.5 
" style="stroke: #000000; stroke-width: 0.8"/>
      </defs>
      <g>
       <use xlink:href="#mb03d5dd2c0" x="67.789245" y="252" style="stroke: #000000; stroke-width: 0.8"/>
      </g>
     </g>
     <g id="text_1">
      <!-- 0 -->
      <g transform="translate(64.607995 266.598437)scale(0.1 -0.1)">
       <defs>
        <path id="DejaVuSans-30" d="M 2034 4250 
Q 1547 4250 1301 3770 
Q 1056 3291 1056 2328 
Q 1056 1369 1301 889 
Q 1547 409 2034 409 
Q 2525 409 2770 889 
Q 3016 1369 3016 2328 
Q 3016 3291 2770 3770 
Q 2525 4250 2034 4250 
z
M 2034 4750 
Q 2819 4750 3233 4129 
Q 3647 3509 3647 2328 
Q 3647 1150 3233 529 
Q 2819 -91 2034 -91 
Q 1250 -91 836 529 
Q 422 1150 422 2328 
Q 422 3509 836 4129 
Q 1250 4750 2034 4750 
z
" transform="scale(0.015625)"/>
       </defs>
       <use xlink:href="#DejaVuSans-30"/>
      </g>
     </g>
    </g>
    <g id="xtick_2">
     <g id="line2d_2">
      <g>
       <use xlink:href="#mb03d5dd2c0" x="115.420487" y="252" style="stroke: #000000; stroke-width: 0.8"/>
      </g>
     </g>
     <g id="text_2">
      <!-- 20 -->
      <g transform="translate(109.057987 266.598437)scale(0.1 -0.1)">
       <defs>
        <path id="DejaVuSans-32" d="M 1228 531 
L 3431 531 
L 3431 0 
L 469 0 
L 469 531 
Q 828 903 1448 1529 
Q 2069 2156 2228 2338 
Q 2531 2678 2651 2914 
Q 2772 3150 2772 3378 
Q 2772 3750 2511 3984 
Q 2250 4219 1831 4219 
Q 1534 4219 1204 4116 
Q 875 4013 500 3803 
L 500 4441 
Q 881 4594 1212 4672 
Q 1544 4750 1819 4750 
Q 2544 4750 2975 4387 
Q 3406 4025 3406 3419 
Q 3406 3131 3298 2873 
Q 3191 2616 2906 2266 
Q 2828 2175 2409 1742 
Q 1991 1309 1228 531 
z
" transform="scale(0.015625)"/>
       </defs>
       <use xlink:href="#DejaVuSans-32"/>
       <use xlink:href="#DejaVuSans-30" x="63.623047"/>
      </g>
     </g>
    </g>
    <g id="xtick_3">
     <g id="line2d_3">
      <g>
       <use xlink:href="#mb03d5dd2c0" x="163.051729" y="252" style="stroke: #000000; stroke-width: 0.8"/>
      </g>
     </g>
     <g id="text_3">
      <!-- 40 -->
      <g transform="translate(156.689229 266.598437)scale(0.1 -0.1)">
       <defs>
        <path id="DejaVuSans-34" d="M 2419 4116 
L 825 1625 
L 2419 1625 
L 2419 4116 
z
M 2253 4666 
L 3047 4666 
L 3047 1625 
L 3713 1625 
L 3713 1100 
L 3047 1100 
L 3047 0 
L 2419 0 
L 2419 1100 
L 313 1100 
L 313 1709 
L 2253 4666 
z
" transform="scale(0.015625)"/>
       </defs>
       <use xlink:href="#DejaVuSans-34"/>
       <use xlink:href="#DejaVuSans-30" x="63.623047"/>
      </g>
     </g>
    </g>
    <g id="xtick_4">
     <g id="line2d_4">
      <g>
       <use xlink:href="#mb03d5dd2c0" x="210.682971" y="252" style="stroke: #000000; stroke-width: 0.8"/>
      </g>
     </g>
     <g id="text_4">
      <!-- 60 -->
      <g transform="translate(204.320471 266.598437)scale(0.1 -0.1)">
       <defs>
        <path id="DejaVuSans-36" d="M 2113 2584 
Q 1688 2584 1439 2293 
Q 1191 2003 1191 1497 
Q 1191 994 1439 701 
Q 1688 409 2113 409 
Q 2538 409 2786 701 
Q 3034 994 3034 1497 
Q 3034 2003 2786 2293 
Q 2538 2584 2113 2584 
z
M 3366 4563 
L 3366 3988 
Q 3128 4100 2886 4159 
Q 2644 4219 2406 4219 
Q 1781 4219 1451 3797 
Q 1122 3375 1075 2522 
Q 1259 2794 1537 2939 
Q 1816 3084 2150 3084 
Q 2853 3084 3261 2657 
Q 3669 2231 3669 1497 
Q 3669 778 3244 343 
Q 2819 -91 2113 -91 
Q 1303 -91 875 529 
Q 447 1150 447 2328 
Q 447 3434 972 4092 
Q 1497 4750 2381 4750 
Q 2619 4750 2861 4703 
Q 3103 4656 3366 4563 
z
" transform="scale(0.015625)"/>
       </defs>
       <use xlink:href="#DejaVuSans-36"/>
       <use xlink:href="#DejaVuSans-30" x="63.623047"/>
      </g>
     </g>
    </g>
    <g id="xtick_5">
     <g id="line2d_5">
      <g>
       <use xlink:href="#mb03d5dd2c0" x="258.314213" y="252" style="stroke: #000000; stroke-width: 0.8"/>
      </g>
     </g>
     <g id="text_5">
      <!-- 80 -->
      <g transform="translate(251.951713 266.598437)scale(0.1 -0.1)">
       <defs>
        <path id="DejaVuSans-38" d="M 2034 2216 
Q 1584 2216 1326 1975 
Q 1069 1734 1069 1313 
Q 1069 891 1326 650 
Q 1584 409 2034 409 
Q 2484 409 2743 651 
Q 3003 894 3003 1313 
Q 3003 1734 2745 1975 
Q 2488 2216 2034 2216 
z
M 1403 2484 
Q 997 2584 770 2862 
Q 544 3141 544 3541 
Q 544 4100 942 4425 
Q 1341 4750 2034 4750 
Q 2731 4750 3128 4425 
Q 3525 4100 3525 3541 
Q 3525 3141 3298 2862 
Q 3072 2584 2669 2484 
Q 3125 2378 3379 2068 
Q 3634 1759 3634 1313 
Q 3634 634 3220 271 
Q 2806 -91 2034 -91 
Q 1263 -91 848 271 
Q 434 634 434 1313 
Q 434 1759 690 2068 
Q 947 2378 1403 2484 
z
M 1172 3481 
Q 1172 3119 1398 2916 
Q 1625 2713 2034 2713 
Q 2441 2713 2670 2916 
Q 2900 3119 2900 3481 
Q 2900 3844 2670 4047 
Q 2441 4250 2034 4250 
Q 1625 4250 1398 4047 
Q 1172 3844 1172 3481 
z
" transform="scale(0.015625)"/>
       </defs>
       <use xlink:href="#DejaVuSans-38"/>
       <use xlink:href="#DejaVuSans-30" x="63.623047"/>
      </g>
     </g>
    </g>
    <g id="xtick_6">
     <g id="line2d_6">
      <g>
       <use xlink:href="#mb03d5dd2c0" x="305.945455" y="252" style="stroke: #000000; stroke-width: 0.8"/>
      </g>
     </g>
     <g id="text_6">
      <!-- 100 -->
      <g transform="translate(296.401705 266.598437)scale(0.1 -0.1)">
       <defs>
        <path id="DejaVuSans-31" d="M 794 531 
L 1825 531 
L 1825 4091 
L 703 3866 
L 703 4441 
L 1819 4666 
L 2450 4666 
L 2450 531 
L 3481 531 
L 3481 0 
L 794 0 
L 794 531 
z
" transform="scale(0.015625)"/>
       </defs>
       <use xlink:href="#DejaVuSans-31"/>
       <use xlink:href="#DejaVuSans-30" x="63.623047"/>
       <use xlink:href="#DejaVuSans-30" x="127.246094"/>
      </g>
     </g>
    </g>
    <g id="xtick_7">
     <g id="line2d_7">
      <g>
       <use xlink:href="#mb03d5dd2c0" x="353.576697" y="252" style="stroke: #000000; stroke-width: 0.8"/>
      </g>
     </g>
     <g id="text_7">
      <!-- 120 -->
      <g transform="translate(344.032947 266.598437)scale(0.1 -0.1)">
       <use xlink:href="#DejaVuSans-31"/>
       <use xlink:href="#DejaVuSans-32" x="63.623047"/>
       <use xlink:href="#DejaVuSans-30" x="127.246094"/>
      </g>
     </g>
    </g>
    <g id="text_8">
     <!-- Size bin number -->
     <g transform="translate(180.711719 280.276563)scale(0.1 -0.1)">
      <defs>
       <path id="DejaVuSans-53" d="M 3425 4513 
L 3425 3897 
Q 3066 4069 2747 4153 
Q 2428 4238 2131 4238 
Q 1616 4238 1336 4038 
Q 1056 3838 1056 3469 
Q 1056 3159 1242 3001 
Q 1428 2844 1947 2747 
L 2328 2669 
Q 3034 2534 3370 2195 
Q 3706 1856 3706 1288 
Q 3706 609 3251 259 
Q 2797 -91 1919 -91 
Q 1588 -91 1214 -16 
Q 841 59 441 206 
L 441 856 
Q 825 641 1194 531 
Q 1563 422 1919 422 
Q 2459 422 2753 634 
Q 3047 847 3047 1241 
Q 3047 1584 2836 1778 
Q 2625 1972 2144 2069 
L 1759 2144 
Q 1053 2284 737 2584 
Q 422 2884 422 3419 
Q 422 4038 858 4394 
Q 1294 4750 2059 4750 
Q 2388 4750 2728 4690 
Q 3069 4631 3425 4513 
z
" transform="scale(0.015625)"/>
       <path id="DejaVuSans-69" d="M 603 3500 
L 1178 3500 
L 1178 0 
L 603 0 
L 603 3500 
z
M 603 4863 
L 1178 4863 
L 1178 4134 
L 603 4134 
L 603 4863 
z
" transform="scale(0.015625)"/>
       <path id="DejaVuSans-7a" d="M 353 3500 
L 3084 3500 
L 3084 2975 
L 922 459 
L 3084 459 
L 3084 0 
L 275 0 
L 275 525 
L 2438 3041 
L 353 3041 
L 353 3500 
z
" transform="scale(0.015625)"/>
       <path id="DejaVuSans-65" d="M 3597 1894 
L 3597 1613 
L 953 1613 
Q 991 1019 1311 708 
Q 1631 397 2203 397 
Q 2534 397 2845 478 
Q 3156 559 3463 722 
L 3463 178 
Q 3153 47 2828 -22 
Q 2503 -91 2169 -91 
Q 1331 -91 842 396 
Q 353 884 353 1716 
Q 353 2575 817 3079 
Q 1281 3584 2069 3584 
Q 2775 3584 3186 3129 
Q 3597 2675 3597 1894 
z
M 3022 2063 
Q 3016 2534 2758 2815 
Q 2500 3097 2075 3097 
Q 1594 3097 1305 2825 
Q 1016 2553 972 2059 
L 3022 2063 
z
" transform="scale(0.015625)"/>
       <path id="DejaVuSans-20" transform="scale(0.015625)"/>
       <path id="DejaVuSans-62" d="M 3116 1747 
Q 3116 2381 2855 2742 
Q 2594 3103 2138 3103 
Q 1681 3103 1420 2742 
Q 1159 2381 1159 1747 
Q 1159 1113 1420 752 
Q 1681 391 2138 391 
Q 2594 391 2855 752 
Q 3116 1113 3116 1747 
z
M 1159 2969 
Q 1341 3281 1617 3432 
Q 1894 3584 2278 3584 
Q 2916 3584 3314 3078 
Q 3713 2572 3713 1747 
Q 3713 922 3314 415 
Q 2916 -91 2278 -91 
Q 1894 -91 1617 61 
Q 1341 213 1159 525 
L 1159 0 
L 581 0 
L 581 4863 
L 1159 4863 
L 1159 2969 
z
" transform="scale(0.015625)"/>
       <path id="DejaVuSans-6e" d="M 3513 2113 
L 3513 0 
L 2938 0 
L 2938 2094 
Q 2938 2591 2744 2837 
Q 2550 3084 2163 3084 
Q 1697 3084 1428 2787 
Q 1159 2491 1159 1978 
L 1159 0 
L 581 0 
L 581 3500 
L 1159 3500 
L 1159 2956 
Q 1366 3272 1645 3428 
Q 1925 3584 2291 3584 
Q 2894 3584 3203 3211 
Q 3513 2838 3513 2113 
z
" transform="scale(0.015625)"/>
       <path id="DejaVuSans-75" d="M 544 1381 
L 544 3500 
L 1119 3500 
L 1119 1403 
Q 1119 906 1312 657 
Q 1506 409 1894 409 
Q 2359 409 2629 706 
Q 2900 1003 2900 1516 
L 2900 3500 
L 3475 3500 
L 3475 0 
L 2900 0 
L 2900 538 
Q 2691 219 2414 64 
Q 2138 -91 1772 -91 
Q 1169 -91 856 284 
Q 544 659 544 1381 
z
M 1991 3584 
L 1991 3584 
z
" transform="scale(0.015625)"/>
       <path id="DejaVuSans-6d" d="M 3328 2828 
Q 3544 3216 3844 3400 
Q 4144 3584 4550 3584 
Q 5097 3584 5394 3201 
Q 5691 2819 5691 2113 
L 5691 0 
L 5113 0 
L 5113 2094 
Q 5113 2597 4934 2840 
Q 4756 3084 4391 3084 
Q 3944 3084 3684 2787 
Q 3425 2491 3425 1978 
L 3425 0 
L 2847 0 
L 2847 2094 
Q 2847 2600 2669 2842 
Q 2491 3084 2119 3084 
Q 1678 3084 1418 2786 
Q 1159 2488 1159 1978 
L 1159 0 
L 581 0 
L 581 3500 
L 1159 3500 
L 1159 2956 
Q 1356 3278 1631 3431 
Q 1906 3584 2284 3584 
Q 2666 3584 2933 3390 
Q 3200 3197 3328 2828 
z
" transform="scale(0.015625)"/>
       <path id="DejaVuSans-72" d="M 2631 2963 
Q 2534 3019 2420 3045 
Q 2306 3072 2169 3072 
Q 1681 3072 1420 2755 
Q 1159 2438 1159 1844 
L 1159 0 
L 581 0 
L 581 3500 
L 1159 3500 
L 1159 2956 
Q 1341 3275 1631 3429 
Q 1922 3584 2338 3584 
Q 2397 3584 2469 3576 
Q 2541 3569 2628 3553 
L 2631 2963 
z
" transform="scale(0.015625)"/>
      </defs>
      <use xlink:href="#DejaVuSans-53"/>
      <use xlink:href="#DejaVuSans-69" x="63.476562"/>
      <use xlink:href="#DejaVuSans-7a" x="91.259766"/>
      <use xlink:href="#DejaVuSans-65" x="143.75"/>
      <use xlink:href="#DejaVuSans-20" x="205.273438"/>
      <use xlink:href="#DejaVuSans-62" x="237.060547"/>
      <use xlink:href="#DejaVuSans-69" x="300.537109"/>
      <use xlink:href="#DejaVuSans-6e" x="328.320312"/>
      <use xlink:href="#DejaVuSans-20" x="391.699219"/>
      <use xlink:href="#DejaVuSans-6e" x="423.486328"/>
      <use xlink:href="#DejaVuSans-75" x="486.865234"/>
      <use xlink:href="#DejaVuSans-6d" x="550.244141"/>
      <use xlink:href="#DejaVuSans-62" x="647.65625"/>
      <use xlink:href="#DejaVuSans-65" x="711.132812"/>
      <use xlink:href="#DejaVuSans-72" x="772.65625"/>
     </g>
    </g>
   </g>
   <g id="matplotlib.axis_2">
    <g id="ytick_1">
     <g id="line2d_8">
      <defs>
       <path id="m7f99e798f8" d="M 0 0 
L -3.5 0 
" style="stroke: #000000; stroke-width: 0.8"/>
      </defs>
      <g>
       <use xlink:href="#m7f99e798f8" x="54" y="252" style="stroke: #000000; stroke-width: 0.8"/>
      </g>
     </g>
     <g id="text_9">
      <!-- 0.0 -->
      <g transform="translate(31.096875 255.799219)scale(0.1 -0.1)">
       <defs>
        <path id="DejaVuSans-2e" d="M 684 794 
L 1344 794 
L 1344 0 
L 684 0 
L 684 794 
z
" transform="scale(0.015625)"/>
       </defs>
       <use xlink:href="#DejaVuSans-30"/>
       <use xlink:href="#DejaVuSans-2e" x="63.623047"/>
       <use xlink:href="#DejaVuSans-30" x="95.410156"/>
      </g>
     </g>
    </g>
    <g id="ytick_2">
     <g id="line2d_9">
      <g>
       <use xlink:href="#m7f99e798f8" x="54" y="204.210989" style="stroke: #000000; stroke-width: 0.8"/>
      </g>
     </g>
     <g id="text_10">
      <!-- 0.5 -->
      <g transform="translate(31.096875 208.010208)scale(0.1 -0.1)">
       <defs>
        <path id="DejaVuSans-35" d="M 691 4666 
L 3169 4666 
L 3169 4134 
L 1269 4134 
L 1269 2991 
Q 1406 3038 1543 3061 
Q 1681 3084 1819 3084 
Q 2600 3084 3056 2656 
Q 3513 2228 3513 1497 
Q 3513 744 3044 326 
Q 2575 -91 1722 -91 
Q 1428 -91 1123 -41 
Q 819 9 494 109 
L 494 744 
Q 775 591 1075 516 
Q 1375 441 1709 441 
Q 2250 441 2565 725 
Q 2881 1009 2881 1497 
Q 2881 1984 2565 2268 
Q 2250 2553 1709 2553 
Q 1456 2553 1204 2497 
Q 953 2441 691 2322 
L 691 4666 
z
" transform="scale(0.015625)"/>
       </defs>
       <use xlink:href="#DejaVuSans-30"/>
       <use xlink:href="#DejaVuSans-2e" x="63.623047"/>
       <use xlink:href="#DejaVuSans-35" x="95.410156"/>
      </g>
     </g>
    </g>
    <g id="ytick_3">
     <g id="line2d_10">
      <g>
       <use xlink:href="#m7f99e798f8" x="54" y="156.421978" style="stroke: #000000; stroke-width: 0.8"/>
      </g>
     </g>
     <g id="text_11">
      <!-- 1.0 -->
      <g transform="translate(31.096875 160.221197)scale(0.1 -0.1)">
       <use xlink:href="#DejaVuSans-31"/>
       <use xlink:href="#DejaVuSans-2e" x="63.623047"/>
       <use xlink:href="#DejaVuSans-30" x="95.410156"/>
      </g>
     </g>
    </g>
    <g id="ytick_4">
     <g id="line2d_11">
      <g>
       <use xlink:href="#m7f99e798f8" x="54" y="108.632967" style="stroke: #000000; stroke-width: 0.8"/>
      </g>
     </g>
     <g id="text_12">
      <!-- 1.5 -->
      <g transform="translate(31.096875 112.432186)scale(0.1 -0.1)">
       <use xlink:href="#DejaVuSans-31"/>
       <use xlink:href="#DejaVuSans-2e" x="63.623047"/>
       <use xlink:href="#DejaVuSans-35" x="95.410156"/>
      </g>
     </g>
    </g>
    <g id="ytick_5">
     <g id="line2d_12">
      <g>
       <use xlink:href="#m7f99e798f8" x="54" y="60.843956" style="stroke: #000000; stroke-width: 0.8"/>
      </g>
     </g>
     <g id="text_13">
      <!-- 2.0 -->
      <g transform="translate(31.096875 64.643175)scale(0.1 -0.1)">
       <use xlink:href="#DejaVuSans-32"/>
       <use xlink:href="#DejaVuSans-2e" x="63.623047"/>
       <use xlink:href="#DejaVuSans-30" x="95.410156"/>
      </g>
     </g>
    </g>
    <g id="text_14">
     <!-- Average function value -->
     <g transform="translate(25.017187 201.072969)rotate(-90)scale(0.1 -0.1)">
      <defs>
       <path id="DejaVuSans-41" d="M 2188 4044 
L 1331 1722 
L 3047 1722 
L 2188 4044 
z
M 1831 4666 
L 2547 4666 
L 4325 0 
L 3669 0 
L 3244 1197 
L 1141 1197 
L 716 0 
L 50 0 
L 1831 4666 
z
" transform="scale(0.015625)"/>
       <path id="DejaVuSans-76" d="M 191 3500 
L 800 3500 
L 1894 563 
L 2988 3500 
L 3597 3500 
L 2284 0 
L 1503 0 
L 191 3500 
z
" transform="scale(0.015625)"/>
       <path id="DejaVuSans-61" d="M 2194 1759 
Q 1497 1759 1228 1600 
Q 959 1441 959 1056 
Q 959 750 1161 570 
Q 1363 391 1709 391 
Q 2188 391 2477 730 
Q 2766 1069 2766 1631 
L 2766 1759 
L 2194 1759 
z
M 3341 1997 
L 3341 0 
L 2766 0 
L 2766 531 
Q 2569 213 2275 61 
Q 1981 -91 1556 -91 
Q 1019 -91 701 211 
Q 384 513 384 1019 
Q 384 1609 779 1909 
Q 1175 2209 1959 2209 
L 2766 2209 
L 2766 2266 
Q 2766 2663 2505 2880 
Q 2244 3097 1772 3097 
Q 1472 3097 1187 3025 
Q 903 2953 641 2809 
L 641 3341 
Q 956 3463 1253 3523 
Q 1550 3584 1831 3584 
Q 2591 3584 2966 3190 
Q 3341 2797 3341 1997 
z
" transform="scale(0.015625)"/>
       <path id="DejaVuSans-67" d="M 2906 1791 
Q 2906 2416 2648 2759 
Q 2391 3103 1925 3103 
Q 1463 3103 1205 2759 
Q 947 2416 947 1791 
Q 947 1169 1205 825 
Q 1463 481 1925 481 
Q 2391 481 2648 825 
Q 2906 1169 2906 1791 
z
M 3481 434 
Q 3481 -459 3084 -895 
Q 2688 -1331 1869 -1331 
Q 1566 -1331 1297 -1286 
Q 1028 -1241 775 -1147 
L 775 -588 
Q 1028 -725 1275 -790 
Q 1522 -856 1778 -856 
Q 2344 -856 2625 -561 
Q 2906 -266 2906 331 
L 2906 616 
Q 2728 306 2450 153 
Q 2172 0 1784 0 
Q 1141 0 747 490 
Q 353 981 353 1791 
Q 353 2603 747 3093 
Q 1141 3584 1784 3584 
Q 2172 3584 2450 3431 
Q 2728 3278 2906 2969 
L 2906 3500 
L 3481 3500 
L 3481 434 
z
" transform="scale(0.015625)"/>
       <path id="DejaVuSans-66" d="M 2375 4863 
L 2375 4384 
L 1825 4384 
Q 1516 4384 1395 4259 
Q 1275 4134 1275 3809 
L 1275 3500 
L 2222 3500 
L 2222 3053 
L 1275 3053 
L 1275 0 
L 697 0 
L 697 3053 
L 147 3053 
L 147 3500 
L 697 3500 
L 697 3744 
Q 697 4328 969 4595 
Q 1241 4863 1831 4863 
L 2375 4863 
z
" transform="scale(0.015625)"/>
       <path id="DejaVuSans-63" d="M 3122 3366 
L 3122 2828 
Q 2878 2963 2633 3030 
Q 2388 3097 2138 3097 
Q 1578 3097 1268 2742 
Q 959 2388 959 1747 
Q 959 1106 1268 751 
Q 1578 397 2138 397 
Q 2388 397 2633 464 
Q 2878 531 3122 666 
L 3122 134 
Q 2881 22 2623 -34 
Q 2366 -91 2075 -91 
Q 1284 -91 818 406 
Q 353 903 353 1747 
Q 353 2603 823 3093 
Q 1294 3584 2113 3584 
Q 2378 3584 2631 3529 
Q 2884 3475 3122 3366 
z
" transform="scale(0.015625)"/>
       <path id="DejaVuSans-74" d="M 1172 4494 
L 1172 3500 
L 2356 3500 
L 2356 3053 
L 1172 3053 
L 1172 1153 
Q 1172 725 1289 603 
Q 1406 481 1766 481 
L 2356 481 
L 2356 0 
L 1766 0 
Q 1100 0 847 248 
Q 594 497 594 1153 
L 594 3053 
L 172 3053 
L 172 3500 
L 594 3500 
L 594 4494 
L 1172 4494 
z
" transform="scale(0.015625)"/>
       <path id="DejaVuSans-6f" d="M 1959 3097 
Q 1497 3097 1228 2736 
Q 959 2375 959 1747 
Q 959 1119 1226 758 
Q 1494 397 1959 397 
Q 2419 397 2687 759 
Q 2956 1122 2956 1747 
Q 2956 2369 2687 2733 
Q 2419 3097 1959 3097 
z
M 1959 3584 
Q 2709 3584 3137 3096 
Q 3566 2609 3566 1747 
Q 3566 888 3137 398 
Q 2709 -91 1959 -91 
Q 1206 -91 779 398 
Q 353 888 353 1747 
Q 353 2609 779 3096 
Q 1206 3584 1959 3584 
z
" transform="scale(0.015625)"/>
       <path id="DejaVuSans-6c" d="M 603 4863 
L 1178 4863 
L 1178 0 
L 603 0 
L 603 4863 
z
" transform="scale(0.015625)"/>
      </defs>
      <use xlink:href="#DejaVuSans-41"/>
      <use xlink:href="#DejaVuSans-76" x="62.533203"/>
      <use xlink:href="#DejaVuSans-65" x="121.712891"/>
      <use xlink:href="#DejaVuSans-72" x="183.236328"/>
      <use xlink:href="#DejaVuSans-61" x="224.349609"/>
      <use xlink:href="#DejaVuSans-67" x="285.628906"/>
      <use xlink:href="#DejaVuSans-65" x="349.105469"/>
      <use xlink:href="#DejaVuSans-20" x="410.628906"/>
      <use xlink:href="#DejaVuSans-66" x="442.416016"/>
      <use xlink:href="#DejaVuSans-75" x="477.621094"/>
      <use xlink:href="#DejaVuSans-6e" x="541"/>
      <use xlink:href="#DejaVuSans-63" x="604.378906"/>
      <use xlink:href="#DejaVuSans-74" x="659.359375"/>
      <use xlink:href="#DejaVuSans-69" x="698.568359"/>
      <use xlink:href="#DejaVuSans-6f" x="726.351562"/>
      <use xlink:href="#DejaVuSans-6e" x="787.533203"/>
      <use xlink:href="#DejaVuSans-20" x="850.912109"/>
      <use xlink:href="#DejaVuSans-76" x="882.699219"/>
      <use xlink:href="#DejaVuSans-61" x="941.878906"/>
      <use xlink:href="#DejaVuSans-6c" x="1003.158203"/>
      <use xlink:href="#DejaVuSans-75" x="1030.941406"/>
      <use xlink:href="#DejaVuSans-65" x="1094.320312"/>
     </g>
    </g>
   </g>
   <g id="patch_131">
    <path d="M 54 252 
L 54 34.56 
" style="fill: none; stroke: #000000; stroke-width: 0.8; stroke-linejoin: miter; stroke-linecap: square"/>
   </g>
   <g id="patch_132">
    <path d="M 388.8 252 
L 388.8 34.56 
" style="fill: none; stroke: #000000; stroke-width: 0.8; stroke-linejoin: miter; stroke-linecap: square"/>
   </g>
   <g id="patch_133">
    <path d="M 54 252 
L 388.8 252 
" style="fill: none; stroke: #000000; stroke-width: 0.8; stroke-linejoin: miter; stroke-linecap: square"/>
   </g>
   <g id="patch_134">
    <path d="M 54 34.56 
L 388.8 34.56 
" style="fill: none; stroke: #000000; stroke-width: 0.8; stroke-linejoin: miter; stroke-linecap: square"/>
   </g>
   <g id="text_15">
    <!-- Average function value, per size bin (nicolau_a) -->
    <g transform="translate(78.69 28.56)scale(0.12 -0.12)">
     <defs>
      <path id="DejaVuSans-2c" d="M 750 794 
L 1409 794 
L 1409 256 
L 897 -744 
L 494 -744 
L 750 256 
L 750 794 
z
" transform="scale(0.015625)"/>
      <path id="DejaVuSans-70" d="M 1159 525 
L 1159 -1331 
L 581 -1331 
L 581 3500 
L 1159 3500 
L 1159 2969 
Q 1341 3281 1617 3432 
Q 1894 3584 2278 3584 
Q 2916 3584 3314 3078 
Q 3713 2572 3713 1747 
Q 3713 922 3314 415 
Q 2916 -91 2278 -91 
Q 1894 -91 1617 61 
Q 1341 213 1159 525 
z
M 3116 1747 
Q 3116 2381 2855 2742 
Q 2594 3103 2138 3103 
Q 1681 3103 1420 2742 
Q 1159 2381 1159 1747 
Q 1159 1113 1420 752 
Q 1681 391 2138 391 
Q 2594 391 2855 752 
Q 3116 1113 3116 1747 
z
" transform="scale(0.015625)"/>
      <path id="DejaVuSans-73" d="M 2834 3397 
L 2834 2853 
Q 2591 2978 2328 3040 
Q 2066 3103 1784 3103 
Q 1356 3103 1142 2972 
Q 928 2841 928 2578 
Q 928 2378 1081 2264 
Q 1234 2150 1697 2047 
L 1894 2003 
Q 2506 1872 2764 1633 
Q 3022 1394 3022 966 
Q 3022 478 2636 193 
Q 2250 -91 1575 -91 
Q 1294 -91 989 -36 
Q 684 19 347 128 
L 347 722 
Q 666 556 975 473 
Q 1284 391 1588 391 
Q 1994 391 2212 530 
Q 2431 669 2431 922 
Q 2431 1156 2273 1281 
Q 2116 1406 1581 1522 
L 1381 1569 
Q 847 1681 609 1914 
Q 372 2147 372 2553 
Q 372 3047 722 3315 
Q 1072 3584 1716 3584 
Q 2034 3584 2315 3537 
Q 2597 3491 2834 3397 
z
" transform="scale(0.015625)"/>
      <path id="DejaVuSans-28" d="M 1984 4856 
Q 1566 4138 1362 3434 
Q 1159 2731 1159 2009 
Q 1159 1288 1364 580 
Q 1569 -128 1984 -844 
L 1484 -844 
Q 1016 -109 783 600 
Q 550 1309 550 2009 
Q 550 2706 781 3412 
Q 1013 4119 1484 4856 
L 1984 4856 
z
" transform="scale(0.015625)"/>
      <path id="DejaVuSans-5f" d="M 3263 -1063 
L 3263 -1509 
L -63 -1509 
L -63 -1063 
L 3263 -1063 
z
" transform="scale(0.015625)"/>
      <path id="DejaVuSans-29" d="M 513 4856 
L 1013 4856 
Q 1481 4119 1714 3412 
Q 1947 2706 1947 2009 
Q 1947 1309 1714 600 
Q 1481 -109 1013 -844 
L 513 -844 
Q 928 -128 1133 580 
Q 1338 1288 1338 2009 
Q 1338 2731 1133 3434 
Q 928 4138 513 4856 
z
" transform="scale(0.015625)"/>
     </defs>
     <use xlink:href="#DejaVuSans-41"/>
     <use xlink:href="#DejaVuSans-76" x="62.533203"/>
     <use xlink:href="#DejaVuSans-65" x="121.712891"/>
     <use xlink:href="#DejaVuSans-72" x="183.236328"/>
     <use xlink:href="#DejaVuSans-61" x="224.349609"/>
     <use xlink:href="#DejaVuSans-67" x="285.628906"/>
     <use xlink:href="#DejaVuSans-65" x="349.105469"/>
     <use xlink:href="#DejaVuSans-20" x="410.628906"/>
     <use xlink:href="#DejaVuSans-66" x="442.416016"/>
     <use xlink:href="#DejaVuSans-75" x="477.621094"/>
     <use xlink:href="#DejaVuSans-6e" x="541"/>
     <use xlink:href="#DejaVuSans-63" x="604.378906"/>
     <use xlink:href="#DejaVuSans-74" x="659.359375"/>
     <use xlink:href="#DejaVuSans-69" x="698.568359"/>
     <use xlink:href="#DejaVuSans-6f" x="726.351562"/>
     <use xlink:href="#DejaVuSans-6e" x="787.533203"/>
     <use xlink:href="#DejaVuSans-20" x="850.912109"/>
     <use xlink:href="#DejaVuSans-76" x="882.699219"/>
     <use xlink:href="#DejaVuSans-61" x="941.878906"/>
     <use xlink:href="#DejaVuSans-6c" x="1003.158203"/>
     <use xlink:href="#DejaVuSans-75" x="1030.941406"/>
     <use xlink:href="#DejaVuSans-65" x="1094.320312"/>
     <use xlink:href="#DejaVuSans-2c" x="1155.84375"/>
     <use xlink:href="#DejaVuSans-20" x="1187.630859"/>
     <use xlink:href="#DejaVuSans-70" x="1219.417969"/>
     <use xlink:href="#DejaVuSans-65" x="1282.894531"/>
     <use xlink:href="#DejaVuSans-72" x="1344.417969"/>
     <use xlink:href="#DejaVuSans-20" x="1385.53125"/>
     <use xlink:href="#DejaVuSans-73" x="1417.318359"/>
     <use xlink:href="#DejaVuSans-69" x="1469.417969"/>
     <use xlink:href="#DejaVuSans-7a" x="1497.201172"/>
     <use xlink:href="#DejaVuSans-65" x="1549.691406"/>
     <use xlink:href="#DejaVuSans-20" x="1611.214844"/>
     <use xlink:href="#DejaVuSans-62" x="1643.001953"/>
     <use xlink:href="#DejaVuSans-69" x="1706.478516"/>
     <use xlink:href="#DejaVuSans-6e" x="1734.261719"/>
     <use xlink:href="#DejaVuSans-20" x="1797.640625"/>
     <use xlink:href="#DejaVuSans-28" x="1829.427734"/>
     <use xlink:href="#DejaVuSans-6e" x="1868.441406"/>
     <use xlink:href="#DejaVuSans-69" x="1931.820312"/>
     <use xlink:href="#DejaVuSans-63" x="1959.603516"/>
     <use xlink:href="#DejaVuSans-6f" x="2014.583984"/>
     <use xlink:href="#DejaVuSans-6c" x="2075.765625"/>
     <use xlink:href="#DejaVuSans-61" x="2103.548828"/>
     <use xlink:href="#DejaVuSans-75" x="2164.828125"/>
     <use xlink:href="#DejaVuSans-5f" x="2228.207031"/>
     <use xlink:href="#DejaVuSans-61" x="2278.207031"/>
     <use xlink:href="#DejaVuSans-29" x="2339.486328"/>
    </g>
   </g>
  </g>
 </g>
 <defs>
  <clipPath id="p20b8b18c68">
   <rect x="54" y="34.56" width="334.8" height="217.44"/>
  </clipPath>
 </defs>
</svg>
