<?xml version="1.0" encoding="utf-8" standalone="no"?>
<!DOCTYPE svg PUBLIC "-//W3C//DTD SVG 1.1//EN"
  "http://www.w3.org/Graphics/SVG/1.1/DTD/svg11.dtd">
<svg xmlns:xlink="http://www.w3.org/1999/xlink" width="432pt" height="288pt" viewBox="0 0 432 288" xmlns="http://www.w3.org/2000/svg" version="1.1">
 <metadata>
  <rdf:RDF xmlns:dc="http://purl.org/dc/elements/1.1/" xmlns:cc="http://creativecommons.org/ns#" xmlns:rdf="http://www.w3.org/1999/02/22-rdf-syntax-ns#">
   <cc:Work>
    <dc:type rdf:resource="http://purl.org/dc/dcmitype/StillImage"/>
    <dc:date>2022-01-12T03:40:07.915150</dc:date>
    <dc:format>image/svg+xml</dc:format>
    <dc:creator>
     <cc:Agent>
      <dc:title>Matplotlib v3.5.1, https://matplotlib.org/</dc:title>
     </cc:Agent>
    </dc:creator>
   </cc:Work>
  </rdf:RDF>
 </metadata>
 <defs>
  <style type="text/css">*{stroke-linejoin: round; stroke-linecap: butt}</style>
 </defs>
 <g id="figure_1">
  <g id="patch_1">
   <path d="M 0 288 
L 432 288 
L 432 0 
L 0 0 
L 0 288 
z
" style="fill: none"/>
  </g>
  <g id="axes_1">
   <g id="patch_2">
    <path d="M 54 252 
L 388.8 252 
L 388.8 34.56 
L 54 34.56 
z
" style="fill: #ffffff"/>
   </g>
   <g id="PolyCollection_1">
    <path d="M 69.218182 241.647612 
L 69.218182 242.116364 
L 71.614746 221.372844 
L 74.01131 213.350337 
L 76.407874 207.342664 
L 78.804438 203.482129 
L 81.201002 199.819536 
L 83.597566 195.031952 
L 85.99413 192.6927 
L 88.390694 192.39406 
L 90.787258 189.633698 
L 93.183822 187.437308 
L 95.580387 185.777166 
L 97.976951 184.886468 
L 100.373515 183.897441 
L 102.770079 182.007494 
L 105.166643 181.931946 
L 107.563207 180.200616 
L 109.959771 180.963136 
L 112.356335 180.158552 
L 114.752899 178.365376 
L 117.149463 177.521546 
L 119.546027 176.640907 
L 121.942591 176.419111 
L 124.339155 175.582933 
L 126.735719 174.254635 
L 129.132283 174.430978 
L 131.528848 174.136761 
L 133.925412 172.256658 
L 136.321976 171.630241 
L 138.71854 171.269049 
L 141.115104 171.938987 
L 143.511668 170.737693 
L 145.908232 170.358809 
L 148.304796 170.533634 
L 150.70136 170.41186 
L 153.097924 170.0693 
L 155.494488 168.7236 
L 157.891052 169.347029 
L 160.287616 169.813404 
L 162.68418 168.514136 
L 165.080744 166.920272 
L 167.477309 167.961458 
L 169.873873 167.200744 
L 172.270437 167.501404 
L 174.667001 167.682768 
L 177.063565 167.962977 
L 179.460129 167.413152 
L 181.856693 174.565243 
L 184.253257 168.567144 
L 186.649821 167.77432 
L 189.046385 167.187748 
L 191.442949 175.689502 
L 193.839513 176.774188 
L 196.236077 167.569325 
L 198.632641 166.11902 
L 201.029205 166.504075 
L 203.42577 166.879243 
L 205.822334 165.133312 
L 208.218898 165.357006 
L 210.615462 164.535916 
L 213.012026 165.196975 
L 215.40859 163.670069 
L 217.805154 163.76294 
L 220.201718 164.484971 
L 222.598282 163.826689 
L 224.994846 163.8197 
L 227.39141 163.769251 
L 229.787974 163.229429 
L 232.184538 163.508168 
L 234.581102 163.582703 
L 236.977666 174.852211 
L 239.37423 166.476331 
L 241.770795 163.911495 
L 244.167359 163.353686 
L 246.563923 162.613866 
L 248.960487 162.672859 
L 251.357051 162.673471 
L 253.753615 164.939416 
L 256.150179 163.029359 
L 258.546743 163.123784 
L 260.943307 161.719695 
L 263.339871 162.614262 
L 265.736435 161.730032 
L 268.132999 161.835432 
L 270.529563 162.781051 
L 272.926127 161.662358 
L 275.322691 160.736026 
L 277.719256 160.466513 
L 280.11582 162.535792 
L 282.512384 160.48891 
L 284.908948 160.9736 
L 287.305512 160.767224 
L 289.702076 160.205654 
L 292.09864 160.662255 
L 294.495204 160.381957 
L 296.891768 161.118184 
L 299.288332 171.798868 
L 301.684896 164.239122 
L 304.08146 160.141655 
L 306.478024 160.730251 
L 308.874588 158.285198 
L 311.271152 160.191797 
L 313.667717 159.620706 
L 316.064281 159.941054 
L 318.460845 161.224952 
L 320.857409 160.209717 
L 323.253973 159.441349 
L 325.650537 159.544302 
L 328.047101 160.844711 
L 330.443665 158.684364 
L 332.840229 159.953431 
L 335.236793 159.36926 
L 337.633357 157.918643 
L 340.029921 158.391754 
L 342.426485 159.827786 
L 344.823049 159.528486 
L 347.219613 159.375355 
L 349.616178 158.827578 
L 352.012742 159.850386 
L 354.409306 162.069901 
L 356.80587 160.443031 
L 359.202434 171.020668 
L 361.598998 162.427906 
L 363.995562 160.577308 
L 366.392126 159.05281 
L 368.78869 159.22923 
L 371.185254 158.844107 
L 373.581818 159.284418 
L 373.581818 158.783588 
L 373.581818 158.783588 
L 371.185254 158.299562 
L 368.78869 158.958486 
L 366.392126 158.514746 
L 363.995562 159.993354 
L 361.598998 159.028925 
L 359.202434 162.173281 
L 356.80587 160.103231 
L 354.409306 156.538071 
L 352.012742 159.766207 
L 349.616178 158.64157 
L 347.219613 159.064524 
L 344.823049 159.363047 
L 342.426485 159.542293 
L 340.029921 158.036683 
L 337.633357 157.582887 
L 335.236793 159.048622 
L 332.840229 159.791661 
L 330.443665 158.441157 
L 328.047101 160.786045 
L 325.650537 159.427565 
L 323.253973 159.20181 
L 320.857409 159.85575 
L 318.460845 161.008269 
L 316.064281 159.795714 
L 313.667717 159.318897 
L 311.271152 159.768228 
L 308.874588 158.231528 
L 306.478024 160.392962 
L 304.08146 159.935452 
L 301.684896 159.180937 
L 299.288332 161.429449 
L 296.891768 160.912759 
L 294.495204 160.330036 
L 292.09864 160.016472 
L 289.702076 159.80727 
L 287.305512 160.536252 
L 284.908948 160.761317 
L 282.512384 160.366915 
L 280.11582 162.164387 
L 277.719256 160.193788 
L 275.322691 160.658292 
L 272.926127 161.239695 
L 270.529563 162.764184 
L 268.132999 161.581225 
L 265.736435 161.403129 
L 263.339871 162.437826 
L 260.943307 161.385956 
L 258.546743 162.801571 
L 256.150179 162.454966 
L 253.753615 160.513016 
L 251.357051 162.14346 
L 248.960487 162.415971 
L 246.563923 162.408749 
L 244.167359 163.123683 
L 241.770795 163.342977 
L 239.37423 161.179563 
L 236.977666 166.612935 
L 234.581102 162.854519 
L 232.184538 162.994783 
L 229.787974 163.120715 
L 227.39141 163.557917 
L 224.994846 163.738376 
L 222.598282 163.775027 
L 220.201718 164.086522 
L 217.805154 163.448956 
L 215.40859 163.499405 
L 213.012026 165.083177 
L 210.615462 164.346791 
L 208.218898 165.319352 
L 205.822334 164.562822 
L 203.42577 166.388223 
L 201.029205 165.733798 
L 198.632641 165.830781 
L 196.236077 166.222305 
L 193.839513 168.93595 
L 191.442949 169.802002 
L 189.046385 165.975793 
L 186.649821 166.538772 
L 184.253257 168.116893 
L 181.856693 174.474389 
L 179.460129 167.313796 
L 177.063565 167.230665 
L 174.667001 167.051149 
L 172.270437 167.288341 
L 169.873873 167.017127 
L 167.477309 167.764294 
L 165.080744 166.711118 
L 162.68418 168.344488 
L 160.287616 169.650636 
L 157.891052 169.170985 
L 155.494488 168.555326 
L 153.097924 169.672288 
L 150.70136 170.055287 
L 148.304796 170.287851 
L 145.908232 170.006161 
L 143.511668 170.255172 
L 141.115104 171.758715 
L 138.71854 171.173 
L 136.321976 171.431918 
L 133.925412 172.126255 
L 131.528848 174.084546 
L 129.132283 174.21713 
L 126.735719 174.215398 
L 124.339155 174.963269 
L 121.942591 175.874304 
L 119.546027 176.092466 
L 117.149463 176.979103 
L 114.752899 177.897515 
L 112.356335 179.774611 
L 109.959771 179.904577 
L 107.563207 179.19178 
L 105.166643 180.877729 
L 102.770079 181.703349 
L 100.373515 183.235083 
L 97.976951 184.050326 
L 95.580387 185.448446 
L 93.183822 186.87089 
L 90.787258 189.124071 
L 88.390694 191.721028 
L 85.99413 191.822836 
L 83.597566 194.800181 
L 81.201002 199.457001 
L 78.804438 202.518458 
L 76.407874 206.834113 
L 74.01131 212.544931 
L 71.614746 221.029697 
L 69.218182 241.647612 
z
" clip-path="url(#pdbca4c48cf)" style="fill: #1f77b4"/>
   </g>
   <g id="PolyCollection_2">
    <path d="M 69.218182 210.399255 
L 69.218182 211.675104 
L 71.614746 191.98178 
L 74.01131 186.226419 
L 76.407874 180.7956 
L 78.804438 176.080005 
L 81.201002 176.307462 
L 83.597566 165.791472 
L 85.99413 168.85388 
L 88.390694 175.998039 
L 90.787258 172.394651 
L 93.183822 168.239881 
L 95.580387 167.330675 
L 97.976951 164.25206 
L 100.373515 168.552238 
L 102.770079 164.824867 
L 105.166643 165.350777 
L 107.563207 163.210891 
L 109.959771 167.305598 
L 112.356335 168.668489 
L 114.752899 159.95711 
L 117.149463 159.771222 
L 119.546027 161.694533 
L 121.942591 163.155642 
L 124.339155 162.971323 
L 126.735719 161.848081 
L 129.132283 163.146139 
L 131.528848 163.887719 
L 133.925412 158.688803 
L 136.321976 159.714206 
L 138.71854 164.862994 
L 141.115104 169.490976 
L 143.511668 165.808655 
L 145.908232 165.259121 
L 148.304796 165.293089 
L 150.70136 166.835096 
L 153.097924 165.110307 
L 155.494488 164.752579 
L 157.891052 167.971721 
L 160.287616 168.641931 
L 162.68418 166.689146 
L 165.080744 161.733396 
L 167.477309 166.55891 
L 169.873873 165.001609 
L 172.270437 166.949202 
L 174.667001 166.824878 
L 177.063565 166.592492 
L 179.460129 166.483219 
L 181.856693 170.54991 
L 184.253257 167.894742 
L 186.649821 165.510298 
L 189.046385 167.057154 
L 191.442949 169.009282 
L 193.839513 165.043545 
L 196.236077 167.7325 
L 198.632641 166.113897 
L 201.029205 168.176244 
L 203.42577 169.188605 
L 205.822334 166.384178 
L 208.218898 169.137097 
L 210.615462 166.091536 
L 213.012026 167.482555 
L 215.40859 164.566991 
L 217.805154 164.526441 
L 220.201718 166.56804 
L 222.598282 162.164484 
L 224.994846 161.679856 
L 227.39141 162.251846 
L 229.787974 160.642351 
L 232.184538 160.826808 
L 234.581102 159.056127 
L 236.977666 160.627679 
L 239.37423 159.620321 
L 241.770795 160.767566 
L 244.167359 161.559469 
L 246.563923 160.069668 
L 248.960487 161.418498 
L 251.357051 160.935421 
L 253.753615 161.03472 
L 256.150179 159.976962 
L 258.546743 160.63701 
L 260.943307 158.828275 
L 263.339871 161.68088 
L 265.736435 160.312066 
L 268.132999 160.869355 
L 270.529563 163.762055 
L 272.926127 160.698534 
L 275.322691 159.482923 
L 277.719256 158.80864 
L 280.11582 162.690149 
L 282.512384 158.809211 
L 284.908948 160.861014 
L 287.305512 159.283466 
L 289.702076 158.737149 
L 292.09864 159.305839 
L 294.495204 160.799181 
L 296.891768 159.779433 
L 299.288332 159.724928 
L 301.684896 161.473153 
L 304.08146 158.373694 
L 306.478024 160.228329 
L 308.874588 155.906337 
L 311.271152 159.333415 
L 313.667717 158.292114 
L 316.064281 160.128199 
L 318.460845 161.377048 
L 320.857409 160.270713 
L 323.253973 159.430638 
L 325.650537 159.486616 
L 328.047101 162.00205 
L 330.443665 158.543273 
L 332.840229 159.914314 
L 335.236793 159.130852 
L 337.633357 156.724301 
L 340.029921 158.212163 
L 342.426485 160.025244 
L 344.823049 159.120338 
L 347.219613 158.677756 
L 349.616178 159.239934 
L 352.012742 161.567603 
L 354.409306 158.776239 
L 356.80587 160.766866 
L 359.202434 159.571044 
L 361.598998 158.93016 
L 363.995562 161.421398 
L 366.392126 158.711051 
L 368.78869 159.474881 
L 371.185254 159.08913 
L 373.581818 159.767514 
L 373.581818 159.706305 
L 373.581818 159.706305 
L 371.185254 159.02811 
L 368.78869 159.398073 
L 366.392126 158.441109 
L 363.995562 161.265653 
L 361.598998 158.771644 
L 359.202434 159.37393 
L 356.80587 160.651344 
L 354.409306 158.7122 
L 352.012742 161.408611 
L 349.616178 158.756387 
L 347.219613 158.605188 
L 344.823049 158.950492 
L 342.426485 159.69571 
L 340.029921 158.031678 
L 337.633357 156.646838 
L 335.236793 159.108329 
L 332.840229 159.521797 
L 330.443665 158.403545 
L 328.047101 161.843231 
L 325.650537 159.457953 
L 323.253973 159.23462 
L 320.857409 160.250804 
L 318.460845 161.168989 
L 316.064281 160.019323 
L 313.667717 158.164926 
L 311.271152 159.205632 
L 308.874588 155.34031 
L 306.478024 160.072457 
L 304.08146 158.073244 
L 301.684896 161.351155 
L 299.288332 159.64951 
L 296.891768 159.699668 
L 294.495204 160.544245 
L 292.09864 158.525543 
L 289.702076 158.630848 
L 287.305512 159.017826 
L 284.908948 160.806771 
L 282.512384 158.457995 
L 280.11582 162.608186 
L 277.719256 158.381104 
L 275.322691 159.432503 
L 272.926127 160.562475 
L 270.529563 163.40697 
L 268.132999 160.59681 
L 265.736435 160.132508 
L 263.339871 161.153806 
L 260.943307 158.571504 
L 258.546743 160.536209 
L 256.150179 159.897884 
L 253.753615 160.547968 
L 251.357051 160.150136 
L 248.960487 161.044152 
L 246.563923 159.71108 
L 244.167359 161.119194 
L 241.770795 160.434232 
L 239.37423 159.509418 
L 236.977666 160.535368 
L 234.581102 158.500837 
L 232.184538 160.775763 
L 229.787974 160.546986 
L 227.39141 161.908843 
L 224.994846 161.401722 
L 222.598282 160.948693 
L 220.201718 166.17508 
L 217.805154 163.933406 
L 215.40859 164.518921 
L 213.012026 167.274587 
L 210.615462 165.938261 
L 208.218898 168.501874 
L 205.822334 165.965824 
L 203.42577 168.963261 
L 201.029205 167.659353 
L 198.632641 165.859423 
L 196.236077 167.611006 
L 193.839513 164.62695 
L 191.442949 168.582605 
L 189.046385 166.999384 
L 186.649821 165.370943 
L 184.253257 167.203439 
L 181.856693 165.690489 
L 179.460129 165.965769 
L 177.063565 166.419666 
L 174.667001 166.497256 
L 172.270437 166.730762 
L 169.873873 164.605913 
L 167.477309 166.21506 
L 165.080744 161.611429 
L 162.68418 166.293664 
L 160.287616 168.323714 
L 157.891052 167.546269 
L 155.494488 164.522989 
L 153.097924 164.972766 
L 150.70136 166.479959 
L 148.304796 165.027762 
L 145.908232 165.154542 
L 143.511668 165.17248 
L 141.115104 169.308124 
L 138.71854 164.47245 
L 136.321976 159.160581 
L 133.925412 158.242117 
L 131.528848 163.630106 
L 129.132283 162.770659 
L 126.735719 161.352837 
L 124.339155 162.853583 
L 121.942591 162.814529 
L 119.546027 161.56044 
L 117.149463 159.280198 
L 114.752899 159.431887 
L 112.356335 168.360539 
L 109.959771 167.212071 
L 107.563207 162.389567 
L 105.166643 165.252701 
L 102.770079 164.501833 
L 100.373515 168.325751 
L 97.976951 163.802239 
L 95.580387 167.161776 
L 93.183822 167.353358 
L 90.787258 172.29827 
L 88.390694 175.270056 
L 85.99413 168.364793 
L 83.597566 165.357236 
L 81.201002 175.739311 
L 78.804438 175.293216 
L 76.407874 180.425935 
L 74.01131 185.763809 
L 71.614746 191.5792 
L 69.218182 210.399255 
z
" clip-path="url(#pdbca4c48cf)" style="fill: #ff7f0e"/>
   </g>
   <g id="PolyCollection_3">
    <path d="M 69.218182 210.923106 
L 69.218182 211.173823 
L 71.614746 192.857724 
L 74.01131 186.530859 
L 76.407874 180.675789 
L 78.804438 176.671103 
L 81.201002 176.961377 
L 83.597566 166.335334 
L 85.99413 168.838461 
L 88.390694 176.761785 
L 90.787258 173.019498 
L 93.183822 169.388562 
L 95.580387 168.538987 
L 97.976951 166.198122 
L 100.373515 169.661035 
L 102.770079 166.356975 
L 105.166643 166.888677 
L 107.563207 171.644359 
L 109.959771 169.908442 
L 112.356335 170.306989 
L 114.752899 161.681402 
L 117.149463 161.864052 
L 119.546027 163.070208 
L 121.942591 164.464068 
L 124.339155 164.882221 
L 126.735719 162.666747 
L 129.132283 163.787734 
L 131.528848 165.700095 
L 133.925412 159.862308 
L 136.321976 161.016841 
L 138.71854 161.553344 
L 141.115104 166.216758 
L 143.511668 161.689475 
L 145.908232 162.818005 
L 148.304796 162.055851 
L 150.70136 163.798783 
L 153.097924 162.02804 
L 155.494488 160.908155 
L 157.891052 164.696671 
L 160.287616 166.602134 
L 162.68418 163.994117 
L 165.080744 159.425749 
L 167.477309 163.634019 
L 169.873873 161.632357 
L 172.270437 163.865006 
L 174.667001 162.449915 
L 177.063565 162.315335 
L 179.460129 162.216342 
L 181.856693 163.693143 
L 184.253257 163.064064 
L 186.649821 161.331888 
L 189.046385 162.399909 
L 191.442949 164.325548 
L 193.839513 160.198795 
L 196.236077 162.632045 
L 198.632641 160.897482 
L 201.029205 162.498299 
L 203.42577 165.243051 
L 205.822334 161.568282 
L 208.218898 164.261785 
L 210.615462 161.788329 
L 213.012026 162.940178 
L 215.40859 160.246789 
L 217.805154 160.00186 
L 220.201718 161.593304 
L 222.598282 161.649683 
L 224.994846 161.829464 
L 227.39141 162.237376 
L 229.787974 160.772963 
L 232.184538 161.672048 
L 234.581102 160.074058 
L 236.977666 162.176001 
L 239.37423 160.086704 
L 241.770795 162.072648 
L 244.167359 162.547946 
L 246.563923 161.317156 
L 248.960487 162.407161 
L 251.357051 161.895032 
L 253.753615 162.225771 
L 256.150179 160.591026 
L 258.546743 161.075487 
L 260.943307 159.168875 
L 263.339871 162.653408 
L 265.736435 161.009698 
L 268.132999 162.062408 
L 270.529563 163.955405 
L 272.926127 160.580626 
L 275.322691 160.394304 
L 277.719256 159.296016 
L 280.11582 163.625365 
L 282.512384 159.848803 
L 284.908948 161.682615 
L 287.305512 159.782395 
L 289.702076 158.594197 
L 292.09864 159.472373 
L 294.495204 160.717445 
L 296.891768 160.502475 
L 299.288332 160.709655 
L 301.684896 161.896369 
L 304.08146 158.56804 
L 306.478024 160.723058 
L 308.874588 156.298831 
L 311.271152 159.52181 
L 313.667717 164.479408 
L 316.064281 162.604136 
L 318.460845 162.551159 
L 320.857409 160.340559 
L 323.253973 160.367348 
L 325.650537 159.572577 
L 328.047101 162.840586 
L 330.443665 159.088588 
L 332.840229 160.934034 
L 335.236793 159.605433 
L 337.633357 157.129504 
L 340.029921 158.871181 
L 342.426485 160.656989 
L 344.823049 160.191706 
L 347.219613 159.140925 
L 349.616178 159.381043 
L 352.012742 162.14648 
L 354.409306 159.443227 
L 356.80587 161.400647 
L 359.202434 160.290057 
L 361.598998 159.746655 
L 363.995562 162.389174 
L 366.392126 159.238867 
L 368.78869 160.379261 
L 371.185254 159.572444 
L 373.581818 160.479636 
L 373.581818 160.43927 
L 373.581818 160.43927 
L 371.185254 159.42521 
L 368.78869 159.97165 
L 366.392126 159.155088 
L 363.995562 161.606834 
L 361.598998 159.66123 
L 359.202434 160.030921 
L 356.80587 161.304042 
L 354.409306 159.301493 
L 352.012742 161.851723 
L 349.616178 159.334234 
L 347.219613 158.906292 
L 344.823049 160.066978 
L 342.426485 160.412306 
L 340.029921 158.572673 
L 337.633357 157.09085 
L 335.236793 159.46964 
L 332.840229 160.410273 
L 330.443665 158.983623 
L 328.047101 162.606327 
L 325.650537 159.463589 
L 323.253973 160.154078 
L 320.857409 160.139905 
L 318.460845 162.320922 
L 316.064281 157.308407 
L 313.667717 164.403201 
L 311.271152 159.148323 
L 308.874588 155.725354 
L 306.478024 160.618289 
L 304.08146 158.387304 
L 301.684896 161.143968 
L 299.288332 160.349396 
L 296.891768 160.387159 
L 294.495204 160.390415 
L 292.09864 159.383962 
L 289.702076 158.313225 
L 287.305512 159.460229 
L 284.908948 161.258783 
L 282.512384 159.337641 
L 280.11582 162.71785 
L 277.719256 159.052998 
L 275.322691 160.10789 
L 272.926127 160.337903 
L 270.529563 163.61396 
L 268.132999 161.626906 
L 265.736435 160.594055 
L 263.339871 162.292896 
L 260.943307 158.949935 
L 258.546743 160.85537 
L 256.150179 159.859493 
L 253.753615 162.023021 
L 251.357051 161.60219 
L 248.960487 162.383289 
L 246.563923 161.200174 
L 244.167359 162.451229 
L 241.770795 161.708358 
L 239.37423 159.838691 
L 236.977666 161.799337 
L 234.581102 159.968303 
L 232.184538 161.49678 
L 229.787974 160.473421 
L 227.39141 161.931713 
L 224.994846 161.661592 
L 222.598282 161.287009 
L 220.201718 161.472753 
L 217.805154 159.85724 
L 215.40859 159.986635 
L 213.012026 162.744426 
L 210.615462 161.207962 
L 208.218898 163.856703 
L 205.822334 161.324123 
L 203.42577 164.687925 
L 201.029205 161.824978 
L 198.632641 160.371676 
L 196.236077 162.160571 
L 193.839513 159.918866 
L 191.442949 163.963377 
L 189.046385 161.903193 
L 186.649821 161.232043 
L 184.253257 162.183592 
L 181.856693 163.380192 
L 179.460129 161.306493 
L 177.063565 162.172902 
L 174.667001 162.009689 
L 172.270437 163.476731 
L 169.873873 160.389033 
L 167.477309 163.201812 
L 165.080744 159.069881 
L 162.68418 163.377992 
L 160.287616 165.663056 
L 157.891052 164.379486 
L 155.494488 160.522516 
L 153.097924 161.545672 
L 150.70136 163.674826 
L 148.304796 161.930682 
L 145.908232 162.434636 
L 143.511668 161.516876 
L 141.115104 165.508495 
L 138.71854 161.40483 
L 136.321976 160.028797 
L 133.925412 159.709121 
L 131.528848 165.605542 
L 129.132283 163.699151 
L 126.735719 162.452949 
L 124.339155 163.996235 
L 121.942591 164.26305 
L 119.546027 161.808307 
L 117.149463 161.047403 
L 114.752899 160.968798 
L 112.356335 169.77135 
L 109.959771 168.480467 
L 107.563207 166.081927 
L 105.166643 166.570259 
L 102.770079 165.58826 
L 100.373515 168.305135 
L 97.976951 163.563986 
L 95.580387 168.43724 
L 93.183822 168.742144 
L 90.787258 172.84449 
L 88.390694 176.231171 
L 85.99413 168.664632 
L 83.597566 165.652222 
L 81.201002 176.81794 
L 78.804438 176.605312 
L 76.407874 180.562108 
L 74.01131 186.391333 
L 71.614746 192.060625 
L 69.218182 210.923106 
z
" clip-path="url(#pdbca4c48cf)" style="fill: #2ca02c"/>
   </g>
   <g id="PolyCollection_4">
    <path d="M 69.218182 140.964456 
L 69.218182 156.964466 
L 71.614746 127.383527 
L 74.01131 130.511462 
L 76.407874 117.175926 
L 78.804438 107.851313 
L 81.201002 109.512237 
L 83.597566 117.905614 
L 85.99413 100.392089 
L 88.390694 98.546922 
L 90.787258 101.816486 
L 93.183822 43380.5731 
L 95.580387 92.486644 
L 97.976951 98.33098 
L 100.373515 92.226529 
L 102.770079 89.864741 
L 105.166643 89.239793 
L 107.563207 99.423775 
L 109.959771 97.575563 
L 112.356335 89.62806 
L 114.752899 88.878371 
L 117.149463 90.312267 
L 119.546027 84.032374 
L 121.942591 83.951959 
L 124.339155 82.720809 
L 126.735719 85.135755 
L 129.132283 85.191911 
L 131.528848 82.25216 
L 133.925412 81.883334 
L 136.321976 77.166847 
L 138.71854 80.059127 
L 141.115104 77.197919 
L 143.511668 79.035208 
L 145.908232 86.165036 
L 148.304796 82.043477 
L 150.70136 82.561237 
L 153.097924 74.016255 
L 155.494488 75.451375 
L 157.891052 79.843183 
L 160.287616 77.014324 
L 162.68418 76.356151 
L 165.080744 74.937497 
L 167.477309 73.816944 
L 169.873873 78.984812 
L 172.270437 80.798387 
L 174.667001 91.391103 
L 177.063565 75.297225 
L 179.460129 74.728886 
L 181.856693 81.644044 
L 184.253257 78.259792 
L 186.649821 73.818608 
L 189.046385 76.932494 
L 191.442949 74.849638 
L 193.839513 76.576134 
L 196.236077 73.665162 
L 198.632641 79.822008 
L 201.029205 77.033678 
L 203.42577 87.31087 
L 205.822334 71.073505 
L 208.218898 70.81976 
L 210.615462 79.463322 
L 213.012026 69.603233 
L 215.40859 71.501618 
L 217.805154 70.810519 
L 220.201718 70.936 
L 222.598282 83.620625 
L 224.994846 73.849173 
L 227.39141 71.9903 
L 229.787974 69.258116 
L 232.184538 80.462406 
L 234.581102 71.483907 
L 236.977666 72.959687 
L 239.37423 72.721402 
L 241.770795 72.000723 
L 244.167359 67.833208 
L 246.563923 69.331242 
L 248.960487 67.724303 
L 251.357051 67.700891 
L 253.753615 72.225014 
L 256.150179 68.028835 
L 258.546743 69.549944 
L 260.943307 80.371508 
L 263.339871 69.666197 
L 265.736435 71.548454 
L 268.132999 67.678786 
L 270.529563 67.754291 
L 272.926127 72.179924 
L 275.322691 66.889248 
L 277.719256 71.799012 
L 280.11582 62.565089 
L 282.512384 63.934965 
L 284.908948 65.170154 
L 287.305512 65.830504 
L 289.702076 72.904916 
L 292.09864 73.560332 
L 294.495204 70.442653 
L 296.891768 67.064444 
L 299.288332 65.649189 
L 301.684896 83.666027 
L 304.08146 90.03287 
L 306.478024 43380.5731 
L 308.874588 63.841641 
L 311.271152 66.097707 
L 313.667717 63.525217 
L 316.064281 71.353621 
L 318.460845 69.327274 
L 320.857409 66.008803 
L 323.253973 70.771631 
L 325.650537 72.473614 
L 328.047101 62.995395 
L 330.443665 65.713137 
L 332.840229 68.121027 
L 335.236793 66.188659 
L 337.633357 79.362253 
L 340.029921 62.027587 
L 342.426485 64.667649 
L 344.823049 64.866892 
L 347.219613 69.088324 
L 349.616178 74.229514 
L 352.012742 67.980119 
L 354.409306 63.569718 
L 356.80587 64.804436 
L 359.202434 63.634994 
L 361.598998 70.506205 
L 363.995562 71.252828 
L 366.392126 66.697417 
L 368.78869 70.820881 
L 371.185254 61.799443 
L 373.581818 66.199629 
L 373.581818 60.664166 
L 373.581818 60.664166 
L 371.185254 57.332643 
L 368.78869 66.631404 
L 366.392126 60.665536 
L 363.995562 63.681191 
L 361.598998 64.844373 
L 359.202434 59.314835 
L 356.80587 52.958873 
L 354.409306 56.689269 
L 352.012742 55.000116 
L 349.616178 63.006568 
L 347.219613 60.798666 
L 344.823049 60.031539 
L 342.426485 63.845827 
L 340.029921 58.128103 
L 337.633357 55.108231 
L 335.236793 56.418767 
L 332.840229 60.459067 
L 330.443665 62.28589 
L 328.047101 57.661551 
L 325.650537 63.948297 
L 323.253973 64.076315 
L 320.857409 62.032641 
L 318.460845 61.126996 
L 316.064281 57.165738 
L 313.667717 58.878714 
L 311.271152 58.65298 
L 308.874588 61.375178 
L 306.478024 44.443636 
L 304.08146 56.759147 
L 301.684896 55.715282 
L 299.288332 65.342306 
L 296.891768 60.776676 
L 294.495204 63.617774 
L 292.09864 59.389892 
L 289.702076 63.521371 
L 287.305512 61.944066 
L 284.908948 61.555387 
L 282.512384 61.54081 
L 280.11582 56.150304 
L 277.719256 58.138072 
L 275.322691 61.419942 
L 272.926127 66.246707 
L 270.529563 57.321535 
L 268.132999 63.775431 
L 265.736435 68.050962 
L 263.339871 68.766608 
L 260.943307 60.684487 
L 258.546743 65.428546 
L 256.150179 65.908382 
L 253.753615 64.314223 
L 251.357051 62.91695 
L 248.960487 65.043758 
L 246.563923 64.202804 
L 244.167359 66.455782 
L 241.770795 63.038683 
L 239.37423 68.995239 
L 236.977666 70.720779 
L 234.581102 67.442506 
L 232.184538 65.255432 
L 229.787974 64.745424 
L 227.39141 65.441354 
L 224.994846 65.959509 
L 222.598282 60.289417 
L 220.201718 68.448201 
L 217.805154 68.360282 
L 215.40859 68.473991 
L 213.012026 65.626644 
L 210.615462 64.428468 
L 208.218898 67.092877 
L 205.822334 69.588205 
L 203.42577 64.922325 
L 201.029205 59.829407 
L 198.632641 59.583677 
L 196.236077 71.530428 
L 193.839513 68.639393 
L 191.442949 70.457721 
L 189.046385 58.065046 
L 186.649821 70.970658 
L 184.253257 73.905898 
L 181.856693 66.602394 
L 179.460129 73.735951 
L 177.063565 63.191349 
L 174.667001 64.864895 
L 172.270437 70.258652 
L 169.873873 71.739444 
L 167.477309 72.346865 
L 165.080744 73.597245 
L 162.68418 74.96857 
L 160.287616 73.992333 
L 157.891052 73.627213 
L 155.494488 71.428751 
L 153.097924 69.953967 
L 150.70136 71.029876 
L 148.304796 73.912662 
L 145.908232 73.238958 
L 143.511668 76.266013 
L 141.115104 59.308006 
L 138.71854 75.165259 
L 136.321976 72.036688 
L 133.925412 79.179408 
L 131.528848 74.713668 
L 129.132283 76.265744 
L 126.735719 82.078578 
L 124.339155 76.063958 
L 121.942591 81.876773 
L 119.546027 83.014632 
L 117.149463 80.148701 
L 114.752899 82.744803 
L 112.356335 81.487139 
L 109.959771 78.386597 
L 107.563207 74.395438 
L 105.166643 85.62739 
L 102.770079 87.036037 
L 100.373515 86.33684 
L 97.976951 91.380958 
L 95.580387 89.320154 
L 93.183822 72.583728 
L 90.787258 84.593053 
L 88.390694 90.112294 
L 85.99413 85.201454 
L 83.597566 89.541606 
L 81.201002 100.119122 
L 78.804438 105.34289 
L 76.407874 111.166765 
L 74.01131 118.586497 
L 71.614746 124.74934 
L 69.218182 140.964456 
z
" clip-path="url(#pdbca4c48cf)" style="fill: #d62728"/>
   </g>
   <g id="matplotlib.axis_1">
    <g id="xtick_1">
     <g id="line2d_1">
      <defs>
       <path id="m705641032e" d="M 0 0 
L 0 3.5 
" style="stroke: #000000; stroke-width: 0.8"/>
      </defs>
      <g>
       <use xlink:href="#m705641032e" x="69.218182" y="252" style="stroke: #000000; stroke-width: 0.8"/>
      </g>
     </g>
     <g id="text_1">
      <!-- 1 -->
      <g transform="translate(66.036932 266.598437)scale(0.1 -0.1)">
       <defs>
        <path id="DejaVuSans-31" d="M 794 531 
L 1825 531 
L 1825 4091 
L 703 3866 
L 703 4441 
L 1819 4666 
L 2450 4666 
L 2450 531 
L 3481 531 
L 3481 0 
L 794 0 
L 794 531 
z
" transform="scale(0.015625)"/>
       </defs>
       <use xlink:href="#DejaVuSans-31"/>
      </g>
     </g>
    </g>
    <g id="xtick_2">
     <g id="line2d_2">
      <g>
       <use xlink:href="#m705641032e" x="90.787258" y="252" style="stroke: #000000; stroke-width: 0.8"/>
      </g>
     </g>
     <g id="text_2">
      <!-- 19 -->
      <g transform="translate(84.424758 266.598437)scale(0.1 -0.1)">
       <defs>
        <path id="DejaVuSans-39" d="M 703 97 
L 703 672 
Q 941 559 1184 500 
Q 1428 441 1663 441 
Q 2288 441 2617 861 
Q 2947 1281 2994 2138 
Q 2813 1869 2534 1725 
Q 2256 1581 1919 1581 
Q 1219 1581 811 2004 
Q 403 2428 403 3163 
Q 403 3881 828 4315 
Q 1253 4750 1959 4750 
Q 2769 4750 3195 4129 
Q 3622 3509 3622 2328 
Q 3622 1225 3098 567 
Q 2575 -91 1691 -91 
Q 1453 -91 1209 -44 
Q 966 3 703 97 
z
M 1959 2075 
Q 2384 2075 2632 2365 
Q 2881 2656 2881 3163 
Q 2881 3666 2632 3958 
Q 2384 4250 1959 4250 
Q 1534 4250 1286 3958 
Q 1038 3666 1038 3163 
Q 1038 2656 1286 2365 
Q 1534 2075 1959 2075 
z
" transform="scale(0.015625)"/>
       </defs>
       <use xlink:href="#DejaVuSans-31"/>
       <use xlink:href="#DejaVuSans-39" x="63.623047"/>
      </g>
     </g>
    </g>
    <g id="xtick_3">
     <g id="line2d_3">
      <g>
       <use xlink:href="#m705641032e" x="112.356335" y="252" style="stroke: #000000; stroke-width: 0.8"/>
      </g>
     </g>
     <g id="text_3">
      <!-- 37 -->
      <g transform="translate(105.993835 266.598437)scale(0.1 -0.1)">
       <defs>
        <path id="DejaVuSans-33" d="M 2597 2516 
Q 3050 2419 3304 2112 
Q 3559 1806 3559 1356 
Q 3559 666 3084 287 
Q 2609 -91 1734 -91 
Q 1441 -91 1130 -33 
Q 819 25 488 141 
L 488 750 
Q 750 597 1062 519 
Q 1375 441 1716 441 
Q 2309 441 2620 675 
Q 2931 909 2931 1356 
Q 2931 1769 2642 2001 
Q 2353 2234 1838 2234 
L 1294 2234 
L 1294 2753 
L 1863 2753 
Q 2328 2753 2575 2939 
Q 2822 3125 2822 3475 
Q 2822 3834 2567 4026 
Q 2313 4219 1838 4219 
Q 1578 4219 1281 4162 
Q 984 4106 628 3988 
L 628 4550 
Q 988 4650 1302 4700 
Q 1616 4750 1894 4750 
Q 2613 4750 3031 4423 
Q 3450 4097 3450 3541 
Q 3450 3153 3228 2886 
Q 3006 2619 2597 2516 
z
" transform="scale(0.015625)"/>
        <path id="DejaVuSans-37" d="M 525 4666 
L 3525 4666 
L 3525 4397 
L 1831 0 
L 1172 0 
L 2766 4134 
L 525 4134 
L 525 4666 
z
" transform="scale(0.015625)"/>
       </defs>
       <use xlink:href="#DejaVuSans-33"/>
       <use xlink:href="#DejaVuSans-37" x="63.623047"/>
      </g>
     </g>
    </g>
    <g id="xtick_4">
     <g id="line2d_4">
      <g>
       <use xlink:href="#m705641032e" x="133.925412" y="252" style="stroke: #000000; stroke-width: 0.8"/>
      </g>
     </g>
     <g id="text_4">
      <!-- 55 -->
      <g transform="translate(127.562912 266.598437)scale(0.1 -0.1)">
       <defs>
        <path id="DejaVuSans-35" d="M 691 4666 
L 3169 4666 
L 3169 4134 
L 1269 4134 
L 1269 2991 
Q 1406 3038 1543 3061 
Q 1681 3084 1819 3084 
Q 2600 3084 3056 2656 
Q 3513 2228 3513 1497 
Q 3513 744 3044 326 
Q 2575 -91 1722 -91 
Q 1428 -91 1123 -41 
Q 819 9 494 109 
L 494 744 
Q 775 591 1075 516 
Q 1375 441 1709 441 
Q 2250 441 2565 725 
Q 2881 1009 2881 1497 
Q 2881 1984 2565 2268 
Q 2250 2553 1709 2553 
Q 1456 2553 1204 2497 
Q 953 2441 691 2322 
L 691 4666 
z
" transform="scale(0.015625)"/>
       </defs>
       <use xlink:href="#DejaVuSans-35"/>
       <use xlink:href="#DejaVuSans-35" x="63.623047"/>
      </g>
     </g>
    </g>
    <g id="xtick_5">
     <g id="line2d_5">
      <g>
       <use xlink:href="#m705641032e" x="155.494488" y="252" style="stroke: #000000; stroke-width: 0.8"/>
      </g>
     </g>
     <g id="text_5">
      <!-- 73 -->
      <g transform="translate(149.131988 266.598437)scale(0.1 -0.1)">
       <use xlink:href="#DejaVuSans-37"/>
       <use xlink:href="#DejaVuSans-33" x="63.623047"/>
      </g>
     </g>
    </g>
    <g id="xtick_6">
     <g id="line2d_6">
      <g>
       <use xlink:href="#m705641032e" x="177.063565" y="252" style="stroke: #000000; stroke-width: 0.8"/>
      </g>
     </g>
     <g id="text_6">
      <!-- 91 -->
      <g transform="translate(170.701065 266.598437)scale(0.1 -0.1)">
       <use xlink:href="#DejaVuSans-39"/>
       <use xlink:href="#DejaVuSans-31" x="63.623047"/>
      </g>
     </g>
    </g>
    <g id="xtick_7">
     <g id="line2d_7">
      <g>
       <use xlink:href="#m705641032e" x="198.632641" y="252" style="stroke: #000000; stroke-width: 0.8"/>
      </g>
     </g>
     <g id="text_7">
      <!-- 109 -->
      <g transform="translate(189.088891 266.598437)scale(0.1 -0.1)">
       <defs>
        <path id="DejaVuSans-30" d="M 2034 4250 
Q 1547 4250 1301 3770 
Q 1056 3291 1056 2328 
Q 1056 1369 1301 889 
Q 1547 409 2034 409 
Q 2525 409 2770 889 
Q 3016 1369 3016 2328 
Q 3016 3291 2770 3770 
Q 2525 4250 2034 4250 
z
M 2034 4750 
Q 2819 4750 3233 4129 
Q 3647 3509 3647 2328 
Q 3647 1150 3233 529 
Q 2819 -91 2034 -91 
Q 1250 -91 836 529 
Q 422 1150 422 2328 
Q 422 3509 836 4129 
Q 1250 4750 2034 4750 
z
" transform="scale(0.015625)"/>
       </defs>
       <use xlink:href="#DejaVuSans-31"/>
       <use xlink:href="#DejaVuSans-30" x="63.623047"/>
       <use xlink:href="#DejaVuSans-39" x="127.246094"/>
      </g>
     </g>
    </g>
    <g id="xtick_8">
     <g id="line2d_8">
      <g>
       <use xlink:href="#m705641032e" x="220.201718" y="252" style="stroke: #000000; stroke-width: 0.8"/>
      </g>
     </g>
     <g id="text_8">
      <!-- 127 -->
      <g transform="translate(210.657968 266.598437)scale(0.1 -0.1)">
       <defs>
        <path id="DejaVuSans-32" d="M 1228 531 
L 3431 531 
L 3431 0 
L 469 0 
L 469 531 
Q 828 903 1448 1529 
Q 2069 2156 2228 2338 
Q 2531 2678 2651 2914 
Q 2772 3150 2772 3378 
Q 2772 3750 2511 3984 
Q 2250 4219 1831 4219 
Q 1534 4219 1204 4116 
Q 875 4013 500 3803 
L 500 4441 
Q 881 4594 1212 4672 
Q 1544 4750 1819 4750 
Q 2544 4750 2975 4387 
Q 3406 4025 3406 3419 
Q 3406 3131 3298 2873 
Q 3191 2616 2906 2266 
Q 2828 2175 2409 1742 
Q 1991 1309 1228 531 
z
" transform="scale(0.015625)"/>
       </defs>
       <use xlink:href="#DejaVuSans-31"/>
       <use xlink:href="#DejaVuSans-32" x="63.623047"/>
       <use xlink:href="#DejaVuSans-37" x="127.246094"/>
      </g>
     </g>
    </g>
    <g id="xtick_9">
     <g id="line2d_9">
      <g>
       <use xlink:href="#m705641032e" x="241.770795" y="252" style="stroke: #000000; stroke-width: 0.8"/>
      </g>
     </g>
     <g id="text_9">
      <!-- 145 -->
      <g transform="translate(232.227045 266.598437)scale(0.1 -0.1)">
       <defs>
        <path id="DejaVuSans-34" d="M 2419 4116 
L 825 1625 
L 2419 1625 
L 2419 4116 
z
M 2253 4666 
L 3047 4666 
L 3047 1625 
L 3713 1625 
L 3713 1100 
L 3047 1100 
L 3047 0 
L 2419 0 
L 2419 1100 
L 313 1100 
L 313 1709 
L 2253 4666 
z
" transform="scale(0.015625)"/>
       </defs>
       <use xlink:href="#DejaVuSans-31"/>
       <use xlink:href="#DejaVuSans-34" x="63.623047"/>
       <use xlink:href="#DejaVuSans-35" x="127.246094"/>
      </g>
     </g>
    </g>
    <g id="xtick_10">
     <g id="line2d_10">
      <g>
       <use xlink:href="#m705641032e" x="263.339871" y="252" style="stroke: #000000; stroke-width: 0.8"/>
      </g>
     </g>
     <g id="text_10">
      <!-- 163 -->
      <g transform="translate(253.796121 266.598437)scale(0.1 -0.1)">
       <defs>
        <path id="DejaVuSans-36" d="M 2113 2584 
Q 1688 2584 1439 2293 
Q 1191 2003 1191 1497 
Q 1191 994 1439 701 
Q 1688 409 2113 409 
Q 2538 409 2786 701 
Q 3034 994 3034 1497 
Q 3034 2003 2786 2293 
Q 2538 2584 2113 2584 
z
M 3366 4563 
L 3366 3988 
Q 3128 4100 2886 4159 
Q 2644 4219 2406 4219 
Q 1781 4219 1451 3797 
Q 1122 3375 1075 2522 
Q 1259 2794 1537 2939 
Q 1816 3084 2150 3084 
Q 2853 3084 3261 2657 
Q 3669 2231 3669 1497 
Q 3669 778 3244 343 
Q 2819 -91 2113 -91 
Q 1303 -91 875 529 
Q 447 1150 447 2328 
Q 447 3434 972 4092 
Q 1497 4750 2381 4750 
Q 2619 4750 2861 4703 
Q 3103 4656 3366 4563 
z
" transform="scale(0.015625)"/>
       </defs>
       <use xlink:href="#DejaVuSans-31"/>
       <use xlink:href="#DejaVuSans-36" x="63.623047"/>
       <use xlink:href="#DejaVuSans-33" x="127.246094"/>
      </g>
     </g>
    </g>
    <g id="xtick_11">
     <g id="line2d_11">
      <g>
       <use xlink:href="#m705641032e" x="284.908948" y="252" style="stroke: #000000; stroke-width: 0.8"/>
      </g>
     </g>
     <g id="text_11">
      <!-- 181 -->
      <g transform="translate(275.365198 266.598437)scale(0.1 -0.1)">
       <defs>
        <path id="DejaVuSans-38" d="M 2034 2216 
Q 1584 2216 1326 1975 
Q 1069 1734 1069 1313 
Q 1069 891 1326 650 
Q 1584 409 2034 409 
Q 2484 409 2743 651 
Q 3003 894 3003 1313 
Q 3003 1734 2745 1975 
Q 2488 2216 2034 2216 
z
M 1403 2484 
Q 997 2584 770 2862 
Q 544 3141 544 3541 
Q 544 4100 942 4425 
Q 1341 4750 2034 4750 
Q 2731 4750 3128 4425 
Q 3525 4100 3525 3541 
Q 3525 3141 3298 2862 
Q 3072 2584 2669 2484 
Q 3125 2378 3379 2068 
Q 3634 1759 3634 1313 
Q 3634 634 3220 271 
Q 2806 -91 2034 -91 
Q 1263 -91 848 271 
Q 434 634 434 1313 
Q 434 1759 690 2068 
Q 947 2378 1403 2484 
z
M 1172 3481 
Q 1172 3119 1398 2916 
Q 1625 2713 2034 2713 
Q 2441 2713 2670 2916 
Q 2900 3119 2900 3481 
Q 2900 3844 2670 4047 
Q 2441 4250 2034 4250 
Q 1625 4250 1398 4047 
Q 1172 3844 1172 3481 
z
" transform="scale(0.015625)"/>
       </defs>
       <use xlink:href="#DejaVuSans-31"/>
       <use xlink:href="#DejaVuSans-38" x="63.623047"/>
       <use xlink:href="#DejaVuSans-31" x="127.246094"/>
      </g>
     </g>
    </g>
    <g id="xtick_12">
     <g id="line2d_12">
      <g>
       <use xlink:href="#m705641032e" x="306.478024" y="252" style="stroke: #000000; stroke-width: 0.8"/>
      </g>
     </g>
     <g id="text_12">
      <!-- 199 -->
      <g transform="translate(296.934274 266.598437)scale(0.1 -0.1)">
       <use xlink:href="#DejaVuSans-31"/>
       <use xlink:href="#DejaVuSans-39" x="63.623047"/>
       <use xlink:href="#DejaVuSans-39" x="127.246094"/>
      </g>
     </g>
    </g>
    <g id="xtick_13">
     <g id="line2d_13">
      <g>
       <use xlink:href="#m705641032e" x="328.047101" y="252" style="stroke: #000000; stroke-width: 0.8"/>
      </g>
     </g>
     <g id="text_13">
      <!-- 217 -->
      <g transform="translate(318.503351 266.598437)scale(0.1 -0.1)">
       <use xlink:href="#DejaVuSans-32"/>
       <use xlink:href="#DejaVuSans-31" x="63.623047"/>
       <use xlink:href="#DejaVuSans-37" x="127.246094"/>
      </g>
     </g>
    </g>
    <g id="xtick_14">
     <g id="line2d_14">
      <g>
       <use xlink:href="#m705641032e" x="349.616178" y="252" style="stroke: #000000; stroke-width: 0.8"/>
      </g>
     </g>
     <g id="text_14">
      <!-- 235 -->
      <g transform="translate(340.072428 266.598437)scale(0.1 -0.1)">
       <use xlink:href="#DejaVuSans-32"/>
       <use xlink:href="#DejaVuSans-33" x="63.623047"/>
       <use xlink:href="#DejaVuSans-35" x="127.246094"/>
      </g>
     </g>
    </g>
    <g id="xtick_15">
     <g id="line2d_15">
      <g>
       <use xlink:href="#m705641032e" x="371.185254" y="252" style="stroke: #000000; stroke-width: 0.8"/>
      </g>
     </g>
     <g id="text_15">
      <!-- 253 -->
      <g transform="translate(361.641504 266.598437)scale(0.1 -0.1)">
       <use xlink:href="#DejaVuSans-32"/>
       <use xlink:href="#DejaVuSans-35" x="63.623047"/>
       <use xlink:href="#DejaVuSans-33" x="127.246094"/>
      </g>
     </g>
    </g>
    <g id="text_16">
     <!-- Program size -->
     <g transform="translate(189.022656 280.276563)scale(0.1 -0.1)">
      <defs>
       <path id="DejaVuSans-50" d="M 1259 4147 
L 1259 2394 
L 2053 2394 
Q 2494 2394 2734 2622 
Q 2975 2850 2975 3272 
Q 2975 3691 2734 3919 
Q 2494 4147 2053 4147 
L 1259 4147 
z
M 628 4666 
L 2053 4666 
Q 2838 4666 3239 4311 
Q 3641 3956 3641 3272 
Q 3641 2581 3239 2228 
Q 2838 1875 2053 1875 
L 1259 1875 
L 1259 0 
L 628 0 
L 628 4666 
z
" transform="scale(0.015625)"/>
       <path id="DejaVuSans-72" d="M 2631 2963 
Q 2534 3019 2420 3045 
Q 2306 3072 2169 3072 
Q 1681 3072 1420 2755 
Q 1159 2438 1159 1844 
L 1159 0 
L 581 0 
L 581 3500 
L 1159 3500 
L 1159 2956 
Q 1341 3275 1631 3429 
Q 1922 3584 2338 3584 
Q 2397 3584 2469 3576 
Q 2541 3569 2628 3553 
L 2631 2963 
z
" transform="scale(0.015625)"/>
       <path id="DejaVuSans-6f" d="M 1959 3097 
Q 1497 3097 1228 2736 
Q 959 2375 959 1747 
Q 959 1119 1226 758 
Q 1494 397 1959 397 
Q 2419 397 2687 759 
Q 2956 1122 2956 1747 
Q 2956 2369 2687 2733 
Q 2419 3097 1959 3097 
z
M 1959 3584 
Q 2709 3584 3137 3096 
Q 3566 2609 3566 1747 
Q 3566 888 3137 398 
Q 2709 -91 1959 -91 
Q 1206 -91 779 398 
Q 353 888 353 1747 
Q 353 2609 779 3096 
Q 1206 3584 1959 3584 
z
" transform="scale(0.015625)"/>
       <path id="DejaVuSans-67" d="M 2906 1791 
Q 2906 2416 2648 2759 
Q 2391 3103 1925 3103 
Q 1463 3103 1205 2759 
Q 947 2416 947 1791 
Q 947 1169 1205 825 
Q 1463 481 1925 481 
Q 2391 481 2648 825 
Q 2906 1169 2906 1791 
z
M 3481 434 
Q 3481 -459 3084 -895 
Q 2688 -1331 1869 -1331 
Q 1566 -1331 1297 -1286 
Q 1028 -1241 775 -1147 
L 775 -588 
Q 1028 -725 1275 -790 
Q 1522 -856 1778 -856 
Q 2344 -856 2625 -561 
Q 2906 -266 2906 331 
L 2906 616 
Q 2728 306 2450 153 
Q 2172 0 1784 0 
Q 1141 0 747 490 
Q 353 981 353 1791 
Q 353 2603 747 3093 
Q 1141 3584 1784 3584 
Q 2172 3584 2450 3431 
Q 2728 3278 2906 2969 
L 2906 3500 
L 3481 3500 
L 3481 434 
z
" transform="scale(0.015625)"/>
       <path id="DejaVuSans-61" d="M 2194 1759 
Q 1497 1759 1228 1600 
Q 959 1441 959 1056 
Q 959 750 1161 570 
Q 1363 391 1709 391 
Q 2188 391 2477 730 
Q 2766 1069 2766 1631 
L 2766 1759 
L 2194 1759 
z
M 3341 1997 
L 3341 0 
L 2766 0 
L 2766 531 
Q 2569 213 2275 61 
Q 1981 -91 1556 -91 
Q 1019 -91 701 211 
Q 384 513 384 1019 
Q 384 1609 779 1909 
Q 1175 2209 1959 2209 
L 2766 2209 
L 2766 2266 
Q 2766 2663 2505 2880 
Q 2244 3097 1772 3097 
Q 1472 3097 1187 3025 
Q 903 2953 641 2809 
L 641 3341 
Q 956 3463 1253 3523 
Q 1550 3584 1831 3584 
Q 2591 3584 2966 3190 
Q 3341 2797 3341 1997 
z
" transform="scale(0.015625)"/>
       <path id="DejaVuSans-6d" d="M 3328 2828 
Q 3544 3216 3844 3400 
Q 4144 3584 4550 3584 
Q 5097 3584 5394 3201 
Q 5691 2819 5691 2113 
L 5691 0 
L 5113 0 
L 5113 2094 
Q 5113 2597 4934 2840 
Q 4756 3084 4391 3084 
Q 3944 3084 3684 2787 
Q 3425 2491 3425 1978 
L 3425 0 
L 2847 0 
L 2847 2094 
Q 2847 2600 2669 2842 
Q 2491 3084 2119 3084 
Q 1678 3084 1418 2786 
Q 1159 2488 1159 1978 
L 1159 0 
L 581 0 
L 581 3500 
L 1159 3500 
L 1159 2956 
Q 1356 3278 1631 3431 
Q 1906 3584 2284 3584 
Q 2666 3584 2933 3390 
Q 3200 3197 3328 2828 
z
" transform="scale(0.015625)"/>
       <path id="DejaVuSans-20" transform="scale(0.015625)"/>
       <path id="DejaVuSans-73" d="M 2834 3397 
L 2834 2853 
Q 2591 2978 2328 3040 
Q 2066 3103 1784 3103 
Q 1356 3103 1142 2972 
Q 928 2841 928 2578 
Q 928 2378 1081 2264 
Q 1234 2150 1697 2047 
L 1894 2003 
Q 2506 1872 2764 1633 
Q 3022 1394 3022 966 
Q 3022 478 2636 193 
Q 2250 -91 1575 -91 
Q 1294 -91 989 -36 
Q 684 19 347 128 
L 347 722 
Q 666 556 975 473 
Q 1284 391 1588 391 
Q 1994 391 2212 530 
Q 2431 669 2431 922 
Q 2431 1156 2273 1281 
Q 2116 1406 1581 1522 
L 1381 1569 
Q 847 1681 609 1914 
Q 372 2147 372 2553 
Q 372 3047 722 3315 
Q 1072 3584 1716 3584 
Q 2034 3584 2315 3537 
Q 2597 3491 2834 3397 
z
" transform="scale(0.015625)"/>
       <path id="DejaVuSans-69" d="M 603 3500 
L 1178 3500 
L 1178 0 
L 603 0 
L 603 3500 
z
M 603 4863 
L 1178 4863 
L 1178 4134 
L 603 4134 
L 603 4863 
z
" transform="scale(0.015625)"/>
       <path id="DejaVuSans-7a" d="M 353 3500 
L 3084 3500 
L 3084 2975 
L 922 459 
L 3084 459 
L 3084 0 
L 275 0 
L 275 525 
L 2438 3041 
L 353 3041 
L 353 3500 
z
" transform="scale(0.015625)"/>
       <path id="DejaVuSans-65" d="M 3597 1894 
L 3597 1613 
L 953 1613 
Q 991 1019 1311 708 
Q 1631 397 2203 397 
Q 2534 397 2845 478 
Q 3156 559 3463 722 
L 3463 178 
Q 3153 47 2828 -22 
Q 2503 -91 2169 -91 
Q 1331 -91 842 396 
Q 353 884 353 1716 
Q 353 2575 817 3079 
Q 1281 3584 2069 3584 
Q 2775 3584 3186 3129 
Q 3597 2675 3597 1894 
z
M 3022 2063 
Q 3016 2534 2758 2815 
Q 2500 3097 2075 3097 
Q 1594 3097 1305 2825 
Q 1016 2553 972 2059 
L 3022 2063 
z
" transform="scale(0.015625)"/>
      </defs>
      <use xlink:href="#DejaVuSans-50"/>
      <use xlink:href="#DejaVuSans-72" x="58.552734"/>
      <use xlink:href="#DejaVuSans-6f" x="97.416016"/>
      <use xlink:href="#DejaVuSans-67" x="158.597656"/>
      <use xlink:href="#DejaVuSans-72" x="222.074219"/>
      <use xlink:href="#DejaVuSans-61" x="263.1875"/>
      <use xlink:href="#DejaVuSans-6d" x="324.466797"/>
      <use xlink:href="#DejaVuSans-20" x="421.878906"/>
      <use xlink:href="#DejaVuSans-73" x="453.666016"/>
      <use xlink:href="#DejaVuSans-69" x="505.765625"/>
      <use xlink:href="#DejaVuSans-7a" x="533.548828"/>
      <use xlink:href="#DejaVuSans-65" x="586.039062"/>
     </g>
    </g>
   </g>
   <g id="matplotlib.axis_2">
    <g id="ytick_1">
     <g id="line2d_16">
      <defs>
       <path id="m82b2896be4" d="M 0 0 
L -3.5 0 
" style="stroke: #000000; stroke-width: 0.8"/>
      </defs>
      <g>
       <use xlink:href="#m82b2896be4" x="54" y="236.327334" style="stroke: #000000; stroke-width: 0.8"/>
      </g>
     </g>
     <g id="text_17">
      <!-- $\mathdefault{10^{5}}$ -->
      <g transform="translate(29.4 240.126553)scale(0.1 -0.1)">
       <use xlink:href="#DejaVuSans-31" transform="translate(0 0.684375)"/>
       <use xlink:href="#DejaVuSans-30" transform="translate(63.623047 0.684375)"/>
       <use xlink:href="#DejaVuSans-35" transform="translate(128.203125 38.965625)scale(0.7)"/>
      </g>
     </g>
    </g>
    <g id="ytick_2">
     <g id="line2d_17">
      <g>
       <use xlink:href="#m82b2896be4" x="54" y="193.397737" style="stroke: #000000; stroke-width: 0.8"/>
      </g>
     </g>
     <g id="text_18">
      <!-- $\mathdefault{10^{6}}$ -->
      <g transform="translate(29.4 197.196955)scale(0.1 -0.1)">
       <use xlink:href="#DejaVuSans-31" transform="translate(0 0.765625)"/>
       <use xlink:href="#DejaVuSans-30" transform="translate(63.623047 0.765625)"/>
       <use xlink:href="#DejaVuSans-36" transform="translate(128.203125 39.046875)scale(0.7)"/>
      </g>
     </g>
    </g>
    <g id="ytick_3">
     <g id="line2d_18">
      <g>
       <use xlink:href="#m82b2896be4" x="54" y="150.468139" style="stroke: #000000; stroke-width: 0.8"/>
      </g>
     </g>
     <g id="text_19">
      <!-- $\mathdefault{10^{7}}$ -->
      <g transform="translate(29.4 154.267358)scale(0.1 -0.1)">
       <use xlink:href="#DejaVuSans-31" transform="translate(0 0.684375)"/>
       <use xlink:href="#DejaVuSans-30" transform="translate(63.623047 0.684375)"/>
       <use xlink:href="#DejaVuSans-37" transform="translate(128.203125 38.965625)scale(0.7)"/>
      </g>
     </g>
    </g>
    <g id="ytick_4">
     <g id="line2d_19">
      <g>
       <use xlink:href="#m82b2896be4" x="54" y="107.538541" style="stroke: #000000; stroke-width: 0.8"/>
      </g>
     </g>
     <g id="text_20">
      <!-- $\mathdefault{10^{8}}$ -->
      <g transform="translate(29.4 111.33776)scale(0.1 -0.1)">
       <use xlink:href="#DejaVuSans-31" transform="translate(0 0.765625)"/>
       <use xlink:href="#DejaVuSans-30" transform="translate(63.623047 0.765625)"/>
       <use xlink:href="#DejaVuSans-38" transform="translate(128.203125 39.046875)scale(0.7)"/>
      </g>
     </g>
    </g>
    <g id="ytick_5">
     <g id="line2d_20">
      <g>
       <use xlink:href="#m82b2896be4" x="54" y="64.608943" style="stroke: #000000; stroke-width: 0.8"/>
      </g>
     </g>
     <g id="text_21">
      <!-- $\mathdefault{10^{9}}$ -->
      <g transform="translate(29.4 68.408162)scale(0.1 -0.1)">
       <use xlink:href="#DejaVuSans-31" transform="translate(0 0.765625)"/>
       <use xlink:href="#DejaVuSans-30" transform="translate(63.623047 0.765625)"/>
       <use xlink:href="#DejaVuSans-39" transform="translate(128.203125 39.046875)scale(0.7)"/>
      </g>
     </g>
    </g>
    <g id="ytick_6">
     <g id="line2d_21">
      <defs>
       <path id="mddfe754780" d="M 0 0 
L -2 0 
" style="stroke: #000000; stroke-width: 0.6"/>
      </defs>
      <g>
       <use xlink:href="#mddfe754780" x="54" y="249.250431" style="stroke: #000000; stroke-width: 0.6"/>
      </g>
     </g>
    </g>
    <g id="ytick_7">
     <g id="line2d_22">
      <g>
       <use xlink:href="#mddfe754780" x="54" y="245.851212" style="stroke: #000000; stroke-width: 0.6"/>
      </g>
     </g>
    </g>
    <g id="ytick_8">
     <g id="line2d_23">
      <g>
       <use xlink:href="#mddfe754780" x="54" y="242.977213" style="stroke: #000000; stroke-width: 0.6"/>
      </g>
     </g>
    </g>
    <g id="ytick_9">
     <g id="line2d_24">
      <g>
       <use xlink:href="#mddfe754780" x="54" y="240.487642" style="stroke: #000000; stroke-width: 0.6"/>
      </g>
     </g>
    </g>
    <g id="ytick_10">
     <g id="line2d_25">
      <g>
       <use xlink:href="#mddfe754780" x="54" y="238.291685" style="stroke: #000000; stroke-width: 0.6"/>
      </g>
     </g>
    </g>
    <g id="ytick_11">
     <g id="line2d_26">
      <g>
       <use xlink:href="#mddfe754780" x="54" y="223.404238" style="stroke: #000000; stroke-width: 0.6"/>
      </g>
     </g>
    </g>
    <g id="ytick_12">
     <g id="line2d_27">
      <g>
       <use xlink:href="#mddfe754780" x="54" y="215.844711" style="stroke: #000000; stroke-width: 0.6"/>
      </g>
     </g>
    </g>
    <g id="ytick_13">
     <g id="line2d_28">
      <g>
       <use xlink:href="#mddfe754780" x="54" y="210.481141" style="stroke: #000000; stroke-width: 0.6"/>
      </g>
     </g>
    </g>
    <g id="ytick_14">
     <g id="line2d_29">
      <g>
       <use xlink:href="#mddfe754780" x="54" y="206.320833" style="stroke: #000000; stroke-width: 0.6"/>
      </g>
     </g>
    </g>
    <g id="ytick_15">
     <g id="line2d_30">
      <g>
       <use xlink:href="#mddfe754780" x="54" y="202.921614" style="stroke: #000000; stroke-width: 0.6"/>
      </g>
     </g>
    </g>
    <g id="ytick_16">
     <g id="line2d_31">
      <g>
       <use xlink:href="#mddfe754780" x="54" y="200.047616" style="stroke: #000000; stroke-width: 0.6"/>
      </g>
     </g>
    </g>
    <g id="ytick_17">
     <g id="line2d_32">
      <g>
       <use xlink:href="#mddfe754780" x="54" y="197.558045" style="stroke: #000000; stroke-width: 0.6"/>
      </g>
     </g>
    </g>
    <g id="ytick_18">
     <g id="line2d_33">
      <g>
       <use xlink:href="#mddfe754780" x="54" y="195.362087" style="stroke: #000000; stroke-width: 0.6"/>
      </g>
     </g>
    </g>
    <g id="ytick_19">
     <g id="line2d_34">
      <g>
       <use xlink:href="#mddfe754780" x="54" y="180.47464" style="stroke: #000000; stroke-width: 0.6"/>
      </g>
     </g>
    </g>
    <g id="ytick_20">
     <g id="line2d_35">
      <g>
       <use xlink:href="#mddfe754780" x="54" y="172.915113" style="stroke: #000000; stroke-width: 0.6"/>
      </g>
     </g>
    </g>
    <g id="ytick_21">
     <g id="line2d_36">
      <g>
       <use xlink:href="#mddfe754780" x="54" y="167.551543" style="stroke: #000000; stroke-width: 0.6"/>
      </g>
     </g>
    </g>
    <g id="ytick_22">
     <g id="line2d_37">
      <g>
       <use xlink:href="#mddfe754780" x="54" y="163.391236" style="stroke: #000000; stroke-width: 0.6"/>
      </g>
     </g>
    </g>
    <g id="ytick_23">
     <g id="line2d_38">
      <g>
       <use xlink:href="#mddfe754780" x="54" y="159.992017" style="stroke: #000000; stroke-width: 0.6"/>
      </g>
     </g>
    </g>
    <g id="ytick_24">
     <g id="line2d_39">
      <g>
       <use xlink:href="#mddfe754780" x="54" y="157.118018" style="stroke: #000000; stroke-width: 0.6"/>
      </g>
     </g>
    </g>
    <g id="ytick_25">
     <g id="line2d_40">
      <g>
       <use xlink:href="#mddfe754780" x="54" y="154.628447" style="stroke: #000000; stroke-width: 0.6"/>
      </g>
     </g>
    </g>
    <g id="ytick_26">
     <g id="line2d_41">
      <g>
       <use xlink:href="#mddfe754780" x="54" y="152.43249" style="stroke: #000000; stroke-width: 0.6"/>
      </g>
     </g>
    </g>
    <g id="ytick_27">
     <g id="line2d_42">
      <g>
       <use xlink:href="#mddfe754780" x="54" y="137.545042" style="stroke: #000000; stroke-width: 0.6"/>
      </g>
     </g>
    </g>
    <g id="ytick_28">
     <g id="line2d_43">
      <g>
       <use xlink:href="#mddfe754780" x="54" y="129.985515" style="stroke: #000000; stroke-width: 0.6"/>
      </g>
     </g>
    </g>
    <g id="ytick_29">
     <g id="line2d_44">
      <g>
       <use xlink:href="#mddfe754780" x="54" y="124.621946" style="stroke: #000000; stroke-width: 0.6"/>
      </g>
     </g>
    </g>
    <g id="ytick_30">
     <g id="line2d_45">
      <g>
       <use xlink:href="#mddfe754780" x="54" y="120.461638" style="stroke: #000000; stroke-width: 0.6"/>
      </g>
     </g>
    </g>
    <g id="ytick_31">
     <g id="line2d_46">
      <g>
       <use xlink:href="#mddfe754780" x="54" y="117.062419" style="stroke: #000000; stroke-width: 0.6"/>
      </g>
     </g>
    </g>
    <g id="ytick_32">
     <g id="line2d_47">
      <g>
       <use xlink:href="#mddfe754780" x="54" y="114.18842" style="stroke: #000000; stroke-width: 0.6"/>
      </g>
     </g>
    </g>
    <g id="ytick_33">
     <g id="line2d_48">
      <g>
       <use xlink:href="#mddfe754780" x="54" y="111.698849" style="stroke: #000000; stroke-width: 0.6"/>
      </g>
     </g>
    </g>
    <g id="ytick_34">
     <g id="line2d_49">
      <g>
       <use xlink:href="#mddfe754780" x="54" y="109.502892" style="stroke: #000000; stroke-width: 0.6"/>
      </g>
     </g>
    </g>
    <g id="ytick_35">
     <g id="line2d_50">
      <g>
       <use xlink:href="#mddfe754780" x="54" y="94.615445" style="stroke: #000000; stroke-width: 0.6"/>
      </g>
     </g>
    </g>
    <g id="ytick_36">
     <g id="line2d_51">
      <g>
       <use xlink:href="#mddfe754780" x="54" y="87.055918" style="stroke: #000000; stroke-width: 0.6"/>
      </g>
     </g>
    </g>
    <g id="ytick_37">
     <g id="line2d_52">
      <g>
       <use xlink:href="#mddfe754780" x="54" y="81.692348" style="stroke: #000000; stroke-width: 0.6"/>
      </g>
     </g>
    </g>
    <g id="ytick_38">
     <g id="line2d_53">
      <g>
       <use xlink:href="#mddfe754780" x="54" y="77.53204" style="stroke: #000000; stroke-width: 0.6"/>
      </g>
     </g>
    </g>
    <g id="ytick_39">
     <g id="line2d_54">
      <g>
       <use xlink:href="#mddfe754780" x="54" y="74.132821" style="stroke: #000000; stroke-width: 0.6"/>
      </g>
     </g>
    </g>
    <g id="ytick_40">
     <g id="line2d_55">
      <g>
       <use xlink:href="#mddfe754780" x="54" y="71.258822" style="stroke: #000000; stroke-width: 0.6"/>
      </g>
     </g>
    </g>
    <g id="ytick_41">
     <g id="line2d_56">
      <g>
       <use xlink:href="#mddfe754780" x="54" y="68.769251" style="stroke: #000000; stroke-width: 0.6"/>
      </g>
     </g>
    </g>
    <g id="ytick_42">
     <g id="line2d_57">
      <g>
       <use xlink:href="#mddfe754780" x="54" y="66.573294" style="stroke: #000000; stroke-width: 0.6"/>
      </g>
     </g>
    </g>
    <g id="ytick_43">
     <g id="line2d_58">
      <g>
       <use xlink:href="#mddfe754780" x="54" y="51.685847" style="stroke: #000000; stroke-width: 0.6"/>
      </g>
     </g>
    </g>
    <g id="ytick_44">
     <g id="line2d_59">
      <g>
       <use xlink:href="#mddfe754780" x="54" y="44.12632" style="stroke: #000000; stroke-width: 0.6"/>
      </g>
     </g>
    </g>
    <g id="ytick_45">
     <g id="line2d_60">
      <g>
       <use xlink:href="#mddfe754780" x="54" y="38.76275" style="stroke: #000000; stroke-width: 0.6"/>
      </g>
     </g>
    </g>
    <g id="ytick_46">
     <g id="line2d_61">
      <g>
       <use xlink:href="#mddfe754780" x="54" y="34.602442" style="stroke: #000000; stroke-width: 0.6"/>
      </g>
     </g>
    </g>
    <g id="text_22">
     <!-- Median NEPS -->
     <g transform="translate(23.320312 176.144844)rotate(-90)scale(0.1 -0.1)">
      <defs>
       <path id="DejaVuSans-4d" d="M 628 4666 
L 1569 4666 
L 2759 1491 
L 3956 4666 
L 4897 4666 
L 4897 0 
L 4281 0 
L 4281 4097 
L 3078 897 
L 2444 897 
L 1241 4097 
L 1241 0 
L 628 0 
L 628 4666 
z
" transform="scale(0.015625)"/>
       <path id="DejaVuSans-64" d="M 2906 2969 
L 2906 4863 
L 3481 4863 
L 3481 0 
L 2906 0 
L 2906 525 
Q 2725 213 2448 61 
Q 2172 -91 1784 -91 
Q 1150 -91 751 415 
Q 353 922 353 1747 
Q 353 2572 751 3078 
Q 1150 3584 1784 3584 
Q 2172 3584 2448 3432 
Q 2725 3281 2906 2969 
z
M 947 1747 
Q 947 1113 1208 752 
Q 1469 391 1925 391 
Q 2381 391 2643 752 
Q 2906 1113 2906 1747 
Q 2906 2381 2643 2742 
Q 2381 3103 1925 3103 
Q 1469 3103 1208 2742 
Q 947 2381 947 1747 
z
" transform="scale(0.015625)"/>
       <path id="DejaVuSans-6e" d="M 3513 2113 
L 3513 0 
L 2938 0 
L 2938 2094 
Q 2938 2591 2744 2837 
Q 2550 3084 2163 3084 
Q 1697 3084 1428 2787 
Q 1159 2491 1159 1978 
L 1159 0 
L 581 0 
L 581 3500 
L 1159 3500 
L 1159 2956 
Q 1366 3272 1645 3428 
Q 1925 3584 2291 3584 
Q 2894 3584 3203 3211 
Q 3513 2838 3513 2113 
z
" transform="scale(0.015625)"/>
       <path id="DejaVuSans-4e" d="M 628 4666 
L 1478 4666 
L 3547 763 
L 3547 4666 
L 4159 4666 
L 4159 0 
L 3309 0 
L 1241 3903 
L 1241 0 
L 628 0 
L 628 4666 
z
" transform="scale(0.015625)"/>
       <path id="DejaVuSans-45" d="M 628 4666 
L 3578 4666 
L 3578 4134 
L 1259 4134 
L 1259 2753 
L 3481 2753 
L 3481 2222 
L 1259 2222 
L 1259 531 
L 3634 531 
L 3634 0 
L 628 0 
L 628 4666 
z
" transform="scale(0.015625)"/>
       <path id="DejaVuSans-53" d="M 3425 4513 
L 3425 3897 
Q 3066 4069 2747 4153 
Q 2428 4238 2131 4238 
Q 1616 4238 1336 4038 
Q 1056 3838 1056 3469 
Q 1056 3159 1242 3001 
Q 1428 2844 1947 2747 
L 2328 2669 
Q 3034 2534 3370 2195 
Q 3706 1856 3706 1288 
Q 3706 609 3251 259 
Q 2797 -91 1919 -91 
Q 1588 -91 1214 -16 
Q 841 59 441 206 
L 441 856 
Q 825 641 1194 531 
Q 1563 422 1919 422 
Q 2459 422 2753 634 
Q 3047 847 3047 1241 
Q 3047 1584 2836 1778 
Q 2625 1972 2144 2069 
L 1759 2144 
Q 1053 2284 737 2584 
Q 422 2884 422 3419 
Q 422 4038 858 4394 
Q 1294 4750 2059 4750 
Q 2388 4750 2728 4690 
Q 3069 4631 3425 4513 
z
" transform="scale(0.015625)"/>
      </defs>
      <use xlink:href="#DejaVuSans-4d"/>
      <use xlink:href="#DejaVuSans-65" x="86.279297"/>
      <use xlink:href="#DejaVuSans-64" x="147.802734"/>
      <use xlink:href="#DejaVuSans-69" x="211.279297"/>
      <use xlink:href="#DejaVuSans-61" x="239.0625"/>
      <use xlink:href="#DejaVuSans-6e" x="300.341797"/>
      <use xlink:href="#DejaVuSans-20" x="363.720703"/>
      <use xlink:href="#DejaVuSans-4e" x="395.507812"/>
      <use xlink:href="#DejaVuSans-45" x="470.3125"/>
      <use xlink:href="#DejaVuSans-50" x="533.496094"/>
      <use xlink:href="#DejaVuSans-53" x="593.798828"/>
     </g>
    </g>
   </g>
   <g id="line2d_62">
    <path d="M 69.218182 241.880515 
L 71.614746 221.200481 
L 74.01131 212.943285 
L 76.407874 207.086655 
L 78.804438 202.994068 
L 81.201002 199.637388 
L 83.597566 194.915707 
L 85.99413 192.252696 
L 88.390694 192.054507 
L 90.787258 189.377143 
L 93.183822 187.151948 
L 95.580387 185.612081 
L 97.976951 184.46371 
L 100.373515 183.563321 
L 102.770079 181.854802 
L 105.166643 181.397387 
L 107.563207 179.689375 
L 109.959771 180.426344 
L 112.356335 179.965593 
L 114.752899 178.129978 
L 119.546027 176.36467 
L 121.942591 176.144718 
L 124.339155 175.270527 
L 126.735719 174.235006 
L 129.132283 174.323747 
L 131.528848 174.110635 
L 133.925412 172.191342 
L 136.321976 171.530816 
L 138.71854 171.220963 
L 141.115104 171.848633 
L 143.511668 170.494872 
L 145.908232 170.181652 
L 148.304796 170.410338 
L 150.70136 170.232721 
L 153.097924 169.869737 
L 155.494488 168.639273 
L 157.891052 169.258799 
L 160.287616 169.731842 
L 162.68418 168.429119 
L 165.080744 166.815402 
L 167.477309 167.862615 
L 169.873873 167.108709 
L 172.270437 167.394568 
L 174.667001 167.364284 
L 177.063565 167.593226 
L 179.460129 167.363408 
L 181.856693 174.519761 
L 184.253257 168.340659 
L 186.649821 167.146313 
L 189.046385 166.571924 
L 191.442949 172.514314 
L 193.839513 172.446154 
L 196.236077 166.883652 
L 198.632641 165.974344 
L 201.029205 166.114959 
L 203.42577 166.632117 
L 205.822334 164.845885 
L 208.218898 165.338169 
L 210.615462 164.441114 
L 213.012026 165.139989 
L 215.40859 163.584541 
L 217.805154 163.605287 
L 220.201718 164.284682 
L 222.598282 163.80084 
L 227.39141 163.663285 
L 229.787974 163.174993 
L 234.581102 163.215056 
L 236.977666 170.281087 
L 239.37423 163.640475 
L 241.770795 163.625069 
L 244.167359 163.23833 
L 246.563923 162.511025 
L 248.960487 162.543972 
L 251.357051 162.406582 
L 258.546743 162.961981 
L 260.943307 161.552079 
L 263.339871 162.525835 
L 265.736435 161.565864 
L 268.132999 161.707895 
L 270.529563 162.772615 
L 272.926127 161.449829 
L 275.322691 160.697119 
L 277.719256 160.329652 
L 280.11582 162.349165 
L 282.512384 160.427813 
L 284.908948 160.867156 
L 287.305512 160.65138 
L 289.702076 160.005398 
L 292.09864 160.336567 
L 294.495204 160.355978 
L 296.891768 161.015188 
L 299.288332 165.902358 
L 301.684896 161.539016 
L 304.08146 160.038268 
L 306.478024 160.560844 
L 308.874588 158.258344 
L 311.271152 159.978809 
L 313.667717 159.469191 
L 316.064281 159.868243 
L 318.460845 161.116295 
L 320.857409 160.031893 
L 323.253973 159.321195 
L 325.650537 159.485842 
L 328.047101 160.815355 
L 330.443665 158.562364 
L 332.840229 159.872371 
L 335.236793 159.208251 
L 337.633357 157.750009 
L 340.029921 158.213373 
L 342.426485 159.684493 
L 347.219613 159.219292 
L 349.616178 158.734342 
L 352.012742 159.808249 
L 354.409306 159.099568 
L 356.80587 160.272357 
L 359.202434 166.07702 
L 361.598998 160.651065 
L 363.995562 160.283045 
L 366.392126 158.781837 
L 368.78869 159.093366 
L 371.185254 158.569846 
L 373.581818 159.032321 
L 373.581818 159.032321 
" clip-path="url(#pdbca4c48cf)" style="fill: none; stroke: #1f77b4; stroke-width: 1.5; stroke-linecap: square"/>
   </g>
   <g id="line2d_63">
    <path d="M 69.218182 211.026268 
L 71.614746 191.779403 
L 74.01131 185.993679 
L 76.407874 180.609851 
L 78.804438 175.682461 
L 81.201002 176.021222 
L 83.597566 165.57309 
L 85.99413 168.607733 
L 88.390694 175.630494 
L 90.787258 172.346398 
L 93.183822 167.791351 
L 95.580387 167.246034 
L 97.976951 164.025793 
L 100.373515 168.438651 
L 102.770079 164.66265 
L 105.166643 165.301675 
L 107.563207 162.795707 
L 109.959771 167.258776 
L 112.356335 168.513878 
L 114.752899 159.692649 
L 117.149463 159.524094 
L 119.546027 161.627366 
L 121.942591 162.984306 
L 124.339155 162.91236 
L 126.735719 161.598815 
L 129.132283 162.957454 
L 131.528848 163.758468 
L 133.925412 158.464122 
L 136.321976 159.435339 
L 138.71854 164.666699 
L 141.115104 169.399326 
L 143.511668 165.487854 
L 145.908232 165.206758 
L 148.304796 165.159954 
L 150.70136 166.656682 
L 153.097924 165.04141 
L 155.494488 164.63743 
L 157.891052 167.757782 
L 160.287616 168.482144 
L 162.68418 166.490356 
L 165.080744 161.672313 
L 167.477309 166.386192 
L 169.873873 164.802711 
L 172.270437 166.839662 
L 179.460129 166.222699 
L 181.856693 167.962325 
L 184.253257 167.545887 
L 186.649821 165.44049 
L 189.046385 167.028247 
L 191.442949 168.794723 
L 193.839513 164.834084 
L 196.236077 167.671654 
L 198.632641 165.986226 
L 201.029205 167.916008 
L 203.42577 169.075593 
L 205.822334 166.173827 
L 208.218898 168.81678 
L 210.615462 166.014741 
L 213.012026 167.378281 
L 215.40859 164.54294 
L 217.805154 164.227566 
L 220.201718 166.370525 
L 222.598282 161.54668 
L 224.994846 161.540271 
L 227.39141 162.079556 
L 229.787974 160.594607 
L 232.184538 160.801268 
L 234.581102 158.776414 
L 236.977666 160.581466 
L 239.37423 159.564787 
L 241.770795 160.600155 
L 244.167359 161.338032 
L 246.563923 159.889512 
L 248.960487 161.230386 
L 251.357051 160.538645 
L 253.753615 160.789756 
L 256.150179 159.937381 
L 258.546743 160.586542 
L 260.943307 158.699447 
L 263.339871 161.41548 
L 265.736435 160.222071 
L 268.132999 160.732584 
L 270.529563 163.583667 
L 272.926127 160.63038 
L 275.322691 159.457696 
L 277.719256 158.593647 
L 280.11582 162.649122 
L 282.512384 158.632776 
L 284.908948 160.833873 
L 287.305512 159.150173 
L 289.702076 158.683923 
L 292.09864 158.911609 
L 294.495204 160.671277 
L 296.891768 159.739508 
L 299.288332 159.687181 
L 301.684896 161.412054 
L 304.08146 158.222864 
L 306.478024 160.15023 
L 308.874588 155.621175 
L 311.271152 159.269414 
L 313.667717 158.228411 
L 316.064281 160.073682 
L 318.460845 161.272728 
L 323.253973 159.332372 
L 325.650537 159.472279 
L 328.047101 161.922472 
L 330.443665 158.473278 
L 332.840229 159.717023 
L 335.236793 159.119587 
L 337.633357 156.685529 
L 340.029921 158.121702 
L 342.426485 159.859749 
L 344.823049 159.035222 
L 347.219613 158.641437 
L 349.616178 158.996593 
L 352.012742 161.487938 
L 354.409306 158.744192 
L 356.80587 160.709015 
L 359.202434 159.472226 
L 361.598998 158.850734 
L 363.995562 161.343363 
L 366.392126 158.575592 
L 368.78869 159.436438 
L 371.185254 159.058595 
L 373.581818 159.736885 
L 373.581818 159.736885 
" clip-path="url(#pdbca4c48cf)" style="fill: none; stroke: #ff7f0e; stroke-width: 1.5; stroke-linecap: square"/>
   </g>
   <g id="line2d_64">
    <path d="M 69.218182 211.048043 
L 71.614746 192.454915 
L 76.407874 180.618862 
L 78.804438 176.638178 
L 81.201002 176.889521 
L 83.597566 165.99065 
L 85.99413 168.751344 
L 88.390694 176.494591 
L 90.787258 172.931789 
L 93.183822 169.062552 
L 95.580387 168.488044 
L 97.976951 164.834572 
L 100.373515 168.970762 
L 102.770079 165.968656 
L 105.166643 166.728788 
L 107.563207 168.656465 
L 109.959771 169.180786 
L 112.356335 170.037246 
L 114.752899 161.321695 
L 117.149463 161.451257 
L 119.546027 162.428583 
L 121.942591 164.363288 
L 124.339155 164.433966 
L 126.735719 162.559541 
L 129.132283 163.74339 
L 131.528848 165.652759 
L 133.925412 159.785557 
L 136.321976 160.516274 
L 138.71854 161.478939 
L 141.115104 165.859264 
L 143.511668 161.602976 
L 145.908232 162.625335 
L 148.304796 161.993161 
L 150.70136 163.736701 
L 153.097924 161.785296 
L 155.494488 160.714338 
L 157.891052 164.537404 
L 160.287616 166.126683 
L 162.68418 163.68351 
L 165.080744 159.246966 
L 167.477309 163.416663 
L 169.873873 161.000333 
L 172.270437 163.669858 
L 174.667001 162.228503 
L 177.063565 162.243983 
L 179.460129 161.755868 
L 181.856693 163.536011 
L 184.253257 162.618631 
L 186.649821 161.281899 
L 189.046385 162.149897 
L 191.442949 164.143583 
L 193.839513 160.058305 
L 196.236077 162.394818 
L 198.632641 160.632725 
L 201.029205 162.158599 
L 203.42577 164.963422 
L 205.822334 161.445803 
L 208.218898 164.058144 
L 210.615462 161.495888 
L 213.012026 162.842045 
L 215.40859 160.116258 
L 217.805154 159.92941 
L 220.201718 161.532931 
L 222.598282 161.467464 
L 227.39141 162.083919 
L 229.787974 160.622591 
L 232.184538 161.584208 
L 234.581102 160.021106 
L 236.977666 161.986718 
L 239.37423 159.962285 
L 241.770795 161.889613 
L 244.167359 162.499525 
L 246.563923 161.258573 
L 248.960487 162.395221 
L 251.357051 161.748036 
L 253.753615 162.124121 
L 256.150179 160.221672 
L 258.546743 160.965104 
L 260.943307 159.059084 
L 263.339871 162.472281 
L 265.736435 160.800719 
L 268.132999 161.843385 
L 270.529563 163.783901 
L 272.926127 160.45887 
L 275.322691 160.250547 
L 277.719256 159.174111 
L 280.11582 163.166086 
L 282.512384 159.59147 
L 284.908948 161.469495 
L 287.305512 159.620616 
L 289.702076 158.453182 
L 292.09864 159.428115 
L 294.495204 160.553213 
L 296.891768 160.444728 
L 299.288332 160.528656 
L 301.684896 161.516373 
L 304.08146 158.477453 
L 306.478024 160.6706 
L 308.874588 156.009888 
L 311.271152 159.334131 
L 313.667717 164.441265 
L 316.064281 159.768873 
L 318.460845 162.435685 
L 320.857409 160.239962 
L 323.253973 160.260408 
L 325.650537 159.518004 
L 328.047101 162.723089 
L 330.443665 159.036031 
L 332.840229 160.670314 
L 335.236793 159.537413 
L 337.633357 157.110167 
L 340.029921 158.72133 
L 342.426485 160.534246 
L 344.823049 160.129238 
L 347.219613 159.023239 
L 349.616178 159.357624 
L 352.012742 161.998519 
L 354.409306 159.372226 
L 356.80587 161.352282 
L 359.202434 160.160039 
L 361.598998 159.703893 
L 363.995562 161.993901 
L 366.392126 159.19693 
L 368.78869 160.174341 
L 371.185254 159.498682 
L 373.581818 160.459442 
L 373.581818 160.459442 
" clip-path="url(#pdbca4c48cf)" style="fill: none; stroke: #2ca02c; stroke-width: 1.5; stroke-linecap: square"/>
   </g>
   <g id="line2d_65">
    <path d="M 69.218182 147.298317 
L 71.614746 126.01995 
L 74.01131 123.611384 
L 76.407874 113.930285 
L 78.804438 106.554947 
L 81.201002 104.230286 
L 83.597566 98.781488 
L 85.99413 91.290653 
L 88.390694 93.85664 
L 90.787258 91.282833 
L 93.183822 89.530334 
L 95.580387 90.836256 
L 97.976951 94.533979 
L 100.373515 89.050075 
L 102.770079 88.396793 
L 105.166643 87.346237 
L 107.563207 82.99176 
L 109.959771 85.614198 
L 112.356335 85.116745 
L 114.752899 85.560487 
L 119.546027 83.516559 
L 121.942591 82.885508 
L 124.339155 79.096846 
L 126.735719 83.544574 
L 129.132283 80.199659 
L 131.528848 78.10447 
L 133.925412 80.482396 
L 136.321976 74.425867 
L 138.71854 77.452078 
L 141.115104 66.184778 
L 143.511668 77.599245 
L 145.908232 78.603522 
L 148.304796 77.5383 
L 150.70136 75.917897 
L 153.097924 71.87469 
L 155.494488 73.331783 
L 157.891052 76.477337 
L 160.287616 75.442167 
L 162.68418 75.649455 
L 165.080744 74.25533 
L 167.477309 73.067419 
L 169.873873 75.012364 
L 172.270437 74.79345 
L 174.667001 73.761717 
L 177.063565 68.278513 
L 179.460129 74.225809 
L 181.856693 72.645747 
L 184.253257 75.956039 
L 186.649821 72.340306 
L 189.046385 65.207473 
L 191.442949 72.524654 
L 193.839513 72.188583 
L 196.236077 72.567259 
L 198.632641 67.08183 
L 201.029205 66.51374 
L 203.42577 72.940379 
L 205.822334 70.316068 
L 208.218898 68.863349 
L 210.615462 70.469723 
L 213.012026 67.509118 
L 215.40859 69.926414 
L 217.805154 69.545178 
L 220.201718 69.650636 
L 222.598282 68.521335 
L 224.994846 69.490082 
L 227.39141 68.429744 
L 229.787974 66.865568 
L 232.184538 71.349644 
L 234.581102 69.353916 
L 236.977666 71.806645 
L 239.37423 70.765387 
L 241.770795 66.986313 
L 244.167359 67.131778 
L 246.563923 66.591241 
L 248.960487 66.335898 
L 251.357051 65.155899 
L 253.753615 67.853155 
L 256.150179 66.938479 
L 258.546743 67.375594 
L 260.943307 68.041907 
L 263.339871 69.210977 
L 265.736435 69.717815 
L 268.132999 65.625143 
L 270.529563 61.817502 
L 272.926127 68.978284 
L 275.322691 63.954755 
L 277.719256 63.744359 
L 280.11582 59.083158 
L 282.512384 62.699484 
L 287.305512 63.7862 
L 289.702076 67.62893 
L 292.09864 65.16004 
L 294.495204 66.719651 
L 296.891768 63.656736 
L 299.288332 65.495116 
L 301.684896 64.880404 
L 304.08146 66.789331 
L 306.478024 60.87756 
L 308.874588 62.567652 
L 311.271152 62.006194 
L 313.667717 61.057588 
L 318.460845 64.779879 
L 320.857409 63.914925 
L 323.253973 67.125028 
L 325.650537 67.72785 
L 328.047101 60.138376 
L 330.443665 63.920872 
L 332.840229 63.899192 
L 335.236793 60.67095 
L 337.633357 63.541522 
L 340.029921 59.976082 
L 342.426485 64.25221 
L 344.823049 62.292897 
L 347.219613 64.486516 
L 349.616178 67.786024 
L 352.012742 60.382635 
L 354.409306 59.813882 
L 356.80587 57.956301 
L 359.202434 61.350061 
L 361.598998 67.461187 
L 363.995562 67.085253 
L 366.392126 63.438598 
L 368.78869 68.608713 
L 371.185254 59.432591 
L 373.581818 63.227212 
L 373.581818 63.227212 
" clip-path="url(#pdbca4c48cf)" style="fill: none; stroke: #d62728; stroke-width: 1.5; stroke-linecap: square"/>
   </g>
   <g id="patch_3">
    <path d="M 54 252 
L 54 34.56 
" style="fill: none; stroke: #000000; stroke-width: 0.8; stroke-linejoin: miter; stroke-linecap: square"/>
   </g>
   <g id="patch_4">
    <path d="M 388.8 252 
L 388.8 34.56 
" style="fill: none; stroke: #000000; stroke-width: 0.8; stroke-linejoin: miter; stroke-linecap: square"/>
   </g>
   <g id="patch_5">
    <path d="M 54 252 
L 388.8 252 
" style="fill: none; stroke: #000000; stroke-width: 0.8; stroke-linejoin: miter; stroke-linecap: square"/>
   </g>
   <g id="patch_6">
    <path d="M 54 34.56 
L 388.8 34.56 
" style="fill: none; stroke: #000000; stroke-width: 0.8; stroke-linejoin: miter; stroke-linecap: square"/>
   </g>
   <g id="text_23">
    <!-- Median NEPS vs. Program Size (100 f.c., nicolau_a) -->
    <g transform="translate(69.21375 28.56)scale(0.12 -0.12)">
     <defs>
      <path id="DejaVuSans-76" d="M 191 3500 
L 800 3500 
L 1894 563 
L 2988 3500 
L 3597 3500 
L 2284 0 
L 1503 0 
L 191 3500 
z
" transform="scale(0.015625)"/>
      <path id="DejaVuSans-2e" d="M 684 794 
L 1344 794 
L 1344 0 
L 684 0 
L 684 794 
z
" transform="scale(0.015625)"/>
      <path id="DejaVuSans-28" d="M 1984 4856 
Q 1566 4138 1362 3434 
Q 1159 2731 1159 2009 
Q 1159 1288 1364 580 
Q 1569 -128 1984 -844 
L 1484 -844 
Q 1016 -109 783 600 
Q 550 1309 550 2009 
Q 550 2706 781 3412 
Q 1013 4119 1484 4856 
L 1984 4856 
z
" transform="scale(0.015625)"/>
      <path id="DejaVuSans-66" d="M 2375 4863 
L 2375 4384 
L 1825 4384 
Q 1516 4384 1395 4259 
Q 1275 4134 1275 3809 
L 1275 3500 
L 2222 3500 
L 2222 3053 
L 1275 3053 
L 1275 0 
L 697 0 
L 697 3053 
L 147 3053 
L 147 3500 
L 697 3500 
L 697 3744 
Q 697 4328 969 4595 
Q 1241 4863 1831 4863 
L 2375 4863 
z
" transform="scale(0.015625)"/>
      <path id="DejaVuSans-63" d="M 3122 3366 
L 3122 2828 
Q 2878 2963 2633 3030 
Q 2388 3097 2138 3097 
Q 1578 3097 1268 2742 
Q 959 2388 959 1747 
Q 959 1106 1268 751 
Q 1578 397 2138 397 
Q 2388 397 2633 464 
Q 2878 531 3122 666 
L 3122 134 
Q 2881 22 2623 -34 
Q 2366 -91 2075 -91 
Q 1284 -91 818 406 
Q 353 903 353 1747 
Q 353 2603 823 3093 
Q 1294 3584 2113 3584 
Q 2378 3584 2631 3529 
Q 2884 3475 3122 3366 
z
" transform="scale(0.015625)"/>
      <path id="DejaVuSans-2c" d="M 750 794 
L 1409 794 
L 1409 256 
L 897 -744 
L 494 -744 
L 750 256 
L 750 794 
z
" transform="scale(0.015625)"/>
      <path id="DejaVuSans-6c" d="M 603 4863 
L 1178 4863 
L 1178 0 
L 603 0 
L 603 4863 
z
" transform="scale(0.015625)"/>
      <path id="DejaVuSans-75" d="M 544 1381 
L 544 3500 
L 1119 3500 
L 1119 1403 
Q 1119 906 1312 657 
Q 1506 409 1894 409 
Q 2359 409 2629 706 
Q 2900 1003 2900 1516 
L 2900 3500 
L 3475 3500 
L 3475 0 
L 2900 0 
L 2900 538 
Q 2691 219 2414 64 
Q 2138 -91 1772 -91 
Q 1169 -91 856 284 
Q 544 659 544 1381 
z
M 1991 3584 
L 1991 3584 
z
" transform="scale(0.015625)"/>
      <path id="DejaVuSans-5f" d="M 3263 -1063 
L 3263 -1509 
L -63 -1509 
L -63 -1063 
L 3263 -1063 
z
" transform="scale(0.015625)"/>
      <path id="DejaVuSans-29" d="M 513 4856 
L 1013 4856 
Q 1481 4119 1714 3412 
Q 1947 2706 1947 2009 
Q 1947 1309 1714 600 
Q 1481 -109 1013 -844 
L 513 -844 
Q 928 -128 1133 580 
Q 1338 1288 1338 2009 
Q 1338 2731 1133 3434 
Q 928 4138 513 4856 
z
" transform="scale(0.015625)"/>
     </defs>
     <use xlink:href="#DejaVuSans-4d"/>
     <use xlink:href="#DejaVuSans-65" x="86.279297"/>
     <use xlink:href="#DejaVuSans-64" x="147.802734"/>
     <use xlink:href="#DejaVuSans-69" x="211.279297"/>
     <use xlink:href="#DejaVuSans-61" x="239.0625"/>
     <use xlink:href="#DejaVuSans-6e" x="300.341797"/>
     <use xlink:href="#DejaVuSans-20" x="363.720703"/>
     <use xlink:href="#DejaVuSans-4e" x="395.507812"/>
     <use xlink:href="#DejaVuSans-45" x="470.3125"/>
     <use xlink:href="#DejaVuSans-50" x="533.496094"/>
     <use xlink:href="#DejaVuSans-53" x="593.798828"/>
     <use xlink:href="#DejaVuSans-20" x="657.275391"/>
     <use xlink:href="#DejaVuSans-76" x="689.0625"/>
     <use xlink:href="#DejaVuSans-73" x="748.242188"/>
     <use xlink:href="#DejaVuSans-2e" x="800.341797"/>
     <use xlink:href="#DejaVuSans-20" x="832.128906"/>
     <use xlink:href="#DejaVuSans-50" x="863.916016"/>
     <use xlink:href="#DejaVuSans-72" x="922.46875"/>
     <use xlink:href="#DejaVuSans-6f" x="961.332031"/>
     <use xlink:href="#DejaVuSans-67" x="1022.513672"/>
     <use xlink:href="#DejaVuSans-72" x="1085.990234"/>
     <use xlink:href="#DejaVuSans-61" x="1127.103516"/>
     <use xlink:href="#DejaVuSans-6d" x="1188.382812"/>
     <use xlink:href="#DejaVuSans-20" x="1285.794922"/>
     <use xlink:href="#DejaVuSans-53" x="1317.582031"/>
     <use xlink:href="#DejaVuSans-69" x="1381.058594"/>
     <use xlink:href="#DejaVuSans-7a" x="1408.841797"/>
     <use xlink:href="#DejaVuSans-65" x="1461.332031"/>
     <use xlink:href="#DejaVuSans-20" x="1522.855469"/>
     <use xlink:href="#DejaVuSans-28" x="1554.642578"/>
     <use xlink:href="#DejaVuSans-31" x="1593.65625"/>
     <use xlink:href="#DejaVuSans-30" x="1657.279297"/>
     <use xlink:href="#DejaVuSans-30" x="1720.902344"/>
     <use xlink:href="#DejaVuSans-20" x="1784.525391"/>
     <use xlink:href="#DejaVuSans-66" x="1816.3125"/>
     <use xlink:href="#DejaVuSans-2e" x="1844.267578"/>
     <use xlink:href="#DejaVuSans-63" x="1876.054688"/>
     <use xlink:href="#DejaVuSans-2e" x="1931.035156"/>
     <use xlink:href="#DejaVuSans-2c" x="1962.822266"/>
     <use xlink:href="#DejaVuSans-20" x="1994.609375"/>
     <use xlink:href="#DejaVuSans-6e" x="2026.396484"/>
     <use xlink:href="#DejaVuSans-69" x="2089.775391"/>
     <use xlink:href="#DejaVuSans-63" x="2117.558594"/>
     <use xlink:href="#DejaVuSans-6f" x="2172.539062"/>
     <use xlink:href="#DejaVuSans-6c" x="2233.720703"/>
     <use xlink:href="#DejaVuSans-61" x="2261.503906"/>
     <use xlink:href="#DejaVuSans-75" x="2322.783203"/>
     <use xlink:href="#DejaVuSans-5f" x="2386.162109"/>
     <use xlink:href="#DejaVuSans-61" x="2436.162109"/>
     <use xlink:href="#DejaVuSans-29" x="2497.441406"/>
    </g>
   </g>
   <g id="legend_1">
    <g id="patch_7">
     <path d="M 61 101.2725 
L 171.19375 101.2725 
Q 173.19375 101.2725 173.19375 99.2725 
L 173.19375 41.56 
Q 173.19375 39.56 171.19375 39.56 
L 61 39.56 
Q 59 39.56 59 41.56 
L 59 99.2725 
Q 59 101.2725 61 101.2725 
z
" style="fill: #ffffff; opacity: 0.8; stroke: #cccccc; stroke-linejoin: miter"/>
    </g>
    <g id="line2d_66">
     <path d="M 63 47.658437 
L 73 47.658437 
L 83 47.658437 
" style="fill: none; stroke: #1f77b4; stroke-width: 1.5; stroke-linecap: square"/>
    </g>
    <g id="text_24">
     <!-- DEAP -->
     <g transform="translate(91 51.158437)scale(0.1 -0.1)">
      <defs>
       <path id="DejaVuSans-44" d="M 1259 4147 
L 1259 519 
L 2022 519 
Q 2988 519 3436 956 
Q 3884 1394 3884 2338 
Q 3884 3275 3436 3711 
Q 2988 4147 2022 4147 
L 1259 4147 
z
M 628 4666 
L 1925 4666 
Q 3281 4666 3915 4102 
Q 4550 3538 4550 2338 
Q 4550 1131 3912 565 
Q 3275 0 1925 0 
L 628 0 
L 628 4666 
z
" transform="scale(0.015625)"/>
       <path id="DejaVuSans-41" d="M 2188 4044 
L 1331 1722 
L 3047 1722 
L 2188 4044 
z
M 1831 4666 
L 2547 4666 
L 4325 0 
L 3669 0 
L 3244 1197 
L 1141 1197 
L 716 0 
L 50 0 
L 1831 4666 
z
" transform="scale(0.015625)"/>
      </defs>
      <use xlink:href="#DejaVuSans-44"/>
      <use xlink:href="#DejaVuSans-45" x="77.001953"/>
      <use xlink:href="#DejaVuSans-41" x="140.185547"/>
      <use xlink:href="#DejaVuSans-50" x="208.59375"/>
     </g>
    </g>
    <g id="line2d_67">
     <path d="M 63 62.336562 
L 73 62.336562 
L 83 62.336562 
" style="fill: none; stroke: #ff7f0e; stroke-width: 1.5; stroke-linecap: square"/>
    </g>
    <g id="text_25">
     <!-- TensorGP (CPU) -->
     <g transform="translate(91 65.836562)scale(0.1 -0.1)">
      <defs>
       <path id="DejaVuSans-54" d="M -19 4666 
L 3928 4666 
L 3928 4134 
L 2272 4134 
L 2272 0 
L 1638 0 
L 1638 4134 
L -19 4134 
L -19 4666 
z
" transform="scale(0.015625)"/>
       <path id="DejaVuSans-47" d="M 3809 666 
L 3809 1919 
L 2778 1919 
L 2778 2438 
L 4434 2438 
L 4434 434 
Q 4069 175 3628 42 
Q 3188 -91 2688 -91 
Q 1594 -91 976 548 
Q 359 1188 359 2328 
Q 359 3472 976 4111 
Q 1594 4750 2688 4750 
Q 3144 4750 3555 4637 
Q 3966 4525 4313 4306 
L 4313 3634 
Q 3963 3931 3569 4081 
Q 3175 4231 2741 4231 
Q 1884 4231 1454 3753 
Q 1025 3275 1025 2328 
Q 1025 1384 1454 906 
Q 1884 428 2741 428 
Q 3075 428 3337 486 
Q 3600 544 3809 666 
z
" transform="scale(0.015625)"/>
       <path id="DejaVuSans-43" d="M 4122 4306 
L 4122 3641 
Q 3803 3938 3442 4084 
Q 3081 4231 2675 4231 
Q 1875 4231 1450 3742 
Q 1025 3253 1025 2328 
Q 1025 1406 1450 917 
Q 1875 428 2675 428 
Q 3081 428 3442 575 
Q 3803 722 4122 1019 
L 4122 359 
Q 3791 134 3420 21 
Q 3050 -91 2638 -91 
Q 1578 -91 968 557 
Q 359 1206 359 2328 
Q 359 3453 968 4101 
Q 1578 4750 2638 4750 
Q 3056 4750 3426 4639 
Q 3797 4528 4122 4306 
z
" transform="scale(0.015625)"/>
       <path id="DejaVuSans-55" d="M 556 4666 
L 1191 4666 
L 1191 1831 
Q 1191 1081 1462 751 
Q 1734 422 2344 422 
Q 2950 422 3222 751 
Q 3494 1081 3494 1831 
L 3494 4666 
L 4128 4666 
L 4128 1753 
Q 4128 841 3676 375 
Q 3225 -91 2344 -91 
Q 1459 -91 1007 375 
Q 556 841 556 1753 
L 556 4666 
z
" transform="scale(0.015625)"/>
      </defs>
      <use xlink:href="#DejaVuSans-54"/>
      <use xlink:href="#DejaVuSans-65" x="44.083984"/>
      <use xlink:href="#DejaVuSans-6e" x="105.607422"/>
      <use xlink:href="#DejaVuSans-73" x="168.986328"/>
      <use xlink:href="#DejaVuSans-6f" x="221.085938"/>
      <use xlink:href="#DejaVuSans-72" x="282.267578"/>
      <use xlink:href="#DejaVuSans-47" x="323.380859"/>
      <use xlink:href="#DejaVuSans-50" x="400.871094"/>
      <use xlink:href="#DejaVuSans-20" x="461.173828"/>
      <use xlink:href="#DejaVuSans-28" x="492.960938"/>
      <use xlink:href="#DejaVuSans-43" x="531.974609"/>
      <use xlink:href="#DejaVuSans-50" x="601.798828"/>
      <use xlink:href="#DejaVuSans-55" x="662.101562"/>
      <use xlink:href="#DejaVuSans-29" x="735.294922"/>
     </g>
    </g>
    <g id="line2d_68">
     <path d="M 63 77.014687 
L 73 77.014687 
L 83 77.014687 
" style="fill: none; stroke: #2ca02c; stroke-width: 1.5; stroke-linecap: square"/>
    </g>
    <g id="text_26">
     <!-- TensorGP (GPU) -->
     <g transform="translate(91 80.514687)scale(0.1 -0.1)">
      <use xlink:href="#DejaVuSans-54"/>
      <use xlink:href="#DejaVuSans-65" x="44.083984"/>
      <use xlink:href="#DejaVuSans-6e" x="105.607422"/>
      <use xlink:href="#DejaVuSans-73" x="168.986328"/>
      <use xlink:href="#DejaVuSans-6f" x="221.085938"/>
      <use xlink:href="#DejaVuSans-72" x="282.267578"/>
      <use xlink:href="#DejaVuSans-47" x="323.380859"/>
      <use xlink:href="#DejaVuSans-50" x="400.871094"/>
      <use xlink:href="#DejaVuSans-20" x="461.173828"/>
      <use xlink:href="#DejaVuSans-28" x="492.960938"/>
      <use xlink:href="#DejaVuSans-47" x="531.974609"/>
      <use xlink:href="#DejaVuSans-50" x="609.464844"/>
      <use xlink:href="#DejaVuSans-55" x="669.767578"/>
      <use xlink:href="#DejaVuSans-29" x="742.960938"/>
     </g>
    </g>
    <g id="line2d_69">
     <path d="M 63 91.692813 
L 73 91.692813 
L 83 91.692813 
" style="fill: none; stroke: #d62728; stroke-width: 1.5; stroke-linecap: square"/>
    </g>
    <g id="text_27">
     <!-- Operon -->
     <g transform="translate(91 95.192813)scale(0.1 -0.1)">
      <defs>
       <path id="DejaVuSans-4f" d="M 2522 4238 
Q 1834 4238 1429 3725 
Q 1025 3213 1025 2328 
Q 1025 1447 1429 934 
Q 1834 422 2522 422 
Q 3209 422 3611 934 
Q 4013 1447 4013 2328 
Q 4013 3213 3611 3725 
Q 3209 4238 2522 4238 
z
M 2522 4750 
Q 3503 4750 4090 4092 
Q 4678 3434 4678 2328 
Q 4678 1225 4090 567 
Q 3503 -91 2522 -91 
Q 1538 -91 948 565 
Q 359 1222 359 2328 
Q 359 3434 948 4092 
Q 1538 4750 2522 4750 
z
" transform="scale(0.015625)"/>
       <path id="DejaVuSans-70" d="M 1159 525 
L 1159 -1331 
L 581 -1331 
L 581 3500 
L 1159 3500 
L 1159 2969 
Q 1341 3281 1617 3432 
Q 1894 3584 2278 3584 
Q 2916 3584 3314 3078 
Q 3713 2572 3713 1747 
Q 3713 922 3314 415 
Q 2916 -91 2278 -91 
Q 1894 -91 1617 61 
Q 1341 213 1159 525 
z
M 3116 1747 
Q 3116 2381 2855 2742 
Q 2594 3103 2138 3103 
Q 1681 3103 1420 2742 
Q 1159 2381 1159 1747 
Q 1159 1113 1420 752 
Q 1681 391 2138 391 
Q 2594 391 2855 752 
Q 3116 1113 3116 1747 
z
" transform="scale(0.015625)"/>
      </defs>
      <use xlink:href="#DejaVuSans-4f"/>
      <use xlink:href="#DejaVuSans-70" x="78.710938"/>
      <use xlink:href="#DejaVuSans-65" x="142.1875"/>
      <use xlink:href="#DejaVuSans-72" x="203.710938"/>
      <use xlink:href="#DejaVuSans-6f" x="242.574219"/>
      <use xlink:href="#DejaVuSans-6e" x="303.755859"/>
     </g>
    </g>
   </g>
  </g>
 </g>
 <defs>
  <clipPath id="pdbca4c48cf">
   <rect x="54" y="34.56" width="334.8" height="217.44"/>
  </clipPath>
 </defs>
</svg>
