<?xml version="1.0" encoding="utf-8" standalone="no"?>
<!DOCTYPE svg PUBLIC "-//W3C//DTD SVG 1.1//EN"
  "http://www.w3.org/Graphics/SVG/1.1/DTD/svg11.dtd">
<svg xmlns:xlink="http://www.w3.org/1999/xlink" width="432pt" height="288pt" viewBox="0 0 432 288" xmlns="http://www.w3.org/2000/svg" version="1.1">
 <metadata>
  <rdf:RDF xmlns:dc="http://purl.org/dc/elements/1.1/" xmlns:cc="http://creativecommons.org/ns#" xmlns:rdf="http://www.w3.org/1999/02/22-rdf-syntax-ns#">
   <cc:Work>
    <dc:type rdf:resource="http://purl.org/dc/dcmitype/StillImage"/>
    <dc:date>2022-01-13T22:09:16.193852</dc:date>
    <dc:format>image/svg+xml</dc:format>
    <dc:creator>
     <cc:Agent>
      <dc:title>Matplotlib v3.5.1, https://matplotlib.org/</dc:title>
     </cc:Agent>
    </dc:creator>
   </cc:Work>
  </rdf:RDF>
 </metadata>
 <defs>
  <style type="text/css">*{stroke-linejoin: round; stroke-linecap: butt}</style>
 </defs>
 <g id="figure_1">
  <g id="patch_1">
   <path d="M 0 288 
L 432 288 
L 432 0 
L 0 0 
L 0 288 
z
" style="fill: none"/>
  </g>
  <g id="axes_1">
   <g id="patch_2">
    <path d="M 54 252 
L 388.8 252 
L 388.8 34.56 
L 54 34.56 
z
" style="fill: #ffffff"/>
   </g>
   <g id="PolyCollection_1">
    <path d="M 69.218182 242.116364 
L 69.218182 242.116364 
L 71.614746 234.409045 
L 74.01131 231.384321 
L 76.407874 227.786471 
L 78.804438 221.407668 
L 81.201002 223.700666 
L 83.597566 216.47585 
L 85.99413 218.752886 
L 88.390694 222.59579 
L 90.787258 220.166415 
L 93.183822 215.610187 
L 95.580387 217.756872 
L 97.976951 216.818159 
L 100.373515 218.58664 
L 102.770079 217.642623 
L 105.166643 213.844505 
L 107.563207 216.703146 
L 109.959771 218.428441 
L 112.356335 218.70977 
L 114.752899 213.031593 
L 117.149463 214.754385 
L 119.546027 216.89741 
L 121.942591 217.099642 
L 124.339155 216.041907 
L 126.735719 216.275894 
L 129.132283 216.848707 
L 131.528848 215.646319 
L 133.925412 213.876065 
L 136.321976 213.912099 
L 138.71854 212.78032 
L 141.115104 215.543044 
L 143.511668 213.955258 
L 145.908232 212.052592 
L 148.304796 215.179196 
L 150.70136 215.114991 
L 153.097924 214.577246 
L 155.494488 214.322585 
L 157.891052 213.590873 
L 160.287616 215.344476 
L 162.68418 215.972967 
L 165.080744 210.795643 
L 167.477309 215.39107 
L 169.873873 214.269822 
L 172.270437 215.77082 
L 174.667001 216.537272 
L 177.063565 215.380846 
L 179.460129 215.710221 
L 181.856693 216.113999 
L 184.253257 216.141282 
L 186.649821 214.908071 
L 189.046385 215.849456 
L 191.442949 214.951176 
L 193.839513 212.449845 
L 196.236077 214.641786 
L 198.632641 214.270406 
L 201.029205 214.574337 
L 203.42577 216.494434 
L 205.822334 215.224592 
L 208.218898 216.148797 
L 210.615462 214.298618 
L 213.012026 217.001616 
L 215.40859 214.435624 
L 217.805154 213.821047 
L 220.201718 215.523182 
L 222.598282 214.445767 
L 224.994846 215.576174 
L 227.39141 214.284096 
L 229.787974 215.683789 
L 232.184538 215.555881 
L 234.581102 211.979469 
L 236.977666 214.442021 
L 239.37423 215.408793 
L 241.770795 215.918041 
L 244.167359 215.033098 
L 246.563923 214.779899 
L 248.960487 215.642855 
L 251.357051 214.942446 
L 253.753615 215.677709 
L 256.150179 214.234481 
L 258.546743 216.89385 
L 260.943307 214.108069 
L 263.339871 215.184849 
L 265.736435 215.363532 
L 268.132999 214.636045 
L 270.529563 216.53209 
L 272.926127 215.769422 
L 275.322691 214.365039 
L 277.719256 214.640907 
L 280.11582 215.202578 
L 282.512384 214.681928 
L 284.908948 213.753002 
L 287.305512 214.36465 
L 289.702076 213.261932 
L 292.09864 213.983752 
L 294.495204 214.773075 
L 296.891768 213.594912 
L 299.288332 215.602127 
L 301.684896 216.253098 
L 304.08146 215.14263 
L 306.478024 214.320329 
L 308.874588 213.589574 
L 311.271152 214.768696 
L 313.667717 214.175512 
L 316.064281 215.092843 
L 318.460845 216.214934 
L 320.857409 214.337063 
L 323.253973 214.385974 
L 325.650537 214.751461 
L 328.047101 215.24659 
L 330.443665 214.074857 
L 332.840229 214.494817 
L 335.236793 214.38505 
L 337.633357 212.147568 
L 340.029921 212.84331 
L 342.426485 214.587134 
L 344.823049 213.062499 
L 347.219613 214.358202 
L 349.616178 214.231407 
L 352.012742 216.050959 
L 354.409306 213.174257 
L 356.80587 215.794874 
L 359.202434 213.160249 
L 361.598998 214.675718 
L 363.995562 215.634641 
L 366.392126 213.095972 
L 368.78869 213.283634 
L 371.185254 214.386938 
L 373.581818 214.063648 
L 373.581818 214.063648 
L 373.581818 214.063648 
L 371.185254 214.386938 
L 368.78869 213.283634 
L 366.392126 213.095972 
L 363.995562 215.634641 
L 361.598998 214.675718 
L 359.202434 213.160249 
L 356.80587 215.794874 
L 354.409306 213.174257 
L 352.012742 216.050959 
L 349.616178 214.231407 
L 347.219613 214.358202 
L 344.823049 213.062499 
L 342.426485 214.587134 
L 340.029921 212.84331 
L 337.633357 212.147568 
L 335.236793 214.38505 
L 332.840229 214.494817 
L 330.443665 214.074857 
L 328.047101 215.24659 
L 325.650537 214.751461 
L 323.253973 214.385974 
L 320.857409 214.337063 
L 318.460845 216.214934 
L 316.064281 215.092843 
L 313.667717 214.175512 
L 311.271152 214.768696 
L 308.874588 213.589574 
L 306.478024 214.320329 
L 304.08146 215.14263 
L 301.684896 216.253098 
L 299.288332 215.602127 
L 296.891768 213.594912 
L 294.495204 214.773075 
L 292.09864 213.983752 
L 289.702076 213.261932 
L 287.305512 214.36465 
L 284.908948 213.753002 
L 282.512384 214.681928 
L 280.11582 215.202578 
L 277.719256 214.640907 
L 275.322691 214.365039 
L 272.926127 215.769422 
L 270.529563 216.53209 
L 268.132999 214.636045 
L 265.736435 215.363532 
L 263.339871 215.184849 
L 260.943307 214.108069 
L 258.546743 216.89385 
L 256.150179 214.234481 
L 253.753615 215.677709 
L 251.357051 214.942446 
L 248.960487 215.642855 
L 246.563923 214.779899 
L 244.167359 215.033098 
L 241.770795 215.918041 
L 239.37423 215.408793 
L 236.977666 214.442021 
L 234.581102 211.979469 
L 232.184538 215.555881 
L 229.787974 215.683789 
L 227.39141 214.284096 
L 224.994846 215.576174 
L 222.598282 214.445767 
L 220.201718 215.523182 
L 217.805154 213.821047 
L 215.40859 214.435624 
L 213.012026 217.001616 
L 210.615462 214.298618 
L 208.218898 216.148797 
L 205.822334 215.224592 
L 203.42577 216.494434 
L 201.029205 214.574337 
L 198.632641 214.270406 
L 196.236077 214.641786 
L 193.839513 212.449845 
L 191.442949 214.951176 
L 189.046385 215.849456 
L 186.649821 214.908071 
L 184.253257 216.141282 
L 181.856693 216.113999 
L 179.460129 215.710221 
L 177.063565 215.380846 
L 174.667001 216.537272 
L 172.270437 215.77082 
L 169.873873 214.269822 
L 167.477309 215.39107 
L 165.080744 210.795643 
L 162.68418 215.972967 
L 160.287616 215.344476 
L 157.891052 213.590873 
L 155.494488 214.322585 
L 153.097924 214.577246 
L 150.70136 215.114991 
L 148.304796 215.179196 
L 145.908232 212.052592 
L 143.511668 213.955258 
L 141.115104 215.543044 
L 138.71854 212.78032 
L 136.321976 213.912099 
L 133.925412 213.876065 
L 131.528848 215.646319 
L 129.132283 216.848707 
L 126.735719 216.275894 
L 124.339155 216.041907 
L 121.942591 217.099642 
L 119.546027 216.89741 
L 117.149463 214.754385 
L 114.752899 213.031593 
L 112.356335 218.70977 
L 109.959771 218.428441 
L 107.563207 216.703146 
L 105.166643 213.844505 
L 102.770079 217.642623 
L 100.373515 218.58664 
L 97.976951 216.818159 
L 95.580387 217.756872 
L 93.183822 215.610187 
L 90.787258 220.166415 
L 88.390694 222.59579 
L 85.99413 218.752886 
L 83.597566 216.47585 
L 81.201002 223.700666 
L 78.804438 221.407668 
L 76.407874 227.786471 
L 74.01131 231.384321 
L 71.614746 234.409045 
L 69.218182 242.116364 
z
" clip-path="url(#pda8f4c848e)" style="fill: #1f77b4"/>
   </g>
   <g id="PolyCollection_2">
    <path d="M 69.218182 218.380487 
L 69.218182 218.380487 
L 71.614746 178.898553 
L 74.01131 174.518895 
L 76.407874 173.501115 
L 78.804438 166.11072 
L 81.201002 166.613795 
L 83.597566 162.864147 
L 85.99413 164.138966 
L 88.390694 169.076086 
L 90.787258 167.976395 
L 93.183822 163.249264 
L 95.580387 164.758698 
L 97.976951 162.727805 
L 100.373515 166.683093 
L 102.770079 164.952354 
L 105.166643 163.604702 
L 107.563207 165.666702 
L 109.959771 164.598913 
L 112.356335 166.735857 
L 114.752899 161.964183 
L 117.149463 160.808268 
L 119.546027 162.289515 
L 121.942591 163.835146 
L 124.339155 162.690524 
L 126.735719 161.757983 
L 129.132283 163.405792 
L 131.528848 162.439305 
L 133.925412 161.348329 
L 136.321976 161.720733 
L 138.71854 161.061372 
L 141.115104 165.179794 
L 143.511668 161.227769 
L 145.908232 160.320181 
L 148.304796 160.999523 
L 150.70136 162.362166 
L 153.097924 160.539466 
L 155.494488 161.570178 
L 157.891052 162.74447 
L 160.287616 161.8813 
L 162.68418 162.080007 
L 165.080744 160.061986 
L 167.477309 161.986626 
L 169.873873 160.423301 
L 172.270437 162.065987 
L 174.667001 163.842758 
L 177.063565 162.049087 
L 179.460129 161.546559 
L 181.856693 163.284263 
L 184.253257 162.14745 
L 186.649821 160.018141 
L 189.046385 161.80919 
L 191.442949 161.589948 
L 193.839513 159.500606 
L 196.236077 162.84971 
L 198.632641 160.753127 
L 201.029205 162.516795 
L 203.42577 163.876849 
L 205.822334 161.560921 
L 208.218898 162.437996 
L 210.615462 161.219574 
L 213.012026 162.44524 
L 215.40859 160.559345 
L 217.805154 162.235447 
L 220.201718 161.728452 
L 222.598282 161.194261 
L 224.994846 163.896299 
L 227.39141 161.858377 
L 229.787974 160.531209 
L 232.184538 160.953146 
L 234.581102 159.670902 
L 236.977666 162.638196 
L 239.37423 161.839755 
L 241.770795 162.219579 
L 244.167359 162.845428 
L 246.563923 161.561695 
L 248.960487 161.578361 
L 251.357051 162.516253 
L 253.753615 162.41762 
L 256.150179 160.85282 
L 258.546743 161.945112 
L 260.943307 159.886969 
L 263.339871 163.172429 
L 265.736435 161.43952 
L 268.132999 161.990385 
L 270.529563 162.268477 
L 272.926127 161.459794 
L 275.322691 161.173559 
L 277.719256 161.104344 
L 280.11582 162.373266 
L 282.512384 160.739551 
L 284.908948 160.802819 
L 287.305512 160.934566 
L 289.702076 160.910497 
L 292.09864 160.475649 
L 294.495204 161.240383 
L 296.891768 161.497095 
L 299.288332 161.12873 
L 301.684896 162.363193 
L 304.08146 160.43119 
L 306.478024 160.287613 
L 308.874588 159.581491 
L 311.271152 161.198467 
L 313.667717 160.636838 
L 316.064281 161.048215 
L 318.460845 161.629145 
L 320.857409 161.622435 
L 323.253973 160.56784 
L 325.650537 161.306784 
L 328.047101 161.853398 
L 330.443665 160.710263 
L 332.840229 161.937004 
L 335.236793 160.161614 
L 337.633357 158.723948 
L 340.029921 159.977555 
L 342.426485 161.536591 
L 344.823049 160.215012 
L 347.219613 161.018943 
L 349.616178 160.96978 
L 352.012742 162.687972 
L 354.409306 160.939952 
L 356.80587 161.65149 
L 359.202434 160.298758 
L 361.598998 160.942825 
L 363.995562 162.049618 
L 366.392126 160.718133 
L 368.78869 160.716833 
L 371.185254 160.90917 
L 373.581818 160.78239 
L 373.581818 160.78239 
L 373.581818 160.78239 
L 371.185254 160.90917 
L 368.78869 160.716833 
L 366.392126 160.718133 
L 363.995562 162.049618 
L 361.598998 160.942825 
L 359.202434 160.298758 
L 356.80587 161.65149 
L 354.409306 160.939952 
L 352.012742 162.687972 
L 349.616178 160.96978 
L 347.219613 161.018943 
L 344.823049 160.215012 
L 342.426485 161.536591 
L 340.029921 159.977555 
L 337.633357 158.723948 
L 335.236793 160.161614 
L 332.840229 161.937004 
L 330.443665 160.710263 
L 328.047101 161.853398 
L 325.650537 161.306784 
L 323.253973 160.56784 
L 320.857409 161.622435 
L 318.460845 161.629145 
L 316.064281 161.048215 
L 313.667717 160.636838 
L 311.271152 161.198467 
L 308.874588 159.581491 
L 306.478024 160.287613 
L 304.08146 160.43119 
L 301.684896 162.363193 
L 299.288332 161.12873 
L 296.891768 161.497095 
L 294.495204 161.240383 
L 292.09864 160.475649 
L 289.702076 160.910497 
L 287.305512 160.934566 
L 284.908948 160.802819 
L 282.512384 160.739551 
L 280.11582 162.373266 
L 277.719256 161.104344 
L 275.322691 161.173559 
L 272.926127 161.459794 
L 270.529563 162.268477 
L 268.132999 161.990385 
L 265.736435 161.43952 
L 263.339871 163.172429 
L 260.943307 159.886969 
L 258.546743 161.945112 
L 256.150179 160.85282 
L 253.753615 162.41762 
L 251.357051 162.516253 
L 248.960487 161.578361 
L 246.563923 161.561695 
L 244.167359 162.845428 
L 241.770795 162.219579 
L 239.37423 161.839755 
L 236.977666 162.638196 
L 234.581102 159.670902 
L 232.184538 160.953146 
L 229.787974 160.531209 
L 227.39141 161.858377 
L 224.994846 163.896299 
L 222.598282 161.194261 
L 220.201718 161.728452 
L 217.805154 162.235447 
L 215.40859 160.559345 
L 213.012026 162.44524 
L 210.615462 161.219574 
L 208.218898 162.437996 
L 205.822334 161.560921 
L 203.42577 163.876849 
L 201.029205 162.516795 
L 198.632641 160.753127 
L 196.236077 162.84971 
L 193.839513 159.500606 
L 191.442949 161.589948 
L 189.046385 161.80919 
L 186.649821 160.018141 
L 184.253257 162.14745 
L 181.856693 163.284263 
L 179.460129 161.546559 
L 177.063565 162.049087 
L 174.667001 163.842758 
L 172.270437 162.065987 
L 169.873873 160.423301 
L 167.477309 161.986626 
L 165.080744 160.061986 
L 162.68418 162.080007 
L 160.287616 161.8813 
L 157.891052 162.74447 
L 155.494488 161.570178 
L 153.097924 160.539466 
L 150.70136 162.362166 
L 148.304796 160.999523 
L 145.908232 160.320181 
L 143.511668 161.227769 
L 141.115104 165.179794 
L 138.71854 161.061372 
L 136.321976 161.720733 
L 133.925412 161.348329 
L 131.528848 162.439305 
L 129.132283 163.405792 
L 126.735719 161.757983 
L 124.339155 162.690524 
L 121.942591 163.835146 
L 119.546027 162.289515 
L 117.149463 160.808268 
L 114.752899 161.964183 
L 112.356335 166.735857 
L 109.959771 164.598913 
L 107.563207 165.666702 
L 105.166643 163.604702 
L 102.770079 164.952354 
L 100.373515 166.683093 
L 97.976951 162.727805 
L 95.580387 164.758698 
L 93.183822 163.249264 
L 90.787258 167.976395 
L 88.390694 169.076086 
L 85.99413 164.138966 
L 83.597566 162.864147 
L 81.201002 166.613795 
L 78.804438 166.11072 
L 76.407874 173.501115 
L 74.01131 174.518895 
L 71.614746 178.898553 
L 69.218182 218.380487 
z
" clip-path="url(#pda8f4c848e)" style="fill: #ff7f0e"/>
   </g>
   <g id="PolyCollection_3">
    <path d="M 69.218182 221.308493 
L 69.218182 221.763293 
L 71.614746 120.555173 
L 74.01131 114.661601 
L 76.407874 110.228258 
L 78.804438 107.722971 
L 81.201002 104.41556 
L 83.597566 104.816614 
L 85.99413 100.958226 
L 88.390694 99.988208 
L 90.787258 28755.761718 
L 93.183822 96.299883 
L 95.580387 96.779891 
L 97.976951 94.937705 
L 100.373515 93.760832 
L 102.770079 92.596034 
L 105.166643 93.037912 
L 107.563207 90.018108 
L 109.959771 90.815201 
L 112.356335 89.333496 
L 114.752899 89.551355 
L 117.149463 89.042549 
L 119.546027 88.377512 
L 121.942591 87.620808 
L 124.339155 85.44098 
L 126.735719 84.532337 
L 129.132283 86.29144 
L 131.528848 86.089202 
L 133.925412 85.917193 
L 136.321976 84.682723 
L 138.71854 84.184652 
L 141.115104 83.237367 
L 143.511668 82.503426 
L 145.908232 81.858376 
L 148.304796 81.305324 
L 150.70136 80.622741 
L 153.097924 80.881297 
L 155.494488 81.247937 
L 157.891052 80.085194 
L 160.287616 80.111085 
L 162.68418 81.089902 
L 165.080744 78.977399 
L 167.477309 79.130371 
L 169.873873 78.465365 
L 172.270437 78.482593 
L 174.667001 77.906648 
L 177.063565 77.686102 
L 179.460129 77.406091 
L 181.856693 76.874807 
L 184.253257 76.592291 
L 186.649821 77.989743 
L 189.046385 76.756526 
L 191.442949 75.185964 
L 193.839513 75.754416 
L 196.236077 74.575591 
L 198.632641 76.076721 
L 201.029205 77.937427 
L 203.42577 76.80443 
L 205.822334 76.541478 
L 208.218898 74.845083 
L 210.615462 74.050449 
L 213.012026 73.807224 
L 215.40859 75.048064 
L 217.805154 72.463802 
L 220.201718 73.213874 
L 222.598282 74.019157 
L 224.994846 73.819486 
L 227.39141 73.545766 
L 229.787974 74.164437 
L 232.184538 74.896033 
L 234.581102 74.105626 
L 236.977666 71.358763 
L 239.37423 71.341209 
L 241.770795 71.382481 
L 244.167359 72.535692 
L 246.563923 71.693671 
L 248.960487 69.893392 
L 251.357051 70.582454 
L 253.753615 71.160527 
L 256.150179 69.403149 
L 258.546743 70.853929 
L 260.943307 69.577679 
L 263.339871 69.829841 
L 265.736435 69.878268 
L 268.132999 69.830897 
L 270.529563 68.820081 
L 272.926127 68.61218 
L 275.322691 69.2415 
L 277.719256 68.625548 
L 280.11582 69.489744 
L 282.512384 69.163857 
L 284.908948 68.956485 
L 287.305512 69.342082 
L 289.702076 68.517887 
L 292.09864 69.882903 
L 294.495204 67.295467 
L 296.891768 69.41262 
L 299.288332 66.63841 
L 301.684896 69.491382 
L 304.08146 67.478906 
L 306.478024 28755.761718 
L 308.874588 68.064726 
L 311.271152 67.474493 
L 313.667717 67.743017 
L 316.064281 68.234421 
L 318.460845 69.181271 
L 320.857409 67.230347 
L 323.253973 66.92195 
L 325.650537 66.531977 
L 328.047101 67.255086 
L 330.443665 67.087736 
L 332.840229 65.737065 
L 335.236793 66.292373 
L 337.633357 67.792013 
L 340.029921 67.544919 
L 342.426485 66.546794 
L 344.823049 65.762464 
L 347.219613 65.000414 
L 349.616178 66.255427 
L 352.012742 66.75262 
L 354.409306 66.801716 
L 356.80587 65.680397 
L 359.202434 66.018007 
L 361.598998 65.000973 
L 363.995562 65.782586 
L 366.392126 65.419891 
L 368.78869 65.227386 
L 371.185254 66.03139 
L 373.581818 64.736083 
L 373.581818 62.722475 
L 373.581818 62.722475 
L 371.185254 64.464738 
L 368.78869 64.139996 
L 366.392126 62.954381 
L 363.995562 64.284957 
L 361.598998 64.110664 
L 359.202434 63.928278 
L 356.80587 64.24625 
L 354.409306 65.719199 
L 352.012742 65.980766 
L 349.616178 65.746325 
L 347.219613 64.298032 
L 344.823049 65.198197 
L 342.426485 65.684325 
L 340.029921 66.188931 
L 337.633357 65.696007 
L 335.236793 65.970927 
L 332.840229 64.79192 
L 330.443665 66.090023 
L 328.047101 65.723666 
L 325.650537 66.156616 
L 323.253973 65.407778 
L 320.857409 66.654264 
L 318.460845 66.817596 
L 316.064281 66.67912 
L 313.667717 67.084 
L 311.271152 66.945452 
L 308.874588 66.507681 
L 306.478024 44.443636 
L 304.08146 67.213217 
L 301.684896 67.058007 
L 299.288332 66.128616 
L 296.891768 66.904336 
L 294.495204 65.964299 
L 292.09864 67.015803 
L 289.702076 67.459753 
L 287.305512 67.836715 
L 284.908948 67.405549 
L 282.512384 67.655591 
L 280.11582 66.157558 
L 277.719256 68.041138 
L 275.322691 68.321456 
L 272.926127 67.795644 
L 270.529563 67.906083 
L 268.132999 67.995757 
L 265.736435 68.892109 
L 263.339871 68.816631 
L 260.943307 67.324608 
L 258.546743 69.348358 
L 256.150179 69.086933 
L 253.753615 69.882516 
L 251.357051 68.867461 
L 248.960487 69.153075 
L 246.563923 69.111452 
L 244.167359 69.897441 
L 241.770795 70.494475 
L 239.37423 70.07817 
L 236.977666 69.511449 
L 234.581102 70.338753 
L 232.184538 71.517458 
L 229.787974 71.27402 
L 227.39141 72.43938 
L 224.994846 71.715766 
L 222.598282 72.028625 
L 220.201718 71.692788 
L 217.805154 72.169842 
L 215.40859 71.711218 
L 213.012026 72.422539 
L 210.615462 73.402342 
L 208.218898 73.055598 
L 205.822334 74.546289 
L 203.42577 74.936252 
L 201.029205 75.966059 
L 198.632641 75.715765 
L 196.236077 74.370357 
L 193.839513 75.156732 
L 191.442949 73.94582 
L 189.046385 76.21508 
L 186.649821 76.074119 
L 184.253257 75.862858 
L 181.856693 76.072394 
L 179.460129 75.646249 
L 177.063565 75.834727 
L 174.667001 77.052709 
L 172.270437 76.199031 
L 169.873873 78.006339 
L 167.477309 77.970031 
L 165.080744 78.256185 
L 162.68418 78.539852 
L 160.287616 76.852746 
L 157.891052 79.25165 
L 155.494488 78.392781 
L 153.097924 80.215179 
L 150.70136 80.332276 
L 148.304796 79.805449 
L 145.908232 81.296828 
L 143.511668 80.629349 
L 141.115104 81.391862 
L 138.71854 82.84939 
L 136.321976 84.319675 
L 133.925412 84.259683 
L 131.528848 84.212483 
L 129.132283 83.24539 
L 126.735719 83.041272 
L 124.339155 83.907014 
L 121.942591 86.335505 
L 119.546027 86.924228 
L 117.149463 87.884756 
L 114.752899 88.513071 
L 112.356335 88.128078 
L 109.959771 88.727873 
L 107.563207 89.373111 
L 105.166643 91.165201 
L 102.770079 91.427389 
L 100.373515 93.213502 
L 97.976951 93.804944 
L 95.580387 95.081305 
L 93.183822 95.579081 
L 90.787258 78.144071 
L 88.390694 98.977168 
L 85.99413 100.643351 
L 83.597566 102.780789 
L 81.201002 103.563723 
L 78.804438 106.61885 
L 76.407874 109.745775 
L 74.01131 113.507376 
L 71.614746 120.293981 
L 69.218182 221.308493 
z
" clip-path="url(#pda8f4c848e)" style="fill: #2ca02c"/>
   </g>
   <g id="matplotlib.axis_1">
    <g id="xtick_1">
     <g id="line2d_1">
      <defs>
       <path id="m6f698976e0" d="M 0 0 
L 0 3.5 
" style="stroke: #000000; stroke-width: 0.8"/>
      </defs>
      <g>
       <use xlink:href="#m6f698976e0" x="69.218182" y="252" style="stroke: #000000; stroke-width: 0.8"/>
      </g>
     </g>
     <g id="text_1">
      <!-- 1 -->
      <g transform="translate(66.036932 266.598437)scale(0.1 -0.1)">
       <defs>
        <path id="DejaVuSans-31" d="M 794 531 
L 1825 531 
L 1825 4091 
L 703 3866 
L 703 4441 
L 1819 4666 
L 2450 4666 
L 2450 531 
L 3481 531 
L 3481 0 
L 794 0 
L 794 531 
z
" transform="scale(0.015625)"/>
       </defs>
       <use xlink:href="#DejaVuSans-31"/>
      </g>
     </g>
    </g>
    <g id="xtick_2">
     <g id="line2d_2">
      <g>
       <use xlink:href="#m6f698976e0" x="90.787258" y="252" style="stroke: #000000; stroke-width: 0.8"/>
      </g>
     </g>
     <g id="text_2">
      <!-- 19 -->
      <g transform="translate(84.424758 266.598437)scale(0.1 -0.1)">
       <defs>
        <path id="DejaVuSans-39" d="M 703 97 
L 703 672 
Q 941 559 1184 500 
Q 1428 441 1663 441 
Q 2288 441 2617 861 
Q 2947 1281 2994 2138 
Q 2813 1869 2534 1725 
Q 2256 1581 1919 1581 
Q 1219 1581 811 2004 
Q 403 2428 403 3163 
Q 403 3881 828 4315 
Q 1253 4750 1959 4750 
Q 2769 4750 3195 4129 
Q 3622 3509 3622 2328 
Q 3622 1225 3098 567 
Q 2575 -91 1691 -91 
Q 1453 -91 1209 -44 
Q 966 3 703 97 
z
M 1959 2075 
Q 2384 2075 2632 2365 
Q 2881 2656 2881 3163 
Q 2881 3666 2632 3958 
Q 2384 4250 1959 4250 
Q 1534 4250 1286 3958 
Q 1038 3666 1038 3163 
Q 1038 2656 1286 2365 
Q 1534 2075 1959 2075 
z
" transform="scale(0.015625)"/>
       </defs>
       <use xlink:href="#DejaVuSans-31"/>
       <use xlink:href="#DejaVuSans-39" x="63.623047"/>
      </g>
     </g>
    </g>
    <g id="xtick_3">
     <g id="line2d_3">
      <g>
       <use xlink:href="#m6f698976e0" x="112.356335" y="252" style="stroke: #000000; stroke-width: 0.8"/>
      </g>
     </g>
     <g id="text_3">
      <!-- 37 -->
      <g transform="translate(105.993835 266.598437)scale(0.1 -0.1)">
       <defs>
        <path id="DejaVuSans-33" d="M 2597 2516 
Q 3050 2419 3304 2112 
Q 3559 1806 3559 1356 
Q 3559 666 3084 287 
Q 2609 -91 1734 -91 
Q 1441 -91 1130 -33 
Q 819 25 488 141 
L 488 750 
Q 750 597 1062 519 
Q 1375 441 1716 441 
Q 2309 441 2620 675 
Q 2931 909 2931 1356 
Q 2931 1769 2642 2001 
Q 2353 2234 1838 2234 
L 1294 2234 
L 1294 2753 
L 1863 2753 
Q 2328 2753 2575 2939 
Q 2822 3125 2822 3475 
Q 2822 3834 2567 4026 
Q 2313 4219 1838 4219 
Q 1578 4219 1281 4162 
Q 984 4106 628 3988 
L 628 4550 
Q 988 4650 1302 4700 
Q 1616 4750 1894 4750 
Q 2613 4750 3031 4423 
Q 3450 4097 3450 3541 
Q 3450 3153 3228 2886 
Q 3006 2619 2597 2516 
z
" transform="scale(0.015625)"/>
        <path id="DejaVuSans-37" d="M 525 4666 
L 3525 4666 
L 3525 4397 
L 1831 0 
L 1172 0 
L 2766 4134 
L 525 4134 
L 525 4666 
z
" transform="scale(0.015625)"/>
       </defs>
       <use xlink:href="#DejaVuSans-33"/>
       <use xlink:href="#DejaVuSans-37" x="63.623047"/>
      </g>
     </g>
    </g>
    <g id="xtick_4">
     <g id="line2d_4">
      <g>
       <use xlink:href="#m6f698976e0" x="133.925412" y="252" style="stroke: #000000; stroke-width: 0.8"/>
      </g>
     </g>
     <g id="text_4">
      <!-- 55 -->
      <g transform="translate(127.562912 266.598437)scale(0.1 -0.1)">
       <defs>
        <path id="DejaVuSans-35" d="M 691 4666 
L 3169 4666 
L 3169 4134 
L 1269 4134 
L 1269 2991 
Q 1406 3038 1543 3061 
Q 1681 3084 1819 3084 
Q 2600 3084 3056 2656 
Q 3513 2228 3513 1497 
Q 3513 744 3044 326 
Q 2575 -91 1722 -91 
Q 1428 -91 1123 -41 
Q 819 9 494 109 
L 494 744 
Q 775 591 1075 516 
Q 1375 441 1709 441 
Q 2250 441 2565 725 
Q 2881 1009 2881 1497 
Q 2881 1984 2565 2268 
Q 2250 2553 1709 2553 
Q 1456 2553 1204 2497 
Q 953 2441 691 2322 
L 691 4666 
z
" transform="scale(0.015625)"/>
       </defs>
       <use xlink:href="#DejaVuSans-35"/>
       <use xlink:href="#DejaVuSans-35" x="63.623047"/>
      </g>
     </g>
    </g>
    <g id="xtick_5">
     <g id="line2d_5">
      <g>
       <use xlink:href="#m6f698976e0" x="155.494488" y="252" style="stroke: #000000; stroke-width: 0.8"/>
      </g>
     </g>
     <g id="text_5">
      <!-- 73 -->
      <g transform="translate(149.131988 266.598437)scale(0.1 -0.1)">
       <use xlink:href="#DejaVuSans-37"/>
       <use xlink:href="#DejaVuSans-33" x="63.623047"/>
      </g>
     </g>
    </g>
    <g id="xtick_6">
     <g id="line2d_6">
      <g>
       <use xlink:href="#m6f698976e0" x="177.063565" y="252" style="stroke: #000000; stroke-width: 0.8"/>
      </g>
     </g>
     <g id="text_6">
      <!-- 91 -->
      <g transform="translate(170.701065 266.598437)scale(0.1 -0.1)">
       <use xlink:href="#DejaVuSans-39"/>
       <use xlink:href="#DejaVuSans-31" x="63.623047"/>
      </g>
     </g>
    </g>
    <g id="xtick_7">
     <g id="line2d_7">
      <g>
       <use xlink:href="#m6f698976e0" x="198.632641" y="252" style="stroke: #000000; stroke-width: 0.8"/>
      </g>
     </g>
     <g id="text_7">
      <!-- 109 -->
      <g transform="translate(189.088891 266.598437)scale(0.1 -0.1)">
       <defs>
        <path id="DejaVuSans-30" d="M 2034 4250 
Q 1547 4250 1301 3770 
Q 1056 3291 1056 2328 
Q 1056 1369 1301 889 
Q 1547 409 2034 409 
Q 2525 409 2770 889 
Q 3016 1369 3016 2328 
Q 3016 3291 2770 3770 
Q 2525 4250 2034 4250 
z
M 2034 4750 
Q 2819 4750 3233 4129 
Q 3647 3509 3647 2328 
Q 3647 1150 3233 529 
Q 2819 -91 2034 -91 
Q 1250 -91 836 529 
Q 422 1150 422 2328 
Q 422 3509 836 4129 
Q 1250 4750 2034 4750 
z
" transform="scale(0.015625)"/>
       </defs>
       <use xlink:href="#DejaVuSans-31"/>
       <use xlink:href="#DejaVuSans-30" x="63.623047"/>
       <use xlink:href="#DejaVuSans-39" x="127.246094"/>
      </g>
     </g>
    </g>
    <g id="xtick_8">
     <g id="line2d_8">
      <g>
       <use xlink:href="#m6f698976e0" x="220.201718" y="252" style="stroke: #000000; stroke-width: 0.8"/>
      </g>
     </g>
     <g id="text_8">
      <!-- 127 -->
      <g transform="translate(210.657968 266.598437)scale(0.1 -0.1)">
       <defs>
        <path id="DejaVuSans-32" d="M 1228 531 
L 3431 531 
L 3431 0 
L 469 0 
L 469 531 
Q 828 903 1448 1529 
Q 2069 2156 2228 2338 
Q 2531 2678 2651 2914 
Q 2772 3150 2772 3378 
Q 2772 3750 2511 3984 
Q 2250 4219 1831 4219 
Q 1534 4219 1204 4116 
Q 875 4013 500 3803 
L 500 4441 
Q 881 4594 1212 4672 
Q 1544 4750 1819 4750 
Q 2544 4750 2975 4387 
Q 3406 4025 3406 3419 
Q 3406 3131 3298 2873 
Q 3191 2616 2906 2266 
Q 2828 2175 2409 1742 
Q 1991 1309 1228 531 
z
" transform="scale(0.015625)"/>
       </defs>
       <use xlink:href="#DejaVuSans-31"/>
       <use xlink:href="#DejaVuSans-32" x="63.623047"/>
       <use xlink:href="#DejaVuSans-37" x="127.246094"/>
      </g>
     </g>
    </g>
    <g id="xtick_9">
     <g id="line2d_9">
      <g>
       <use xlink:href="#m6f698976e0" x="241.770795" y="252" style="stroke: #000000; stroke-width: 0.8"/>
      </g>
     </g>
     <g id="text_9">
      <!-- 145 -->
      <g transform="translate(232.227045 266.598437)scale(0.1 -0.1)">
       <defs>
        <path id="DejaVuSans-34" d="M 2419 4116 
L 825 1625 
L 2419 1625 
L 2419 4116 
z
M 2253 4666 
L 3047 4666 
L 3047 1625 
L 3713 1625 
L 3713 1100 
L 3047 1100 
L 3047 0 
L 2419 0 
L 2419 1100 
L 313 1100 
L 313 1709 
L 2253 4666 
z
" transform="scale(0.015625)"/>
       </defs>
       <use xlink:href="#DejaVuSans-31"/>
       <use xlink:href="#DejaVuSans-34" x="63.623047"/>
       <use xlink:href="#DejaVuSans-35" x="127.246094"/>
      </g>
     </g>
    </g>
    <g id="xtick_10">
     <g id="line2d_10">
      <g>
       <use xlink:href="#m6f698976e0" x="263.339871" y="252" style="stroke: #000000; stroke-width: 0.8"/>
      </g>
     </g>
     <g id="text_10">
      <!-- 163 -->
      <g transform="translate(253.796121 266.598437)scale(0.1 -0.1)">
       <defs>
        <path id="DejaVuSans-36" d="M 2113 2584 
Q 1688 2584 1439 2293 
Q 1191 2003 1191 1497 
Q 1191 994 1439 701 
Q 1688 409 2113 409 
Q 2538 409 2786 701 
Q 3034 994 3034 1497 
Q 3034 2003 2786 2293 
Q 2538 2584 2113 2584 
z
M 3366 4563 
L 3366 3988 
Q 3128 4100 2886 4159 
Q 2644 4219 2406 4219 
Q 1781 4219 1451 3797 
Q 1122 3375 1075 2522 
Q 1259 2794 1537 2939 
Q 1816 3084 2150 3084 
Q 2853 3084 3261 2657 
Q 3669 2231 3669 1497 
Q 3669 778 3244 343 
Q 2819 -91 2113 -91 
Q 1303 -91 875 529 
Q 447 1150 447 2328 
Q 447 3434 972 4092 
Q 1497 4750 2381 4750 
Q 2619 4750 2861 4703 
Q 3103 4656 3366 4563 
z
" transform="scale(0.015625)"/>
       </defs>
       <use xlink:href="#DejaVuSans-31"/>
       <use xlink:href="#DejaVuSans-36" x="63.623047"/>
       <use xlink:href="#DejaVuSans-33" x="127.246094"/>
      </g>
     </g>
    </g>
    <g id="xtick_11">
     <g id="line2d_11">
      <g>
       <use xlink:href="#m6f698976e0" x="284.908948" y="252" style="stroke: #000000; stroke-width: 0.8"/>
      </g>
     </g>
     <g id="text_11">
      <!-- 181 -->
      <g transform="translate(275.365198 266.598437)scale(0.1 -0.1)">
       <defs>
        <path id="DejaVuSans-38" d="M 2034 2216 
Q 1584 2216 1326 1975 
Q 1069 1734 1069 1313 
Q 1069 891 1326 650 
Q 1584 409 2034 409 
Q 2484 409 2743 651 
Q 3003 894 3003 1313 
Q 3003 1734 2745 1975 
Q 2488 2216 2034 2216 
z
M 1403 2484 
Q 997 2584 770 2862 
Q 544 3141 544 3541 
Q 544 4100 942 4425 
Q 1341 4750 2034 4750 
Q 2731 4750 3128 4425 
Q 3525 4100 3525 3541 
Q 3525 3141 3298 2862 
Q 3072 2584 2669 2484 
Q 3125 2378 3379 2068 
Q 3634 1759 3634 1313 
Q 3634 634 3220 271 
Q 2806 -91 2034 -91 
Q 1263 -91 848 271 
Q 434 634 434 1313 
Q 434 1759 690 2068 
Q 947 2378 1403 2484 
z
M 1172 3481 
Q 1172 3119 1398 2916 
Q 1625 2713 2034 2713 
Q 2441 2713 2670 2916 
Q 2900 3119 2900 3481 
Q 2900 3844 2670 4047 
Q 2441 4250 2034 4250 
Q 1625 4250 1398 4047 
Q 1172 3844 1172 3481 
z
" transform="scale(0.015625)"/>
       </defs>
       <use xlink:href="#DejaVuSans-31"/>
       <use xlink:href="#DejaVuSans-38" x="63.623047"/>
       <use xlink:href="#DejaVuSans-31" x="127.246094"/>
      </g>
     </g>
    </g>
    <g id="xtick_12">
     <g id="line2d_12">
      <g>
       <use xlink:href="#m6f698976e0" x="306.478024" y="252" style="stroke: #000000; stroke-width: 0.8"/>
      </g>
     </g>
     <g id="text_12">
      <!-- 199 -->
      <g transform="translate(296.934274 266.598437)scale(0.1 -0.1)">
       <use xlink:href="#DejaVuSans-31"/>
       <use xlink:href="#DejaVuSans-39" x="63.623047"/>
       <use xlink:href="#DejaVuSans-39" x="127.246094"/>
      </g>
     </g>
    </g>
    <g id="xtick_13">
     <g id="line2d_13">
      <g>
       <use xlink:href="#m6f698976e0" x="328.047101" y="252" style="stroke: #000000; stroke-width: 0.8"/>
      </g>
     </g>
     <g id="text_13">
      <!-- 217 -->
      <g transform="translate(318.503351 266.598437)scale(0.1 -0.1)">
       <use xlink:href="#DejaVuSans-32"/>
       <use xlink:href="#DejaVuSans-31" x="63.623047"/>
       <use xlink:href="#DejaVuSans-37" x="127.246094"/>
      </g>
     </g>
    </g>
    <g id="xtick_14">
     <g id="line2d_14">
      <g>
       <use xlink:href="#m6f698976e0" x="349.616178" y="252" style="stroke: #000000; stroke-width: 0.8"/>
      </g>
     </g>
     <g id="text_14">
      <!-- 235 -->
      <g transform="translate(340.072428 266.598437)scale(0.1 -0.1)">
       <use xlink:href="#DejaVuSans-32"/>
       <use xlink:href="#DejaVuSans-33" x="63.623047"/>
       <use xlink:href="#DejaVuSans-35" x="127.246094"/>
      </g>
     </g>
    </g>
    <g id="xtick_15">
     <g id="line2d_15">
      <g>
       <use xlink:href="#m6f698976e0" x="371.185254" y="252" style="stroke: #000000; stroke-width: 0.8"/>
      </g>
     </g>
     <g id="text_15">
      <!-- 253 -->
      <g transform="translate(361.641504 266.598437)scale(0.1 -0.1)">
       <use xlink:href="#DejaVuSans-32"/>
       <use xlink:href="#DejaVuSans-35" x="63.623047"/>
       <use xlink:href="#DejaVuSans-33" x="127.246094"/>
      </g>
     </g>
    </g>
    <g id="text_16">
     <!-- Program size -->
     <g transform="translate(189.022656 280.276563)scale(0.1 -0.1)">
      <defs>
       <path id="DejaVuSans-50" d="M 1259 4147 
L 1259 2394 
L 2053 2394 
Q 2494 2394 2734 2622 
Q 2975 2850 2975 3272 
Q 2975 3691 2734 3919 
Q 2494 4147 2053 4147 
L 1259 4147 
z
M 628 4666 
L 2053 4666 
Q 2838 4666 3239 4311 
Q 3641 3956 3641 3272 
Q 3641 2581 3239 2228 
Q 2838 1875 2053 1875 
L 1259 1875 
L 1259 0 
L 628 0 
L 628 4666 
z
" transform="scale(0.015625)"/>
       <path id="DejaVuSans-72" d="M 2631 2963 
Q 2534 3019 2420 3045 
Q 2306 3072 2169 3072 
Q 1681 3072 1420 2755 
Q 1159 2438 1159 1844 
L 1159 0 
L 581 0 
L 581 3500 
L 1159 3500 
L 1159 2956 
Q 1341 3275 1631 3429 
Q 1922 3584 2338 3584 
Q 2397 3584 2469 3576 
Q 2541 3569 2628 3553 
L 2631 2963 
z
" transform="scale(0.015625)"/>
       <path id="DejaVuSans-6f" d="M 1959 3097 
Q 1497 3097 1228 2736 
Q 959 2375 959 1747 
Q 959 1119 1226 758 
Q 1494 397 1959 397 
Q 2419 397 2687 759 
Q 2956 1122 2956 1747 
Q 2956 2369 2687 2733 
Q 2419 3097 1959 3097 
z
M 1959 3584 
Q 2709 3584 3137 3096 
Q 3566 2609 3566 1747 
Q 3566 888 3137 398 
Q 2709 -91 1959 -91 
Q 1206 -91 779 398 
Q 353 888 353 1747 
Q 353 2609 779 3096 
Q 1206 3584 1959 3584 
z
" transform="scale(0.015625)"/>
       <path id="DejaVuSans-67" d="M 2906 1791 
Q 2906 2416 2648 2759 
Q 2391 3103 1925 3103 
Q 1463 3103 1205 2759 
Q 947 2416 947 1791 
Q 947 1169 1205 825 
Q 1463 481 1925 481 
Q 2391 481 2648 825 
Q 2906 1169 2906 1791 
z
M 3481 434 
Q 3481 -459 3084 -895 
Q 2688 -1331 1869 -1331 
Q 1566 -1331 1297 -1286 
Q 1028 -1241 775 -1147 
L 775 -588 
Q 1028 -725 1275 -790 
Q 1522 -856 1778 -856 
Q 2344 -856 2625 -561 
Q 2906 -266 2906 331 
L 2906 616 
Q 2728 306 2450 153 
Q 2172 0 1784 0 
Q 1141 0 747 490 
Q 353 981 353 1791 
Q 353 2603 747 3093 
Q 1141 3584 1784 3584 
Q 2172 3584 2450 3431 
Q 2728 3278 2906 2969 
L 2906 3500 
L 3481 3500 
L 3481 434 
z
" transform="scale(0.015625)"/>
       <path id="DejaVuSans-61" d="M 2194 1759 
Q 1497 1759 1228 1600 
Q 959 1441 959 1056 
Q 959 750 1161 570 
Q 1363 391 1709 391 
Q 2188 391 2477 730 
Q 2766 1069 2766 1631 
L 2766 1759 
L 2194 1759 
z
M 3341 1997 
L 3341 0 
L 2766 0 
L 2766 531 
Q 2569 213 2275 61 
Q 1981 -91 1556 -91 
Q 1019 -91 701 211 
Q 384 513 384 1019 
Q 384 1609 779 1909 
Q 1175 2209 1959 2209 
L 2766 2209 
L 2766 2266 
Q 2766 2663 2505 2880 
Q 2244 3097 1772 3097 
Q 1472 3097 1187 3025 
Q 903 2953 641 2809 
L 641 3341 
Q 956 3463 1253 3523 
Q 1550 3584 1831 3584 
Q 2591 3584 2966 3190 
Q 3341 2797 3341 1997 
z
" transform="scale(0.015625)"/>
       <path id="DejaVuSans-6d" d="M 3328 2828 
Q 3544 3216 3844 3400 
Q 4144 3584 4550 3584 
Q 5097 3584 5394 3201 
Q 5691 2819 5691 2113 
L 5691 0 
L 5113 0 
L 5113 2094 
Q 5113 2597 4934 2840 
Q 4756 3084 4391 3084 
Q 3944 3084 3684 2787 
Q 3425 2491 3425 1978 
L 3425 0 
L 2847 0 
L 2847 2094 
Q 2847 2600 2669 2842 
Q 2491 3084 2119 3084 
Q 1678 3084 1418 2786 
Q 1159 2488 1159 1978 
L 1159 0 
L 581 0 
L 581 3500 
L 1159 3500 
L 1159 2956 
Q 1356 3278 1631 3431 
Q 1906 3584 2284 3584 
Q 2666 3584 2933 3390 
Q 3200 3197 3328 2828 
z
" transform="scale(0.015625)"/>
       <path id="DejaVuSans-20" transform="scale(0.015625)"/>
       <path id="DejaVuSans-73" d="M 2834 3397 
L 2834 2853 
Q 2591 2978 2328 3040 
Q 2066 3103 1784 3103 
Q 1356 3103 1142 2972 
Q 928 2841 928 2578 
Q 928 2378 1081 2264 
Q 1234 2150 1697 2047 
L 1894 2003 
Q 2506 1872 2764 1633 
Q 3022 1394 3022 966 
Q 3022 478 2636 193 
Q 2250 -91 1575 -91 
Q 1294 -91 989 -36 
Q 684 19 347 128 
L 347 722 
Q 666 556 975 473 
Q 1284 391 1588 391 
Q 1994 391 2212 530 
Q 2431 669 2431 922 
Q 2431 1156 2273 1281 
Q 2116 1406 1581 1522 
L 1381 1569 
Q 847 1681 609 1914 
Q 372 2147 372 2553 
Q 372 3047 722 3315 
Q 1072 3584 1716 3584 
Q 2034 3584 2315 3537 
Q 2597 3491 2834 3397 
z
" transform="scale(0.015625)"/>
       <path id="DejaVuSans-69" d="M 603 3500 
L 1178 3500 
L 1178 0 
L 603 0 
L 603 3500 
z
M 603 4863 
L 1178 4863 
L 1178 4134 
L 603 4134 
L 603 4863 
z
" transform="scale(0.015625)"/>
       <path id="DejaVuSans-7a" d="M 353 3500 
L 3084 3500 
L 3084 2975 
L 922 459 
L 3084 459 
L 3084 0 
L 275 0 
L 275 525 
L 2438 3041 
L 353 3041 
L 353 3500 
z
" transform="scale(0.015625)"/>
       <path id="DejaVuSans-65" d="M 3597 1894 
L 3597 1613 
L 953 1613 
Q 991 1019 1311 708 
Q 1631 397 2203 397 
Q 2534 397 2845 478 
Q 3156 559 3463 722 
L 3463 178 
Q 3153 47 2828 -22 
Q 2503 -91 2169 -91 
Q 1331 -91 842 396 
Q 353 884 353 1716 
Q 353 2575 817 3079 
Q 1281 3584 2069 3584 
Q 2775 3584 3186 3129 
Q 3597 2675 3597 1894 
z
M 3022 2063 
Q 3016 2534 2758 2815 
Q 2500 3097 2075 3097 
Q 1594 3097 1305 2825 
Q 1016 2553 972 2059 
L 3022 2063 
z
" transform="scale(0.015625)"/>
      </defs>
      <use xlink:href="#DejaVuSans-50"/>
      <use xlink:href="#DejaVuSans-72" x="58.552734"/>
      <use xlink:href="#DejaVuSans-6f" x="97.416016"/>
      <use xlink:href="#DejaVuSans-67" x="158.597656"/>
      <use xlink:href="#DejaVuSans-72" x="222.074219"/>
      <use xlink:href="#DejaVuSans-61" x="263.1875"/>
      <use xlink:href="#DejaVuSans-6d" x="324.466797"/>
      <use xlink:href="#DejaVuSans-20" x="421.878906"/>
      <use xlink:href="#DejaVuSans-73" x="453.666016"/>
      <use xlink:href="#DejaVuSans-69" x="505.765625"/>
      <use xlink:href="#DejaVuSans-7a" x="533.548828"/>
      <use xlink:href="#DejaVuSans-65" x="586.039062"/>
     </g>
    </g>
   </g>
   <g id="matplotlib.axis_2">
    <g id="ytick_1">
     <g id="line2d_16">
      <defs>
       <path id="m3bcb07e9ec" d="M 0 0 
L -3.5 0 
" style="stroke: #000000; stroke-width: 0.8"/>
      </defs>
      <g>
       <use xlink:href="#m3bcb07e9ec" x="54" y="248.925728" style="stroke: #000000; stroke-width: 0.8"/>
      </g>
     </g>
     <g id="text_17">
      <!-- $\mathdefault{10^{8}}$ -->
      <g transform="translate(29.4 252.724947)scale(0.1 -0.1)">
       <use xlink:href="#DejaVuSans-31" transform="translate(0 0.765625)"/>
       <use xlink:href="#DejaVuSans-30" transform="translate(63.623047 0.765625)"/>
       <use xlink:href="#DejaVuSans-38" transform="translate(128.203125 39.046875)scale(0.7)"/>
      </g>
     </g>
    </g>
    <g id="ytick_2">
     <g id="line2d_17">
      <g>
       <use xlink:href="#m3bcb07e9ec" x="54" y="220.645137" style="stroke: #000000; stroke-width: 0.8"/>
      </g>
     </g>
     <g id="text_18">
      <!-- $\mathdefault{10^{9}}$ -->
      <g transform="translate(29.4 224.444356)scale(0.1 -0.1)">
       <use xlink:href="#DejaVuSans-31" transform="translate(0 0.765625)"/>
       <use xlink:href="#DejaVuSans-30" transform="translate(63.623047 0.765625)"/>
       <use xlink:href="#DejaVuSans-39" transform="translate(128.203125 39.046875)scale(0.7)"/>
      </g>
     </g>
    </g>
    <g id="ytick_3">
     <g id="line2d_18">
      <g>
       <use xlink:href="#m3bcb07e9ec" x="54" y="192.364546" style="stroke: #000000; stroke-width: 0.8"/>
      </g>
     </g>
     <g id="text_19">
      <!-- $\mathdefault{10^{10}}$ -->
      <g transform="translate(24.9 196.163764)scale(0.1 -0.1)">
       <use xlink:href="#DejaVuSans-31" transform="translate(0 0.765625)"/>
       <use xlink:href="#DejaVuSans-30" transform="translate(63.623047 0.765625)"/>
       <use xlink:href="#DejaVuSans-31" transform="translate(128.203125 39.046875)scale(0.7)"/>
       <use xlink:href="#DejaVuSans-30" transform="translate(172.739258 39.046875)scale(0.7)"/>
      </g>
     </g>
    </g>
    <g id="ytick_4">
     <g id="line2d_19">
      <g>
       <use xlink:href="#m3bcb07e9ec" x="54" y="164.083954" style="stroke: #000000; stroke-width: 0.8"/>
      </g>
     </g>
     <g id="text_20">
      <!-- $\mathdefault{10^{11}}$ -->
      <g transform="translate(24.9 167.883173)scale(0.1 -0.1)">
       <use xlink:href="#DejaVuSans-31" transform="translate(0 0.684375)"/>
       <use xlink:href="#DejaVuSans-30" transform="translate(63.623047 0.684375)"/>
       <use xlink:href="#DejaVuSans-31" transform="translate(128.203125 38.965625)scale(0.7)"/>
       <use xlink:href="#DejaVuSans-31" transform="translate(172.739258 38.965625)scale(0.7)"/>
      </g>
     </g>
    </g>
    <g id="ytick_5">
     <g id="line2d_20">
      <g>
       <use xlink:href="#m3bcb07e9ec" x="54" y="135.803363" style="stroke: #000000; stroke-width: 0.8"/>
      </g>
     </g>
     <g id="text_21">
      <!-- $\mathdefault{10^{12}}$ -->
      <g transform="translate(24.9 139.602582)scale(0.1 -0.1)">
       <use xlink:href="#DejaVuSans-31" transform="translate(0 0.765625)"/>
       <use xlink:href="#DejaVuSans-30" transform="translate(63.623047 0.765625)"/>
       <use xlink:href="#DejaVuSans-31" transform="translate(128.203125 39.046875)scale(0.7)"/>
       <use xlink:href="#DejaVuSans-32" transform="translate(172.739258 39.046875)scale(0.7)"/>
      </g>
     </g>
    </g>
    <g id="ytick_6">
     <g id="line2d_21">
      <g>
       <use xlink:href="#m3bcb07e9ec" x="54" y="107.522772" style="stroke: #000000; stroke-width: 0.8"/>
      </g>
     </g>
     <g id="text_22">
      <!-- $\mathdefault{10^{13}}$ -->
      <g transform="translate(24.9 111.321991)scale(0.1 -0.1)">
       <use xlink:href="#DejaVuSans-31" transform="translate(0 0.765625)"/>
       <use xlink:href="#DejaVuSans-30" transform="translate(63.623047 0.765625)"/>
       <use xlink:href="#DejaVuSans-31" transform="translate(128.203125 39.046875)scale(0.7)"/>
       <use xlink:href="#DejaVuSans-33" transform="translate(172.739258 39.046875)scale(0.7)"/>
      </g>
     </g>
    </g>
    <g id="ytick_7">
     <g id="line2d_22">
      <g>
       <use xlink:href="#m3bcb07e9ec" x="54" y="79.242181" style="stroke: #000000; stroke-width: 0.8"/>
      </g>
     </g>
     <g id="text_23">
      <!-- $\mathdefault{10^{14}}$ -->
      <g transform="translate(24.9 83.041399)scale(0.1 -0.1)">
       <use xlink:href="#DejaVuSans-31" transform="translate(0 0.684375)"/>
       <use xlink:href="#DejaVuSans-30" transform="translate(63.623047 0.684375)"/>
       <use xlink:href="#DejaVuSans-31" transform="translate(128.203125 38.965625)scale(0.7)"/>
       <use xlink:href="#DejaVuSans-34" transform="translate(172.739258 38.965625)scale(0.7)"/>
      </g>
     </g>
    </g>
    <g id="ytick_8">
     <g id="line2d_23">
      <g>
       <use xlink:href="#m3bcb07e9ec" x="54" y="50.961589" style="stroke: #000000; stroke-width: 0.8"/>
      </g>
     </g>
     <g id="text_24">
      <!-- $\mathdefault{10^{15}}$ -->
      <g transform="translate(24.9 54.760808)scale(0.1 -0.1)">
       <use xlink:href="#DejaVuSans-31" transform="translate(0 0.684375)"/>
       <use xlink:href="#DejaVuSans-30" transform="translate(63.623047 0.684375)"/>
       <use xlink:href="#DejaVuSans-31" transform="translate(128.203125 38.965625)scale(0.7)"/>
       <use xlink:href="#DejaVuSans-35" transform="translate(172.739258 38.965625)scale(0.7)"/>
      </g>
     </g>
    </g>
    <g id="ytick_9">
     <g id="line2d_24">
      <defs>
       <path id="m7c4ff05433" d="M 0 0 
L -2 0 
" style="stroke: #000000; stroke-width: 0.6"/>
      </defs>
      <g>
       <use xlink:href="#m7c4ff05433" x="54" y="251.666401" style="stroke: #000000; stroke-width: 0.6"/>
      </g>
     </g>
    </g>
    <g id="ytick_10">
     <g id="line2d_25">
      <g>
       <use xlink:href="#m7c4ff05433" x="54" y="250.219777" style="stroke: #000000; stroke-width: 0.6"/>
      </g>
     </g>
    </g>
    <g id="ytick_11">
     <g id="line2d_26">
      <g>
       <use xlink:href="#m7c4ff05433" x="54" y="240.412422" style="stroke: #000000; stroke-width: 0.6"/>
      </g>
     </g>
    </g>
    <g id="ytick_12">
     <g id="line2d_27">
      <g>
       <use xlink:href="#m7c4ff05433" x="54" y="235.432457" style="stroke: #000000; stroke-width: 0.6"/>
      </g>
     </g>
    </g>
    <g id="ytick_13">
     <g id="line2d_28">
      <g>
       <use xlink:href="#m7c4ff05433" x="54" y="231.899116" style="stroke: #000000; stroke-width: 0.6"/>
      </g>
     </g>
    </g>
    <g id="ytick_14">
     <g id="line2d_29">
      <g>
       <use xlink:href="#m7c4ff05433" x="54" y="229.158443" style="stroke: #000000; stroke-width: 0.6"/>
      </g>
     </g>
    </g>
    <g id="ytick_15">
     <g id="line2d_30">
      <g>
       <use xlink:href="#m7c4ff05433" x="54" y="226.919151" style="stroke: #000000; stroke-width: 0.6"/>
      </g>
     </g>
    </g>
    <g id="ytick_16">
     <g id="line2d_31">
      <g>
       <use xlink:href="#m7c4ff05433" x="54" y="225.025856" style="stroke: #000000; stroke-width: 0.6"/>
      </g>
     </g>
    </g>
    <g id="ytick_17">
     <g id="line2d_32">
      <g>
       <use xlink:href="#m7c4ff05433" x="54" y="223.385809" style="stroke: #000000; stroke-width: 0.6"/>
      </g>
     </g>
    </g>
    <g id="ytick_18">
     <g id="line2d_33">
      <g>
       <use xlink:href="#m7c4ff05433" x="54" y="221.939186" style="stroke: #000000; stroke-width: 0.6"/>
      </g>
     </g>
    </g>
    <g id="ytick_19">
     <g id="line2d_34">
      <g>
       <use xlink:href="#m7c4ff05433" x="54" y="212.131831" style="stroke: #000000; stroke-width: 0.6"/>
      </g>
     </g>
    </g>
    <g id="ytick_20">
     <g id="line2d_35">
      <g>
       <use xlink:href="#m7c4ff05433" x="54" y="207.151866" style="stroke: #000000; stroke-width: 0.6"/>
      </g>
     </g>
    </g>
    <g id="ytick_21">
     <g id="line2d_36">
      <g>
       <use xlink:href="#m7c4ff05433" x="54" y="203.618524" style="stroke: #000000; stroke-width: 0.6"/>
      </g>
     </g>
    </g>
    <g id="ytick_22">
     <g id="line2d_37">
      <g>
       <use xlink:href="#m7c4ff05433" x="54" y="200.877852" style="stroke: #000000; stroke-width: 0.6"/>
      </g>
     </g>
    </g>
    <g id="ytick_23">
     <g id="line2d_38">
      <g>
       <use xlink:href="#m7c4ff05433" x="54" y="198.638559" style="stroke: #000000; stroke-width: 0.6"/>
      </g>
     </g>
    </g>
    <g id="ytick_24">
     <g id="line2d_39">
      <g>
       <use xlink:href="#m7c4ff05433" x="54" y="196.745265" style="stroke: #000000; stroke-width: 0.6"/>
      </g>
     </g>
    </g>
    <g id="ytick_25">
     <g id="line2d_40">
      <g>
       <use xlink:href="#m7c4ff05433" x="54" y="195.105218" style="stroke: #000000; stroke-width: 0.6"/>
      </g>
     </g>
    </g>
    <g id="ytick_26">
     <g id="line2d_41">
      <g>
       <use xlink:href="#m7c4ff05433" x="54" y="193.658594" style="stroke: #000000; stroke-width: 0.6"/>
      </g>
     </g>
    </g>
    <g id="ytick_27">
     <g id="line2d_42">
      <g>
       <use xlink:href="#m7c4ff05433" x="54" y="183.851239" style="stroke: #000000; stroke-width: 0.6"/>
      </g>
     </g>
    </g>
    <g id="ytick_28">
     <g id="line2d_43">
      <g>
       <use xlink:href="#m7c4ff05433" x="54" y="178.871274" style="stroke: #000000; stroke-width: 0.6"/>
      </g>
     </g>
    </g>
    <g id="ytick_29">
     <g id="line2d_44">
      <g>
       <use xlink:href="#m7c4ff05433" x="54" y="175.337933" style="stroke: #000000; stroke-width: 0.6"/>
      </g>
     </g>
    </g>
    <g id="ytick_30">
     <g id="line2d_45">
      <g>
       <use xlink:href="#m7c4ff05433" x="54" y="172.597261" style="stroke: #000000; stroke-width: 0.6"/>
      </g>
     </g>
    </g>
    <g id="ytick_31">
     <g id="line2d_46">
      <g>
       <use xlink:href="#m7c4ff05433" x="54" y="170.357968" style="stroke: #000000; stroke-width: 0.6"/>
      </g>
     </g>
    </g>
    <g id="ytick_32">
     <g id="line2d_47">
      <g>
       <use xlink:href="#m7c4ff05433" x="54" y="168.464673" style="stroke: #000000; stroke-width: 0.6"/>
      </g>
     </g>
    </g>
    <g id="ytick_33">
     <g id="line2d_48">
      <g>
       <use xlink:href="#m7c4ff05433" x="54" y="166.824627" style="stroke: #000000; stroke-width: 0.6"/>
      </g>
     </g>
    </g>
    <g id="ytick_34">
     <g id="line2d_49">
      <g>
       <use xlink:href="#m7c4ff05433" x="54" y="165.378003" style="stroke: #000000; stroke-width: 0.6"/>
      </g>
     </g>
    </g>
    <g id="ytick_35">
     <g id="line2d_50">
      <g>
       <use xlink:href="#m7c4ff05433" x="54" y="155.570648" style="stroke: #000000; stroke-width: 0.6"/>
      </g>
     </g>
    </g>
    <g id="ytick_36">
     <g id="line2d_51">
      <g>
       <use xlink:href="#m7c4ff05433" x="54" y="150.590683" style="stroke: #000000; stroke-width: 0.6"/>
      </g>
     </g>
    </g>
    <g id="ytick_37">
     <g id="line2d_52">
      <g>
       <use xlink:href="#m7c4ff05433" x="54" y="147.057342" style="stroke: #000000; stroke-width: 0.6"/>
      </g>
     </g>
    </g>
    <g id="ytick_38">
     <g id="line2d_53">
      <g>
       <use xlink:href="#m7c4ff05433" x="54" y="144.316669" style="stroke: #000000; stroke-width: 0.6"/>
      </g>
     </g>
    </g>
    <g id="ytick_39">
     <g id="line2d_54">
      <g>
       <use xlink:href="#m7c4ff05433" x="54" y="142.077377" style="stroke: #000000; stroke-width: 0.6"/>
      </g>
     </g>
    </g>
    <g id="ytick_40">
     <g id="line2d_55">
      <g>
       <use xlink:href="#m7c4ff05433" x="54" y="140.184082" style="stroke: #000000; stroke-width: 0.6"/>
      </g>
     </g>
    </g>
    <g id="ytick_41">
     <g id="line2d_56">
      <g>
       <use xlink:href="#m7c4ff05433" x="54" y="138.544036" style="stroke: #000000; stroke-width: 0.6"/>
      </g>
     </g>
    </g>
    <g id="ytick_42">
     <g id="line2d_57">
      <g>
       <use xlink:href="#m7c4ff05433" x="54" y="137.097412" style="stroke: #000000; stroke-width: 0.6"/>
      </g>
     </g>
    </g>
    <g id="ytick_43">
     <g id="line2d_58">
      <g>
       <use xlink:href="#m7c4ff05433" x="54" y="127.290057" style="stroke: #000000; stroke-width: 0.6"/>
      </g>
     </g>
    </g>
    <g id="ytick_44">
     <g id="line2d_59">
      <g>
       <use xlink:href="#m7c4ff05433" x="54" y="122.310092" style="stroke: #000000; stroke-width: 0.6"/>
      </g>
     </g>
    </g>
    <g id="ytick_45">
     <g id="line2d_60">
      <g>
       <use xlink:href="#m7c4ff05433" x="54" y="118.776751" style="stroke: #000000; stroke-width: 0.6"/>
      </g>
     </g>
    </g>
    <g id="ytick_46">
     <g id="line2d_61">
      <g>
       <use xlink:href="#m7c4ff05433" x="54" y="116.036078" style="stroke: #000000; stroke-width: 0.6"/>
      </g>
     </g>
    </g>
    <g id="ytick_47">
     <g id="line2d_62">
      <g>
       <use xlink:href="#m7c4ff05433" x="54" y="113.796786" style="stroke: #000000; stroke-width: 0.6"/>
      </g>
     </g>
    </g>
    <g id="ytick_48">
     <g id="line2d_63">
      <g>
       <use xlink:href="#m7c4ff05433" x="54" y="111.903491" style="stroke: #000000; stroke-width: 0.6"/>
      </g>
     </g>
    </g>
    <g id="ytick_49">
     <g id="line2d_64">
      <g>
       <use xlink:href="#m7c4ff05433" x="54" y="110.263444" style="stroke: #000000; stroke-width: 0.6"/>
      </g>
     </g>
    </g>
    <g id="ytick_50">
     <g id="line2d_65">
      <g>
       <use xlink:href="#m7c4ff05433" x="54" y="108.816821" style="stroke: #000000; stroke-width: 0.6"/>
      </g>
     </g>
    </g>
    <g id="ytick_51">
     <g id="line2d_66">
      <g>
       <use xlink:href="#m7c4ff05433" x="54" y="99.009466" style="stroke: #000000; stroke-width: 0.6"/>
      </g>
     </g>
    </g>
    <g id="ytick_52">
     <g id="line2d_67">
      <g>
       <use xlink:href="#m7c4ff05433" x="54" y="94.029501" style="stroke: #000000; stroke-width: 0.6"/>
      </g>
     </g>
    </g>
    <g id="ytick_53">
     <g id="line2d_68">
      <g>
       <use xlink:href="#m7c4ff05433" x="54" y="90.496159" style="stroke: #000000; stroke-width: 0.6"/>
      </g>
     </g>
    </g>
    <g id="ytick_54">
     <g id="line2d_69">
      <g>
       <use xlink:href="#m7c4ff05433" x="54" y="87.755487" style="stroke: #000000; stroke-width: 0.6"/>
      </g>
     </g>
    </g>
    <g id="ytick_55">
     <g id="line2d_70">
      <g>
       <use xlink:href="#m7c4ff05433" x="54" y="85.516194" style="stroke: #000000; stroke-width: 0.6"/>
      </g>
     </g>
    </g>
    <g id="ytick_56">
     <g id="line2d_71">
      <g>
       <use xlink:href="#m7c4ff05433" x="54" y="83.6229" style="stroke: #000000; stroke-width: 0.6"/>
      </g>
     </g>
    </g>
    <g id="ytick_57">
     <g id="line2d_72">
      <g>
       <use xlink:href="#m7c4ff05433" x="54" y="81.982853" style="stroke: #000000; stroke-width: 0.6"/>
      </g>
     </g>
    </g>
    <g id="ytick_58">
     <g id="line2d_73">
      <g>
       <use xlink:href="#m7c4ff05433" x="54" y="80.536229" style="stroke: #000000; stroke-width: 0.6"/>
      </g>
     </g>
    </g>
    <g id="ytick_59">
     <g id="line2d_74">
      <g>
       <use xlink:href="#m7c4ff05433" x="54" y="70.728874" style="stroke: #000000; stroke-width: 0.6"/>
      </g>
     </g>
    </g>
    <g id="ytick_60">
     <g id="line2d_75">
      <g>
       <use xlink:href="#m7c4ff05433" x="54" y="65.748909" style="stroke: #000000; stroke-width: 0.6"/>
      </g>
     </g>
    </g>
    <g id="ytick_61">
     <g id="line2d_76">
      <g>
       <use xlink:href="#m7c4ff05433" x="54" y="62.215568" style="stroke: #000000; stroke-width: 0.6"/>
      </g>
     </g>
    </g>
    <g id="ytick_62">
     <g id="line2d_77">
      <g>
       <use xlink:href="#m7c4ff05433" x="54" y="59.474896" style="stroke: #000000; stroke-width: 0.6"/>
      </g>
     </g>
    </g>
    <g id="ytick_63">
     <g id="line2d_78">
      <g>
       <use xlink:href="#m7c4ff05433" x="54" y="57.235603" style="stroke: #000000; stroke-width: 0.6"/>
      </g>
     </g>
    </g>
    <g id="ytick_64">
     <g id="line2d_79">
      <g>
       <use xlink:href="#m7c4ff05433" x="54" y="55.342308" style="stroke: #000000; stroke-width: 0.6"/>
      </g>
     </g>
    </g>
    <g id="ytick_65">
     <g id="line2d_80">
      <g>
       <use xlink:href="#m7c4ff05433" x="54" y="53.702262" style="stroke: #000000; stroke-width: 0.6"/>
      </g>
     </g>
    </g>
    <g id="ytick_66">
     <g id="line2d_81">
      <g>
       <use xlink:href="#m7c4ff05433" x="54" y="52.255638" style="stroke: #000000; stroke-width: 0.6"/>
      </g>
     </g>
    </g>
    <g id="ytick_67">
     <g id="line2d_82">
      <g>
       <use xlink:href="#m7c4ff05433" x="54" y="42.448283" style="stroke: #000000; stroke-width: 0.6"/>
      </g>
     </g>
    </g>
    <g id="ytick_68">
     <g id="line2d_83">
      <g>
       <use xlink:href="#m7c4ff05433" x="54" y="37.468318" style="stroke: #000000; stroke-width: 0.6"/>
      </g>
     </g>
    </g>
    <g id="text_25">
     <!-- Median NEPS -->
     <g transform="translate(18.820312 176.144844)rotate(-90)scale(0.1 -0.1)">
      <defs>
       <path id="DejaVuSans-4d" d="M 628 4666 
L 1569 4666 
L 2759 1491 
L 3956 4666 
L 4897 4666 
L 4897 0 
L 4281 0 
L 4281 4097 
L 3078 897 
L 2444 897 
L 1241 4097 
L 1241 0 
L 628 0 
L 628 4666 
z
" transform="scale(0.015625)"/>
       <path id="DejaVuSans-64" d="M 2906 2969 
L 2906 4863 
L 3481 4863 
L 3481 0 
L 2906 0 
L 2906 525 
Q 2725 213 2448 61 
Q 2172 -91 1784 -91 
Q 1150 -91 751 415 
Q 353 922 353 1747 
Q 353 2572 751 3078 
Q 1150 3584 1784 3584 
Q 2172 3584 2448 3432 
Q 2725 3281 2906 2969 
z
M 947 1747 
Q 947 1113 1208 752 
Q 1469 391 1925 391 
Q 2381 391 2643 752 
Q 2906 1113 2906 1747 
Q 2906 2381 2643 2742 
Q 2381 3103 1925 3103 
Q 1469 3103 1208 2742 
Q 947 2381 947 1747 
z
" transform="scale(0.015625)"/>
       <path id="DejaVuSans-6e" d="M 3513 2113 
L 3513 0 
L 2938 0 
L 2938 2094 
Q 2938 2591 2744 2837 
Q 2550 3084 2163 3084 
Q 1697 3084 1428 2787 
Q 1159 2491 1159 1978 
L 1159 0 
L 581 0 
L 581 3500 
L 1159 3500 
L 1159 2956 
Q 1366 3272 1645 3428 
Q 1925 3584 2291 3584 
Q 2894 3584 3203 3211 
Q 3513 2838 3513 2113 
z
" transform="scale(0.015625)"/>
       <path id="DejaVuSans-4e" d="M 628 4666 
L 1478 4666 
L 3547 763 
L 3547 4666 
L 4159 4666 
L 4159 0 
L 3309 0 
L 1241 3903 
L 1241 0 
L 628 0 
L 628 4666 
z
" transform="scale(0.015625)"/>
       <path id="DejaVuSans-45" d="M 628 4666 
L 3578 4666 
L 3578 4134 
L 1259 4134 
L 1259 2753 
L 3481 2753 
L 3481 2222 
L 1259 2222 
L 1259 531 
L 3634 531 
L 3634 0 
L 628 0 
L 628 4666 
z
" transform="scale(0.015625)"/>
       <path id="DejaVuSans-53" d="M 3425 4513 
L 3425 3897 
Q 3066 4069 2747 4153 
Q 2428 4238 2131 4238 
Q 1616 4238 1336 4038 
Q 1056 3838 1056 3469 
Q 1056 3159 1242 3001 
Q 1428 2844 1947 2747 
L 2328 2669 
Q 3034 2534 3370 2195 
Q 3706 1856 3706 1288 
Q 3706 609 3251 259 
Q 2797 -91 1919 -91 
Q 1588 -91 1214 -16 
Q 841 59 441 206 
L 441 856 
Q 825 641 1194 531 
Q 1563 422 1919 422 
Q 2459 422 2753 634 
Q 3047 847 3047 1241 
Q 3047 1584 2836 1778 
Q 2625 1972 2144 2069 
L 1759 2144 
Q 1053 2284 737 2584 
Q 422 2884 422 3419 
Q 422 4038 858 4394 
Q 1294 4750 2059 4750 
Q 2388 4750 2728 4690 
Q 3069 4631 3425 4513 
z
" transform="scale(0.015625)"/>
      </defs>
      <use xlink:href="#DejaVuSans-4d"/>
      <use xlink:href="#DejaVuSans-65" x="86.279297"/>
      <use xlink:href="#DejaVuSans-64" x="147.802734"/>
      <use xlink:href="#DejaVuSans-69" x="211.279297"/>
      <use xlink:href="#DejaVuSans-61" x="239.0625"/>
      <use xlink:href="#DejaVuSans-6e" x="300.341797"/>
      <use xlink:href="#DejaVuSans-20" x="363.720703"/>
      <use xlink:href="#DejaVuSans-4e" x="395.507812"/>
      <use xlink:href="#DejaVuSans-45" x="470.3125"/>
      <use xlink:href="#DejaVuSans-50" x="533.496094"/>
      <use xlink:href="#DejaVuSans-53" x="593.798828"/>
     </g>
    </g>
   </g>
   <g id="line2d_84">
    <path d="M 69.218182 242.116364 
L 71.614746 234.409045 
L 74.01131 231.384321 
L 76.407874 227.786471 
L 78.804438 221.407668 
L 81.201002 223.700666 
L 83.597566 216.47585 
L 85.99413 218.752886 
L 88.390694 222.59579 
L 90.787258 220.166415 
L 93.183822 215.610187 
L 95.580387 217.756872 
L 97.976951 216.818159 
L 100.373515 218.58664 
L 102.770079 217.642623 
L 105.166643 213.844505 
L 107.563207 216.703146 
L 109.959771 218.428441 
L 112.356335 218.70977 
L 114.752899 213.031593 
L 117.149463 214.754385 
L 119.546027 216.89741 
L 121.942591 217.099642 
L 124.339155 216.041907 
L 126.735719 216.275894 
L 129.132283 216.848707 
L 131.528848 215.646319 
L 133.925412 213.876065 
L 136.321976 213.912099 
L 138.71854 212.78032 
L 141.115104 215.543044 
L 143.511668 213.955258 
L 145.908232 212.052592 
L 148.304796 215.179196 
L 150.70136 215.114991 
L 153.097924 214.577246 
L 155.494488 214.322585 
L 157.891052 213.590873 
L 160.287616 215.344476 
L 162.68418 215.972967 
L 165.080744 210.795643 
L 167.477309 215.39107 
L 169.873873 214.269822 
L 172.270437 215.77082 
L 174.667001 216.537272 
L 177.063565 215.380846 
L 181.856693 216.113999 
L 184.253257 216.141282 
L 186.649821 214.908071 
L 189.046385 215.849456 
L 191.442949 214.951176 
L 193.839513 212.449845 
L 196.236077 214.641786 
L 198.632641 214.270406 
L 201.029205 214.574337 
L 203.42577 216.494434 
L 205.822334 215.224592 
L 208.218898 216.148797 
L 210.615462 214.298618 
L 213.012026 217.001616 
L 215.40859 214.435624 
L 217.805154 213.821047 
L 220.201718 215.523182 
L 222.598282 214.445767 
L 224.994846 215.576174 
L 227.39141 214.284096 
L 229.787974 215.683789 
L 232.184538 215.555881 
L 234.581102 211.979469 
L 236.977666 214.442021 
L 239.37423 215.408793 
L 241.770795 215.918041 
L 244.167359 215.033098 
L 246.563923 214.779899 
L 248.960487 215.642855 
L 251.357051 214.942446 
L 253.753615 215.677709 
L 256.150179 214.234481 
L 258.546743 216.89385 
L 260.943307 214.108069 
L 263.339871 215.184849 
L 265.736435 215.363532 
L 268.132999 214.636045 
L 270.529563 216.53209 
L 272.926127 215.769422 
L 275.322691 214.365039 
L 277.719256 214.640907 
L 280.11582 215.202578 
L 282.512384 214.681928 
L 284.908948 213.753002 
L 287.305512 214.36465 
L 289.702076 213.261932 
L 294.495204 214.773075 
L 296.891768 213.594912 
L 299.288332 215.602127 
L 301.684896 216.253098 
L 304.08146 215.14263 
L 308.874588 213.589574 
L 311.271152 214.768696 
L 313.667717 214.175512 
L 316.064281 215.092843 
L 318.460845 216.214934 
L 320.857409 214.337063 
L 323.253973 214.385974 
L 325.650537 214.751461 
L 328.047101 215.24659 
L 330.443665 214.074857 
L 332.840229 214.494817 
L 335.236793 214.38505 
L 337.633357 212.147568 
L 340.029921 212.84331 
L 342.426485 214.587134 
L 344.823049 213.062499 
L 347.219613 214.358202 
L 349.616178 214.231407 
L 352.012742 216.050959 
L 354.409306 213.174257 
L 356.80587 215.794874 
L 359.202434 213.160249 
L 361.598998 214.675718 
L 363.995562 215.634641 
L 366.392126 213.095972 
L 368.78869 213.283634 
L 371.185254 214.386938 
L 373.581818 214.063648 
L 373.581818 214.063648 
" clip-path="url(#pda8f4c848e)" style="fill: none; stroke: #1f77b4; stroke-width: 1.5; stroke-linecap: square"/>
   </g>
   <g id="line2d_85">
    <path d="M 69.218182 218.380487 
L 71.614746 178.898553 
L 74.01131 174.518895 
L 76.407874 173.501115 
L 78.804438 166.11072 
L 81.201002 166.613795 
L 83.597566 162.864147 
L 85.99413 164.138966 
L 88.390694 169.076086 
L 90.787258 167.976395 
L 93.183822 163.249264 
L 95.580387 164.758698 
L 97.976951 162.727805 
L 100.373515 166.683093 
L 102.770079 164.952354 
L 105.166643 163.604702 
L 107.563207 165.666702 
L 109.959771 164.598913 
L 112.356335 166.735857 
L 114.752899 161.964183 
L 117.149463 160.808268 
L 121.942591 163.835146 
L 124.339155 162.690524 
L 126.735719 161.757983 
L 129.132283 163.405792 
L 131.528848 162.439305 
L 133.925412 161.348329 
L 136.321976 161.720733 
L 138.71854 161.061372 
L 141.115104 165.179794 
L 143.511668 161.227769 
L 145.908232 160.320181 
L 148.304796 160.999523 
L 150.70136 162.362166 
L 153.097924 160.539466 
L 155.494488 161.570178 
L 157.891052 162.74447 
L 160.287616 161.8813 
L 162.68418 162.080007 
L 165.080744 160.061986 
L 167.477309 161.986626 
L 169.873873 160.423301 
L 174.667001 163.842758 
L 177.063565 162.049087 
L 179.460129 161.546559 
L 181.856693 163.284263 
L 184.253257 162.14745 
L 186.649821 160.018141 
L 189.046385 161.80919 
L 191.442949 161.589948 
L 193.839513 159.500606 
L 196.236077 162.84971 
L 198.632641 160.753127 
L 201.029205 162.516795 
L 203.42577 163.876849 
L 205.822334 161.560921 
L 208.218898 162.437996 
L 210.615462 161.219574 
L 213.012026 162.44524 
L 215.40859 160.559345 
L 217.805154 162.235447 
L 222.598282 161.194261 
L 224.994846 163.896299 
L 227.39141 161.858377 
L 229.787974 160.531209 
L 232.184538 160.953146 
L 234.581102 159.670902 
L 236.977666 162.638196 
L 239.37423 161.839755 
L 241.770795 162.219579 
L 244.167359 162.845428 
L 246.563923 161.561695 
L 248.960487 161.578361 
L 251.357051 162.516253 
L 253.753615 162.41762 
L 256.150179 160.85282 
L 258.546743 161.945112 
L 260.943307 159.886969 
L 263.339871 163.172429 
L 265.736435 161.43952 
L 268.132999 161.990385 
L 270.529563 162.268477 
L 272.926127 161.459794 
L 275.322691 161.173559 
L 277.719256 161.104344 
L 280.11582 162.373266 
L 282.512384 160.739551 
L 289.702076 160.910497 
L 292.09864 160.475649 
L 294.495204 161.240383 
L 296.891768 161.497095 
L 299.288332 161.12873 
L 301.684896 162.363193 
L 304.08146 160.43119 
L 306.478024 160.287613 
L 308.874588 159.581491 
L 311.271152 161.198467 
L 313.667717 160.636838 
L 316.064281 161.048215 
L 318.460845 161.629145 
L 320.857409 161.622435 
L 323.253973 160.56784 
L 325.650537 161.306784 
L 328.047101 161.853398 
L 330.443665 160.710263 
L 332.840229 161.937004 
L 335.236793 160.161614 
L 337.633357 158.723948 
L 340.029921 159.977555 
L 342.426485 161.536591 
L 344.823049 160.215012 
L 347.219613 161.018943 
L 349.616178 160.96978 
L 352.012742 162.687972 
L 354.409306 160.939952 
L 356.80587 161.65149 
L 359.202434 160.298758 
L 361.598998 160.942825 
L 363.995562 162.049618 
L 366.392126 160.718133 
L 368.78869 160.716833 
L 371.185254 160.90917 
L 373.581818 160.78239 
L 373.581818 160.78239 
" clip-path="url(#pda8f4c848e)" style="fill: none; stroke: #ff7f0e; stroke-width: 1.5; stroke-linecap: square"/>
   </g>
   <g id="line2d_86">
    <path d="M 69.218182 221.533788 
L 71.614746 120.423883 
L 74.01131 114.070935 
L 76.407874 109.984647 
L 78.804438 107.158507 
L 81.201002 103.982258 
L 83.597566 103.756569 
L 85.99413 100.79978 
L 88.390694 99.472288 
L 93.183822 95.934195 
L 95.580387 95.901258 
L 97.976951 94.35827 
L 100.373515 93.484119 
L 102.770079 91.997817 
L 105.166643 92.065898 
L 107.563207 89.691376 
L 109.959771 89.727248 
L 112.356335 88.716005 
L 114.752899 89.021245 
L 117.149463 88.450015 
L 119.546027 87.629387 
L 121.942591 86.961351 
L 124.339155 84.650064 
L 126.735719 83.764192 
L 129.132283 84.674226 
L 131.528848 85.115032 
L 133.925412 85.060498 
L 136.321976 84.499858 
L 138.71854 83.498884 
L 141.115104 82.279984 
L 143.511668 81.530678 
L 145.908232 81.574393 
L 148.304796 80.532505 
L 150.70136 80.47665 
L 153.097924 80.543722 
L 155.494488 79.73758 
L 157.891052 79.661352 
L 160.287616 78.37418 
L 162.68418 79.748814 
L 165.080744 78.611499 
L 167.477309 78.536503 
L 169.873873 78.233707 
L 172.270437 77.287816 
L 174.667001 77.472258 
L 177.063565 76.725563 
L 179.460129 76.494677 
L 181.856693 76.467049 
L 184.253257 76.22216 
L 186.649821 76.994622 
L 189.046385 76.48282 
L 191.442949 74.550246 
L 193.839513 75.451939 
L 196.236077 74.472546 
L 198.632641 75.894917 
L 201.029205 76.912233 
L 203.42577 75.834855 
L 205.822334 75.503414 
L 208.218898 73.917778 
L 210.615462 73.722121 
L 213.012026 73.095378 
L 215.40859 73.266667 
L 217.805154 72.315943 
L 220.201718 72.429799 
L 222.598282 72.98361 
L 224.994846 72.722639 
L 227.39141 72.980119 
L 229.787974 72.634396 
L 232.184538 73.090937 
L 234.581102 72.078341 
L 236.977666 70.400408 
L 241.770795 70.930455 
L 244.167359 71.145864 
L 248.960487 69.517656 
L 251.357051 69.695048 
L 253.753615 70.504906 
L 256.150179 69.244024 
L 258.546743 70.078088 
L 260.943307 68.399552 
L 263.339871 69.312791 
L 265.736435 69.375293 
L 270.529563 68.354582 
L 272.926127 68.197128 
L 275.322691 68.772865 
L 277.719256 68.329867 
L 280.11582 67.710991 
L 282.512384 68.386587 
L 284.908948 68.156553 
L 287.305512 68.56635 
L 289.702076 67.977428 
L 292.09864 68.365881 
L 294.495204 66.611857 
L 296.891768 68.094558 
L 299.288332 66.380868 
L 301.684896 68.214529 
L 304.08146 67.345343 
L 306.478024 67.003991 
L 308.874588 67.261546 
L 311.271152 67.207124 
L 313.667717 67.409089 
L 316.064281 67.432169 
L 318.460845 67.94266 
L 320.857409 66.938928 
L 323.253973 66.141545 
L 328.047101 66.465523 
L 330.443665 66.578751 
L 332.840229 65.255403 
L 335.236793 66.130598 
L 337.633357 66.699352 
L 340.029921 66.848221 
L 347.219613 64.644203 
L 349.616178 65.998238 
L 352.012742 66.36063 
L 354.409306 66.248535 
L 356.80587 64.942403 
L 359.202434 64.928752 
L 361.598998 64.547753 
L 363.995562 65.010959 
L 366.392126 64.125374 
L 371.185254 65.223102 
L 373.581818 63.68806 
L 373.581818 63.68806 
" clip-path="url(#pda8f4c848e)" style="fill: none; stroke: #2ca02c; stroke-width: 1.5; stroke-linecap: square"/>
   </g>
   <g id="patch_3">
    <path d="M 54 252 
L 54 34.56 
" style="fill: none; stroke: #000000; stroke-width: 0.8; stroke-linejoin: miter; stroke-linecap: square"/>
   </g>
   <g id="patch_4">
    <path d="M 388.8 252 
L 388.8 34.56 
" style="fill: none; stroke: #000000; stroke-width: 0.8; stroke-linejoin: miter; stroke-linecap: square"/>
   </g>
   <g id="patch_5">
    <path d="M 54 252 
L 388.8 252 
" style="fill: none; stroke: #000000; stroke-width: 0.8; stroke-linejoin: miter; stroke-linecap: square"/>
   </g>
   <g id="patch_6">
    <path d="M 54 34.56 
L 388.8 34.56 
" style="fill: none; stroke: #000000; stroke-width: 0.8; stroke-linejoin: miter; stroke-linecap: square"/>
   </g>
   <g id="text_26">
    <!-- Median NEPS vs. Program Size (100000 f.c., nicolau_a) -->
    <g transform="translate(57.76125 28.56)scale(0.12 -0.12)">
     <defs>
      <path id="DejaVuSans-76" d="M 191 3500 
L 800 3500 
L 1894 563 
L 2988 3500 
L 3597 3500 
L 2284 0 
L 1503 0 
L 191 3500 
z
" transform="scale(0.015625)"/>
      <path id="DejaVuSans-2e" d="M 684 794 
L 1344 794 
L 1344 0 
L 684 0 
L 684 794 
z
" transform="scale(0.015625)"/>
      <path id="DejaVuSans-28" d="M 1984 4856 
Q 1566 4138 1362 3434 
Q 1159 2731 1159 2009 
Q 1159 1288 1364 580 
Q 1569 -128 1984 -844 
L 1484 -844 
Q 1016 -109 783 600 
Q 550 1309 550 2009 
Q 550 2706 781 3412 
Q 1013 4119 1484 4856 
L 1984 4856 
z
" transform="scale(0.015625)"/>
      <path id="DejaVuSans-66" d="M 2375 4863 
L 2375 4384 
L 1825 4384 
Q 1516 4384 1395 4259 
Q 1275 4134 1275 3809 
L 1275 3500 
L 2222 3500 
L 2222 3053 
L 1275 3053 
L 1275 0 
L 697 0 
L 697 3053 
L 147 3053 
L 147 3500 
L 697 3500 
L 697 3744 
Q 697 4328 969 4595 
Q 1241 4863 1831 4863 
L 2375 4863 
z
" transform="scale(0.015625)"/>
      <path id="DejaVuSans-63" d="M 3122 3366 
L 3122 2828 
Q 2878 2963 2633 3030 
Q 2388 3097 2138 3097 
Q 1578 3097 1268 2742 
Q 959 2388 959 1747 
Q 959 1106 1268 751 
Q 1578 397 2138 397 
Q 2388 397 2633 464 
Q 2878 531 3122 666 
L 3122 134 
Q 2881 22 2623 -34 
Q 2366 -91 2075 -91 
Q 1284 -91 818 406 
Q 353 903 353 1747 
Q 353 2603 823 3093 
Q 1294 3584 2113 3584 
Q 2378 3584 2631 3529 
Q 2884 3475 3122 3366 
z
" transform="scale(0.015625)"/>
      <path id="DejaVuSans-2c" d="M 750 794 
L 1409 794 
L 1409 256 
L 897 -744 
L 494 -744 
L 750 256 
L 750 794 
z
" transform="scale(0.015625)"/>
      <path id="DejaVuSans-6c" d="M 603 4863 
L 1178 4863 
L 1178 0 
L 603 0 
L 603 4863 
z
" transform="scale(0.015625)"/>
      <path id="DejaVuSans-75" d="M 544 1381 
L 544 3500 
L 1119 3500 
L 1119 1403 
Q 1119 906 1312 657 
Q 1506 409 1894 409 
Q 2359 409 2629 706 
Q 2900 1003 2900 1516 
L 2900 3500 
L 3475 3500 
L 3475 0 
L 2900 0 
L 2900 538 
Q 2691 219 2414 64 
Q 2138 -91 1772 -91 
Q 1169 -91 856 284 
Q 544 659 544 1381 
z
M 1991 3584 
L 1991 3584 
z
" transform="scale(0.015625)"/>
      <path id="DejaVuSans-5f" d="M 3263 -1063 
L 3263 -1509 
L -63 -1509 
L -63 -1063 
L 3263 -1063 
z
" transform="scale(0.015625)"/>
      <path id="DejaVuSans-29" d="M 513 4856 
L 1013 4856 
Q 1481 4119 1714 3412 
Q 1947 2706 1947 2009 
Q 1947 1309 1714 600 
Q 1481 -109 1013 -844 
L 513 -844 
Q 928 -128 1133 580 
Q 1338 1288 1338 2009 
Q 1338 2731 1133 3434 
Q 928 4138 513 4856 
z
" transform="scale(0.015625)"/>
     </defs>
     <use xlink:href="#DejaVuSans-4d"/>
     <use xlink:href="#DejaVuSans-65" x="86.279297"/>
     <use xlink:href="#DejaVuSans-64" x="147.802734"/>
     <use xlink:href="#DejaVuSans-69" x="211.279297"/>
     <use xlink:href="#DejaVuSans-61" x="239.0625"/>
     <use xlink:href="#DejaVuSans-6e" x="300.341797"/>
     <use xlink:href="#DejaVuSans-20" x="363.720703"/>
     <use xlink:href="#DejaVuSans-4e" x="395.507812"/>
     <use xlink:href="#DejaVuSans-45" x="470.3125"/>
     <use xlink:href="#DejaVuSans-50" x="533.496094"/>
     <use xlink:href="#DejaVuSans-53" x="593.798828"/>
     <use xlink:href="#DejaVuSans-20" x="657.275391"/>
     <use xlink:href="#DejaVuSans-76" x="689.0625"/>
     <use xlink:href="#DejaVuSans-73" x="748.242188"/>
     <use xlink:href="#DejaVuSans-2e" x="800.341797"/>
     <use xlink:href="#DejaVuSans-20" x="832.128906"/>
     <use xlink:href="#DejaVuSans-50" x="863.916016"/>
     <use xlink:href="#DejaVuSans-72" x="922.46875"/>
     <use xlink:href="#DejaVuSans-6f" x="961.332031"/>
     <use xlink:href="#DejaVuSans-67" x="1022.513672"/>
     <use xlink:href="#DejaVuSans-72" x="1085.990234"/>
     <use xlink:href="#DejaVuSans-61" x="1127.103516"/>
     <use xlink:href="#DejaVuSans-6d" x="1188.382812"/>
     <use xlink:href="#DejaVuSans-20" x="1285.794922"/>
     <use xlink:href="#DejaVuSans-53" x="1317.582031"/>
     <use xlink:href="#DejaVuSans-69" x="1381.058594"/>
     <use xlink:href="#DejaVuSans-7a" x="1408.841797"/>
     <use xlink:href="#DejaVuSans-65" x="1461.332031"/>
     <use xlink:href="#DejaVuSans-20" x="1522.855469"/>
     <use xlink:href="#DejaVuSans-28" x="1554.642578"/>
     <use xlink:href="#DejaVuSans-31" x="1593.65625"/>
     <use xlink:href="#DejaVuSans-30" x="1657.279297"/>
     <use xlink:href="#DejaVuSans-30" x="1720.902344"/>
     <use xlink:href="#DejaVuSans-30" x="1784.525391"/>
     <use xlink:href="#DejaVuSans-30" x="1848.148438"/>
     <use xlink:href="#DejaVuSans-30" x="1911.771484"/>
     <use xlink:href="#DejaVuSans-20" x="1975.394531"/>
     <use xlink:href="#DejaVuSans-66" x="2007.181641"/>
     <use xlink:href="#DejaVuSans-2e" x="2035.136719"/>
     <use xlink:href="#DejaVuSans-63" x="2066.923828"/>
     <use xlink:href="#DejaVuSans-2e" x="2121.904297"/>
     <use xlink:href="#DejaVuSans-2c" x="2153.691406"/>
     <use xlink:href="#DejaVuSans-20" x="2185.478516"/>
     <use xlink:href="#DejaVuSans-6e" x="2217.265625"/>
     <use xlink:href="#DejaVuSans-69" x="2280.644531"/>
     <use xlink:href="#DejaVuSans-63" x="2308.427734"/>
     <use xlink:href="#DejaVuSans-6f" x="2363.408203"/>
     <use xlink:href="#DejaVuSans-6c" x="2424.589844"/>
     <use xlink:href="#DejaVuSans-61" x="2452.373047"/>
     <use xlink:href="#DejaVuSans-75" x="2513.652344"/>
     <use xlink:href="#DejaVuSans-5f" x="2577.03125"/>
     <use xlink:href="#DejaVuSans-61" x="2627.03125"/>
     <use xlink:href="#DejaVuSans-29" x="2688.310547"/>
    </g>
   </g>
   <g id="legend_1">
    <g id="patch_7">
     <path d="M 61 86.594375 
L 170.428125 86.594375 
Q 172.428125 86.594375 172.428125 84.594375 
L 172.428125 41.56 
Q 172.428125 39.56 170.428125 39.56 
L 61 39.56 
Q 59 39.56 59 41.56 
L 59 84.594375 
Q 59 86.594375 61 86.594375 
z
" style="fill: #ffffff; opacity: 0.8; stroke: #cccccc; stroke-linejoin: miter"/>
    </g>
    <g id="line2d_87">
     <path d="M 63 47.658438 
L 73 47.658438 
L 83 47.658438 
" style="fill: none; stroke: #1f77b4; stroke-width: 1.5; stroke-linecap: square"/>
    </g>
    <g id="text_27">
     <!-- DEAP -->
     <g transform="translate(91 51.158438)scale(0.1 -0.1)">
      <defs>
       <path id="DejaVuSans-44" d="M 1259 4147 
L 1259 519 
L 2022 519 
Q 2988 519 3436 956 
Q 3884 1394 3884 2338 
Q 3884 3275 3436 3711 
Q 2988 4147 2022 4147 
L 1259 4147 
z
M 628 4666 
L 1925 4666 
Q 3281 4666 3915 4102 
Q 4550 3538 4550 2338 
Q 4550 1131 3912 565 
Q 3275 0 1925 0 
L 628 0 
L 628 4666 
z
" transform="scale(0.015625)"/>
       <path id="DejaVuSans-41" d="M 2188 4044 
L 1331 1722 
L 3047 1722 
L 2188 4044 
z
M 1831 4666 
L 2547 4666 
L 4325 0 
L 3669 0 
L 3244 1197 
L 1141 1197 
L 716 0 
L 50 0 
L 1831 4666 
z
" transform="scale(0.015625)"/>
      </defs>
      <use xlink:href="#DejaVuSans-44"/>
      <use xlink:href="#DejaVuSans-45" x="77.001953"/>
      <use xlink:href="#DejaVuSans-41" x="140.185547"/>
      <use xlink:href="#DejaVuSans-50" x="208.59375"/>
     </g>
    </g>
    <g id="line2d_88">
     <path d="M 63 62.336563 
L 73 62.336563 
L 83 62.336563 
" style="fill: none; stroke: #ff7f0e; stroke-width: 1.5; stroke-linecap: square"/>
    </g>
    <g id="text_28">
     <!-- TensorGP (CPU) -->
     <g transform="translate(91 65.836563)scale(0.1 -0.1)">
      <defs>
       <path id="DejaVuSans-54" d="M -19 4666 
L 3928 4666 
L 3928 4134 
L 2272 4134 
L 2272 0 
L 1638 0 
L 1638 4134 
L -19 4134 
L -19 4666 
z
" transform="scale(0.015625)"/>
       <path id="DejaVuSans-47" d="M 3809 666 
L 3809 1919 
L 2778 1919 
L 2778 2438 
L 4434 2438 
L 4434 434 
Q 4069 175 3628 42 
Q 3188 -91 2688 -91 
Q 1594 -91 976 548 
Q 359 1188 359 2328 
Q 359 3472 976 4111 
Q 1594 4750 2688 4750 
Q 3144 4750 3555 4637 
Q 3966 4525 4313 4306 
L 4313 3634 
Q 3963 3931 3569 4081 
Q 3175 4231 2741 4231 
Q 1884 4231 1454 3753 
Q 1025 3275 1025 2328 
Q 1025 1384 1454 906 
Q 1884 428 2741 428 
Q 3075 428 3337 486 
Q 3600 544 3809 666 
z
" transform="scale(0.015625)"/>
       <path id="DejaVuSans-43" d="M 4122 4306 
L 4122 3641 
Q 3803 3938 3442 4084 
Q 3081 4231 2675 4231 
Q 1875 4231 1450 3742 
Q 1025 3253 1025 2328 
Q 1025 1406 1450 917 
Q 1875 428 2675 428 
Q 3081 428 3442 575 
Q 3803 722 4122 1019 
L 4122 359 
Q 3791 134 3420 21 
Q 3050 -91 2638 -91 
Q 1578 -91 968 557 
Q 359 1206 359 2328 
Q 359 3453 968 4101 
Q 1578 4750 2638 4750 
Q 3056 4750 3426 4639 
Q 3797 4528 4122 4306 
z
" transform="scale(0.015625)"/>
       <path id="DejaVuSans-55" d="M 556 4666 
L 1191 4666 
L 1191 1831 
Q 1191 1081 1462 751 
Q 1734 422 2344 422 
Q 2950 422 3222 751 
Q 3494 1081 3494 1831 
L 3494 4666 
L 4128 4666 
L 4128 1753 
Q 4128 841 3676 375 
Q 3225 -91 2344 -91 
Q 1459 -91 1007 375 
Q 556 841 556 1753 
L 556 4666 
z
" transform="scale(0.015625)"/>
      </defs>
      <use xlink:href="#DejaVuSans-54"/>
      <use xlink:href="#DejaVuSans-65" x="44.083984"/>
      <use xlink:href="#DejaVuSans-6e" x="105.607422"/>
      <use xlink:href="#DejaVuSans-73" x="168.986328"/>
      <use xlink:href="#DejaVuSans-6f" x="221.085938"/>
      <use xlink:href="#DejaVuSans-72" x="282.267578"/>
      <use xlink:href="#DejaVuSans-47" x="323.380859"/>
      <use xlink:href="#DejaVuSans-50" x="400.871094"/>
      <use xlink:href="#DejaVuSans-20" x="461.173828"/>
      <use xlink:href="#DejaVuSans-28" x="492.960938"/>
      <use xlink:href="#DejaVuSans-43" x="531.974609"/>
      <use xlink:href="#DejaVuSans-50" x="601.798828"/>
      <use xlink:href="#DejaVuSans-55" x="662.101562"/>
      <use xlink:href="#DejaVuSans-29" x="735.294922"/>
     </g>
    </g>
    <g id="line2d_89">
     <path d="M 63 77.014688 
L 73 77.014688 
L 83 77.014688 
" style="fill: none; stroke: #2ca02c; stroke-width: 1.5; stroke-linecap: square"/>
    </g>
    <g id="text_29">
     <!-- Operon -->
     <g transform="translate(91 80.514688)scale(0.1 -0.1)">
      <defs>
       <path id="DejaVuSans-4f" d="M 2522 4238 
Q 1834 4238 1429 3725 
Q 1025 3213 1025 2328 
Q 1025 1447 1429 934 
Q 1834 422 2522 422 
Q 3209 422 3611 934 
Q 4013 1447 4013 2328 
Q 4013 3213 3611 3725 
Q 3209 4238 2522 4238 
z
M 2522 4750 
Q 3503 4750 4090 4092 
Q 4678 3434 4678 2328 
Q 4678 1225 4090 567 
Q 3503 -91 2522 -91 
Q 1538 -91 948 565 
Q 359 1222 359 2328 
Q 359 3434 948 4092 
Q 1538 4750 2522 4750 
z
" transform="scale(0.015625)"/>
       <path id="DejaVuSans-70" d="M 1159 525 
L 1159 -1331 
L 581 -1331 
L 581 3500 
L 1159 3500 
L 1159 2969 
Q 1341 3281 1617 3432 
Q 1894 3584 2278 3584 
Q 2916 3584 3314 3078 
Q 3713 2572 3713 1747 
Q 3713 922 3314 415 
Q 2916 -91 2278 -91 
Q 1894 -91 1617 61 
Q 1341 213 1159 525 
z
M 3116 1747 
Q 3116 2381 2855 2742 
Q 2594 3103 2138 3103 
Q 1681 3103 1420 2742 
Q 1159 2381 1159 1747 
Q 1159 1113 1420 752 
Q 1681 391 2138 391 
Q 2594 391 2855 752 
Q 3116 1113 3116 1747 
z
" transform="scale(0.015625)"/>
      </defs>
      <use xlink:href="#DejaVuSans-4f"/>
      <use xlink:href="#DejaVuSans-70" x="78.710938"/>
      <use xlink:href="#DejaVuSans-65" x="142.1875"/>
      <use xlink:href="#DejaVuSans-72" x="203.710938"/>
      <use xlink:href="#DejaVuSans-6f" x="242.574219"/>
      <use xlink:href="#DejaVuSans-6e" x="303.755859"/>
     </g>
    </g>
   </g>
  </g>
 </g>
 <defs>
  <clipPath id="pda8f4c848e">
   <rect x="54" y="34.56" width="334.8" height="217.44"/>
  </clipPath>
 </defs>
</svg>
