<?xml version="1.0" encoding="utf-8" standalone="no"?>
<!DOCTYPE svg PUBLIC "-//W3C//DTD SVG 1.1//EN"
  "http://www.w3.org/Graphics/SVG/1.1/DTD/svg11.dtd">
<svg xmlns:xlink="http://www.w3.org/1999/xlink" width="432pt" height="288pt" viewBox="0 0 432 288" xmlns="http://www.w3.org/2000/svg" version="1.1">
 <metadata>
  <rdf:RDF xmlns:dc="http://purl.org/dc/elements/1.1/" xmlns:cc="http://creativecommons.org/ns#" xmlns:rdf="http://www.w3.org/1999/02/22-rdf-syntax-ns#">
   <cc:Work>
    <dc:type rdf:resource="http://purl.org/dc/dcmitype/StillImage"/>
    <dc:date>2022-01-11T12:01:35.011768</dc:date>
    <dc:format>image/svg+xml</dc:format>
    <dc:creator>
     <cc:Agent>
      <dc:title>Matplotlib v3.5.1, https://matplotlib.org/</dc:title>
     </cc:Agent>
    </dc:creator>
   </cc:Work>
  </rdf:RDF>
 </metadata>
 <defs>
  <style type="text/css">*{stroke-linejoin: round; stroke-linecap: butt}</style>
 </defs>
 <g id="figure_1">
  <g id="patch_1">
   <path d="M 0 288 
L 432 288 
L 432 0 
L 0 0 
L 0 288 
z
" style="fill: none"/>
  </g>
  <g id="axes_1">
   <g id="patch_2">
    <path d="M 54 252 
L 388.8 252 
L 388.8 34.56 
L 54 34.56 
z
" style="fill: #ffffff"/>
   </g>
   <g id="matplotlib.axis_1">
    <g id="xtick_1">
     <g id="line2d_1">
      <defs>
       <path id="mae8161bf96" d="M 0 0 
L 0 3.5 
" style="stroke: #000000; stroke-width: 0.8"/>
      </defs>
      <g>
       <use xlink:href="#mae8161bf96" x="69.218182" y="252" style="stroke: #000000; stroke-width: 0.8"/>
      </g>
     </g>
     <g id="text_1">
      <!-- 1 -->
      <g transform="translate(66.036932 266.598437)scale(0.1 -0.1)">
       <defs>
        <path id="DejaVuSans-31" d="M 794 531 
L 1825 531 
L 1825 4091 
L 703 3866 
L 703 4441 
L 1819 4666 
L 2450 4666 
L 2450 531 
L 3481 531 
L 3481 0 
L 794 0 
L 794 531 
z
" transform="scale(0.015625)"/>
       </defs>
       <use xlink:href="#DejaVuSans-31"/>
      </g>
     </g>
    </g>
    <g id="xtick_2">
     <g id="line2d_2">
      <g>
       <use xlink:href="#mae8161bf96" x="90.787258" y="252" style="stroke: #000000; stroke-width: 0.8"/>
      </g>
     </g>
     <g id="text_2">
      <!-- 19 -->
      <g transform="translate(84.424758 266.598437)scale(0.1 -0.1)">
       <defs>
        <path id="DejaVuSans-39" d="M 703 97 
L 703 672 
Q 941 559 1184 500 
Q 1428 441 1663 441 
Q 2288 441 2617 861 
Q 2947 1281 2994 2138 
Q 2813 1869 2534 1725 
Q 2256 1581 1919 1581 
Q 1219 1581 811 2004 
Q 403 2428 403 3163 
Q 403 3881 828 4315 
Q 1253 4750 1959 4750 
Q 2769 4750 3195 4129 
Q 3622 3509 3622 2328 
Q 3622 1225 3098 567 
Q 2575 -91 1691 -91 
Q 1453 -91 1209 -44 
Q 966 3 703 97 
z
M 1959 2075 
Q 2384 2075 2632 2365 
Q 2881 2656 2881 3163 
Q 2881 3666 2632 3958 
Q 2384 4250 1959 4250 
Q 1534 4250 1286 3958 
Q 1038 3666 1038 3163 
Q 1038 2656 1286 2365 
Q 1534 2075 1959 2075 
z
" transform="scale(0.015625)"/>
       </defs>
       <use xlink:href="#DejaVuSans-31"/>
       <use xlink:href="#DejaVuSans-39" x="63.623047"/>
      </g>
     </g>
    </g>
    <g id="xtick_3">
     <g id="line2d_3">
      <g>
       <use xlink:href="#mae8161bf96" x="112.356335" y="252" style="stroke: #000000; stroke-width: 0.8"/>
      </g>
     </g>
     <g id="text_3">
      <!-- 37 -->
      <g transform="translate(105.993835 266.598437)scale(0.1 -0.1)">
       <defs>
        <path id="DejaVuSans-33" d="M 2597 2516 
Q 3050 2419 3304 2112 
Q 3559 1806 3559 1356 
Q 3559 666 3084 287 
Q 2609 -91 1734 -91 
Q 1441 -91 1130 -33 
Q 819 25 488 141 
L 488 750 
Q 750 597 1062 519 
Q 1375 441 1716 441 
Q 2309 441 2620 675 
Q 2931 909 2931 1356 
Q 2931 1769 2642 2001 
Q 2353 2234 1838 2234 
L 1294 2234 
L 1294 2753 
L 1863 2753 
Q 2328 2753 2575 2939 
Q 2822 3125 2822 3475 
Q 2822 3834 2567 4026 
Q 2313 4219 1838 4219 
Q 1578 4219 1281 4162 
Q 984 4106 628 3988 
L 628 4550 
Q 988 4650 1302 4700 
Q 1616 4750 1894 4750 
Q 2613 4750 3031 4423 
Q 3450 4097 3450 3541 
Q 3450 3153 3228 2886 
Q 3006 2619 2597 2516 
z
" transform="scale(0.015625)"/>
        <path id="DejaVuSans-37" d="M 525 4666 
L 3525 4666 
L 3525 4397 
L 1831 0 
L 1172 0 
L 2766 4134 
L 525 4134 
L 525 4666 
z
" transform="scale(0.015625)"/>
       </defs>
       <use xlink:href="#DejaVuSans-33"/>
       <use xlink:href="#DejaVuSans-37" x="63.623047"/>
      </g>
     </g>
    </g>
    <g id="xtick_4">
     <g id="line2d_4">
      <g>
       <use xlink:href="#mae8161bf96" x="133.925412" y="252" style="stroke: #000000; stroke-width: 0.8"/>
      </g>
     </g>
     <g id="text_4">
      <!-- 55 -->
      <g transform="translate(127.562912 266.598437)scale(0.1 -0.1)">
       <defs>
        <path id="DejaVuSans-35" d="M 691 4666 
L 3169 4666 
L 3169 4134 
L 1269 4134 
L 1269 2991 
Q 1406 3038 1543 3061 
Q 1681 3084 1819 3084 
Q 2600 3084 3056 2656 
Q 3513 2228 3513 1497 
Q 3513 744 3044 326 
Q 2575 -91 1722 -91 
Q 1428 -91 1123 -41 
Q 819 9 494 109 
L 494 744 
Q 775 591 1075 516 
Q 1375 441 1709 441 
Q 2250 441 2565 725 
Q 2881 1009 2881 1497 
Q 2881 1984 2565 2268 
Q 2250 2553 1709 2553 
Q 1456 2553 1204 2497 
Q 953 2441 691 2322 
L 691 4666 
z
" transform="scale(0.015625)"/>
       </defs>
       <use xlink:href="#DejaVuSans-35"/>
       <use xlink:href="#DejaVuSans-35" x="63.623047"/>
      </g>
     </g>
    </g>
    <g id="xtick_5">
     <g id="line2d_5">
      <g>
       <use xlink:href="#mae8161bf96" x="155.494488" y="252" style="stroke: #000000; stroke-width: 0.8"/>
      </g>
     </g>
     <g id="text_5">
      <!-- 73 -->
      <g transform="translate(149.131988 266.598437)scale(0.1 -0.1)">
       <use xlink:href="#DejaVuSans-37"/>
       <use xlink:href="#DejaVuSans-33" x="63.623047"/>
      </g>
     </g>
    </g>
    <g id="xtick_6">
     <g id="line2d_6">
      <g>
       <use xlink:href="#mae8161bf96" x="177.063565" y="252" style="stroke: #000000; stroke-width: 0.8"/>
      </g>
     </g>
     <g id="text_6">
      <!-- 91 -->
      <g transform="translate(170.701065 266.598437)scale(0.1 -0.1)">
       <use xlink:href="#DejaVuSans-39"/>
       <use xlink:href="#DejaVuSans-31" x="63.623047"/>
      </g>
     </g>
    </g>
    <g id="xtick_7">
     <g id="line2d_7">
      <g>
       <use xlink:href="#mae8161bf96" x="198.632641" y="252" style="stroke: #000000; stroke-width: 0.8"/>
      </g>
     </g>
     <g id="text_7">
      <!-- 109 -->
      <g transform="translate(189.088891 266.598437)scale(0.1 -0.1)">
       <defs>
        <path id="DejaVuSans-30" d="M 2034 4250 
Q 1547 4250 1301 3770 
Q 1056 3291 1056 2328 
Q 1056 1369 1301 889 
Q 1547 409 2034 409 
Q 2525 409 2770 889 
Q 3016 1369 3016 2328 
Q 3016 3291 2770 3770 
Q 2525 4250 2034 4250 
z
M 2034 4750 
Q 2819 4750 3233 4129 
Q 3647 3509 3647 2328 
Q 3647 1150 3233 529 
Q 2819 -91 2034 -91 
Q 1250 -91 836 529 
Q 422 1150 422 2328 
Q 422 3509 836 4129 
Q 1250 4750 2034 4750 
z
" transform="scale(0.015625)"/>
       </defs>
       <use xlink:href="#DejaVuSans-31"/>
       <use xlink:href="#DejaVuSans-30" x="63.623047"/>
       <use xlink:href="#DejaVuSans-39" x="127.246094"/>
      </g>
     </g>
    </g>
    <g id="xtick_8">
     <g id="line2d_8">
      <g>
       <use xlink:href="#mae8161bf96" x="220.201718" y="252" style="stroke: #000000; stroke-width: 0.8"/>
      </g>
     </g>
     <g id="text_8">
      <!-- 127 -->
      <g transform="translate(210.657968 266.598437)scale(0.1 -0.1)">
       <defs>
        <path id="DejaVuSans-32" d="M 1228 531 
L 3431 531 
L 3431 0 
L 469 0 
L 469 531 
Q 828 903 1448 1529 
Q 2069 2156 2228 2338 
Q 2531 2678 2651 2914 
Q 2772 3150 2772 3378 
Q 2772 3750 2511 3984 
Q 2250 4219 1831 4219 
Q 1534 4219 1204 4116 
Q 875 4013 500 3803 
L 500 4441 
Q 881 4594 1212 4672 
Q 1544 4750 1819 4750 
Q 2544 4750 2975 4387 
Q 3406 4025 3406 3419 
Q 3406 3131 3298 2873 
Q 3191 2616 2906 2266 
Q 2828 2175 2409 1742 
Q 1991 1309 1228 531 
z
" transform="scale(0.015625)"/>
       </defs>
       <use xlink:href="#DejaVuSans-31"/>
       <use xlink:href="#DejaVuSans-32" x="63.623047"/>
       <use xlink:href="#DejaVuSans-37" x="127.246094"/>
      </g>
     </g>
    </g>
    <g id="xtick_9">
     <g id="line2d_9">
      <g>
       <use xlink:href="#mae8161bf96" x="241.770795" y="252" style="stroke: #000000; stroke-width: 0.8"/>
      </g>
     </g>
     <g id="text_9">
      <!-- 145 -->
      <g transform="translate(232.227045 266.598437)scale(0.1 -0.1)">
       <defs>
        <path id="DejaVuSans-34" d="M 2419 4116 
L 825 1625 
L 2419 1625 
L 2419 4116 
z
M 2253 4666 
L 3047 4666 
L 3047 1625 
L 3713 1625 
L 3713 1100 
L 3047 1100 
L 3047 0 
L 2419 0 
L 2419 1100 
L 313 1100 
L 313 1709 
L 2253 4666 
z
" transform="scale(0.015625)"/>
       </defs>
       <use xlink:href="#DejaVuSans-31"/>
       <use xlink:href="#DejaVuSans-34" x="63.623047"/>
       <use xlink:href="#DejaVuSans-35" x="127.246094"/>
      </g>
     </g>
    </g>
    <g id="xtick_10">
     <g id="line2d_10">
      <g>
       <use xlink:href="#mae8161bf96" x="263.339871" y="252" style="stroke: #000000; stroke-width: 0.8"/>
      </g>
     </g>
     <g id="text_10">
      <!-- 163 -->
      <g transform="translate(253.796121 266.598437)scale(0.1 -0.1)">
       <defs>
        <path id="DejaVuSans-36" d="M 2113 2584 
Q 1688 2584 1439 2293 
Q 1191 2003 1191 1497 
Q 1191 994 1439 701 
Q 1688 409 2113 409 
Q 2538 409 2786 701 
Q 3034 994 3034 1497 
Q 3034 2003 2786 2293 
Q 2538 2584 2113 2584 
z
M 3366 4563 
L 3366 3988 
Q 3128 4100 2886 4159 
Q 2644 4219 2406 4219 
Q 1781 4219 1451 3797 
Q 1122 3375 1075 2522 
Q 1259 2794 1537 2939 
Q 1816 3084 2150 3084 
Q 2853 3084 3261 2657 
Q 3669 2231 3669 1497 
Q 3669 778 3244 343 
Q 2819 -91 2113 -91 
Q 1303 -91 875 529 
Q 447 1150 447 2328 
Q 447 3434 972 4092 
Q 1497 4750 2381 4750 
Q 2619 4750 2861 4703 
Q 3103 4656 3366 4563 
z
" transform="scale(0.015625)"/>
       </defs>
       <use xlink:href="#DejaVuSans-31"/>
       <use xlink:href="#DejaVuSans-36" x="63.623047"/>
       <use xlink:href="#DejaVuSans-33" x="127.246094"/>
      </g>
     </g>
    </g>
    <g id="xtick_11">
     <g id="line2d_11">
      <g>
       <use xlink:href="#mae8161bf96" x="284.908948" y="252" style="stroke: #000000; stroke-width: 0.8"/>
      </g>
     </g>
     <g id="text_11">
      <!-- 181 -->
      <g transform="translate(275.365198 266.598437)scale(0.1 -0.1)">
       <defs>
        <path id="DejaVuSans-38" d="M 2034 2216 
Q 1584 2216 1326 1975 
Q 1069 1734 1069 1313 
Q 1069 891 1326 650 
Q 1584 409 2034 409 
Q 2484 409 2743 651 
Q 3003 894 3003 1313 
Q 3003 1734 2745 1975 
Q 2488 2216 2034 2216 
z
M 1403 2484 
Q 997 2584 770 2862 
Q 544 3141 544 3541 
Q 544 4100 942 4425 
Q 1341 4750 2034 4750 
Q 2731 4750 3128 4425 
Q 3525 4100 3525 3541 
Q 3525 3141 3298 2862 
Q 3072 2584 2669 2484 
Q 3125 2378 3379 2068 
Q 3634 1759 3634 1313 
Q 3634 634 3220 271 
Q 2806 -91 2034 -91 
Q 1263 -91 848 271 
Q 434 634 434 1313 
Q 434 1759 690 2068 
Q 947 2378 1403 2484 
z
M 1172 3481 
Q 1172 3119 1398 2916 
Q 1625 2713 2034 2713 
Q 2441 2713 2670 2916 
Q 2900 3119 2900 3481 
Q 2900 3844 2670 4047 
Q 2441 4250 2034 4250 
Q 1625 4250 1398 4047 
Q 1172 3844 1172 3481 
z
" transform="scale(0.015625)"/>
       </defs>
       <use xlink:href="#DejaVuSans-31"/>
       <use xlink:href="#DejaVuSans-38" x="63.623047"/>
       <use xlink:href="#DejaVuSans-31" x="127.246094"/>
      </g>
     </g>
    </g>
    <g id="xtick_12">
     <g id="line2d_12">
      <g>
       <use xlink:href="#mae8161bf96" x="306.478024" y="252" style="stroke: #000000; stroke-width: 0.8"/>
      </g>
     </g>
     <g id="text_12">
      <!-- 199 -->
      <g transform="translate(296.934274 266.598437)scale(0.1 -0.1)">
       <use xlink:href="#DejaVuSans-31"/>
       <use xlink:href="#DejaVuSans-39" x="63.623047"/>
       <use xlink:href="#DejaVuSans-39" x="127.246094"/>
      </g>
     </g>
    </g>
    <g id="xtick_13">
     <g id="line2d_13">
      <g>
       <use xlink:href="#mae8161bf96" x="328.047101" y="252" style="stroke: #000000; stroke-width: 0.8"/>
      </g>
     </g>
     <g id="text_13">
      <!-- 217 -->
      <g transform="translate(318.503351 266.598437)scale(0.1 -0.1)">
       <use xlink:href="#DejaVuSans-32"/>
       <use xlink:href="#DejaVuSans-31" x="63.623047"/>
       <use xlink:href="#DejaVuSans-37" x="127.246094"/>
      </g>
     </g>
    </g>
    <g id="xtick_14">
     <g id="line2d_14">
      <g>
       <use xlink:href="#mae8161bf96" x="349.616178" y="252" style="stroke: #000000; stroke-width: 0.8"/>
      </g>
     </g>
     <g id="text_14">
      <!-- 235 -->
      <g transform="translate(340.072428 266.598437)scale(0.1 -0.1)">
       <use xlink:href="#DejaVuSans-32"/>
       <use xlink:href="#DejaVuSans-33" x="63.623047"/>
       <use xlink:href="#DejaVuSans-35" x="127.246094"/>
      </g>
     </g>
    </g>
    <g id="xtick_15">
     <g id="line2d_15">
      <g>
       <use xlink:href="#mae8161bf96" x="371.185254" y="252" style="stroke: #000000; stroke-width: 0.8"/>
      </g>
     </g>
     <g id="text_15">
      <!-- 253 -->
      <g transform="translate(361.641504 266.598437)scale(0.1 -0.1)">
       <use xlink:href="#DejaVuSans-32"/>
       <use xlink:href="#DejaVuSans-35" x="63.623047"/>
       <use xlink:href="#DejaVuSans-33" x="127.246094"/>
      </g>
     </g>
    </g>
    <g id="text_16">
     <!-- Program size -->
     <g transform="translate(189.022656 280.276563)scale(0.1 -0.1)">
      <defs>
       <path id="DejaVuSans-50" d="M 1259 4147 
L 1259 2394 
L 2053 2394 
Q 2494 2394 2734 2622 
Q 2975 2850 2975 3272 
Q 2975 3691 2734 3919 
Q 2494 4147 2053 4147 
L 1259 4147 
z
M 628 4666 
L 2053 4666 
Q 2838 4666 3239 4311 
Q 3641 3956 3641 3272 
Q 3641 2581 3239 2228 
Q 2838 1875 2053 1875 
L 1259 1875 
L 1259 0 
L 628 0 
L 628 4666 
z
" transform="scale(0.015625)"/>
       <path id="DejaVuSans-72" d="M 2631 2963 
Q 2534 3019 2420 3045 
Q 2306 3072 2169 3072 
Q 1681 3072 1420 2755 
Q 1159 2438 1159 1844 
L 1159 0 
L 581 0 
L 581 3500 
L 1159 3500 
L 1159 2956 
Q 1341 3275 1631 3429 
Q 1922 3584 2338 3584 
Q 2397 3584 2469 3576 
Q 2541 3569 2628 3553 
L 2631 2963 
z
" transform="scale(0.015625)"/>
       <path id="DejaVuSans-6f" d="M 1959 3097 
Q 1497 3097 1228 2736 
Q 959 2375 959 1747 
Q 959 1119 1226 758 
Q 1494 397 1959 397 
Q 2419 397 2687 759 
Q 2956 1122 2956 1747 
Q 2956 2369 2687 2733 
Q 2419 3097 1959 3097 
z
M 1959 3584 
Q 2709 3584 3137 3096 
Q 3566 2609 3566 1747 
Q 3566 888 3137 398 
Q 2709 -91 1959 -91 
Q 1206 -91 779 398 
Q 353 888 353 1747 
Q 353 2609 779 3096 
Q 1206 3584 1959 3584 
z
" transform="scale(0.015625)"/>
       <path id="DejaVuSans-67" d="M 2906 1791 
Q 2906 2416 2648 2759 
Q 2391 3103 1925 3103 
Q 1463 3103 1205 2759 
Q 947 2416 947 1791 
Q 947 1169 1205 825 
Q 1463 481 1925 481 
Q 2391 481 2648 825 
Q 2906 1169 2906 1791 
z
M 3481 434 
Q 3481 -459 3084 -895 
Q 2688 -1331 1869 -1331 
Q 1566 -1331 1297 -1286 
Q 1028 -1241 775 -1147 
L 775 -588 
Q 1028 -725 1275 -790 
Q 1522 -856 1778 -856 
Q 2344 -856 2625 -561 
Q 2906 -266 2906 331 
L 2906 616 
Q 2728 306 2450 153 
Q 2172 0 1784 0 
Q 1141 0 747 490 
Q 353 981 353 1791 
Q 353 2603 747 3093 
Q 1141 3584 1784 3584 
Q 2172 3584 2450 3431 
Q 2728 3278 2906 2969 
L 2906 3500 
L 3481 3500 
L 3481 434 
z
" transform="scale(0.015625)"/>
       <path id="DejaVuSans-61" d="M 2194 1759 
Q 1497 1759 1228 1600 
Q 959 1441 959 1056 
Q 959 750 1161 570 
Q 1363 391 1709 391 
Q 2188 391 2477 730 
Q 2766 1069 2766 1631 
L 2766 1759 
L 2194 1759 
z
M 3341 1997 
L 3341 0 
L 2766 0 
L 2766 531 
Q 2569 213 2275 61 
Q 1981 -91 1556 -91 
Q 1019 -91 701 211 
Q 384 513 384 1019 
Q 384 1609 779 1909 
Q 1175 2209 1959 2209 
L 2766 2209 
L 2766 2266 
Q 2766 2663 2505 2880 
Q 2244 3097 1772 3097 
Q 1472 3097 1187 3025 
Q 903 2953 641 2809 
L 641 3341 
Q 956 3463 1253 3523 
Q 1550 3584 1831 3584 
Q 2591 3584 2966 3190 
Q 3341 2797 3341 1997 
z
" transform="scale(0.015625)"/>
       <path id="DejaVuSans-6d" d="M 3328 2828 
Q 3544 3216 3844 3400 
Q 4144 3584 4550 3584 
Q 5097 3584 5394 3201 
Q 5691 2819 5691 2113 
L 5691 0 
L 5113 0 
L 5113 2094 
Q 5113 2597 4934 2840 
Q 4756 3084 4391 3084 
Q 3944 3084 3684 2787 
Q 3425 2491 3425 1978 
L 3425 0 
L 2847 0 
L 2847 2094 
Q 2847 2600 2669 2842 
Q 2491 3084 2119 3084 
Q 1678 3084 1418 2786 
Q 1159 2488 1159 1978 
L 1159 0 
L 581 0 
L 581 3500 
L 1159 3500 
L 1159 2956 
Q 1356 3278 1631 3431 
Q 1906 3584 2284 3584 
Q 2666 3584 2933 3390 
Q 3200 3197 3328 2828 
z
" transform="scale(0.015625)"/>
       <path id="DejaVuSans-20" transform="scale(0.015625)"/>
       <path id="DejaVuSans-73" d="M 2834 3397 
L 2834 2853 
Q 2591 2978 2328 3040 
Q 2066 3103 1784 3103 
Q 1356 3103 1142 2972 
Q 928 2841 928 2578 
Q 928 2378 1081 2264 
Q 1234 2150 1697 2047 
L 1894 2003 
Q 2506 1872 2764 1633 
Q 3022 1394 3022 966 
Q 3022 478 2636 193 
Q 2250 -91 1575 -91 
Q 1294 -91 989 -36 
Q 684 19 347 128 
L 347 722 
Q 666 556 975 473 
Q 1284 391 1588 391 
Q 1994 391 2212 530 
Q 2431 669 2431 922 
Q 2431 1156 2273 1281 
Q 2116 1406 1581 1522 
L 1381 1569 
Q 847 1681 609 1914 
Q 372 2147 372 2553 
Q 372 3047 722 3315 
Q 1072 3584 1716 3584 
Q 2034 3584 2315 3537 
Q 2597 3491 2834 3397 
z
" transform="scale(0.015625)"/>
       <path id="DejaVuSans-69" d="M 603 3500 
L 1178 3500 
L 1178 0 
L 603 0 
L 603 3500 
z
M 603 4863 
L 1178 4863 
L 1178 4134 
L 603 4134 
L 603 4863 
z
" transform="scale(0.015625)"/>
       <path id="DejaVuSans-7a" d="M 353 3500 
L 3084 3500 
L 3084 2975 
L 922 459 
L 3084 459 
L 3084 0 
L 275 0 
L 275 525 
L 2438 3041 
L 353 3041 
L 353 3500 
z
" transform="scale(0.015625)"/>
       <path id="DejaVuSans-65" d="M 3597 1894 
L 3597 1613 
L 953 1613 
Q 991 1019 1311 708 
Q 1631 397 2203 397 
Q 2534 397 2845 478 
Q 3156 559 3463 722 
L 3463 178 
Q 3153 47 2828 -22 
Q 2503 -91 2169 -91 
Q 1331 -91 842 396 
Q 353 884 353 1716 
Q 353 2575 817 3079 
Q 1281 3584 2069 3584 
Q 2775 3584 3186 3129 
Q 3597 2675 3597 1894 
z
M 3022 2063 
Q 3016 2534 2758 2815 
Q 2500 3097 2075 3097 
Q 1594 3097 1305 2825 
Q 1016 2553 972 2059 
L 3022 2063 
z
" transform="scale(0.015625)"/>
      </defs>
      <use xlink:href="#DejaVuSans-50"/>
      <use xlink:href="#DejaVuSans-72" x="58.552734"/>
      <use xlink:href="#DejaVuSans-6f" x="97.416016"/>
      <use xlink:href="#DejaVuSans-67" x="158.597656"/>
      <use xlink:href="#DejaVuSans-72" x="222.074219"/>
      <use xlink:href="#DejaVuSans-61" x="263.1875"/>
      <use xlink:href="#DejaVuSans-6d" x="324.466797"/>
      <use xlink:href="#DejaVuSans-20" x="421.878906"/>
      <use xlink:href="#DejaVuSans-73" x="453.666016"/>
      <use xlink:href="#DejaVuSans-69" x="505.765625"/>
      <use xlink:href="#DejaVuSans-7a" x="533.548828"/>
      <use xlink:href="#DejaVuSans-65" x="586.039062"/>
     </g>
    </g>
   </g>
   <g id="matplotlib.axis_2">
    <g id="ytick_1">
     <g id="line2d_16">
      <defs>
       <path id="m804253b43c" d="M 0 0 
L -3.5 0 
" style="stroke: #000000; stroke-width: 0.8"/>
      </defs>
      <g>
       <use xlink:href="#m804253b43c" x="54" y="246.880406" style="stroke: #000000; stroke-width: 0.8"/>
      </g>
     </g>
     <g id="text_17">
      <!-- $\mathdefault{10^{6}}$ -->
      <g transform="translate(29.4 250.679625)scale(0.1 -0.1)">
       <use xlink:href="#DejaVuSans-31" transform="translate(0 0.765625)"/>
       <use xlink:href="#DejaVuSans-30" transform="translate(63.623047 0.765625)"/>
       <use xlink:href="#DejaVuSans-36" transform="translate(128.203125 39.046875)scale(0.7)"/>
      </g>
     </g>
    </g>
    <g id="ytick_2">
     <g id="line2d_17">
      <g>
       <use xlink:href="#m804253b43c" x="54" y="204.5719" style="stroke: #000000; stroke-width: 0.8"/>
      </g>
     </g>
     <g id="text_18">
      <!-- $\mathdefault{10^{7}}$ -->
      <g transform="translate(29.4 208.371119)scale(0.1 -0.1)">
       <use xlink:href="#DejaVuSans-31" transform="translate(0 0.684375)"/>
       <use xlink:href="#DejaVuSans-30" transform="translate(63.623047 0.684375)"/>
       <use xlink:href="#DejaVuSans-37" transform="translate(128.203125 38.965625)scale(0.7)"/>
      </g>
     </g>
    </g>
    <g id="ytick_3">
     <g id="line2d_18">
      <g>
       <use xlink:href="#m804253b43c" x="54" y="162.263394" style="stroke: #000000; stroke-width: 0.8"/>
      </g>
     </g>
     <g id="text_19">
      <!-- $\mathdefault{10^{8}}$ -->
      <g transform="translate(29.4 166.062613)scale(0.1 -0.1)">
       <use xlink:href="#DejaVuSans-31" transform="translate(0 0.765625)"/>
       <use xlink:href="#DejaVuSans-30" transform="translate(63.623047 0.765625)"/>
       <use xlink:href="#DejaVuSans-38" transform="translate(128.203125 39.046875)scale(0.7)"/>
      </g>
     </g>
    </g>
    <g id="ytick_4">
     <g id="line2d_19">
      <g>
       <use xlink:href="#m804253b43c" x="54" y="119.954888" style="stroke: #000000; stroke-width: 0.8"/>
      </g>
     </g>
     <g id="text_20">
      <!-- $\mathdefault{10^{9}}$ -->
      <g transform="translate(29.4 123.754107)scale(0.1 -0.1)">
       <use xlink:href="#DejaVuSans-31" transform="translate(0 0.765625)"/>
       <use xlink:href="#DejaVuSans-30" transform="translate(63.623047 0.765625)"/>
       <use xlink:href="#DejaVuSans-39" transform="translate(128.203125 39.046875)scale(0.7)"/>
      </g>
     </g>
    </g>
    <g id="ytick_5">
     <g id="line2d_20">
      <g>
       <use xlink:href="#m804253b43c" x="54" y="77.646382" style="stroke: #000000; stroke-width: 0.8"/>
      </g>
     </g>
     <g id="text_21">
      <!-- $\mathdefault{10^{10}}$ -->
      <g transform="translate(24.9 81.4456)scale(0.1 -0.1)">
       <use xlink:href="#DejaVuSans-31" transform="translate(0 0.765625)"/>
       <use xlink:href="#DejaVuSans-30" transform="translate(63.623047 0.765625)"/>
       <use xlink:href="#DejaVuSans-31" transform="translate(128.203125 39.046875)scale(0.7)"/>
       <use xlink:href="#DejaVuSans-30" transform="translate(172.739258 39.046875)scale(0.7)"/>
      </g>
     </g>
    </g>
    <g id="ytick_6">
     <g id="line2d_21">
      <g>
       <use xlink:href="#m804253b43c" x="54" y="35.337875" style="stroke: #000000; stroke-width: 0.8"/>
      </g>
     </g>
     <g id="text_22">
      <!-- $\mathdefault{10^{11}}$ -->
      <g transform="translate(24.9 39.137094)scale(0.1 -0.1)">
       <use xlink:href="#DejaVuSans-31" transform="translate(0 0.684375)"/>
       <use xlink:href="#DejaVuSans-30" transform="translate(63.623047 0.684375)"/>
       <use xlink:href="#DejaVuSans-31" transform="translate(128.203125 38.965625)scale(0.7)"/>
       <use xlink:href="#DejaVuSans-31" transform="translate(172.739258 38.965625)scale(0.7)"/>
      </g>
     </g>
    </g>
    <g id="ytick_7">
     <g id="line2d_22">
      <defs>
       <path id="mb9a9d28103" d="M 0 0 
L -2 0 
" style="stroke: #000000; stroke-width: 0.6"/>
      </defs>
      <g>
       <use xlink:href="#mb9a9d28103" x="54" y="250.980524" style="stroke: #000000; stroke-width: 0.6"/>
      </g>
     </g>
    </g>
    <g id="ytick_8">
     <g id="line2d_23">
      <g>
       <use xlink:href="#mb9a9d28103" x="54" y="248.816338" style="stroke: #000000; stroke-width: 0.6"/>
      </g>
     </g>
    </g>
    <g id="ytick_9">
     <g id="line2d_24">
      <g>
       <use xlink:href="#mb9a9d28103" x="54" y="234.144277" style="stroke: #000000; stroke-width: 0.6"/>
      </g>
     </g>
    </g>
    <g id="ytick_10">
     <g id="line2d_25">
      <g>
       <use xlink:href="#mb9a9d28103" x="54" y="226.694119" style="stroke: #000000; stroke-width: 0.6"/>
      </g>
     </g>
    </g>
    <g id="ytick_11">
     <g id="line2d_26">
      <g>
       <use xlink:href="#mb9a9d28103" x="54" y="221.408148" style="stroke: #000000; stroke-width: 0.6"/>
      </g>
     </g>
    </g>
    <g id="ytick_12">
     <g id="line2d_27">
      <g>
       <use xlink:href="#mb9a9d28103" x="54" y="217.30803" style="stroke: #000000; stroke-width: 0.6"/>
      </g>
     </g>
    </g>
    <g id="ytick_13">
     <g id="line2d_28">
      <g>
       <use xlink:href="#mb9a9d28103" x="54" y="213.957989" style="stroke: #000000; stroke-width: 0.6"/>
      </g>
     </g>
    </g>
    <g id="ytick_14">
     <g id="line2d_29">
      <g>
       <use xlink:href="#mb9a9d28103" x="54" y="211.125571" style="stroke: #000000; stroke-width: 0.6"/>
      </g>
     </g>
    </g>
    <g id="ytick_15">
     <g id="line2d_30">
      <g>
       <use xlink:href="#mb9a9d28103" x="54" y="208.672018" style="stroke: #000000; stroke-width: 0.6"/>
      </g>
     </g>
    </g>
    <g id="ytick_16">
     <g id="line2d_31">
      <g>
       <use xlink:href="#mb9a9d28103" x="54" y="206.507831" style="stroke: #000000; stroke-width: 0.6"/>
      </g>
     </g>
    </g>
    <g id="ytick_17">
     <g id="line2d_32">
      <g>
       <use xlink:href="#mb9a9d28103" x="54" y="191.835771" style="stroke: #000000; stroke-width: 0.6"/>
      </g>
     </g>
    </g>
    <g id="ytick_18">
     <g id="line2d_33">
      <g>
       <use xlink:href="#mb9a9d28103" x="54" y="184.385613" style="stroke: #000000; stroke-width: 0.6"/>
      </g>
     </g>
    </g>
    <g id="ytick_19">
     <g id="line2d_34">
      <g>
       <use xlink:href="#mb9a9d28103" x="54" y="179.099641" style="stroke: #000000; stroke-width: 0.6"/>
      </g>
     </g>
    </g>
    <g id="ytick_20">
     <g id="line2d_35">
      <g>
       <use xlink:href="#mb9a9d28103" x="54" y="174.999523" style="stroke: #000000; stroke-width: 0.6"/>
      </g>
     </g>
    </g>
    <g id="ytick_21">
     <g id="line2d_36">
      <g>
       <use xlink:href="#mb9a9d28103" x="54" y="171.649483" style="stroke: #000000; stroke-width: 0.6"/>
      </g>
     </g>
    </g>
    <g id="ytick_22">
     <g id="line2d_37">
      <g>
       <use xlink:href="#mb9a9d28103" x="54" y="168.817065" style="stroke: #000000; stroke-width: 0.6"/>
      </g>
     </g>
    </g>
    <g id="ytick_23">
     <g id="line2d_38">
      <g>
       <use xlink:href="#mb9a9d28103" x="54" y="166.363512" style="stroke: #000000; stroke-width: 0.6"/>
      </g>
     </g>
    </g>
    <g id="ytick_24">
     <g id="line2d_39">
      <g>
       <use xlink:href="#mb9a9d28103" x="54" y="164.199325" style="stroke: #000000; stroke-width: 0.6"/>
      </g>
     </g>
    </g>
    <g id="ytick_25">
     <g id="line2d_40">
      <g>
       <use xlink:href="#mb9a9d28103" x="54" y="149.527265" style="stroke: #000000; stroke-width: 0.6"/>
      </g>
     </g>
    </g>
    <g id="ytick_26">
     <g id="line2d_41">
      <g>
       <use xlink:href="#mb9a9d28103" x="54" y="142.077106" style="stroke: #000000; stroke-width: 0.6"/>
      </g>
     </g>
    </g>
    <g id="ytick_27">
     <g id="line2d_42">
      <g>
       <use xlink:href="#mb9a9d28103" x="54" y="136.791135" style="stroke: #000000; stroke-width: 0.6"/>
      </g>
     </g>
    </g>
    <g id="ytick_28">
     <g id="line2d_43">
      <g>
       <use xlink:href="#mb9a9d28103" x="54" y="132.691017" style="stroke: #000000; stroke-width: 0.6"/>
      </g>
     </g>
    </g>
    <g id="ytick_29">
     <g id="line2d_44">
      <g>
       <use xlink:href="#mb9a9d28103" x="54" y="129.340977" style="stroke: #000000; stroke-width: 0.6"/>
      </g>
     </g>
    </g>
    <g id="ytick_30">
     <g id="line2d_45">
      <g>
       <use xlink:href="#mb9a9d28103" x="54" y="126.508558" style="stroke: #000000; stroke-width: 0.6"/>
      </g>
     </g>
    </g>
    <g id="ytick_31">
     <g id="line2d_46">
      <g>
       <use xlink:href="#mb9a9d28103" x="54" y="124.055006" style="stroke: #000000; stroke-width: 0.6"/>
      </g>
     </g>
    </g>
    <g id="ytick_32">
     <g id="line2d_47">
      <g>
       <use xlink:href="#mb9a9d28103" x="54" y="121.890819" style="stroke: #000000; stroke-width: 0.6"/>
      </g>
     </g>
    </g>
    <g id="ytick_33">
     <g id="line2d_48">
      <g>
       <use xlink:href="#mb9a9d28103" x="54" y="107.218758" style="stroke: #000000; stroke-width: 0.6"/>
      </g>
     </g>
    </g>
    <g id="ytick_34">
     <g id="line2d_49">
      <g>
       <use xlink:href="#mb9a9d28103" x="54" y="99.7686" style="stroke: #000000; stroke-width: 0.6"/>
      </g>
     </g>
    </g>
    <g id="ytick_35">
     <g id="line2d_50">
      <g>
       <use xlink:href="#mb9a9d28103" x="54" y="94.482629" style="stroke: #000000; stroke-width: 0.6"/>
      </g>
     </g>
    </g>
    <g id="ytick_36">
     <g id="line2d_51">
      <g>
       <use xlink:href="#mb9a9d28103" x="54" y="90.382511" style="stroke: #000000; stroke-width: 0.6"/>
      </g>
     </g>
    </g>
    <g id="ytick_37">
     <g id="line2d_52">
      <g>
       <use xlink:href="#mb9a9d28103" x="54" y="87.032471" style="stroke: #000000; stroke-width: 0.6"/>
      </g>
     </g>
    </g>
    <g id="ytick_38">
     <g id="line2d_53">
      <g>
       <use xlink:href="#mb9a9d28103" x="54" y="84.200052" style="stroke: #000000; stroke-width: 0.6"/>
      </g>
     </g>
    </g>
    <g id="ytick_39">
     <g id="line2d_54">
      <g>
       <use xlink:href="#mb9a9d28103" x="54" y="81.746499" style="stroke: #000000; stroke-width: 0.6"/>
      </g>
     </g>
    </g>
    <g id="ytick_40">
     <g id="line2d_55">
      <g>
       <use xlink:href="#mb9a9d28103" x="54" y="79.582313" style="stroke: #000000; stroke-width: 0.6"/>
      </g>
     </g>
    </g>
    <g id="ytick_41">
     <g id="line2d_56">
      <g>
       <use xlink:href="#mb9a9d28103" x="54" y="64.910252" style="stroke: #000000; stroke-width: 0.6"/>
      </g>
     </g>
    </g>
    <g id="ytick_42">
     <g id="line2d_57">
      <g>
       <use xlink:href="#mb9a9d28103" x="54" y="57.460094" style="stroke: #000000; stroke-width: 0.6"/>
      </g>
     </g>
    </g>
    <g id="ytick_43">
     <g id="line2d_58">
      <g>
       <use xlink:href="#mb9a9d28103" x="54" y="52.174123" style="stroke: #000000; stroke-width: 0.6"/>
      </g>
     </g>
    </g>
    <g id="ytick_44">
     <g id="line2d_59">
      <g>
       <use xlink:href="#mb9a9d28103" x="54" y="48.074005" style="stroke: #000000; stroke-width: 0.6"/>
      </g>
     </g>
    </g>
    <g id="ytick_45">
     <g id="line2d_60">
      <g>
       <use xlink:href="#mb9a9d28103" x="54" y="44.723965" style="stroke: #000000; stroke-width: 0.6"/>
      </g>
     </g>
    </g>
    <g id="ytick_46">
     <g id="line2d_61">
      <g>
       <use xlink:href="#mb9a9d28103" x="54" y="41.891546" style="stroke: #000000; stroke-width: 0.6"/>
      </g>
     </g>
    </g>
    <g id="ytick_47">
     <g id="line2d_62">
      <g>
       <use xlink:href="#mb9a9d28103" x="54" y="39.437993" style="stroke: #000000; stroke-width: 0.6"/>
      </g>
     </g>
    </g>
    <g id="ytick_48">
     <g id="line2d_63">
      <g>
       <use xlink:href="#mb9a9d28103" x="54" y="37.273806" style="stroke: #000000; stroke-width: 0.6"/>
      </g>
     </g>
    </g>
    <g id="text_23">
     <!-- Median NEPS -->
     <g transform="translate(18.820312 176.144844)rotate(-90)scale(0.1 -0.1)">
      <defs>
       <path id="DejaVuSans-4d" d="M 628 4666 
L 1569 4666 
L 2759 1491 
L 3956 4666 
L 4897 4666 
L 4897 0 
L 4281 0 
L 4281 4097 
L 3078 897 
L 2444 897 
L 1241 4097 
L 1241 0 
L 628 0 
L 628 4666 
z
" transform="scale(0.015625)"/>
       <path id="DejaVuSans-64" d="M 2906 2969 
L 2906 4863 
L 3481 4863 
L 3481 0 
L 2906 0 
L 2906 525 
Q 2725 213 2448 61 
Q 2172 -91 1784 -91 
Q 1150 -91 751 415 
Q 353 922 353 1747 
Q 353 2572 751 3078 
Q 1150 3584 1784 3584 
Q 2172 3584 2448 3432 
Q 2725 3281 2906 2969 
z
M 947 1747 
Q 947 1113 1208 752 
Q 1469 391 1925 391 
Q 2381 391 2643 752 
Q 2906 1113 2906 1747 
Q 2906 2381 2643 2742 
Q 2381 3103 1925 3103 
Q 1469 3103 1208 2742 
Q 947 2381 947 1747 
z
" transform="scale(0.015625)"/>
       <path id="DejaVuSans-6e" d="M 3513 2113 
L 3513 0 
L 2938 0 
L 2938 2094 
Q 2938 2591 2744 2837 
Q 2550 3084 2163 3084 
Q 1697 3084 1428 2787 
Q 1159 2491 1159 1978 
L 1159 0 
L 581 0 
L 581 3500 
L 1159 3500 
L 1159 2956 
Q 1366 3272 1645 3428 
Q 1925 3584 2291 3584 
Q 2894 3584 3203 3211 
Q 3513 2838 3513 2113 
z
" transform="scale(0.015625)"/>
       <path id="DejaVuSans-4e" d="M 628 4666 
L 1478 4666 
L 3547 763 
L 3547 4666 
L 4159 4666 
L 4159 0 
L 3309 0 
L 1241 3903 
L 1241 0 
L 628 0 
L 628 4666 
z
" transform="scale(0.015625)"/>
       <path id="DejaVuSans-45" d="M 628 4666 
L 3578 4666 
L 3578 4134 
L 1259 4134 
L 1259 2753 
L 3481 2753 
L 3481 2222 
L 1259 2222 
L 1259 531 
L 3634 531 
L 3634 0 
L 628 0 
L 628 4666 
z
" transform="scale(0.015625)"/>
       <path id="DejaVuSans-53" d="M 3425 4513 
L 3425 3897 
Q 3066 4069 2747 4153 
Q 2428 4238 2131 4238 
Q 1616 4238 1336 4038 
Q 1056 3838 1056 3469 
Q 1056 3159 1242 3001 
Q 1428 2844 1947 2747 
L 2328 2669 
Q 3034 2534 3370 2195 
Q 3706 1856 3706 1288 
Q 3706 609 3251 259 
Q 2797 -91 1919 -91 
Q 1588 -91 1214 -16 
Q 841 59 441 206 
L 441 856 
Q 825 641 1194 531 
Q 1563 422 1919 422 
Q 2459 422 2753 634 
Q 3047 847 3047 1241 
Q 3047 1584 2836 1778 
Q 2625 1972 2144 2069 
L 1759 2144 
Q 1053 2284 737 2584 
Q 422 2884 422 3419 
Q 422 4038 858 4394 
Q 1294 4750 2059 4750 
Q 2388 4750 2728 4690 
Q 3069 4631 3425 4513 
z
" transform="scale(0.015625)"/>
      </defs>
      <use xlink:href="#DejaVuSans-4d"/>
      <use xlink:href="#DejaVuSans-65" x="86.279297"/>
      <use xlink:href="#DejaVuSans-64" x="147.802734"/>
      <use xlink:href="#DejaVuSans-69" x="211.279297"/>
      <use xlink:href="#DejaVuSans-61" x="239.0625"/>
      <use xlink:href="#DejaVuSans-6e" x="300.341797"/>
      <use xlink:href="#DejaVuSans-20" x="363.720703"/>
      <use xlink:href="#DejaVuSans-4e" x="395.507812"/>
      <use xlink:href="#DejaVuSans-45" x="470.3125"/>
      <use xlink:href="#DejaVuSans-50" x="533.496094"/>
      <use xlink:href="#DejaVuSans-53" x="593.798828"/>
     </g>
    </g>
   </g>
   <g id="line2d_64">
    <path d="M 69.218182 241.510304 
L 71.614746 222.441383 
L 74.01131 217.953591 
L 76.407874 215.929765 
L 78.804438 208.912722 
L 81.201002 209.173088 
L 83.597566 207.125086 
L 85.99413 208.829163 
L 88.390694 202.511964 
L 90.787258 203.412859 
L 93.183822 204.962694 
L 95.580387 201.934787 
L 97.976951 206.658617 
L 100.373515 201.481336 
L 102.770079 199.039489 
L 105.166643 199.25958 
L 107.563207 204.332054 
L 109.959771 202.681268 
L 112.356335 203.980468 
L 114.752899 195.317966 
L 117.149463 197.486425 
L 119.546027 200.106475 
L 121.942591 198.977988 
L 124.339155 202.447425 
L 126.735719 202.197668 
L 129.132283 197.38913 
L 131.528848 198.891923 
L 133.925412 201.478299 
L 136.321976 195.471263 
L 141.115104 200.594726 
L 143.511668 197.496836 
L 145.908232 199.542639 
L 148.304796 200.411759 
L 150.70136 199.89695 
L 153.097924 195.748861 
L 155.494488 199.766253 
L 157.891052 201.661704 
L 160.287616 200.379271 
L 162.68418 199.357145 
L 165.080744 197.440798 
L 167.477309 199.172698 
L 169.873873 199.172148 
L 172.270437 196.585273 
L 174.667001 197.789316 
L 177.063565 195.603511 
L 179.460129 199.988615 
L 181.856693 197.505814 
L 184.253257 196.565243 
L 186.649821 196.522225 
L 189.046385 197.315221 
L 191.442949 197.813865 
L 193.839513 195.947609 
L 196.236077 199.832716 
L 198.632641 196.831198 
L 201.029205 198.784584 
L 203.42577 194.622631 
L 205.822334 197.485602 
L 208.218898 197.060319 
L 210.615462 198.734759 
L 213.012026 197.769046 
L 215.40859 196.989803 
L 217.805154 197.374909 
L 220.201718 195.940719 
L 222.598282 195.33051 
L 224.994846 195.801923 
L 227.39141 195.565916 
L 229.787974 195.979904 
L 232.184538 197.352017 
L 234.581102 198.171881 
L 236.977666 195.673035 
L 239.37423 196.945231 
L 241.770795 194.797569 
L 244.167359 198.689968 
L 246.563923 196.930022 
L 248.960487 196.601888 
L 251.357051 197.510666 
L 253.753615 196.596138 
L 256.150179 196.636885 
L 258.546743 194.09631 
L 260.943307 196.424451 
L 263.339871 196.936609 
L 265.736435 198.654349 
L 268.132999 197.028976 
L 270.529563 196.222583 
L 275.322691 198.394872 
L 277.719256 196.233645 
L 280.11582 199.524989 
L 282.512384 196.895591 
L 284.908948 196.760076 
L 287.305512 197.276437 
L 289.702076 197.558223 
L 292.09864 195.903398 
L 294.495204 199.087843 
L 296.891768 197.735604 
L 299.288332 196.725188 
L 301.684896 198.042228 
L 304.08146 196.935991 
L 306.478024 195.105439 
L 308.874588 196.79868 
L 311.271152 196.462104 
L 313.667717 194.548628 
L 316.064281 196.52345 
L 318.460845 196.364432 
L 320.857409 194.621938 
L 323.253973 196.440386 
L 325.650537 194.181433 
L 328.047101 196.889703 
L 330.443665 197.374077 
L 332.840229 196.420894 
L 335.236793 195.762046 
L 337.633357 198.961482 
L 340.029921 195.609759 
L 342.426485 196.331457 
L 344.823049 195.055835 
L 347.219613 194.834629 
L 349.616178 195.529274 
L 352.012742 194.437352 
L 354.409306 194.098216 
L 356.80587 196.084631 
L 359.202434 194.867328 
L 361.598998 196.529923 
L 363.995562 196.602389 
L 366.392126 196.869646 
L 368.78869 197.338457 
L 371.185254 195.593063 
L 373.581818 196.866474 
L 373.581818 196.866474 
" clip-path="url(#p700c8dfae1)" style="fill: none; stroke: #1f77b4; stroke-width: 1.5; stroke-linecap: square"/>
   </g>
   <g id="line2d_65">
    <path d="M 69.218182 242.116364 
L 71.614746 173.77061 
L 74.01131 166.693293 
L 76.407874 165.51901 
L 78.804438 156.84155 
L 81.201002 158.717204 
L 83.597566 158.50857 
L 85.99413 155.457987 
L 88.390694 152.872596 
L 90.787258 154.46815 
L 93.183822 154.471103 
L 95.580387 151.557697 
L 97.976951 155.438676 
L 100.373515 148.565494 
L 102.770079 146.678196 
L 105.166643 149.90542 
L 107.563207 150.00003 
L 109.959771 150.312887 
L 112.356335 150.152681 
L 114.752899 145.624823 
L 117.149463 148.242779 
L 119.546027 147.816379 
L 121.942591 146.204931 
L 124.339155 148.524555 
L 126.735719 147.989122 
L 129.132283 145.23352 
L 131.528848 148.187257 
L 133.925412 149.216357 
L 136.321976 144.755427 
L 138.71854 145.242007 
L 141.115104 148.108983 
L 143.511668 146.03056 
L 145.908232 149.638584 
L 148.304796 152.652442 
L 150.70136 151.541969 
L 153.097924 150.731604 
L 157.891052 152.774712 
L 160.287616 151.672571 
L 162.68418 153.144807 
L 165.080744 151.30072 
L 167.477309 153.517566 
L 172.270437 144.17726 
L 174.667001 147.465911 
L 177.063565 146.72422 
L 179.460129 152.658143 
L 181.856693 151.457447 
L 184.253257 150.589033 
L 186.649821 146.156204 
L 189.046385 150.178501 
L 191.442949 152.270106 
L 193.839513 146.988841 
L 196.236077 151.251518 
L 198.632641 151.530272 
L 201.029205 146.574597 
L 203.42577 149.281271 
L 205.822334 152.700935 
L 208.218898 150.648251 
L 210.615462 152.724711 
L 213.012026 145.216649 
L 215.40859 145.102223 
L 217.805154 147.224102 
L 220.201718 145.854219 
L 222.598282 149.059068 
L 224.994846 149.600719 
L 227.39141 149.822122 
L 229.787974 149.803047 
L 232.184538 151.082121 
L 234.581102 149.329617 
L 236.977666 148.558023 
L 239.37423 149.884894 
L 241.770795 148.140434 
L 244.167359 151.625818 
L 246.563923 150.384685 
L 248.960487 150.054442 
L 251.357051 151.678871 
L 253.753615 150.584875 
L 256.150179 150.431843 
L 258.546743 147.937712 
L 260.943307 150.18376 
L 263.339871 149.727849 
L 265.736435 150.399809 
L 268.132999 150.446942 
L 270.529563 150.219491 
L 272.926127 150.727121 
L 275.322691 150.458671 
L 277.719256 150.566244 
L 280.11582 150.813512 
L 282.512384 150.690741 
L 284.908948 149.431544 
L 287.305512 144.563163 
L 289.702076 146.458813 
L 292.09864 144.82712 
L 294.495204 146.551799 
L 296.891768 144.871905 
L 299.288332 145.091215 
L 301.684896 145.74477 
L 304.08146 146.200992 
L 306.478024 142.800971 
L 308.874588 145.686351 
L 311.271152 146.010556 
L 313.667717 143.381733 
L 316.064281 145.631888 
L 318.460845 145.519598 
L 320.857409 143.923422 
L 323.253973 144.775108 
L 325.650537 144.403479 
L 328.047101 146.140187 
L 330.443665 146.282015 
L 332.840229 143.691439 
L 335.236793 145.134876 
L 337.633357 146.274798 
L 340.029921 144.973051 
L 342.426485 146.67161 
L 344.823049 144.799713 
L 347.219613 144.124154 
L 349.616178 144.528176 
L 352.012742 144.020575 
L 354.409306 144.168332 
L 356.80587 146.609961 
L 359.202434 144.066509 
L 361.598998 143.738924 
L 363.995562 145.497137 
L 366.392126 144.036972 
L 368.78869 145.104807 
L 373.581818 144.540062 
L 373.581818 144.540062 
" clip-path="url(#p700c8dfae1)" style="fill: none; stroke: #ff7f0e; stroke-width: 1.5; stroke-linecap: square"/>
   </g>
   <g id="line2d_66">
    <path d="M 69.218182 193.277601 
L 71.614746 171.937479 
L 74.01131 166.0611 
L 76.407874 164.581637 
L 78.804438 157.454612 
L 81.201002 159.052383 
L 83.597566 159.250113 
L 85.99413 155.30285 
L 88.390694 153.273359 
L 90.787258 154.897654 
L 93.183822 155.369578 
L 95.580387 151.791302 
L 97.976951 155.725849 
L 100.373515 149.247641 
L 102.770079 147.424726 
L 105.166643 149.599845 
L 109.959771 151.489752 
L 112.356335 150.675717 
L 114.752899 145.925247 
L 117.149463 148.940498 
L 119.546027 149.031892 
L 121.942591 146.660521 
L 124.339155 149.339791 
L 126.735719 149.176183 
L 129.132283 145.360747 
L 131.528848 149.050251 
L 133.925412 150.108858 
L 136.321976 146.403804 
L 138.71854 146.020111 
L 141.115104 148.717125 
L 143.511668 146.933316 
L 145.908232 149.01083 
L 148.304796 148.424646 
L 150.70136 147.085742 
L 153.097924 147.025668 
L 155.494488 147.510465 
L 157.891052 151.806257 
L 160.287616 153.418458 
L 162.68418 153.316154 
L 165.080744 147.571553 
L 167.477309 149.524945 
L 172.270437 144.749138 
L 174.667001 147.830798 
L 177.063565 147.112584 
L 179.460129 148.247648 
L 181.856693 147.063801 
L 184.253257 146.54588 
L 186.649821 146.630058 
L 189.046385 145.807124 
L 191.442949 148.059968 
L 193.839513 147.161195 
L 196.236077 146.964597 
L 198.632641 147.363249 
L 201.029205 146.881463 
L 203.42577 144.786572 
L 205.822334 148.532092 
L 208.218898 151.301785 
L 210.615462 148.936616 
L 213.012026 145.960596 
L 215.40859 145.682874 
L 217.805154 147.677261 
L 220.201718 146.929562 
L 222.598282 144.923121 
L 227.39141 146.063405 
L 229.787974 145.920154 
L 232.184538 147.152084 
L 234.581102 145.395293 
L 236.977666 144.694985 
L 239.37423 145.861317 
L 241.770795 144.627276 
L 244.167359 147.448387 
L 246.563923 146.331502 
L 248.960487 145.959373 
L 251.357051 150.89515 
L 253.753615 146.545689 
L 256.150179 146.107467 
L 258.546743 143.684231 
L 260.943307 146.47854 
L 263.339871 145.410986 
L 265.736435 145.863067 
L 268.132999 146.160069 
L 270.529563 146.191076 
L 272.926127 146.565376 
L 275.322691 146.256605 
L 277.719256 146.35117 
L 280.11582 146.575174 
L 282.512384 146.291368 
L 284.908948 145.41853 
L 287.305512 144.947191 
L 289.702076 147.361969 
L 292.09864 145.553379 
L 294.495204 147.311216 
L 296.891768 145.477661 
L 299.288332 145.537937 
L 301.684896 147.451036 
L 304.08146 147.344397 
L 306.478024 143.763483 
L 308.874588 147.901813 
L 311.271152 148.449486 
L 313.667717 144.29671 
L 316.064281 146.572488 
L 318.460845 146.426658 
L 320.857409 145.129832 
L 323.253973 146.025272 
L 325.650537 145.619448 
L 328.047101 147.406421 
L 330.443665 147.476569 
L 332.840229 144.734146 
L 335.236793 145.710842 
L 337.633357 147.041608 
L 340.029921 145.627773 
L 342.426485 147.679022 
L 344.823049 145.97803 
L 347.219613 150.116294 
L 349.616178 150.481107 
L 352.012742 149.848256 
L 354.409306 146.124295 
L 356.80587 147.614761 
L 359.202434 144.638442 
L 361.598998 144.766969 
L 363.995562 146.581065 
L 366.392126 144.771587 
L 368.78869 146.059926 
L 371.185254 145.537176 
L 373.581818 145.383427 
L 373.581818 145.383427 
" clip-path="url(#p700c8dfae1)" style="fill: none; stroke: #2ca02c; stroke-width: 1.5; stroke-linecap: square"/>
   </g>
   <g id="line2d_67">
    <path d="M 69.218182 148.531905 
L 71.614746 131.688642 
L 74.01131 125.272344 
L 76.407874 121.681077 
L 78.804438 115.446413 
L 81.201002 113.567384 
L 83.597566 111.525426 
L 85.99413 107.646757 
L 88.390694 104.836465 
L 90.787258 77.019794 
L 93.183822 120.464596 
L 95.580387 101.480639 
L 97.976951 101.578167 
L 100.373515 102.337257 
L 102.770079 96.194797 
L 105.166643 99.100764 
L 107.563207 99.720848 
L 109.959771 97.191276 
L 112.356335 95.325974 
L 114.752899 93.202811 
L 117.149463 93.928412 
L 119.546027 97.477148 
L 121.942591 91.449986 
L 124.339155 94.547022 
L 126.735719 94.4698 
L 129.132283 92.339129 
L 131.528848 93.083463 
L 133.925412 94.859062 
L 136.321976 92.35081 
L 138.71854 92.90893 
L 141.115104 95.444122 
L 143.511668 91.942476 
L 145.908232 93.728369 
L 148.304796 92.671874 
L 150.70136 92.258989 
L 153.097924 89.986195 
L 155.494488 91.35889 
L 157.891052 94.184967 
L 160.287616 94.873187 
L 162.68418 95.080363 
L 165.080744 91.235956 
L 167.477309 93.158709 
L 169.873873 91.315608 
L 174.667001 91.732326 
L 177.063565 93.883952 
L 179.460129 93.668393 
L 181.856693 95.243634 
L 184.253257 90.557557 
L 186.649821 90.580175 
L 189.046385 91.61162 
L 191.442949 91.292161 
L 193.839513 90.621091 
L 196.236077 93.283564 
L 198.632641 90.729548 
L 201.029205 93.650324 
L 203.42577 89.620276 
L 208.218898 90.069738 
L 210.615462 91.232729 
L 213.012026 90.245867 
L 215.40859 94.159128 
L 217.805154 92.099499 
L 220.201718 89.357415 
L 222.598282 89.920271 
L 224.994846 90.212324 
L 227.39141 90.855183 
L 229.787974 89.300277 
L 232.184538 90.496827 
L 234.581102 89.606459 
L 236.977666 89.429876 
L 239.37423 90.490735 
L 241.770795 89.300073 
L 244.167359 91.079895 
L 246.563923 89.939812 
L 248.960487 90.139212 
L 251.357051 90.772638 
L 253.753615 89.872089 
L 256.150179 89.863278 
L 258.546743 89.499418 
L 260.943307 90.15644 
L 263.339871 88.897052 
L 265.736435 90.362818 
L 268.132999 89.437453 
L 270.529563 89.473047 
L 272.926127 90.738627 
L 275.322691 89.451961 
L 277.719256 90.960312 
L 280.11582 91.738954 
L 282.512384 89.152095 
L 287.305512 89.322523 
L 289.702076 98.219463 
L 292.09864 90.011976 
L 294.495204 89.750237 
L 296.891768 89.990894 
L 301.684896 90.849914 
L 304.08146 90.108216 
L 306.478024 44.443636 
L 308.874588 88.744075 
L 311.271152 89.88056 
L 313.667717 89.69651 
L 316.064281 88.588498 
L 318.460845 90.062564 
L 320.857409 89.444865 
L 323.253973 89.221554 
L 325.650537 88.312199 
L 328.047101 90.426109 
L 330.443665 90.65422 
L 332.840229 90.614031 
L 335.236793 90.042822 
L 337.633357 91.03232 
L 340.029921 89.668591 
L 342.426485 90.373422 
L 344.823049 88.626807 
L 347.219613 88.953045 
L 352.012742 88.854241 
L 356.80587 89.987711 
L 359.202434 89.137239 
L 361.598998 89.421311 
L 363.995562 89.479356 
L 366.392126 88.246646 
L 368.78869 89.201498 
L 371.185254 92.222345 
L 373.581818 89.732812 
L 373.581818 89.732812 
" clip-path="url(#p700c8dfae1)" style="fill: none; stroke: #d62728; stroke-width: 1.5; stroke-linecap: square"/>
   </g>
   <g id="patch_3">
    <path d="M 54 252 
L 54 34.56 
" style="fill: none; stroke: #000000; stroke-width: 0.8; stroke-linejoin: miter; stroke-linecap: square"/>
   </g>
   <g id="patch_4">
    <path d="M 388.8 252 
L 388.8 34.56 
" style="fill: none; stroke: #000000; stroke-width: 0.8; stroke-linejoin: miter; stroke-linecap: square"/>
   </g>
   <g id="patch_5">
    <path d="M 54 252 
L 388.8 252 
" style="fill: none; stroke: #000000; stroke-width: 0.8; stroke-linejoin: miter; stroke-linecap: square"/>
   </g>
   <g id="patch_6">
    <path d="M 54 34.56 
L 388.8 34.56 
" style="fill: none; stroke: #000000; stroke-width: 0.8; stroke-linejoin: miter; stroke-linecap: square"/>
   </g>
   <g id="text_24">
    <!-- NEPS vs. Size (10000 f.c., nicolau_a) -->
    <g transform="translate(112.529063 28.56)scale(0.12 -0.12)">
     <defs>
      <path id="DejaVuSans-76" d="M 191 3500 
L 800 3500 
L 1894 563 
L 2988 3500 
L 3597 3500 
L 2284 0 
L 1503 0 
L 191 3500 
z
" transform="scale(0.015625)"/>
      <path id="DejaVuSans-2e" d="M 684 794 
L 1344 794 
L 1344 0 
L 684 0 
L 684 794 
z
" transform="scale(0.015625)"/>
      <path id="DejaVuSans-28" d="M 1984 4856 
Q 1566 4138 1362 3434 
Q 1159 2731 1159 2009 
Q 1159 1288 1364 580 
Q 1569 -128 1984 -844 
L 1484 -844 
Q 1016 -109 783 600 
Q 550 1309 550 2009 
Q 550 2706 781 3412 
Q 1013 4119 1484 4856 
L 1984 4856 
z
" transform="scale(0.015625)"/>
      <path id="DejaVuSans-66" d="M 2375 4863 
L 2375 4384 
L 1825 4384 
Q 1516 4384 1395 4259 
Q 1275 4134 1275 3809 
L 1275 3500 
L 2222 3500 
L 2222 3053 
L 1275 3053 
L 1275 0 
L 697 0 
L 697 3053 
L 147 3053 
L 147 3500 
L 697 3500 
L 697 3744 
Q 697 4328 969 4595 
Q 1241 4863 1831 4863 
L 2375 4863 
z
" transform="scale(0.015625)"/>
      <path id="DejaVuSans-63" d="M 3122 3366 
L 3122 2828 
Q 2878 2963 2633 3030 
Q 2388 3097 2138 3097 
Q 1578 3097 1268 2742 
Q 959 2388 959 1747 
Q 959 1106 1268 751 
Q 1578 397 2138 397 
Q 2388 397 2633 464 
Q 2878 531 3122 666 
L 3122 134 
Q 2881 22 2623 -34 
Q 2366 -91 2075 -91 
Q 1284 -91 818 406 
Q 353 903 353 1747 
Q 353 2603 823 3093 
Q 1294 3584 2113 3584 
Q 2378 3584 2631 3529 
Q 2884 3475 3122 3366 
z
" transform="scale(0.015625)"/>
      <path id="DejaVuSans-2c" d="M 750 794 
L 1409 794 
L 1409 256 
L 897 -744 
L 494 -744 
L 750 256 
L 750 794 
z
" transform="scale(0.015625)"/>
      <path id="DejaVuSans-6c" d="M 603 4863 
L 1178 4863 
L 1178 0 
L 603 0 
L 603 4863 
z
" transform="scale(0.015625)"/>
      <path id="DejaVuSans-75" d="M 544 1381 
L 544 3500 
L 1119 3500 
L 1119 1403 
Q 1119 906 1312 657 
Q 1506 409 1894 409 
Q 2359 409 2629 706 
Q 2900 1003 2900 1516 
L 2900 3500 
L 3475 3500 
L 3475 0 
L 2900 0 
L 2900 538 
Q 2691 219 2414 64 
Q 2138 -91 1772 -91 
Q 1169 -91 856 284 
Q 544 659 544 1381 
z
M 1991 3584 
L 1991 3584 
z
" transform="scale(0.015625)"/>
      <path id="DejaVuSans-5f" d="M 3263 -1063 
L 3263 -1509 
L -63 -1509 
L -63 -1063 
L 3263 -1063 
z
" transform="scale(0.015625)"/>
      <path id="DejaVuSans-29" d="M 513 4856 
L 1013 4856 
Q 1481 4119 1714 3412 
Q 1947 2706 1947 2009 
Q 1947 1309 1714 600 
Q 1481 -109 1013 -844 
L 513 -844 
Q 928 -128 1133 580 
Q 1338 1288 1338 2009 
Q 1338 2731 1133 3434 
Q 928 4138 513 4856 
z
" transform="scale(0.015625)"/>
     </defs>
     <use xlink:href="#DejaVuSans-4e"/>
     <use xlink:href="#DejaVuSans-45" x="74.804688"/>
     <use xlink:href="#DejaVuSans-50" x="137.988281"/>
     <use xlink:href="#DejaVuSans-53" x="198.291016"/>
     <use xlink:href="#DejaVuSans-20" x="261.767578"/>
     <use xlink:href="#DejaVuSans-76" x="293.554688"/>
     <use xlink:href="#DejaVuSans-73" x="352.734375"/>
     <use xlink:href="#DejaVuSans-2e" x="404.833984"/>
     <use xlink:href="#DejaVuSans-20" x="436.621094"/>
     <use xlink:href="#DejaVuSans-53" x="468.408203"/>
     <use xlink:href="#DejaVuSans-69" x="531.884766"/>
     <use xlink:href="#DejaVuSans-7a" x="559.667969"/>
     <use xlink:href="#DejaVuSans-65" x="612.158203"/>
     <use xlink:href="#DejaVuSans-20" x="673.681641"/>
     <use xlink:href="#DejaVuSans-28" x="705.46875"/>
     <use xlink:href="#DejaVuSans-31" x="744.482422"/>
     <use xlink:href="#DejaVuSans-30" x="808.105469"/>
     <use xlink:href="#DejaVuSans-30" x="871.728516"/>
     <use xlink:href="#DejaVuSans-30" x="935.351562"/>
     <use xlink:href="#DejaVuSans-30" x="998.974609"/>
     <use xlink:href="#DejaVuSans-20" x="1062.597656"/>
     <use xlink:href="#DejaVuSans-66" x="1094.384766"/>
     <use xlink:href="#DejaVuSans-2e" x="1122.339844"/>
     <use xlink:href="#DejaVuSans-63" x="1154.126953"/>
     <use xlink:href="#DejaVuSans-2e" x="1209.107422"/>
     <use xlink:href="#DejaVuSans-2c" x="1240.894531"/>
     <use xlink:href="#DejaVuSans-20" x="1272.681641"/>
     <use xlink:href="#DejaVuSans-6e" x="1304.46875"/>
     <use xlink:href="#DejaVuSans-69" x="1367.847656"/>
     <use xlink:href="#DejaVuSans-63" x="1395.630859"/>
     <use xlink:href="#DejaVuSans-6f" x="1450.611328"/>
     <use xlink:href="#DejaVuSans-6c" x="1511.792969"/>
     <use xlink:href="#DejaVuSans-61" x="1539.576172"/>
     <use xlink:href="#DejaVuSans-75" x="1600.855469"/>
     <use xlink:href="#DejaVuSans-5f" x="1664.234375"/>
     <use xlink:href="#DejaVuSans-61" x="1714.234375"/>
     <use xlink:href="#DejaVuSans-29" x="1775.513672"/>
    </g>
   </g>
   <g id="legend_1">
    <g id="patch_7">
     <path d="M 61 101.2725 
L 171.19375 101.2725 
Q 173.19375 101.2725 173.19375 99.2725 
L 173.19375 41.56 
Q 173.19375 39.56 171.19375 39.56 
L 61 39.56 
Q 59 39.56 59 41.56 
L 59 99.2725 
Q 59 101.2725 61 101.2725 
z
" style="fill: #ffffff; opacity: 0.8; stroke: #cccccc; stroke-linejoin: miter"/>
    </g>
    <g id="line2d_68">
     <path d="M 63 47.658437 
L 73 47.658437 
L 83 47.658437 
" style="fill: none; stroke: #1f77b4; stroke-width: 1.5; stroke-linecap: square"/>
    </g>
    <g id="text_25">
     <!-- DEAP -->
     <g transform="translate(91 51.158437)scale(0.1 -0.1)">
      <defs>
       <path id="DejaVuSans-44" d="M 1259 4147 
L 1259 519 
L 2022 519 
Q 2988 519 3436 956 
Q 3884 1394 3884 2338 
Q 3884 3275 3436 3711 
Q 2988 4147 2022 4147 
L 1259 4147 
z
M 628 4666 
L 1925 4666 
Q 3281 4666 3915 4102 
Q 4550 3538 4550 2338 
Q 4550 1131 3912 565 
Q 3275 0 1925 0 
L 628 0 
L 628 4666 
z
" transform="scale(0.015625)"/>
       <path id="DejaVuSans-41" d="M 2188 4044 
L 1331 1722 
L 3047 1722 
L 2188 4044 
z
M 1831 4666 
L 2547 4666 
L 4325 0 
L 3669 0 
L 3244 1197 
L 1141 1197 
L 716 0 
L 50 0 
L 1831 4666 
z
" transform="scale(0.015625)"/>
      </defs>
      <use xlink:href="#DejaVuSans-44"/>
      <use xlink:href="#DejaVuSans-45" x="77.001953"/>
      <use xlink:href="#DejaVuSans-41" x="140.185547"/>
      <use xlink:href="#DejaVuSans-50" x="208.59375"/>
     </g>
    </g>
    <g id="line2d_69">
     <path d="M 63 62.336562 
L 73 62.336562 
L 83 62.336562 
" style="fill: none; stroke: #ff7f0e; stroke-width: 1.5; stroke-linecap: square"/>
    </g>
    <g id="text_26">
     <!-- TensorGP (CPU) -->
     <g transform="translate(91 65.836562)scale(0.1 -0.1)">
      <defs>
       <path id="DejaVuSans-54" d="M -19 4666 
L 3928 4666 
L 3928 4134 
L 2272 4134 
L 2272 0 
L 1638 0 
L 1638 4134 
L -19 4134 
L -19 4666 
z
" transform="scale(0.015625)"/>
       <path id="DejaVuSans-47" d="M 3809 666 
L 3809 1919 
L 2778 1919 
L 2778 2438 
L 4434 2438 
L 4434 434 
Q 4069 175 3628 42 
Q 3188 -91 2688 -91 
Q 1594 -91 976 548 
Q 359 1188 359 2328 
Q 359 3472 976 4111 
Q 1594 4750 2688 4750 
Q 3144 4750 3555 4637 
Q 3966 4525 4313 4306 
L 4313 3634 
Q 3963 3931 3569 4081 
Q 3175 4231 2741 4231 
Q 1884 4231 1454 3753 
Q 1025 3275 1025 2328 
Q 1025 1384 1454 906 
Q 1884 428 2741 428 
Q 3075 428 3337 486 
Q 3600 544 3809 666 
z
" transform="scale(0.015625)"/>
       <path id="DejaVuSans-43" d="M 4122 4306 
L 4122 3641 
Q 3803 3938 3442 4084 
Q 3081 4231 2675 4231 
Q 1875 4231 1450 3742 
Q 1025 3253 1025 2328 
Q 1025 1406 1450 917 
Q 1875 428 2675 428 
Q 3081 428 3442 575 
Q 3803 722 4122 1019 
L 4122 359 
Q 3791 134 3420 21 
Q 3050 -91 2638 -91 
Q 1578 -91 968 557 
Q 359 1206 359 2328 
Q 359 3453 968 4101 
Q 1578 4750 2638 4750 
Q 3056 4750 3426 4639 
Q 3797 4528 4122 4306 
z
" transform="scale(0.015625)"/>
       <path id="DejaVuSans-55" d="M 556 4666 
L 1191 4666 
L 1191 1831 
Q 1191 1081 1462 751 
Q 1734 422 2344 422 
Q 2950 422 3222 751 
Q 3494 1081 3494 1831 
L 3494 4666 
L 4128 4666 
L 4128 1753 
Q 4128 841 3676 375 
Q 3225 -91 2344 -91 
Q 1459 -91 1007 375 
Q 556 841 556 1753 
L 556 4666 
z
" transform="scale(0.015625)"/>
      </defs>
      <use xlink:href="#DejaVuSans-54"/>
      <use xlink:href="#DejaVuSans-65" x="44.083984"/>
      <use xlink:href="#DejaVuSans-6e" x="105.607422"/>
      <use xlink:href="#DejaVuSans-73" x="168.986328"/>
      <use xlink:href="#DejaVuSans-6f" x="221.085938"/>
      <use xlink:href="#DejaVuSans-72" x="282.267578"/>
      <use xlink:href="#DejaVuSans-47" x="323.380859"/>
      <use xlink:href="#DejaVuSans-50" x="400.871094"/>
      <use xlink:href="#DejaVuSans-20" x="461.173828"/>
      <use xlink:href="#DejaVuSans-28" x="492.960938"/>
      <use xlink:href="#DejaVuSans-43" x="531.974609"/>
      <use xlink:href="#DejaVuSans-50" x="601.798828"/>
      <use xlink:href="#DejaVuSans-55" x="662.101562"/>
      <use xlink:href="#DejaVuSans-29" x="735.294922"/>
     </g>
    </g>
    <g id="line2d_70">
     <path d="M 63 77.014687 
L 73 77.014687 
L 83 77.014687 
" style="fill: none; stroke: #2ca02c; stroke-width: 1.5; stroke-linecap: square"/>
    </g>
    <g id="text_27">
     <!-- TensorGP (GPU) -->
     <g transform="translate(91 80.514687)scale(0.1 -0.1)">
      <use xlink:href="#DejaVuSans-54"/>
      <use xlink:href="#DejaVuSans-65" x="44.083984"/>
      <use xlink:href="#DejaVuSans-6e" x="105.607422"/>
      <use xlink:href="#DejaVuSans-73" x="168.986328"/>
      <use xlink:href="#DejaVuSans-6f" x="221.085938"/>
      <use xlink:href="#DejaVuSans-72" x="282.267578"/>
      <use xlink:href="#DejaVuSans-47" x="323.380859"/>
      <use xlink:href="#DejaVuSans-50" x="400.871094"/>
      <use xlink:href="#DejaVuSans-20" x="461.173828"/>
      <use xlink:href="#DejaVuSans-28" x="492.960938"/>
      <use xlink:href="#DejaVuSans-47" x="531.974609"/>
      <use xlink:href="#DejaVuSans-50" x="609.464844"/>
      <use xlink:href="#DejaVuSans-55" x="669.767578"/>
      <use xlink:href="#DejaVuSans-29" x="742.960938"/>
     </g>
    </g>
    <g id="line2d_71">
     <path d="M 63 91.692813 
L 73 91.692813 
L 83 91.692813 
" style="fill: none; stroke: #d62728; stroke-width: 1.5; stroke-linecap: square"/>
    </g>
    <g id="text_28">
     <!-- Operon -->
     <g transform="translate(91 95.192813)scale(0.1 -0.1)">
      <defs>
       <path id="DejaVuSans-4f" d="M 2522 4238 
Q 1834 4238 1429 3725 
Q 1025 3213 1025 2328 
Q 1025 1447 1429 934 
Q 1834 422 2522 422 
Q 3209 422 3611 934 
Q 4013 1447 4013 2328 
Q 4013 3213 3611 3725 
Q 3209 4238 2522 4238 
z
M 2522 4750 
Q 3503 4750 4090 4092 
Q 4678 3434 4678 2328 
Q 4678 1225 4090 567 
Q 3503 -91 2522 -91 
Q 1538 -91 948 565 
Q 359 1222 359 2328 
Q 359 3434 948 4092 
Q 1538 4750 2522 4750 
z
" transform="scale(0.015625)"/>
       <path id="DejaVuSans-70" d="M 1159 525 
L 1159 -1331 
L 581 -1331 
L 581 3500 
L 1159 3500 
L 1159 2969 
Q 1341 3281 1617 3432 
Q 1894 3584 2278 3584 
Q 2916 3584 3314 3078 
Q 3713 2572 3713 1747 
Q 3713 922 3314 415 
Q 2916 -91 2278 -91 
Q 1894 -91 1617 61 
Q 1341 213 1159 525 
z
M 3116 1747 
Q 3116 2381 2855 2742 
Q 2594 3103 2138 3103 
Q 1681 3103 1420 2742 
Q 1159 2381 1159 1747 
Q 1159 1113 1420 752 
Q 1681 391 2138 391 
Q 2594 391 2855 752 
Q 3116 1113 3116 1747 
z
" transform="scale(0.015625)"/>
      </defs>
      <use xlink:href="#DejaVuSans-4f"/>
      <use xlink:href="#DejaVuSans-70" x="78.710938"/>
      <use xlink:href="#DejaVuSans-65" x="142.1875"/>
      <use xlink:href="#DejaVuSans-72" x="203.710938"/>
      <use xlink:href="#DejaVuSans-6f" x="242.574219"/>
      <use xlink:href="#DejaVuSans-6e" x="303.755859"/>
     </g>
    </g>
   </g>
  </g>
 </g>
 <defs>
  <clipPath id="p700c8dfae1">
   <rect x="54" y="34.56" width="334.8" height="217.44"/>
  </clipPath>
 </defs>
</svg>
