<?xml version="1.0" encoding="utf-8" standalone="no"?>
<!DOCTYPE svg PUBLIC "-//W3C//DTD SVG 1.1//EN"
  "http://www.w3.org/Graphics/SVG/1.1/DTD/svg11.dtd">
<svg xmlns:xlink="http://www.w3.org/1999/xlink" width="432pt" height="288pt" viewBox="0 0 432 288" xmlns="http://www.w3.org/2000/svg" version="1.1">
 <metadata>
  <rdf:RDF xmlns:dc="http://purl.org/dc/elements/1.1/" xmlns:cc="http://creativecommons.org/ns#" xmlns:rdf="http://www.w3.org/1999/02/22-rdf-syntax-ns#">
   <cc:Work>
    <dc:type rdf:resource="http://purl.org/dc/dcmitype/StillImage"/>
    <dc:date>2022-01-13T22:09:14.013790</dc:date>
    <dc:format>image/svg+xml</dc:format>
    <dc:creator>
     <cc:Agent>
      <dc:title>Matplotlib v3.5.1, https://matplotlib.org/</dc:title>
     </cc:Agent>
    </dc:creator>
   </cc:Work>
  </rdf:RDF>
 </metadata>
 <defs>
  <style type="text/css">*{stroke-linejoin: round; stroke-linecap: butt}</style>
 </defs>
 <g id="figure_1">
  <g id="patch_1">
   <path d="M 0 288 
L 432 288 
L 432 0 
L 0 0 
L 0 288 
z
" style="fill: none"/>
  </g>
  <g id="axes_1">
   <g id="patch_2">
    <path d="M 54 252 
L 388.8 252 
L 388.8 34.56 
L 54 34.56 
z
" style="fill: #ffffff"/>
   </g>
   <g id="PolyCollection_1">
    <path d="M 69.218182 221.416222 
L 69.218182 221.416222 
L 71.614746 206.318466 
L 74.01131 198.787917 
L 76.407874 194.231561 
L 78.804438 189.517546 
L 81.201002 188.740207 
L 83.597566 183.803085 
L 85.99413 184.446867 
L 88.390694 183.739688 
L 90.787258 180.573914 
L 93.183822 178.722867 
L 95.580387 178.665148 
L 97.976951 177.436613 
L 100.373515 178.088142 
L 102.770079 174.15632 
L 105.166643 174.513352 
L 107.563207 172.552015 
L 109.959771 173.281022 
L 112.356335 173.277866 
L 114.752899 171.434099 
L 117.149463 170.556966 
L 119.546027 170.757585 
L 121.942591 169.883541 
L 124.339155 171.067358 
L 126.735719 169.253953 
L 129.132283 167.467783 
L 131.528848 168.867204 
L 133.925412 166.64855 
L 136.321976 169.553367 
L 138.71854 168.694078 
L 141.115104 170.435298 
L 143.511668 165.857407 
L 145.908232 167.164955 
L 148.304796 165.677985 
L 150.70136 165.434245 
L 153.097924 164.626424 
L 155.494488 163.785917 
L 157.891052 164.684485 
L 160.287616 164.546611 
L 162.68418 165.648091 
L 165.080744 164.5224 
L 167.477309 163.830246 
L 169.873873 163.828589 
L 172.270437 162.953327 
L 174.667001 163.768812 
L 177.063565 165.121736 
L 179.460129 162.003747 
L 181.856693 162.936406 
L 184.253257 163.098599 
L 186.649821 161.779557 
L 189.046385 164.561636 
L 191.442949 162.924098 
L 193.839513 161.652221 
L 196.236077 162.320535 
L 198.632641 160.625733 
L 201.029205 160.612418 
L 203.42577 163.81819 
L 205.822334 161.024515 
L 208.218898 160.583266 
L 210.615462 161.010299 
L 213.012026 161.020884 
L 215.40859 161.792557 
L 217.805154 160.435865 
L 220.201718 160.607924 
L 222.598282 160.131694 
L 224.994846 159.638699 
L 227.39141 160.231165 
L 229.787974 158.886595 
L 232.184538 159.241978 
L 234.581102 158.470485 
L 236.977666 159.617736 
L 239.37423 158.275134 
L 241.770795 159.097052 
L 244.167359 159.967686 
L 246.563923 159.1565 
L 248.960487 159.364456 
L 251.357051 158.51179 
L 253.753615 161.021833 
L 256.150179 161.087816 
L 258.546743 158.341524 
L 260.943307 157.858991 
L 263.339871 159.301265 
L 265.736435 158.587907 
L 268.132999 158.462714 
L 270.529563 158.085345 
L 272.926127 158.994607 
L 275.322691 158.344286 
L 277.719256 157.390681 
L 280.11582 160.286791 
L 282.512384 157.601552 
L 284.908948 156.832966 
L 287.305512 158.046611 
L 289.702076 156.766111 
L 292.09864 157.06976 
L 294.495204 157.852469 
L 296.891768 157.317598 
L 299.288332 157.590051 
L 301.684896 157.081063 
L 304.08146 156.518174 
L 306.478024 156.660448 
L 308.874588 155.872413 
L 311.271152 157.757605 
L 313.667717 155.778687 
L 316.064281 156.356795 
L 318.460845 156.877979 
L 320.857409 156.490367 
L 323.253973 159.418718 
L 325.650537 156.614665 
L 328.047101 156.917284 
L 330.443665 155.956211 
L 332.840229 155.848278 
L 335.236793 157.082019 
L 337.633357 155.153147 
L 340.029921 154.840071 
L 342.426485 157.249288 
L 344.823049 155.227565 
L 347.219613 155.132125 
L 349.616178 155.641089 
L 352.012742 156.179531 
L 354.409306 154.058978 
L 356.80587 156.944102 
L 359.202434 156.79969 
L 361.598998 155.933694 
L 363.995562 156.131059 
L 366.392126 156.502333 
L 368.78869 155.161431 
L 371.185254 155.662214 
L 373.581818 156.426595 
L 373.581818 156.426595 
L 373.581818 156.426595 
L 371.185254 155.662214 
L 368.78869 155.161431 
L 366.392126 156.502333 
L 363.995562 156.131059 
L 361.598998 155.933694 
L 359.202434 156.79969 
L 356.80587 156.944102 
L 354.409306 154.058978 
L 352.012742 156.179531 
L 349.616178 155.641089 
L 347.219613 155.132125 
L 344.823049 155.227565 
L 342.426485 157.249288 
L 340.029921 154.840071 
L 337.633357 155.153147 
L 335.236793 157.082019 
L 332.840229 155.848278 
L 330.443665 155.956211 
L 328.047101 156.917284 
L 325.650537 156.614665 
L 323.253973 159.418718 
L 320.857409 156.490367 
L 318.460845 156.877979 
L 316.064281 156.356795 
L 313.667717 155.778687 
L 311.271152 157.757605 
L 308.874588 155.872413 
L 306.478024 156.660448 
L 304.08146 156.518174 
L 301.684896 157.081063 
L 299.288332 157.590051 
L 296.891768 157.317598 
L 294.495204 157.852469 
L 292.09864 157.06976 
L 289.702076 156.766111 
L 287.305512 158.046611 
L 284.908948 156.832966 
L 282.512384 157.601552 
L 280.11582 160.286791 
L 277.719256 157.390681 
L 275.322691 158.344286 
L 272.926127 158.994607 
L 270.529563 158.085345 
L 268.132999 158.462714 
L 265.736435 158.587907 
L 263.339871 159.301265 
L 260.943307 157.858991 
L 258.546743 158.341524 
L 256.150179 161.087816 
L 253.753615 161.021833 
L 251.357051 158.51179 
L 248.960487 159.364456 
L 246.563923 159.1565 
L 244.167359 159.967686 
L 241.770795 159.097052 
L 239.37423 158.275134 
L 236.977666 159.617736 
L 234.581102 158.470485 
L 232.184538 159.241978 
L 229.787974 158.886595 
L 227.39141 160.231165 
L 224.994846 159.638699 
L 222.598282 160.131694 
L 220.201718 160.607924 
L 217.805154 160.435865 
L 215.40859 161.792557 
L 213.012026 161.020884 
L 210.615462 161.010299 
L 208.218898 160.583266 
L 205.822334 161.024515 
L 203.42577 163.81819 
L 201.029205 160.612418 
L 198.632641 160.625733 
L 196.236077 162.320535 
L 193.839513 161.652221 
L 191.442949 162.924098 
L 189.046385 164.561636 
L 186.649821 161.779557 
L 184.253257 163.098599 
L 181.856693 162.936406 
L 179.460129 162.003747 
L 177.063565 165.121736 
L 174.667001 163.768812 
L 172.270437 162.953327 
L 169.873873 163.828589 
L 167.477309 163.830246 
L 165.080744 164.5224 
L 162.68418 165.648091 
L 160.287616 164.546611 
L 157.891052 164.684485 
L 155.494488 163.785917 
L 153.097924 164.626424 
L 150.70136 165.434245 
L 148.304796 165.677985 
L 145.908232 167.164955 
L 143.511668 165.857407 
L 141.115104 170.435298 
L 138.71854 168.694078 
L 136.321976 169.553367 
L 133.925412 166.64855 
L 131.528848 168.867204 
L 129.132283 167.467783 
L 126.735719 169.253953 
L 124.339155 171.067358 
L 121.942591 169.883541 
L 119.546027 170.757585 
L 117.149463 170.556966 
L 114.752899 171.434099 
L 112.356335 173.277866 
L 109.959771 173.281022 
L 107.563207 172.552015 
L 105.166643 174.513352 
L 102.770079 174.15632 
L 100.373515 178.088142 
L 97.976951 177.436613 
L 95.580387 178.665148 
L 93.183822 178.722867 
L 90.787258 180.573914 
L 88.390694 183.739688 
L 85.99413 184.446867 
L 83.597566 183.803085 
L 81.201002 188.740207 
L 78.804438 189.517546 
L 76.407874 194.231561 
L 74.01131 198.787917 
L 71.614746 206.318466 
L 69.218182 221.416222 
z
" clip-path="url(#p5405e47ed7)" style="fill: #1f77b4"/>
   </g>
   <g id="PolyCollection_2">
    <path d="M 69.218182 242.116364 
L 69.218182 242.116364 
L 71.614746 186.186972 
L 74.01131 180.279272 
L 76.407874 172.636544 
L 78.804438 169.200138 
L 81.201002 167.366636 
L 83.597566 160.656168 
L 85.99413 162.259397 
L 88.390694 166.470631 
L 90.787258 163.687099 
L 93.183822 162.396943 
L 95.580387 160.422713 
L 97.976951 160.343005 
L 100.373515 161.524528 
L 102.770079 160.801568 
L 105.166643 160.599128 
L 107.563207 158.045141 
L 109.959771 159.562989 
L 112.356335 160.214457 
L 114.752899 154.067116 
L 117.149463 154.22576 
L 119.546027 154.42818 
L 121.942591 160.016994 
L 124.339155 157.022603 
L 126.735719 164.109251 
L 129.132283 155.766919 
L 131.528848 156.432008 
L 133.925412 152.809031 
L 136.321976 153.588311 
L 138.71854 153.160203 
L 141.115104 156.553905 
L 143.511668 153.814017 
L 145.908232 154.712205 
L 148.304796 153.505364 
L 150.70136 154.878265 
L 153.097924 152.822209 
L 155.494488 152.282453 
L 157.891052 155.718785 
L 160.287616 157.707083 
L 162.68418 154.160253 
L 165.080744 150.360904 
L 167.477309 153.307028 
L 169.873873 153.625034 
L 172.270437 153.74691 
L 174.667001 154.019331 
L 177.063565 153.767616 
L 179.460129 153.366355 
L 181.856693 154.188455 
L 184.253257 157.700814 
L 186.649821 153.031271 
L 189.046385 155.626368 
L 191.442949 156.08794 
L 193.839513 151.907491 
L 196.236077 160.387516 
L 198.632641 153.167841 
L 201.029205 153.751908 
L 203.42577 156.461451 
L 205.822334 153.023869 
L 208.218898 157.60435 
L 210.615462 157.725944 
L 213.012026 156.49846 
L 215.40859 152.063241 
L 217.805154 151.427115 
L 220.201718 153.502042 
L 222.598282 152.905781 
L 224.994846 152.998806 
L 227.39141 153.233012 
L 229.787974 152.277106 
L 232.184538 154.354949 
L 234.581102 151.829414 
L 236.977666 153.083035 
L 239.37423 151.334048 
L 241.770795 154.412745 
L 244.167359 156.377061 
L 246.563923 154.809269 
L 248.960487 154.953063 
L 251.357051 153.357132 
L 253.753615 154.330531 
L 256.150179 152.730968 
L 258.546743 154.532456 
L 260.943307 154.657637 
L 263.339871 153.567877 
L 265.736435 153.106734 
L 268.132999 153.188509 
L 270.529563 159.23527 
L 272.926127 153.439289 
L 275.322691 152.839948 
L 277.719256 151.737794 
L 280.11582 153.986423 
L 282.512384 151.032012 
L 284.908948 153.328555 
L 287.305512 151.787785 
L 289.702076 151.940412 
L 292.09864 151.376078 
L 294.495204 152.184464 
L 296.891768 153.103402 
L 299.288332 154.232833 
L 301.684896 153.183968 
L 304.08146 151.693802 
L 306.478024 152.102169 
L 308.874588 148.680098 
L 311.271152 151.504985 
L 313.667717 151.426313 
L 316.064281 151.602859 
L 318.460845 153.221953 
L 320.857409 154.924364 
L 323.253973 152.984802 
L 325.650537 151.674915 
L 328.047101 155.099067 
L 330.443665 151.887722 
L 332.840229 152.440928 
L 335.236793 154.220205 
L 337.633357 149.966368 
L 340.029921 152.237075 
L 342.426485 152.128839 
L 344.823049 151.295548 
L 347.219613 150.996035 
L 349.616178 155.029766 
L 352.012742 152.86354 
L 354.409306 152.508452 
L 356.80587 152.475523 
L 359.202434 151.851964 
L 361.598998 152.39442 
L 363.995562 152.404922 
L 366.392126 151.5704 
L 368.78869 151.916587 
L 371.185254 152.31414 
L 373.581818 151.212751 
L 373.581818 151.212751 
L 373.581818 151.212751 
L 371.185254 152.31414 
L 368.78869 151.916587 
L 366.392126 151.5704 
L 363.995562 152.404922 
L 361.598998 152.39442 
L 359.202434 151.851964 
L 356.80587 152.475523 
L 354.409306 152.508452 
L 352.012742 152.86354 
L 349.616178 155.029766 
L 347.219613 150.996035 
L 344.823049 151.295548 
L 342.426485 152.128839 
L 340.029921 152.237075 
L 337.633357 149.966368 
L 335.236793 154.220205 
L 332.840229 152.440928 
L 330.443665 151.887722 
L 328.047101 155.099067 
L 325.650537 151.674915 
L 323.253973 152.984802 
L 320.857409 154.924364 
L 318.460845 153.221953 
L 316.064281 151.602859 
L 313.667717 151.426313 
L 311.271152 151.504985 
L 308.874588 148.680098 
L 306.478024 152.102169 
L 304.08146 151.693802 
L 301.684896 153.183968 
L 299.288332 154.232833 
L 296.891768 153.103402 
L 294.495204 152.184464 
L 292.09864 151.376078 
L 289.702076 151.940412 
L 287.305512 151.787785 
L 284.908948 153.328555 
L 282.512384 151.032012 
L 280.11582 153.986423 
L 277.719256 151.737794 
L 275.322691 152.839948 
L 272.926127 153.439289 
L 270.529563 159.23527 
L 268.132999 153.188509 
L 265.736435 153.106734 
L 263.339871 153.567877 
L 260.943307 154.657637 
L 258.546743 154.532456 
L 256.150179 152.730968 
L 253.753615 154.330531 
L 251.357051 153.357132 
L 248.960487 154.953063 
L 246.563923 154.809269 
L 244.167359 156.377061 
L 241.770795 154.412745 
L 239.37423 151.334048 
L 236.977666 153.083035 
L 234.581102 151.829414 
L 232.184538 154.354949 
L 229.787974 152.277106 
L 227.39141 153.233012 
L 224.994846 152.998806 
L 222.598282 152.905781 
L 220.201718 153.502042 
L 217.805154 151.427115 
L 215.40859 152.063241 
L 213.012026 156.49846 
L 210.615462 157.725944 
L 208.218898 157.60435 
L 205.822334 153.023869 
L 203.42577 156.461451 
L 201.029205 153.751908 
L 198.632641 153.167841 
L 196.236077 160.387516 
L 193.839513 151.907491 
L 191.442949 156.08794 
L 189.046385 155.626368 
L 186.649821 153.031271 
L 184.253257 157.700814 
L 181.856693 154.188455 
L 179.460129 153.366355 
L 177.063565 153.767616 
L 174.667001 154.019331 
L 172.270437 153.74691 
L 169.873873 153.625034 
L 167.477309 153.307028 
L 165.080744 150.360904 
L 162.68418 154.160253 
L 160.287616 157.707083 
L 157.891052 155.718785 
L 155.494488 152.282453 
L 153.097924 152.822209 
L 150.70136 154.878265 
L 148.304796 153.505364 
L 145.908232 154.712205 
L 143.511668 153.814017 
L 141.115104 156.553905 
L 138.71854 153.160203 
L 136.321976 153.588311 
L 133.925412 152.809031 
L 131.528848 156.432008 
L 129.132283 155.766919 
L 126.735719 164.109251 
L 124.339155 157.022603 
L 121.942591 160.016994 
L 119.546027 154.42818 
L 117.149463 154.22576 
L 114.752899 154.067116 
L 112.356335 160.214457 
L 109.959771 159.562989 
L 107.563207 158.045141 
L 105.166643 160.599128 
L 102.770079 160.801568 
L 100.373515 161.524528 
L 97.976951 160.343005 
L 95.580387 160.422713 
L 93.183822 162.396943 
L 90.787258 163.687099 
L 88.390694 166.470631 
L 85.99413 162.259397 
L 83.597566 160.656168 
L 81.201002 167.366636 
L 78.804438 169.200138 
L 76.407874 172.636544 
L 74.01131 180.279272 
L 71.614746 186.186972 
L 69.218182 242.116364 
z
" clip-path="url(#p5405e47ed7)" style="fill: #ff7f0e"/>
   </g>
   <g id="PolyCollection_3">
    <path d="M 69.218182 179.746127 
L 69.218182 180.607671 
L 71.614746 129.265317 
L 74.01131 122.836615 
L 76.407874 117.785124 
L 78.804438 113.273944 
L 81.201002 111.794163 
L 83.597566 108.724586 
L 85.99413 107.148351 
L 88.390694 107.176523 
L 90.787258 33125.783803 
L 93.183822 102.12043 
L 95.580387 101.075015 
L 97.976951 99.910364 
L 100.373515 99.930806 
L 102.770079 96.993441 
L 105.166643 97.14025 
L 107.563207 95.029717 
L 109.959771 95.141281 
L 112.356335 94.600243 
L 114.752899 93.050377 
L 117.149463 93.30608 
L 119.546027 93.943192 
L 121.942591 93.428039 
L 124.339155 93.104098 
L 126.735719 90.867964 
L 129.132283 91.039215 
L 131.528848 90.212174 
L 133.925412 89.911157 
L 136.321976 88.956616 
L 138.71854 88.714747 
L 141.115104 89.036859 
L 143.511668 88.061753 
L 145.908232 85.613763 
L 148.304796 86.502766 
L 150.70136 86.253941 
L 153.097924 85.239718 
L 155.494488 84.89871 
L 157.891052 85.425683 
L 160.287616 83.379497 
L 162.68418 84.098315 
L 165.080744 83.771324 
L 167.477309 83.94989 
L 169.873873 84.336455 
L 172.270437 82.145811 
L 174.667001 81.572182 
L 177.063565 82.128731 
L 179.460129 80.388502 
L 181.856693 79.997883 
L 184.253257 79.777146 
L 186.649821 80.745916 
L 189.046385 79.338567 
L 191.442949 80.33503 
L 193.839513 80.637155 
L 196.236077 79.866455 
L 198.632641 80.965138 
L 201.029205 78.778114 
L 203.42577 78.706546 
L 205.822334 79.231462 
L 208.218898 76.573568 
L 210.615462 77.242265 
L 213.012026 76.280337 
L 215.40859 78.046358 
L 217.805154 75.469805 
L 220.201718 76.405285 
L 222.598282 76.429379 
L 224.994846 75.669027 
L 227.39141 75.440149 
L 229.787974 74.67356 
L 232.184538 74.85798 
L 234.581102 75.349615 
L 236.977666 74.734753 
L 239.37423 75.215823 
L 241.770795 75.380886 
L 244.167359 76.654089 
L 246.563923 74.565947 
L 248.960487 73.212809 
L 251.357051 73.152036 
L 253.753615 73.578275 
L 256.150179 74.192688 
L 258.546743 73.976023 
L 260.943307 73.418472 
L 263.339871 72.274736 
L 265.736435 72.971859 
L 268.132999 73.386988 
L 270.529563 72.857792 
L 272.926127 71.718463 
L 275.322691 73.26316 
L 277.719256 73.880377 
L 280.11582 72.286916 
L 282.512384 73.915839 
L 284.908948 72.239866 
L 287.305512 71.697501 
L 289.702076 70.955636 
L 292.09864 71.805735 
L 294.495204 71.874421 
L 296.891768 72.363383 
L 299.288332 69.403916 
L 301.684896 70.723574 
L 304.08146 70.507714 
L 306.478024 33125.783803 
L 308.874588 70.185087 
L 311.271152 70.0025 
L 313.667717 69.395853 
L 316.064281 69.033766 
L 318.460845 69.245344 
L 320.857409 68.67156 
L 323.253973 68.670755 
L 325.650537 69.155605 
L 328.047101 68.936637 
L 330.443665 67.782794 
L 332.840229 67.506699 
L 335.236793 67.67795 
L 337.633357 68.052808 
L 340.029921 67.682096 
L 342.426485 68.215781 
L 344.823049 66.473326 
L 347.219613 68.134813 
L 349.616178 67.418681 
L 352.012742 67.78355 
L 354.409306 67.425386 
L 356.80587 66.459319 
L 359.202434 66.191353 
L 361.598998 66.764089 
L 363.995562 67.082221 
L 366.392126 66.602832 
L 368.78869 66.363548 
L 371.185254 67.131703 
L 373.581818 66.495424 
L 373.581818 64.31131 
L 373.581818 64.31131 
L 371.185254 65.417181 
L 368.78869 65.232842 
L 366.392126 65.070988 
L 363.995562 64.305995 
L 361.598998 65.034396 
L 359.202434 65.926747 
L 356.80587 65.893002 
L 354.409306 64.988149 
L 352.012742 66.669882 
L 349.616178 66.241925 
L 347.219613 66.609078 
L 344.823049 65.988841 
L 342.426485 67.543428 
L 340.029921 66.726726 
L 337.633357 66.157161 
L 335.236793 66.997523 
L 332.840229 66.838932 
L 330.443665 67.281342 
L 328.047101 67.118525 
L 325.650537 67.055669 
L 323.253973 68.554057 
L 320.857409 67.391608 
L 318.460845 68.422611 
L 316.064281 68.269894 
L 313.667717 68.64224 
L 311.271152 68.602422 
L 308.874588 69.408526 
L 306.478024 44.443636 
L 304.08146 69.189806 
L 301.684896 69.14712 
L 299.288332 68.881833 
L 296.891768 70.113458 
L 294.495204 69.837233 
L 292.09864 69.789104 
L 289.702076 70.075733 
L 287.305512 67.426657 
L 284.908948 70.38154 
L 282.512384 73.034241 
L 280.11582 71.471099 
L 277.719256 72.44755 
L 275.322691 71.417782 
L 272.926127 71.553174 
L 270.529563 70.922512 
L 268.132999 72.416007 
L 265.736435 72.265138 
L 263.339871 71.285928 
L 260.943307 72.250801 
L 258.546743 72.864433 
L 256.150179 72.731165 
L 253.753615 71.834316 
L 251.357051 72.358244 
L 248.960487 72.767747 
L 246.563923 73.817965 
L 244.167359 75.27751 
L 241.770795 74.962248 
L 239.37423 74.334656 
L 236.977666 74.125472 
L 234.581102 72.949 
L 232.184538 74.429189 
L 229.787974 74.152612 
L 227.39141 74.452548 
L 224.994846 74.312383 
L 222.598282 75.126156 
L 220.201718 75.756188 
L 217.805154 75.291159 
L 215.40859 75.822664 
L 213.012026 75.616163 
L 210.615462 76.860425 
L 208.218898 75.765342 
L 205.822334 77.348221 
L 203.42577 77.02488 
L 201.029205 78.12637 
L 198.632641 79.092099 
L 196.236077 78.085075 
L 193.839513 79.564003 
L 191.442949 79.569654 
L 189.046385 77.948818 
L 186.649821 78.462552 
L 184.253257 78.460932 
L 181.856693 79.239283 
L 179.460129 78.558858 
L 177.063565 80.425983 
L 174.667001 80.932723 
L 172.270437 81.305888 
L 169.873873 81.959917 
L 167.477309 82.826821 
L 165.080744 82.166846 
L 162.68418 81.886273 
L 160.287616 82.695218 
L 157.891052 84.395722 
L 155.494488 83.42271 
L 153.097924 84.517003 
L 150.70136 83.905988 
L 148.304796 84.882952 
L 145.908232 85.233933 
L 143.511668 84.224219 
L 141.115104 86.496364 
L 138.71854 88.207985 
L 136.321976 88.431587 
L 133.925412 87.329917 
L 131.528848 88.755804 
L 129.132283 89.859271 
L 126.735719 89.7566 
L 124.339155 91.165424 
L 121.942591 92.31999 
L 119.546027 92.361259 
L 117.149463 91.870671 
L 114.752899 92.518211 
L 112.356335 91.821341 
L 109.959771 94.07884 
L 107.563207 94.401516 
L 105.166643 95.794659 
L 102.770079 95.241225 
L 100.373515 97.323177 
L 97.976951 99.522955 
L 95.580387 100.395774 
L 93.183822 101.688651 
L 90.787258 55.575107 
L 88.390694 103.489691 
L 85.99413 105.434845 
L 83.597566 108.441661 
L 81.201002 110.902881 
L 78.804438 111.676381 
L 76.407874 117.016634 
L 74.01131 120.692604 
L 71.614746 127.923236 
L 69.218182 179.746127 
z
" clip-path="url(#p5405e47ed7)" style="fill: #2ca02c"/>
   </g>
   <g id="matplotlib.axis_1">
    <g id="xtick_1">
     <g id="line2d_1">
      <defs>
       <path id="m39f143761e" d="M 0 0 
L 0 3.5 
" style="stroke: #000000; stroke-width: 0.8"/>
      </defs>
      <g>
       <use xlink:href="#m39f143761e" x="69.218182" y="252" style="stroke: #000000; stroke-width: 0.8"/>
      </g>
     </g>
     <g id="text_1">
      <!-- 1 -->
      <g transform="translate(66.036932 266.598437)scale(0.1 -0.1)">
       <defs>
        <path id="DejaVuSans-31" d="M 794 531 
L 1825 531 
L 1825 4091 
L 703 3866 
L 703 4441 
L 1819 4666 
L 2450 4666 
L 2450 531 
L 3481 531 
L 3481 0 
L 794 0 
L 794 531 
z
" transform="scale(0.015625)"/>
       </defs>
       <use xlink:href="#DejaVuSans-31"/>
      </g>
     </g>
    </g>
    <g id="xtick_2">
     <g id="line2d_2">
      <g>
       <use xlink:href="#m39f143761e" x="90.787258" y="252" style="stroke: #000000; stroke-width: 0.8"/>
      </g>
     </g>
     <g id="text_2">
      <!-- 19 -->
      <g transform="translate(84.424758 266.598437)scale(0.1 -0.1)">
       <defs>
        <path id="DejaVuSans-39" d="M 703 97 
L 703 672 
Q 941 559 1184 500 
Q 1428 441 1663 441 
Q 2288 441 2617 861 
Q 2947 1281 2994 2138 
Q 2813 1869 2534 1725 
Q 2256 1581 1919 1581 
Q 1219 1581 811 2004 
Q 403 2428 403 3163 
Q 403 3881 828 4315 
Q 1253 4750 1959 4750 
Q 2769 4750 3195 4129 
Q 3622 3509 3622 2328 
Q 3622 1225 3098 567 
Q 2575 -91 1691 -91 
Q 1453 -91 1209 -44 
Q 966 3 703 97 
z
M 1959 2075 
Q 2384 2075 2632 2365 
Q 2881 2656 2881 3163 
Q 2881 3666 2632 3958 
Q 2384 4250 1959 4250 
Q 1534 4250 1286 3958 
Q 1038 3666 1038 3163 
Q 1038 2656 1286 2365 
Q 1534 2075 1959 2075 
z
" transform="scale(0.015625)"/>
       </defs>
       <use xlink:href="#DejaVuSans-31"/>
       <use xlink:href="#DejaVuSans-39" x="63.623047"/>
      </g>
     </g>
    </g>
    <g id="xtick_3">
     <g id="line2d_3">
      <g>
       <use xlink:href="#m39f143761e" x="112.356335" y="252" style="stroke: #000000; stroke-width: 0.8"/>
      </g>
     </g>
     <g id="text_3">
      <!-- 37 -->
      <g transform="translate(105.993835 266.598437)scale(0.1 -0.1)">
       <defs>
        <path id="DejaVuSans-33" d="M 2597 2516 
Q 3050 2419 3304 2112 
Q 3559 1806 3559 1356 
Q 3559 666 3084 287 
Q 2609 -91 1734 -91 
Q 1441 -91 1130 -33 
Q 819 25 488 141 
L 488 750 
Q 750 597 1062 519 
Q 1375 441 1716 441 
Q 2309 441 2620 675 
Q 2931 909 2931 1356 
Q 2931 1769 2642 2001 
Q 2353 2234 1838 2234 
L 1294 2234 
L 1294 2753 
L 1863 2753 
Q 2328 2753 2575 2939 
Q 2822 3125 2822 3475 
Q 2822 3834 2567 4026 
Q 2313 4219 1838 4219 
Q 1578 4219 1281 4162 
Q 984 4106 628 3988 
L 628 4550 
Q 988 4650 1302 4700 
Q 1616 4750 1894 4750 
Q 2613 4750 3031 4423 
Q 3450 4097 3450 3541 
Q 3450 3153 3228 2886 
Q 3006 2619 2597 2516 
z
" transform="scale(0.015625)"/>
        <path id="DejaVuSans-37" d="M 525 4666 
L 3525 4666 
L 3525 4397 
L 1831 0 
L 1172 0 
L 2766 4134 
L 525 4134 
L 525 4666 
z
" transform="scale(0.015625)"/>
       </defs>
       <use xlink:href="#DejaVuSans-33"/>
       <use xlink:href="#DejaVuSans-37" x="63.623047"/>
      </g>
     </g>
    </g>
    <g id="xtick_4">
     <g id="line2d_4">
      <g>
       <use xlink:href="#m39f143761e" x="133.925412" y="252" style="stroke: #000000; stroke-width: 0.8"/>
      </g>
     </g>
     <g id="text_4">
      <!-- 55 -->
      <g transform="translate(127.562912 266.598437)scale(0.1 -0.1)">
       <defs>
        <path id="DejaVuSans-35" d="M 691 4666 
L 3169 4666 
L 3169 4134 
L 1269 4134 
L 1269 2991 
Q 1406 3038 1543 3061 
Q 1681 3084 1819 3084 
Q 2600 3084 3056 2656 
Q 3513 2228 3513 1497 
Q 3513 744 3044 326 
Q 2575 -91 1722 -91 
Q 1428 -91 1123 -41 
Q 819 9 494 109 
L 494 744 
Q 775 591 1075 516 
Q 1375 441 1709 441 
Q 2250 441 2565 725 
Q 2881 1009 2881 1497 
Q 2881 1984 2565 2268 
Q 2250 2553 1709 2553 
Q 1456 2553 1204 2497 
Q 953 2441 691 2322 
L 691 4666 
z
" transform="scale(0.015625)"/>
       </defs>
       <use xlink:href="#DejaVuSans-35"/>
       <use xlink:href="#DejaVuSans-35" x="63.623047"/>
      </g>
     </g>
    </g>
    <g id="xtick_5">
     <g id="line2d_5">
      <g>
       <use xlink:href="#m39f143761e" x="155.494488" y="252" style="stroke: #000000; stroke-width: 0.8"/>
      </g>
     </g>
     <g id="text_5">
      <!-- 73 -->
      <g transform="translate(149.131988 266.598437)scale(0.1 -0.1)">
       <use xlink:href="#DejaVuSans-37"/>
       <use xlink:href="#DejaVuSans-33" x="63.623047"/>
      </g>
     </g>
    </g>
    <g id="xtick_6">
     <g id="line2d_6">
      <g>
       <use xlink:href="#m39f143761e" x="177.063565" y="252" style="stroke: #000000; stroke-width: 0.8"/>
      </g>
     </g>
     <g id="text_6">
      <!-- 91 -->
      <g transform="translate(170.701065 266.598437)scale(0.1 -0.1)">
       <use xlink:href="#DejaVuSans-39"/>
       <use xlink:href="#DejaVuSans-31" x="63.623047"/>
      </g>
     </g>
    </g>
    <g id="xtick_7">
     <g id="line2d_7">
      <g>
       <use xlink:href="#m39f143761e" x="198.632641" y="252" style="stroke: #000000; stroke-width: 0.8"/>
      </g>
     </g>
     <g id="text_7">
      <!-- 109 -->
      <g transform="translate(189.088891 266.598437)scale(0.1 -0.1)">
       <defs>
        <path id="DejaVuSans-30" d="M 2034 4250 
Q 1547 4250 1301 3770 
Q 1056 3291 1056 2328 
Q 1056 1369 1301 889 
Q 1547 409 2034 409 
Q 2525 409 2770 889 
Q 3016 1369 3016 2328 
Q 3016 3291 2770 3770 
Q 2525 4250 2034 4250 
z
M 2034 4750 
Q 2819 4750 3233 4129 
Q 3647 3509 3647 2328 
Q 3647 1150 3233 529 
Q 2819 -91 2034 -91 
Q 1250 -91 836 529 
Q 422 1150 422 2328 
Q 422 3509 836 4129 
Q 1250 4750 2034 4750 
z
" transform="scale(0.015625)"/>
       </defs>
       <use xlink:href="#DejaVuSans-31"/>
       <use xlink:href="#DejaVuSans-30" x="63.623047"/>
       <use xlink:href="#DejaVuSans-39" x="127.246094"/>
      </g>
     </g>
    </g>
    <g id="xtick_8">
     <g id="line2d_8">
      <g>
       <use xlink:href="#m39f143761e" x="220.201718" y="252" style="stroke: #000000; stroke-width: 0.8"/>
      </g>
     </g>
     <g id="text_8">
      <!-- 127 -->
      <g transform="translate(210.657968 266.598437)scale(0.1 -0.1)">
       <defs>
        <path id="DejaVuSans-32" d="M 1228 531 
L 3431 531 
L 3431 0 
L 469 0 
L 469 531 
Q 828 903 1448 1529 
Q 2069 2156 2228 2338 
Q 2531 2678 2651 2914 
Q 2772 3150 2772 3378 
Q 2772 3750 2511 3984 
Q 2250 4219 1831 4219 
Q 1534 4219 1204 4116 
Q 875 4013 500 3803 
L 500 4441 
Q 881 4594 1212 4672 
Q 1544 4750 1819 4750 
Q 2544 4750 2975 4387 
Q 3406 4025 3406 3419 
Q 3406 3131 3298 2873 
Q 3191 2616 2906 2266 
Q 2828 2175 2409 1742 
Q 1991 1309 1228 531 
z
" transform="scale(0.015625)"/>
       </defs>
       <use xlink:href="#DejaVuSans-31"/>
       <use xlink:href="#DejaVuSans-32" x="63.623047"/>
       <use xlink:href="#DejaVuSans-37" x="127.246094"/>
      </g>
     </g>
    </g>
    <g id="xtick_9">
     <g id="line2d_9">
      <g>
       <use xlink:href="#m39f143761e" x="241.770795" y="252" style="stroke: #000000; stroke-width: 0.8"/>
      </g>
     </g>
     <g id="text_9">
      <!-- 145 -->
      <g transform="translate(232.227045 266.598437)scale(0.1 -0.1)">
       <defs>
        <path id="DejaVuSans-34" d="M 2419 4116 
L 825 1625 
L 2419 1625 
L 2419 4116 
z
M 2253 4666 
L 3047 4666 
L 3047 1625 
L 3713 1625 
L 3713 1100 
L 3047 1100 
L 3047 0 
L 2419 0 
L 2419 1100 
L 313 1100 
L 313 1709 
L 2253 4666 
z
" transform="scale(0.015625)"/>
       </defs>
       <use xlink:href="#DejaVuSans-31"/>
       <use xlink:href="#DejaVuSans-34" x="63.623047"/>
       <use xlink:href="#DejaVuSans-35" x="127.246094"/>
      </g>
     </g>
    </g>
    <g id="xtick_10">
     <g id="line2d_10">
      <g>
       <use xlink:href="#m39f143761e" x="263.339871" y="252" style="stroke: #000000; stroke-width: 0.8"/>
      </g>
     </g>
     <g id="text_10">
      <!-- 163 -->
      <g transform="translate(253.796121 266.598437)scale(0.1 -0.1)">
       <defs>
        <path id="DejaVuSans-36" d="M 2113 2584 
Q 1688 2584 1439 2293 
Q 1191 2003 1191 1497 
Q 1191 994 1439 701 
Q 1688 409 2113 409 
Q 2538 409 2786 701 
Q 3034 994 3034 1497 
Q 3034 2003 2786 2293 
Q 2538 2584 2113 2584 
z
M 3366 4563 
L 3366 3988 
Q 3128 4100 2886 4159 
Q 2644 4219 2406 4219 
Q 1781 4219 1451 3797 
Q 1122 3375 1075 2522 
Q 1259 2794 1537 2939 
Q 1816 3084 2150 3084 
Q 2853 3084 3261 2657 
Q 3669 2231 3669 1497 
Q 3669 778 3244 343 
Q 2819 -91 2113 -91 
Q 1303 -91 875 529 
Q 447 1150 447 2328 
Q 447 3434 972 4092 
Q 1497 4750 2381 4750 
Q 2619 4750 2861 4703 
Q 3103 4656 3366 4563 
z
" transform="scale(0.015625)"/>
       </defs>
       <use xlink:href="#DejaVuSans-31"/>
       <use xlink:href="#DejaVuSans-36" x="63.623047"/>
       <use xlink:href="#DejaVuSans-33" x="127.246094"/>
      </g>
     </g>
    </g>
    <g id="xtick_11">
     <g id="line2d_11">
      <g>
       <use xlink:href="#m39f143761e" x="284.908948" y="252" style="stroke: #000000; stroke-width: 0.8"/>
      </g>
     </g>
     <g id="text_11">
      <!-- 181 -->
      <g transform="translate(275.365198 266.598437)scale(0.1 -0.1)">
       <defs>
        <path id="DejaVuSans-38" d="M 2034 2216 
Q 1584 2216 1326 1975 
Q 1069 1734 1069 1313 
Q 1069 891 1326 650 
Q 1584 409 2034 409 
Q 2484 409 2743 651 
Q 3003 894 3003 1313 
Q 3003 1734 2745 1975 
Q 2488 2216 2034 2216 
z
M 1403 2484 
Q 997 2584 770 2862 
Q 544 3141 544 3541 
Q 544 4100 942 4425 
Q 1341 4750 2034 4750 
Q 2731 4750 3128 4425 
Q 3525 4100 3525 3541 
Q 3525 3141 3298 2862 
Q 3072 2584 2669 2484 
Q 3125 2378 3379 2068 
Q 3634 1759 3634 1313 
Q 3634 634 3220 271 
Q 2806 -91 2034 -91 
Q 1263 -91 848 271 
Q 434 634 434 1313 
Q 434 1759 690 2068 
Q 947 2378 1403 2484 
z
M 1172 3481 
Q 1172 3119 1398 2916 
Q 1625 2713 2034 2713 
Q 2441 2713 2670 2916 
Q 2900 3119 2900 3481 
Q 2900 3844 2670 4047 
Q 2441 4250 2034 4250 
Q 1625 4250 1398 4047 
Q 1172 3844 1172 3481 
z
" transform="scale(0.015625)"/>
       </defs>
       <use xlink:href="#DejaVuSans-31"/>
       <use xlink:href="#DejaVuSans-38" x="63.623047"/>
       <use xlink:href="#DejaVuSans-31" x="127.246094"/>
      </g>
     </g>
    </g>
    <g id="xtick_12">
     <g id="line2d_12">
      <g>
       <use xlink:href="#m39f143761e" x="306.478024" y="252" style="stroke: #000000; stroke-width: 0.8"/>
      </g>
     </g>
     <g id="text_12">
      <!-- 199 -->
      <g transform="translate(296.934274 266.598437)scale(0.1 -0.1)">
       <use xlink:href="#DejaVuSans-31"/>
       <use xlink:href="#DejaVuSans-39" x="63.623047"/>
       <use xlink:href="#DejaVuSans-39" x="127.246094"/>
      </g>
     </g>
    </g>
    <g id="xtick_13">
     <g id="line2d_13">
      <g>
       <use xlink:href="#m39f143761e" x="328.047101" y="252" style="stroke: #000000; stroke-width: 0.8"/>
      </g>
     </g>
     <g id="text_13">
      <!-- 217 -->
      <g transform="translate(318.503351 266.598437)scale(0.1 -0.1)">
       <use xlink:href="#DejaVuSans-32"/>
       <use xlink:href="#DejaVuSans-31" x="63.623047"/>
       <use xlink:href="#DejaVuSans-37" x="127.246094"/>
      </g>
     </g>
    </g>
    <g id="xtick_14">
     <g id="line2d_14">
      <g>
       <use xlink:href="#m39f143761e" x="349.616178" y="252" style="stroke: #000000; stroke-width: 0.8"/>
      </g>
     </g>
     <g id="text_14">
      <!-- 235 -->
      <g transform="translate(340.072428 266.598437)scale(0.1 -0.1)">
       <use xlink:href="#DejaVuSans-32"/>
       <use xlink:href="#DejaVuSans-33" x="63.623047"/>
       <use xlink:href="#DejaVuSans-35" x="127.246094"/>
      </g>
     </g>
    </g>
    <g id="xtick_15">
     <g id="line2d_15">
      <g>
       <use xlink:href="#m39f143761e" x="371.185254" y="252" style="stroke: #000000; stroke-width: 0.8"/>
      </g>
     </g>
     <g id="text_15">
      <!-- 253 -->
      <g transform="translate(361.641504 266.598437)scale(0.1 -0.1)">
       <use xlink:href="#DejaVuSans-32"/>
       <use xlink:href="#DejaVuSans-35" x="63.623047"/>
       <use xlink:href="#DejaVuSans-33" x="127.246094"/>
      </g>
     </g>
    </g>
    <g id="text_16">
     <!-- Program size -->
     <g transform="translate(189.022656 280.276563)scale(0.1 -0.1)">
      <defs>
       <path id="DejaVuSans-50" d="M 1259 4147 
L 1259 2394 
L 2053 2394 
Q 2494 2394 2734 2622 
Q 2975 2850 2975 3272 
Q 2975 3691 2734 3919 
Q 2494 4147 2053 4147 
L 1259 4147 
z
M 628 4666 
L 2053 4666 
Q 2838 4666 3239 4311 
Q 3641 3956 3641 3272 
Q 3641 2581 3239 2228 
Q 2838 1875 2053 1875 
L 1259 1875 
L 1259 0 
L 628 0 
L 628 4666 
z
" transform="scale(0.015625)"/>
       <path id="DejaVuSans-72" d="M 2631 2963 
Q 2534 3019 2420 3045 
Q 2306 3072 2169 3072 
Q 1681 3072 1420 2755 
Q 1159 2438 1159 1844 
L 1159 0 
L 581 0 
L 581 3500 
L 1159 3500 
L 1159 2956 
Q 1341 3275 1631 3429 
Q 1922 3584 2338 3584 
Q 2397 3584 2469 3576 
Q 2541 3569 2628 3553 
L 2631 2963 
z
" transform="scale(0.015625)"/>
       <path id="DejaVuSans-6f" d="M 1959 3097 
Q 1497 3097 1228 2736 
Q 959 2375 959 1747 
Q 959 1119 1226 758 
Q 1494 397 1959 397 
Q 2419 397 2687 759 
Q 2956 1122 2956 1747 
Q 2956 2369 2687 2733 
Q 2419 3097 1959 3097 
z
M 1959 3584 
Q 2709 3584 3137 3096 
Q 3566 2609 3566 1747 
Q 3566 888 3137 398 
Q 2709 -91 1959 -91 
Q 1206 -91 779 398 
Q 353 888 353 1747 
Q 353 2609 779 3096 
Q 1206 3584 1959 3584 
z
" transform="scale(0.015625)"/>
       <path id="DejaVuSans-67" d="M 2906 1791 
Q 2906 2416 2648 2759 
Q 2391 3103 1925 3103 
Q 1463 3103 1205 2759 
Q 947 2416 947 1791 
Q 947 1169 1205 825 
Q 1463 481 1925 481 
Q 2391 481 2648 825 
Q 2906 1169 2906 1791 
z
M 3481 434 
Q 3481 -459 3084 -895 
Q 2688 -1331 1869 -1331 
Q 1566 -1331 1297 -1286 
Q 1028 -1241 775 -1147 
L 775 -588 
Q 1028 -725 1275 -790 
Q 1522 -856 1778 -856 
Q 2344 -856 2625 -561 
Q 2906 -266 2906 331 
L 2906 616 
Q 2728 306 2450 153 
Q 2172 0 1784 0 
Q 1141 0 747 490 
Q 353 981 353 1791 
Q 353 2603 747 3093 
Q 1141 3584 1784 3584 
Q 2172 3584 2450 3431 
Q 2728 3278 2906 2969 
L 2906 3500 
L 3481 3500 
L 3481 434 
z
" transform="scale(0.015625)"/>
       <path id="DejaVuSans-61" d="M 2194 1759 
Q 1497 1759 1228 1600 
Q 959 1441 959 1056 
Q 959 750 1161 570 
Q 1363 391 1709 391 
Q 2188 391 2477 730 
Q 2766 1069 2766 1631 
L 2766 1759 
L 2194 1759 
z
M 3341 1997 
L 3341 0 
L 2766 0 
L 2766 531 
Q 2569 213 2275 61 
Q 1981 -91 1556 -91 
Q 1019 -91 701 211 
Q 384 513 384 1019 
Q 384 1609 779 1909 
Q 1175 2209 1959 2209 
L 2766 2209 
L 2766 2266 
Q 2766 2663 2505 2880 
Q 2244 3097 1772 3097 
Q 1472 3097 1187 3025 
Q 903 2953 641 2809 
L 641 3341 
Q 956 3463 1253 3523 
Q 1550 3584 1831 3584 
Q 2591 3584 2966 3190 
Q 3341 2797 3341 1997 
z
" transform="scale(0.015625)"/>
       <path id="DejaVuSans-6d" d="M 3328 2828 
Q 3544 3216 3844 3400 
Q 4144 3584 4550 3584 
Q 5097 3584 5394 3201 
Q 5691 2819 5691 2113 
L 5691 0 
L 5113 0 
L 5113 2094 
Q 5113 2597 4934 2840 
Q 4756 3084 4391 3084 
Q 3944 3084 3684 2787 
Q 3425 2491 3425 1978 
L 3425 0 
L 2847 0 
L 2847 2094 
Q 2847 2600 2669 2842 
Q 2491 3084 2119 3084 
Q 1678 3084 1418 2786 
Q 1159 2488 1159 1978 
L 1159 0 
L 581 0 
L 581 3500 
L 1159 3500 
L 1159 2956 
Q 1356 3278 1631 3431 
Q 1906 3584 2284 3584 
Q 2666 3584 2933 3390 
Q 3200 3197 3328 2828 
z
" transform="scale(0.015625)"/>
       <path id="DejaVuSans-20" transform="scale(0.015625)"/>
       <path id="DejaVuSans-73" d="M 2834 3397 
L 2834 2853 
Q 2591 2978 2328 3040 
Q 2066 3103 1784 3103 
Q 1356 3103 1142 2972 
Q 928 2841 928 2578 
Q 928 2378 1081 2264 
Q 1234 2150 1697 2047 
L 1894 2003 
Q 2506 1872 2764 1633 
Q 3022 1394 3022 966 
Q 3022 478 2636 193 
Q 2250 -91 1575 -91 
Q 1294 -91 989 -36 
Q 684 19 347 128 
L 347 722 
Q 666 556 975 473 
Q 1284 391 1588 391 
Q 1994 391 2212 530 
Q 2431 669 2431 922 
Q 2431 1156 2273 1281 
Q 2116 1406 1581 1522 
L 1381 1569 
Q 847 1681 609 1914 
Q 372 2147 372 2553 
Q 372 3047 722 3315 
Q 1072 3584 1716 3584 
Q 2034 3584 2315 3537 
Q 2597 3491 2834 3397 
z
" transform="scale(0.015625)"/>
       <path id="DejaVuSans-69" d="M 603 3500 
L 1178 3500 
L 1178 0 
L 603 0 
L 603 3500 
z
M 603 4863 
L 1178 4863 
L 1178 4134 
L 603 4134 
L 603 4863 
z
" transform="scale(0.015625)"/>
       <path id="DejaVuSans-7a" d="M 353 3500 
L 3084 3500 
L 3084 2975 
L 922 459 
L 3084 459 
L 3084 0 
L 275 0 
L 275 525 
L 2438 3041 
L 353 3041 
L 353 3500 
z
" transform="scale(0.015625)"/>
       <path id="DejaVuSans-65" d="M 3597 1894 
L 3597 1613 
L 953 1613 
Q 991 1019 1311 708 
Q 1631 397 2203 397 
Q 2534 397 2845 478 
Q 3156 559 3463 722 
L 3463 178 
Q 3153 47 2828 -22 
Q 2503 -91 2169 -91 
Q 1331 -91 842 396 
Q 353 884 353 1716 
Q 353 2575 817 3079 
Q 1281 3584 2069 3584 
Q 2775 3584 3186 3129 
Q 3597 2675 3597 1894 
z
M 3022 2063 
Q 3016 2534 2758 2815 
Q 2500 3097 2075 3097 
Q 1594 3097 1305 2825 
Q 1016 2553 972 2059 
L 3022 2063 
z
" transform="scale(0.015625)"/>
      </defs>
      <use xlink:href="#DejaVuSans-50"/>
      <use xlink:href="#DejaVuSans-72" x="58.552734"/>
      <use xlink:href="#DejaVuSans-6f" x="97.416016"/>
      <use xlink:href="#DejaVuSans-67" x="158.597656"/>
      <use xlink:href="#DejaVuSans-72" x="222.074219"/>
      <use xlink:href="#DejaVuSans-61" x="263.1875"/>
      <use xlink:href="#DejaVuSans-6d" x="324.466797"/>
      <use xlink:href="#DejaVuSans-20" x="421.878906"/>
      <use xlink:href="#DejaVuSans-73" x="453.666016"/>
      <use xlink:href="#DejaVuSans-69" x="505.765625"/>
      <use xlink:href="#DejaVuSans-7a" x="533.548828"/>
      <use xlink:href="#DejaVuSans-65" x="586.039062"/>
     </g>
    </g>
   </g>
   <g id="matplotlib.axis_2">
    <g id="ytick_1">
     <g id="line2d_16">
      <defs>
       <path id="m5b3a831887" d="M 0 0 
L -3.5 0 
" style="stroke: #000000; stroke-width: 0.8"/>
      </defs>
      <g>
       <use xlink:href="#m5b3a831887" x="54" y="245.720059" style="stroke: #000000; stroke-width: 0.8"/>
      </g>
     </g>
     <g id="text_17">
      <!-- $\mathdefault{10^{6}}$ -->
      <g transform="translate(29.4 249.519278)scale(0.1 -0.1)">
       <use xlink:href="#DejaVuSans-31" transform="translate(0 0.765625)"/>
       <use xlink:href="#DejaVuSans-30" transform="translate(63.623047 0.765625)"/>
       <use xlink:href="#DejaVuSans-36" transform="translate(128.203125 39.046875)scale(0.7)"/>
      </g>
     </g>
    </g>
    <g id="ytick_2">
     <g id="line2d_17">
      <g>
       <use xlink:href="#m5b3a831887" x="54" y="213.036099" style="stroke: #000000; stroke-width: 0.8"/>
      </g>
     </g>
     <g id="text_18">
      <!-- $\mathdefault{10^{7}}$ -->
      <g transform="translate(29.4 216.835318)scale(0.1 -0.1)">
       <use xlink:href="#DejaVuSans-31" transform="translate(0 0.684375)"/>
       <use xlink:href="#DejaVuSans-30" transform="translate(63.623047 0.684375)"/>
       <use xlink:href="#DejaVuSans-37" transform="translate(128.203125 38.965625)scale(0.7)"/>
      </g>
     </g>
    </g>
    <g id="ytick_3">
     <g id="line2d_18">
      <g>
       <use xlink:href="#m5b3a831887" x="54" y="180.352139" style="stroke: #000000; stroke-width: 0.8"/>
      </g>
     </g>
     <g id="text_19">
      <!-- $\mathdefault{10^{8}}$ -->
      <g transform="translate(29.4 184.151358)scale(0.1 -0.1)">
       <use xlink:href="#DejaVuSans-31" transform="translate(0 0.765625)"/>
       <use xlink:href="#DejaVuSans-30" transform="translate(63.623047 0.765625)"/>
       <use xlink:href="#DejaVuSans-38" transform="translate(128.203125 39.046875)scale(0.7)"/>
      </g>
     </g>
    </g>
    <g id="ytick_4">
     <g id="line2d_19">
      <g>
       <use xlink:href="#m5b3a831887" x="54" y="147.668179" style="stroke: #000000; stroke-width: 0.8"/>
      </g>
     </g>
     <g id="text_20">
      <!-- $\mathdefault{10^{9}}$ -->
      <g transform="translate(29.4 151.467398)scale(0.1 -0.1)">
       <use xlink:href="#DejaVuSans-31" transform="translate(0 0.765625)"/>
       <use xlink:href="#DejaVuSans-30" transform="translate(63.623047 0.765625)"/>
       <use xlink:href="#DejaVuSans-39" transform="translate(128.203125 39.046875)scale(0.7)"/>
      </g>
     </g>
    </g>
    <g id="ytick_5">
     <g id="line2d_20">
      <g>
       <use xlink:href="#m5b3a831887" x="54" y="114.984219" style="stroke: #000000; stroke-width: 0.8"/>
      </g>
     </g>
     <g id="text_21">
      <!-- $\mathdefault{10^{10}}$ -->
      <g transform="translate(24.9 118.783438)scale(0.1 -0.1)">
       <use xlink:href="#DejaVuSans-31" transform="translate(0 0.765625)"/>
       <use xlink:href="#DejaVuSans-30" transform="translate(63.623047 0.765625)"/>
       <use xlink:href="#DejaVuSans-31" transform="translate(128.203125 39.046875)scale(0.7)"/>
       <use xlink:href="#DejaVuSans-30" transform="translate(172.739258 39.046875)scale(0.7)"/>
      </g>
     </g>
    </g>
    <g id="ytick_6">
     <g id="line2d_21">
      <g>
       <use xlink:href="#m5b3a831887" x="54" y="82.300259" style="stroke: #000000; stroke-width: 0.8"/>
      </g>
     </g>
     <g id="text_22">
      <!-- $\mathdefault{10^{11}}$ -->
      <g transform="translate(24.9 86.099478)scale(0.1 -0.1)">
       <use xlink:href="#DejaVuSans-31" transform="translate(0 0.684375)"/>
       <use xlink:href="#DejaVuSans-30" transform="translate(63.623047 0.684375)"/>
       <use xlink:href="#DejaVuSans-31" transform="translate(128.203125 38.965625)scale(0.7)"/>
       <use xlink:href="#DejaVuSans-31" transform="translate(172.739258 38.965625)scale(0.7)"/>
      </g>
     </g>
    </g>
    <g id="ytick_7">
     <g id="line2d_22">
      <g>
       <use xlink:href="#m5b3a831887" x="54" y="49.616299" style="stroke: #000000; stroke-width: 0.8"/>
      </g>
     </g>
     <g id="text_23">
      <!-- $\mathdefault{10^{12}}$ -->
      <g transform="translate(24.9 53.415518)scale(0.1 -0.1)">
       <use xlink:href="#DejaVuSans-31" transform="translate(0 0.765625)"/>
       <use xlink:href="#DejaVuSans-30" transform="translate(63.623047 0.765625)"/>
       <use xlink:href="#DejaVuSans-31" transform="translate(128.203125 39.046875)scale(0.7)"/>
       <use xlink:href="#DejaVuSans-32" transform="translate(172.739258 39.046875)scale(0.7)"/>
      </g>
     </g>
    </g>
    <g id="ytick_8">
     <g id="line2d_23">
      <defs>
       <path id="me5e9851237" d="M 0 0 
L -2 0 
" style="stroke: #000000; stroke-width: 0.6"/>
      </defs>
      <g>
       <use xlink:href="#me5e9851237" x="54" y="250.782869" style="stroke: #000000; stroke-width: 0.6"/>
      </g>
     </g>
    </g>
    <g id="ytick_9">
     <g id="line2d_24">
      <g>
       <use xlink:href="#me5e9851237" x="54" y="248.887462" style="stroke: #000000; stroke-width: 0.6"/>
      </g>
     </g>
    </g>
    <g id="ytick_10">
     <g id="line2d_25">
      <g>
       <use xlink:href="#me5e9851237" x="54" y="247.215595" style="stroke: #000000; stroke-width: 0.6"/>
      </g>
     </g>
    </g>
    <g id="ytick_11">
     <g id="line2d_26">
      <g>
       <use xlink:href="#me5e9851237" x="54" y="235.881207" style="stroke: #000000; stroke-width: 0.6"/>
      </g>
     </g>
    </g>
    <g id="ytick_12">
     <g id="line2d_27">
      <g>
       <use xlink:href="#me5e9851237" x="54" y="230.125847" style="stroke: #000000; stroke-width: 0.6"/>
      </g>
     </g>
    </g>
    <g id="ytick_13">
     <g id="line2d_28">
      <g>
       <use xlink:href="#me5e9851237" x="54" y="226.042355" style="stroke: #000000; stroke-width: 0.6"/>
      </g>
     </g>
    </g>
    <g id="ytick_14">
     <g id="line2d_29">
      <g>
       <use xlink:href="#me5e9851237" x="54" y="222.874952" style="stroke: #000000; stroke-width: 0.6"/>
      </g>
     </g>
    </g>
    <g id="ytick_15">
     <g id="line2d_30">
      <g>
       <use xlink:href="#me5e9851237" x="54" y="220.286995" style="stroke: #000000; stroke-width: 0.6"/>
      </g>
     </g>
    </g>
    <g id="ytick_16">
     <g id="line2d_31">
      <g>
       <use xlink:href="#me5e9851237" x="54" y="218.098909" style="stroke: #000000; stroke-width: 0.6"/>
      </g>
     </g>
    </g>
    <g id="ytick_17">
     <g id="line2d_32">
      <g>
       <use xlink:href="#me5e9851237" x="54" y="216.203502" style="stroke: #000000; stroke-width: 0.6"/>
      </g>
     </g>
    </g>
    <g id="ytick_18">
     <g id="line2d_33">
      <g>
       <use xlink:href="#me5e9851237" x="54" y="214.531635" style="stroke: #000000; stroke-width: 0.6"/>
      </g>
     </g>
    </g>
    <g id="ytick_19">
     <g id="line2d_34">
      <g>
       <use xlink:href="#me5e9851237" x="54" y="203.197247" style="stroke: #000000; stroke-width: 0.6"/>
      </g>
     </g>
    </g>
    <g id="ytick_20">
     <g id="line2d_35">
      <g>
       <use xlink:href="#me5e9851237" x="54" y="197.441887" style="stroke: #000000; stroke-width: 0.6"/>
      </g>
     </g>
    </g>
    <g id="ytick_21">
     <g id="line2d_36">
      <g>
       <use xlink:href="#me5e9851237" x="54" y="193.358395" style="stroke: #000000; stroke-width: 0.6"/>
      </g>
     </g>
    </g>
    <g id="ytick_22">
     <g id="line2d_37">
      <g>
       <use xlink:href="#me5e9851237" x="54" y="190.190992" style="stroke: #000000; stroke-width: 0.6"/>
      </g>
     </g>
    </g>
    <g id="ytick_23">
     <g id="line2d_38">
      <g>
       <use xlink:href="#me5e9851237" x="54" y="187.603035" style="stroke: #000000; stroke-width: 0.6"/>
      </g>
     </g>
    </g>
    <g id="ytick_24">
     <g id="line2d_39">
      <g>
       <use xlink:href="#me5e9851237" x="54" y="185.414949" style="stroke: #000000; stroke-width: 0.6"/>
      </g>
     </g>
    </g>
    <g id="ytick_25">
     <g id="line2d_40">
      <g>
       <use xlink:href="#me5e9851237" x="54" y="183.519542" style="stroke: #000000; stroke-width: 0.6"/>
      </g>
     </g>
    </g>
    <g id="ytick_26">
     <g id="line2d_41">
      <g>
       <use xlink:href="#me5e9851237" x="54" y="181.847675" style="stroke: #000000; stroke-width: 0.6"/>
      </g>
     </g>
    </g>
    <g id="ytick_27">
     <g id="line2d_42">
      <g>
       <use xlink:href="#me5e9851237" x="54" y="170.513287" style="stroke: #000000; stroke-width: 0.6"/>
      </g>
     </g>
    </g>
    <g id="ytick_28">
     <g id="line2d_43">
      <g>
       <use xlink:href="#me5e9851237" x="54" y="164.757927" style="stroke: #000000; stroke-width: 0.6"/>
      </g>
     </g>
    </g>
    <g id="ytick_29">
     <g id="line2d_44">
      <g>
       <use xlink:href="#me5e9851237" x="54" y="160.674435" style="stroke: #000000; stroke-width: 0.6"/>
      </g>
     </g>
    </g>
    <g id="ytick_30">
     <g id="line2d_45">
      <g>
       <use xlink:href="#me5e9851237" x="54" y="157.507032" style="stroke: #000000; stroke-width: 0.6"/>
      </g>
     </g>
    </g>
    <g id="ytick_31">
     <g id="line2d_46">
      <g>
       <use xlink:href="#me5e9851237" x="54" y="154.919075" style="stroke: #000000; stroke-width: 0.6"/>
      </g>
     </g>
    </g>
    <g id="ytick_32">
     <g id="line2d_47">
      <g>
       <use xlink:href="#me5e9851237" x="54" y="152.730989" style="stroke: #000000; stroke-width: 0.6"/>
      </g>
     </g>
    </g>
    <g id="ytick_33">
     <g id="line2d_48">
      <g>
       <use xlink:href="#me5e9851237" x="54" y="150.835582" style="stroke: #000000; stroke-width: 0.6"/>
      </g>
     </g>
    </g>
    <g id="ytick_34">
     <g id="line2d_49">
      <g>
       <use xlink:href="#me5e9851237" x="54" y="149.163715" style="stroke: #000000; stroke-width: 0.6"/>
      </g>
     </g>
    </g>
    <g id="ytick_35">
     <g id="line2d_50">
      <g>
       <use xlink:href="#me5e9851237" x="54" y="137.829327" style="stroke: #000000; stroke-width: 0.6"/>
      </g>
     </g>
    </g>
    <g id="ytick_36">
     <g id="line2d_51">
      <g>
       <use xlink:href="#me5e9851237" x="54" y="132.073967" style="stroke: #000000; stroke-width: 0.6"/>
      </g>
     </g>
    </g>
    <g id="ytick_37">
     <g id="line2d_52">
      <g>
       <use xlink:href="#me5e9851237" x="54" y="127.990475" style="stroke: #000000; stroke-width: 0.6"/>
      </g>
     </g>
    </g>
    <g id="ytick_38">
     <g id="line2d_53">
      <g>
       <use xlink:href="#me5e9851237" x="54" y="124.823072" style="stroke: #000000; stroke-width: 0.6"/>
      </g>
     </g>
    </g>
    <g id="ytick_39">
     <g id="line2d_54">
      <g>
       <use xlink:href="#me5e9851237" x="54" y="122.235115" style="stroke: #000000; stroke-width: 0.6"/>
      </g>
     </g>
    </g>
    <g id="ytick_40">
     <g id="line2d_55">
      <g>
       <use xlink:href="#me5e9851237" x="54" y="120.047029" style="stroke: #000000; stroke-width: 0.6"/>
      </g>
     </g>
    </g>
    <g id="ytick_41">
     <g id="line2d_56">
      <g>
       <use xlink:href="#me5e9851237" x="54" y="118.151622" style="stroke: #000000; stroke-width: 0.6"/>
      </g>
     </g>
    </g>
    <g id="ytick_42">
     <g id="line2d_57">
      <g>
       <use xlink:href="#me5e9851237" x="54" y="116.479755" style="stroke: #000000; stroke-width: 0.6"/>
      </g>
     </g>
    </g>
    <g id="ytick_43">
     <g id="line2d_58">
      <g>
       <use xlink:href="#me5e9851237" x="54" y="105.145367" style="stroke: #000000; stroke-width: 0.6"/>
      </g>
     </g>
    </g>
    <g id="ytick_44">
     <g id="line2d_59">
      <g>
       <use xlink:href="#me5e9851237" x="54" y="99.390007" style="stroke: #000000; stroke-width: 0.6"/>
      </g>
     </g>
    </g>
    <g id="ytick_45">
     <g id="line2d_60">
      <g>
       <use xlink:href="#me5e9851237" x="54" y="95.306515" style="stroke: #000000; stroke-width: 0.6"/>
      </g>
     </g>
    </g>
    <g id="ytick_46">
     <g id="line2d_61">
      <g>
       <use xlink:href="#me5e9851237" x="54" y="92.139112" style="stroke: #000000; stroke-width: 0.6"/>
      </g>
     </g>
    </g>
    <g id="ytick_47">
     <g id="line2d_62">
      <g>
       <use xlink:href="#me5e9851237" x="54" y="89.551155" style="stroke: #000000; stroke-width: 0.6"/>
      </g>
     </g>
    </g>
    <g id="ytick_48">
     <g id="line2d_63">
      <g>
       <use xlink:href="#me5e9851237" x="54" y="87.363069" style="stroke: #000000; stroke-width: 0.6"/>
      </g>
     </g>
    </g>
    <g id="ytick_49">
     <g id="line2d_64">
      <g>
       <use xlink:href="#me5e9851237" x="54" y="85.467662" style="stroke: #000000; stroke-width: 0.6"/>
      </g>
     </g>
    </g>
    <g id="ytick_50">
     <g id="line2d_65">
      <g>
       <use xlink:href="#me5e9851237" x="54" y="83.795795" style="stroke: #000000; stroke-width: 0.6"/>
      </g>
     </g>
    </g>
    <g id="ytick_51">
     <g id="line2d_66">
      <g>
       <use xlink:href="#me5e9851237" x="54" y="72.461407" style="stroke: #000000; stroke-width: 0.6"/>
      </g>
     </g>
    </g>
    <g id="ytick_52">
     <g id="line2d_67">
      <g>
       <use xlink:href="#me5e9851237" x="54" y="66.706047" style="stroke: #000000; stroke-width: 0.6"/>
      </g>
     </g>
    </g>
    <g id="ytick_53">
     <g id="line2d_68">
      <g>
       <use xlink:href="#me5e9851237" x="54" y="62.622555" style="stroke: #000000; stroke-width: 0.6"/>
      </g>
     </g>
    </g>
    <g id="ytick_54">
     <g id="line2d_69">
      <g>
       <use xlink:href="#me5e9851237" x="54" y="59.455152" style="stroke: #000000; stroke-width: 0.6"/>
      </g>
     </g>
    </g>
    <g id="ytick_55">
     <g id="line2d_70">
      <g>
       <use xlink:href="#me5e9851237" x="54" y="56.867195" style="stroke: #000000; stroke-width: 0.6"/>
      </g>
     </g>
    </g>
    <g id="ytick_56">
     <g id="line2d_71">
      <g>
       <use xlink:href="#me5e9851237" x="54" y="54.679109" style="stroke: #000000; stroke-width: 0.6"/>
      </g>
     </g>
    </g>
    <g id="ytick_57">
     <g id="line2d_72">
      <g>
       <use xlink:href="#me5e9851237" x="54" y="52.783702" style="stroke: #000000; stroke-width: 0.6"/>
      </g>
     </g>
    </g>
    <g id="ytick_58">
     <g id="line2d_73">
      <g>
       <use xlink:href="#me5e9851237" x="54" y="51.111835" style="stroke: #000000; stroke-width: 0.6"/>
      </g>
     </g>
    </g>
    <g id="ytick_59">
     <g id="line2d_74">
      <g>
       <use xlink:href="#me5e9851237" x="54" y="39.777447" style="stroke: #000000; stroke-width: 0.6"/>
      </g>
     </g>
    </g>
    <g id="text_24">
     <!-- Median NEPS -->
     <g transform="translate(18.820312 176.144844)rotate(-90)scale(0.1 -0.1)">
      <defs>
       <path id="DejaVuSans-4d" d="M 628 4666 
L 1569 4666 
L 2759 1491 
L 3956 4666 
L 4897 4666 
L 4897 0 
L 4281 0 
L 4281 4097 
L 3078 897 
L 2444 897 
L 1241 4097 
L 1241 0 
L 628 0 
L 628 4666 
z
" transform="scale(0.015625)"/>
       <path id="DejaVuSans-64" d="M 2906 2969 
L 2906 4863 
L 3481 4863 
L 3481 0 
L 2906 0 
L 2906 525 
Q 2725 213 2448 61 
Q 2172 -91 1784 -91 
Q 1150 -91 751 415 
Q 353 922 353 1747 
Q 353 2572 751 3078 
Q 1150 3584 1784 3584 
Q 2172 3584 2448 3432 
Q 2725 3281 2906 2969 
z
M 947 1747 
Q 947 1113 1208 752 
Q 1469 391 1925 391 
Q 2381 391 2643 752 
Q 2906 1113 2906 1747 
Q 2906 2381 2643 2742 
Q 2381 3103 1925 3103 
Q 1469 3103 1208 2742 
Q 947 2381 947 1747 
z
" transform="scale(0.015625)"/>
       <path id="DejaVuSans-6e" d="M 3513 2113 
L 3513 0 
L 2938 0 
L 2938 2094 
Q 2938 2591 2744 2837 
Q 2550 3084 2163 3084 
Q 1697 3084 1428 2787 
Q 1159 2491 1159 1978 
L 1159 0 
L 581 0 
L 581 3500 
L 1159 3500 
L 1159 2956 
Q 1366 3272 1645 3428 
Q 1925 3584 2291 3584 
Q 2894 3584 3203 3211 
Q 3513 2838 3513 2113 
z
" transform="scale(0.015625)"/>
       <path id="DejaVuSans-4e" d="M 628 4666 
L 1478 4666 
L 3547 763 
L 3547 4666 
L 4159 4666 
L 4159 0 
L 3309 0 
L 1241 3903 
L 1241 0 
L 628 0 
L 628 4666 
z
" transform="scale(0.015625)"/>
       <path id="DejaVuSans-45" d="M 628 4666 
L 3578 4666 
L 3578 4134 
L 1259 4134 
L 1259 2753 
L 3481 2753 
L 3481 2222 
L 1259 2222 
L 1259 531 
L 3634 531 
L 3634 0 
L 628 0 
L 628 4666 
z
" transform="scale(0.015625)"/>
       <path id="DejaVuSans-53" d="M 3425 4513 
L 3425 3897 
Q 3066 4069 2747 4153 
Q 2428 4238 2131 4238 
Q 1616 4238 1336 4038 
Q 1056 3838 1056 3469 
Q 1056 3159 1242 3001 
Q 1428 2844 1947 2747 
L 2328 2669 
Q 3034 2534 3370 2195 
Q 3706 1856 3706 1288 
Q 3706 609 3251 259 
Q 2797 -91 1919 -91 
Q 1588 -91 1214 -16 
Q 841 59 441 206 
L 441 856 
Q 825 641 1194 531 
Q 1563 422 1919 422 
Q 2459 422 2753 634 
Q 3047 847 3047 1241 
Q 3047 1584 2836 1778 
Q 2625 1972 2144 2069 
L 1759 2144 
Q 1053 2284 737 2584 
Q 422 2884 422 3419 
Q 422 4038 858 4394 
Q 1294 4750 2059 4750 
Q 2388 4750 2728 4690 
Q 3069 4631 3425 4513 
z
" transform="scale(0.015625)"/>
      </defs>
      <use xlink:href="#DejaVuSans-4d"/>
      <use xlink:href="#DejaVuSans-65" x="86.279297"/>
      <use xlink:href="#DejaVuSans-64" x="147.802734"/>
      <use xlink:href="#DejaVuSans-69" x="211.279297"/>
      <use xlink:href="#DejaVuSans-61" x="239.0625"/>
      <use xlink:href="#DejaVuSans-6e" x="300.341797"/>
      <use xlink:href="#DejaVuSans-20" x="363.720703"/>
      <use xlink:href="#DejaVuSans-4e" x="395.507812"/>
      <use xlink:href="#DejaVuSans-45" x="470.3125"/>
      <use xlink:href="#DejaVuSans-50" x="533.496094"/>
      <use xlink:href="#DejaVuSans-53" x="593.798828"/>
     </g>
    </g>
   </g>
   <g id="line2d_75">
    <path d="M 69.218182 221.416222 
L 71.614746 206.318466 
L 74.01131 198.787917 
L 78.804438 189.517546 
L 81.201002 188.740207 
L 83.597566 183.803085 
L 85.99413 184.446867 
L 88.390694 183.739688 
L 90.787258 180.573914 
L 93.183822 178.722867 
L 95.580387 178.665148 
L 97.976951 177.436613 
L 100.373515 178.088142 
L 102.770079 174.15632 
L 105.166643 174.513352 
L 107.563207 172.552015 
L 109.959771 173.281022 
L 112.356335 173.277866 
L 114.752899 171.434099 
L 117.149463 170.556966 
L 119.546027 170.757585 
L 121.942591 169.883541 
L 124.339155 171.067358 
L 129.132283 167.467783 
L 131.528848 168.867204 
L 133.925412 166.64855 
L 136.321976 169.553367 
L 138.71854 168.694078 
L 141.115104 170.435298 
L 143.511668 165.857407 
L 145.908232 167.164955 
L 148.304796 165.677985 
L 150.70136 165.434245 
L 155.494488 163.785917 
L 157.891052 164.684485 
L 160.287616 164.546611 
L 162.68418 165.648091 
L 165.080744 164.5224 
L 167.477309 163.830246 
L 169.873873 163.828589 
L 172.270437 162.953327 
L 174.667001 163.768812 
L 177.063565 165.121736 
L 179.460129 162.003747 
L 181.856693 162.936406 
L 184.253257 163.098599 
L 186.649821 161.779557 
L 189.046385 164.561636 
L 191.442949 162.924098 
L 193.839513 161.652221 
L 196.236077 162.320535 
L 198.632641 160.625733 
L 201.029205 160.612418 
L 203.42577 163.81819 
L 205.822334 161.024515 
L 208.218898 160.583266 
L 210.615462 161.010299 
L 213.012026 161.020884 
L 215.40859 161.792557 
L 217.805154 160.435865 
L 220.201718 160.607924 
L 224.994846 159.638699 
L 227.39141 160.231165 
L 229.787974 158.886595 
L 232.184538 159.241978 
L 234.581102 158.470485 
L 236.977666 159.617736 
L 239.37423 158.275134 
L 244.167359 159.967686 
L 246.563923 159.1565 
L 248.960487 159.364456 
L 251.357051 158.51179 
L 253.753615 161.021833 
L 256.150179 161.087816 
L 258.546743 158.341524 
L 260.943307 157.858991 
L 263.339871 159.301265 
L 265.736435 158.587907 
L 268.132999 158.462714 
L 270.529563 158.085345 
L 272.926127 158.994607 
L 275.322691 158.344286 
L 277.719256 157.390681 
L 280.11582 160.286791 
L 282.512384 157.601552 
L 284.908948 156.832966 
L 287.305512 158.046611 
L 289.702076 156.766111 
L 292.09864 157.06976 
L 294.495204 157.852469 
L 296.891768 157.317598 
L 299.288332 157.590051 
L 304.08146 156.518174 
L 306.478024 156.660448 
L 308.874588 155.872413 
L 311.271152 157.757605 
L 313.667717 155.778687 
L 318.460845 156.877979 
L 320.857409 156.490367 
L 323.253973 159.418718 
L 325.650537 156.614665 
L 328.047101 156.917284 
L 330.443665 155.956211 
L 332.840229 155.848278 
L 335.236793 157.082019 
L 337.633357 155.153147 
L 340.029921 154.840071 
L 342.426485 157.249288 
L 344.823049 155.227565 
L 347.219613 155.132125 
L 352.012742 156.179531 
L 354.409306 154.058978 
L 356.80587 156.944102 
L 359.202434 156.79969 
L 361.598998 155.933694 
L 363.995562 156.131059 
L 366.392126 156.502333 
L 368.78869 155.161431 
L 371.185254 155.662214 
L 373.581818 156.426595 
L 373.581818 156.426595 
" clip-path="url(#p5405e47ed7)" style="fill: none; stroke: #1f77b4; stroke-width: 1.5; stroke-linecap: square"/>
   </g>
   <g id="line2d_76">
    <path d="M 69.218182 242.116364 
L 71.614746 186.186972 
L 74.01131 180.279272 
L 76.407874 172.636544 
L 78.804438 169.200138 
L 81.201002 167.366636 
L 83.597566 160.656168 
L 85.99413 162.259397 
L 88.390694 166.470631 
L 90.787258 163.687099 
L 93.183822 162.396943 
L 95.580387 160.422713 
L 97.976951 160.343005 
L 100.373515 161.524528 
L 102.770079 160.801568 
L 105.166643 160.599128 
L 107.563207 158.045141 
L 109.959771 159.562989 
L 112.356335 160.214457 
L 114.752899 154.067116 
L 119.546027 154.42818 
L 121.942591 160.016994 
L 124.339155 157.022603 
L 126.735719 164.109251 
L 129.132283 155.766919 
L 131.528848 156.432008 
L 133.925412 152.809031 
L 136.321976 153.588311 
L 138.71854 153.160203 
L 141.115104 156.553905 
L 143.511668 153.814017 
L 145.908232 154.712205 
L 148.304796 153.505364 
L 150.70136 154.878265 
L 153.097924 152.822209 
L 155.494488 152.282453 
L 157.891052 155.718785 
L 160.287616 157.707083 
L 162.68418 154.160253 
L 165.080744 150.360904 
L 167.477309 153.307028 
L 169.873873 153.625034 
L 172.270437 153.74691 
L 174.667001 154.019331 
L 177.063565 153.767616 
L 179.460129 153.366355 
L 181.856693 154.188455 
L 184.253257 157.700814 
L 186.649821 153.031271 
L 189.046385 155.626368 
L 191.442949 156.08794 
L 193.839513 151.907491 
L 196.236077 160.387516 
L 198.632641 153.167841 
L 201.029205 153.751908 
L 203.42577 156.461451 
L 205.822334 153.023869 
L 208.218898 157.60435 
L 210.615462 157.725944 
L 213.012026 156.49846 
L 215.40859 152.063241 
L 217.805154 151.427115 
L 220.201718 153.502042 
L 222.598282 152.905781 
L 224.994846 152.998806 
L 227.39141 153.233012 
L 229.787974 152.277106 
L 232.184538 154.354949 
L 234.581102 151.829414 
L 236.977666 153.083035 
L 239.37423 151.334048 
L 241.770795 154.412745 
L 244.167359 156.377061 
L 246.563923 154.809269 
L 248.960487 154.953063 
L 251.357051 153.357132 
L 253.753615 154.330531 
L 256.150179 152.730968 
L 258.546743 154.532456 
L 260.943307 154.657637 
L 263.339871 153.567877 
L 265.736435 153.106734 
L 268.132999 153.188509 
L 270.529563 159.23527 
L 272.926127 153.439289 
L 275.322691 152.839948 
L 277.719256 151.737794 
L 280.11582 153.986423 
L 282.512384 151.032012 
L 284.908948 153.328555 
L 287.305512 151.787785 
L 289.702076 151.940412 
L 292.09864 151.376078 
L 296.891768 153.103402 
L 299.288332 154.232833 
L 301.684896 153.183968 
L 304.08146 151.693802 
L 306.478024 152.102169 
L 308.874588 148.680098 
L 311.271152 151.504985 
L 313.667717 151.426313 
L 316.064281 151.602859 
L 320.857409 154.924364 
L 323.253973 152.984802 
L 325.650537 151.674915 
L 328.047101 155.099067 
L 330.443665 151.887722 
L 332.840229 152.440928 
L 335.236793 154.220205 
L 337.633357 149.966368 
L 340.029921 152.237075 
L 342.426485 152.128839 
L 344.823049 151.295548 
L 347.219613 150.996035 
L 349.616178 155.029766 
L 352.012742 152.86354 
L 354.409306 152.508452 
L 356.80587 152.475523 
L 359.202434 151.851964 
L 361.598998 152.39442 
L 363.995562 152.404922 
L 366.392126 151.5704 
L 371.185254 152.31414 
L 373.581818 151.212751 
L 373.581818 151.212751 
" clip-path="url(#p5405e47ed7)" style="fill: none; stroke: #ff7f0e; stroke-width: 1.5; stroke-linecap: square"/>
   </g>
   <g id="line2d_77">
    <path d="M 69.218182 180.170363 
L 71.614746 128.578421 
L 74.01131 121.724167 
L 76.407874 117.395679 
L 78.804438 112.452699 
L 81.201002 111.341528 
L 83.597566 108.582419 
L 85.99413 106.265757 
L 88.390694 105.213741 
L 90.787258 101.713595 
L 93.183822 101.902899 
L 95.580387 100.731332 
L 97.976951 99.715338 
L 100.373515 98.567195 
L 102.770079 96.090312 
L 105.166643 96.451516 
L 107.563207 94.712141 
L 109.959771 94.600122 
L 112.356335 93.142896 
L 114.752899 92.781801 
L 117.149463 92.570239 
L 119.546027 93.130199 
L 121.942591 92.863205 
L 124.339155 92.101689 
L 126.735719 90.301408 
L 129.132283 90.436986 
L 133.925412 88.561943 
L 136.321976 88.691674 
L 138.71854 88.459104 
L 141.115104 87.709851 
L 143.511668 86.013692 
L 145.908232 85.422578 
L 148.304796 85.669765 
L 150.70136 85.031472 
L 153.097924 84.873761 
L 155.494488 84.141534 
L 157.891052 84.901363 
L 160.287616 83.033235 
L 165.080744 82.946427 
L 167.477309 83.377251 
L 169.873873 83.098507 
L 172.270437 81.719638 
L 174.667001 81.248852 
L 177.063565 81.25184 
L 179.460129 79.44422 
L 181.856693 79.613516 
L 184.253257 79.103788 
L 186.649821 79.55837 
L 189.046385 78.626691 
L 191.442949 79.947184 
L 193.839513 80.09044 
L 196.236077 78.947838 
L 198.632641 79.997746 
L 201.029205 78.448502 
L 203.42577 77.840823 
L 205.822334 78.258632 
L 208.218898 76.163703 
L 210.615462 77.050061 
L 213.012026 75.944366 
L 215.40859 76.89101 
L 217.805154 75.380201 
L 220.201718 76.077027 
L 222.598282 75.762816 
L 224.994846 74.974503 
L 227.39141 74.937761 
L 229.787974 74.410696 
L 232.184538 74.641966 
L 234.581102 74.098618 
L 241.770795 75.170024 
L 244.167359 75.949119 
L 246.563923 74.18703 
L 248.960487 72.988534 
L 251.357051 72.749592 
L 253.753615 72.679529 
L 256.150179 73.443124 
L 258.546743 73.409349 
L 260.943307 72.822633 
L 263.339871 71.771724 
L 265.736435 72.614101 
L 268.132999 72.893196 
L 270.529563 71.857196 
L 272.926127 71.635578 
L 275.322691 72.310503 
L 277.719256 73.145892 
L 280.11582 71.873147 
L 282.512384 73.468196 
L 284.908948 71.280314 
L 287.305512 69.402054 
L 289.702076 70.508868 
L 292.09864 70.761636 
L 294.495204 70.819312 
L 296.891768 71.193888 
L 299.288332 69.140474 
L 301.684896 69.913473 
L 304.08146 69.83347 
L 306.478024 68.122252 
L 308.874588 69.791497 
L 311.271152 69.285206 
L 316.064281 68.646693 
L 318.460845 68.828018 
L 320.857409 68.017162 
L 323.253973 68.612286 
L 325.650537 68.066839 
L 328.047101 67.998491 
L 332.840229 67.168889 
L 335.236793 67.33366 
L 337.633357 67.073363 
L 340.029921 67.196375 
L 342.426485 67.875624 
L 344.823049 66.229016 
L 347.219613 67.351455 
L 349.616178 66.818112 
L 352.012742 67.215797 
L 354.409306 66.154522 
L 356.80587 66.173336 
L 361.598998 65.872912 
L 363.995562 65.626342 
L 366.392126 65.816256 
L 368.78869 65.786939 
L 371.185254 66.248571 
L 373.581818 65.3614 
L 373.581818 65.3614 
" clip-path="url(#p5405e47ed7)" style="fill: none; stroke: #2ca02c; stroke-width: 1.5; stroke-linecap: square"/>
   </g>
   <g id="patch_3">
    <path d="M 54 252 
L 54 34.56 
" style="fill: none; stroke: #000000; stroke-width: 0.8; stroke-linejoin: miter; stroke-linecap: square"/>
   </g>
   <g id="patch_4">
    <path d="M 388.8 252 
L 388.8 34.56 
" style="fill: none; stroke: #000000; stroke-width: 0.8; stroke-linejoin: miter; stroke-linecap: square"/>
   </g>
   <g id="patch_5">
    <path d="M 54 252 
L 388.8 252 
" style="fill: none; stroke: #000000; stroke-width: 0.8; stroke-linejoin: miter; stroke-linecap: square"/>
   </g>
   <g id="patch_6">
    <path d="M 54 34.56 
L 388.8 34.56 
" style="fill: none; stroke: #000000; stroke-width: 0.8; stroke-linejoin: miter; stroke-linecap: square"/>
   </g>
   <g id="text_25">
    <!-- Median NEPS vs. Program Size (100 f.c., nicolau_a) -->
    <g transform="translate(69.21375 28.56)scale(0.12 -0.12)">
     <defs>
      <path id="DejaVuSans-76" d="M 191 3500 
L 800 3500 
L 1894 563 
L 2988 3500 
L 3597 3500 
L 2284 0 
L 1503 0 
L 191 3500 
z
" transform="scale(0.015625)"/>
      <path id="DejaVuSans-2e" d="M 684 794 
L 1344 794 
L 1344 0 
L 684 0 
L 684 794 
z
" transform="scale(0.015625)"/>
      <path id="DejaVuSans-28" d="M 1984 4856 
Q 1566 4138 1362 3434 
Q 1159 2731 1159 2009 
Q 1159 1288 1364 580 
Q 1569 -128 1984 -844 
L 1484 -844 
Q 1016 -109 783 600 
Q 550 1309 550 2009 
Q 550 2706 781 3412 
Q 1013 4119 1484 4856 
L 1984 4856 
z
" transform="scale(0.015625)"/>
      <path id="DejaVuSans-66" d="M 2375 4863 
L 2375 4384 
L 1825 4384 
Q 1516 4384 1395 4259 
Q 1275 4134 1275 3809 
L 1275 3500 
L 2222 3500 
L 2222 3053 
L 1275 3053 
L 1275 0 
L 697 0 
L 697 3053 
L 147 3053 
L 147 3500 
L 697 3500 
L 697 3744 
Q 697 4328 969 4595 
Q 1241 4863 1831 4863 
L 2375 4863 
z
" transform="scale(0.015625)"/>
      <path id="DejaVuSans-63" d="M 3122 3366 
L 3122 2828 
Q 2878 2963 2633 3030 
Q 2388 3097 2138 3097 
Q 1578 3097 1268 2742 
Q 959 2388 959 1747 
Q 959 1106 1268 751 
Q 1578 397 2138 397 
Q 2388 397 2633 464 
Q 2878 531 3122 666 
L 3122 134 
Q 2881 22 2623 -34 
Q 2366 -91 2075 -91 
Q 1284 -91 818 406 
Q 353 903 353 1747 
Q 353 2603 823 3093 
Q 1294 3584 2113 3584 
Q 2378 3584 2631 3529 
Q 2884 3475 3122 3366 
z
" transform="scale(0.015625)"/>
      <path id="DejaVuSans-2c" d="M 750 794 
L 1409 794 
L 1409 256 
L 897 -744 
L 494 -744 
L 750 256 
L 750 794 
z
" transform="scale(0.015625)"/>
      <path id="DejaVuSans-6c" d="M 603 4863 
L 1178 4863 
L 1178 0 
L 603 0 
L 603 4863 
z
" transform="scale(0.015625)"/>
      <path id="DejaVuSans-75" d="M 544 1381 
L 544 3500 
L 1119 3500 
L 1119 1403 
Q 1119 906 1312 657 
Q 1506 409 1894 409 
Q 2359 409 2629 706 
Q 2900 1003 2900 1516 
L 2900 3500 
L 3475 3500 
L 3475 0 
L 2900 0 
L 2900 538 
Q 2691 219 2414 64 
Q 2138 -91 1772 -91 
Q 1169 -91 856 284 
Q 544 659 544 1381 
z
M 1991 3584 
L 1991 3584 
z
" transform="scale(0.015625)"/>
      <path id="DejaVuSans-5f" d="M 3263 -1063 
L 3263 -1509 
L -63 -1509 
L -63 -1063 
L 3263 -1063 
z
" transform="scale(0.015625)"/>
      <path id="DejaVuSans-29" d="M 513 4856 
L 1013 4856 
Q 1481 4119 1714 3412 
Q 1947 2706 1947 2009 
Q 1947 1309 1714 600 
Q 1481 -109 1013 -844 
L 513 -844 
Q 928 -128 1133 580 
Q 1338 1288 1338 2009 
Q 1338 2731 1133 3434 
Q 928 4138 513 4856 
z
" transform="scale(0.015625)"/>
     </defs>
     <use xlink:href="#DejaVuSans-4d"/>
     <use xlink:href="#DejaVuSans-65" x="86.279297"/>
     <use xlink:href="#DejaVuSans-64" x="147.802734"/>
     <use xlink:href="#DejaVuSans-69" x="211.279297"/>
     <use xlink:href="#DejaVuSans-61" x="239.0625"/>
     <use xlink:href="#DejaVuSans-6e" x="300.341797"/>
     <use xlink:href="#DejaVuSans-20" x="363.720703"/>
     <use xlink:href="#DejaVuSans-4e" x="395.507812"/>
     <use xlink:href="#DejaVuSans-45" x="470.3125"/>
     <use xlink:href="#DejaVuSans-50" x="533.496094"/>
     <use xlink:href="#DejaVuSans-53" x="593.798828"/>
     <use xlink:href="#DejaVuSans-20" x="657.275391"/>
     <use xlink:href="#DejaVuSans-76" x="689.0625"/>
     <use xlink:href="#DejaVuSans-73" x="748.242188"/>
     <use xlink:href="#DejaVuSans-2e" x="800.341797"/>
     <use xlink:href="#DejaVuSans-20" x="832.128906"/>
     <use xlink:href="#DejaVuSans-50" x="863.916016"/>
     <use xlink:href="#DejaVuSans-72" x="922.46875"/>
     <use xlink:href="#DejaVuSans-6f" x="961.332031"/>
     <use xlink:href="#DejaVuSans-67" x="1022.513672"/>
     <use xlink:href="#DejaVuSans-72" x="1085.990234"/>
     <use xlink:href="#DejaVuSans-61" x="1127.103516"/>
     <use xlink:href="#DejaVuSans-6d" x="1188.382812"/>
     <use xlink:href="#DejaVuSans-20" x="1285.794922"/>
     <use xlink:href="#DejaVuSans-53" x="1317.582031"/>
     <use xlink:href="#DejaVuSans-69" x="1381.058594"/>
     <use xlink:href="#DejaVuSans-7a" x="1408.841797"/>
     <use xlink:href="#DejaVuSans-65" x="1461.332031"/>
     <use xlink:href="#DejaVuSans-20" x="1522.855469"/>
     <use xlink:href="#DejaVuSans-28" x="1554.642578"/>
     <use xlink:href="#DejaVuSans-31" x="1593.65625"/>
     <use xlink:href="#DejaVuSans-30" x="1657.279297"/>
     <use xlink:href="#DejaVuSans-30" x="1720.902344"/>
     <use xlink:href="#DejaVuSans-20" x="1784.525391"/>
     <use xlink:href="#DejaVuSans-66" x="1816.3125"/>
     <use xlink:href="#DejaVuSans-2e" x="1844.267578"/>
     <use xlink:href="#DejaVuSans-63" x="1876.054688"/>
     <use xlink:href="#DejaVuSans-2e" x="1931.035156"/>
     <use xlink:href="#DejaVuSans-2c" x="1962.822266"/>
     <use xlink:href="#DejaVuSans-20" x="1994.609375"/>
     <use xlink:href="#DejaVuSans-6e" x="2026.396484"/>
     <use xlink:href="#DejaVuSans-69" x="2089.775391"/>
     <use xlink:href="#DejaVuSans-63" x="2117.558594"/>
     <use xlink:href="#DejaVuSans-6f" x="2172.539062"/>
     <use xlink:href="#DejaVuSans-6c" x="2233.720703"/>
     <use xlink:href="#DejaVuSans-61" x="2261.503906"/>
     <use xlink:href="#DejaVuSans-75" x="2322.783203"/>
     <use xlink:href="#DejaVuSans-5f" x="2386.162109"/>
     <use xlink:href="#DejaVuSans-61" x="2436.162109"/>
     <use xlink:href="#DejaVuSans-29" x="2497.441406"/>
    </g>
   </g>
   <g id="legend_1">
    <g id="patch_7">
     <path d="M 61 86.594375 
L 170.428125 86.594375 
Q 172.428125 86.594375 172.428125 84.594375 
L 172.428125 41.56 
Q 172.428125 39.56 170.428125 39.56 
L 61 39.56 
Q 59 39.56 59 41.56 
L 59 84.594375 
Q 59 86.594375 61 86.594375 
z
" style="fill: #ffffff; opacity: 0.8; stroke: #cccccc; stroke-linejoin: miter"/>
    </g>
    <g id="line2d_78">
     <path d="M 63 47.658438 
L 73 47.658438 
L 83 47.658438 
" style="fill: none; stroke: #1f77b4; stroke-width: 1.5; stroke-linecap: square"/>
    </g>
    <g id="text_26">
     <!-- DEAP -->
     <g transform="translate(91 51.158438)scale(0.1 -0.1)">
      <defs>
       <path id="DejaVuSans-44" d="M 1259 4147 
L 1259 519 
L 2022 519 
Q 2988 519 3436 956 
Q 3884 1394 3884 2338 
Q 3884 3275 3436 3711 
Q 2988 4147 2022 4147 
L 1259 4147 
z
M 628 4666 
L 1925 4666 
Q 3281 4666 3915 4102 
Q 4550 3538 4550 2338 
Q 4550 1131 3912 565 
Q 3275 0 1925 0 
L 628 0 
L 628 4666 
z
" transform="scale(0.015625)"/>
       <path id="DejaVuSans-41" d="M 2188 4044 
L 1331 1722 
L 3047 1722 
L 2188 4044 
z
M 1831 4666 
L 2547 4666 
L 4325 0 
L 3669 0 
L 3244 1197 
L 1141 1197 
L 716 0 
L 50 0 
L 1831 4666 
z
" transform="scale(0.015625)"/>
      </defs>
      <use xlink:href="#DejaVuSans-44"/>
      <use xlink:href="#DejaVuSans-45" x="77.001953"/>
      <use xlink:href="#DejaVuSans-41" x="140.185547"/>
      <use xlink:href="#DejaVuSans-50" x="208.59375"/>
     </g>
    </g>
    <g id="line2d_79">
     <path d="M 63 62.336563 
L 73 62.336563 
L 83 62.336563 
" style="fill: none; stroke: #ff7f0e; stroke-width: 1.5; stroke-linecap: square"/>
    </g>
    <g id="text_27">
     <!-- TensorGP (CPU) -->
     <g transform="translate(91 65.836563)scale(0.1 -0.1)">
      <defs>
       <path id="DejaVuSans-54" d="M -19 4666 
L 3928 4666 
L 3928 4134 
L 2272 4134 
L 2272 0 
L 1638 0 
L 1638 4134 
L -19 4134 
L -19 4666 
z
" transform="scale(0.015625)"/>
       <path id="DejaVuSans-47" d="M 3809 666 
L 3809 1919 
L 2778 1919 
L 2778 2438 
L 4434 2438 
L 4434 434 
Q 4069 175 3628 42 
Q 3188 -91 2688 -91 
Q 1594 -91 976 548 
Q 359 1188 359 2328 
Q 359 3472 976 4111 
Q 1594 4750 2688 4750 
Q 3144 4750 3555 4637 
Q 3966 4525 4313 4306 
L 4313 3634 
Q 3963 3931 3569 4081 
Q 3175 4231 2741 4231 
Q 1884 4231 1454 3753 
Q 1025 3275 1025 2328 
Q 1025 1384 1454 906 
Q 1884 428 2741 428 
Q 3075 428 3337 486 
Q 3600 544 3809 666 
z
" transform="scale(0.015625)"/>
       <path id="DejaVuSans-43" d="M 4122 4306 
L 4122 3641 
Q 3803 3938 3442 4084 
Q 3081 4231 2675 4231 
Q 1875 4231 1450 3742 
Q 1025 3253 1025 2328 
Q 1025 1406 1450 917 
Q 1875 428 2675 428 
Q 3081 428 3442 575 
Q 3803 722 4122 1019 
L 4122 359 
Q 3791 134 3420 21 
Q 3050 -91 2638 -91 
Q 1578 -91 968 557 
Q 359 1206 359 2328 
Q 359 3453 968 4101 
Q 1578 4750 2638 4750 
Q 3056 4750 3426 4639 
Q 3797 4528 4122 4306 
z
" transform="scale(0.015625)"/>
       <path id="DejaVuSans-55" d="M 556 4666 
L 1191 4666 
L 1191 1831 
Q 1191 1081 1462 751 
Q 1734 422 2344 422 
Q 2950 422 3222 751 
Q 3494 1081 3494 1831 
L 3494 4666 
L 4128 4666 
L 4128 1753 
Q 4128 841 3676 375 
Q 3225 -91 2344 -91 
Q 1459 -91 1007 375 
Q 556 841 556 1753 
L 556 4666 
z
" transform="scale(0.015625)"/>
      </defs>
      <use xlink:href="#DejaVuSans-54"/>
      <use xlink:href="#DejaVuSans-65" x="44.083984"/>
      <use xlink:href="#DejaVuSans-6e" x="105.607422"/>
      <use xlink:href="#DejaVuSans-73" x="168.986328"/>
      <use xlink:href="#DejaVuSans-6f" x="221.085938"/>
      <use xlink:href="#DejaVuSans-72" x="282.267578"/>
      <use xlink:href="#DejaVuSans-47" x="323.380859"/>
      <use xlink:href="#DejaVuSans-50" x="400.871094"/>
      <use xlink:href="#DejaVuSans-20" x="461.173828"/>
      <use xlink:href="#DejaVuSans-28" x="492.960938"/>
      <use xlink:href="#DejaVuSans-43" x="531.974609"/>
      <use xlink:href="#DejaVuSans-50" x="601.798828"/>
      <use xlink:href="#DejaVuSans-55" x="662.101562"/>
      <use xlink:href="#DejaVuSans-29" x="735.294922"/>
     </g>
    </g>
    <g id="line2d_80">
     <path d="M 63 77.014688 
L 73 77.014688 
L 83 77.014688 
" style="fill: none; stroke: #2ca02c; stroke-width: 1.5; stroke-linecap: square"/>
    </g>
    <g id="text_28">
     <!-- Operon -->
     <g transform="translate(91 80.514688)scale(0.1 -0.1)">
      <defs>
       <path id="DejaVuSans-4f" d="M 2522 4238 
Q 1834 4238 1429 3725 
Q 1025 3213 1025 2328 
Q 1025 1447 1429 934 
Q 1834 422 2522 422 
Q 3209 422 3611 934 
Q 4013 1447 4013 2328 
Q 4013 3213 3611 3725 
Q 3209 4238 2522 4238 
z
M 2522 4750 
Q 3503 4750 4090 4092 
Q 4678 3434 4678 2328 
Q 4678 1225 4090 567 
Q 3503 -91 2522 -91 
Q 1538 -91 948 565 
Q 359 1222 359 2328 
Q 359 3434 948 4092 
Q 1538 4750 2522 4750 
z
" transform="scale(0.015625)"/>
       <path id="DejaVuSans-70" d="M 1159 525 
L 1159 -1331 
L 581 -1331 
L 581 3500 
L 1159 3500 
L 1159 2969 
Q 1341 3281 1617 3432 
Q 1894 3584 2278 3584 
Q 2916 3584 3314 3078 
Q 3713 2572 3713 1747 
Q 3713 922 3314 415 
Q 2916 -91 2278 -91 
Q 1894 -91 1617 61 
Q 1341 213 1159 525 
z
M 3116 1747 
Q 3116 2381 2855 2742 
Q 2594 3103 2138 3103 
Q 1681 3103 1420 2742 
Q 1159 2381 1159 1747 
Q 1159 1113 1420 752 
Q 1681 391 2138 391 
Q 2594 391 2855 752 
Q 3116 1113 3116 1747 
z
" transform="scale(0.015625)"/>
      </defs>
      <use xlink:href="#DejaVuSans-4f"/>
      <use xlink:href="#DejaVuSans-70" x="78.710938"/>
      <use xlink:href="#DejaVuSans-65" x="142.1875"/>
      <use xlink:href="#DejaVuSans-72" x="203.710938"/>
      <use xlink:href="#DejaVuSans-6f" x="242.574219"/>
      <use xlink:href="#DejaVuSans-6e" x="303.755859"/>
     </g>
    </g>
   </g>
  </g>
 </g>
 <defs>
  <clipPath id="p5405e47ed7">
   <rect x="54" y="34.56" width="334.8" height="217.44"/>
  </clipPath>
 </defs>
</svg>
