<?xml version="1.0" encoding="utf-8" standalone="no"?>
<!DOCTYPE svg PUBLIC "-//W3C//DTD SVG 1.1//EN"
  "http://www.w3.org/Graphics/SVG/1.1/DTD/svg11.dtd">
<svg xmlns:xlink="http://www.w3.org/1999/xlink" width="432pt" height="288pt" viewBox="0 0 432 288" xmlns="http://www.w3.org/2000/svg" version="1.1">
 <metadata>
  <rdf:RDF xmlns:dc="http://purl.org/dc/elements/1.1/" xmlns:cc="http://creativecommons.org/ns#" xmlns:rdf="http://www.w3.org/1999/02/22-rdf-syntax-ns#">
   <cc:Work>
    <dc:type rdf:resource="http://purl.org/dc/dcmitype/StillImage"/>
    <dc:date>2022-01-12T03:40:07.314115</dc:date>
    <dc:format>image/svg+xml</dc:format>
    <dc:creator>
     <cc:Agent>
      <dc:title>Matplotlib v3.5.1, https://matplotlib.org/</dc:title>
     </cc:Agent>
    </dc:creator>
   </cc:Work>
  </rdf:RDF>
 </metadata>
 <defs>
  <style type="text/css">*{stroke-linejoin: round; stroke-linecap: butt}</style>
 </defs>
 <g id="figure_1">
  <g id="patch_1">
   <path d="M 0 288 
L 432 288 
L 432 0 
L 0 0 
L 0 288 
z
" style="fill: none"/>
  </g>
  <g id="axes_1">
   <g id="patch_2">
    <path d="M 54 252 
L 388.8 252 
L 388.8 34.56 
L 54 34.56 
z
" style="fill: #ffffff"/>
   </g>
   <g id="PolyCollection_1">
    <path d="M 69.218182 240.157177 
L 69.218182 242.116364 
L 71.614746 221.426827 
L 74.01131 216.968681 
L 76.407874 197.435833 
L 78.804438 194.087828 
L 81.201002 189.766162 
L 83.597566 186.210573 
L 85.99413 184.497098 
L 88.390694 182.539146 
L 90.787258 179.851597 
L 93.183822 179.018578 
L 95.580387 176.947234 
L 97.976951 174.920963 
L 100.373515 175.513348 
L 102.770079 173.604623 
L 105.166643 172.337996 
L 107.563207 170.307522 
L 109.959771 170.17853 
L 112.356335 168.465395 
L 114.752899 167.912501 
L 117.149463 166.46527 
L 119.546027 166.04553 
L 121.942591 165.12748 
L 124.339155 165.036782 
L 126.735719 164.88784 
L 129.132283 163.397274 
L 131.528848 164.344596 
L 133.925412 161.88291 
L 136.321976 161.255878 
L 138.71854 162.593934 
L 141.115104 162.850546 
L 143.511668 162.220756 
L 145.908232 161.681729 
L 148.304796 161.503651 
L 150.70136 160.379026 
L 153.097924 161.364202 
L 155.494488 159.817033 
L 157.891052 161.63426 
L 160.287616 161.578568 
L 162.68418 158.92091 
L 165.080744 158.476682 
L 167.477309 158.247135 
L 169.873873 158.213551 
L 172.270437 157.768195 
L 174.667001 157.726908 
L 177.063565 156.713251 
L 179.460129 156.144163 
L 181.856693 156.685409 
L 184.253257 155.095569 
L 186.649821 154.423266 
L 189.046385 153.760509 
L 191.442949 154.95803 
L 193.839513 155.521287 
L 196.236077 165.057911 
L 198.632641 154.122706 
L 201.029205 154.66562 
L 203.42577 155.501848 
L 205.822334 153.282546 
L 208.218898 153.287336 
L 210.615462 152.258981 
L 213.012026 151.488018 
L 215.40859 152.958017 
L 217.805154 152.696403 
L 220.201718 152.884026 
L 222.598282 152.362767 
L 224.994846 151.702204 
L 227.39141 151.929893 
L 229.787974 149.961304 
L 232.184538 150.614134 
L 234.581102 150.856781 
L 236.977666 150.593166 
L 239.37423 149.469232 
L 241.770795 149.536879 
L 244.167359 149.600973 
L 246.563923 149.769396 
L 248.960487 148.981936 
L 251.357051 149.597832 
L 253.753615 149.072229 
L 256.150179 148.363382 
L 258.546743 148.535131 
L 260.943307 148.911032 
L 263.339871 149.10349 
L 265.736435 147.707263 
L 268.132999 151.729328 
L 270.529563 149.718663 
L 272.926127 148.030224 
L 275.322691 147.641556 
L 277.719256 147.212622 
L 280.11582 148.74015 
L 282.512384 146.764925 
L 284.908948 147.680302 
L 287.305512 147.134068 
L 289.702076 146.961012 
L 292.09864 146.865515 
L 294.495204 146.712544 
L 296.891768 147.288001 
L 299.288332 146.893118 
L 301.684896 146.351185 
L 304.08146 145.501957 
L 306.478024 146.971664 
L 308.874588 144.430784 
L 311.271152 146.291502 
L 313.667717 145.843065 
L 316.064281 146.029976 
L 318.460845 147.034655 
L 320.857409 146.228955 
L 323.253973 145.363708 
L 325.650537 145.263616 
L 328.047101 147.121239 
L 330.443665 144.722951 
L 332.840229 146.536142 
L 335.236793 145.035817 
L 337.633357 144.746071 
L 340.029921 144.804858 
L 342.426485 146.693263 
L 344.823049 148.883909 
L 347.219613 146.215945 
L 349.616178 146.444494 
L 352.012742 146.186126 
L 354.409306 145.232266 
L 356.80587 145.115555 
L 359.202434 145.584733 
L 361.598998 144.52565 
L 363.995562 144.835638 
L 366.392126 144.933072 
L 368.78869 145.232165 
L 371.185254 143.88911 
L 373.581818 144.575706 
L 373.581818 144.449694 
L 373.581818 144.449694 
L 371.185254 143.680816 
L 368.78869 144.783029 
L 366.392126 144.77343 
L 363.995562 144.701568 
L 361.598998 144.311991 
L 359.202434 145.291906 
L 356.80587 144.546866 
L 354.409306 145.042961 
L 352.012742 145.464384 
L 349.616178 143.871412 
L 347.219613 145.654489 
L 344.823049 146.504995 
L 342.426485 146.092399 
L 340.029921 144.652959 
L 337.633357 144.282325 
L 335.236793 144.933321 
L 332.840229 146.265868 
L 330.443665 144.182837 
L 328.047101 146.421982 
L 325.650537 145.095478 
L 323.253973 144.960141 
L 320.857409 146.095311 
L 318.460845 146.514592 
L 316.064281 145.431324 
L 313.667717 145.676896 
L 311.271152 145.90067 
L 308.874588 144.119319 
L 306.478024 146.481695 
L 304.08146 144.961544 
L 301.684896 145.732235 
L 299.288332 146.308832 
L 296.891768 146.080747 
L 294.495204 146.350402 
L 292.09864 146.592323 
L 289.702076 146.878666 
L 287.305512 147.059445 
L 284.908948 147.551411 
L 282.512384 146.429709 
L 280.11582 148.394924 
L 277.719256 146.651195 
L 275.322691 147.512963 
L 272.926127 147.880127 
L 270.529563 149.548652 
L 268.132999 149.006873 
L 265.736435 147.298537 
L 263.339871 148.771573 
L 260.943307 148.255029 
L 258.546743 147.96704 
L 256.150179 148.242932 
L 253.753615 148.313682 
L 251.357051 149.070913 
L 248.960487 148.830403 
L 246.563923 149.174837 
L 244.167359 149.352515 
L 241.770795 148.922325 
L 239.37423 149.018701 
L 236.977666 150.458384 
L 234.581102 150.378285 
L 232.184538 149.505531 
L 229.787974 149.754464 
L 227.39141 151.582798 
L 224.994846 151.628555 
L 222.598282 152.166267 
L 220.201718 152.331966 
L 217.805154 151.936597 
L 215.40859 151.754396 
L 213.012026 151.182737 
L 210.615462 151.985202 
L 208.218898 152.51561 
L 205.822334 152.240224 
L 203.42577 154.350765 
L 201.029205 153.62439 
L 198.632641 153.314742 
L 196.236077 159.232671 
L 193.839513 154.932681 
L 191.442949 154.828505 
L 189.046385 153.581736 
L 186.649821 153.95196 
L 184.253257 154.411718 
L 181.856693 155.645833 
L 179.460129 153.814551 
L 177.063565 155.223763 
L 174.667001 155.617558 
L 172.270437 156.827888 
L 169.873873 156.665652 
L 167.477309 157.320405 
L 165.080744 158.221615 
L 162.68418 157.343136 
L 160.287616 160.784666 
L 157.891052 159.929652 
L 155.494488 159.182914 
L 153.097924 159.706766 
L 150.70136 158.614932 
L 148.304796 160.383546 
L 145.908232 161.310333 
L 143.511668 161.321491 
L 141.115104 161.790687 
L 138.71854 161.760105 
L 136.321976 160.959561 
L 133.925412 161.541666 
L 131.528848 164.022228 
L 129.132283 162.893675 
L 126.735719 163.501931 
L 124.339155 164.88835 
L 121.942591 164.917781 
L 119.546027 165.296155 
L 117.149463 165.462123 
L 114.752899 166.293909 
L 112.356335 168.327256 
L 109.959771 169.321199 
L 107.563207 168.69541 
L 105.166643 171.774599 
L 102.770079 172.262118 
L 100.373515 174.058598 
L 97.976951 173.410901 
L 95.580387 175.553189 
L 93.183822 177.649184 
L 90.787258 179.807226 
L 88.390694 182.09337 
L 85.99413 183.520831 
L 83.597566 185.482333 
L 81.201002 189.009946 
L 78.804438 192.694037 
L 76.407874 197.165607 
L 74.01131 207.347991 
L 71.614746 221.044847 
L 69.218182 240.157177 
z
" clip-path="url(#p1c0386de7f)" style="fill: #1f77b4"/>
   </g>
   <g id="PolyCollection_2">
    <path d="M 69.218182 202.154587 
L 69.218182 208.005244 
L 71.614746 185.722881 
L 74.01131 179.914169 
L 76.407874 174.027249 
L 78.804438 169.34486 
L 81.201002 170.374787 
L 83.597566 161.212265 
L 85.99413 162.835696 
L 88.390694 169.540423 
L 90.787258 166.225373 
L 93.183822 161.602394 
L 95.580387 161.59026 
L 97.976951 157.411173 
L 100.373515 162.065768 
L 102.770079 158.880209 
L 105.166643 159.888837 
L 107.563207 157.067618 
L 109.959771 160.897149 
L 112.356335 162.415097 
L 114.752899 154.38125 
L 117.149463 154.426068 
L 119.546027 156.03995 
L 121.942591 157.783584 
L 124.339155 157.513116 
L 126.735719 155.895449 
L 129.132283 156.703268 
L 131.528848 158.094981 
L 133.925412 153.191573 
L 136.321976 153.960477 
L 138.71854 153.568408 
L 141.115104 158.190337 
L 143.511668 154.235181 
L 145.908232 154.470054 
L 148.304796 153.778304 
L 150.70136 155.282154 
L 153.097924 153.964511 
L 155.494488 153.374599 
L 157.891052 156.295233 
L 160.287616 156.75545 
L 162.68418 155.154526 
L 165.080744 150.909879 
L 167.477309 154.674729 
L 169.873873 153.274145 
L 172.270437 155.074612 
L 174.667001 155.059029 
L 177.063565 154.743116 
L 179.460129 154.373489 
L 181.856693 156.296994 
L 184.253257 155.700851 
L 186.649821 154.0177 
L 189.046385 154.972277 
L 191.442949 156.533545 
L 193.839513 152.827738 
L 196.236077 156.08289 
L 198.632641 154.192166 
L 201.029205 155.338238 
L 203.42577 157.94055 
L 205.822334 155.027244 
L 208.218898 168.840402 
L 210.615462 162.98574 
L 213.012026 155.363314 
L 215.40859 153.622694 
L 217.805154 153.708343 
L 220.201718 154.514229 
L 222.598282 155.69562 
L 224.994846 155.952215 
L 227.39141 155.425557 
L 229.787974 154.524012 
L 232.184538 154.861298 
L 234.581102 153.592698 
L 236.977666 154.984082 
L 239.37423 153.528034 
L 241.770795 155.302428 
L 244.167359 155.549693 
L 246.563923 154.660789 
L 248.960487 155.499384 
L 251.357051 154.661984 
L 253.753615 155.341397 
L 256.150179 153.728647 
L 258.546743 155.13946 
L 260.943307 152.6667 
L 263.339871 155.729283 
L 265.736435 154.287119 
L 268.132999 155.343131 
L 270.529563 157.092704 
L 272.926127 154.592886 
L 275.322691 153.231524 
L 277.719256 152.972895 
L 280.11582 156.089442 
L 282.512384 152.895234 
L 284.908948 154.285902 
L 287.305512 153.174105 
L 289.702076 152.934356 
L 292.09864 152.571398 
L 294.495204 153.873194 
L 296.891768 153.218039 
L 299.288332 153.737823 
L 301.684896 154.973236 
L 304.08146 152.02638 
L 306.478024 153.800437 
L 308.874588 149.696941 
L 311.271152 152.908719 
L 313.667717 152.341706 
L 316.064281 153.337605 
L 318.460845 155.182687 
L 320.857409 153.28639 
L 323.253973 153.43835 
L 325.650537 152.80411 
L 328.047101 156.073406 
L 330.443665 151.665361 
L 332.840229 153.860419 
L 335.236793 152.361318 
L 337.633357 150.793523 
L 340.029921 151.548756 
L 342.426485 153.616258 
L 344.823049 152.695948 
L 347.219613 152.670934 
L 349.616178 152.325886 
L 352.012742 155.536983 
L 354.409306 152.276304 
L 356.80587 154.346645 
L 359.202434 152.730536 
L 361.598998 152.681186 
L 363.995562 154.343277 
L 366.392126 152.361154 
L 368.78869 153.055321 
L 371.185254 152.638219 
L 373.581818 153.263969 
L 373.581818 153.081737 
L 373.581818 153.081737 
L 371.185254 152.322906 
L 368.78869 152.846297 
L 366.392126 152.276852 
L 363.995562 153.97608 
L 361.598998 152.656689 
L 359.202434 152.631469 
L 356.80587 153.972598 
L 354.409306 152.021074 
L 352.012742 154.8542 
L 349.616178 151.888851 
L 347.219613 152.512372 
L 344.823049 152.366634 
L 342.426485 153.354641 
L 340.029921 151.189372 
L 337.633357 150.653469 
L 335.236793 151.752497 
L 332.840229 153.694021 
L 330.443665 151.330686 
L 328.047101 155.901978 
L 325.650537 152.416862 
L 323.253973 153.269986 
L 320.857409 152.90701 
L 318.460845 155.095127 
L 316.064281 153.288165 
L 313.667717 151.675766 
L 311.271152 152.847012 
L 308.874588 149.245559 
L 306.478024 153.458613 
L 304.08146 151.735281 
L 301.684896 154.81862 
L 299.288332 153.199693 
L 296.891768 153.205019 
L 294.495204 153.505359 
L 292.09864 152.380258 
L 289.702076 151.805491 
L 287.305512 152.931555 
L 284.908948 153.770977 
L 282.512384 152.508869 
L 280.11582 155.491708 
L 277.719256 152.747448 
L 275.322691 153.00337 
L 272.926127 154.066487 
L 270.529563 156.872856 
L 268.132999 154.471343 
L 265.736435 153.842432 
L 263.339871 155.595353 
L 260.943307 152.237229 
L 258.546743 154.940415 
L 256.150179 153.567976 
L 253.753615 154.866065 
L 251.357051 154.249763 
L 248.960487 155.352121 
L 246.563923 153.824661 
L 244.167359 155.320331 
L 241.770795 154.865149 
L 239.37423 152.660549 
L 236.977666 154.167693 
L 234.581102 152.994153 
L 232.184538 154.681382 
L 229.787974 154.067476 
L 227.39141 155.295736 
L 224.994846 154.540258 
L 222.598282 154.855684 
L 220.201718 153.821559 
L 217.805154 153.290091 
L 215.40859 153.358116 
L 213.012026 155.055242 
L 210.615462 155.645972 
L 208.218898 160.113269 
L 205.822334 154.290708 
L 203.42577 157.579735 
L 201.029205 155.124283 
L 198.632641 153.63191 
L 196.236077 155.434513 
L 193.839513 152.407715 
L 191.442949 156.261854 
L 189.046385 154.532248 
L 186.649821 153.155371 
L 184.253257 155.234939 
L 181.856693 156.132305 
L 179.460129 154.25785 
L 177.063565 154.350914 
L 174.667001 154.621762 
L 172.270437 154.878227 
L 169.873873 153.056536 
L 167.477309 154.415683 
L 165.080744 149.982804 
L 162.68418 154.982439 
L 160.287616 156.386775 
L 157.891052 155.759317 
L 155.494488 153.028507 
L 153.097924 153.568197 
L 150.70136 154.832388 
L 148.304796 153.287416 
L 145.908232 154.009102 
L 143.511668 153.735099 
L 141.115104 157.655492 
L 138.71854 153.059822 
L 136.321976 152.713521 
L 133.925412 152.473549 
L 131.528848 156.982949 
L 129.132283 156.105388 
L 126.735719 155.733378 
L 124.339155 156.981425 
L 121.942591 156.974077 
L 119.546027 155.308074 
L 117.149463 154.162262 
L 114.752899 153.664044 
L 112.356335 162.210825 
L 109.959771 160.499606 
L 107.563207 156.732014 
L 105.166643 159.842869 
L 102.770079 158.555863 
L 100.373515 161.941475 
L 97.976951 157.045711 
L 95.580387 161.130347 
L 93.183822 161.209255 
L 90.787258 165.115443 
L 88.390694 168.257781 
L 85.99413 160.95738 
L 83.597566 159.944525 
L 81.201002 169.833284 
L 78.804438 168.721053 
L 76.407874 173.434581 
L 74.01131 178.866 
L 71.614746 184.072142 
L 69.218182 202.154587 
z
" clip-path="url(#p1c0386de7f)" style="fill: #ff7f0e"/>
   </g>
   <g id="PolyCollection_3">
    <path d="M 69.218182 203.02804 
L 69.218182 204.056698 
L 71.614746 186.579514 
L 74.01131 181.33965 
L 76.407874 176.281643 
L 78.804438 171.60511 
L 81.201002 172.73777 
L 83.597566 164.048244 
L 85.99413 165.900579 
L 88.390694 173.837533 
L 90.787258 170.057824 
L 93.183822 164.250131 
L 95.580387 161.112993 
L 97.976951 157.628809 
L 100.373515 162.551694 
L 102.770079 159.386192 
L 105.166643 160.195897 
L 107.563207 157.261557 
L 109.959771 161.273665 
L 112.356335 162.811826 
L 114.752899 153.865673 
L 117.149463 154.23562 
L 119.546027 156.215845 
L 121.942591 157.441937 
L 124.339155 157.925169 
L 126.735719 156.097062 
L 129.132283 156.971564 
L 131.528848 158.045764 
L 133.925412 153.14631 
L 136.321976 153.36563 
L 138.71854 154.110569 
L 141.115104 158.440199 
L 143.511668 154.426526 
L 145.908232 154.807538 
L 148.304796 154.176831 
L 150.70136 156.21914 
L 153.097924 153.729463 
L 155.494488 152.997416 
L 157.891052 156.85738 
L 160.287616 157.502347 
L 162.68418 154.830863 
L 165.080744 150.691761 
L 167.477309 154.885283 
L 169.873873 153.999934 
L 172.270437 155.247299 
L 174.667001 155.050383 
L 177.063565 155.368972 
L 179.460129 154.810423 
L 181.856693 156.435692 
L 184.253257 155.94064 
L 186.649821 154.710507 
L 189.046385 155.242278 
L 191.442949 157.13758 
L 193.839513 153.368358 
L 196.236077 155.798354 
L 198.632641 154.033175 
L 201.029205 155.413763 
L 203.42577 157.547013 
L 205.822334 155.326095 
L 208.218898 157.482116 
L 210.615462 154.550894 
L 213.012026 155.890788 
L 215.40859 153.519097 
L 217.805154 156.68922 
L 220.201718 157.980776 
L 222.598282 155.124387 
L 224.994846 155.033615 
L 227.39141 155.384411 
L 229.787974 154.140518 
L 232.184538 154.931099 
L 234.581102 153.521554 
L 236.977666 154.762069 
L 239.37423 153.34989 
L 241.770795 155.039376 
L 244.167359 155.334478 
L 246.563923 154.470117 
L 248.960487 155.002949 
L 251.357051 154.91743 
L 253.753615 155.653897 
L 256.150179 154.375072 
L 258.546743 155.338732 
L 260.943307 153.26728 
L 263.339871 156.105675 
L 265.736435 154.428068 
L 268.132999 154.909073 
L 270.529563 157.494549 
L 272.926127 154.075483 
L 275.322691 153.051572 
L 277.719256 153.391405 
L 280.11582 156.138243 
L 282.512384 152.97437 
L 284.908948 154.986451 
L 287.305512 153.521137 
L 289.702076 152.568929 
L 292.09864 152.962244 
L 294.495204 154.06238 
L 296.891768 154.029798 
L 299.288332 154.012943 
L 301.684896 155.324198 
L 304.08146 152.576559 
L 306.478024 153.474462 
L 308.874588 150.260782 
L 311.271152 152.816709 
L 313.667717 157.643788 
L 316.064281 158.574753 
L 318.460845 160.525851 
L 320.857409 158.935105 
L 323.253973 158.473016 
L 325.650537 158.29698 
L 328.047101 161.288171 
L 330.443665 157.182907 
L 332.840229 158.997788 
L 335.236793 157.675641 
L 337.633357 156.006177 
L 340.029921 156.929291 
L 342.426485 158.949036 
L 344.823049 158.304375 
L 347.219613 158.025954 
L 349.616178 157.661833 
L 352.012742 160.534229 
L 354.409306 157.590327 
L 356.80587 159.924269 
L 359.202434 159.285642 
L 361.598998 158.33544 
L 363.995562 159.9111 
L 366.392126 157.836107 
L 368.78869 158.204505 
L 371.185254 158.239519 
L 373.581818 158.390068 
L 373.581818 158.353522 
L 373.581818 158.353522 
L 371.185254 158.16127 
L 368.78869 158.19574 
L 366.392126 157.647848 
L 363.995562 159.89536 
L 361.598998 158.227651 
L 359.202434 158.21763 
L 356.80587 159.900464 
L 354.409306 157.347178 
L 352.012742 160.508429 
L 349.616178 157.646999 
L 347.219613 157.912947 
L 344.823049 158.180136 
L 342.426485 158.838052 
L 340.029921 156.899168 
L 337.633357 155.926123 
L 335.236793 157.671044 
L 332.840229 158.984828 
L 330.443665 157.15155 
L 328.047101 161.116414 
L 325.650537 158.114359 
L 323.253973 158.426426 
L 320.857409 158.811225 
L 318.460845 160.410933 
L 316.064281 158.446095 
L 313.667717 157.559263 
L 311.271152 152.36459 
L 308.874588 150.17409 
L 306.478024 153.325619 
L 304.08146 152.320258 
L 301.684896 154.337664 
L 299.288332 153.343367 
L 296.891768 153.986139 
L 294.495204 153.868427 
L 292.09864 152.782631 
L 289.702076 152.236046 
L 287.305512 153.087816 
L 284.908948 154.718203 
L 282.512384 152.491191 
L 280.11582 155.993511 
L 277.719256 153.221433 
L 275.322691 152.843715 
L 272.926127 153.753927 
L 270.529563 157.394616 
L 268.132999 154.808009 
L 265.736435 154.362192 
L 263.339871 155.85401 
L 260.943307 152.76405 
L 258.546743 155.24519 
L 256.150179 153.915784 
L 253.753615 155.476756 
L 251.357051 154.634215 
L 248.960487 154.806454 
L 246.563923 154.344314 
L 244.167359 155.220601 
L 241.770795 154.621324 
L 239.37423 152.501538 
L 236.977666 154.539362 
L 234.581102 153.222397 
L 232.184538 154.646661 
L 229.787974 153.990453 
L 227.39141 155.132524 
L 224.994846 154.471281 
L 222.598282 154.937425 
L 220.201718 153.704284 
L 217.805154 150.380782 
L 215.40859 153.390477 
L 213.012026 155.523164 
L 210.615462 154.279518 
L 208.218898 156.867001 
L 205.822334 154.702322 
L 203.42577 157.294627 
L 201.029205 154.962442 
L 198.632641 153.39872 
L 196.236077 155.709417 
L 193.839513 153.25395 
L 191.442949 156.961849 
L 189.046385 155.007754 
L 186.649821 153.644933 
L 184.253257 155.127355 
L 181.856693 156.009889 
L 179.460129 154.491352 
L 177.063565 155.07124 
L 174.667001 154.610786 
L 172.270437 155.188359 
L 169.873873 153.309705 
L 167.477309 154.769577 
L 165.080744 150.232344 
L 162.68418 154.629471 
L 160.287616 157.266694 
L 157.891052 156.487255 
L 155.494488 152.74031 
L 153.097924 153.475142 
L 150.70136 155.134788 
L 148.304796 154.016618 
L 145.908232 154.424728 
L 143.511668 154.072199 
L 141.115104 157.904516 
L 138.71854 153.79447 
L 136.321976 153.123314 
L 133.925412 152.719633 
L 131.528848 157.335101 
L 129.132283 156.870709 
L 126.735719 155.96492 
L 124.339155 157.288184 
L 121.942591 157.376576 
L 119.546027 155.975138 
L 117.149463 154.000697 
L 114.752899 153.530219 
L 112.356335 162.556559 
L 109.959771 161.223581 
L 107.563207 156.528399 
L 105.166643 159.799216 
L 102.770079 158.555609 
L 100.373515 162.243835 
L 97.976951 157.120081 
L 95.580387 160.234721 
L 93.183822 159.258142 
L 90.787258 168.613261 
L 88.390694 172.411416 
L 85.99413 164.441847 
L 83.597566 161.157001 
L 81.201002 172.542239 
L 78.804438 171.426548 
L 76.407874 176.14577 
L 74.01131 180.874262 
L 71.614746 186.107005 
L 69.218182 203.02804 
z
" clip-path="url(#p1c0386de7f)" style="fill: #2ca02c"/>
   </g>
   <g id="PolyCollection_4">
    <path d="M 69.218182 145.113946 
L 69.218182 151.942047 
L 71.614746 131.471457 
L 74.01131 115.648638 
L 76.407874 109.755959 
L 78.804438 104.861683 
L 81.201002 106.14437 
L 83.597566 99.379899 
L 85.99413 94.662182 
L 88.390694 98.663833 
L 90.787258 104.812631 
L 93.183822 96.470008 
L 95.580387 97.839565 
L 97.976951 86.75264 
L 100.373515 92.134361 
L 102.770079 85.468066 
L 105.166643 87.428755 
L 107.563207 95.236491 
L 109.959771 85.529534 
L 112.356335 103.221685 
L 114.752899 82.800816 
L 117.149463 78.557407 
L 119.546027 101.644991 
L 121.942591 86.396399 
L 124.339155 82.983267 
L 126.735719 77.156371 
L 129.132283 81.958489 
L 131.528848 82.285166 
L 133.925412 82.094192 
L 136.321976 80.107504 
L 138.71854 77.881555 
L 141.115104 93.634195 
L 143.511668 81.43387 
L 145.908232 75.023373 
L 148.304796 78.432487 
L 150.70136 76.2787 
L 153.097924 78.982947 
L 155.494488 75.667579 
L 157.891052 72.852505 
L 160.287616 97.502793 
L 162.68418 97.146724 
L 165.080744 75.449283 
L 167.477309 77.165515 
L 169.873873 75.104058 
L 172.270437 82.195611 
L 174.667001 80.635621 
L 177.063565 69.96326 
L 179.460129 77.124508 
L 181.856693 72.83435 
L 184.253257 84.626853 
L 186.649821 74.424113 
L 189.046385 71.829359 
L 191.442949 69.373657 
L 193.839513 80.059223 
L 196.236077 71.586088 
L 198.632641 71.45885 
L 201.029205 70.778661 
L 203.42577 79.586966 
L 205.822334 68.387641 
L 208.218898 69.959147 
L 210.615462 70.688887 
L 213.012026 74.078755 
L 215.40859 68.019095 
L 217.805154 69.003106 
L 220.201718 83.025907 
L 222.598282 72.134906 
L 224.994846 69.196743 
L 227.39141 68.175432 
L 229.787974 65.281472 
L 232.184538 67.431701 
L 234.581102 69.603171 
L 236.977666 66.545183 
L 239.37423 73.464095 
L 241.770795 75.634633 
L 244.167359 66.674909 
L 246.563923 66.864542 
L 248.960487 67.064568 
L 251.357051 66.924833 
L 253.753615 66.489038 
L 256.150179 67.61638 
L 258.546743 67.688274 
L 260.943307 65.039574 
L 263.339871 63.383923 
L 265.736435 66.635117 
L 268.132999 66.809817 
L 270.529563 65.368687 
L 272.926127 62.368479 
L 275.322691 71.973203 
L 277.719256 66.085719 
L 280.11582 66.243651 
L 282.512384 70.202215 
L 284.908948 65.86766 
L 287.305512 64.794366 
L 289.702076 64.882913 
L 292.09864 64.487754 
L 294.495204 64.644267 
L 296.891768 64.971159 
L 299.288332 69.9347 
L 301.684896 70.226595 
L 304.08146 65.632887 
L 306.478024 40987.597071 
L 308.874588 63.708624 
L 311.271152 62.292364 
L 313.667717 62.930765 
L 316.064281 80.061286 
L 318.460845 66.056111 
L 320.857409 67.948696 
L 323.253973 65.736433 
L 325.650537 65.288309 
L 328.047101 68.87177 
L 330.443665 68.269326 
L 332.840229 65.273411 
L 335.236793 58.995356 
L 337.633357 71.334188 
L 340.029921 61.474986 
L 342.426485 61.819708 
L 344.823049 67.174897 
L 347.219613 65.301156 
L 349.616178 64.693877 
L 352.012742 64.316101 
L 354.409306 59.799793 
L 356.80587 62.412943 
L 359.202434 61.294148 
L 361.598998 66.921233 
L 363.995562 62.545728 
L 366.392126 57.269242 
L 368.78869 65.236835 
L 371.185254 60.994021 
L 373.581818 68.691417 
L 373.581818 58.825733 
L 373.581818 58.825733 
L 371.185254 53.687004 
L 368.78869 57.981223 
L 366.392126 53.86428 
L 363.995562 59.326441 
L 361.598998 61.694663 
L 359.202434 59.09252 
L 356.80587 54.143721 
L 354.409306 58.718608 
L 352.012742 54.226999 
L 349.616178 60.005802 
L 347.219613 59.407963 
L 344.823049 58.13935 
L 342.426485 56.145792 
L 340.029921 60.262868 
L 337.633357 54.397655 
L 335.236793 57.144283 
L 332.840229 61.729667 
L 330.443665 59.274619 
L 328.047101 60.156138 
L 325.650537 54.175033 
L 323.253973 61.912643 
L 320.857409 61.996431 
L 318.460845 61.940177 
L 316.064281 56.483291 
L 313.667717 58.872777 
L 311.271152 59.487967 
L 308.874588 57.24842 
L 306.478024 44.443636 
L 304.08146 62.229557 
L 301.684896 54.721814 
L 299.288332 59.909822 
L 296.891768 60.766105 
L 294.495204 61.246488 
L 292.09864 61.038466 
L 289.702076 59.743193 
L 287.305512 60.66781 
L 284.908948 61.123349 
L 282.512384 62.401773 
L 280.11582 59.402442 
L 277.719256 60.00116 
L 275.322691 60.76291 
L 272.926127 59.20124 
L 270.529563 60.741976 
L 268.132999 63.236403 
L 265.736435 54.249179 
L 263.339871 58.344731 
L 260.943307 63.040476 
L 258.546743 59.160919 
L 256.150179 60.142563 
L 253.753615 62.629413 
L 251.357051 65.836118 
L 248.960487 64.155725 
L 246.563923 62.881474 
L 244.167359 64.146141 
L 241.770795 59.120295 
L 239.37423 67.923835 
L 236.977666 62.587976 
L 234.581102 67.897104 
L 232.184538 63.899523 
L 229.787974 64.008837 
L 227.39141 66.529857 
L 224.994846 67.784005 
L 222.598282 65.502329 
L 220.201718 58.44057 
L 217.805154 64.278499 
L 215.40859 61.639736 
L 213.012026 66.625334 
L 210.615462 63.088186 
L 208.218898 63.881425 
L 205.822334 63.831775 
L 203.42577 58.108812 
L 201.029205 68.520869 
L 198.632641 64.853249 
L 196.236077 67.500428 
L 193.839513 59.123789 
L 191.442949 57.727246 
L 189.046385 65.050102 
L 186.649821 67.455373 
L 184.253257 72.538921 
L 181.856693 69.375497 
L 179.460129 68.667081 
L 177.063565 68.897812 
L 174.667001 69.311043 
L 172.270437 65.069546 
L 169.873873 72.617714 
L 167.477309 68.249295 
L 165.080744 60.088478 
L 162.68418 63.353714 
L 160.287616 59.04537 
L 157.891052 72.322342 
L 155.494488 71.699417 
L 153.097924 68.938721 
L 150.70136 70.677479 
L 148.304796 73.965356 
L 145.908232 72.99856 
L 143.511668 65.161926 
L 141.115104 66.117861 
L 138.71854 76.099379 
L 136.321976 73.024848 
L 133.925412 74.839783 
L 131.528848 78.444342 
L 129.132283 76.586901 
L 126.735719 74.066057 
L 124.339155 77.589817 
L 121.942591 77.841129 
L 119.546027 71.330955 
L 117.149463 75.763502 
L 114.752899 76.528655 
L 112.356335 70.533478 
L 109.959771 79.269779 
L 107.563207 78.502756 
L 105.166643 83.095499 
L 102.770079 81.346994 
L 100.373515 81.454591 
L 97.976951 79.903802 
L 95.580387 84.158475 
L 93.183822 85.327453 
L 90.787258 81.483837 
L 88.390694 86.719051 
L 85.99413 93.20807 
L 83.597566 97.007783 
L 81.201002 95.097342 
L 78.804438 97.059139 
L 76.407874 102.604842 
L 74.01131 111.392325 
L 71.614746 122.795556 
L 69.218182 145.113946 
z
" clip-path="url(#p1c0386de7f)" style="fill: #d62728"/>
   </g>
   <g id="matplotlib.axis_1">
    <g id="xtick_1">
     <g id="line2d_1">
      <defs>
       <path id="md578d8508b" d="M 0 0 
L 0 3.5 
" style="stroke: #000000; stroke-width: 0.8"/>
      </defs>
      <g>
       <use xlink:href="#md578d8508b" x="69.218182" y="252" style="stroke: #000000; stroke-width: 0.8"/>
      </g>
     </g>
     <g id="text_1">
      <!-- 1 -->
      <g transform="translate(66.036932 266.598437)scale(0.1 -0.1)">
       <defs>
        <path id="DejaVuSans-31" d="M 794 531 
L 1825 531 
L 1825 4091 
L 703 3866 
L 703 4441 
L 1819 4666 
L 2450 4666 
L 2450 531 
L 3481 531 
L 3481 0 
L 794 0 
L 794 531 
z
" transform="scale(0.015625)"/>
       </defs>
       <use xlink:href="#DejaVuSans-31"/>
      </g>
     </g>
    </g>
    <g id="xtick_2">
     <g id="line2d_2">
      <g>
       <use xlink:href="#md578d8508b" x="90.787258" y="252" style="stroke: #000000; stroke-width: 0.8"/>
      </g>
     </g>
     <g id="text_2">
      <!-- 19 -->
      <g transform="translate(84.424758 266.598437)scale(0.1 -0.1)">
       <defs>
        <path id="DejaVuSans-39" d="M 703 97 
L 703 672 
Q 941 559 1184 500 
Q 1428 441 1663 441 
Q 2288 441 2617 861 
Q 2947 1281 2994 2138 
Q 2813 1869 2534 1725 
Q 2256 1581 1919 1581 
Q 1219 1581 811 2004 
Q 403 2428 403 3163 
Q 403 3881 828 4315 
Q 1253 4750 1959 4750 
Q 2769 4750 3195 4129 
Q 3622 3509 3622 2328 
Q 3622 1225 3098 567 
Q 2575 -91 1691 -91 
Q 1453 -91 1209 -44 
Q 966 3 703 97 
z
M 1959 2075 
Q 2384 2075 2632 2365 
Q 2881 2656 2881 3163 
Q 2881 3666 2632 3958 
Q 2384 4250 1959 4250 
Q 1534 4250 1286 3958 
Q 1038 3666 1038 3163 
Q 1038 2656 1286 2365 
Q 1534 2075 1959 2075 
z
" transform="scale(0.015625)"/>
       </defs>
       <use xlink:href="#DejaVuSans-31"/>
       <use xlink:href="#DejaVuSans-39" x="63.623047"/>
      </g>
     </g>
    </g>
    <g id="xtick_3">
     <g id="line2d_3">
      <g>
       <use xlink:href="#md578d8508b" x="112.356335" y="252" style="stroke: #000000; stroke-width: 0.8"/>
      </g>
     </g>
     <g id="text_3">
      <!-- 37 -->
      <g transform="translate(105.993835 266.598437)scale(0.1 -0.1)">
       <defs>
        <path id="DejaVuSans-33" d="M 2597 2516 
Q 3050 2419 3304 2112 
Q 3559 1806 3559 1356 
Q 3559 666 3084 287 
Q 2609 -91 1734 -91 
Q 1441 -91 1130 -33 
Q 819 25 488 141 
L 488 750 
Q 750 597 1062 519 
Q 1375 441 1716 441 
Q 2309 441 2620 675 
Q 2931 909 2931 1356 
Q 2931 1769 2642 2001 
Q 2353 2234 1838 2234 
L 1294 2234 
L 1294 2753 
L 1863 2753 
Q 2328 2753 2575 2939 
Q 2822 3125 2822 3475 
Q 2822 3834 2567 4026 
Q 2313 4219 1838 4219 
Q 1578 4219 1281 4162 
Q 984 4106 628 3988 
L 628 4550 
Q 988 4650 1302 4700 
Q 1616 4750 1894 4750 
Q 2613 4750 3031 4423 
Q 3450 4097 3450 3541 
Q 3450 3153 3228 2886 
Q 3006 2619 2597 2516 
z
" transform="scale(0.015625)"/>
        <path id="DejaVuSans-37" d="M 525 4666 
L 3525 4666 
L 3525 4397 
L 1831 0 
L 1172 0 
L 2766 4134 
L 525 4134 
L 525 4666 
z
" transform="scale(0.015625)"/>
       </defs>
       <use xlink:href="#DejaVuSans-33"/>
       <use xlink:href="#DejaVuSans-37" x="63.623047"/>
      </g>
     </g>
    </g>
    <g id="xtick_4">
     <g id="line2d_4">
      <g>
       <use xlink:href="#md578d8508b" x="133.925412" y="252" style="stroke: #000000; stroke-width: 0.8"/>
      </g>
     </g>
     <g id="text_4">
      <!-- 55 -->
      <g transform="translate(127.562912 266.598437)scale(0.1 -0.1)">
       <defs>
        <path id="DejaVuSans-35" d="M 691 4666 
L 3169 4666 
L 3169 4134 
L 1269 4134 
L 1269 2991 
Q 1406 3038 1543 3061 
Q 1681 3084 1819 3084 
Q 2600 3084 3056 2656 
Q 3513 2228 3513 1497 
Q 3513 744 3044 326 
Q 2575 -91 1722 -91 
Q 1428 -91 1123 -41 
Q 819 9 494 109 
L 494 744 
Q 775 591 1075 516 
Q 1375 441 1709 441 
Q 2250 441 2565 725 
Q 2881 1009 2881 1497 
Q 2881 1984 2565 2268 
Q 2250 2553 1709 2553 
Q 1456 2553 1204 2497 
Q 953 2441 691 2322 
L 691 4666 
z
" transform="scale(0.015625)"/>
       </defs>
       <use xlink:href="#DejaVuSans-35"/>
       <use xlink:href="#DejaVuSans-35" x="63.623047"/>
      </g>
     </g>
    </g>
    <g id="xtick_5">
     <g id="line2d_5">
      <g>
       <use xlink:href="#md578d8508b" x="155.494488" y="252" style="stroke: #000000; stroke-width: 0.8"/>
      </g>
     </g>
     <g id="text_5">
      <!-- 73 -->
      <g transform="translate(149.131988 266.598437)scale(0.1 -0.1)">
       <use xlink:href="#DejaVuSans-37"/>
       <use xlink:href="#DejaVuSans-33" x="63.623047"/>
      </g>
     </g>
    </g>
    <g id="xtick_6">
     <g id="line2d_6">
      <g>
       <use xlink:href="#md578d8508b" x="177.063565" y="252" style="stroke: #000000; stroke-width: 0.8"/>
      </g>
     </g>
     <g id="text_6">
      <!-- 91 -->
      <g transform="translate(170.701065 266.598437)scale(0.1 -0.1)">
       <use xlink:href="#DejaVuSans-39"/>
       <use xlink:href="#DejaVuSans-31" x="63.623047"/>
      </g>
     </g>
    </g>
    <g id="xtick_7">
     <g id="line2d_7">
      <g>
       <use xlink:href="#md578d8508b" x="198.632641" y="252" style="stroke: #000000; stroke-width: 0.8"/>
      </g>
     </g>
     <g id="text_7">
      <!-- 109 -->
      <g transform="translate(189.088891 266.598437)scale(0.1 -0.1)">
       <defs>
        <path id="DejaVuSans-30" d="M 2034 4250 
Q 1547 4250 1301 3770 
Q 1056 3291 1056 2328 
Q 1056 1369 1301 889 
Q 1547 409 2034 409 
Q 2525 409 2770 889 
Q 3016 1369 3016 2328 
Q 3016 3291 2770 3770 
Q 2525 4250 2034 4250 
z
M 2034 4750 
Q 2819 4750 3233 4129 
Q 3647 3509 3647 2328 
Q 3647 1150 3233 529 
Q 2819 -91 2034 -91 
Q 1250 -91 836 529 
Q 422 1150 422 2328 
Q 422 3509 836 4129 
Q 1250 4750 2034 4750 
z
" transform="scale(0.015625)"/>
       </defs>
       <use xlink:href="#DejaVuSans-31"/>
       <use xlink:href="#DejaVuSans-30" x="63.623047"/>
       <use xlink:href="#DejaVuSans-39" x="127.246094"/>
      </g>
     </g>
    </g>
    <g id="xtick_8">
     <g id="line2d_8">
      <g>
       <use xlink:href="#md578d8508b" x="220.201718" y="252" style="stroke: #000000; stroke-width: 0.8"/>
      </g>
     </g>
     <g id="text_8">
      <!-- 127 -->
      <g transform="translate(210.657968 266.598437)scale(0.1 -0.1)">
       <defs>
        <path id="DejaVuSans-32" d="M 1228 531 
L 3431 531 
L 3431 0 
L 469 0 
L 469 531 
Q 828 903 1448 1529 
Q 2069 2156 2228 2338 
Q 2531 2678 2651 2914 
Q 2772 3150 2772 3378 
Q 2772 3750 2511 3984 
Q 2250 4219 1831 4219 
Q 1534 4219 1204 4116 
Q 875 4013 500 3803 
L 500 4441 
Q 881 4594 1212 4672 
Q 1544 4750 1819 4750 
Q 2544 4750 2975 4387 
Q 3406 4025 3406 3419 
Q 3406 3131 3298 2873 
Q 3191 2616 2906 2266 
Q 2828 2175 2409 1742 
Q 1991 1309 1228 531 
z
" transform="scale(0.015625)"/>
       </defs>
       <use xlink:href="#DejaVuSans-31"/>
       <use xlink:href="#DejaVuSans-32" x="63.623047"/>
       <use xlink:href="#DejaVuSans-37" x="127.246094"/>
      </g>
     </g>
    </g>
    <g id="xtick_9">
     <g id="line2d_9">
      <g>
       <use xlink:href="#md578d8508b" x="241.770795" y="252" style="stroke: #000000; stroke-width: 0.8"/>
      </g>
     </g>
     <g id="text_9">
      <!-- 145 -->
      <g transform="translate(232.227045 266.598437)scale(0.1 -0.1)">
       <defs>
        <path id="DejaVuSans-34" d="M 2419 4116 
L 825 1625 
L 2419 1625 
L 2419 4116 
z
M 2253 4666 
L 3047 4666 
L 3047 1625 
L 3713 1625 
L 3713 1100 
L 3047 1100 
L 3047 0 
L 2419 0 
L 2419 1100 
L 313 1100 
L 313 1709 
L 2253 4666 
z
" transform="scale(0.015625)"/>
       </defs>
       <use xlink:href="#DejaVuSans-31"/>
       <use xlink:href="#DejaVuSans-34" x="63.623047"/>
       <use xlink:href="#DejaVuSans-35" x="127.246094"/>
      </g>
     </g>
    </g>
    <g id="xtick_10">
     <g id="line2d_10">
      <g>
       <use xlink:href="#md578d8508b" x="263.339871" y="252" style="stroke: #000000; stroke-width: 0.8"/>
      </g>
     </g>
     <g id="text_10">
      <!-- 163 -->
      <g transform="translate(253.796121 266.598437)scale(0.1 -0.1)">
       <defs>
        <path id="DejaVuSans-36" d="M 2113 2584 
Q 1688 2584 1439 2293 
Q 1191 2003 1191 1497 
Q 1191 994 1439 701 
Q 1688 409 2113 409 
Q 2538 409 2786 701 
Q 3034 994 3034 1497 
Q 3034 2003 2786 2293 
Q 2538 2584 2113 2584 
z
M 3366 4563 
L 3366 3988 
Q 3128 4100 2886 4159 
Q 2644 4219 2406 4219 
Q 1781 4219 1451 3797 
Q 1122 3375 1075 2522 
Q 1259 2794 1537 2939 
Q 1816 3084 2150 3084 
Q 2853 3084 3261 2657 
Q 3669 2231 3669 1497 
Q 3669 778 3244 343 
Q 2819 -91 2113 -91 
Q 1303 -91 875 529 
Q 447 1150 447 2328 
Q 447 3434 972 4092 
Q 1497 4750 2381 4750 
Q 2619 4750 2861 4703 
Q 3103 4656 3366 4563 
z
" transform="scale(0.015625)"/>
       </defs>
       <use xlink:href="#DejaVuSans-31"/>
       <use xlink:href="#DejaVuSans-36" x="63.623047"/>
       <use xlink:href="#DejaVuSans-33" x="127.246094"/>
      </g>
     </g>
    </g>
    <g id="xtick_11">
     <g id="line2d_11">
      <g>
       <use xlink:href="#md578d8508b" x="284.908948" y="252" style="stroke: #000000; stroke-width: 0.8"/>
      </g>
     </g>
     <g id="text_11">
      <!-- 181 -->
      <g transform="translate(275.365198 266.598437)scale(0.1 -0.1)">
       <defs>
        <path id="DejaVuSans-38" d="M 2034 2216 
Q 1584 2216 1326 1975 
Q 1069 1734 1069 1313 
Q 1069 891 1326 650 
Q 1584 409 2034 409 
Q 2484 409 2743 651 
Q 3003 894 3003 1313 
Q 3003 1734 2745 1975 
Q 2488 2216 2034 2216 
z
M 1403 2484 
Q 997 2584 770 2862 
Q 544 3141 544 3541 
Q 544 4100 942 4425 
Q 1341 4750 2034 4750 
Q 2731 4750 3128 4425 
Q 3525 4100 3525 3541 
Q 3525 3141 3298 2862 
Q 3072 2584 2669 2484 
Q 3125 2378 3379 2068 
Q 3634 1759 3634 1313 
Q 3634 634 3220 271 
Q 2806 -91 2034 -91 
Q 1263 -91 848 271 
Q 434 634 434 1313 
Q 434 1759 690 2068 
Q 947 2378 1403 2484 
z
M 1172 3481 
Q 1172 3119 1398 2916 
Q 1625 2713 2034 2713 
Q 2441 2713 2670 2916 
Q 2900 3119 2900 3481 
Q 2900 3844 2670 4047 
Q 2441 4250 2034 4250 
Q 1625 4250 1398 4047 
Q 1172 3844 1172 3481 
z
" transform="scale(0.015625)"/>
       </defs>
       <use xlink:href="#DejaVuSans-31"/>
       <use xlink:href="#DejaVuSans-38" x="63.623047"/>
       <use xlink:href="#DejaVuSans-31" x="127.246094"/>
      </g>
     </g>
    </g>
    <g id="xtick_12">
     <g id="line2d_12">
      <g>
       <use xlink:href="#md578d8508b" x="306.478024" y="252" style="stroke: #000000; stroke-width: 0.8"/>
      </g>
     </g>
     <g id="text_12">
      <!-- 199 -->
      <g transform="translate(296.934274 266.598437)scale(0.1 -0.1)">
       <use xlink:href="#DejaVuSans-31"/>
       <use xlink:href="#DejaVuSans-39" x="63.623047"/>
       <use xlink:href="#DejaVuSans-39" x="127.246094"/>
      </g>
     </g>
    </g>
    <g id="xtick_13">
     <g id="line2d_13">
      <g>
       <use xlink:href="#md578d8508b" x="328.047101" y="252" style="stroke: #000000; stroke-width: 0.8"/>
      </g>
     </g>
     <g id="text_13">
      <!-- 217 -->
      <g transform="translate(318.503351 266.598437)scale(0.1 -0.1)">
       <use xlink:href="#DejaVuSans-32"/>
       <use xlink:href="#DejaVuSans-31" x="63.623047"/>
       <use xlink:href="#DejaVuSans-37" x="127.246094"/>
      </g>
     </g>
    </g>
    <g id="xtick_14">
     <g id="line2d_14">
      <g>
       <use xlink:href="#md578d8508b" x="349.616178" y="252" style="stroke: #000000; stroke-width: 0.8"/>
      </g>
     </g>
     <g id="text_14">
      <!-- 235 -->
      <g transform="translate(340.072428 266.598437)scale(0.1 -0.1)">
       <use xlink:href="#DejaVuSans-32"/>
       <use xlink:href="#DejaVuSans-33" x="63.623047"/>
       <use xlink:href="#DejaVuSans-35" x="127.246094"/>
      </g>
     </g>
    </g>
    <g id="xtick_15">
     <g id="line2d_15">
      <g>
       <use xlink:href="#md578d8508b" x="371.185254" y="252" style="stroke: #000000; stroke-width: 0.8"/>
      </g>
     </g>
     <g id="text_15">
      <!-- 253 -->
      <g transform="translate(361.641504 266.598437)scale(0.1 -0.1)">
       <use xlink:href="#DejaVuSans-32"/>
       <use xlink:href="#DejaVuSans-35" x="63.623047"/>
       <use xlink:href="#DejaVuSans-33" x="127.246094"/>
      </g>
     </g>
    </g>
    <g id="text_16">
     <!-- Program size -->
     <g transform="translate(189.022656 280.276563)scale(0.1 -0.1)">
      <defs>
       <path id="DejaVuSans-50" d="M 1259 4147 
L 1259 2394 
L 2053 2394 
Q 2494 2394 2734 2622 
Q 2975 2850 2975 3272 
Q 2975 3691 2734 3919 
Q 2494 4147 2053 4147 
L 1259 4147 
z
M 628 4666 
L 2053 4666 
Q 2838 4666 3239 4311 
Q 3641 3956 3641 3272 
Q 3641 2581 3239 2228 
Q 2838 1875 2053 1875 
L 1259 1875 
L 1259 0 
L 628 0 
L 628 4666 
z
" transform="scale(0.015625)"/>
       <path id="DejaVuSans-72" d="M 2631 2963 
Q 2534 3019 2420 3045 
Q 2306 3072 2169 3072 
Q 1681 3072 1420 2755 
Q 1159 2438 1159 1844 
L 1159 0 
L 581 0 
L 581 3500 
L 1159 3500 
L 1159 2956 
Q 1341 3275 1631 3429 
Q 1922 3584 2338 3584 
Q 2397 3584 2469 3576 
Q 2541 3569 2628 3553 
L 2631 2963 
z
" transform="scale(0.015625)"/>
       <path id="DejaVuSans-6f" d="M 1959 3097 
Q 1497 3097 1228 2736 
Q 959 2375 959 1747 
Q 959 1119 1226 758 
Q 1494 397 1959 397 
Q 2419 397 2687 759 
Q 2956 1122 2956 1747 
Q 2956 2369 2687 2733 
Q 2419 3097 1959 3097 
z
M 1959 3584 
Q 2709 3584 3137 3096 
Q 3566 2609 3566 1747 
Q 3566 888 3137 398 
Q 2709 -91 1959 -91 
Q 1206 -91 779 398 
Q 353 888 353 1747 
Q 353 2609 779 3096 
Q 1206 3584 1959 3584 
z
" transform="scale(0.015625)"/>
       <path id="DejaVuSans-67" d="M 2906 1791 
Q 2906 2416 2648 2759 
Q 2391 3103 1925 3103 
Q 1463 3103 1205 2759 
Q 947 2416 947 1791 
Q 947 1169 1205 825 
Q 1463 481 1925 481 
Q 2391 481 2648 825 
Q 2906 1169 2906 1791 
z
M 3481 434 
Q 3481 -459 3084 -895 
Q 2688 -1331 1869 -1331 
Q 1566 -1331 1297 -1286 
Q 1028 -1241 775 -1147 
L 775 -588 
Q 1028 -725 1275 -790 
Q 1522 -856 1778 -856 
Q 2344 -856 2625 -561 
Q 2906 -266 2906 331 
L 2906 616 
Q 2728 306 2450 153 
Q 2172 0 1784 0 
Q 1141 0 747 490 
Q 353 981 353 1791 
Q 353 2603 747 3093 
Q 1141 3584 1784 3584 
Q 2172 3584 2450 3431 
Q 2728 3278 2906 2969 
L 2906 3500 
L 3481 3500 
L 3481 434 
z
" transform="scale(0.015625)"/>
       <path id="DejaVuSans-61" d="M 2194 1759 
Q 1497 1759 1228 1600 
Q 959 1441 959 1056 
Q 959 750 1161 570 
Q 1363 391 1709 391 
Q 2188 391 2477 730 
Q 2766 1069 2766 1631 
L 2766 1759 
L 2194 1759 
z
M 3341 1997 
L 3341 0 
L 2766 0 
L 2766 531 
Q 2569 213 2275 61 
Q 1981 -91 1556 -91 
Q 1019 -91 701 211 
Q 384 513 384 1019 
Q 384 1609 779 1909 
Q 1175 2209 1959 2209 
L 2766 2209 
L 2766 2266 
Q 2766 2663 2505 2880 
Q 2244 3097 1772 3097 
Q 1472 3097 1187 3025 
Q 903 2953 641 2809 
L 641 3341 
Q 956 3463 1253 3523 
Q 1550 3584 1831 3584 
Q 2591 3584 2966 3190 
Q 3341 2797 3341 1997 
z
" transform="scale(0.015625)"/>
       <path id="DejaVuSans-6d" d="M 3328 2828 
Q 3544 3216 3844 3400 
Q 4144 3584 4550 3584 
Q 5097 3584 5394 3201 
Q 5691 2819 5691 2113 
L 5691 0 
L 5113 0 
L 5113 2094 
Q 5113 2597 4934 2840 
Q 4756 3084 4391 3084 
Q 3944 3084 3684 2787 
Q 3425 2491 3425 1978 
L 3425 0 
L 2847 0 
L 2847 2094 
Q 2847 2600 2669 2842 
Q 2491 3084 2119 3084 
Q 1678 3084 1418 2786 
Q 1159 2488 1159 1978 
L 1159 0 
L 581 0 
L 581 3500 
L 1159 3500 
L 1159 2956 
Q 1356 3278 1631 3431 
Q 1906 3584 2284 3584 
Q 2666 3584 2933 3390 
Q 3200 3197 3328 2828 
z
" transform="scale(0.015625)"/>
       <path id="DejaVuSans-20" transform="scale(0.015625)"/>
       <path id="DejaVuSans-73" d="M 2834 3397 
L 2834 2853 
Q 2591 2978 2328 3040 
Q 2066 3103 1784 3103 
Q 1356 3103 1142 2972 
Q 928 2841 928 2578 
Q 928 2378 1081 2264 
Q 1234 2150 1697 2047 
L 1894 2003 
Q 2506 1872 2764 1633 
Q 3022 1394 3022 966 
Q 3022 478 2636 193 
Q 2250 -91 1575 -91 
Q 1294 -91 989 -36 
Q 684 19 347 128 
L 347 722 
Q 666 556 975 473 
Q 1284 391 1588 391 
Q 1994 391 2212 530 
Q 2431 669 2431 922 
Q 2431 1156 2273 1281 
Q 2116 1406 1581 1522 
L 1381 1569 
Q 847 1681 609 1914 
Q 372 2147 372 2553 
Q 372 3047 722 3315 
Q 1072 3584 1716 3584 
Q 2034 3584 2315 3537 
Q 2597 3491 2834 3397 
z
" transform="scale(0.015625)"/>
       <path id="DejaVuSans-69" d="M 603 3500 
L 1178 3500 
L 1178 0 
L 603 0 
L 603 3500 
z
M 603 4863 
L 1178 4863 
L 1178 4134 
L 603 4134 
L 603 4863 
z
" transform="scale(0.015625)"/>
       <path id="DejaVuSans-7a" d="M 353 3500 
L 3084 3500 
L 3084 2975 
L 922 459 
L 3084 459 
L 3084 0 
L 275 0 
L 275 525 
L 2438 3041 
L 353 3041 
L 353 3500 
z
" transform="scale(0.015625)"/>
       <path id="DejaVuSans-65" d="M 3597 1894 
L 3597 1613 
L 953 1613 
Q 991 1019 1311 708 
Q 1631 397 2203 397 
Q 2534 397 2845 478 
Q 3156 559 3463 722 
L 3463 178 
Q 3153 47 2828 -22 
Q 2503 -91 2169 -91 
Q 1331 -91 842 396 
Q 353 884 353 1716 
Q 353 2575 817 3079 
Q 1281 3584 2069 3584 
Q 2775 3584 3186 3129 
Q 3597 2675 3597 1894 
z
M 3022 2063 
Q 3016 2534 2758 2815 
Q 2500 3097 2075 3097 
Q 1594 3097 1305 2825 
Q 1016 2553 972 2059 
L 3022 2063 
z
" transform="scale(0.015625)"/>
      </defs>
      <use xlink:href="#DejaVuSans-50"/>
      <use xlink:href="#DejaVuSans-72" x="58.552734"/>
      <use xlink:href="#DejaVuSans-6f" x="97.416016"/>
      <use xlink:href="#DejaVuSans-67" x="158.597656"/>
      <use xlink:href="#DejaVuSans-72" x="222.074219"/>
      <use xlink:href="#DejaVuSans-61" x="263.1875"/>
      <use xlink:href="#DejaVuSans-6d" x="324.466797"/>
      <use xlink:href="#DejaVuSans-20" x="421.878906"/>
      <use xlink:href="#DejaVuSans-73" x="453.666016"/>
      <use xlink:href="#DejaVuSans-69" x="505.765625"/>
      <use xlink:href="#DejaVuSans-7a" x="533.548828"/>
      <use xlink:href="#DejaVuSans-65" x="586.039062"/>
     </g>
    </g>
   </g>
   <g id="matplotlib.axis_2">
    <g id="ytick_1">
     <g id="line2d_16">
      <defs>
       <path id="md934fd6f45" d="M 0 0 
L -3.5 0 
" style="stroke: #000000; stroke-width: 0.8"/>
      </defs>
      <g>
       <use xlink:href="#md934fd6f45" x="54" y="225.733303" style="stroke: #000000; stroke-width: 0.8"/>
      </g>
     </g>
     <g id="text_17">
      <!-- $\mathdefault{10^{4}}$ -->
      <g transform="translate(29.4 229.532522)scale(0.1 -0.1)">
       <use xlink:href="#DejaVuSans-31" transform="translate(0 0.684375)"/>
       <use xlink:href="#DejaVuSans-30" transform="translate(63.623047 0.684375)"/>
       <use xlink:href="#DejaVuSans-34" transform="translate(128.203125 38.965625)scale(0.7)"/>
      </g>
     </g>
    </g>
    <g id="ytick_2">
     <g id="line2d_17">
      <g>
       <use xlink:href="#md934fd6f45" x="54" y="185.133837" style="stroke: #000000; stroke-width: 0.8"/>
      </g>
     </g>
     <g id="text_18">
      <!-- $\mathdefault{10^{5}}$ -->
      <g transform="translate(29.4 188.933056)scale(0.1 -0.1)">
       <use xlink:href="#DejaVuSans-31" transform="translate(0 0.684375)"/>
       <use xlink:href="#DejaVuSans-30" transform="translate(63.623047 0.684375)"/>
       <use xlink:href="#DejaVuSans-35" transform="translate(128.203125 38.965625)scale(0.7)"/>
      </g>
     </g>
    </g>
    <g id="ytick_3">
     <g id="line2d_18">
      <g>
       <use xlink:href="#md934fd6f45" x="54" y="144.534371" style="stroke: #000000; stroke-width: 0.8"/>
      </g>
     </g>
     <g id="text_19">
      <!-- $\mathdefault{10^{6}}$ -->
      <g transform="translate(29.4 148.33359)scale(0.1 -0.1)">
       <use xlink:href="#DejaVuSans-31" transform="translate(0 0.765625)"/>
       <use xlink:href="#DejaVuSans-30" transform="translate(63.623047 0.765625)"/>
       <use xlink:href="#DejaVuSans-36" transform="translate(128.203125 39.046875)scale(0.7)"/>
      </g>
     </g>
    </g>
    <g id="ytick_4">
     <g id="line2d_19">
      <g>
       <use xlink:href="#md934fd6f45" x="54" y="103.934905" style="stroke: #000000; stroke-width: 0.8"/>
      </g>
     </g>
     <g id="text_20">
      <!-- $\mathdefault{10^{7}}$ -->
      <g transform="translate(29.4 107.734124)scale(0.1 -0.1)">
       <use xlink:href="#DejaVuSans-31" transform="translate(0 0.684375)"/>
       <use xlink:href="#DejaVuSans-30" transform="translate(63.623047 0.684375)"/>
       <use xlink:href="#DejaVuSans-37" transform="translate(128.203125 38.965625)scale(0.7)"/>
      </g>
     </g>
    </g>
    <g id="ytick_5">
     <g id="line2d_20">
      <g>
       <use xlink:href="#md934fd6f45" x="54" y="63.335439" style="stroke: #000000; stroke-width: 0.8"/>
      </g>
     </g>
     <g id="text_21">
      <!-- $\mathdefault{10^{8}}$ -->
      <g transform="translate(29.4 67.134658)scale(0.1 -0.1)">
       <use xlink:href="#DejaVuSans-31" transform="translate(0 0.765625)"/>
       <use xlink:href="#DejaVuSans-30" transform="translate(63.623047 0.765625)"/>
       <use xlink:href="#DejaVuSans-38" transform="translate(128.203125 39.046875)scale(0.7)"/>
      </g>
     </g>
    </g>
    <g id="ytick_6">
     <g id="line2d_21">
      <defs>
       <path id="md403b67d0a" d="M 0 0 
L -2 0 
" style="stroke: #000000; stroke-width: 0.6"/>
      </defs>
      <g>
       <use xlink:href="#md403b67d0a" x="54" y="246.961901" style="stroke: #000000; stroke-width: 0.6"/>
      </g>
     </g>
    </g>
    <g id="ytick_7">
     <g id="line2d_22">
      <g>
       <use xlink:href="#md403b67d0a" x="54" y="241.889455" style="stroke: #000000; stroke-width: 0.6"/>
      </g>
     </g>
    </g>
    <g id="ytick_8">
     <g id="line2d_23">
      <g>
       <use xlink:href="#md403b67d0a" x="54" y="237.95496" style="stroke: #000000; stroke-width: 0.6"/>
      </g>
     </g>
    </g>
    <g id="ytick_9">
     <g id="line2d_24">
      <g>
       <use xlink:href="#md403b67d0a" x="54" y="234.740244" style="stroke: #000000; stroke-width: 0.6"/>
      </g>
     </g>
    </g>
    <g id="ytick_10">
     <g id="line2d_25">
      <g>
       <use xlink:href="#md403b67d0a" x="54" y="232.02224" style="stroke: #000000; stroke-width: 0.6"/>
      </g>
     </g>
    </g>
    <g id="ytick_11">
     <g id="line2d_26">
      <g>
       <use xlink:href="#md403b67d0a" x="54" y="229.667798" style="stroke: #000000; stroke-width: 0.6"/>
      </g>
     </g>
    </g>
    <g id="ytick_12">
     <g id="line2d_27">
      <g>
       <use xlink:href="#md403b67d0a" x="54" y="227.591033" style="stroke: #000000; stroke-width: 0.6"/>
      </g>
     </g>
    </g>
    <g id="ytick_13">
     <g id="line2d_28">
      <g>
       <use xlink:href="#md403b67d0a" x="54" y="213.511646" style="stroke: #000000; stroke-width: 0.6"/>
      </g>
     </g>
    </g>
    <g id="ytick_14">
     <g id="line2d_29">
      <g>
       <use xlink:href="#md403b67d0a" x="54" y="206.362435" style="stroke: #000000; stroke-width: 0.6"/>
      </g>
     </g>
    </g>
    <g id="ytick_15">
     <g id="line2d_30">
      <g>
       <use xlink:href="#md403b67d0a" x="54" y="201.289989" style="stroke: #000000; stroke-width: 0.6"/>
      </g>
     </g>
    </g>
    <g id="ytick_16">
     <g id="line2d_31">
      <g>
       <use xlink:href="#md403b67d0a" x="54" y="197.355494" style="stroke: #000000; stroke-width: 0.6"/>
      </g>
     </g>
    </g>
    <g id="ytick_17">
     <g id="line2d_32">
      <g>
       <use xlink:href="#md403b67d0a" x="54" y="194.140778" style="stroke: #000000; stroke-width: 0.6"/>
      </g>
     </g>
    </g>
    <g id="ytick_18">
     <g id="line2d_33">
      <g>
       <use xlink:href="#md403b67d0a" x="54" y="191.422774" style="stroke: #000000; stroke-width: 0.6"/>
      </g>
     </g>
    </g>
    <g id="ytick_19">
     <g id="line2d_34">
      <g>
       <use xlink:href="#md403b67d0a" x="54" y="189.068332" style="stroke: #000000; stroke-width: 0.6"/>
      </g>
     </g>
    </g>
    <g id="ytick_20">
     <g id="line2d_35">
      <g>
       <use xlink:href="#md403b67d0a" x="54" y="186.991567" style="stroke: #000000; stroke-width: 0.6"/>
      </g>
     </g>
    </g>
    <g id="ytick_21">
     <g id="line2d_36">
      <g>
       <use xlink:href="#md403b67d0a" x="54" y="172.91218" style="stroke: #000000; stroke-width: 0.6"/>
      </g>
     </g>
    </g>
    <g id="ytick_22">
     <g id="line2d_37">
      <g>
       <use xlink:href="#md403b67d0a" x="54" y="165.762969" style="stroke: #000000; stroke-width: 0.6"/>
      </g>
     </g>
    </g>
    <g id="ytick_23">
     <g id="line2d_38">
      <g>
       <use xlink:href="#md403b67d0a" x="54" y="160.690523" style="stroke: #000000; stroke-width: 0.6"/>
      </g>
     </g>
    </g>
    <g id="ytick_24">
     <g id="line2d_39">
      <g>
       <use xlink:href="#md403b67d0a" x="54" y="156.756028" style="stroke: #000000; stroke-width: 0.6"/>
      </g>
     </g>
    </g>
    <g id="ytick_25">
     <g id="line2d_40">
      <g>
       <use xlink:href="#md403b67d0a" x="54" y="153.541312" style="stroke: #000000; stroke-width: 0.6"/>
      </g>
     </g>
    </g>
    <g id="ytick_26">
     <g id="line2d_41">
      <g>
       <use xlink:href="#md403b67d0a" x="54" y="150.823308" style="stroke: #000000; stroke-width: 0.6"/>
      </g>
     </g>
    </g>
    <g id="ytick_27">
     <g id="line2d_42">
      <g>
       <use xlink:href="#md403b67d0a" x="54" y="148.468866" style="stroke: #000000; stroke-width: 0.6"/>
      </g>
     </g>
    </g>
    <g id="ytick_28">
     <g id="line2d_43">
      <g>
       <use xlink:href="#md403b67d0a" x="54" y="146.392101" style="stroke: #000000; stroke-width: 0.6"/>
      </g>
     </g>
    </g>
    <g id="ytick_29">
     <g id="line2d_44">
      <g>
       <use xlink:href="#md403b67d0a" x="54" y="132.312714" style="stroke: #000000; stroke-width: 0.6"/>
      </g>
     </g>
    </g>
    <g id="ytick_30">
     <g id="line2d_45">
      <g>
       <use xlink:href="#md403b67d0a" x="54" y="125.163503" style="stroke: #000000; stroke-width: 0.6"/>
      </g>
     </g>
    </g>
    <g id="ytick_31">
     <g id="line2d_46">
      <g>
       <use xlink:href="#md403b67d0a" x="54" y="120.091057" style="stroke: #000000; stroke-width: 0.6"/>
      </g>
     </g>
    </g>
    <g id="ytick_32">
     <g id="line2d_47">
      <g>
       <use xlink:href="#md403b67d0a" x="54" y="116.156562" style="stroke: #000000; stroke-width: 0.6"/>
      </g>
     </g>
    </g>
    <g id="ytick_33">
     <g id="line2d_48">
      <g>
       <use xlink:href="#md403b67d0a" x="54" y="112.941846" style="stroke: #000000; stroke-width: 0.6"/>
      </g>
     </g>
    </g>
    <g id="ytick_34">
     <g id="line2d_49">
      <g>
       <use xlink:href="#md403b67d0a" x="54" y="110.223842" style="stroke: #000000; stroke-width: 0.6"/>
      </g>
     </g>
    </g>
    <g id="ytick_35">
     <g id="line2d_50">
      <g>
       <use xlink:href="#md403b67d0a" x="54" y="107.8694" style="stroke: #000000; stroke-width: 0.6"/>
      </g>
     </g>
    </g>
    <g id="ytick_36">
     <g id="line2d_51">
      <g>
       <use xlink:href="#md403b67d0a" x="54" y="105.792635" style="stroke: #000000; stroke-width: 0.6"/>
      </g>
     </g>
    </g>
    <g id="ytick_37">
     <g id="line2d_52">
      <g>
       <use xlink:href="#md403b67d0a" x="54" y="91.713248" style="stroke: #000000; stroke-width: 0.6"/>
      </g>
     </g>
    </g>
    <g id="ytick_38">
     <g id="line2d_53">
      <g>
       <use xlink:href="#md403b67d0a" x="54" y="84.564037" style="stroke: #000000; stroke-width: 0.6"/>
      </g>
     </g>
    </g>
    <g id="ytick_39">
     <g id="line2d_54">
      <g>
       <use xlink:href="#md403b67d0a" x="54" y="79.491591" style="stroke: #000000; stroke-width: 0.6"/>
      </g>
     </g>
    </g>
    <g id="ytick_40">
     <g id="line2d_55">
      <g>
       <use xlink:href="#md403b67d0a" x="54" y="75.557096" style="stroke: #000000; stroke-width: 0.6"/>
      </g>
     </g>
    </g>
    <g id="ytick_41">
     <g id="line2d_56">
      <g>
       <use xlink:href="#md403b67d0a" x="54" y="72.34238" style="stroke: #000000; stroke-width: 0.6"/>
      </g>
     </g>
    </g>
    <g id="ytick_42">
     <g id="line2d_57">
      <g>
       <use xlink:href="#md403b67d0a" x="54" y="69.624376" style="stroke: #000000; stroke-width: 0.6"/>
      </g>
     </g>
    </g>
    <g id="ytick_43">
     <g id="line2d_58">
      <g>
       <use xlink:href="#md403b67d0a" x="54" y="67.269934" style="stroke: #000000; stroke-width: 0.6"/>
      </g>
     </g>
    </g>
    <g id="ytick_44">
     <g id="line2d_59">
      <g>
       <use xlink:href="#md403b67d0a" x="54" y="65.193169" style="stroke: #000000; stroke-width: 0.6"/>
      </g>
     </g>
    </g>
    <g id="ytick_45">
     <g id="line2d_60">
      <g>
       <use xlink:href="#md403b67d0a" x="54" y="51.113782" style="stroke: #000000; stroke-width: 0.6"/>
      </g>
     </g>
    </g>
    <g id="ytick_46">
     <g id="line2d_61">
      <g>
       <use xlink:href="#md403b67d0a" x="54" y="43.964571" style="stroke: #000000; stroke-width: 0.6"/>
      </g>
     </g>
    </g>
    <g id="ytick_47">
     <g id="line2d_62">
      <g>
       <use xlink:href="#md403b67d0a" x="54" y="38.892125" style="stroke: #000000; stroke-width: 0.6"/>
      </g>
     </g>
    </g>
    <g id="ytick_48">
     <g id="line2d_63">
      <g>
       <use xlink:href="#md403b67d0a" x="54" y="34.95763" style="stroke: #000000; stroke-width: 0.6"/>
      </g>
     </g>
    </g>
    <g id="text_22">
     <!-- Median NEPS -->
     <g transform="translate(23.320312 176.144844)rotate(-90)scale(0.1 -0.1)">
      <defs>
       <path id="DejaVuSans-4d" d="M 628 4666 
L 1569 4666 
L 2759 1491 
L 3956 4666 
L 4897 4666 
L 4897 0 
L 4281 0 
L 4281 4097 
L 3078 897 
L 2444 897 
L 1241 4097 
L 1241 0 
L 628 0 
L 628 4666 
z
" transform="scale(0.015625)"/>
       <path id="DejaVuSans-64" d="M 2906 2969 
L 2906 4863 
L 3481 4863 
L 3481 0 
L 2906 0 
L 2906 525 
Q 2725 213 2448 61 
Q 2172 -91 1784 -91 
Q 1150 -91 751 415 
Q 353 922 353 1747 
Q 353 2572 751 3078 
Q 1150 3584 1784 3584 
Q 2172 3584 2448 3432 
Q 2725 3281 2906 2969 
z
M 947 1747 
Q 947 1113 1208 752 
Q 1469 391 1925 391 
Q 2381 391 2643 752 
Q 2906 1113 2906 1747 
Q 2906 2381 2643 2742 
Q 2381 3103 1925 3103 
Q 1469 3103 1208 2742 
Q 947 2381 947 1747 
z
" transform="scale(0.015625)"/>
       <path id="DejaVuSans-6e" d="M 3513 2113 
L 3513 0 
L 2938 0 
L 2938 2094 
Q 2938 2591 2744 2837 
Q 2550 3084 2163 3084 
Q 1697 3084 1428 2787 
Q 1159 2491 1159 1978 
L 1159 0 
L 581 0 
L 581 3500 
L 1159 3500 
L 1159 2956 
Q 1366 3272 1645 3428 
Q 1925 3584 2291 3584 
Q 2894 3584 3203 3211 
Q 3513 2838 3513 2113 
z
" transform="scale(0.015625)"/>
       <path id="DejaVuSans-4e" d="M 628 4666 
L 1478 4666 
L 3547 763 
L 3547 4666 
L 4159 4666 
L 4159 0 
L 3309 0 
L 1241 3903 
L 1241 0 
L 628 0 
L 628 4666 
z
" transform="scale(0.015625)"/>
       <path id="DejaVuSans-45" d="M 628 4666 
L 3578 4666 
L 3578 4134 
L 1259 4134 
L 1259 2753 
L 3481 2753 
L 3481 2222 
L 1259 2222 
L 1259 531 
L 3634 531 
L 3634 0 
L 628 0 
L 628 4666 
z
" transform="scale(0.015625)"/>
       <path id="DejaVuSans-53" d="M 3425 4513 
L 3425 3897 
Q 3066 4069 2747 4153 
Q 2428 4238 2131 4238 
Q 1616 4238 1336 4038 
Q 1056 3838 1056 3469 
Q 1056 3159 1242 3001 
Q 1428 2844 1947 2747 
L 2328 2669 
Q 3034 2534 3370 2195 
Q 3706 1856 3706 1288 
Q 3706 609 3251 259 
Q 2797 -91 1919 -91 
Q 1588 -91 1214 -16 
Q 841 59 441 206 
L 441 856 
Q 825 641 1194 531 
Q 1563 422 1919 422 
Q 2459 422 2753 634 
Q 3047 847 3047 1241 
Q 3047 1584 2836 1778 
Q 2625 1972 2144 2069 
L 1759 2144 
Q 1053 2284 737 2584 
Q 422 2884 422 3419 
Q 422 4038 858 4394 
Q 1294 4750 2059 4750 
Q 2388 4750 2728 4690 
Q 3069 4631 3425 4513 
z
" transform="scale(0.015625)"/>
      </defs>
      <use xlink:href="#DejaVuSans-4d"/>
      <use xlink:href="#DejaVuSans-65" x="86.279297"/>
      <use xlink:href="#DejaVuSans-64" x="147.802734"/>
      <use xlink:href="#DejaVuSans-69" x="211.279297"/>
      <use xlink:href="#DejaVuSans-61" x="239.0625"/>
      <use xlink:href="#DejaVuSans-6e" x="300.341797"/>
      <use xlink:href="#DejaVuSans-20" x="363.720703"/>
      <use xlink:href="#DejaVuSans-4e" x="395.507812"/>
      <use xlink:href="#DejaVuSans-45" x="470.3125"/>
      <use xlink:href="#DejaVuSans-50" x="533.496094"/>
      <use xlink:href="#DejaVuSans-53" x="593.798828"/>
     </g>
    </g>
   </g>
   <g id="line2d_64">
    <path d="M 69.218182 241.109572 
L 71.614746 221.234803 
L 74.01131 211.510145 
L 76.407874 197.300202 
L 81.201002 189.384001 
L 83.597566 185.842694 
L 85.99413 184.002209 
L 88.390694 182.314849 
L 90.787258 179.829397 
L 93.183822 178.32059 
L 97.976951 174.149771 
L 100.373515 174.770974 
L 102.770079 172.920596 
L 105.166643 172.054048 
L 107.563207 169.483048 
L 109.959771 169.744654 
L 114.752899 167.084639 
L 117.149463 165.956564 
L 119.546027 165.666862 
L 121.942591 165.022318 
L 124.339155 164.96241 
L 126.735719 164.181273 
L 129.132283 163.143676 
L 131.528848 164.182675 
L 133.925412 161.711463 
L 136.321976 161.107097 
L 138.71854 162.172091 
L 141.115104 162.312654 
L 143.511668 161.765391 
L 145.908232 161.495053 
L 148.304796 160.934705 
L 150.70136 159.474926 
L 153.097924 160.516016 
L 155.494488 159.497123 
L 157.891052 160.761364 
L 160.287616 161.177149 
L 162.68418 158.114381 
L 165.080744 158.348687 
L 167.477309 157.777682 
L 169.873873 157.422621 
L 172.270437 157.291774 
L 177.063565 155.952784 
L 179.460129 154.940911 
L 181.856693 156.157961 
L 184.253257 154.750329 
L 189.046385 153.670896 
L 191.442949 154.893149 
L 193.839513 155.224528 
L 196.236077 161.905812 
L 198.632641 153.714096 
L 201.029205 154.13732 
L 203.42577 154.916915 
L 205.822334 152.753684 
L 208.218898 152.897251 
L 213.012026 151.334717 
L 215.40859 152.345938 
L 217.805154 152.312408 
L 220.201718 152.605836 
L 222.598282 152.264243 
L 224.994846 151.665341 
L 227.39141 151.755492 
L 229.787974 149.857581 
L 232.184538 150.051121 
L 234.581102 150.61591 
L 236.977666 150.525646 
L 239.37423 149.242528 
L 241.770795 149.226925 
L 244.167359 149.476306 
L 246.563923 149.469611 
L 248.960487 148.906007 
L 251.357051 149.332404 
L 253.753615 148.688877 
L 256.150179 148.303054 
L 258.546743 148.248798 
L 263.339871 148.93675 
L 265.736435 147.501716 
L 268.132999 150.315608 
L 270.529563 149.633453 
L 272.926127 147.955016 
L 275.322691 147.577142 
L 277.719256 146.929674 
L 280.11582 148.566692 
L 282.512384 146.596521 
L 284.908948 147.615739 
L 287.305512 147.096717 
L 294.495204 146.530543 
L 296.891768 146.674043 
L 299.288332 146.598555 
L 301.684896 146.038994 
L 304.08146 145.22968 
L 306.478024 146.724977 
L 308.874588 144.274364 
L 311.271152 146.095003 
L 313.667717 145.759785 
L 316.064281 145.72811 
L 318.460845 146.772706 
L 320.857409 146.162006 
L 323.253973 145.16077 
L 325.650537 145.179347 
L 328.047101 146.768144 
L 330.443665 144.450826 
L 332.840229 146.400487 
L 335.236793 144.984495 
L 337.633357 144.512674 
L 340.029921 144.728745 
L 342.426485 146.390272 
L 344.823049 147.654362 
L 347.219613 145.932982 
L 349.616178 145.111057 
L 352.012742 145.821563 
L 354.409306 145.13736 
L 356.80587 144.828918 
L 359.202434 145.437712 
L 361.598998 144.418497 
L 363.995562 144.768475 
L 368.78869 145.006167 
L 371.185254 143.784655 
L 373.581818 144.512587 
L 373.581818 144.512587 
" clip-path="url(#p1c0386de7f)" style="fill: none; stroke: #1f77b4; stroke-width: 1.5; stroke-linecap: square"/>
   </g>
   <g id="line2d_65">
    <path d="M 69.218182 204.838352 
L 71.614746 184.878201 
L 76.407874 173.728425 
L 78.804438 169.030198 
L 81.201002 170.101957 
L 83.597566 160.567003 
L 85.99413 161.871538 
L 88.390694 168.887441 
L 90.787258 165.661676 
L 93.183822 161.404729 
L 95.580387 161.358804 
L 97.976951 157.227495 
L 100.373515 162.003512 
L 102.770079 158.71729 
L 105.166643 159.865838 
L 107.563207 156.899018 
L 109.959771 160.697257 
L 112.356335 162.312665 
L 114.752899 154.019001 
L 117.149463 154.293672 
L 119.546027 155.670215 
L 121.942591 157.374185 
L 124.339155 157.245267 
L 126.735719 155.814227 
L 129.132283 156.401794 
L 131.528848 157.5302 
L 133.925412 152.828906 
L 136.321976 153.325978 
L 138.71854 153.312281 
L 141.115104 157.920887 
L 143.511668 153.983367 
L 145.908232 154.238072 
L 148.304796 153.531152 
L 150.70136 155.055837 
L 153.097924 153.765241 
L 155.494488 153.200704 
L 157.891052 156.025239 
L 160.287616 156.570149 
L 162.68418 155.068272 
L 165.080744 150.440249 
L 167.477309 154.54473 
L 169.873873 153.165005 
L 172.270437 154.976146 
L 174.667001 154.83904 
L 179.460129 154.315575 
L 181.856693 156.214457 
L 184.253257 155.466356 
L 186.649821 153.581265 
L 189.046385 154.75089 
L 191.442949 156.397176 
L 193.839513 152.616476 
L 196.236077 155.755722 
L 198.632641 153.909813 
L 201.029205 155.230936 
L 203.42577 157.75922 
L 205.822334 154.65513 
L 208.218898 163.942315 
L 210.615462 158.936664 
L 213.012026 155.208605 
L 215.40859 153.489909 
L 217.805154 153.497977 
L 220.201718 154.164493 
L 222.598282 155.270651 
L 224.994846 155.232107 
L 227.39141 155.360527 
L 229.787974 154.294267 
L 232.184538 154.77111 
L 234.581102 153.290886 
L 236.977666 154.571163 
L 239.37423 153.088957 
L 241.770795 155.082433 
L 244.167359 155.434639 
L 246.563923 154.237769 
L 248.960487 155.425599 
L 251.357051 154.454669 
L 253.753615 155.102129 
L 256.150179 153.648129 
L 258.546743 155.039657 
L 260.943307 152.450657 
L 263.339871 155.662191 
L 265.736435 154.063373 
L 268.132999 154.901849 
L 270.529563 156.982437 
L 272.926127 154.327722 
L 275.322691 153.117078 
L 277.719256 152.859811 
L 280.11582 155.788042 
L 282.512384 152.700993 
L 284.908948 154.02656 
L 287.305512 153.052413 
L 289.702076 152.360891 
L 292.09864 152.475569 
L 294.495204 153.688317 
L 296.891768 153.211528 
L 299.288332 153.466705 
L 301.684896 154.895759 
L 304.08146 151.88023 
L 306.478024 153.628696 
L 308.874588 149.469806 
L 311.271152 152.877838 
L 313.667717 152.005592 
L 316.064281 153.312867 
L 318.460845 155.138853 
L 320.857409 153.09568 
L 323.253973 153.353967 
L 325.650537 152.609423 
L 328.047101 155.987483 
L 330.443665 151.497229 
L 332.840229 153.777024 
L 335.236793 152.05428 
L 337.633357 150.723357 
L 340.029921 151.368148 
L 342.426485 153.484964 
L 344.823049 152.530522 
L 347.219613 152.591475 
L 349.616178 152.106015 
L 352.012742 155.192287 
L 354.409306 152.148227 
L 356.80587 154.15863 
L 359.202434 152.680933 
L 361.598998 152.668933 
L 363.995562 154.158722 
L 366.392126 152.318952 
L 368.78869 152.9505 
L 371.185254 152.479858 
L 373.581818 153.172617 
L 373.581818 153.172617 
" clip-path="url(#p1c0386de7f)" style="fill: none; stroke: #ff7f0e; stroke-width: 1.5; stroke-linecap: square"/>
   </g>
   <g id="line2d_66">
    <path d="M 69.218182 203.534869 
L 71.614746 186.341677 
L 74.01131 181.105421 
L 78.804438 171.515603 
L 81.201002 172.639733 
L 83.597566 162.543427 
L 85.99413 165.156132 
L 88.390694 173.11006 
L 90.787258 169.320753 
L 93.183822 161.578057 
L 95.580387 160.668389 
L 97.976951 157.37261 
L 100.373515 162.397093 
L 102.770079 158.96601 
L 105.166643 159.996441 
L 107.563207 156.891168 
L 109.959771 161.248605 
L 112.356335 162.68373 
L 114.752899 153.697148 
L 117.149463 154.117768 
L 119.546027 156.095081 
L 121.942591 157.409226 
L 124.339155 157.6038 
L 126.735719 156.030868 
L 129.132283 156.921065 
L 131.528848 157.686853 
L 133.925412 152.931681 
L 136.321976 153.244056 
L 138.71854 153.951811 
L 141.115104 158.170323 
L 143.511668 154.248473 
L 145.908232 154.615094 
L 148.304796 154.096542 
L 150.70136 155.668629 
L 153.097924 153.601844 
L 155.494488 152.868394 
L 157.891052 156.671346 
L 160.287616 157.384127 
L 162.68418 154.72988 
L 165.080744 150.460556 
L 167.477309 154.827335 
L 169.873873 153.651442 
L 172.270437 155.217805 
L 174.667001 154.829215 
L 177.063565 155.219477 
L 179.460129 154.650166 
L 181.856693 156.221505 
L 184.253257 155.529309 
L 186.649821 154.169671 
L 189.046385 155.124626 
L 191.442949 157.049495 
L 193.839513 153.311061 
L 196.236077 155.753829 
L 198.632641 153.713094 
L 201.029205 155.186659 
L 203.42577 157.420369 
L 205.822334 155.011451 
L 208.218898 157.171876 
L 210.615462 154.414684 
L 213.012026 155.706018 
L 215.40859 153.45467 
L 217.805154 153.254363 
L 220.201718 155.713194 
L 222.598282 155.030659 
L 224.994846 154.750206 
L 227.39141 155.258018 
L 229.787974 154.065326 
L 232.184538 154.788306 
L 234.581102 153.371341 
L 236.977666 154.650364 
L 239.37423 152.920612 
L 241.770795 154.829111 
L 244.167359 155.277448 
L 246.563923 154.407103 
L 248.960487 154.904428 
L 251.357051 154.775254 
L 253.753615 155.565104 
L 256.150179 154.143933 
L 258.546743 155.291899 
L 260.943307 153.01387 
L 263.339871 155.979393 
L 265.736435 154.395099 
L 268.132999 154.858468 
L 270.529563 157.444511 
L 272.926127 153.913972 
L 275.322691 152.947337 
L 277.719256 153.306214 
L 280.11582 156.065728 
L 282.512384 152.731125 
L 284.908948 154.851817 
L 287.305512 153.303145 
L 289.702076 152.401702 
L 292.09864 152.872208 
L 294.495204 153.965136 
L 296.891768 154.007955 
L 299.288332 153.674977 
L 301.684896 154.824033 
L 304.08146 152.447943 
L 306.478024 153.399883 
L 308.874588 150.217383 
L 311.271152 152.5892 
L 313.667717 157.601475 
L 316.064281 158.510307 
L 318.460845 160.468299 
L 320.857409 158.873056 
L 323.253973 158.449706 
L 325.650537 158.205433 
L 328.047101 161.202084 
L 330.443665 157.167221 
L 332.840229 158.991307 
L 335.236793 157.673342 
L 337.633357 155.966105 
L 340.029921 156.914223 
L 342.426485 158.893457 
L 344.823049 158.242146 
L 349.616178 157.654415 
L 352.012742 160.521324 
L 354.409306 157.468333 
L 356.80587 159.912363 
L 359.202434 158.743551 
L 361.598998 158.281463 
L 363.995562 159.903228 
L 366.392126 157.741726 
L 368.78869 158.200122 
L 371.185254 158.200351 
L 373.581818 158.371786 
L 373.581818 158.371786 
" clip-path="url(#p1c0386de7f)" style="fill: none; stroke: #2ca02c; stroke-width: 1.5; stroke-linecap: square"/>
   </g>
   <g id="line2d_67">
    <path d="M 69.218182 148.199516 
L 71.614746 126.605181 
L 74.01131 113.392361 
L 76.407874 105.820321 
L 78.804438 100.532291 
L 81.201002 99.769487 
L 83.597566 98.15398 
L 85.99413 93.92014 
L 90.787258 89.542388 
L 93.183822 90.032811 
L 95.580387 89.704103 
L 97.976951 82.997754 
L 100.373515 85.997951 
L 102.770079 83.287403 
L 105.166643 85.129343 
L 107.563207 84.954795 
L 109.959771 82.123311 
L 112.356335 80.189549 
L 114.752899 79.387299 
L 117.149463 77.105173 
L 119.546027 80.646193 
L 121.942591 81.604889 
L 124.339155 80.081117 
L 126.735719 75.543597 
L 129.132283 79.068926 
L 131.528848 80.260379 
L 133.925412 78.096504 
L 136.321976 76.212912 
L 138.71854 76.96796 
L 141.115104 74.978268 
L 143.511668 71.483869 
L 145.908232 73.981917 
L 148.304796 76.057829 
L 150.70136 73.2566 
L 153.097924 73.255082 
L 155.494488 73.572102 
L 157.891052 72.585431 
L 160.287616 69.380659 
L 162.68418 73.155402 
L 165.080744 66.146489 
L 167.477309 72.149715 
L 169.873873 73.817096 
L 172.270437 71.6302 
L 174.667001 74.079363 
L 177.063565 69.42249 
L 179.460129 72.393496 
L 181.856693 71.020245 
L 184.253257 77.566679 
L 186.649821 70.597679 
L 189.046385 68.115904 
L 191.442949 62.605851 
L 193.839513 66.65132 
L 196.236077 69.425182 
L 198.632641 67.848506 
L 201.029205 69.613651 
L 203.42577 65.761707 
L 205.822334 65.96297 
L 208.218898 66.659701 
L 210.615462 66.482114 
L 213.012026 69.961105 
L 215.40859 64.542467 
L 217.805154 66.483026 
L 220.201718 66.756045 
L 222.598282 68.508572 
L 224.994846 68.476229 
L 227.39141 67.333454 
L 229.787974 64.633675 
L 232.184538 65.577311 
L 234.581102 68.729511 
L 236.977666 64.455797 
L 239.37423 70.477251 
L 241.770795 65.51083 
L 244.167359 65.36523 
L 246.563923 64.760775 
L 251.357051 66.372074 
L 253.753615 64.453828 
L 256.150179 63.486405 
L 258.546743 62.914037 
L 260.943307 64.011708 
L 263.339871 60.684914 
L 265.736435 59.376216 
L 268.132999 64.932739 
L 270.529563 62.904007 
L 272.926127 60.713839 
L 275.322691 65.491749 
L 277.719256 62.782271 
L 280.11582 62.493311 
L 282.512384 65.874102 
L 284.908948 63.336413 
L 287.305512 62.610642 
L 289.702076 62.126435 
L 292.09864 62.678898 
L 294.495204 62.863658 
L 296.891768 62.743571 
L 299.288332 64.21919 
L 301.684896 60.822176 
L 304.08146 63.849236 
L 306.478024 58.842862 
L 308.874588 60.184294 
L 311.271152 60.834469 
L 313.667717 60.785286 
L 316.064281 64.593959 
L 318.460845 63.878316 
L 320.857409 64.722576 
L 323.253973 63.721084 
L 325.650537 58.870224 
L 328.047101 63.980827 
L 330.443665 63.204525 
L 332.840229 63.41266 
L 335.236793 58.045539 
L 337.633357 60.906056 
L 340.029921 60.858513 
L 342.426485 58.755499 
L 344.823049 62.084567 
L 349.616178 62.194487 
L 352.012742 58.559562 
L 354.409306 59.250915 
L 356.80587 57.797942 
L 359.202434 60.158993 
L 361.598998 64.114994 
L 363.995562 60.862714 
L 366.392126 55.484696 
L 368.78869 61.238423 
L 371.185254 56.964673 
L 373.581818 63.077376 
L 373.581818 63.077376 
" clip-path="url(#p1c0386de7f)" style="fill: none; stroke: #d62728; stroke-width: 1.5; stroke-linecap: square"/>
   </g>
   <g id="patch_3">
    <path d="M 54 252 
L 54 34.56 
" style="fill: none; stroke: #000000; stroke-width: 0.8; stroke-linejoin: miter; stroke-linecap: square"/>
   </g>
   <g id="patch_4">
    <path d="M 388.8 252 
L 388.8 34.56 
" style="fill: none; stroke: #000000; stroke-width: 0.8; stroke-linejoin: miter; stroke-linecap: square"/>
   </g>
   <g id="patch_5">
    <path d="M 54 252 
L 388.8 252 
" style="fill: none; stroke: #000000; stroke-width: 0.8; stroke-linejoin: miter; stroke-linecap: square"/>
   </g>
   <g id="patch_6">
    <path d="M 54 34.56 
L 388.8 34.56 
" style="fill: none; stroke: #000000; stroke-width: 0.8; stroke-linejoin: miter; stroke-linecap: square"/>
   </g>
   <g id="text_23">
    <!-- Median NEPS vs. Program Size (10 f.c., nicolau_a) -->
    <g transform="translate(73.03125 28.56)scale(0.12 -0.12)">
     <defs>
      <path id="DejaVuSans-76" d="M 191 3500 
L 800 3500 
L 1894 563 
L 2988 3500 
L 3597 3500 
L 2284 0 
L 1503 0 
L 191 3500 
z
" transform="scale(0.015625)"/>
      <path id="DejaVuSans-2e" d="M 684 794 
L 1344 794 
L 1344 0 
L 684 0 
L 684 794 
z
" transform="scale(0.015625)"/>
      <path id="DejaVuSans-28" d="M 1984 4856 
Q 1566 4138 1362 3434 
Q 1159 2731 1159 2009 
Q 1159 1288 1364 580 
Q 1569 -128 1984 -844 
L 1484 -844 
Q 1016 -109 783 600 
Q 550 1309 550 2009 
Q 550 2706 781 3412 
Q 1013 4119 1484 4856 
L 1984 4856 
z
" transform="scale(0.015625)"/>
      <path id="DejaVuSans-66" d="M 2375 4863 
L 2375 4384 
L 1825 4384 
Q 1516 4384 1395 4259 
Q 1275 4134 1275 3809 
L 1275 3500 
L 2222 3500 
L 2222 3053 
L 1275 3053 
L 1275 0 
L 697 0 
L 697 3053 
L 147 3053 
L 147 3500 
L 697 3500 
L 697 3744 
Q 697 4328 969 4595 
Q 1241 4863 1831 4863 
L 2375 4863 
z
" transform="scale(0.015625)"/>
      <path id="DejaVuSans-63" d="M 3122 3366 
L 3122 2828 
Q 2878 2963 2633 3030 
Q 2388 3097 2138 3097 
Q 1578 3097 1268 2742 
Q 959 2388 959 1747 
Q 959 1106 1268 751 
Q 1578 397 2138 397 
Q 2388 397 2633 464 
Q 2878 531 3122 666 
L 3122 134 
Q 2881 22 2623 -34 
Q 2366 -91 2075 -91 
Q 1284 -91 818 406 
Q 353 903 353 1747 
Q 353 2603 823 3093 
Q 1294 3584 2113 3584 
Q 2378 3584 2631 3529 
Q 2884 3475 3122 3366 
z
" transform="scale(0.015625)"/>
      <path id="DejaVuSans-2c" d="M 750 794 
L 1409 794 
L 1409 256 
L 897 -744 
L 494 -744 
L 750 256 
L 750 794 
z
" transform="scale(0.015625)"/>
      <path id="DejaVuSans-6c" d="M 603 4863 
L 1178 4863 
L 1178 0 
L 603 0 
L 603 4863 
z
" transform="scale(0.015625)"/>
      <path id="DejaVuSans-75" d="M 544 1381 
L 544 3500 
L 1119 3500 
L 1119 1403 
Q 1119 906 1312 657 
Q 1506 409 1894 409 
Q 2359 409 2629 706 
Q 2900 1003 2900 1516 
L 2900 3500 
L 3475 3500 
L 3475 0 
L 2900 0 
L 2900 538 
Q 2691 219 2414 64 
Q 2138 -91 1772 -91 
Q 1169 -91 856 284 
Q 544 659 544 1381 
z
M 1991 3584 
L 1991 3584 
z
" transform="scale(0.015625)"/>
      <path id="DejaVuSans-5f" d="M 3263 -1063 
L 3263 -1509 
L -63 -1509 
L -63 -1063 
L 3263 -1063 
z
" transform="scale(0.015625)"/>
      <path id="DejaVuSans-29" d="M 513 4856 
L 1013 4856 
Q 1481 4119 1714 3412 
Q 1947 2706 1947 2009 
Q 1947 1309 1714 600 
Q 1481 -109 1013 -844 
L 513 -844 
Q 928 -128 1133 580 
Q 1338 1288 1338 2009 
Q 1338 2731 1133 3434 
Q 928 4138 513 4856 
z
" transform="scale(0.015625)"/>
     </defs>
     <use xlink:href="#DejaVuSans-4d"/>
     <use xlink:href="#DejaVuSans-65" x="86.279297"/>
     <use xlink:href="#DejaVuSans-64" x="147.802734"/>
     <use xlink:href="#DejaVuSans-69" x="211.279297"/>
     <use xlink:href="#DejaVuSans-61" x="239.0625"/>
     <use xlink:href="#DejaVuSans-6e" x="300.341797"/>
     <use xlink:href="#DejaVuSans-20" x="363.720703"/>
     <use xlink:href="#DejaVuSans-4e" x="395.507812"/>
     <use xlink:href="#DejaVuSans-45" x="470.3125"/>
     <use xlink:href="#DejaVuSans-50" x="533.496094"/>
     <use xlink:href="#DejaVuSans-53" x="593.798828"/>
     <use xlink:href="#DejaVuSans-20" x="657.275391"/>
     <use xlink:href="#DejaVuSans-76" x="689.0625"/>
     <use xlink:href="#DejaVuSans-73" x="748.242188"/>
     <use xlink:href="#DejaVuSans-2e" x="800.341797"/>
     <use xlink:href="#DejaVuSans-20" x="832.128906"/>
     <use xlink:href="#DejaVuSans-50" x="863.916016"/>
     <use xlink:href="#DejaVuSans-72" x="922.46875"/>
     <use xlink:href="#DejaVuSans-6f" x="961.332031"/>
     <use xlink:href="#DejaVuSans-67" x="1022.513672"/>
     <use xlink:href="#DejaVuSans-72" x="1085.990234"/>
     <use xlink:href="#DejaVuSans-61" x="1127.103516"/>
     <use xlink:href="#DejaVuSans-6d" x="1188.382812"/>
     <use xlink:href="#DejaVuSans-20" x="1285.794922"/>
     <use xlink:href="#DejaVuSans-53" x="1317.582031"/>
     <use xlink:href="#DejaVuSans-69" x="1381.058594"/>
     <use xlink:href="#DejaVuSans-7a" x="1408.841797"/>
     <use xlink:href="#DejaVuSans-65" x="1461.332031"/>
     <use xlink:href="#DejaVuSans-20" x="1522.855469"/>
     <use xlink:href="#DejaVuSans-28" x="1554.642578"/>
     <use xlink:href="#DejaVuSans-31" x="1593.65625"/>
     <use xlink:href="#DejaVuSans-30" x="1657.279297"/>
     <use xlink:href="#DejaVuSans-20" x="1720.902344"/>
     <use xlink:href="#DejaVuSans-66" x="1752.689453"/>
     <use xlink:href="#DejaVuSans-2e" x="1780.644531"/>
     <use xlink:href="#DejaVuSans-63" x="1812.431641"/>
     <use xlink:href="#DejaVuSans-2e" x="1867.412109"/>
     <use xlink:href="#DejaVuSans-2c" x="1899.199219"/>
     <use xlink:href="#DejaVuSans-20" x="1930.986328"/>
     <use xlink:href="#DejaVuSans-6e" x="1962.773438"/>
     <use xlink:href="#DejaVuSans-69" x="2026.152344"/>
     <use xlink:href="#DejaVuSans-63" x="2053.935547"/>
     <use xlink:href="#DejaVuSans-6f" x="2108.916016"/>
     <use xlink:href="#DejaVuSans-6c" x="2170.097656"/>
     <use xlink:href="#DejaVuSans-61" x="2197.880859"/>
     <use xlink:href="#DejaVuSans-75" x="2259.160156"/>
     <use xlink:href="#DejaVuSans-5f" x="2322.539062"/>
     <use xlink:href="#DejaVuSans-61" x="2372.539062"/>
     <use xlink:href="#DejaVuSans-29" x="2433.818359"/>
    </g>
   </g>
   <g id="legend_1">
    <g id="patch_7">
     <path d="M 61 101.2725 
L 171.19375 101.2725 
Q 173.19375 101.2725 173.19375 99.2725 
L 173.19375 41.56 
Q 173.19375 39.56 171.19375 39.56 
L 61 39.56 
Q 59 39.56 59 41.56 
L 59 99.2725 
Q 59 101.2725 61 101.2725 
z
" style="fill: #ffffff; opacity: 0.8; stroke: #cccccc; stroke-linejoin: miter"/>
    </g>
    <g id="line2d_68">
     <path d="M 63 47.658437 
L 73 47.658437 
L 83 47.658437 
" style="fill: none; stroke: #1f77b4; stroke-width: 1.5; stroke-linecap: square"/>
    </g>
    <g id="text_24">
     <!-- DEAP -->
     <g transform="translate(91 51.158437)scale(0.1 -0.1)">
      <defs>
       <path id="DejaVuSans-44" d="M 1259 4147 
L 1259 519 
L 2022 519 
Q 2988 519 3436 956 
Q 3884 1394 3884 2338 
Q 3884 3275 3436 3711 
Q 2988 4147 2022 4147 
L 1259 4147 
z
M 628 4666 
L 1925 4666 
Q 3281 4666 3915 4102 
Q 4550 3538 4550 2338 
Q 4550 1131 3912 565 
Q 3275 0 1925 0 
L 628 0 
L 628 4666 
z
" transform="scale(0.015625)"/>
       <path id="DejaVuSans-41" d="M 2188 4044 
L 1331 1722 
L 3047 1722 
L 2188 4044 
z
M 1831 4666 
L 2547 4666 
L 4325 0 
L 3669 0 
L 3244 1197 
L 1141 1197 
L 716 0 
L 50 0 
L 1831 4666 
z
" transform="scale(0.015625)"/>
      </defs>
      <use xlink:href="#DejaVuSans-44"/>
      <use xlink:href="#DejaVuSans-45" x="77.001953"/>
      <use xlink:href="#DejaVuSans-41" x="140.185547"/>
      <use xlink:href="#DejaVuSans-50" x="208.59375"/>
     </g>
    </g>
    <g id="line2d_69">
     <path d="M 63 62.336562 
L 73 62.336562 
L 83 62.336562 
" style="fill: none; stroke: #ff7f0e; stroke-width: 1.5; stroke-linecap: square"/>
    </g>
    <g id="text_25">
     <!-- TensorGP (CPU) -->
     <g transform="translate(91 65.836562)scale(0.1 -0.1)">
      <defs>
       <path id="DejaVuSans-54" d="M -19 4666 
L 3928 4666 
L 3928 4134 
L 2272 4134 
L 2272 0 
L 1638 0 
L 1638 4134 
L -19 4134 
L -19 4666 
z
" transform="scale(0.015625)"/>
       <path id="DejaVuSans-47" d="M 3809 666 
L 3809 1919 
L 2778 1919 
L 2778 2438 
L 4434 2438 
L 4434 434 
Q 4069 175 3628 42 
Q 3188 -91 2688 -91 
Q 1594 -91 976 548 
Q 359 1188 359 2328 
Q 359 3472 976 4111 
Q 1594 4750 2688 4750 
Q 3144 4750 3555 4637 
Q 3966 4525 4313 4306 
L 4313 3634 
Q 3963 3931 3569 4081 
Q 3175 4231 2741 4231 
Q 1884 4231 1454 3753 
Q 1025 3275 1025 2328 
Q 1025 1384 1454 906 
Q 1884 428 2741 428 
Q 3075 428 3337 486 
Q 3600 544 3809 666 
z
" transform="scale(0.015625)"/>
       <path id="DejaVuSans-43" d="M 4122 4306 
L 4122 3641 
Q 3803 3938 3442 4084 
Q 3081 4231 2675 4231 
Q 1875 4231 1450 3742 
Q 1025 3253 1025 2328 
Q 1025 1406 1450 917 
Q 1875 428 2675 428 
Q 3081 428 3442 575 
Q 3803 722 4122 1019 
L 4122 359 
Q 3791 134 3420 21 
Q 3050 -91 2638 -91 
Q 1578 -91 968 557 
Q 359 1206 359 2328 
Q 359 3453 968 4101 
Q 1578 4750 2638 4750 
Q 3056 4750 3426 4639 
Q 3797 4528 4122 4306 
z
" transform="scale(0.015625)"/>
       <path id="DejaVuSans-55" d="M 556 4666 
L 1191 4666 
L 1191 1831 
Q 1191 1081 1462 751 
Q 1734 422 2344 422 
Q 2950 422 3222 751 
Q 3494 1081 3494 1831 
L 3494 4666 
L 4128 4666 
L 4128 1753 
Q 4128 841 3676 375 
Q 3225 -91 2344 -91 
Q 1459 -91 1007 375 
Q 556 841 556 1753 
L 556 4666 
z
" transform="scale(0.015625)"/>
      </defs>
      <use xlink:href="#DejaVuSans-54"/>
      <use xlink:href="#DejaVuSans-65" x="44.083984"/>
      <use xlink:href="#DejaVuSans-6e" x="105.607422"/>
      <use xlink:href="#DejaVuSans-73" x="168.986328"/>
      <use xlink:href="#DejaVuSans-6f" x="221.085938"/>
      <use xlink:href="#DejaVuSans-72" x="282.267578"/>
      <use xlink:href="#DejaVuSans-47" x="323.380859"/>
      <use xlink:href="#DejaVuSans-50" x="400.871094"/>
      <use xlink:href="#DejaVuSans-20" x="461.173828"/>
      <use xlink:href="#DejaVuSans-28" x="492.960938"/>
      <use xlink:href="#DejaVuSans-43" x="531.974609"/>
      <use xlink:href="#DejaVuSans-50" x="601.798828"/>
      <use xlink:href="#DejaVuSans-55" x="662.101562"/>
      <use xlink:href="#DejaVuSans-29" x="735.294922"/>
     </g>
    </g>
    <g id="line2d_70">
     <path d="M 63 77.014687 
L 73 77.014687 
L 83 77.014687 
" style="fill: none; stroke: #2ca02c; stroke-width: 1.5; stroke-linecap: square"/>
    </g>
    <g id="text_26">
     <!-- TensorGP (GPU) -->
     <g transform="translate(91 80.514687)scale(0.1 -0.1)">
      <use xlink:href="#DejaVuSans-54"/>
      <use xlink:href="#DejaVuSans-65" x="44.083984"/>
      <use xlink:href="#DejaVuSans-6e" x="105.607422"/>
      <use xlink:href="#DejaVuSans-73" x="168.986328"/>
      <use xlink:href="#DejaVuSans-6f" x="221.085938"/>
      <use xlink:href="#DejaVuSans-72" x="282.267578"/>
      <use xlink:href="#DejaVuSans-47" x="323.380859"/>
      <use xlink:href="#DejaVuSans-50" x="400.871094"/>
      <use xlink:href="#DejaVuSans-20" x="461.173828"/>
      <use xlink:href="#DejaVuSans-28" x="492.960938"/>
      <use xlink:href="#DejaVuSans-47" x="531.974609"/>
      <use xlink:href="#DejaVuSans-50" x="609.464844"/>
      <use xlink:href="#DejaVuSans-55" x="669.767578"/>
      <use xlink:href="#DejaVuSans-29" x="742.960938"/>
     </g>
    </g>
    <g id="line2d_71">
     <path d="M 63 91.692813 
L 73 91.692813 
L 83 91.692813 
" style="fill: none; stroke: #d62728; stroke-width: 1.5; stroke-linecap: square"/>
    </g>
    <g id="text_27">
     <!-- Operon -->
     <g transform="translate(91 95.192813)scale(0.1 -0.1)">
      <defs>
       <path id="DejaVuSans-4f" d="M 2522 4238 
Q 1834 4238 1429 3725 
Q 1025 3213 1025 2328 
Q 1025 1447 1429 934 
Q 1834 422 2522 422 
Q 3209 422 3611 934 
Q 4013 1447 4013 2328 
Q 4013 3213 3611 3725 
Q 3209 4238 2522 4238 
z
M 2522 4750 
Q 3503 4750 4090 4092 
Q 4678 3434 4678 2328 
Q 4678 1225 4090 567 
Q 3503 -91 2522 -91 
Q 1538 -91 948 565 
Q 359 1222 359 2328 
Q 359 3434 948 4092 
Q 1538 4750 2522 4750 
z
" transform="scale(0.015625)"/>
       <path id="DejaVuSans-70" d="M 1159 525 
L 1159 -1331 
L 581 -1331 
L 581 3500 
L 1159 3500 
L 1159 2969 
Q 1341 3281 1617 3432 
Q 1894 3584 2278 3584 
Q 2916 3584 3314 3078 
Q 3713 2572 3713 1747 
Q 3713 922 3314 415 
Q 2916 -91 2278 -91 
Q 1894 -91 1617 61 
Q 1341 213 1159 525 
z
M 3116 1747 
Q 3116 2381 2855 2742 
Q 2594 3103 2138 3103 
Q 1681 3103 1420 2742 
Q 1159 2381 1159 1747 
Q 1159 1113 1420 752 
Q 1681 391 2138 391 
Q 2594 391 2855 752 
Q 3116 1113 3116 1747 
z
" transform="scale(0.015625)"/>
      </defs>
      <use xlink:href="#DejaVuSans-4f"/>
      <use xlink:href="#DejaVuSans-70" x="78.710938"/>
      <use xlink:href="#DejaVuSans-65" x="142.1875"/>
      <use xlink:href="#DejaVuSans-72" x="203.710938"/>
      <use xlink:href="#DejaVuSans-6f" x="242.574219"/>
      <use xlink:href="#DejaVuSans-6e" x="303.755859"/>
     </g>
    </g>
   </g>
  </g>
 </g>
 <defs>
  <clipPath id="p1c0386de7f">
   <rect x="54" y="34.56" width="334.8" height="217.44"/>
  </clipPath>
 </defs>
</svg>
