<?xml version="1.0" encoding="utf-8" standalone="no"?>
<!DOCTYPE svg PUBLIC "-//W3C//DTD SVG 1.1//EN"
  "http://www.w3.org/Graphics/SVG/1.1/DTD/svg11.dtd">
<svg xmlns:xlink="http://www.w3.org/1999/xlink" width="432pt" height="288pt" viewBox="0 0 432 288" xmlns="http://www.w3.org/2000/svg" version="1.1">
 <metadata>
  <rdf:RDF xmlns:dc="http://purl.org/dc/elements/1.1/" xmlns:cc="http://creativecommons.org/ns#" xmlns:rdf="http://www.w3.org/1999/02/22-rdf-syntax-ns#">
   <cc:Work>
    <dc:type rdf:resource="http://purl.org/dc/dcmitype/StillImage"/>
    <dc:date>2022-01-13T22:09:13.148474</dc:date>
    <dc:format>image/svg+xml</dc:format>
    <dc:creator>
     <cc:Agent>
      <dc:title>Matplotlib v3.5.1, https://matplotlib.org/</dc:title>
     </cc:Agent>
    </dc:creator>
   </cc:Work>
  </rdf:RDF>
 </metadata>
 <defs>
  <style type="text/css">*{stroke-linejoin: round; stroke-linecap: butt}</style>
 </defs>
 <g id="figure_1">
  <g id="patch_1">
   <path d="M 0 288 
L 432 288 
L 432 0 
L 0 0 
L 0 288 
z
" style="fill: none"/>
  </g>
  <g id="axes_1">
   <g id="patch_2">
    <path d="M 54 252 
L 388.8 252 
L 388.8 34.56 
L 54 34.56 
z
" style="fill: #ffffff"/>
   </g>
   <g id="PolyCollection_1">
    <path d="M 69.218182 238.079327 
L 69.218182 238.079327 
L 71.614746 196.168752 
L 74.01131 189.210338 
L 76.407874 186.481241 
L 78.804438 181.308782 
L 81.201002 179.301348 
L 83.597566 175.581163 
L 85.99413 174.751488 
L 88.390694 173.439734 
L 90.787258 174.362441 
L 93.183822 170.956608 
L 95.580387 170.200016 
L 97.976951 169.861599 
L 100.373515 167.454011 
L 102.770079 168.53937 
L 105.166643 167.251895 
L 107.563207 165.45444 
L 109.959771 166.210251 
L 112.356335 165.776198 
L 114.752899 164.930796 
L 117.149463 164.871574 
L 119.546027 165.009634 
L 121.942591 164.683939 
L 124.339155 163.085407 
L 126.735719 156.309948 
L 129.132283 159.93346 
L 131.528848 158.758112 
L 133.925412 155.838102 
L 136.321976 154.462024 
L 138.71854 155.979125 
L 141.115104 155.943402 
L 143.511668 154.224553 
L 145.908232 155.00791 
L 148.304796 154.637585 
L 150.70136 153.860661 
L 153.097924 155.286481 
L 155.494488 152.39328 
L 157.891052 153.776253 
L 160.287616 154.27368 
L 162.68418 152.46848 
L 165.080744 151.776743 
L 167.477309 153.417583 
L 169.873873 151.404335 
L 172.270437 151.804428 
L 174.667001 150.438236 
L 177.063565 150.207728 
L 179.460129 149.862921 
L 181.856693 151.209013 
L 184.253257 150.855209 
L 186.649821 149.488007 
L 189.046385 149.717348 
L 191.442949 151.000108 
L 193.839513 149.597851 
L 196.236077 148.804206 
L 198.632641 147.965143 
L 201.029205 148.43287 
L 203.42577 150.594208 
L 205.822334 149.274646 
L 208.218898 149.771806 
L 210.615462 148.018407 
L 213.012026 147.912911 
L 215.40859 147.608006 
L 217.805154 148.929709 
L 220.201718 147.449102 
L 222.598282 147.988038 
L 224.994846 149.251877 
L 227.39141 148.339424 
L 229.787974 146.736915 
L 232.184538 146.937162 
L 234.581102 147.203283 
L 236.977666 148.168998 
L 239.37423 146.028381 
L 241.770795 146.830563 
L 244.167359 146.420358 
L 246.563923 147.472369 
L 248.960487 146.047735 
L 251.357051 146.370337 
L 253.753615 146.241801 
L 256.150179 145.284472 
L 258.546743 148.780907 
L 260.943307 144.871481 
L 263.339871 145.42816 
L 265.736435 144.345596 
L 268.132999 145.67498 
L 270.529563 145.399857 
L 272.926127 144.913393 
L 275.322691 145.26391 
L 277.719256 145.816081 
L 280.11582 145.29432 
L 282.512384 143.252862 
L 284.908948 145.783491 
L 287.305512 144.305 
L 289.702076 144.590863 
L 292.09864 144.167784 
L 294.495204 144.503276 
L 296.891768 146.190171 
L 299.288332 144.521781 
L 301.684896 143.447574 
L 304.08146 143.87583 
L 306.478024 143.365246 
L 308.874588 142.890988 
L 311.271152 143.329838 
L 313.667717 143.648169 
L 316.064281 144.162758 
L 318.460845 143.365968 
L 320.857409 146.117379 
L 323.253973 143.744995 
L 325.650537 143.05687 
L 328.047101 143.652036 
L 330.443665 142.331156 
L 332.840229 143.927281 
L 335.236793 143.455673 
L 337.633357 143.489255 
L 340.029921 144.799468 
L 342.426485 142.793622 
L 344.823049 145.11714 
L 347.219613 143.733764 
L 349.616178 141.758822 
L 352.012742 142.015452 
L 354.409306 142.896406 
L 356.80587 142.078252 
L 359.202434 144.285081 
L 361.598998 141.910629 
L 363.995562 141.494033 
L 366.392126 142.108622 
L 368.78869 142.999924 
L 371.185254 143.149905 
L 373.581818 141.787793 
L 373.581818 141.787793 
L 373.581818 141.787793 
L 371.185254 143.149905 
L 368.78869 142.999924 
L 366.392126 142.108622 
L 363.995562 141.494033 
L 361.598998 141.910629 
L 359.202434 144.285081 
L 356.80587 142.078252 
L 354.409306 142.896406 
L 352.012742 142.015452 
L 349.616178 141.758822 
L 347.219613 143.733764 
L 344.823049 145.11714 
L 342.426485 142.793622 
L 340.029921 144.799468 
L 337.633357 143.489255 
L 335.236793 143.455673 
L 332.840229 143.927281 
L 330.443665 142.331156 
L 328.047101 143.652036 
L 325.650537 143.05687 
L 323.253973 143.744995 
L 320.857409 146.117379 
L 318.460845 143.365968 
L 316.064281 144.162758 
L 313.667717 143.648169 
L 311.271152 143.329838 
L 308.874588 142.890988 
L 306.478024 143.365246 
L 304.08146 143.87583 
L 301.684896 143.447574 
L 299.288332 144.521781 
L 296.891768 146.190171 
L 294.495204 144.503276 
L 292.09864 144.167784 
L 289.702076 144.590863 
L 287.305512 144.305 
L 284.908948 145.783491 
L 282.512384 143.252862 
L 280.11582 145.29432 
L 277.719256 145.816081 
L 275.322691 145.26391 
L 272.926127 144.913393 
L 270.529563 145.399857 
L 268.132999 145.67498 
L 265.736435 144.345596 
L 263.339871 145.42816 
L 260.943307 144.871481 
L 258.546743 148.780907 
L 256.150179 145.284472 
L 253.753615 146.241801 
L 251.357051 146.370337 
L 248.960487 146.047735 
L 246.563923 147.472369 
L 244.167359 146.420358 
L 241.770795 146.830563 
L 239.37423 146.028381 
L 236.977666 148.168998 
L 234.581102 147.203283 
L 232.184538 146.937162 
L 229.787974 146.736915 
L 227.39141 148.339424 
L 224.994846 149.251877 
L 222.598282 147.988038 
L 220.201718 147.449102 
L 217.805154 148.929709 
L 215.40859 147.608006 
L 213.012026 147.912911 
L 210.615462 148.018407 
L 208.218898 149.771806 
L 205.822334 149.274646 
L 203.42577 150.594208 
L 201.029205 148.43287 
L 198.632641 147.965143 
L 196.236077 148.804206 
L 193.839513 149.597851 
L 191.442949 151.000108 
L 189.046385 149.717348 
L 186.649821 149.488007 
L 184.253257 150.855209 
L 181.856693 151.209013 
L 179.460129 149.862921 
L 177.063565 150.207728 
L 174.667001 150.438236 
L 172.270437 151.804428 
L 169.873873 151.404335 
L 167.477309 153.417583 
L 165.080744 151.776743 
L 162.68418 152.46848 
L 160.287616 154.27368 
L 157.891052 153.776253 
L 155.494488 152.39328 
L 153.097924 155.286481 
L 150.70136 153.860661 
L 148.304796 154.637585 
L 145.908232 155.00791 
L 143.511668 154.224553 
L 141.115104 155.943402 
L 138.71854 155.979125 
L 136.321976 154.462024 
L 133.925412 155.838102 
L 131.528848 158.758112 
L 129.132283 159.93346 
L 126.735719 156.309948 
L 124.339155 163.085407 
L 121.942591 164.683939 
L 119.546027 165.009634 
L 117.149463 164.871574 
L 114.752899 164.930796 
L 112.356335 165.776198 
L 109.959771 166.210251 
L 107.563207 165.45444 
L 105.166643 167.251895 
L 102.770079 168.53937 
L 100.373515 167.454011 
L 97.976951 169.861599 
L 95.580387 170.200016 
L 93.183822 170.956608 
L 90.787258 174.362441 
L 88.390694 173.439734 
L 85.99413 174.751488 
L 83.597566 175.581163 
L 81.201002 179.301348 
L 78.804438 181.308782 
L 76.407874 186.481241 
L 74.01131 189.210338 
L 71.614746 196.168752 
L 69.218182 238.079327 
z
" clip-path="url(#p3f97ccdc43)" style="fill: #1f77b4"/>
   </g>
   <g id="PolyCollection_2">
    <path d="M 69.218182 242.116364 
L 69.218182 242.116364 
L 71.614746 176.620095 
L 74.01131 165.635136 
L 76.407874 161.573432 
L 78.804438 160.396478 
L 81.201002 160.002798 
L 83.597566 154.941825 
L 85.99413 159.192082 
L 88.390694 158.208781 
L 90.787258 157.101967 
L 93.183822 152.651631 
L 95.580387 152.105912 
L 97.976951 150.096256 
L 100.373515 158.019217 
L 102.770079 155.876465 
L 105.166643 151.394511 
L 107.563207 151.712029 
L 109.959771 151.285699 
L 112.356335 151.854517 
L 114.752899 146.995998 
L 117.149463 148.027057 
L 119.546027 148.416729 
L 121.942591 148.857975 
L 124.339155 149.037077 
L 126.735719 149.827495 
L 129.132283 149.325717 
L 131.528848 148.856167 
L 133.925412 145.292881 
L 136.321976 145.481169 
L 138.71854 145.983621 
L 141.115104 148.964757 
L 143.511668 145.435286 
L 145.908232 146.319821 
L 148.304796 145.854643 
L 150.70136 147.178395 
L 153.097924 146.031065 
L 155.494488 144.948742 
L 157.891052 147.169413 
L 160.287616 148.726672 
L 162.68418 146.093087 
L 165.080744 143.610829 
L 167.477309 147.043 
L 169.873873 145.293789 
L 172.270437 145.953174 
L 174.667001 145.789933 
L 177.063565 146.29437 
L 179.460129 147.50606 
L 181.856693 146.590112 
L 184.253257 146.895849 
L 186.649821 145.581889 
L 189.046385 146.783618 
L 191.442949 146.788131 
L 193.839513 144.671624 
L 196.236077 147.262252 
L 198.632641 147.47515 
L 201.029205 146.549445 
L 203.42577 147.907814 
L 205.822334 146.433795 
L 208.218898 147.894838 
L 210.615462 146.293637 
L 213.012026 145.968493 
L 215.40859 144.190678 
L 217.805154 144.172591 
L 220.201718 145.707561 
L 222.598282 148.105223 
L 224.994846 146.725279 
L 227.39141 146.103514 
L 229.787974 145.003857 
L 232.184538 148.363166 
L 234.581102 144.256322 
L 236.977666 145.12927 
L 239.37423 145.031929 
L 241.770795 145.292478 
L 244.167359 146.760947 
L 246.563923 145.367177 
L 248.960487 145.485254 
L 251.357051 146.544331 
L 253.753615 146.192152 
L 256.150179 144.396093 
L 258.546743 144.766767 
L 260.943307 144.576896 
L 263.339871 148.103282 
L 265.736435 145.303187 
L 268.132999 145.406899 
L 270.529563 147.52814 
L 272.926127 148.488598 
L 275.322691 145.746496 
L 277.719256 145.279964 
L 280.11582 147.968346 
L 282.512384 144.678918 
L 284.908948 145.433175 
L 287.305512 144.760147 
L 289.702076 143.246981 
L 292.09864 143.542706 
L 294.495204 144.751976 
L 296.891768 145.569153 
L 299.288332 144.3319 
L 301.684896 144.864459 
L 304.08146 143.055005 
L 306.478024 148.076535 
L 308.874588 141.954482 
L 311.271152 143.593715 
L 313.667717 145.177442 
L 316.064281 143.709657 
L 318.460845 145.69291 
L 320.857409 143.814378 
L 323.253973 143.963973 
L 325.650537 144.103608 
L 328.047101 146.40788 
L 330.443665 144.370686 
L 332.840229 145.165531 
L 335.236793 146.010154 
L 337.633357 142.544305 
L 340.029921 143.049113 
L 342.426485 144.217513 
L 344.823049 143.953667 
L 347.219613 143.419189 
L 349.616178 144.238684 
L 352.012742 149.074327 
L 354.409306 143.046098 
L 356.80587 145.803958 
L 359.202434 143.873772 
L 361.598998 143.377134 
L 363.995562 145.230495 
L 366.392126 143.597449 
L 368.78869 144.944633 
L 371.185254 145.552595 
L 373.581818 143.631172 
L 373.581818 143.631172 
L 373.581818 143.631172 
L 371.185254 145.552595 
L 368.78869 144.944633 
L 366.392126 143.597449 
L 363.995562 145.230495 
L 361.598998 143.377134 
L 359.202434 143.873772 
L 356.80587 145.803958 
L 354.409306 143.046098 
L 352.012742 149.074327 
L 349.616178 144.238684 
L 347.219613 143.419189 
L 344.823049 143.953667 
L 342.426485 144.217513 
L 340.029921 143.049113 
L 337.633357 142.544305 
L 335.236793 146.010154 
L 332.840229 145.165531 
L 330.443665 144.370686 
L 328.047101 146.40788 
L 325.650537 144.103608 
L 323.253973 143.963973 
L 320.857409 143.814378 
L 318.460845 145.69291 
L 316.064281 143.709657 
L 313.667717 145.177442 
L 311.271152 143.593715 
L 308.874588 141.954482 
L 306.478024 148.076535 
L 304.08146 143.055005 
L 301.684896 144.864459 
L 299.288332 144.3319 
L 296.891768 145.569153 
L 294.495204 144.751976 
L 292.09864 143.542706 
L 289.702076 143.246981 
L 287.305512 144.760147 
L 284.908948 145.433175 
L 282.512384 144.678918 
L 280.11582 147.968346 
L 277.719256 145.279964 
L 275.322691 145.746496 
L 272.926127 148.488598 
L 270.529563 147.52814 
L 268.132999 145.406899 
L 265.736435 145.303187 
L 263.339871 148.103282 
L 260.943307 144.576896 
L 258.546743 144.766767 
L 256.150179 144.396093 
L 253.753615 146.192152 
L 251.357051 146.544331 
L 248.960487 145.485254 
L 246.563923 145.367177 
L 244.167359 146.760947 
L 241.770795 145.292478 
L 239.37423 145.031929 
L 236.977666 145.12927 
L 234.581102 144.256322 
L 232.184538 148.363166 
L 229.787974 145.003857 
L 227.39141 146.103514 
L 224.994846 146.725279 
L 222.598282 148.105223 
L 220.201718 145.707561 
L 217.805154 144.172591 
L 215.40859 144.190678 
L 213.012026 145.968493 
L 210.615462 146.293637 
L 208.218898 147.894838 
L 205.822334 146.433795 
L 203.42577 147.907814 
L 201.029205 146.549445 
L 198.632641 147.47515 
L 196.236077 147.262252 
L 193.839513 144.671624 
L 191.442949 146.788131 
L 189.046385 146.783618 
L 186.649821 145.581889 
L 184.253257 146.895849 
L 181.856693 146.590112 
L 179.460129 147.50606 
L 177.063565 146.29437 
L 174.667001 145.789933 
L 172.270437 145.953174 
L 169.873873 145.293789 
L 167.477309 147.043 
L 165.080744 143.610829 
L 162.68418 146.093087 
L 160.287616 148.726672 
L 157.891052 147.169413 
L 155.494488 144.948742 
L 153.097924 146.031065 
L 150.70136 147.178395 
L 148.304796 145.854643 
L 145.908232 146.319821 
L 143.511668 145.435286 
L 141.115104 148.964757 
L 138.71854 145.983621 
L 136.321976 145.481169 
L 133.925412 145.292881 
L 131.528848 148.856167 
L 129.132283 149.325717 
L 126.735719 149.827495 
L 124.339155 149.037077 
L 121.942591 148.857975 
L 119.546027 148.416729 
L 117.149463 148.027057 
L 114.752899 146.995998 
L 112.356335 151.854517 
L 109.959771 151.285699 
L 107.563207 151.712029 
L 105.166643 151.394511 
L 102.770079 155.876465 
L 100.373515 158.019217 
L 97.976951 150.096256 
L 95.580387 152.105912 
L 93.183822 152.651631 
L 90.787258 157.101967 
L 88.390694 158.208781 
L 85.99413 159.192082 
L 83.597566 154.941825 
L 81.201002 160.002798 
L 78.804438 160.396478 
L 76.407874 161.573432 
L 74.01131 165.635136 
L 71.614746 176.620095 
L 69.218182 242.116364 
z
" clip-path="url(#p3f97ccdc43)" style="fill: #ff7f0e"/>
   </g>
   <g id="PolyCollection_3">
    <path d="M 69.218182 165.775938 
L 69.218182 168.973634 
L 71.614746 124.127044 
L 74.01131 117.97941 
L 76.407874 114.197872 
L 78.804438 111.091553 
L 81.201002 107.8951 
L 83.597566 106.763873 
L 85.99413 105.000023 
L 88.390694 103.040996 
L 90.787258 28808.249464 
L 93.183822 100.239846 
L 95.580387 101.078953 
L 97.976951 99.384643 
L 100.373515 96.888276 
L 102.770079 96.514032 
L 105.166643 96.723237 
L 107.563207 95.862678 
L 109.959771 94.792315 
L 112.356335 93.777454 
L 114.752899 92.980585 
L 117.149463 92.54261 
L 119.546027 91.497681 
L 121.942591 91.30935 
L 124.339155 90.346754 
L 126.735719 91.120707 
L 129.132283 89.371329 
L 131.528848 90.312895 
L 133.925412 89.156419 
L 136.321976 88.242031 
L 138.71854 87.422575 
L 141.115104 87.01526 
L 143.511668 86.87359 
L 145.908232 86.16642 
L 148.304796 85.642754 
L 150.70136 85.708753 
L 153.097924 85.866964 
L 155.494488 85.847212 
L 157.891052 85.712116 
L 160.287616 84.871146 
L 162.68418 84.132162 
L 165.080744 84.567162 
L 167.477309 84.554403 
L 169.873873 86.059756 
L 172.270437 82.973373 
L 174.667001 82.454391 
L 177.063565 83.175605 
L 179.460129 82.160241 
L 181.856693 81.811802 
L 184.253257 81.80127 
L 186.649821 81.859734 
L 189.046385 80.876024 
L 191.442949 81.159325 
L 193.839513 80.920594 
L 196.236077 81.663874 
L 198.632641 79.931538 
L 201.029205 79.768753 
L 203.42577 79.872536 
L 205.822334 80.159611 
L 208.218898 79.584001 
L 210.615462 79.333447 
L 213.012026 78.70137 
L 215.40859 78.821394 
L 217.805154 78.924193 
L 220.201718 78.616126 
L 222.598282 77.865987 
L 224.994846 77.771307 
L 227.39141 77.505759 
L 229.787974 78.00248 
L 232.184538 78.501041 
L 234.581102 76.8175 
L 236.977666 77.275226 
L 239.37423 76.823573 
L 241.770795 76.75821 
L 244.167359 76.265396 
L 246.563923 76.44015 
L 248.960487 76.605323 
L 251.357051 75.790423 
L 253.753615 76.602319 
L 256.150179 76.569866 
L 258.546743 76.245142 
L 260.943307 75.348089 
L 263.339871 74.683256 
L 265.736435 75.40565 
L 268.132999 73.985489 
L 270.529563 75.924014 
L 272.926127 75.174806 
L 275.322691 74.345326 
L 277.719256 74.010255 
L 280.11582 74.977914 
L 282.512384 73.422992 
L 284.908948 74.38884 
L 287.305512 74.23263 
L 289.702076 73.350692 
L 292.09864 75.722841 
L 294.495204 72.914524 
L 296.891768 73.951529 
L 299.288332 74.746113 
L 301.684896 73.954799 
L 304.08146 75.507679 
L 306.478024 28808.249464 
L 308.874588 72.876622 
L 311.271152 73.004761 
L 313.667717 71.989223 
L 316.064281 72.74546 
L 318.460845 72.626716 
L 320.857409 72.0828 
L 323.253973 72.000428 
L 325.650537 71.987455 
L 328.047101 71.71186 
L 330.443665 72.455345 
L 332.840229 71.701033 
L 335.236793 71.178166 
L 337.633357 71.330899 
L 340.029921 70.846092 
L 342.426485 70.755762 
L 344.823049 70.900666 
L 347.219613 70.621607 
L 349.616178 70.294261 
L 352.012742 70.750268 
L 354.409306 69.376729 
L 356.80587 68.957404 
L 359.202434 70.011658 
L 361.598998 71.003076 
L 363.995562 70.587588 
L 366.392126 70.873516 
L 368.78869 69.39646 
L 371.185254 69.375499 
L 373.581818 69.0609 
L 373.581818 67.871082 
L 373.581818 67.871082 
L 371.185254 67.705761 
L 368.78869 68.990882 
L 366.392126 68.196724 
L 363.995562 68.85985 
L 361.598998 70.388093 
L 359.202434 68.313457 
L 356.80587 67.121431 
L 354.409306 68.427363 
L 352.012742 69.250044 
L 349.616178 69.77927 
L 347.219613 69.400017 
L 344.823049 70.175103 
L 342.426485 69.625977 
L 340.029921 70.157995 
L 337.633357 70.767144 
L 335.236793 69.342562 
L 332.840229 69.893428 
L 330.443665 71.348527 
L 328.047101 71.364484 
L 325.650537 71.08968 
L 323.253973 71.337398 
L 320.857409 71.589521 
L 318.460845 71.107915 
L 316.064281 71.711447 
L 313.667717 71.046217 
L 311.271152 72.674269 
L 308.874588 72.020743 
L 306.478024 44.443636 
L 304.08146 71.765784 
L 301.684896 72.753998 
L 299.288332 72.828975 
L 296.891768 72.372385 
L 294.495204 71.839609 
L 292.09864 72.187331 
L 289.702076 71.155893 
L 287.305512 72.114809 
L 284.908948 70.953436 
L 282.512384 72.235241 
L 280.11582 72.573639 
L 277.719256 71.437965 
L 275.322691 72.712309 
L 272.926127 73.26281 
L 270.529563 73.792206 
L 268.132999 73.51104 
L 265.736435 73.128416 
L 263.339871 72.835861 
L 260.943307 74.176771 
L 258.546743 74.947235 
L 256.150179 75.733356 
L 253.753615 74.592953 
L 251.357051 75.455634 
L 248.960487 75.148062 
L 246.563923 75.530345 
L 244.167359 75.684774 
L 241.770795 75.695942 
L 239.37423 76.216132 
L 236.977666 76.494599 
L 234.581102 75.543414 
L 232.184538 77.106656 
L 229.787974 77.323894 
L 227.39141 76.771065 
L 224.994846 77.227703 
L 222.598282 76.508647 
L 220.201718 77.570083 
L 217.805154 77.88604 
L 215.40859 77.569356 
L 213.012026 78.366849 
L 210.615462 78.450674 
L 208.218898 78.549361 
L 205.822334 78.233493 
L 203.42577 78.649543 
L 201.029205 78.947889 
L 198.632641 78.774381 
L 196.236077 79.132199 
L 193.839513 80.551646 
L 191.442949 79.49459 
L 189.046385 80.435162 
L 186.649821 80.502832 
L 184.253257 80.717133 
L 181.856693 80.967384 
L 179.460129 81.63241 
L 177.063565 81.833156 
L 174.667001 82.038512 
L 172.270437 81.433293 
L 169.873873 82.633174 
L 167.477309 83.671168 
L 165.080744 83.632016 
L 162.68418 83.764219 
L 160.287616 83.185451 
L 157.891052 84.635692 
L 155.494488 84.318708 
L 153.097924 85.512262 
L 150.70136 85.495326 
L 148.304796 84.762743 
L 145.908232 85.438057 
L 143.511668 86.358586 
L 141.115104 86.542807 
L 138.71854 86.931645 
L 136.321976 87.627909 
L 133.925412 87.635125 
L 131.528848 89.003752 
L 129.132283 89.120037 
L 126.735719 88.577533 
L 124.339155 89.451047 
L 121.942591 90.826924 
L 119.546027 91.001345 
L 117.149463 91.488085 
L 114.752899 92.641222 
L 112.356335 92.869372 
L 109.959771 93.362395 
L 107.563207 95.304665 
L 105.166643 94.604959 
L 102.770079 95.92128 
L 100.373515 95.765793 
L 97.976951 96.395756 
L 95.580387 98.193065 
L 93.183822 99.334279 
L 90.787258 71.383134 
L 88.390694 102.378551 
L 85.99413 104.068111 
L 83.597566 105.039019 
L 81.201002 107.312893 
L 78.804438 109.58481 
L 76.407874 113.22316 
L 74.01131 117.363123 
L 71.614746 123.815168 
L 69.218182 165.775938 
z
" clip-path="url(#p3f97ccdc43)" style="fill: #2ca02c"/>
   </g>
   <g id="matplotlib.axis_1">
    <g id="xtick_1">
     <g id="line2d_1">
      <defs>
       <path id="m96d260fc4c" d="M 0 0 
L 0 3.5 
" style="stroke: #000000; stroke-width: 0.8"/>
      </defs>
      <g>
       <use xlink:href="#m96d260fc4c" x="69.218182" y="252" style="stroke: #000000; stroke-width: 0.8"/>
      </g>
     </g>
     <g id="text_1">
      <!-- 1 -->
      <g transform="translate(66.036932 266.598437)scale(0.1 -0.1)">
       <defs>
        <path id="DejaVuSans-31" d="M 794 531 
L 1825 531 
L 1825 4091 
L 703 3866 
L 703 4441 
L 1819 4666 
L 2450 4666 
L 2450 531 
L 3481 531 
L 3481 0 
L 794 0 
L 794 531 
z
" transform="scale(0.015625)"/>
       </defs>
       <use xlink:href="#DejaVuSans-31"/>
      </g>
     </g>
    </g>
    <g id="xtick_2">
     <g id="line2d_2">
      <g>
       <use xlink:href="#m96d260fc4c" x="90.787258" y="252" style="stroke: #000000; stroke-width: 0.8"/>
      </g>
     </g>
     <g id="text_2">
      <!-- 19 -->
      <g transform="translate(84.424758 266.598437)scale(0.1 -0.1)">
       <defs>
        <path id="DejaVuSans-39" d="M 703 97 
L 703 672 
Q 941 559 1184 500 
Q 1428 441 1663 441 
Q 2288 441 2617 861 
Q 2947 1281 2994 2138 
Q 2813 1869 2534 1725 
Q 2256 1581 1919 1581 
Q 1219 1581 811 2004 
Q 403 2428 403 3163 
Q 403 3881 828 4315 
Q 1253 4750 1959 4750 
Q 2769 4750 3195 4129 
Q 3622 3509 3622 2328 
Q 3622 1225 3098 567 
Q 2575 -91 1691 -91 
Q 1453 -91 1209 -44 
Q 966 3 703 97 
z
M 1959 2075 
Q 2384 2075 2632 2365 
Q 2881 2656 2881 3163 
Q 2881 3666 2632 3958 
Q 2384 4250 1959 4250 
Q 1534 4250 1286 3958 
Q 1038 3666 1038 3163 
Q 1038 2656 1286 2365 
Q 1534 2075 1959 2075 
z
" transform="scale(0.015625)"/>
       </defs>
       <use xlink:href="#DejaVuSans-31"/>
       <use xlink:href="#DejaVuSans-39" x="63.623047"/>
      </g>
     </g>
    </g>
    <g id="xtick_3">
     <g id="line2d_3">
      <g>
       <use xlink:href="#m96d260fc4c" x="112.356335" y="252" style="stroke: #000000; stroke-width: 0.8"/>
      </g>
     </g>
     <g id="text_3">
      <!-- 37 -->
      <g transform="translate(105.993835 266.598437)scale(0.1 -0.1)">
       <defs>
        <path id="DejaVuSans-33" d="M 2597 2516 
Q 3050 2419 3304 2112 
Q 3559 1806 3559 1356 
Q 3559 666 3084 287 
Q 2609 -91 1734 -91 
Q 1441 -91 1130 -33 
Q 819 25 488 141 
L 488 750 
Q 750 597 1062 519 
Q 1375 441 1716 441 
Q 2309 441 2620 675 
Q 2931 909 2931 1356 
Q 2931 1769 2642 2001 
Q 2353 2234 1838 2234 
L 1294 2234 
L 1294 2753 
L 1863 2753 
Q 2328 2753 2575 2939 
Q 2822 3125 2822 3475 
Q 2822 3834 2567 4026 
Q 2313 4219 1838 4219 
Q 1578 4219 1281 4162 
Q 984 4106 628 3988 
L 628 4550 
Q 988 4650 1302 4700 
Q 1616 4750 1894 4750 
Q 2613 4750 3031 4423 
Q 3450 4097 3450 3541 
Q 3450 3153 3228 2886 
Q 3006 2619 2597 2516 
z
" transform="scale(0.015625)"/>
        <path id="DejaVuSans-37" d="M 525 4666 
L 3525 4666 
L 3525 4397 
L 1831 0 
L 1172 0 
L 2766 4134 
L 525 4134 
L 525 4666 
z
" transform="scale(0.015625)"/>
       </defs>
       <use xlink:href="#DejaVuSans-33"/>
       <use xlink:href="#DejaVuSans-37" x="63.623047"/>
      </g>
     </g>
    </g>
    <g id="xtick_4">
     <g id="line2d_4">
      <g>
       <use xlink:href="#m96d260fc4c" x="133.925412" y="252" style="stroke: #000000; stroke-width: 0.8"/>
      </g>
     </g>
     <g id="text_4">
      <!-- 55 -->
      <g transform="translate(127.562912 266.598437)scale(0.1 -0.1)">
       <defs>
        <path id="DejaVuSans-35" d="M 691 4666 
L 3169 4666 
L 3169 4134 
L 1269 4134 
L 1269 2991 
Q 1406 3038 1543 3061 
Q 1681 3084 1819 3084 
Q 2600 3084 3056 2656 
Q 3513 2228 3513 1497 
Q 3513 744 3044 326 
Q 2575 -91 1722 -91 
Q 1428 -91 1123 -41 
Q 819 9 494 109 
L 494 744 
Q 775 591 1075 516 
Q 1375 441 1709 441 
Q 2250 441 2565 725 
Q 2881 1009 2881 1497 
Q 2881 1984 2565 2268 
Q 2250 2553 1709 2553 
Q 1456 2553 1204 2497 
Q 953 2441 691 2322 
L 691 4666 
z
" transform="scale(0.015625)"/>
       </defs>
       <use xlink:href="#DejaVuSans-35"/>
       <use xlink:href="#DejaVuSans-35" x="63.623047"/>
      </g>
     </g>
    </g>
    <g id="xtick_5">
     <g id="line2d_5">
      <g>
       <use xlink:href="#m96d260fc4c" x="155.494488" y="252" style="stroke: #000000; stroke-width: 0.8"/>
      </g>
     </g>
     <g id="text_5">
      <!-- 73 -->
      <g transform="translate(149.131988 266.598437)scale(0.1 -0.1)">
       <use xlink:href="#DejaVuSans-37"/>
       <use xlink:href="#DejaVuSans-33" x="63.623047"/>
      </g>
     </g>
    </g>
    <g id="xtick_6">
     <g id="line2d_6">
      <g>
       <use xlink:href="#m96d260fc4c" x="177.063565" y="252" style="stroke: #000000; stroke-width: 0.8"/>
      </g>
     </g>
     <g id="text_6">
      <!-- 91 -->
      <g transform="translate(170.701065 266.598437)scale(0.1 -0.1)">
       <use xlink:href="#DejaVuSans-39"/>
       <use xlink:href="#DejaVuSans-31" x="63.623047"/>
      </g>
     </g>
    </g>
    <g id="xtick_7">
     <g id="line2d_7">
      <g>
       <use xlink:href="#m96d260fc4c" x="198.632641" y="252" style="stroke: #000000; stroke-width: 0.8"/>
      </g>
     </g>
     <g id="text_7">
      <!-- 109 -->
      <g transform="translate(189.088891 266.598437)scale(0.1 -0.1)">
       <defs>
        <path id="DejaVuSans-30" d="M 2034 4250 
Q 1547 4250 1301 3770 
Q 1056 3291 1056 2328 
Q 1056 1369 1301 889 
Q 1547 409 2034 409 
Q 2525 409 2770 889 
Q 3016 1369 3016 2328 
Q 3016 3291 2770 3770 
Q 2525 4250 2034 4250 
z
M 2034 4750 
Q 2819 4750 3233 4129 
Q 3647 3509 3647 2328 
Q 3647 1150 3233 529 
Q 2819 -91 2034 -91 
Q 1250 -91 836 529 
Q 422 1150 422 2328 
Q 422 3509 836 4129 
Q 1250 4750 2034 4750 
z
" transform="scale(0.015625)"/>
       </defs>
       <use xlink:href="#DejaVuSans-31"/>
       <use xlink:href="#DejaVuSans-30" x="63.623047"/>
       <use xlink:href="#DejaVuSans-39" x="127.246094"/>
      </g>
     </g>
    </g>
    <g id="xtick_8">
     <g id="line2d_8">
      <g>
       <use xlink:href="#m96d260fc4c" x="220.201718" y="252" style="stroke: #000000; stroke-width: 0.8"/>
      </g>
     </g>
     <g id="text_8">
      <!-- 127 -->
      <g transform="translate(210.657968 266.598437)scale(0.1 -0.1)">
       <defs>
        <path id="DejaVuSans-32" d="M 1228 531 
L 3431 531 
L 3431 0 
L 469 0 
L 469 531 
Q 828 903 1448 1529 
Q 2069 2156 2228 2338 
Q 2531 2678 2651 2914 
Q 2772 3150 2772 3378 
Q 2772 3750 2511 3984 
Q 2250 4219 1831 4219 
Q 1534 4219 1204 4116 
Q 875 4013 500 3803 
L 500 4441 
Q 881 4594 1212 4672 
Q 1544 4750 1819 4750 
Q 2544 4750 2975 4387 
Q 3406 4025 3406 3419 
Q 3406 3131 3298 2873 
Q 3191 2616 2906 2266 
Q 2828 2175 2409 1742 
Q 1991 1309 1228 531 
z
" transform="scale(0.015625)"/>
       </defs>
       <use xlink:href="#DejaVuSans-31"/>
       <use xlink:href="#DejaVuSans-32" x="63.623047"/>
       <use xlink:href="#DejaVuSans-37" x="127.246094"/>
      </g>
     </g>
    </g>
    <g id="xtick_9">
     <g id="line2d_9">
      <g>
       <use xlink:href="#m96d260fc4c" x="241.770795" y="252" style="stroke: #000000; stroke-width: 0.8"/>
      </g>
     </g>
     <g id="text_9">
      <!-- 145 -->
      <g transform="translate(232.227045 266.598437)scale(0.1 -0.1)">
       <defs>
        <path id="DejaVuSans-34" d="M 2419 4116 
L 825 1625 
L 2419 1625 
L 2419 4116 
z
M 2253 4666 
L 3047 4666 
L 3047 1625 
L 3713 1625 
L 3713 1100 
L 3047 1100 
L 3047 0 
L 2419 0 
L 2419 1100 
L 313 1100 
L 313 1709 
L 2253 4666 
z
" transform="scale(0.015625)"/>
       </defs>
       <use xlink:href="#DejaVuSans-31"/>
       <use xlink:href="#DejaVuSans-34" x="63.623047"/>
       <use xlink:href="#DejaVuSans-35" x="127.246094"/>
      </g>
     </g>
    </g>
    <g id="xtick_10">
     <g id="line2d_10">
      <g>
       <use xlink:href="#m96d260fc4c" x="263.339871" y="252" style="stroke: #000000; stroke-width: 0.8"/>
      </g>
     </g>
     <g id="text_10">
      <!-- 163 -->
      <g transform="translate(253.796121 266.598437)scale(0.1 -0.1)">
       <defs>
        <path id="DejaVuSans-36" d="M 2113 2584 
Q 1688 2584 1439 2293 
Q 1191 2003 1191 1497 
Q 1191 994 1439 701 
Q 1688 409 2113 409 
Q 2538 409 2786 701 
Q 3034 994 3034 1497 
Q 3034 2003 2786 2293 
Q 2538 2584 2113 2584 
z
M 3366 4563 
L 3366 3988 
Q 3128 4100 2886 4159 
Q 2644 4219 2406 4219 
Q 1781 4219 1451 3797 
Q 1122 3375 1075 2522 
Q 1259 2794 1537 2939 
Q 1816 3084 2150 3084 
Q 2853 3084 3261 2657 
Q 3669 2231 3669 1497 
Q 3669 778 3244 343 
Q 2819 -91 2113 -91 
Q 1303 -91 875 529 
Q 447 1150 447 2328 
Q 447 3434 972 4092 
Q 1497 4750 2381 4750 
Q 2619 4750 2861 4703 
Q 3103 4656 3366 4563 
z
" transform="scale(0.015625)"/>
       </defs>
       <use xlink:href="#DejaVuSans-31"/>
       <use xlink:href="#DejaVuSans-36" x="63.623047"/>
       <use xlink:href="#DejaVuSans-33" x="127.246094"/>
      </g>
     </g>
    </g>
    <g id="xtick_11">
     <g id="line2d_11">
      <g>
       <use xlink:href="#m96d260fc4c" x="284.908948" y="252" style="stroke: #000000; stroke-width: 0.8"/>
      </g>
     </g>
     <g id="text_11">
      <!-- 181 -->
      <g transform="translate(275.365198 266.598437)scale(0.1 -0.1)">
       <defs>
        <path id="DejaVuSans-38" d="M 2034 2216 
Q 1584 2216 1326 1975 
Q 1069 1734 1069 1313 
Q 1069 891 1326 650 
Q 1584 409 2034 409 
Q 2484 409 2743 651 
Q 3003 894 3003 1313 
Q 3003 1734 2745 1975 
Q 2488 2216 2034 2216 
z
M 1403 2484 
Q 997 2584 770 2862 
Q 544 3141 544 3541 
Q 544 4100 942 4425 
Q 1341 4750 2034 4750 
Q 2731 4750 3128 4425 
Q 3525 4100 3525 3541 
Q 3525 3141 3298 2862 
Q 3072 2584 2669 2484 
Q 3125 2378 3379 2068 
Q 3634 1759 3634 1313 
Q 3634 634 3220 271 
Q 2806 -91 2034 -91 
Q 1263 -91 848 271 
Q 434 634 434 1313 
Q 434 1759 690 2068 
Q 947 2378 1403 2484 
z
M 1172 3481 
Q 1172 3119 1398 2916 
Q 1625 2713 2034 2713 
Q 2441 2713 2670 2916 
Q 2900 3119 2900 3481 
Q 2900 3844 2670 4047 
Q 2441 4250 2034 4250 
Q 1625 4250 1398 4047 
Q 1172 3844 1172 3481 
z
" transform="scale(0.015625)"/>
       </defs>
       <use xlink:href="#DejaVuSans-31"/>
       <use xlink:href="#DejaVuSans-38" x="63.623047"/>
       <use xlink:href="#DejaVuSans-31" x="127.246094"/>
      </g>
     </g>
    </g>
    <g id="xtick_12">
     <g id="line2d_12">
      <g>
       <use xlink:href="#m96d260fc4c" x="306.478024" y="252" style="stroke: #000000; stroke-width: 0.8"/>
      </g>
     </g>
     <g id="text_12">
      <!-- 199 -->
      <g transform="translate(296.934274 266.598437)scale(0.1 -0.1)">
       <use xlink:href="#DejaVuSans-31"/>
       <use xlink:href="#DejaVuSans-39" x="63.623047"/>
       <use xlink:href="#DejaVuSans-39" x="127.246094"/>
      </g>
     </g>
    </g>
    <g id="xtick_13">
     <g id="line2d_13">
      <g>
       <use xlink:href="#m96d260fc4c" x="328.047101" y="252" style="stroke: #000000; stroke-width: 0.8"/>
      </g>
     </g>
     <g id="text_13">
      <!-- 217 -->
      <g transform="translate(318.503351 266.598437)scale(0.1 -0.1)">
       <use xlink:href="#DejaVuSans-32"/>
       <use xlink:href="#DejaVuSans-31" x="63.623047"/>
       <use xlink:href="#DejaVuSans-37" x="127.246094"/>
      </g>
     </g>
    </g>
    <g id="xtick_14">
     <g id="line2d_14">
      <g>
       <use xlink:href="#m96d260fc4c" x="349.616178" y="252" style="stroke: #000000; stroke-width: 0.8"/>
      </g>
     </g>
     <g id="text_14">
      <!-- 235 -->
      <g transform="translate(340.072428 266.598437)scale(0.1 -0.1)">
       <use xlink:href="#DejaVuSans-32"/>
       <use xlink:href="#DejaVuSans-33" x="63.623047"/>
       <use xlink:href="#DejaVuSans-35" x="127.246094"/>
      </g>
     </g>
    </g>
    <g id="xtick_15">
     <g id="line2d_15">
      <g>
       <use xlink:href="#m96d260fc4c" x="371.185254" y="252" style="stroke: #000000; stroke-width: 0.8"/>
      </g>
     </g>
     <g id="text_15">
      <!-- 253 -->
      <g transform="translate(361.641504 266.598437)scale(0.1 -0.1)">
       <use xlink:href="#DejaVuSans-32"/>
       <use xlink:href="#DejaVuSans-35" x="63.623047"/>
       <use xlink:href="#DejaVuSans-33" x="127.246094"/>
      </g>
     </g>
    </g>
    <g id="text_16">
     <!-- Program size -->
     <g transform="translate(189.022656 280.276563)scale(0.1 -0.1)">
      <defs>
       <path id="DejaVuSans-50" d="M 1259 4147 
L 1259 2394 
L 2053 2394 
Q 2494 2394 2734 2622 
Q 2975 2850 2975 3272 
Q 2975 3691 2734 3919 
Q 2494 4147 2053 4147 
L 1259 4147 
z
M 628 4666 
L 2053 4666 
Q 2838 4666 3239 4311 
Q 3641 3956 3641 3272 
Q 3641 2581 3239 2228 
Q 2838 1875 2053 1875 
L 1259 1875 
L 1259 0 
L 628 0 
L 628 4666 
z
" transform="scale(0.015625)"/>
       <path id="DejaVuSans-72" d="M 2631 2963 
Q 2534 3019 2420 3045 
Q 2306 3072 2169 3072 
Q 1681 3072 1420 2755 
Q 1159 2438 1159 1844 
L 1159 0 
L 581 0 
L 581 3500 
L 1159 3500 
L 1159 2956 
Q 1341 3275 1631 3429 
Q 1922 3584 2338 3584 
Q 2397 3584 2469 3576 
Q 2541 3569 2628 3553 
L 2631 2963 
z
" transform="scale(0.015625)"/>
       <path id="DejaVuSans-6f" d="M 1959 3097 
Q 1497 3097 1228 2736 
Q 959 2375 959 1747 
Q 959 1119 1226 758 
Q 1494 397 1959 397 
Q 2419 397 2687 759 
Q 2956 1122 2956 1747 
Q 2956 2369 2687 2733 
Q 2419 3097 1959 3097 
z
M 1959 3584 
Q 2709 3584 3137 3096 
Q 3566 2609 3566 1747 
Q 3566 888 3137 398 
Q 2709 -91 1959 -91 
Q 1206 -91 779 398 
Q 353 888 353 1747 
Q 353 2609 779 3096 
Q 1206 3584 1959 3584 
z
" transform="scale(0.015625)"/>
       <path id="DejaVuSans-67" d="M 2906 1791 
Q 2906 2416 2648 2759 
Q 2391 3103 1925 3103 
Q 1463 3103 1205 2759 
Q 947 2416 947 1791 
Q 947 1169 1205 825 
Q 1463 481 1925 481 
Q 2391 481 2648 825 
Q 2906 1169 2906 1791 
z
M 3481 434 
Q 3481 -459 3084 -895 
Q 2688 -1331 1869 -1331 
Q 1566 -1331 1297 -1286 
Q 1028 -1241 775 -1147 
L 775 -588 
Q 1028 -725 1275 -790 
Q 1522 -856 1778 -856 
Q 2344 -856 2625 -561 
Q 2906 -266 2906 331 
L 2906 616 
Q 2728 306 2450 153 
Q 2172 0 1784 0 
Q 1141 0 747 490 
Q 353 981 353 1791 
Q 353 2603 747 3093 
Q 1141 3584 1784 3584 
Q 2172 3584 2450 3431 
Q 2728 3278 2906 2969 
L 2906 3500 
L 3481 3500 
L 3481 434 
z
" transform="scale(0.015625)"/>
       <path id="DejaVuSans-61" d="M 2194 1759 
Q 1497 1759 1228 1600 
Q 959 1441 959 1056 
Q 959 750 1161 570 
Q 1363 391 1709 391 
Q 2188 391 2477 730 
Q 2766 1069 2766 1631 
L 2766 1759 
L 2194 1759 
z
M 3341 1997 
L 3341 0 
L 2766 0 
L 2766 531 
Q 2569 213 2275 61 
Q 1981 -91 1556 -91 
Q 1019 -91 701 211 
Q 384 513 384 1019 
Q 384 1609 779 1909 
Q 1175 2209 1959 2209 
L 2766 2209 
L 2766 2266 
Q 2766 2663 2505 2880 
Q 2244 3097 1772 3097 
Q 1472 3097 1187 3025 
Q 903 2953 641 2809 
L 641 3341 
Q 956 3463 1253 3523 
Q 1550 3584 1831 3584 
Q 2591 3584 2966 3190 
Q 3341 2797 3341 1997 
z
" transform="scale(0.015625)"/>
       <path id="DejaVuSans-6d" d="M 3328 2828 
Q 3544 3216 3844 3400 
Q 4144 3584 4550 3584 
Q 5097 3584 5394 3201 
Q 5691 2819 5691 2113 
L 5691 0 
L 5113 0 
L 5113 2094 
Q 5113 2597 4934 2840 
Q 4756 3084 4391 3084 
Q 3944 3084 3684 2787 
Q 3425 2491 3425 1978 
L 3425 0 
L 2847 0 
L 2847 2094 
Q 2847 2600 2669 2842 
Q 2491 3084 2119 3084 
Q 1678 3084 1418 2786 
Q 1159 2488 1159 1978 
L 1159 0 
L 581 0 
L 581 3500 
L 1159 3500 
L 1159 2956 
Q 1356 3278 1631 3431 
Q 1906 3584 2284 3584 
Q 2666 3584 2933 3390 
Q 3200 3197 3328 2828 
z
" transform="scale(0.015625)"/>
       <path id="DejaVuSans-20" transform="scale(0.015625)"/>
       <path id="DejaVuSans-73" d="M 2834 3397 
L 2834 2853 
Q 2591 2978 2328 3040 
Q 2066 3103 1784 3103 
Q 1356 3103 1142 2972 
Q 928 2841 928 2578 
Q 928 2378 1081 2264 
Q 1234 2150 1697 2047 
L 1894 2003 
Q 2506 1872 2764 1633 
Q 3022 1394 3022 966 
Q 3022 478 2636 193 
Q 2250 -91 1575 -91 
Q 1294 -91 989 -36 
Q 684 19 347 128 
L 347 722 
Q 666 556 975 473 
Q 1284 391 1588 391 
Q 1994 391 2212 530 
Q 2431 669 2431 922 
Q 2431 1156 2273 1281 
Q 2116 1406 1581 1522 
L 1381 1569 
Q 847 1681 609 1914 
Q 372 2147 372 2553 
Q 372 3047 722 3315 
Q 1072 3584 1716 3584 
Q 2034 3584 2315 3537 
Q 2597 3491 2834 3397 
z
" transform="scale(0.015625)"/>
       <path id="DejaVuSans-69" d="M 603 3500 
L 1178 3500 
L 1178 0 
L 603 0 
L 603 3500 
z
M 603 4863 
L 1178 4863 
L 1178 4134 
L 603 4134 
L 603 4863 
z
" transform="scale(0.015625)"/>
       <path id="DejaVuSans-7a" d="M 353 3500 
L 3084 3500 
L 3084 2975 
L 922 459 
L 3084 459 
L 3084 0 
L 275 0 
L 275 525 
L 2438 3041 
L 353 3041 
L 353 3500 
z
" transform="scale(0.015625)"/>
       <path id="DejaVuSans-65" d="M 3597 1894 
L 3597 1613 
L 953 1613 
Q 991 1019 1311 708 
Q 1631 397 2203 397 
Q 2534 397 2845 478 
Q 3156 559 3463 722 
L 3463 178 
Q 3153 47 2828 -22 
Q 2503 -91 2169 -91 
Q 1331 -91 842 396 
Q 353 884 353 1716 
Q 353 2575 817 3079 
Q 1281 3584 2069 3584 
Q 2775 3584 3186 3129 
Q 3597 2675 3597 1894 
z
M 3022 2063 
Q 3016 2534 2758 2815 
Q 2500 3097 2075 3097 
Q 1594 3097 1305 2825 
Q 1016 2553 972 2059 
L 3022 2063 
z
" transform="scale(0.015625)"/>
      </defs>
      <use xlink:href="#DejaVuSans-50"/>
      <use xlink:href="#DejaVuSans-72" x="58.552734"/>
      <use xlink:href="#DejaVuSans-6f" x="97.416016"/>
      <use xlink:href="#DejaVuSans-67" x="158.597656"/>
      <use xlink:href="#DejaVuSans-72" x="222.074219"/>
      <use xlink:href="#DejaVuSans-61" x="263.1875"/>
      <use xlink:href="#DejaVuSans-6d" x="324.466797"/>
      <use xlink:href="#DejaVuSans-20" x="421.878906"/>
      <use xlink:href="#DejaVuSans-73" x="453.666016"/>
      <use xlink:href="#DejaVuSans-69" x="505.765625"/>
      <use xlink:href="#DejaVuSans-7a" x="533.548828"/>
      <use xlink:href="#DejaVuSans-65" x="586.039062"/>
     </g>
    </g>
   </g>
   <g id="matplotlib.axis_2">
    <g id="ytick_1">
     <g id="line2d_16">
      <defs>
       <path id="mc50d352d90" d="M 0 0 
L -3.5 0 
" style="stroke: #000000; stroke-width: 0.8"/>
      </defs>
      <g>
       <use xlink:href="#mc50d352d90" x="54" y="225.820126" style="stroke: #000000; stroke-width: 0.8"/>
      </g>
     </g>
     <g id="text_17">
      <!-- $\mathdefault{10^{5}}$ -->
      <g transform="translate(29.4 229.619344)scale(0.1 -0.1)">
       <use xlink:href="#DejaVuSans-31" transform="translate(0 0.684375)"/>
       <use xlink:href="#DejaVuSans-30" transform="translate(63.623047 0.684375)"/>
       <use xlink:href="#DejaVuSans-35" transform="translate(128.203125 38.965625)scale(0.7)"/>
      </g>
     </g>
    </g>
    <g id="ytick_2">
     <g id="line2d_17">
      <g>
       <use xlink:href="#mc50d352d90" x="54" y="197.379897" style="stroke: #000000; stroke-width: 0.8"/>
      </g>
     </g>
     <g id="text_18">
      <!-- $\mathdefault{10^{6}}$ -->
      <g transform="translate(29.4 201.179116)scale(0.1 -0.1)">
       <use xlink:href="#DejaVuSans-31" transform="translate(0 0.765625)"/>
       <use xlink:href="#DejaVuSans-30" transform="translate(63.623047 0.765625)"/>
       <use xlink:href="#DejaVuSans-36" transform="translate(128.203125 39.046875)scale(0.7)"/>
      </g>
     </g>
    </g>
    <g id="ytick_3">
     <g id="line2d_18">
      <g>
       <use xlink:href="#mc50d352d90" x="54" y="168.939669" style="stroke: #000000; stroke-width: 0.8"/>
      </g>
     </g>
     <g id="text_19">
      <!-- $\mathdefault{10^{7}}$ -->
      <g transform="translate(29.4 172.738888)scale(0.1 -0.1)">
       <use xlink:href="#DejaVuSans-31" transform="translate(0 0.684375)"/>
       <use xlink:href="#DejaVuSans-30" transform="translate(63.623047 0.684375)"/>
       <use xlink:href="#DejaVuSans-37" transform="translate(128.203125 38.965625)scale(0.7)"/>
      </g>
     </g>
    </g>
    <g id="ytick_4">
     <g id="line2d_19">
      <g>
       <use xlink:href="#mc50d352d90" x="54" y="140.499441" style="stroke: #000000; stroke-width: 0.8"/>
      </g>
     </g>
     <g id="text_20">
      <!-- $\mathdefault{10^{8}}$ -->
      <g transform="translate(29.4 144.29866)scale(0.1 -0.1)">
       <use xlink:href="#DejaVuSans-31" transform="translate(0 0.765625)"/>
       <use xlink:href="#DejaVuSans-30" transform="translate(63.623047 0.765625)"/>
       <use xlink:href="#DejaVuSans-38" transform="translate(128.203125 39.046875)scale(0.7)"/>
      </g>
     </g>
    </g>
    <g id="ytick_5">
     <g id="line2d_20">
      <g>
       <use xlink:href="#mc50d352d90" x="54" y="112.059213" style="stroke: #000000; stroke-width: 0.8"/>
      </g>
     </g>
     <g id="text_21">
      <!-- $\mathdefault{10^{9}}$ -->
      <g transform="translate(29.4 115.858432)scale(0.1 -0.1)">
       <use xlink:href="#DejaVuSans-31" transform="translate(0 0.765625)"/>
       <use xlink:href="#DejaVuSans-30" transform="translate(63.623047 0.765625)"/>
       <use xlink:href="#DejaVuSans-39" transform="translate(128.203125 39.046875)scale(0.7)"/>
      </g>
     </g>
    </g>
    <g id="ytick_6">
     <g id="line2d_21">
      <g>
       <use xlink:href="#mc50d352d90" x="54" y="83.618985" style="stroke: #000000; stroke-width: 0.8"/>
      </g>
     </g>
     <g id="text_22">
      <!-- $\mathdefault{10^{10}}$ -->
      <g transform="translate(24.9 87.418203)scale(0.1 -0.1)">
       <use xlink:href="#DejaVuSans-31" transform="translate(0 0.765625)"/>
       <use xlink:href="#DejaVuSans-30" transform="translate(63.623047 0.765625)"/>
       <use xlink:href="#DejaVuSans-31" transform="translate(128.203125 39.046875)scale(0.7)"/>
       <use xlink:href="#DejaVuSans-30" transform="translate(172.739258 39.046875)scale(0.7)"/>
      </g>
     </g>
    </g>
    <g id="ytick_7">
     <g id="line2d_22">
      <g>
       <use xlink:href="#mc50d352d90" x="54" y="55.178756" style="stroke: #000000; stroke-width: 0.8"/>
      </g>
     </g>
     <g id="text_23">
      <!-- $\mathdefault{10^{11}}$ -->
      <g transform="translate(24.9 58.977975)scale(0.1 -0.1)">
       <use xlink:href="#DejaVuSans-31" transform="translate(0 0.684375)"/>
       <use xlink:href="#DejaVuSans-30" transform="translate(63.623047 0.684375)"/>
       <use xlink:href="#DejaVuSans-31" transform="translate(128.203125 38.965625)scale(0.7)"/>
       <use xlink:href="#DejaVuSans-31" transform="translate(172.739258 38.965625)scale(0.7)"/>
      </g>
     </g>
    </g>
    <g id="ytick_8">
     <g id="line2d_23">
      <defs>
       <path id="m2de7cd2905" d="M 0 0 
L -2 0 
" style="stroke: #000000; stroke-width: 0.6"/>
      </defs>
      <g>
       <use xlink:href="#m2de7cd2905" x="54" y="245.698992" style="stroke: #000000; stroke-width: 0.6"/>
      </g>
     </g>
    </g>
    <g id="ytick_9">
     <g id="line2d_24">
      <g>
       <use xlink:href="#m2de7cd2905" x="54" y="240.690916" style="stroke: #000000; stroke-width: 0.6"/>
      </g>
     </g>
    </g>
    <g id="ytick_10">
     <g id="line2d_25">
      <g>
       <use xlink:href="#m2de7cd2905" x="54" y="237.13763" style="stroke: #000000; stroke-width: 0.6"/>
      </g>
     </g>
    </g>
    <g id="ytick_11">
     <g id="line2d_26">
      <g>
       <use xlink:href="#m2de7cd2905" x="54" y="234.381487" style="stroke: #000000; stroke-width: 0.6"/>
      </g>
     </g>
    </g>
    <g id="ytick_12">
     <g id="line2d_27">
      <g>
       <use xlink:href="#m2de7cd2905" x="54" y="232.129555" style="stroke: #000000; stroke-width: 0.6"/>
      </g>
     </g>
    </g>
    <g id="ytick_13">
     <g id="line2d_28">
      <g>
       <use xlink:href="#m2de7cd2905" x="54" y="230.225573" style="stroke: #000000; stroke-width: 0.6"/>
      </g>
     </g>
    </g>
    <g id="ytick_14">
     <g id="line2d_29">
      <g>
       <use xlink:href="#m2de7cd2905" x="54" y="228.576268" style="stroke: #000000; stroke-width: 0.6"/>
      </g>
     </g>
    </g>
    <g id="ytick_15">
     <g id="line2d_30">
      <g>
       <use xlink:href="#m2de7cd2905" x="54" y="227.121479" style="stroke: #000000; stroke-width: 0.6"/>
      </g>
     </g>
    </g>
    <g id="ytick_16">
     <g id="line2d_31">
      <g>
       <use xlink:href="#m2de7cd2905" x="54" y="217.258764" style="stroke: #000000; stroke-width: 0.6"/>
      </g>
     </g>
    </g>
    <g id="ytick_17">
     <g id="line2d_32">
      <g>
       <use xlink:href="#m2de7cd2905" x="54" y="212.250688" style="stroke: #000000; stroke-width: 0.6"/>
      </g>
     </g>
    </g>
    <g id="ytick_18">
     <g id="line2d_33">
      <g>
       <use xlink:href="#m2de7cd2905" x="54" y="208.697402" style="stroke: #000000; stroke-width: 0.6"/>
      </g>
     </g>
    </g>
    <g id="ytick_19">
     <g id="line2d_34">
      <g>
       <use xlink:href="#m2de7cd2905" x="54" y="205.941259" style="stroke: #000000; stroke-width: 0.6"/>
      </g>
     </g>
    </g>
    <g id="ytick_20">
     <g id="line2d_35">
      <g>
       <use xlink:href="#m2de7cd2905" x="54" y="203.689326" style="stroke: #000000; stroke-width: 0.6"/>
      </g>
     </g>
    </g>
    <g id="ytick_21">
     <g id="line2d_36">
      <g>
       <use xlink:href="#m2de7cd2905" x="54" y="201.785344" style="stroke: #000000; stroke-width: 0.6"/>
      </g>
     </g>
    </g>
    <g id="ytick_22">
     <g id="line2d_37">
      <g>
       <use xlink:href="#m2de7cd2905" x="54" y="200.13604" style="stroke: #000000; stroke-width: 0.6"/>
      </g>
     </g>
    </g>
    <g id="ytick_23">
     <g id="line2d_38">
      <g>
       <use xlink:href="#m2de7cd2905" x="54" y="198.681251" style="stroke: #000000; stroke-width: 0.6"/>
      </g>
     </g>
    </g>
    <g id="ytick_24">
     <g id="line2d_39">
      <g>
       <use xlink:href="#m2de7cd2905" x="54" y="188.818536" style="stroke: #000000; stroke-width: 0.6"/>
      </g>
     </g>
    </g>
    <g id="ytick_25">
     <g id="line2d_40">
      <g>
       <use xlink:href="#m2de7cd2905" x="54" y="183.81046" style="stroke: #000000; stroke-width: 0.6"/>
      </g>
     </g>
    </g>
    <g id="ytick_26">
     <g id="line2d_41">
      <g>
       <use xlink:href="#m2de7cd2905" x="54" y="180.257174" style="stroke: #000000; stroke-width: 0.6"/>
      </g>
     </g>
    </g>
    <g id="ytick_27">
     <g id="line2d_42">
      <g>
       <use xlink:href="#m2de7cd2905" x="54" y="177.501031" style="stroke: #000000; stroke-width: 0.6"/>
      </g>
     </g>
    </g>
    <g id="ytick_28">
     <g id="line2d_43">
      <g>
       <use xlink:href="#m2de7cd2905" x="54" y="175.249098" style="stroke: #000000; stroke-width: 0.6"/>
      </g>
     </g>
    </g>
    <g id="ytick_29">
     <g id="line2d_44">
      <g>
       <use xlink:href="#m2de7cd2905" x="54" y="173.345116" style="stroke: #000000; stroke-width: 0.6"/>
      </g>
     </g>
    </g>
    <g id="ytick_30">
     <g id="line2d_45">
      <g>
       <use xlink:href="#m2de7cd2905" x="54" y="171.695812" style="stroke: #000000; stroke-width: 0.6"/>
      </g>
     </g>
    </g>
    <g id="ytick_31">
     <g id="line2d_46">
      <g>
       <use xlink:href="#m2de7cd2905" x="54" y="170.241023" style="stroke: #000000; stroke-width: 0.6"/>
      </g>
     </g>
    </g>
    <g id="ytick_32">
     <g id="line2d_47">
      <g>
       <use xlink:href="#m2de7cd2905" x="54" y="160.378307" style="stroke: #000000; stroke-width: 0.6"/>
      </g>
     </g>
    </g>
    <g id="ytick_33">
     <g id="line2d_48">
      <g>
       <use xlink:href="#m2de7cd2905" x="54" y="155.370232" style="stroke: #000000; stroke-width: 0.6"/>
      </g>
     </g>
    </g>
    <g id="ytick_34">
     <g id="line2d_49">
      <g>
       <use xlink:href="#m2de7cd2905" x="54" y="151.816946" style="stroke: #000000; stroke-width: 0.6"/>
      </g>
     </g>
    </g>
    <g id="ytick_35">
     <g id="line2d_50">
      <g>
       <use xlink:href="#m2de7cd2905" x="54" y="149.060803" style="stroke: #000000; stroke-width: 0.6"/>
      </g>
     </g>
    </g>
    <g id="ytick_36">
     <g id="line2d_51">
      <g>
       <use xlink:href="#m2de7cd2905" x="54" y="146.80887" style="stroke: #000000; stroke-width: 0.6"/>
      </g>
     </g>
    </g>
    <g id="ytick_37">
     <g id="line2d_52">
      <g>
       <use xlink:href="#m2de7cd2905" x="54" y="144.904888" style="stroke: #000000; stroke-width: 0.6"/>
      </g>
     </g>
    </g>
    <g id="ytick_38">
     <g id="line2d_53">
      <g>
       <use xlink:href="#m2de7cd2905" x="54" y="143.255584" style="stroke: #000000; stroke-width: 0.6"/>
      </g>
     </g>
    </g>
    <g id="ytick_39">
     <g id="line2d_54">
      <g>
       <use xlink:href="#m2de7cd2905" x="54" y="141.800794" style="stroke: #000000; stroke-width: 0.6"/>
      </g>
     </g>
    </g>
    <g id="ytick_40">
     <g id="line2d_55">
      <g>
       <use xlink:href="#m2de7cd2905" x="54" y="131.938079" style="stroke: #000000; stroke-width: 0.6"/>
      </g>
     </g>
    </g>
    <g id="ytick_41">
     <g id="line2d_56">
      <g>
       <use xlink:href="#m2de7cd2905" x="54" y="126.930004" style="stroke: #000000; stroke-width: 0.6"/>
      </g>
     </g>
    </g>
    <g id="ytick_42">
     <g id="line2d_57">
      <g>
       <use xlink:href="#m2de7cd2905" x="54" y="123.376717" style="stroke: #000000; stroke-width: 0.6"/>
      </g>
     </g>
    </g>
    <g id="ytick_43">
     <g id="line2d_58">
      <g>
       <use xlink:href="#m2de7cd2905" x="54" y="120.620575" style="stroke: #000000; stroke-width: 0.6"/>
      </g>
     </g>
    </g>
    <g id="ytick_44">
     <g id="line2d_59">
      <g>
       <use xlink:href="#m2de7cd2905" x="54" y="118.368642" style="stroke: #000000; stroke-width: 0.6"/>
      </g>
     </g>
    </g>
    <g id="ytick_45">
     <g id="line2d_60">
      <g>
       <use xlink:href="#m2de7cd2905" x="54" y="116.46466" style="stroke: #000000; stroke-width: 0.6"/>
      </g>
     </g>
    </g>
    <g id="ytick_46">
     <g id="line2d_61">
      <g>
       <use xlink:href="#m2de7cd2905" x="54" y="114.815356" style="stroke: #000000; stroke-width: 0.6"/>
      </g>
     </g>
    </g>
    <g id="ytick_47">
     <g id="line2d_62">
      <g>
       <use xlink:href="#m2de7cd2905" x="54" y="113.360566" style="stroke: #000000; stroke-width: 0.6"/>
      </g>
     </g>
    </g>
    <g id="ytick_48">
     <g id="line2d_63">
      <g>
       <use xlink:href="#m2de7cd2905" x="54" y="103.497851" style="stroke: #000000; stroke-width: 0.6"/>
      </g>
     </g>
    </g>
    <g id="ytick_49">
     <g id="line2d_64">
      <g>
       <use xlink:href="#m2de7cd2905" x="54" y="98.489775" style="stroke: #000000; stroke-width: 0.6"/>
      </g>
     </g>
    </g>
    <g id="ytick_50">
     <g id="line2d_65">
      <g>
       <use xlink:href="#m2de7cd2905" x="54" y="94.936489" style="stroke: #000000; stroke-width: 0.6"/>
      </g>
     </g>
    </g>
    <g id="ytick_51">
     <g id="line2d_66">
      <g>
       <use xlink:href="#m2de7cd2905" x="54" y="92.180346" style="stroke: #000000; stroke-width: 0.6"/>
      </g>
     </g>
    </g>
    <g id="ytick_52">
     <g id="line2d_67">
      <g>
       <use xlink:href="#m2de7cd2905" x="54" y="89.928414" style="stroke: #000000; stroke-width: 0.6"/>
      </g>
     </g>
    </g>
    <g id="ytick_53">
     <g id="line2d_68">
      <g>
       <use xlink:href="#m2de7cd2905" x="54" y="88.024432" style="stroke: #000000; stroke-width: 0.6"/>
      </g>
     </g>
    </g>
    <g id="ytick_54">
     <g id="line2d_69">
      <g>
       <use xlink:href="#m2de7cd2905" x="54" y="86.375127" style="stroke: #000000; stroke-width: 0.6"/>
      </g>
     </g>
    </g>
    <g id="ytick_55">
     <g id="line2d_70">
      <g>
       <use xlink:href="#m2de7cd2905" x="54" y="84.920338" style="stroke: #000000; stroke-width: 0.6"/>
      </g>
     </g>
    </g>
    <g id="ytick_56">
     <g id="line2d_71">
      <g>
       <use xlink:href="#m2de7cd2905" x="54" y="75.057623" style="stroke: #000000; stroke-width: 0.6"/>
      </g>
     </g>
    </g>
    <g id="ytick_57">
     <g id="line2d_72">
      <g>
       <use xlink:href="#m2de7cd2905" x="54" y="70.049547" style="stroke: #000000; stroke-width: 0.6"/>
      </g>
     </g>
    </g>
    <g id="ytick_58">
     <g id="line2d_73">
      <g>
       <use xlink:href="#m2de7cd2905" x="54" y="66.496261" style="stroke: #000000; stroke-width: 0.6"/>
      </g>
     </g>
    </g>
    <g id="ytick_59">
     <g id="line2d_74">
      <g>
       <use xlink:href="#m2de7cd2905" x="54" y="63.740118" style="stroke: #000000; stroke-width: 0.6"/>
      </g>
     </g>
    </g>
    <g id="ytick_60">
     <g id="line2d_75">
      <g>
       <use xlink:href="#m2de7cd2905" x="54" y="61.488185" style="stroke: #000000; stroke-width: 0.6"/>
      </g>
     </g>
    </g>
    <g id="ytick_61">
     <g id="line2d_76">
      <g>
       <use xlink:href="#m2de7cd2905" x="54" y="59.584204" style="stroke: #000000; stroke-width: 0.6"/>
      </g>
     </g>
    </g>
    <g id="ytick_62">
     <g id="line2d_77">
      <g>
       <use xlink:href="#m2de7cd2905" x="54" y="57.934899" style="stroke: #000000; stroke-width: 0.6"/>
      </g>
     </g>
    </g>
    <g id="ytick_63">
     <g id="line2d_78">
      <g>
       <use xlink:href="#m2de7cd2905" x="54" y="56.48011" style="stroke: #000000; stroke-width: 0.6"/>
      </g>
     </g>
    </g>
    <g id="ytick_64">
     <g id="line2d_79">
      <g>
       <use xlink:href="#m2de7cd2905" x="54" y="46.617395" style="stroke: #000000; stroke-width: 0.6"/>
      </g>
     </g>
    </g>
    <g id="ytick_65">
     <g id="line2d_80">
      <g>
       <use xlink:href="#m2de7cd2905" x="54" y="41.609319" style="stroke: #000000; stroke-width: 0.6"/>
      </g>
     </g>
    </g>
    <g id="ytick_66">
     <g id="line2d_81">
      <g>
       <use xlink:href="#m2de7cd2905" x="54" y="38.056033" style="stroke: #000000; stroke-width: 0.6"/>
      </g>
     </g>
    </g>
    <g id="ytick_67">
     <g id="line2d_82">
      <g>
       <use xlink:href="#m2de7cd2905" x="54" y="35.29989" style="stroke: #000000; stroke-width: 0.6"/>
      </g>
     </g>
    </g>
    <g id="text_24">
     <!-- Median NEPS -->
     <g transform="translate(18.820312 176.144844)rotate(-90)scale(0.1 -0.1)">
      <defs>
       <path id="DejaVuSans-4d" d="M 628 4666 
L 1569 4666 
L 2759 1491 
L 3956 4666 
L 4897 4666 
L 4897 0 
L 4281 0 
L 4281 4097 
L 3078 897 
L 2444 897 
L 1241 4097 
L 1241 0 
L 628 0 
L 628 4666 
z
" transform="scale(0.015625)"/>
       <path id="DejaVuSans-64" d="M 2906 2969 
L 2906 4863 
L 3481 4863 
L 3481 0 
L 2906 0 
L 2906 525 
Q 2725 213 2448 61 
Q 2172 -91 1784 -91 
Q 1150 -91 751 415 
Q 353 922 353 1747 
Q 353 2572 751 3078 
Q 1150 3584 1784 3584 
Q 2172 3584 2448 3432 
Q 2725 3281 2906 2969 
z
M 947 1747 
Q 947 1113 1208 752 
Q 1469 391 1925 391 
Q 2381 391 2643 752 
Q 2906 1113 2906 1747 
Q 2906 2381 2643 2742 
Q 2381 3103 1925 3103 
Q 1469 3103 1208 2742 
Q 947 2381 947 1747 
z
" transform="scale(0.015625)"/>
       <path id="DejaVuSans-6e" d="M 3513 2113 
L 3513 0 
L 2938 0 
L 2938 2094 
Q 2938 2591 2744 2837 
Q 2550 3084 2163 3084 
Q 1697 3084 1428 2787 
Q 1159 2491 1159 1978 
L 1159 0 
L 581 0 
L 581 3500 
L 1159 3500 
L 1159 2956 
Q 1366 3272 1645 3428 
Q 1925 3584 2291 3584 
Q 2894 3584 3203 3211 
Q 3513 2838 3513 2113 
z
" transform="scale(0.015625)"/>
       <path id="DejaVuSans-4e" d="M 628 4666 
L 1478 4666 
L 3547 763 
L 3547 4666 
L 4159 4666 
L 4159 0 
L 3309 0 
L 1241 3903 
L 1241 0 
L 628 0 
L 628 4666 
z
" transform="scale(0.015625)"/>
       <path id="DejaVuSans-45" d="M 628 4666 
L 3578 4666 
L 3578 4134 
L 1259 4134 
L 1259 2753 
L 3481 2753 
L 3481 2222 
L 1259 2222 
L 1259 531 
L 3634 531 
L 3634 0 
L 628 0 
L 628 4666 
z
" transform="scale(0.015625)"/>
       <path id="DejaVuSans-53" d="M 3425 4513 
L 3425 3897 
Q 3066 4069 2747 4153 
Q 2428 4238 2131 4238 
Q 1616 4238 1336 4038 
Q 1056 3838 1056 3469 
Q 1056 3159 1242 3001 
Q 1428 2844 1947 2747 
L 2328 2669 
Q 3034 2534 3370 2195 
Q 3706 1856 3706 1288 
Q 3706 609 3251 259 
Q 2797 -91 1919 -91 
Q 1588 -91 1214 -16 
Q 841 59 441 206 
L 441 856 
Q 825 641 1194 531 
Q 1563 422 1919 422 
Q 2459 422 2753 634 
Q 3047 847 3047 1241 
Q 3047 1584 2836 1778 
Q 2625 1972 2144 2069 
L 1759 2144 
Q 1053 2284 737 2584 
Q 422 2884 422 3419 
Q 422 4038 858 4394 
Q 1294 4750 2059 4750 
Q 2388 4750 2728 4690 
Q 3069 4631 3425 4513 
z
" transform="scale(0.015625)"/>
      </defs>
      <use xlink:href="#DejaVuSans-4d"/>
      <use xlink:href="#DejaVuSans-65" x="86.279297"/>
      <use xlink:href="#DejaVuSans-64" x="147.802734"/>
      <use xlink:href="#DejaVuSans-69" x="211.279297"/>
      <use xlink:href="#DejaVuSans-61" x="239.0625"/>
      <use xlink:href="#DejaVuSans-6e" x="300.341797"/>
      <use xlink:href="#DejaVuSans-20" x="363.720703"/>
      <use xlink:href="#DejaVuSans-4e" x="395.507812"/>
      <use xlink:href="#DejaVuSans-45" x="470.3125"/>
      <use xlink:href="#DejaVuSans-50" x="533.496094"/>
      <use xlink:href="#DejaVuSans-53" x="593.798828"/>
     </g>
    </g>
   </g>
   <g id="line2d_83">
    <path d="M 69.218182 238.079327 
L 71.614746 196.168752 
L 74.01131 189.210338 
L 76.407874 186.481241 
L 78.804438 181.308782 
L 81.201002 179.301348 
L 83.597566 175.581163 
L 85.99413 174.751488 
L 88.390694 173.439734 
L 90.787258 174.362441 
L 93.183822 170.956608 
L 95.580387 170.200016 
L 97.976951 169.861599 
L 100.373515 167.454011 
L 102.770079 168.53937 
L 105.166643 167.251895 
L 107.563207 165.45444 
L 109.959771 166.210251 
L 112.356335 165.776198 
L 114.752899 164.930796 
L 117.149463 164.871574 
L 119.546027 165.009634 
L 121.942591 164.683939 
L 124.339155 163.085407 
L 126.735719 156.309948 
L 129.132283 159.93346 
L 131.528848 158.758112 
L 133.925412 155.838102 
L 136.321976 154.462024 
L 138.71854 155.979125 
L 141.115104 155.943402 
L 143.511668 154.224553 
L 145.908232 155.00791 
L 148.304796 154.637585 
L 150.70136 153.860661 
L 153.097924 155.286481 
L 155.494488 152.39328 
L 157.891052 153.776253 
L 160.287616 154.27368 
L 162.68418 152.46848 
L 165.080744 151.776743 
L 167.477309 153.417583 
L 169.873873 151.404335 
L 172.270437 151.804428 
L 174.667001 150.438236 
L 177.063565 150.207728 
L 179.460129 149.862921 
L 181.856693 151.209013 
L 184.253257 150.855209 
L 186.649821 149.488007 
L 189.046385 149.717348 
L 191.442949 151.000108 
L 193.839513 149.597851 
L 198.632641 147.965143 
L 201.029205 148.43287 
L 203.42577 150.594208 
L 205.822334 149.274646 
L 208.218898 149.771806 
L 210.615462 148.018407 
L 213.012026 147.912911 
L 215.40859 147.608006 
L 217.805154 148.929709 
L 220.201718 147.449102 
L 222.598282 147.988038 
L 224.994846 149.251877 
L 227.39141 148.339424 
L 229.787974 146.736915 
L 234.581102 147.203283 
L 236.977666 148.168998 
L 239.37423 146.028381 
L 241.770795 146.830563 
L 244.167359 146.420358 
L 246.563923 147.472369 
L 248.960487 146.047735 
L 251.357051 146.370337 
L 253.753615 146.241801 
L 256.150179 145.284472 
L 258.546743 148.780907 
L 260.943307 144.871481 
L 263.339871 145.42816 
L 265.736435 144.345596 
L 268.132999 145.67498 
L 270.529563 145.399857 
L 272.926127 144.913393 
L 275.322691 145.26391 
L 277.719256 145.816081 
L 280.11582 145.29432 
L 282.512384 143.252862 
L 284.908948 145.783491 
L 287.305512 144.305 
L 289.702076 144.590863 
L 292.09864 144.167784 
L 294.495204 144.503276 
L 296.891768 146.190171 
L 299.288332 144.521781 
L 301.684896 143.447574 
L 304.08146 143.87583 
L 308.874588 142.890988 
L 311.271152 143.329838 
L 313.667717 143.648169 
L 316.064281 144.162758 
L 318.460845 143.365968 
L 320.857409 146.117379 
L 323.253973 143.744995 
L 325.650537 143.05687 
L 328.047101 143.652036 
L 330.443665 142.331156 
L 332.840229 143.927281 
L 335.236793 143.455673 
L 337.633357 143.489255 
L 340.029921 144.799468 
L 342.426485 142.793622 
L 344.823049 145.11714 
L 347.219613 143.733764 
L 349.616178 141.758822 
L 352.012742 142.015452 
L 354.409306 142.896406 
L 356.80587 142.078252 
L 359.202434 144.285081 
L 361.598998 141.910629 
L 363.995562 141.494033 
L 366.392126 142.108622 
L 368.78869 142.999924 
L 371.185254 143.149905 
L 373.581818 141.787793 
L 373.581818 141.787793 
" clip-path="url(#p3f97ccdc43)" style="fill: none; stroke: #1f77b4; stroke-width: 1.5; stroke-linecap: square"/>
   </g>
   <g id="line2d_84">
    <path d="M 69.218182 242.116364 
L 71.614746 176.620095 
L 74.01131 165.635136 
L 76.407874 161.573432 
L 78.804438 160.396478 
L 81.201002 160.002798 
L 83.597566 154.941825 
L 85.99413 159.192082 
L 88.390694 158.208781 
L 90.787258 157.101967 
L 93.183822 152.651631 
L 95.580387 152.105912 
L 97.976951 150.096256 
L 100.373515 158.019217 
L 102.770079 155.876465 
L 105.166643 151.394511 
L 107.563207 151.712029 
L 109.959771 151.285699 
L 112.356335 151.854517 
L 114.752899 146.995998 
L 117.149463 148.027057 
L 121.942591 148.857975 
L 124.339155 149.037077 
L 126.735719 149.827495 
L 131.528848 148.856167 
L 133.925412 145.292881 
L 136.321976 145.481169 
L 138.71854 145.983621 
L 141.115104 148.964757 
L 143.511668 145.435286 
L 145.908232 146.319821 
L 148.304796 145.854643 
L 150.70136 147.178395 
L 155.494488 144.948742 
L 157.891052 147.169413 
L 160.287616 148.726672 
L 165.080744 143.610829 
L 167.477309 147.043 
L 169.873873 145.293789 
L 172.270437 145.953174 
L 174.667001 145.789933 
L 177.063565 146.29437 
L 179.460129 147.50606 
L 181.856693 146.590112 
L 184.253257 146.895849 
L 186.649821 145.581889 
L 189.046385 146.783618 
L 191.442949 146.788131 
L 193.839513 144.671624 
L 196.236077 147.262252 
L 198.632641 147.47515 
L 201.029205 146.549445 
L 203.42577 147.907814 
L 205.822334 146.433795 
L 208.218898 147.894838 
L 210.615462 146.293637 
L 213.012026 145.968493 
L 215.40859 144.190678 
L 217.805154 144.172591 
L 220.201718 145.707561 
L 222.598282 148.105223 
L 224.994846 146.725279 
L 227.39141 146.103514 
L 229.787974 145.003857 
L 232.184538 148.363166 
L 234.581102 144.256322 
L 236.977666 145.12927 
L 239.37423 145.031929 
L 241.770795 145.292478 
L 244.167359 146.760947 
L 246.563923 145.367177 
L 248.960487 145.485254 
L 251.357051 146.544331 
L 253.753615 146.192152 
L 256.150179 144.396093 
L 258.546743 144.766767 
L 260.943307 144.576896 
L 263.339871 148.103282 
L 265.736435 145.303187 
L 268.132999 145.406899 
L 270.529563 147.52814 
L 272.926127 148.488598 
L 275.322691 145.746496 
L 277.719256 145.279964 
L 280.11582 147.968346 
L 282.512384 144.678918 
L 284.908948 145.433175 
L 287.305512 144.760147 
L 289.702076 143.246981 
L 292.09864 143.542706 
L 294.495204 144.751976 
L 296.891768 145.569153 
L 299.288332 144.3319 
L 301.684896 144.864459 
L 304.08146 143.055005 
L 306.478024 148.076535 
L 308.874588 141.954482 
L 313.667717 145.177442 
L 316.064281 143.709657 
L 318.460845 145.69291 
L 320.857409 143.814378 
L 325.650537 144.103608 
L 328.047101 146.40788 
L 330.443665 144.370686 
L 335.236793 146.010154 
L 337.633357 142.544305 
L 340.029921 143.049113 
L 342.426485 144.217513 
L 344.823049 143.953667 
L 347.219613 143.419189 
L 349.616178 144.238684 
L 352.012742 149.074327 
L 354.409306 143.046098 
L 356.80587 145.803958 
L 359.202434 143.873772 
L 361.598998 143.377134 
L 363.995562 145.230495 
L 366.392126 143.597449 
L 368.78869 144.944633 
L 371.185254 145.552595 
L 373.581818 143.631172 
L 373.581818 143.631172 
" clip-path="url(#p3f97ccdc43)" style="fill: none; stroke: #ff7f0e; stroke-width: 1.5; stroke-linecap: square"/>
   </g>
   <g id="line2d_85">
    <path d="M 69.218182 167.271591 
L 71.614746 123.970122 
L 74.01131 117.667423 
L 76.407874 113.700904 
L 78.804438 110.31522 
L 81.201002 107.600566 
L 83.597566 105.871362 
L 85.99413 104.52528 
L 88.390694 102.705333 
L 90.787258 100.437517 
L 93.183822 99.778765 
L 95.580387 99.551915 
L 97.976951 97.800011 
L 100.373515 96.314288 
L 102.770079 96.214101 
L 105.166643 95.618743 
L 107.563207 95.580521 
L 109.959771 94.056674 
L 112.356335 93.315069 
L 114.752899 92.809738 
L 119.546027 91.24702 
L 121.942591 91.065781 
L 124.339155 89.890783 
L 126.735719 89.78378 
L 129.132283 89.245044 
L 131.528848 89.640987 
L 133.925412 88.372365 
L 136.321976 87.931153 
L 138.71854 87.174671 
L 141.115104 86.776775 
L 143.511668 86.613404 
L 145.908232 85.796871 
L 148.304796 85.194913 
L 150.70136 85.601579 
L 153.097924 85.68834 
L 155.494488 85.059331 
L 157.891052 85.162181 
L 160.287616 83.999563 
L 162.68418 83.946821 
L 165.080744 84.090741 
L 169.873873 84.228017 
L 172.270437 82.179344 
L 174.667001 82.244701 
L 177.063565 82.486151 
L 181.856693 81.382378 
L 186.649821 81.162659 
L 189.046385 80.653626 
L 191.442949 80.298932 
L 193.839513 80.734742 
L 196.236077 80.333285 
L 198.632641 79.339413 
L 201.029205 79.351503 
L 210.615462 78.884176 
L 215.40859 78.179517 
L 217.805154 78.394212 
L 220.201718 78.082034 
L 222.598282 77.168681 
L 224.994846 77.496515 
L 227.39141 77.13295 
L 229.787974 77.658527 
L 232.184538 77.784182 
L 234.581102 76.164036 
L 236.977666 76.878746 
L 241.770795 76.215659 
L 244.167359 75.971674 
L 246.563923 75.976873 
L 248.960487 75.855213 
L 251.357051 75.621894 
L 253.753615 75.55682 
L 256.150179 76.14453 
L 258.546743 75.579148 
L 260.943307 74.74855 
L 263.339871 73.725051 
L 265.736435 74.214626 
L 268.132999 73.745986 
L 270.529563 74.812174 
L 275.322691 73.501849 
L 277.719256 72.657268 
L 280.11582 73.717368 
L 282.512384 72.814845 
L 284.908948 72.552081 
L 287.305512 73.128384 
L 289.702076 72.204605 
L 292.09864 73.829014 
L 294.495204 72.365377 
L 296.891768 73.136738 
L 299.288332 73.750385 
L 301.684896 73.339812 
L 304.08146 73.495568 
L 306.478024 72.70899 
L 308.874588 72.441271 
L 311.271152 72.83841 
L 313.667717 71.508723 
L 316.064281 72.217636 
L 318.460845 71.843985 
L 320.857409 71.833698 
L 325.650537 71.530412 
L 328.047101 71.536951 
L 330.443665 71.889543 
L 332.840229 70.764192 
L 335.236793 70.226296 
L 337.633357 71.045806 
L 340.029921 70.497253 
L 342.426485 70.177956 
L 344.823049 70.532557 
L 347.219613 69.995716 
L 352.012742 69.977393 
L 354.409306 68.892927 
L 356.80587 68.005335 
L 359.202434 69.133395 
L 361.598998 70.691757 
L 363.995562 69.693534 
L 368.78869 69.192006 
L 371.185254 68.512436 
L 373.581818 68.451669 
L 373.581818 68.451669 
" clip-path="url(#p3f97ccdc43)" style="fill: none; stroke: #2ca02c; stroke-width: 1.5; stroke-linecap: square"/>
   </g>
   <g id="patch_3">
    <path d="M 54 252 
L 54 34.56 
" style="fill: none; stroke: #000000; stroke-width: 0.8; stroke-linejoin: miter; stroke-linecap: square"/>
   </g>
   <g id="patch_4">
    <path d="M 388.8 252 
L 388.8 34.56 
" style="fill: none; stroke: #000000; stroke-width: 0.8; stroke-linejoin: miter; stroke-linecap: square"/>
   </g>
   <g id="patch_5">
    <path d="M 54 252 
L 388.8 252 
" style="fill: none; stroke: #000000; stroke-width: 0.8; stroke-linejoin: miter; stroke-linecap: square"/>
   </g>
   <g id="patch_6">
    <path d="M 54 34.56 
L 388.8 34.56 
" style="fill: none; stroke: #000000; stroke-width: 0.8; stroke-linejoin: miter; stroke-linecap: square"/>
   </g>
   <g id="text_25">
    <!-- Median NEPS vs. Program Size (10 f.c., nicolau_a) -->
    <g transform="translate(73.03125 28.56)scale(0.12 -0.12)">
     <defs>
      <path id="DejaVuSans-76" d="M 191 3500 
L 800 3500 
L 1894 563 
L 2988 3500 
L 3597 3500 
L 2284 0 
L 1503 0 
L 191 3500 
z
" transform="scale(0.015625)"/>
      <path id="DejaVuSans-2e" d="M 684 794 
L 1344 794 
L 1344 0 
L 684 0 
L 684 794 
z
" transform="scale(0.015625)"/>
      <path id="DejaVuSans-28" d="M 1984 4856 
Q 1566 4138 1362 3434 
Q 1159 2731 1159 2009 
Q 1159 1288 1364 580 
Q 1569 -128 1984 -844 
L 1484 -844 
Q 1016 -109 783 600 
Q 550 1309 550 2009 
Q 550 2706 781 3412 
Q 1013 4119 1484 4856 
L 1984 4856 
z
" transform="scale(0.015625)"/>
      <path id="DejaVuSans-66" d="M 2375 4863 
L 2375 4384 
L 1825 4384 
Q 1516 4384 1395 4259 
Q 1275 4134 1275 3809 
L 1275 3500 
L 2222 3500 
L 2222 3053 
L 1275 3053 
L 1275 0 
L 697 0 
L 697 3053 
L 147 3053 
L 147 3500 
L 697 3500 
L 697 3744 
Q 697 4328 969 4595 
Q 1241 4863 1831 4863 
L 2375 4863 
z
" transform="scale(0.015625)"/>
      <path id="DejaVuSans-63" d="M 3122 3366 
L 3122 2828 
Q 2878 2963 2633 3030 
Q 2388 3097 2138 3097 
Q 1578 3097 1268 2742 
Q 959 2388 959 1747 
Q 959 1106 1268 751 
Q 1578 397 2138 397 
Q 2388 397 2633 464 
Q 2878 531 3122 666 
L 3122 134 
Q 2881 22 2623 -34 
Q 2366 -91 2075 -91 
Q 1284 -91 818 406 
Q 353 903 353 1747 
Q 353 2603 823 3093 
Q 1294 3584 2113 3584 
Q 2378 3584 2631 3529 
Q 2884 3475 3122 3366 
z
" transform="scale(0.015625)"/>
      <path id="DejaVuSans-2c" d="M 750 794 
L 1409 794 
L 1409 256 
L 897 -744 
L 494 -744 
L 750 256 
L 750 794 
z
" transform="scale(0.015625)"/>
      <path id="DejaVuSans-6c" d="M 603 4863 
L 1178 4863 
L 1178 0 
L 603 0 
L 603 4863 
z
" transform="scale(0.015625)"/>
      <path id="DejaVuSans-75" d="M 544 1381 
L 544 3500 
L 1119 3500 
L 1119 1403 
Q 1119 906 1312 657 
Q 1506 409 1894 409 
Q 2359 409 2629 706 
Q 2900 1003 2900 1516 
L 2900 3500 
L 3475 3500 
L 3475 0 
L 2900 0 
L 2900 538 
Q 2691 219 2414 64 
Q 2138 -91 1772 -91 
Q 1169 -91 856 284 
Q 544 659 544 1381 
z
M 1991 3584 
L 1991 3584 
z
" transform="scale(0.015625)"/>
      <path id="DejaVuSans-5f" d="M 3263 -1063 
L 3263 -1509 
L -63 -1509 
L -63 -1063 
L 3263 -1063 
z
" transform="scale(0.015625)"/>
      <path id="DejaVuSans-29" d="M 513 4856 
L 1013 4856 
Q 1481 4119 1714 3412 
Q 1947 2706 1947 2009 
Q 1947 1309 1714 600 
Q 1481 -109 1013 -844 
L 513 -844 
Q 928 -128 1133 580 
Q 1338 1288 1338 2009 
Q 1338 2731 1133 3434 
Q 928 4138 513 4856 
z
" transform="scale(0.015625)"/>
     </defs>
     <use xlink:href="#DejaVuSans-4d"/>
     <use xlink:href="#DejaVuSans-65" x="86.279297"/>
     <use xlink:href="#DejaVuSans-64" x="147.802734"/>
     <use xlink:href="#DejaVuSans-69" x="211.279297"/>
     <use xlink:href="#DejaVuSans-61" x="239.0625"/>
     <use xlink:href="#DejaVuSans-6e" x="300.341797"/>
     <use xlink:href="#DejaVuSans-20" x="363.720703"/>
     <use xlink:href="#DejaVuSans-4e" x="395.507812"/>
     <use xlink:href="#DejaVuSans-45" x="470.3125"/>
     <use xlink:href="#DejaVuSans-50" x="533.496094"/>
     <use xlink:href="#DejaVuSans-53" x="593.798828"/>
     <use xlink:href="#DejaVuSans-20" x="657.275391"/>
     <use xlink:href="#DejaVuSans-76" x="689.0625"/>
     <use xlink:href="#DejaVuSans-73" x="748.242188"/>
     <use xlink:href="#DejaVuSans-2e" x="800.341797"/>
     <use xlink:href="#DejaVuSans-20" x="832.128906"/>
     <use xlink:href="#DejaVuSans-50" x="863.916016"/>
     <use xlink:href="#DejaVuSans-72" x="922.46875"/>
     <use xlink:href="#DejaVuSans-6f" x="961.332031"/>
     <use xlink:href="#DejaVuSans-67" x="1022.513672"/>
     <use xlink:href="#DejaVuSans-72" x="1085.990234"/>
     <use xlink:href="#DejaVuSans-61" x="1127.103516"/>
     <use xlink:href="#DejaVuSans-6d" x="1188.382812"/>
     <use xlink:href="#DejaVuSans-20" x="1285.794922"/>
     <use xlink:href="#DejaVuSans-53" x="1317.582031"/>
     <use xlink:href="#DejaVuSans-69" x="1381.058594"/>
     <use xlink:href="#DejaVuSans-7a" x="1408.841797"/>
     <use xlink:href="#DejaVuSans-65" x="1461.332031"/>
     <use xlink:href="#DejaVuSans-20" x="1522.855469"/>
     <use xlink:href="#DejaVuSans-28" x="1554.642578"/>
     <use xlink:href="#DejaVuSans-31" x="1593.65625"/>
     <use xlink:href="#DejaVuSans-30" x="1657.279297"/>
     <use xlink:href="#DejaVuSans-20" x="1720.902344"/>
     <use xlink:href="#DejaVuSans-66" x="1752.689453"/>
     <use xlink:href="#DejaVuSans-2e" x="1780.644531"/>
     <use xlink:href="#DejaVuSans-63" x="1812.431641"/>
     <use xlink:href="#DejaVuSans-2e" x="1867.412109"/>
     <use xlink:href="#DejaVuSans-2c" x="1899.199219"/>
     <use xlink:href="#DejaVuSans-20" x="1930.986328"/>
     <use xlink:href="#DejaVuSans-6e" x="1962.773438"/>
     <use xlink:href="#DejaVuSans-69" x="2026.152344"/>
     <use xlink:href="#DejaVuSans-63" x="2053.935547"/>
     <use xlink:href="#DejaVuSans-6f" x="2108.916016"/>
     <use xlink:href="#DejaVuSans-6c" x="2170.097656"/>
     <use xlink:href="#DejaVuSans-61" x="2197.880859"/>
     <use xlink:href="#DejaVuSans-75" x="2259.160156"/>
     <use xlink:href="#DejaVuSans-5f" x="2322.539062"/>
     <use xlink:href="#DejaVuSans-61" x="2372.539062"/>
     <use xlink:href="#DejaVuSans-29" x="2433.818359"/>
    </g>
   </g>
   <g id="legend_1">
    <g id="patch_7">
     <path d="M 61 86.594375 
L 170.428125 86.594375 
Q 172.428125 86.594375 172.428125 84.594375 
L 172.428125 41.56 
Q 172.428125 39.56 170.428125 39.56 
L 61 39.56 
Q 59 39.56 59 41.56 
L 59 84.594375 
Q 59 86.594375 61 86.594375 
z
" style="fill: #ffffff; opacity: 0.8; stroke: #cccccc; stroke-linejoin: miter"/>
    </g>
    <g id="line2d_86">
     <path d="M 63 47.658438 
L 73 47.658438 
L 83 47.658438 
" style="fill: none; stroke: #1f77b4; stroke-width: 1.5; stroke-linecap: square"/>
    </g>
    <g id="text_26">
     <!-- DEAP -->
     <g transform="translate(91 51.158438)scale(0.1 -0.1)">
      <defs>
       <path id="DejaVuSans-44" d="M 1259 4147 
L 1259 519 
L 2022 519 
Q 2988 519 3436 956 
Q 3884 1394 3884 2338 
Q 3884 3275 3436 3711 
Q 2988 4147 2022 4147 
L 1259 4147 
z
M 628 4666 
L 1925 4666 
Q 3281 4666 3915 4102 
Q 4550 3538 4550 2338 
Q 4550 1131 3912 565 
Q 3275 0 1925 0 
L 628 0 
L 628 4666 
z
" transform="scale(0.015625)"/>
       <path id="DejaVuSans-41" d="M 2188 4044 
L 1331 1722 
L 3047 1722 
L 2188 4044 
z
M 1831 4666 
L 2547 4666 
L 4325 0 
L 3669 0 
L 3244 1197 
L 1141 1197 
L 716 0 
L 50 0 
L 1831 4666 
z
" transform="scale(0.015625)"/>
      </defs>
      <use xlink:href="#DejaVuSans-44"/>
      <use xlink:href="#DejaVuSans-45" x="77.001953"/>
      <use xlink:href="#DejaVuSans-41" x="140.185547"/>
      <use xlink:href="#DejaVuSans-50" x="208.59375"/>
     </g>
    </g>
    <g id="line2d_87">
     <path d="M 63 62.336563 
L 73 62.336563 
L 83 62.336563 
" style="fill: none; stroke: #ff7f0e; stroke-width: 1.5; stroke-linecap: square"/>
    </g>
    <g id="text_27">
     <!-- TensorGP (CPU) -->
     <g transform="translate(91 65.836563)scale(0.1 -0.1)">
      <defs>
       <path id="DejaVuSans-54" d="M -19 4666 
L 3928 4666 
L 3928 4134 
L 2272 4134 
L 2272 0 
L 1638 0 
L 1638 4134 
L -19 4134 
L -19 4666 
z
" transform="scale(0.015625)"/>
       <path id="DejaVuSans-47" d="M 3809 666 
L 3809 1919 
L 2778 1919 
L 2778 2438 
L 4434 2438 
L 4434 434 
Q 4069 175 3628 42 
Q 3188 -91 2688 -91 
Q 1594 -91 976 548 
Q 359 1188 359 2328 
Q 359 3472 976 4111 
Q 1594 4750 2688 4750 
Q 3144 4750 3555 4637 
Q 3966 4525 4313 4306 
L 4313 3634 
Q 3963 3931 3569 4081 
Q 3175 4231 2741 4231 
Q 1884 4231 1454 3753 
Q 1025 3275 1025 2328 
Q 1025 1384 1454 906 
Q 1884 428 2741 428 
Q 3075 428 3337 486 
Q 3600 544 3809 666 
z
" transform="scale(0.015625)"/>
       <path id="DejaVuSans-43" d="M 4122 4306 
L 4122 3641 
Q 3803 3938 3442 4084 
Q 3081 4231 2675 4231 
Q 1875 4231 1450 3742 
Q 1025 3253 1025 2328 
Q 1025 1406 1450 917 
Q 1875 428 2675 428 
Q 3081 428 3442 575 
Q 3803 722 4122 1019 
L 4122 359 
Q 3791 134 3420 21 
Q 3050 -91 2638 -91 
Q 1578 -91 968 557 
Q 359 1206 359 2328 
Q 359 3453 968 4101 
Q 1578 4750 2638 4750 
Q 3056 4750 3426 4639 
Q 3797 4528 4122 4306 
z
" transform="scale(0.015625)"/>
       <path id="DejaVuSans-55" d="M 556 4666 
L 1191 4666 
L 1191 1831 
Q 1191 1081 1462 751 
Q 1734 422 2344 422 
Q 2950 422 3222 751 
Q 3494 1081 3494 1831 
L 3494 4666 
L 4128 4666 
L 4128 1753 
Q 4128 841 3676 375 
Q 3225 -91 2344 -91 
Q 1459 -91 1007 375 
Q 556 841 556 1753 
L 556 4666 
z
" transform="scale(0.015625)"/>
      </defs>
      <use xlink:href="#DejaVuSans-54"/>
      <use xlink:href="#DejaVuSans-65" x="44.083984"/>
      <use xlink:href="#DejaVuSans-6e" x="105.607422"/>
      <use xlink:href="#DejaVuSans-73" x="168.986328"/>
      <use xlink:href="#DejaVuSans-6f" x="221.085938"/>
      <use xlink:href="#DejaVuSans-72" x="282.267578"/>
      <use xlink:href="#DejaVuSans-47" x="323.380859"/>
      <use xlink:href="#DejaVuSans-50" x="400.871094"/>
      <use xlink:href="#DejaVuSans-20" x="461.173828"/>
      <use xlink:href="#DejaVuSans-28" x="492.960938"/>
      <use xlink:href="#DejaVuSans-43" x="531.974609"/>
      <use xlink:href="#DejaVuSans-50" x="601.798828"/>
      <use xlink:href="#DejaVuSans-55" x="662.101562"/>
      <use xlink:href="#DejaVuSans-29" x="735.294922"/>
     </g>
    </g>
    <g id="line2d_88">
     <path d="M 63 77.014688 
L 73 77.014688 
L 83 77.014688 
" style="fill: none; stroke: #2ca02c; stroke-width: 1.5; stroke-linecap: square"/>
    </g>
    <g id="text_28">
     <!-- Operon -->
     <g transform="translate(91 80.514688)scale(0.1 -0.1)">
      <defs>
       <path id="DejaVuSans-4f" d="M 2522 4238 
Q 1834 4238 1429 3725 
Q 1025 3213 1025 2328 
Q 1025 1447 1429 934 
Q 1834 422 2522 422 
Q 3209 422 3611 934 
Q 4013 1447 4013 2328 
Q 4013 3213 3611 3725 
Q 3209 4238 2522 4238 
z
M 2522 4750 
Q 3503 4750 4090 4092 
Q 4678 3434 4678 2328 
Q 4678 1225 4090 567 
Q 3503 -91 2522 -91 
Q 1538 -91 948 565 
Q 359 1222 359 2328 
Q 359 3434 948 4092 
Q 1538 4750 2522 4750 
z
" transform="scale(0.015625)"/>
       <path id="DejaVuSans-70" d="M 1159 525 
L 1159 -1331 
L 581 -1331 
L 581 3500 
L 1159 3500 
L 1159 2969 
Q 1341 3281 1617 3432 
Q 1894 3584 2278 3584 
Q 2916 3584 3314 3078 
Q 3713 2572 3713 1747 
Q 3713 922 3314 415 
Q 2916 -91 2278 -91 
Q 1894 -91 1617 61 
Q 1341 213 1159 525 
z
M 3116 1747 
Q 3116 2381 2855 2742 
Q 2594 3103 2138 3103 
Q 1681 3103 1420 2742 
Q 1159 2381 1159 1747 
Q 1159 1113 1420 752 
Q 1681 391 2138 391 
Q 2594 391 2855 752 
Q 3116 1113 3116 1747 
z
" transform="scale(0.015625)"/>
      </defs>
      <use xlink:href="#DejaVuSans-4f"/>
      <use xlink:href="#DejaVuSans-70" x="78.710938"/>
      <use xlink:href="#DejaVuSans-65" x="142.1875"/>
      <use xlink:href="#DejaVuSans-72" x="203.710938"/>
      <use xlink:href="#DejaVuSans-6f" x="242.574219"/>
      <use xlink:href="#DejaVuSans-6e" x="303.755859"/>
     </g>
    </g>
   </g>
  </g>
 </g>
 <defs>
  <clipPath id="p3f97ccdc43">
   <rect x="54" y="34.56" width="334.8" height="217.44"/>
  </clipPath>
 </defs>
</svg>
