<?xml version="1.0" encoding="utf-8" standalone="no"?>
<!DOCTYPE svg PUBLIC "-//W3C//DTD SVG 1.1//EN"
  "http://www.w3.org/Graphics/SVG/1.1/DTD/svg11.dtd">
<svg xmlns:xlink="http://www.w3.org/1999/xlink" width="432pt" height="288pt" viewBox="0 0 432 288" xmlns="http://www.w3.org/2000/svg" version="1.1">
 <metadata>
  <rdf:RDF xmlns:dc="http://purl.org/dc/elements/1.1/" xmlns:cc="http://creativecommons.org/ns#" xmlns:rdf="http://www.w3.org/1999/02/22-rdf-syntax-ns#">
   <cc:Work>
    <dc:type rdf:resource="http://purl.org/dc/dcmitype/StillImage"/>
    <dc:date>2022-01-13T22:09:14.761184</dc:date>
    <dc:format>image/svg+xml</dc:format>
    <dc:creator>
     <cc:Agent>
      <dc:title>Matplotlib v3.5.1, https://matplotlib.org/</dc:title>
     </cc:Agent>
    </dc:creator>
   </cc:Work>
  </rdf:RDF>
 </metadata>
 <defs>
  <style type="text/css">*{stroke-linejoin: round; stroke-linecap: butt}</style>
 </defs>
 <g id="figure_1">
  <g id="patch_1">
   <path d="M 0 288 
L 432 288 
L 432 0 
L 0 0 
L 0 288 
z
" style="fill: none"/>
  </g>
  <g id="axes_1">
   <g id="patch_2">
    <path d="M 54 252 
L 388.8 252 
L 388.8 34.56 
L 54 34.56 
z
" style="fill: #ffffff"/>
   </g>
   <g id="PolyCollection_1">
    <path d="M 69.218182 226.269699 
L 69.218182 226.269699 
L 71.614746 213.484987 
L 74.01131 207.690872 
L 76.407874 203.760063 
L 78.804438 197.857961 
L 81.201002 198.145133 
L 83.597566 193.148421 
L 85.99413 194.068376 
L 88.390694 194.140131 
L 90.787258 192.445229 
L 93.183822 191.181371 
L 95.580387 192.006453 
L 97.976951 188.739395 
L 100.373515 189.922139 
L 102.770079 188.00829 
L 105.166643 186.053226 
L 107.563207 186.894242 
L 109.959771 187.713802 
L 112.356335 187.850626 
L 114.752899 183.861463 
L 117.149463 184.017102 
L 119.546027 186.739026 
L 121.942591 187.061948 
L 124.339155 185.290076 
L 126.735719 185.037611 
L 129.132283 187.507706 
L 131.528848 184.437632 
L 133.925412 183.131121 
L 136.321976 182.46989 
L 138.71854 184.339997 
L 141.115104 183.572549 
L 143.511668 183.021139 
L 145.908232 180.770362 
L 148.304796 183.616247 
L 150.70136 183.448212 
L 153.097924 183.69234 
L 155.494488 182.665836 
L 157.891052 181.810416 
L 160.287616 183.446751 
L 162.68418 183.492802 
L 165.080744 180.646885 
L 167.477309 183.164108 
L 169.873873 181.762875 
L 172.270437 183.148927 
L 174.667001 183.428436 
L 177.063565 182.763593 
L 179.460129 182.626787 
L 181.856693 183.108631 
L 184.253257 183.69676 
L 186.649821 183.219908 
L 189.046385 182.39536 
L 191.442949 181.802105 
L 193.839513 179.53576 
L 196.236077 181.627545 
L 198.632641 180.759282 
L 201.029205 181.426098 
L 203.42577 182.727956 
L 205.822334 181.533138 
L 208.218898 183.495555 
L 210.615462 181.131896 
L 213.012026 182.964633 
L 215.40859 181.302702 
L 217.805154 180.888948 
L 220.201718 181.933329 
L 222.598282 180.99179 
L 224.994846 181.768141 
L 227.39141 181.454089 
L 229.787974 181.580568 
L 232.184538 181.706209 
L 234.581102 178.673057 
L 236.977666 180.673164 
L 239.37423 182.336147 
L 241.770795 181.639747 
L 244.167359 180.809648 
L 246.563923 180.470896 
L 248.960487 181.238624 
L 251.357051 182.397739 
L 253.753615 181.94749 
L 256.150179 181.04662 
L 258.546743 184.427978 
L 260.943307 180.076857 
L 263.339871 181.167245 
L 265.736435 180.95618 
L 268.132999 181.281535 
L 270.529563 182.061904 
L 272.926127 181.682936 
L 275.322691 179.940146 
L 277.719256 180.442953 
L 280.11582 180.925323 
L 282.512384 180.023022 
L 284.908948 180.174854 
L 287.305512 180.052302 
L 289.702076 179.334307 
L 292.09864 179.946921 
L 294.495204 181.059273 
L 296.891768 179.539588 
L 299.288332 180.884623 
L 301.684896 181.671023 
L 304.08146 180.410299 
L 306.478024 180.353667 
L 308.874588 178.838776 
L 311.271152 179.800293 
L 313.667717 179.837611 
L 316.064281 180.728856 
L 318.460845 181.430028 
L 320.857409 179.528655 
L 323.253973 179.655546 
L 325.650537 179.853684 
L 328.047101 181.35508 
L 330.443665 179.210204 
L 332.840229 179.857502 
L 335.236793 179.614085 
L 337.633357 177.792025 
L 340.029921 178.16123 
L 342.426485 179.930636 
L 344.823049 178.56165 
L 347.219613 180.501866 
L 349.616178 179.52646 
L 352.012742 182.004643 
L 354.409306 178.812889 
L 356.80587 180.716857 
L 359.202434 178.651077 
L 361.598998 179.588341 
L 363.995562 180.722421 
L 366.392126 178.153359 
L 368.78869 178.855734 
L 371.185254 179.394241 
L 373.581818 179.498114 
L 373.581818 179.498114 
L 373.581818 179.498114 
L 371.185254 179.394241 
L 368.78869 178.855734 
L 366.392126 178.153359 
L 363.995562 180.722421 
L 361.598998 179.588341 
L 359.202434 178.651077 
L 356.80587 180.716857 
L 354.409306 178.812889 
L 352.012742 182.004643 
L 349.616178 179.52646 
L 347.219613 180.501866 
L 344.823049 178.56165 
L 342.426485 179.930636 
L 340.029921 178.16123 
L 337.633357 177.792025 
L 335.236793 179.614085 
L 332.840229 179.857502 
L 330.443665 179.210204 
L 328.047101 181.35508 
L 325.650537 179.853684 
L 323.253973 179.655546 
L 320.857409 179.528655 
L 318.460845 181.430028 
L 316.064281 180.728856 
L 313.667717 179.837611 
L 311.271152 179.800293 
L 308.874588 178.838776 
L 306.478024 180.353667 
L 304.08146 180.410299 
L 301.684896 181.671023 
L 299.288332 180.884623 
L 296.891768 179.539588 
L 294.495204 181.059273 
L 292.09864 179.946921 
L 289.702076 179.334307 
L 287.305512 180.052302 
L 284.908948 180.174854 
L 282.512384 180.023022 
L 280.11582 180.925323 
L 277.719256 180.442953 
L 275.322691 179.940146 
L 272.926127 181.682936 
L 270.529563 182.061904 
L 268.132999 181.281535 
L 265.736435 180.95618 
L 263.339871 181.167245 
L 260.943307 180.076857 
L 258.546743 184.427978 
L 256.150179 181.04662 
L 253.753615 181.94749 
L 251.357051 182.397739 
L 248.960487 181.238624 
L 246.563923 180.470896 
L 244.167359 180.809648 
L 241.770795 181.639747 
L 239.37423 182.336147 
L 236.977666 180.673164 
L 234.581102 178.673057 
L 232.184538 181.706209 
L 229.787974 181.580568 
L 227.39141 181.454089 
L 224.994846 181.768141 
L 222.598282 180.99179 
L 220.201718 181.933329 
L 217.805154 180.888948 
L 215.40859 181.302702 
L 213.012026 182.964633 
L 210.615462 181.131896 
L 208.218898 183.495555 
L 205.822334 181.533138 
L 203.42577 182.727956 
L 201.029205 181.426098 
L 198.632641 180.759282 
L 196.236077 181.627545 
L 193.839513 179.53576 
L 191.442949 181.802105 
L 189.046385 182.39536 
L 186.649821 183.219908 
L 184.253257 183.69676 
L 181.856693 183.108631 
L 179.460129 182.626787 
L 177.063565 182.763593 
L 174.667001 183.428436 
L 172.270437 183.148927 
L 169.873873 181.762875 
L 167.477309 183.164108 
L 165.080744 180.646885 
L 162.68418 183.492802 
L 160.287616 183.446751 
L 157.891052 181.810416 
L 155.494488 182.665836 
L 153.097924 183.69234 
L 150.70136 183.448212 
L 148.304796 183.616247 
L 145.908232 180.770362 
L 143.511668 183.021139 
L 141.115104 183.572549 
L 138.71854 184.339997 
L 136.321976 182.46989 
L 133.925412 183.131121 
L 131.528848 184.437632 
L 129.132283 187.507706 
L 126.735719 185.037611 
L 124.339155 185.290076 
L 121.942591 187.061948 
L 119.546027 186.739026 
L 117.149463 184.017102 
L 114.752899 183.861463 
L 112.356335 187.850626 
L 109.959771 187.713802 
L 107.563207 186.894242 
L 105.166643 186.053226 
L 102.770079 188.00829 
L 100.373515 189.922139 
L 97.976951 188.739395 
L 95.580387 192.006453 
L 93.183822 191.181371 
L 90.787258 192.445229 
L 88.390694 194.140131 
L 85.99413 194.068376 
L 83.597566 193.148421 
L 81.201002 198.145133 
L 78.804438 197.857961 
L 76.407874 203.760063 
L 74.01131 207.690872 
L 71.614746 213.484987 
L 69.218182 226.269699 
z
" clip-path="url(#pe877d9aa07)" style="fill: #1f77b4"/>
   </g>
   <g id="PolyCollection_2">
    <path d="M 69.218182 242.116364 
L 69.218182 242.116364 
L 71.614746 189.811356 
L 74.01131 187.557741 
L 76.407874 178.32981 
L 78.804438 177.053963 
L 81.201002 174.433031 
L 83.597566 169.484243 
L 85.99413 167.830023 
L 88.390694 172.760378 
L 90.787258 171.227971 
L 93.183822 167.128396 
L 95.580387 165.053271 
L 97.976951 162.351735 
L 100.373515 165.390193 
L 102.770079 162.295107 
L 105.166643 163.108869 
L 107.563207 161.375192 
L 109.959771 163.784644 
L 112.356335 165.344767 
L 114.752899 158.973883 
L 117.149463 158.898324 
L 119.546027 160.58267 
L 121.942591 162.095467 
L 124.339155 160.958148 
L 126.735719 160.151586 
L 129.132283 160.257711 
L 131.528848 161.391535 
L 133.925412 158.809334 
L 136.321976 160.73661 
L 138.71854 159.497176 
L 141.115104 162.444389 
L 143.511668 169.015882 
L 145.908232 159.809249 
L 148.304796 159.120323 
L 150.70136 161.415879 
L 153.097924 158.587254 
L 155.494488 157.696793 
L 157.891052 160.113567 
L 160.287616 161.809246 
L 162.68418 162.063415 
L 165.080744 156.362251 
L 167.477309 158.713342 
L 169.873873 158.084299 
L 172.270437 159.142911 
L 174.667001 164.90179 
L 177.063565 158.922146 
L 179.460129 158.637856 
L 181.856693 159.930864 
L 184.253257 159.264829 
L 186.649821 157.75367 
L 189.046385 161.659244 
L 191.442949 163.404955 
L 193.839513 157.981714 
L 196.236077 161.810789 
L 198.632641 158.273164 
L 201.029205 160.415722 
L 203.42577 162.172343 
L 205.822334 160.160757 
L 208.218898 161.419097 
L 210.615462 158.50457 
L 213.012026 161.658689 
L 215.40859 157.540937 
L 217.805154 156.949493 
L 220.201718 157.746197 
L 222.598282 158.326053 
L 224.994846 160.456961 
L 227.39141 159.128982 
L 229.787974 158.01552 
L 232.184538 159.904325 
L 234.581102 157.3509 
L 236.977666 158.126071 
L 239.37423 157.097609 
L 241.770795 157.989148 
L 244.167359 158.445937 
L 246.563923 158.787274 
L 248.960487 160.268944 
L 251.357051 158.835888 
L 253.753615 159.372395 
L 256.150179 158.254156 
L 258.546743 158.224205 
L 260.943307 156.68415 
L 263.339871 158.500933 
L 265.736435 157.496751 
L 268.132999 158.09281 
L 270.529563 160.434082 
L 272.926127 163.116247 
L 275.322691 157.467258 
L 277.719256 156.71067 
L 280.11582 159.607024 
L 282.512384 161.038576 
L 284.908948 159.454594 
L 287.305512 157.004554 
L 289.702076 156.959626 
L 292.09864 156.913 
L 294.495204 157.730216 
L 296.891768 157.524681 
L 299.288332 157.363759 
L 301.684896 157.845855 
L 304.08146 155.867752 
L 306.478024 157.246033 
L 308.874588 157.986621 
L 311.271152 158.283828 
L 313.667717 156.465431 
L 316.064281 160.470884 
L 318.460845 159.043962 
L 320.857409 158.572831 
L 323.253973 157.851385 
L 325.650537 156.821671 
L 328.047101 159.695269 
L 330.443665 156.657834 
L 332.840229 157.955195 
L 335.236793 156.430192 
L 337.633357 162.711708 
L 340.029921 155.663543 
L 342.426485 156.765899 
L 344.823049 156.716974 
L 347.219613 156.292509 
L 349.616178 156.276356 
L 352.012742 161.120085 
L 354.409306 156.718072 
L 356.80587 158.055387 
L 359.202434 157.343292 
L 361.598998 156.542083 
L 363.995562 158.572448 
L 366.392126 156.593197 
L 368.78869 156.702407 
L 371.185254 157.073487 
L 373.581818 157.030032 
L 373.581818 157.030032 
L 373.581818 157.030032 
L 371.185254 157.073487 
L 368.78869 156.702407 
L 366.392126 156.593197 
L 363.995562 158.572448 
L 361.598998 156.542083 
L 359.202434 157.343292 
L 356.80587 158.055387 
L 354.409306 156.718072 
L 352.012742 161.120085 
L 349.616178 156.276356 
L 347.219613 156.292509 
L 344.823049 156.716974 
L 342.426485 156.765899 
L 340.029921 155.663543 
L 337.633357 162.711708 
L 335.236793 156.430192 
L 332.840229 157.955195 
L 330.443665 156.657834 
L 328.047101 159.695269 
L 325.650537 156.821671 
L 323.253973 157.851385 
L 320.857409 158.572831 
L 318.460845 159.043962 
L 316.064281 160.470884 
L 313.667717 156.465431 
L 311.271152 158.283828 
L 308.874588 157.986621 
L 306.478024 157.246033 
L 304.08146 155.867752 
L 301.684896 157.845855 
L 299.288332 157.363759 
L 296.891768 157.524681 
L 294.495204 157.730216 
L 292.09864 156.913 
L 289.702076 156.959626 
L 287.305512 157.004554 
L 284.908948 159.454594 
L 282.512384 161.038576 
L 280.11582 159.607024 
L 277.719256 156.71067 
L 275.322691 157.467258 
L 272.926127 163.116247 
L 270.529563 160.434082 
L 268.132999 158.09281 
L 265.736435 157.496751 
L 263.339871 158.500933 
L 260.943307 156.68415 
L 258.546743 158.224205 
L 256.150179 158.254156 
L 253.753615 159.372395 
L 251.357051 158.835888 
L 248.960487 160.268944 
L 246.563923 158.787274 
L 244.167359 158.445937 
L 241.770795 157.989148 
L 239.37423 157.097609 
L 236.977666 158.126071 
L 234.581102 157.3509 
L 232.184538 159.904325 
L 229.787974 158.01552 
L 227.39141 159.128982 
L 224.994846 160.456961 
L 222.598282 158.326053 
L 220.201718 157.746197 
L 217.805154 156.949493 
L 215.40859 157.540937 
L 213.012026 161.658689 
L 210.615462 158.50457 
L 208.218898 161.419097 
L 205.822334 160.160757 
L 203.42577 162.172343 
L 201.029205 160.415722 
L 198.632641 158.273164 
L 196.236077 161.810789 
L 193.839513 157.981714 
L 191.442949 163.404955 
L 189.046385 161.659244 
L 186.649821 157.75367 
L 184.253257 159.264829 
L 181.856693 159.930864 
L 179.460129 158.637856 
L 177.063565 158.922146 
L 174.667001 164.90179 
L 172.270437 159.142911 
L 169.873873 158.084299 
L 167.477309 158.713342 
L 165.080744 156.362251 
L 162.68418 162.063415 
L 160.287616 161.809246 
L 157.891052 160.113567 
L 155.494488 157.696793 
L 153.097924 158.587254 
L 150.70136 161.415879 
L 148.304796 159.120323 
L 145.908232 159.809249 
L 143.511668 169.015882 
L 141.115104 162.444389 
L 138.71854 159.497176 
L 136.321976 160.73661 
L 133.925412 158.809334 
L 131.528848 161.391535 
L 129.132283 160.257711 
L 126.735719 160.151586 
L 124.339155 160.958148 
L 121.942591 162.095467 
L 119.546027 160.58267 
L 117.149463 158.898324 
L 114.752899 158.973883 
L 112.356335 165.344767 
L 109.959771 163.784644 
L 107.563207 161.375192 
L 105.166643 163.108869 
L 102.770079 162.295107 
L 100.373515 165.390193 
L 97.976951 162.351735 
L 95.580387 165.053271 
L 93.183822 167.128396 
L 90.787258 171.227971 
L 88.390694 172.760378 
L 85.99413 167.830023 
L 83.597566 169.484243 
L 81.201002 174.433031 
L 78.804438 177.053963 
L 76.407874 178.32981 
L 74.01131 187.557741 
L 71.614746 189.811356 
L 69.218182 242.116364 
z
" clip-path="url(#pe877d9aa07)" style="fill: #ff7f0e"/>
   </g>
   <g id="PolyCollection_3">
    <path d="M 69.218182 196.680614 
L 69.218182 197.729569 
L 71.614746 135.448056 
L 74.01131 128.470939 
L 76.407874 122.900368 
L 78.804438 120.982936 
L 81.201002 116.518615 
L 83.597566 114.326372 
L 85.99413 113.774687 
L 88.390694 110.692856 
L 90.787258 31556.381928 
L 93.183822 107.632846 
L 95.580387 106.948177 
L 97.976951 108.34423 
L 100.373515 105.82607 
L 102.770079 103.56912 
L 105.166643 104.967935 
L 107.563207 102.355443 
L 109.959771 100.832851 
L 112.356335 100.995139 
L 114.752899 101.448825 
L 117.149463 99.787269 
L 119.546027 99.611059 
L 121.942591 98.169272 
L 124.339155 97.665202 
L 126.735719 97.029188 
L 129.132283 98.540229 
L 131.528848 95.01148 
L 133.925412 95.065228 
L 136.321976 95.586455 
L 138.71854 94.863186 
L 141.115104 94.243417 
L 143.511668 94.84415 
L 145.908232 92.305767 
L 148.304796 92.346298 
L 150.70136 93.177891 
L 153.097924 90.80738 
L 155.494488 90.472703 
L 157.891052 90.78676 
L 160.287616 90.049148 
L 162.68418 91.019628 
L 165.080744 89.475641 
L 167.477309 90.187782 
L 169.873873 89.334016 
L 172.270437 88.57941 
L 174.667001 89.876266 
L 177.063565 89.190168 
L 179.460129 86.98578 
L 181.856693 88.823205 
L 184.253257 86.684277 
L 186.649821 89.339567 
L 189.046385 88.962733 
L 191.442949 90.414861 
L 193.839513 86.554535 
L 196.236077 86.248445 
L 198.632641 86.010765 
L 201.029205 87.088994 
L 203.42577 84.457643 
L 205.822334 83.955023 
L 208.218898 85.728497 
L 210.615462 84.498336 
L 213.012026 83.376043 
L 215.40859 84.39569 
L 217.805154 82.233225 
L 220.201718 83.187222 
L 222.598282 84.63472 
L 224.994846 83.913013 
L 227.39141 82.452981 
L 229.787974 84.124584 
L 232.184538 82.615061 
L 234.581102 83.152709 
L 236.977666 83.601749 
L 239.37423 83.555488 
L 241.770795 83.810038 
L 244.167359 82.446647 
L 246.563923 82.701929 
L 248.960487 82.491387 
L 251.357051 82.639873 
L 253.753615 83.60827 
L 256.150179 82.020674 
L 258.546743 81.855085 
L 260.943307 81.441869 
L 263.339871 81.648376 
L 265.736435 81.468227 
L 268.132999 80.999677 
L 270.529563 82.197422 
L 272.926127 81.855448 
L 275.322691 82.554922 
L 277.719256 82.246364 
L 280.11582 80.997451 
L 282.512384 80.284145 
L 284.908948 80.096032 
L 287.305512 80.937234 
L 289.702076 79.569838 
L 292.09864 79.519855 
L 294.495204 80.421391 
L 296.891768 81.028629 
L 299.288332 81.619299 
L 301.684896 80.751922 
L 304.08146 78.594986 
L 306.478024 31556.381928 
L 308.874588 78.258261 
L 311.271152 78.9645 
L 313.667717 79.00609 
L 316.064281 79.771421 
L 318.460845 79.192811 
L 320.857409 78.203026 
L 323.253973 77.759077 
L 325.650537 79.028897 
L 328.047101 77.174007 
L 330.443665 76.502549 
L 332.840229 76.991825 
L 335.236793 77.268169 
L 337.633357 78.998285 
L 340.029921 76.54673 
L 342.426485 77.527856 
L 344.823049 76.892478 
L 347.219613 76.112888 
L 349.616178 77.864123 
L 352.012742 76.378156 
L 354.409306 76.44047 
L 356.80587 76.069611 
L 359.202434 76.958298 
L 361.598998 75.140031 
L 363.995562 76.950189 
L 366.392126 77.031389 
L 368.78869 75.619862 
L 371.185254 75.782503 
L 373.581818 74.224324 
L 373.581818 74.028376 
L 373.581818 74.028376 
L 371.185254 74.204479 
L 368.78869 74.617819 
L 366.392126 73.275161 
L 363.995562 75.211108 
L 361.598998 73.855961 
L 359.202434 74.359036 
L 356.80587 75.326191 
L 354.409306 75.53014 
L 352.012742 76.227252 
L 349.616178 76.004605 
L 347.219613 74.810774 
L 344.823049 76.138465 
L 342.426485 76.324348 
L 340.029921 76.277753 
L 337.633357 75.844894 
L 335.236793 76.672282 
L 332.840229 75.415958 
L 330.443665 76.191369 
L 328.047101 76.731119 
L 325.650537 77.07288 
L 323.253973 77.126223 
L 320.857409 77.580333 
L 318.460845 78.135089 
L 316.064281 77.865154 
L 313.667717 78.385582 
L 311.271152 77.379315 
L 308.874588 77.954364 
L 306.478024 44.443636 
L 304.08146 77.638714 
L 301.684896 78.905372 
L 299.288332 78.849805 
L 296.891768 79.938905 
L 294.495204 78.668895 
L 292.09864 78.620232 
L 289.702076 77.577811 
L 287.305512 79.449624 
L 284.908948 79.47383 
L 282.512384 79.815251 
L 280.11582 80.097179 
L 277.719256 79.9611 
L 275.322691 80.002614 
L 272.926127 80.800627 
L 270.529563 79.951607 
L 268.132999 79.635533 
L 265.736435 80.380937 
L 263.339871 80.655298 
L 260.943307 80.27736 
L 258.546743 80.817294 
L 256.150179 81.890143 
L 253.753615 81.706032 
L 251.357051 81.38794 
L 248.960487 81.538369 
L 246.563923 81.675094 
L 244.167359 82.035689 
L 241.770795 82.62863 
L 239.37423 82.528333 
L 236.977666 82.525734 
L 234.581102 82.450814 
L 232.184538 81.96403 
L 229.787974 83.627514 
L 227.39141 81.845165 
L 224.994846 82.469019 
L 222.598282 82.142182 
L 220.201718 82.710877 
L 217.805154 80.504113 
L 215.40859 82.4011 
L 213.012026 82.456973 
L 210.615462 82.803073 
L 208.218898 83.565573 
L 205.822334 83.441321 
L 203.42577 83.271164 
L 201.029205 82.984352 
L 198.632641 85.181043 
L 196.236077 84.756767 
L 193.839513 86.477244 
L 191.442949 86.922235 
L 189.046385 85.599365 
L 186.649821 88.881293 
L 184.253257 86.186764 
L 181.856693 86.616178 
L 179.460129 86.601078 
L 177.063565 86.387575 
L 174.667001 88.266135 
L 172.270437 86.750532 
L 169.873873 87.726937 
L 167.477309 88.873132 
L 165.080744 88.371259 
L 162.68418 89.512609 
L 160.287616 89.341277 
L 157.891052 89.58557 
L 155.494488 90.406809 
L 153.097924 90.260593 
L 150.70136 90.256135 
L 148.304796 91.249078 
L 145.908232 91.005772 
L 143.511668 93.73336 
L 141.115104 91.679281 
L 138.71854 93.805978 
L 136.321976 93.658852 
L 133.925412 94.725817 
L 131.528848 94.141757 
L 129.132283 96.456767 
L 126.735719 94.659115 
L 124.339155 96.439132 
L 121.942591 97.156593 
L 119.546027 97.84192 
L 117.149463 96.614967 
L 114.752899 98.947259 
L 112.356335 99.781894 
L 109.959771 100.07058 
L 107.563207 100.583061 
L 105.166643 101.781114 
L 102.770079 101.2669 
L 100.373515 104.63125 
L 97.976951 105.518856 
L 95.580387 105.595427 
L 93.183822 106.448308 
L 90.787258 85.348289 
L 88.390694 110.239991 
L 85.99413 111.47516 
L 83.597566 113.868643 
L 81.201002 114.32714 
L 78.804438 119.20724 
L 76.407874 121.861124 
L 74.01131 126.637862 
L 71.614746 134.777195 
L 69.218182 196.680614 
z
" clip-path="url(#pe877d9aa07)" style="fill: #2ca02c"/>
   </g>
   <g id="matplotlib.axis_1">
    <g id="xtick_1">
     <g id="line2d_1">
      <defs>
       <path id="m9210eceea0" d="M 0 0 
L 0 3.5 
" style="stroke: #000000; stroke-width: 0.8"/>
      </defs>
      <g>
       <use xlink:href="#m9210eceea0" x="69.218182" y="252" style="stroke: #000000; stroke-width: 0.8"/>
      </g>
     </g>
     <g id="text_1">
      <!-- 1 -->
      <g transform="translate(66.036932 266.598437)scale(0.1 -0.1)">
       <defs>
        <path id="DejaVuSans-31" d="M 794 531 
L 1825 531 
L 1825 4091 
L 703 3866 
L 703 4441 
L 1819 4666 
L 2450 4666 
L 2450 531 
L 3481 531 
L 3481 0 
L 794 0 
L 794 531 
z
" transform="scale(0.015625)"/>
       </defs>
       <use xlink:href="#DejaVuSans-31"/>
      </g>
     </g>
    </g>
    <g id="xtick_2">
     <g id="line2d_2">
      <g>
       <use xlink:href="#m9210eceea0" x="90.787258" y="252" style="stroke: #000000; stroke-width: 0.8"/>
      </g>
     </g>
     <g id="text_2">
      <!-- 19 -->
      <g transform="translate(84.424758 266.598437)scale(0.1 -0.1)">
       <defs>
        <path id="DejaVuSans-39" d="M 703 97 
L 703 672 
Q 941 559 1184 500 
Q 1428 441 1663 441 
Q 2288 441 2617 861 
Q 2947 1281 2994 2138 
Q 2813 1869 2534 1725 
Q 2256 1581 1919 1581 
Q 1219 1581 811 2004 
Q 403 2428 403 3163 
Q 403 3881 828 4315 
Q 1253 4750 1959 4750 
Q 2769 4750 3195 4129 
Q 3622 3509 3622 2328 
Q 3622 1225 3098 567 
Q 2575 -91 1691 -91 
Q 1453 -91 1209 -44 
Q 966 3 703 97 
z
M 1959 2075 
Q 2384 2075 2632 2365 
Q 2881 2656 2881 3163 
Q 2881 3666 2632 3958 
Q 2384 4250 1959 4250 
Q 1534 4250 1286 3958 
Q 1038 3666 1038 3163 
Q 1038 2656 1286 2365 
Q 1534 2075 1959 2075 
z
" transform="scale(0.015625)"/>
       </defs>
       <use xlink:href="#DejaVuSans-31"/>
       <use xlink:href="#DejaVuSans-39" x="63.623047"/>
      </g>
     </g>
    </g>
    <g id="xtick_3">
     <g id="line2d_3">
      <g>
       <use xlink:href="#m9210eceea0" x="112.356335" y="252" style="stroke: #000000; stroke-width: 0.8"/>
      </g>
     </g>
     <g id="text_3">
      <!-- 37 -->
      <g transform="translate(105.993835 266.598437)scale(0.1 -0.1)">
       <defs>
        <path id="DejaVuSans-33" d="M 2597 2516 
Q 3050 2419 3304 2112 
Q 3559 1806 3559 1356 
Q 3559 666 3084 287 
Q 2609 -91 1734 -91 
Q 1441 -91 1130 -33 
Q 819 25 488 141 
L 488 750 
Q 750 597 1062 519 
Q 1375 441 1716 441 
Q 2309 441 2620 675 
Q 2931 909 2931 1356 
Q 2931 1769 2642 2001 
Q 2353 2234 1838 2234 
L 1294 2234 
L 1294 2753 
L 1863 2753 
Q 2328 2753 2575 2939 
Q 2822 3125 2822 3475 
Q 2822 3834 2567 4026 
Q 2313 4219 1838 4219 
Q 1578 4219 1281 4162 
Q 984 4106 628 3988 
L 628 4550 
Q 988 4650 1302 4700 
Q 1616 4750 1894 4750 
Q 2613 4750 3031 4423 
Q 3450 4097 3450 3541 
Q 3450 3153 3228 2886 
Q 3006 2619 2597 2516 
z
" transform="scale(0.015625)"/>
        <path id="DejaVuSans-37" d="M 525 4666 
L 3525 4666 
L 3525 4397 
L 1831 0 
L 1172 0 
L 2766 4134 
L 525 4134 
L 525 4666 
z
" transform="scale(0.015625)"/>
       </defs>
       <use xlink:href="#DejaVuSans-33"/>
       <use xlink:href="#DejaVuSans-37" x="63.623047"/>
      </g>
     </g>
    </g>
    <g id="xtick_4">
     <g id="line2d_4">
      <g>
       <use xlink:href="#m9210eceea0" x="133.925412" y="252" style="stroke: #000000; stroke-width: 0.8"/>
      </g>
     </g>
     <g id="text_4">
      <!-- 55 -->
      <g transform="translate(127.562912 266.598437)scale(0.1 -0.1)">
       <defs>
        <path id="DejaVuSans-35" d="M 691 4666 
L 3169 4666 
L 3169 4134 
L 1269 4134 
L 1269 2991 
Q 1406 3038 1543 3061 
Q 1681 3084 1819 3084 
Q 2600 3084 3056 2656 
Q 3513 2228 3513 1497 
Q 3513 744 3044 326 
Q 2575 -91 1722 -91 
Q 1428 -91 1123 -41 
Q 819 9 494 109 
L 494 744 
Q 775 591 1075 516 
Q 1375 441 1709 441 
Q 2250 441 2565 725 
Q 2881 1009 2881 1497 
Q 2881 1984 2565 2268 
Q 2250 2553 1709 2553 
Q 1456 2553 1204 2497 
Q 953 2441 691 2322 
L 691 4666 
z
" transform="scale(0.015625)"/>
       </defs>
       <use xlink:href="#DejaVuSans-35"/>
       <use xlink:href="#DejaVuSans-35" x="63.623047"/>
      </g>
     </g>
    </g>
    <g id="xtick_5">
     <g id="line2d_5">
      <g>
       <use xlink:href="#m9210eceea0" x="155.494488" y="252" style="stroke: #000000; stroke-width: 0.8"/>
      </g>
     </g>
     <g id="text_5">
      <!-- 73 -->
      <g transform="translate(149.131988 266.598437)scale(0.1 -0.1)">
       <use xlink:href="#DejaVuSans-37"/>
       <use xlink:href="#DejaVuSans-33" x="63.623047"/>
      </g>
     </g>
    </g>
    <g id="xtick_6">
     <g id="line2d_6">
      <g>
       <use xlink:href="#m9210eceea0" x="177.063565" y="252" style="stroke: #000000; stroke-width: 0.8"/>
      </g>
     </g>
     <g id="text_6">
      <!-- 91 -->
      <g transform="translate(170.701065 266.598437)scale(0.1 -0.1)">
       <use xlink:href="#DejaVuSans-39"/>
       <use xlink:href="#DejaVuSans-31" x="63.623047"/>
      </g>
     </g>
    </g>
    <g id="xtick_7">
     <g id="line2d_7">
      <g>
       <use xlink:href="#m9210eceea0" x="198.632641" y="252" style="stroke: #000000; stroke-width: 0.8"/>
      </g>
     </g>
     <g id="text_7">
      <!-- 109 -->
      <g transform="translate(189.088891 266.598437)scale(0.1 -0.1)">
       <defs>
        <path id="DejaVuSans-30" d="M 2034 4250 
Q 1547 4250 1301 3770 
Q 1056 3291 1056 2328 
Q 1056 1369 1301 889 
Q 1547 409 2034 409 
Q 2525 409 2770 889 
Q 3016 1369 3016 2328 
Q 3016 3291 2770 3770 
Q 2525 4250 2034 4250 
z
M 2034 4750 
Q 2819 4750 3233 4129 
Q 3647 3509 3647 2328 
Q 3647 1150 3233 529 
Q 2819 -91 2034 -91 
Q 1250 -91 836 529 
Q 422 1150 422 2328 
Q 422 3509 836 4129 
Q 1250 4750 2034 4750 
z
" transform="scale(0.015625)"/>
       </defs>
       <use xlink:href="#DejaVuSans-31"/>
       <use xlink:href="#DejaVuSans-30" x="63.623047"/>
       <use xlink:href="#DejaVuSans-39" x="127.246094"/>
      </g>
     </g>
    </g>
    <g id="xtick_8">
     <g id="line2d_8">
      <g>
       <use xlink:href="#m9210eceea0" x="220.201718" y="252" style="stroke: #000000; stroke-width: 0.8"/>
      </g>
     </g>
     <g id="text_8">
      <!-- 127 -->
      <g transform="translate(210.657968 266.598437)scale(0.1 -0.1)">
       <defs>
        <path id="DejaVuSans-32" d="M 1228 531 
L 3431 531 
L 3431 0 
L 469 0 
L 469 531 
Q 828 903 1448 1529 
Q 2069 2156 2228 2338 
Q 2531 2678 2651 2914 
Q 2772 3150 2772 3378 
Q 2772 3750 2511 3984 
Q 2250 4219 1831 4219 
Q 1534 4219 1204 4116 
Q 875 4013 500 3803 
L 500 4441 
Q 881 4594 1212 4672 
Q 1544 4750 1819 4750 
Q 2544 4750 2975 4387 
Q 3406 4025 3406 3419 
Q 3406 3131 3298 2873 
Q 3191 2616 2906 2266 
Q 2828 2175 2409 1742 
Q 1991 1309 1228 531 
z
" transform="scale(0.015625)"/>
       </defs>
       <use xlink:href="#DejaVuSans-31"/>
       <use xlink:href="#DejaVuSans-32" x="63.623047"/>
       <use xlink:href="#DejaVuSans-37" x="127.246094"/>
      </g>
     </g>
    </g>
    <g id="xtick_9">
     <g id="line2d_9">
      <g>
       <use xlink:href="#m9210eceea0" x="241.770795" y="252" style="stroke: #000000; stroke-width: 0.8"/>
      </g>
     </g>
     <g id="text_9">
      <!-- 145 -->
      <g transform="translate(232.227045 266.598437)scale(0.1 -0.1)">
       <defs>
        <path id="DejaVuSans-34" d="M 2419 4116 
L 825 1625 
L 2419 1625 
L 2419 4116 
z
M 2253 4666 
L 3047 4666 
L 3047 1625 
L 3713 1625 
L 3713 1100 
L 3047 1100 
L 3047 0 
L 2419 0 
L 2419 1100 
L 313 1100 
L 313 1709 
L 2253 4666 
z
" transform="scale(0.015625)"/>
       </defs>
       <use xlink:href="#DejaVuSans-31"/>
       <use xlink:href="#DejaVuSans-34" x="63.623047"/>
       <use xlink:href="#DejaVuSans-35" x="127.246094"/>
      </g>
     </g>
    </g>
    <g id="xtick_10">
     <g id="line2d_10">
      <g>
       <use xlink:href="#m9210eceea0" x="263.339871" y="252" style="stroke: #000000; stroke-width: 0.8"/>
      </g>
     </g>
     <g id="text_10">
      <!-- 163 -->
      <g transform="translate(253.796121 266.598437)scale(0.1 -0.1)">
       <defs>
        <path id="DejaVuSans-36" d="M 2113 2584 
Q 1688 2584 1439 2293 
Q 1191 2003 1191 1497 
Q 1191 994 1439 701 
Q 1688 409 2113 409 
Q 2538 409 2786 701 
Q 3034 994 3034 1497 
Q 3034 2003 2786 2293 
Q 2538 2584 2113 2584 
z
M 3366 4563 
L 3366 3988 
Q 3128 4100 2886 4159 
Q 2644 4219 2406 4219 
Q 1781 4219 1451 3797 
Q 1122 3375 1075 2522 
Q 1259 2794 1537 2939 
Q 1816 3084 2150 3084 
Q 2853 3084 3261 2657 
Q 3669 2231 3669 1497 
Q 3669 778 3244 343 
Q 2819 -91 2113 -91 
Q 1303 -91 875 529 
Q 447 1150 447 2328 
Q 447 3434 972 4092 
Q 1497 4750 2381 4750 
Q 2619 4750 2861 4703 
Q 3103 4656 3366 4563 
z
" transform="scale(0.015625)"/>
       </defs>
       <use xlink:href="#DejaVuSans-31"/>
       <use xlink:href="#DejaVuSans-36" x="63.623047"/>
       <use xlink:href="#DejaVuSans-33" x="127.246094"/>
      </g>
     </g>
    </g>
    <g id="xtick_11">
     <g id="line2d_11">
      <g>
       <use xlink:href="#m9210eceea0" x="284.908948" y="252" style="stroke: #000000; stroke-width: 0.8"/>
      </g>
     </g>
     <g id="text_11">
      <!-- 181 -->
      <g transform="translate(275.365198 266.598437)scale(0.1 -0.1)">
       <defs>
        <path id="DejaVuSans-38" d="M 2034 2216 
Q 1584 2216 1326 1975 
Q 1069 1734 1069 1313 
Q 1069 891 1326 650 
Q 1584 409 2034 409 
Q 2484 409 2743 651 
Q 3003 894 3003 1313 
Q 3003 1734 2745 1975 
Q 2488 2216 2034 2216 
z
M 1403 2484 
Q 997 2584 770 2862 
Q 544 3141 544 3541 
Q 544 4100 942 4425 
Q 1341 4750 2034 4750 
Q 2731 4750 3128 4425 
Q 3525 4100 3525 3541 
Q 3525 3141 3298 2862 
Q 3072 2584 2669 2484 
Q 3125 2378 3379 2068 
Q 3634 1759 3634 1313 
Q 3634 634 3220 271 
Q 2806 -91 2034 -91 
Q 1263 -91 848 271 
Q 434 634 434 1313 
Q 434 1759 690 2068 
Q 947 2378 1403 2484 
z
M 1172 3481 
Q 1172 3119 1398 2916 
Q 1625 2713 2034 2713 
Q 2441 2713 2670 2916 
Q 2900 3119 2900 3481 
Q 2900 3844 2670 4047 
Q 2441 4250 2034 4250 
Q 1625 4250 1398 4047 
Q 1172 3844 1172 3481 
z
" transform="scale(0.015625)"/>
       </defs>
       <use xlink:href="#DejaVuSans-31"/>
       <use xlink:href="#DejaVuSans-38" x="63.623047"/>
       <use xlink:href="#DejaVuSans-31" x="127.246094"/>
      </g>
     </g>
    </g>
    <g id="xtick_12">
     <g id="line2d_12">
      <g>
       <use xlink:href="#m9210eceea0" x="306.478024" y="252" style="stroke: #000000; stroke-width: 0.8"/>
      </g>
     </g>
     <g id="text_12">
      <!-- 199 -->
      <g transform="translate(296.934274 266.598437)scale(0.1 -0.1)">
       <use xlink:href="#DejaVuSans-31"/>
       <use xlink:href="#DejaVuSans-39" x="63.623047"/>
       <use xlink:href="#DejaVuSans-39" x="127.246094"/>
      </g>
     </g>
    </g>
    <g id="xtick_13">
     <g id="line2d_13">
      <g>
       <use xlink:href="#m9210eceea0" x="328.047101" y="252" style="stroke: #000000; stroke-width: 0.8"/>
      </g>
     </g>
     <g id="text_13">
      <!-- 217 -->
      <g transform="translate(318.503351 266.598437)scale(0.1 -0.1)">
       <use xlink:href="#DejaVuSans-32"/>
       <use xlink:href="#DejaVuSans-31" x="63.623047"/>
       <use xlink:href="#DejaVuSans-37" x="127.246094"/>
      </g>
     </g>
    </g>
    <g id="xtick_14">
     <g id="line2d_14">
      <g>
       <use xlink:href="#m9210eceea0" x="349.616178" y="252" style="stroke: #000000; stroke-width: 0.8"/>
      </g>
     </g>
     <g id="text_14">
      <!-- 235 -->
      <g transform="translate(340.072428 266.598437)scale(0.1 -0.1)">
       <use xlink:href="#DejaVuSans-32"/>
       <use xlink:href="#DejaVuSans-33" x="63.623047"/>
       <use xlink:href="#DejaVuSans-35" x="127.246094"/>
      </g>
     </g>
    </g>
    <g id="xtick_15">
     <g id="line2d_15">
      <g>
       <use xlink:href="#m9210eceea0" x="371.185254" y="252" style="stroke: #000000; stroke-width: 0.8"/>
      </g>
     </g>
     <g id="text_15">
      <!-- 253 -->
      <g transform="translate(361.641504 266.598437)scale(0.1 -0.1)">
       <use xlink:href="#DejaVuSans-32"/>
       <use xlink:href="#DejaVuSans-35" x="63.623047"/>
       <use xlink:href="#DejaVuSans-33" x="127.246094"/>
      </g>
     </g>
    </g>
    <g id="text_16">
     <!-- Program size -->
     <g transform="translate(189.022656 280.276563)scale(0.1 -0.1)">
      <defs>
       <path id="DejaVuSans-50" d="M 1259 4147 
L 1259 2394 
L 2053 2394 
Q 2494 2394 2734 2622 
Q 2975 2850 2975 3272 
Q 2975 3691 2734 3919 
Q 2494 4147 2053 4147 
L 1259 4147 
z
M 628 4666 
L 2053 4666 
Q 2838 4666 3239 4311 
Q 3641 3956 3641 3272 
Q 3641 2581 3239 2228 
Q 2838 1875 2053 1875 
L 1259 1875 
L 1259 0 
L 628 0 
L 628 4666 
z
" transform="scale(0.015625)"/>
       <path id="DejaVuSans-72" d="M 2631 2963 
Q 2534 3019 2420 3045 
Q 2306 3072 2169 3072 
Q 1681 3072 1420 2755 
Q 1159 2438 1159 1844 
L 1159 0 
L 581 0 
L 581 3500 
L 1159 3500 
L 1159 2956 
Q 1341 3275 1631 3429 
Q 1922 3584 2338 3584 
Q 2397 3584 2469 3576 
Q 2541 3569 2628 3553 
L 2631 2963 
z
" transform="scale(0.015625)"/>
       <path id="DejaVuSans-6f" d="M 1959 3097 
Q 1497 3097 1228 2736 
Q 959 2375 959 1747 
Q 959 1119 1226 758 
Q 1494 397 1959 397 
Q 2419 397 2687 759 
Q 2956 1122 2956 1747 
Q 2956 2369 2687 2733 
Q 2419 3097 1959 3097 
z
M 1959 3584 
Q 2709 3584 3137 3096 
Q 3566 2609 3566 1747 
Q 3566 888 3137 398 
Q 2709 -91 1959 -91 
Q 1206 -91 779 398 
Q 353 888 353 1747 
Q 353 2609 779 3096 
Q 1206 3584 1959 3584 
z
" transform="scale(0.015625)"/>
       <path id="DejaVuSans-67" d="M 2906 1791 
Q 2906 2416 2648 2759 
Q 2391 3103 1925 3103 
Q 1463 3103 1205 2759 
Q 947 2416 947 1791 
Q 947 1169 1205 825 
Q 1463 481 1925 481 
Q 2391 481 2648 825 
Q 2906 1169 2906 1791 
z
M 3481 434 
Q 3481 -459 3084 -895 
Q 2688 -1331 1869 -1331 
Q 1566 -1331 1297 -1286 
Q 1028 -1241 775 -1147 
L 775 -588 
Q 1028 -725 1275 -790 
Q 1522 -856 1778 -856 
Q 2344 -856 2625 -561 
Q 2906 -266 2906 331 
L 2906 616 
Q 2728 306 2450 153 
Q 2172 0 1784 0 
Q 1141 0 747 490 
Q 353 981 353 1791 
Q 353 2603 747 3093 
Q 1141 3584 1784 3584 
Q 2172 3584 2450 3431 
Q 2728 3278 2906 2969 
L 2906 3500 
L 3481 3500 
L 3481 434 
z
" transform="scale(0.015625)"/>
       <path id="DejaVuSans-61" d="M 2194 1759 
Q 1497 1759 1228 1600 
Q 959 1441 959 1056 
Q 959 750 1161 570 
Q 1363 391 1709 391 
Q 2188 391 2477 730 
Q 2766 1069 2766 1631 
L 2766 1759 
L 2194 1759 
z
M 3341 1997 
L 3341 0 
L 2766 0 
L 2766 531 
Q 2569 213 2275 61 
Q 1981 -91 1556 -91 
Q 1019 -91 701 211 
Q 384 513 384 1019 
Q 384 1609 779 1909 
Q 1175 2209 1959 2209 
L 2766 2209 
L 2766 2266 
Q 2766 2663 2505 2880 
Q 2244 3097 1772 3097 
Q 1472 3097 1187 3025 
Q 903 2953 641 2809 
L 641 3341 
Q 956 3463 1253 3523 
Q 1550 3584 1831 3584 
Q 2591 3584 2966 3190 
Q 3341 2797 3341 1997 
z
" transform="scale(0.015625)"/>
       <path id="DejaVuSans-6d" d="M 3328 2828 
Q 3544 3216 3844 3400 
Q 4144 3584 4550 3584 
Q 5097 3584 5394 3201 
Q 5691 2819 5691 2113 
L 5691 0 
L 5113 0 
L 5113 2094 
Q 5113 2597 4934 2840 
Q 4756 3084 4391 3084 
Q 3944 3084 3684 2787 
Q 3425 2491 3425 1978 
L 3425 0 
L 2847 0 
L 2847 2094 
Q 2847 2600 2669 2842 
Q 2491 3084 2119 3084 
Q 1678 3084 1418 2786 
Q 1159 2488 1159 1978 
L 1159 0 
L 581 0 
L 581 3500 
L 1159 3500 
L 1159 2956 
Q 1356 3278 1631 3431 
Q 1906 3584 2284 3584 
Q 2666 3584 2933 3390 
Q 3200 3197 3328 2828 
z
" transform="scale(0.015625)"/>
       <path id="DejaVuSans-20" transform="scale(0.015625)"/>
       <path id="DejaVuSans-73" d="M 2834 3397 
L 2834 2853 
Q 2591 2978 2328 3040 
Q 2066 3103 1784 3103 
Q 1356 3103 1142 2972 
Q 928 2841 928 2578 
Q 928 2378 1081 2264 
Q 1234 2150 1697 2047 
L 1894 2003 
Q 2506 1872 2764 1633 
Q 3022 1394 3022 966 
Q 3022 478 2636 193 
Q 2250 -91 1575 -91 
Q 1294 -91 989 -36 
Q 684 19 347 128 
L 347 722 
Q 666 556 975 473 
Q 1284 391 1588 391 
Q 1994 391 2212 530 
Q 2431 669 2431 922 
Q 2431 1156 2273 1281 
Q 2116 1406 1581 1522 
L 1381 1569 
Q 847 1681 609 1914 
Q 372 2147 372 2553 
Q 372 3047 722 3315 
Q 1072 3584 1716 3584 
Q 2034 3584 2315 3537 
Q 2597 3491 2834 3397 
z
" transform="scale(0.015625)"/>
       <path id="DejaVuSans-69" d="M 603 3500 
L 1178 3500 
L 1178 0 
L 603 0 
L 603 3500 
z
M 603 4863 
L 1178 4863 
L 1178 4134 
L 603 4134 
L 603 4863 
z
" transform="scale(0.015625)"/>
       <path id="DejaVuSans-7a" d="M 353 3500 
L 3084 3500 
L 3084 2975 
L 922 459 
L 3084 459 
L 3084 0 
L 275 0 
L 275 525 
L 2438 3041 
L 353 3041 
L 353 3500 
z
" transform="scale(0.015625)"/>
       <path id="DejaVuSans-65" d="M 3597 1894 
L 3597 1613 
L 953 1613 
Q 991 1019 1311 708 
Q 1631 397 2203 397 
Q 2534 397 2845 478 
Q 3156 559 3463 722 
L 3463 178 
Q 3153 47 2828 -22 
Q 2503 -91 2169 -91 
Q 1331 -91 842 396 
Q 353 884 353 1716 
Q 353 2575 817 3079 
Q 1281 3584 2069 3584 
Q 2775 3584 3186 3129 
Q 3597 2675 3597 1894 
z
M 3022 2063 
Q 3016 2534 2758 2815 
Q 2500 3097 2075 3097 
Q 1594 3097 1305 2825 
Q 1016 2553 972 2059 
L 3022 2063 
z
" transform="scale(0.015625)"/>
      </defs>
      <use xlink:href="#DejaVuSans-50"/>
      <use xlink:href="#DejaVuSans-72" x="58.552734"/>
      <use xlink:href="#DejaVuSans-6f" x="97.416016"/>
      <use xlink:href="#DejaVuSans-67" x="158.597656"/>
      <use xlink:href="#DejaVuSans-72" x="222.074219"/>
      <use xlink:href="#DejaVuSans-61" x="263.1875"/>
      <use xlink:href="#DejaVuSans-6d" x="324.466797"/>
      <use xlink:href="#DejaVuSans-20" x="421.878906"/>
      <use xlink:href="#DejaVuSans-73" x="453.666016"/>
      <use xlink:href="#DejaVuSans-69" x="505.765625"/>
      <use xlink:href="#DejaVuSans-7a" x="533.548828"/>
      <use xlink:href="#DejaVuSans-65" x="586.039062"/>
     </g>
    </g>
   </g>
   <g id="matplotlib.axis_2">
    <g id="ytick_1">
     <g id="line2d_16">
      <defs>
       <path id="m33d43589f3" d="M 0 0 
L -3.5 0 
" style="stroke: #000000; stroke-width: 0.8"/>
      </defs>
      <g>
       <use xlink:href="#m33d43589f3" x="54" y="245.974794" style="stroke: #000000; stroke-width: 0.8"/>
      </g>
     </g>
     <g id="text_17">
      <!-- $\mathdefault{10^{7}}$ -->
      <g transform="translate(29.4 249.774013)scale(0.1 -0.1)">
       <use xlink:href="#DejaVuSans-31" transform="translate(0 0.684375)"/>
       <use xlink:href="#DejaVuSans-30" transform="translate(63.623047 0.684375)"/>
       <use xlink:href="#DejaVuSans-37" transform="translate(128.203125 38.965625)scale(0.7)"/>
      </g>
     </g>
    </g>
    <g id="ytick_2">
     <g id="line2d_17">
      <g>
       <use xlink:href="#m33d43589f3" x="54" y="214.882036" style="stroke: #000000; stroke-width: 0.8"/>
      </g>
     </g>
     <g id="text_18">
      <!-- $\mathdefault{10^{8}}$ -->
      <g transform="translate(29.4 218.681255)scale(0.1 -0.1)">
       <use xlink:href="#DejaVuSans-31" transform="translate(0 0.765625)"/>
       <use xlink:href="#DejaVuSans-30" transform="translate(63.623047 0.765625)"/>
       <use xlink:href="#DejaVuSans-38" transform="translate(128.203125 39.046875)scale(0.7)"/>
      </g>
     </g>
    </g>
    <g id="ytick_3">
     <g id="line2d_18">
      <g>
       <use xlink:href="#m33d43589f3" x="54" y="183.789278" style="stroke: #000000; stroke-width: 0.8"/>
      </g>
     </g>
     <g id="text_19">
      <!-- $\mathdefault{10^{9}}$ -->
      <g transform="translate(29.4 187.588497)scale(0.1 -0.1)">
       <use xlink:href="#DejaVuSans-31" transform="translate(0 0.765625)"/>
       <use xlink:href="#DejaVuSans-30" transform="translate(63.623047 0.765625)"/>
       <use xlink:href="#DejaVuSans-39" transform="translate(128.203125 39.046875)scale(0.7)"/>
      </g>
     </g>
    </g>
    <g id="ytick_4">
     <g id="line2d_19">
      <g>
       <use xlink:href="#m33d43589f3" x="54" y="152.69652" style="stroke: #000000; stroke-width: 0.8"/>
      </g>
     </g>
     <g id="text_20">
      <!-- $\mathdefault{10^{10}}$ -->
      <g transform="translate(24.9 156.495739)scale(0.1 -0.1)">
       <use xlink:href="#DejaVuSans-31" transform="translate(0 0.765625)"/>
       <use xlink:href="#DejaVuSans-30" transform="translate(63.623047 0.765625)"/>
       <use xlink:href="#DejaVuSans-31" transform="translate(128.203125 39.046875)scale(0.7)"/>
       <use xlink:href="#DejaVuSans-30" transform="translate(172.739258 39.046875)scale(0.7)"/>
      </g>
     </g>
    </g>
    <g id="ytick_5">
     <g id="line2d_20">
      <g>
       <use xlink:href="#m33d43589f3" x="54" y="121.603763" style="stroke: #000000; stroke-width: 0.8"/>
      </g>
     </g>
     <g id="text_21">
      <!-- $\mathdefault{10^{11}}$ -->
      <g transform="translate(24.9 125.402981)scale(0.1 -0.1)">
       <use xlink:href="#DejaVuSans-31" transform="translate(0 0.684375)"/>
       <use xlink:href="#DejaVuSans-30" transform="translate(63.623047 0.684375)"/>
       <use xlink:href="#DejaVuSans-31" transform="translate(128.203125 38.965625)scale(0.7)"/>
       <use xlink:href="#DejaVuSans-31" transform="translate(172.739258 38.965625)scale(0.7)"/>
      </g>
     </g>
    </g>
    <g id="ytick_6">
     <g id="line2d_21">
      <g>
       <use xlink:href="#m33d43589f3" x="54" y="90.511005" style="stroke: #000000; stroke-width: 0.8"/>
      </g>
     </g>
     <g id="text_22">
      <!-- $\mathdefault{10^{12}}$ -->
      <g transform="translate(24.9 94.310223)scale(0.1 -0.1)">
       <use xlink:href="#DejaVuSans-31" transform="translate(0 0.765625)"/>
       <use xlink:href="#DejaVuSans-30" transform="translate(63.623047 0.765625)"/>
       <use xlink:href="#DejaVuSans-31" transform="translate(128.203125 39.046875)scale(0.7)"/>
       <use xlink:href="#DejaVuSans-32" transform="translate(172.739258 39.046875)scale(0.7)"/>
      </g>
     </g>
    </g>
    <g id="ytick_7">
     <g id="line2d_22">
      <g>
       <use xlink:href="#m33d43589f3" x="54" y="59.418247" style="stroke: #000000; stroke-width: 0.8"/>
      </g>
     </g>
     <g id="text_23">
      <!-- $\mathdefault{10^{13}}$ -->
      <g transform="translate(24.9 63.217466)scale(0.1 -0.1)">
       <use xlink:href="#DejaVuSans-31" transform="translate(0 0.765625)"/>
       <use xlink:href="#DejaVuSans-30" transform="translate(63.623047 0.765625)"/>
       <use xlink:href="#DejaVuSans-31" transform="translate(128.203125 39.046875)scale(0.7)"/>
       <use xlink:href="#DejaVuSans-33" transform="translate(172.739258 39.046875)scale(0.7)"/>
      </g>
     </g>
    </g>
    <g id="ytick_8">
     <g id="line2d_23">
      <defs>
       <path id="med3082ba04" d="M 0 0 
L -2 0 
" style="stroke: #000000; stroke-width: 0.6"/>
      </defs>
      <g>
       <use xlink:href="#med3082ba04" x="54" y="250.791123" style="stroke: #000000; stroke-width: 0.6"/>
      </g>
     </g>
    </g>
    <g id="ytick_9">
     <g id="line2d_24">
      <g>
       <use xlink:href="#med3082ba04" x="54" y="248.987993" style="stroke: #000000; stroke-width: 0.6"/>
      </g>
     </g>
    </g>
    <g id="ytick_10">
     <g id="line2d_25">
      <g>
       <use xlink:href="#med3082ba04" x="54" y="247.39752" style="stroke: #000000; stroke-width: 0.6"/>
      </g>
     </g>
    </g>
    <g id="ytick_11">
     <g id="line2d_26">
      <g>
       <use xlink:href="#med3082ba04" x="54" y="236.614941" style="stroke: #000000; stroke-width: 0.6"/>
      </g>
     </g>
    </g>
    <g id="ytick_12">
     <g id="line2d_27">
      <g>
       <use xlink:href="#med3082ba04" x="54" y="231.139778" style="stroke: #000000; stroke-width: 0.6"/>
      </g>
     </g>
    </g>
    <g id="ytick_13">
     <g id="line2d_28">
      <g>
       <use xlink:href="#med3082ba04" x="54" y="227.255088" style="stroke: #000000; stroke-width: 0.6"/>
      </g>
     </g>
    </g>
    <g id="ytick_14">
     <g id="line2d_29">
      <g>
       <use xlink:href="#med3082ba04" x="54" y="224.241889" style="stroke: #000000; stroke-width: 0.6"/>
      </g>
     </g>
    </g>
    <g id="ytick_15">
     <g id="line2d_30">
      <g>
       <use xlink:href="#med3082ba04" x="54" y="221.779925" style="stroke: #000000; stroke-width: 0.6"/>
      </g>
     </g>
    </g>
    <g id="ytick_16">
     <g id="line2d_31">
      <g>
       <use xlink:href="#med3082ba04" x="54" y="219.698365" style="stroke: #000000; stroke-width: 0.6"/>
      </g>
     </g>
    </g>
    <g id="ytick_17">
     <g id="line2d_32">
      <g>
       <use xlink:href="#med3082ba04" x="54" y="217.895236" style="stroke: #000000; stroke-width: 0.6"/>
      </g>
     </g>
    </g>
    <g id="ytick_18">
     <g id="line2d_33">
      <g>
       <use xlink:href="#med3082ba04" x="54" y="216.304763" style="stroke: #000000; stroke-width: 0.6"/>
      </g>
     </g>
    </g>
    <g id="ytick_19">
     <g id="line2d_34">
      <g>
       <use xlink:href="#med3082ba04" x="54" y="205.522183" style="stroke: #000000; stroke-width: 0.6"/>
      </g>
     </g>
    </g>
    <g id="ytick_20">
     <g id="line2d_35">
      <g>
       <use xlink:href="#med3082ba04" x="54" y="200.04702" style="stroke: #000000; stroke-width: 0.6"/>
      </g>
     </g>
    </g>
    <g id="ytick_21">
     <g id="line2d_36">
      <g>
       <use xlink:href="#med3082ba04" x="54" y="196.16233" style="stroke: #000000; stroke-width: 0.6"/>
      </g>
     </g>
    </g>
    <g id="ytick_22">
     <g id="line2d_37">
      <g>
       <use xlink:href="#med3082ba04" x="54" y="193.149131" style="stroke: #000000; stroke-width: 0.6"/>
      </g>
     </g>
    </g>
    <g id="ytick_23">
     <g id="line2d_38">
      <g>
       <use xlink:href="#med3082ba04" x="54" y="190.687168" style="stroke: #000000; stroke-width: 0.6"/>
      </g>
     </g>
    </g>
    <g id="ytick_24">
     <g id="line2d_39">
      <g>
       <use xlink:href="#med3082ba04" x="54" y="188.605607" style="stroke: #000000; stroke-width: 0.6"/>
      </g>
     </g>
    </g>
    <g id="ytick_25">
     <g id="line2d_40">
      <g>
       <use xlink:href="#med3082ba04" x="54" y="186.802478" style="stroke: #000000; stroke-width: 0.6"/>
      </g>
     </g>
    </g>
    <g id="ytick_26">
     <g id="line2d_41">
      <g>
       <use xlink:href="#med3082ba04" x="54" y="185.212005" style="stroke: #000000; stroke-width: 0.6"/>
      </g>
     </g>
    </g>
    <g id="ytick_27">
     <g id="line2d_42">
      <g>
       <use xlink:href="#med3082ba04" x="54" y="174.429425" style="stroke: #000000; stroke-width: 0.6"/>
      </g>
     </g>
    </g>
    <g id="ytick_28">
     <g id="line2d_43">
      <g>
       <use xlink:href="#med3082ba04" x="54" y="168.954263" style="stroke: #000000; stroke-width: 0.6"/>
      </g>
     </g>
    </g>
    <g id="ytick_29">
     <g id="line2d_44">
      <g>
       <use xlink:href="#med3082ba04" x="54" y="165.069573" style="stroke: #000000; stroke-width: 0.6"/>
      </g>
     </g>
    </g>
    <g id="ytick_30">
     <g id="line2d_45">
      <g>
       <use xlink:href="#med3082ba04" x="54" y="162.056373" style="stroke: #000000; stroke-width: 0.6"/>
      </g>
     </g>
    </g>
    <g id="ytick_31">
     <g id="line2d_46">
      <g>
       <use xlink:href="#med3082ba04" x="54" y="159.59441" style="stroke: #000000; stroke-width: 0.6"/>
      </g>
     </g>
    </g>
    <g id="ytick_32">
     <g id="line2d_47">
      <g>
       <use xlink:href="#med3082ba04" x="54" y="157.512849" style="stroke: #000000; stroke-width: 0.6"/>
      </g>
     </g>
    </g>
    <g id="ytick_33">
     <g id="line2d_48">
      <g>
       <use xlink:href="#med3082ba04" x="54" y="155.70972" style="stroke: #000000; stroke-width: 0.6"/>
      </g>
     </g>
    </g>
    <g id="ytick_34">
     <g id="line2d_49">
      <g>
       <use xlink:href="#med3082ba04" x="54" y="154.119247" style="stroke: #000000; stroke-width: 0.6"/>
      </g>
     </g>
    </g>
    <g id="ytick_35">
     <g id="line2d_50">
      <g>
       <use xlink:href="#med3082ba04" x="54" y="143.336668" style="stroke: #000000; stroke-width: 0.6"/>
      </g>
     </g>
    </g>
    <g id="ytick_36">
     <g id="line2d_51">
      <g>
       <use xlink:href="#med3082ba04" x="54" y="137.861505" style="stroke: #000000; stroke-width: 0.6"/>
      </g>
     </g>
    </g>
    <g id="ytick_37">
     <g id="line2d_52">
      <g>
       <use xlink:href="#med3082ba04" x="54" y="133.976815" style="stroke: #000000; stroke-width: 0.6"/>
      </g>
     </g>
    </g>
    <g id="ytick_38">
     <g id="line2d_53">
      <g>
       <use xlink:href="#med3082ba04" x="54" y="130.963615" style="stroke: #000000; stroke-width: 0.6"/>
      </g>
     </g>
    </g>
    <g id="ytick_39">
     <g id="line2d_54">
      <g>
       <use xlink:href="#med3082ba04" x="54" y="128.501652" style="stroke: #000000; stroke-width: 0.6"/>
      </g>
     </g>
    </g>
    <g id="ytick_40">
     <g id="line2d_55">
      <g>
       <use xlink:href="#med3082ba04" x="54" y="126.420092" style="stroke: #000000; stroke-width: 0.6"/>
      </g>
     </g>
    </g>
    <g id="ytick_41">
     <g id="line2d_56">
      <g>
       <use xlink:href="#med3082ba04" x="54" y="124.616962" style="stroke: #000000; stroke-width: 0.6"/>
      </g>
     </g>
    </g>
    <g id="ytick_42">
     <g id="line2d_57">
      <g>
       <use xlink:href="#med3082ba04" x="54" y="123.026489" style="stroke: #000000; stroke-width: 0.6"/>
      </g>
     </g>
    </g>
    <g id="ytick_43">
     <g id="line2d_58">
      <g>
       <use xlink:href="#med3082ba04" x="54" y="112.24391" style="stroke: #000000; stroke-width: 0.6"/>
      </g>
     </g>
    </g>
    <g id="ytick_44">
     <g id="line2d_59">
      <g>
       <use xlink:href="#med3082ba04" x="54" y="106.768747" style="stroke: #000000; stroke-width: 0.6"/>
      </g>
     </g>
    </g>
    <g id="ytick_45">
     <g id="line2d_60">
      <g>
       <use xlink:href="#med3082ba04" x="54" y="102.884057" style="stroke: #000000; stroke-width: 0.6"/>
      </g>
     </g>
    </g>
    <g id="ytick_46">
     <g id="line2d_61">
      <g>
       <use xlink:href="#med3082ba04" x="54" y="99.870857" style="stroke: #000000; stroke-width: 0.6"/>
      </g>
     </g>
    </g>
    <g id="ytick_47">
     <g id="line2d_62">
      <g>
       <use xlink:href="#med3082ba04" x="54" y="97.408894" style="stroke: #000000; stroke-width: 0.6"/>
      </g>
     </g>
    </g>
    <g id="ytick_48">
     <g id="line2d_63">
      <g>
       <use xlink:href="#med3082ba04" x="54" y="95.327334" style="stroke: #000000; stroke-width: 0.6"/>
      </g>
     </g>
    </g>
    <g id="ytick_49">
     <g id="line2d_64">
      <g>
       <use xlink:href="#med3082ba04" x="54" y="93.524204" style="stroke: #000000; stroke-width: 0.6"/>
      </g>
     </g>
    </g>
    <g id="ytick_50">
     <g id="line2d_65">
      <g>
       <use xlink:href="#med3082ba04" x="54" y="91.933731" style="stroke: #000000; stroke-width: 0.6"/>
      </g>
     </g>
    </g>
    <g id="ytick_51">
     <g id="line2d_66">
      <g>
       <use xlink:href="#med3082ba04" x="54" y="81.151152" style="stroke: #000000; stroke-width: 0.6"/>
      </g>
     </g>
    </g>
    <g id="ytick_52">
     <g id="line2d_67">
      <g>
       <use xlink:href="#med3082ba04" x="54" y="75.675989" style="stroke: #000000; stroke-width: 0.6"/>
      </g>
     </g>
    </g>
    <g id="ytick_53">
     <g id="line2d_68">
      <g>
       <use xlink:href="#med3082ba04" x="54" y="71.791299" style="stroke: #000000; stroke-width: 0.6"/>
      </g>
     </g>
    </g>
    <g id="ytick_54">
     <g id="line2d_69">
      <g>
       <use xlink:href="#med3082ba04" x="54" y="68.7781" style="stroke: #000000; stroke-width: 0.6"/>
      </g>
     </g>
    </g>
    <g id="ytick_55">
     <g id="line2d_70">
      <g>
       <use xlink:href="#med3082ba04" x="54" y="66.316136" style="stroke: #000000; stroke-width: 0.6"/>
      </g>
     </g>
    </g>
    <g id="ytick_56">
     <g id="line2d_71">
      <g>
       <use xlink:href="#med3082ba04" x="54" y="64.234576" style="stroke: #000000; stroke-width: 0.6"/>
      </g>
     </g>
    </g>
    <g id="ytick_57">
     <g id="line2d_72">
      <g>
       <use xlink:href="#med3082ba04" x="54" y="62.431446" style="stroke: #000000; stroke-width: 0.6"/>
      </g>
     </g>
    </g>
    <g id="ytick_58">
     <g id="line2d_73">
      <g>
       <use xlink:href="#med3082ba04" x="54" y="60.840973" style="stroke: #000000; stroke-width: 0.6"/>
      </g>
     </g>
    </g>
    <g id="ytick_59">
     <g id="line2d_74">
      <g>
       <use xlink:href="#med3082ba04" x="54" y="50.058394" style="stroke: #000000; stroke-width: 0.6"/>
      </g>
     </g>
    </g>
    <g id="ytick_60">
     <g id="line2d_75">
      <g>
       <use xlink:href="#med3082ba04" x="54" y="44.583231" style="stroke: #000000; stroke-width: 0.6"/>
      </g>
     </g>
    </g>
    <g id="ytick_61">
     <g id="line2d_76">
      <g>
       <use xlink:href="#med3082ba04" x="54" y="40.698541" style="stroke: #000000; stroke-width: 0.6"/>
      </g>
     </g>
    </g>
    <g id="ytick_62">
     <g id="line2d_77">
      <g>
       <use xlink:href="#med3082ba04" x="54" y="37.685342" style="stroke: #000000; stroke-width: 0.6"/>
      </g>
     </g>
    </g>
    <g id="ytick_63">
     <g id="line2d_78">
      <g>
       <use xlink:href="#med3082ba04" x="54" y="35.223378" style="stroke: #000000; stroke-width: 0.6"/>
      </g>
     </g>
    </g>
    <g id="text_24">
     <!-- Median NEPS -->
     <g transform="translate(18.820312 176.144844)rotate(-90)scale(0.1 -0.1)">
      <defs>
       <path id="DejaVuSans-4d" d="M 628 4666 
L 1569 4666 
L 2759 1491 
L 3956 4666 
L 4897 4666 
L 4897 0 
L 4281 0 
L 4281 4097 
L 3078 897 
L 2444 897 
L 1241 4097 
L 1241 0 
L 628 0 
L 628 4666 
z
" transform="scale(0.015625)"/>
       <path id="DejaVuSans-64" d="M 2906 2969 
L 2906 4863 
L 3481 4863 
L 3481 0 
L 2906 0 
L 2906 525 
Q 2725 213 2448 61 
Q 2172 -91 1784 -91 
Q 1150 -91 751 415 
Q 353 922 353 1747 
Q 353 2572 751 3078 
Q 1150 3584 1784 3584 
Q 2172 3584 2448 3432 
Q 2725 3281 2906 2969 
z
M 947 1747 
Q 947 1113 1208 752 
Q 1469 391 1925 391 
Q 2381 391 2643 752 
Q 2906 1113 2906 1747 
Q 2906 2381 2643 2742 
Q 2381 3103 1925 3103 
Q 1469 3103 1208 2742 
Q 947 2381 947 1747 
z
" transform="scale(0.015625)"/>
       <path id="DejaVuSans-6e" d="M 3513 2113 
L 3513 0 
L 2938 0 
L 2938 2094 
Q 2938 2591 2744 2837 
Q 2550 3084 2163 3084 
Q 1697 3084 1428 2787 
Q 1159 2491 1159 1978 
L 1159 0 
L 581 0 
L 581 3500 
L 1159 3500 
L 1159 2956 
Q 1366 3272 1645 3428 
Q 1925 3584 2291 3584 
Q 2894 3584 3203 3211 
Q 3513 2838 3513 2113 
z
" transform="scale(0.015625)"/>
       <path id="DejaVuSans-4e" d="M 628 4666 
L 1478 4666 
L 3547 763 
L 3547 4666 
L 4159 4666 
L 4159 0 
L 3309 0 
L 1241 3903 
L 1241 0 
L 628 0 
L 628 4666 
z
" transform="scale(0.015625)"/>
       <path id="DejaVuSans-45" d="M 628 4666 
L 3578 4666 
L 3578 4134 
L 1259 4134 
L 1259 2753 
L 3481 2753 
L 3481 2222 
L 1259 2222 
L 1259 531 
L 3634 531 
L 3634 0 
L 628 0 
L 628 4666 
z
" transform="scale(0.015625)"/>
       <path id="DejaVuSans-53" d="M 3425 4513 
L 3425 3897 
Q 3066 4069 2747 4153 
Q 2428 4238 2131 4238 
Q 1616 4238 1336 4038 
Q 1056 3838 1056 3469 
Q 1056 3159 1242 3001 
Q 1428 2844 1947 2747 
L 2328 2669 
Q 3034 2534 3370 2195 
Q 3706 1856 3706 1288 
Q 3706 609 3251 259 
Q 2797 -91 1919 -91 
Q 1588 -91 1214 -16 
Q 841 59 441 206 
L 441 856 
Q 825 641 1194 531 
Q 1563 422 1919 422 
Q 2459 422 2753 634 
Q 3047 847 3047 1241 
Q 3047 1584 2836 1778 
Q 2625 1972 2144 2069 
L 1759 2144 
Q 1053 2284 737 2584 
Q 422 2884 422 3419 
Q 422 4038 858 4394 
Q 1294 4750 2059 4750 
Q 2388 4750 2728 4690 
Q 3069 4631 3425 4513 
z
" transform="scale(0.015625)"/>
      </defs>
      <use xlink:href="#DejaVuSans-4d"/>
      <use xlink:href="#DejaVuSans-65" x="86.279297"/>
      <use xlink:href="#DejaVuSans-64" x="147.802734"/>
      <use xlink:href="#DejaVuSans-69" x="211.279297"/>
      <use xlink:href="#DejaVuSans-61" x="239.0625"/>
      <use xlink:href="#DejaVuSans-6e" x="300.341797"/>
      <use xlink:href="#DejaVuSans-20" x="363.720703"/>
      <use xlink:href="#DejaVuSans-4e" x="395.507812"/>
      <use xlink:href="#DejaVuSans-45" x="470.3125"/>
      <use xlink:href="#DejaVuSans-50" x="533.496094"/>
      <use xlink:href="#DejaVuSans-53" x="593.798828"/>
     </g>
    </g>
   </g>
   <g id="line2d_79">
    <path d="M 69.218182 226.269699 
L 71.614746 213.484987 
L 74.01131 207.690872 
L 76.407874 203.760063 
L 78.804438 197.857961 
L 81.201002 198.145133 
L 83.597566 193.148421 
L 85.99413 194.068376 
L 88.390694 194.140131 
L 90.787258 192.445229 
L 93.183822 191.181371 
L 95.580387 192.006453 
L 97.976951 188.739395 
L 100.373515 189.922139 
L 105.166643 186.053226 
L 109.959771 187.713802 
L 112.356335 187.850626 
L 114.752899 183.861463 
L 117.149463 184.017102 
L 119.546027 186.739026 
L 121.942591 187.061948 
L 124.339155 185.290076 
L 126.735719 185.037611 
L 129.132283 187.507706 
L 131.528848 184.437632 
L 133.925412 183.131121 
L 136.321976 182.46989 
L 138.71854 184.339997 
L 141.115104 183.572549 
L 143.511668 183.021139 
L 145.908232 180.770362 
L 148.304796 183.616247 
L 150.70136 183.448212 
L 153.097924 183.69234 
L 155.494488 182.665836 
L 157.891052 181.810416 
L 160.287616 183.446751 
L 162.68418 183.492802 
L 165.080744 180.646885 
L 167.477309 183.164108 
L 169.873873 181.762875 
L 172.270437 183.148927 
L 174.667001 183.428436 
L 177.063565 182.763593 
L 179.460129 182.626787 
L 184.253257 183.69676 
L 186.649821 183.219908 
L 189.046385 182.39536 
L 191.442949 181.802105 
L 193.839513 179.53576 
L 196.236077 181.627545 
L 198.632641 180.759282 
L 201.029205 181.426098 
L 203.42577 182.727956 
L 205.822334 181.533138 
L 208.218898 183.495555 
L 210.615462 181.131896 
L 213.012026 182.964633 
L 215.40859 181.302702 
L 217.805154 180.888948 
L 220.201718 181.933329 
L 222.598282 180.99179 
L 224.994846 181.768141 
L 227.39141 181.454089 
L 232.184538 181.706209 
L 234.581102 178.673057 
L 236.977666 180.673164 
L 239.37423 182.336147 
L 241.770795 181.639747 
L 244.167359 180.809648 
L 246.563923 180.470896 
L 248.960487 181.238624 
L 251.357051 182.397739 
L 253.753615 181.94749 
L 256.150179 181.04662 
L 258.546743 184.427978 
L 260.943307 180.076857 
L 263.339871 181.167245 
L 265.736435 180.95618 
L 268.132999 181.281535 
L 270.529563 182.061904 
L 272.926127 181.682936 
L 275.322691 179.940146 
L 280.11582 180.925323 
L 282.512384 180.023022 
L 284.908948 180.174854 
L 287.305512 180.052302 
L 289.702076 179.334307 
L 292.09864 179.946921 
L 294.495204 181.059273 
L 296.891768 179.539588 
L 299.288332 180.884623 
L 301.684896 181.671023 
L 304.08146 180.410299 
L 306.478024 180.353667 
L 308.874588 178.838776 
L 311.271152 179.800293 
L 313.667717 179.837611 
L 316.064281 180.728856 
L 318.460845 181.430028 
L 320.857409 179.528655 
L 325.650537 179.853684 
L 328.047101 181.35508 
L 330.443665 179.210204 
L 332.840229 179.857502 
L 335.236793 179.614085 
L 337.633357 177.792025 
L 340.029921 178.16123 
L 342.426485 179.930636 
L 344.823049 178.56165 
L 347.219613 180.501866 
L 349.616178 179.52646 
L 352.012742 182.004643 
L 354.409306 178.812889 
L 356.80587 180.716857 
L 359.202434 178.651077 
L 361.598998 179.588341 
L 363.995562 180.722421 
L 366.392126 178.153359 
L 368.78869 178.855734 
L 371.185254 179.394241 
L 373.581818 179.498114 
L 373.581818 179.498114 
" clip-path="url(#pe877d9aa07)" style="fill: none; stroke: #1f77b4; stroke-width: 1.5; stroke-linecap: square"/>
   </g>
   <g id="line2d_80">
    <path d="M 69.218182 242.116364 
L 71.614746 189.811356 
L 74.01131 187.557741 
L 76.407874 178.32981 
L 78.804438 177.053963 
L 81.201002 174.433031 
L 83.597566 169.484243 
L 85.99413 167.830023 
L 88.390694 172.760378 
L 90.787258 171.227971 
L 93.183822 167.128396 
L 95.580387 165.053271 
L 97.976951 162.351735 
L 100.373515 165.390193 
L 102.770079 162.295107 
L 105.166643 163.108869 
L 107.563207 161.375192 
L 109.959771 163.784644 
L 112.356335 165.344767 
L 114.752899 158.973883 
L 117.149463 158.898324 
L 119.546027 160.58267 
L 121.942591 162.095467 
L 124.339155 160.958148 
L 126.735719 160.151586 
L 129.132283 160.257711 
L 131.528848 161.391535 
L 133.925412 158.809334 
L 136.321976 160.73661 
L 138.71854 159.497176 
L 141.115104 162.444389 
L 143.511668 169.015882 
L 145.908232 159.809249 
L 148.304796 159.120323 
L 150.70136 161.415879 
L 153.097924 158.587254 
L 155.494488 157.696793 
L 157.891052 160.113567 
L 160.287616 161.809246 
L 162.68418 162.063415 
L 165.080744 156.362251 
L 167.477309 158.713342 
L 169.873873 158.084299 
L 172.270437 159.142911 
L 174.667001 164.90179 
L 177.063565 158.922146 
L 179.460129 158.637856 
L 181.856693 159.930864 
L 184.253257 159.264829 
L 186.649821 157.75367 
L 189.046385 161.659244 
L 191.442949 163.404955 
L 193.839513 157.981714 
L 196.236077 161.810789 
L 198.632641 158.273164 
L 201.029205 160.415722 
L 203.42577 162.172343 
L 205.822334 160.160757 
L 208.218898 161.419097 
L 210.615462 158.50457 
L 213.012026 161.658689 
L 215.40859 157.540937 
L 217.805154 156.949493 
L 220.201718 157.746197 
L 222.598282 158.326053 
L 224.994846 160.456961 
L 227.39141 159.128982 
L 229.787974 158.01552 
L 232.184538 159.904325 
L 234.581102 157.3509 
L 236.977666 158.126071 
L 239.37423 157.097609 
L 241.770795 157.989148 
L 244.167359 158.445937 
L 246.563923 158.787274 
L 248.960487 160.268944 
L 251.357051 158.835888 
L 253.753615 159.372395 
L 256.150179 158.254156 
L 258.546743 158.224205 
L 260.943307 156.68415 
L 263.339871 158.500933 
L 265.736435 157.496751 
L 268.132999 158.09281 
L 270.529563 160.434082 
L 272.926127 163.116247 
L 275.322691 157.467258 
L 277.719256 156.71067 
L 280.11582 159.607024 
L 282.512384 161.038576 
L 284.908948 159.454594 
L 287.305512 157.004554 
L 292.09864 156.913 
L 294.495204 157.730216 
L 299.288332 157.363759 
L 301.684896 157.845855 
L 304.08146 155.867752 
L 306.478024 157.246033 
L 308.874588 157.986621 
L 311.271152 158.283828 
L 313.667717 156.465431 
L 316.064281 160.470884 
L 318.460845 159.043962 
L 320.857409 158.572831 
L 323.253973 157.851385 
L 325.650537 156.821671 
L 328.047101 159.695269 
L 330.443665 156.657834 
L 332.840229 157.955195 
L 335.236793 156.430192 
L 337.633357 162.711708 
L 340.029921 155.663543 
L 342.426485 156.765899 
L 344.823049 156.716974 
L 347.219613 156.292509 
L 349.616178 156.276356 
L 352.012742 161.120085 
L 354.409306 156.718072 
L 356.80587 158.055387 
L 361.598998 156.542083 
L 363.995562 158.572448 
L 366.392126 156.593197 
L 368.78869 156.702407 
L 371.185254 157.073487 
L 373.581818 157.030032 
L 373.581818 157.030032 
" clip-path="url(#pe877d9aa07)" style="fill: none; stroke: #ff7f0e; stroke-width: 1.5; stroke-linecap: square"/>
   </g>
   <g id="line2d_81">
    <path d="M 69.218182 197.194908 
L 71.614746 135.10846 
L 74.01131 127.52332 
L 76.407874 122.37075 
L 78.804438 120.065921 
L 81.201002 115.378469 
L 83.597566 114.095568 
L 85.99413 112.576034 
L 88.390694 110.464525 
L 90.787258 109.011135 
L 93.183822 107.027592 
L 95.580387 106.25487 
L 97.976951 106.857782 
L 100.373515 105.215449 
L 102.770079 102.369006 
L 105.166643 103.28073 
L 107.563207 101.440194 
L 109.959771 100.446337 
L 112.356335 100.374895 
L 114.752899 100.140196 
L 117.149463 98.108175 
L 119.546027 98.697537 
L 121.942591 97.653441 
L 124.339155 97.038256 
L 126.735719 95.79222 
L 129.132283 97.458355 
L 131.528848 94.569617 
L 133.925412 94.894456 
L 138.71854 94.324238 
L 141.115104 92.900578 
L 143.511668 94.277336 
L 145.908232 91.640131 
L 148.304796 91.786547 
L 150.70136 91.638144 
L 153.097924 90.531219 
L 155.494488 90.439716 
L 157.891052 90.172813 
L 160.287616 89.690574 
L 162.68418 90.245106 
L 165.080744 88.912163 
L 167.477309 89.514464 
L 169.873873 88.506583 
L 172.270437 87.634032 
L 174.667001 89.047216 
L 177.063565 87.716293 
L 179.460129 86.792059 
L 181.856693 87.674652 
L 184.253257 86.433229 
L 186.649821 89.108486 
L 189.046385 87.176602 
L 191.442949 88.555941 
L 193.839513 86.515834 
L 196.236077 85.482019 
L 198.632641 85.589532 
L 201.029205 84.881308 
L 203.42577 83.851376 
L 205.822334 83.695729 
L 208.218898 84.603775 
L 210.615462 83.624118 
L 213.012026 82.90869 
L 215.40859 83.361601 
L 217.805154 81.341011 
L 220.201718 82.946949 
L 222.598282 83.331022 
L 224.994846 83.171723 
L 227.39141 82.145653 
L 229.787974 83.873762 
L 232.184538 82.285623 
L 234.581102 82.797201 
L 236.977666 83.053026 
L 239.37423 83.032146 
L 241.770795 83.206418 
L 244.167359 82.239604 
L 246.563923 82.178754 
L 248.960487 82.006472 
L 251.357051 81.999403 
L 253.753615 82.623682 
L 258.546743 81.326223 
L 260.943307 80.847065 
L 263.339871 81.14271 
L 265.736435 80.913642 
L 268.132999 80.300386 
L 270.529563 81.027879 
L 272.926127 81.317741 
L 277.719256 81.055446 
L 282.512384 80.047663 
L 284.908948 79.781348 
L 287.305512 80.172954 
L 289.702076 78.537125 
L 294.495204 79.516733 
L 296.891768 80.472777 
L 301.684896 79.797108 
L 304.08146 78.108387 
L 306.478024 77.548195 
L 308.874588 78.105458 
L 311.271152 78.14866 
L 313.667717 78.692272 
L 316.064281 78.784677 
L 318.460845 78.653596 
L 320.857409 77.888091 
L 323.253973 77.438943 
L 325.650537 78.015503 
L 328.047101 76.950747 
L 330.443665 76.346063 
L 332.840229 76.180916 
L 335.236793 76.966938 
L 337.633357 77.329748 
L 340.029921 76.411571 
L 342.426485 76.912698 
L 344.823049 76.510209 
L 347.219613 75.446142 
L 349.616178 76.902381 
L 352.012742 76.302493 
L 356.80587 75.692786 
L 359.202434 75.596222 
L 361.598998 74.482738 
L 363.995562 76.052671 
L 366.392126 75.023086 
L 368.78869 75.109548 
L 371.185254 74.970453 
L 373.581818 74.125994 
L 373.581818 74.125994 
" clip-path="url(#pe877d9aa07)" style="fill: none; stroke: #2ca02c; stroke-width: 1.5; stroke-linecap: square"/>
   </g>
   <g id="patch_3">
    <path d="M 54 252 
L 54 34.56 
" style="fill: none; stroke: #000000; stroke-width: 0.8; stroke-linejoin: miter; stroke-linecap: square"/>
   </g>
   <g id="patch_4">
    <path d="M 388.8 252 
L 388.8 34.56 
" style="fill: none; stroke: #000000; stroke-width: 0.8; stroke-linejoin: miter; stroke-linecap: square"/>
   </g>
   <g id="patch_5">
    <path d="M 54 252 
L 388.8 252 
" style="fill: none; stroke: #000000; stroke-width: 0.8; stroke-linejoin: miter; stroke-linecap: square"/>
   </g>
   <g id="patch_6">
    <path d="M 54 34.56 
L 388.8 34.56 
" style="fill: none; stroke: #000000; stroke-width: 0.8; stroke-linejoin: miter; stroke-linecap: square"/>
   </g>
   <g id="text_25">
    <!-- Median NEPS vs. Program Size (1000 f.c., nicolau_a) -->
    <g transform="translate(65.39625 28.56)scale(0.12 -0.12)">
     <defs>
      <path id="DejaVuSans-76" d="M 191 3500 
L 800 3500 
L 1894 563 
L 2988 3500 
L 3597 3500 
L 2284 0 
L 1503 0 
L 191 3500 
z
" transform="scale(0.015625)"/>
      <path id="DejaVuSans-2e" d="M 684 794 
L 1344 794 
L 1344 0 
L 684 0 
L 684 794 
z
" transform="scale(0.015625)"/>
      <path id="DejaVuSans-28" d="M 1984 4856 
Q 1566 4138 1362 3434 
Q 1159 2731 1159 2009 
Q 1159 1288 1364 580 
Q 1569 -128 1984 -844 
L 1484 -844 
Q 1016 -109 783 600 
Q 550 1309 550 2009 
Q 550 2706 781 3412 
Q 1013 4119 1484 4856 
L 1984 4856 
z
" transform="scale(0.015625)"/>
      <path id="DejaVuSans-66" d="M 2375 4863 
L 2375 4384 
L 1825 4384 
Q 1516 4384 1395 4259 
Q 1275 4134 1275 3809 
L 1275 3500 
L 2222 3500 
L 2222 3053 
L 1275 3053 
L 1275 0 
L 697 0 
L 697 3053 
L 147 3053 
L 147 3500 
L 697 3500 
L 697 3744 
Q 697 4328 969 4595 
Q 1241 4863 1831 4863 
L 2375 4863 
z
" transform="scale(0.015625)"/>
      <path id="DejaVuSans-63" d="M 3122 3366 
L 3122 2828 
Q 2878 2963 2633 3030 
Q 2388 3097 2138 3097 
Q 1578 3097 1268 2742 
Q 959 2388 959 1747 
Q 959 1106 1268 751 
Q 1578 397 2138 397 
Q 2388 397 2633 464 
Q 2878 531 3122 666 
L 3122 134 
Q 2881 22 2623 -34 
Q 2366 -91 2075 -91 
Q 1284 -91 818 406 
Q 353 903 353 1747 
Q 353 2603 823 3093 
Q 1294 3584 2113 3584 
Q 2378 3584 2631 3529 
Q 2884 3475 3122 3366 
z
" transform="scale(0.015625)"/>
      <path id="DejaVuSans-2c" d="M 750 794 
L 1409 794 
L 1409 256 
L 897 -744 
L 494 -744 
L 750 256 
L 750 794 
z
" transform="scale(0.015625)"/>
      <path id="DejaVuSans-6c" d="M 603 4863 
L 1178 4863 
L 1178 0 
L 603 0 
L 603 4863 
z
" transform="scale(0.015625)"/>
      <path id="DejaVuSans-75" d="M 544 1381 
L 544 3500 
L 1119 3500 
L 1119 1403 
Q 1119 906 1312 657 
Q 1506 409 1894 409 
Q 2359 409 2629 706 
Q 2900 1003 2900 1516 
L 2900 3500 
L 3475 3500 
L 3475 0 
L 2900 0 
L 2900 538 
Q 2691 219 2414 64 
Q 2138 -91 1772 -91 
Q 1169 -91 856 284 
Q 544 659 544 1381 
z
M 1991 3584 
L 1991 3584 
z
" transform="scale(0.015625)"/>
      <path id="DejaVuSans-5f" d="M 3263 -1063 
L 3263 -1509 
L -63 -1509 
L -63 -1063 
L 3263 -1063 
z
" transform="scale(0.015625)"/>
      <path id="DejaVuSans-29" d="M 513 4856 
L 1013 4856 
Q 1481 4119 1714 3412 
Q 1947 2706 1947 2009 
Q 1947 1309 1714 600 
Q 1481 -109 1013 -844 
L 513 -844 
Q 928 -128 1133 580 
Q 1338 1288 1338 2009 
Q 1338 2731 1133 3434 
Q 928 4138 513 4856 
z
" transform="scale(0.015625)"/>
     </defs>
     <use xlink:href="#DejaVuSans-4d"/>
     <use xlink:href="#DejaVuSans-65" x="86.279297"/>
     <use xlink:href="#DejaVuSans-64" x="147.802734"/>
     <use xlink:href="#DejaVuSans-69" x="211.279297"/>
     <use xlink:href="#DejaVuSans-61" x="239.0625"/>
     <use xlink:href="#DejaVuSans-6e" x="300.341797"/>
     <use xlink:href="#DejaVuSans-20" x="363.720703"/>
     <use xlink:href="#DejaVuSans-4e" x="395.507812"/>
     <use xlink:href="#DejaVuSans-45" x="470.3125"/>
     <use xlink:href="#DejaVuSans-50" x="533.496094"/>
     <use xlink:href="#DejaVuSans-53" x="593.798828"/>
     <use xlink:href="#DejaVuSans-20" x="657.275391"/>
     <use xlink:href="#DejaVuSans-76" x="689.0625"/>
     <use xlink:href="#DejaVuSans-73" x="748.242188"/>
     <use xlink:href="#DejaVuSans-2e" x="800.341797"/>
     <use xlink:href="#DejaVuSans-20" x="832.128906"/>
     <use xlink:href="#DejaVuSans-50" x="863.916016"/>
     <use xlink:href="#DejaVuSans-72" x="922.46875"/>
     <use xlink:href="#DejaVuSans-6f" x="961.332031"/>
     <use xlink:href="#DejaVuSans-67" x="1022.513672"/>
     <use xlink:href="#DejaVuSans-72" x="1085.990234"/>
     <use xlink:href="#DejaVuSans-61" x="1127.103516"/>
     <use xlink:href="#DejaVuSans-6d" x="1188.382812"/>
     <use xlink:href="#DejaVuSans-20" x="1285.794922"/>
     <use xlink:href="#DejaVuSans-53" x="1317.582031"/>
     <use xlink:href="#DejaVuSans-69" x="1381.058594"/>
     <use xlink:href="#DejaVuSans-7a" x="1408.841797"/>
     <use xlink:href="#DejaVuSans-65" x="1461.332031"/>
     <use xlink:href="#DejaVuSans-20" x="1522.855469"/>
     <use xlink:href="#DejaVuSans-28" x="1554.642578"/>
     <use xlink:href="#DejaVuSans-31" x="1593.65625"/>
     <use xlink:href="#DejaVuSans-30" x="1657.279297"/>
     <use xlink:href="#DejaVuSans-30" x="1720.902344"/>
     <use xlink:href="#DejaVuSans-30" x="1784.525391"/>
     <use xlink:href="#DejaVuSans-20" x="1848.148438"/>
     <use xlink:href="#DejaVuSans-66" x="1879.935547"/>
     <use xlink:href="#DejaVuSans-2e" x="1907.890625"/>
     <use xlink:href="#DejaVuSans-63" x="1939.677734"/>
     <use xlink:href="#DejaVuSans-2e" x="1994.658203"/>
     <use xlink:href="#DejaVuSans-2c" x="2026.445312"/>
     <use xlink:href="#DejaVuSans-20" x="2058.232422"/>
     <use xlink:href="#DejaVuSans-6e" x="2090.019531"/>
     <use xlink:href="#DejaVuSans-69" x="2153.398438"/>
     <use xlink:href="#DejaVuSans-63" x="2181.181641"/>
     <use xlink:href="#DejaVuSans-6f" x="2236.162109"/>
     <use xlink:href="#DejaVuSans-6c" x="2297.34375"/>
     <use xlink:href="#DejaVuSans-61" x="2325.126953"/>
     <use xlink:href="#DejaVuSans-75" x="2386.40625"/>
     <use xlink:href="#DejaVuSans-5f" x="2449.785156"/>
     <use xlink:href="#DejaVuSans-61" x="2499.785156"/>
     <use xlink:href="#DejaVuSans-29" x="2561.064453"/>
    </g>
   </g>
   <g id="legend_1">
    <g id="patch_7">
     <path d="M 61 86.594375 
L 170.428125 86.594375 
Q 172.428125 86.594375 172.428125 84.594375 
L 172.428125 41.56 
Q 172.428125 39.56 170.428125 39.56 
L 61 39.56 
Q 59 39.56 59 41.56 
L 59 84.594375 
Q 59 86.594375 61 86.594375 
z
" style="fill: #ffffff; opacity: 0.8; stroke: #cccccc; stroke-linejoin: miter"/>
    </g>
    <g id="line2d_82">
     <path d="M 63 47.658438 
L 73 47.658438 
L 83 47.658438 
" style="fill: none; stroke: #1f77b4; stroke-width: 1.5; stroke-linecap: square"/>
    </g>
    <g id="text_26">
     <!-- DEAP -->
     <g transform="translate(91 51.158438)scale(0.1 -0.1)">
      <defs>
       <path id="DejaVuSans-44" d="M 1259 4147 
L 1259 519 
L 2022 519 
Q 2988 519 3436 956 
Q 3884 1394 3884 2338 
Q 3884 3275 3436 3711 
Q 2988 4147 2022 4147 
L 1259 4147 
z
M 628 4666 
L 1925 4666 
Q 3281 4666 3915 4102 
Q 4550 3538 4550 2338 
Q 4550 1131 3912 565 
Q 3275 0 1925 0 
L 628 0 
L 628 4666 
z
" transform="scale(0.015625)"/>
       <path id="DejaVuSans-41" d="M 2188 4044 
L 1331 1722 
L 3047 1722 
L 2188 4044 
z
M 1831 4666 
L 2547 4666 
L 4325 0 
L 3669 0 
L 3244 1197 
L 1141 1197 
L 716 0 
L 50 0 
L 1831 4666 
z
" transform="scale(0.015625)"/>
      </defs>
      <use xlink:href="#DejaVuSans-44"/>
      <use xlink:href="#DejaVuSans-45" x="77.001953"/>
      <use xlink:href="#DejaVuSans-41" x="140.185547"/>
      <use xlink:href="#DejaVuSans-50" x="208.59375"/>
     </g>
    </g>
    <g id="line2d_83">
     <path d="M 63 62.336563 
L 73 62.336563 
L 83 62.336563 
" style="fill: none; stroke: #ff7f0e; stroke-width: 1.5; stroke-linecap: square"/>
    </g>
    <g id="text_27">
     <!-- TensorGP (CPU) -->
     <g transform="translate(91 65.836563)scale(0.1 -0.1)">
      <defs>
       <path id="DejaVuSans-54" d="M -19 4666 
L 3928 4666 
L 3928 4134 
L 2272 4134 
L 2272 0 
L 1638 0 
L 1638 4134 
L -19 4134 
L -19 4666 
z
" transform="scale(0.015625)"/>
       <path id="DejaVuSans-47" d="M 3809 666 
L 3809 1919 
L 2778 1919 
L 2778 2438 
L 4434 2438 
L 4434 434 
Q 4069 175 3628 42 
Q 3188 -91 2688 -91 
Q 1594 -91 976 548 
Q 359 1188 359 2328 
Q 359 3472 976 4111 
Q 1594 4750 2688 4750 
Q 3144 4750 3555 4637 
Q 3966 4525 4313 4306 
L 4313 3634 
Q 3963 3931 3569 4081 
Q 3175 4231 2741 4231 
Q 1884 4231 1454 3753 
Q 1025 3275 1025 2328 
Q 1025 1384 1454 906 
Q 1884 428 2741 428 
Q 3075 428 3337 486 
Q 3600 544 3809 666 
z
" transform="scale(0.015625)"/>
       <path id="DejaVuSans-43" d="M 4122 4306 
L 4122 3641 
Q 3803 3938 3442 4084 
Q 3081 4231 2675 4231 
Q 1875 4231 1450 3742 
Q 1025 3253 1025 2328 
Q 1025 1406 1450 917 
Q 1875 428 2675 428 
Q 3081 428 3442 575 
Q 3803 722 4122 1019 
L 4122 359 
Q 3791 134 3420 21 
Q 3050 -91 2638 -91 
Q 1578 -91 968 557 
Q 359 1206 359 2328 
Q 359 3453 968 4101 
Q 1578 4750 2638 4750 
Q 3056 4750 3426 4639 
Q 3797 4528 4122 4306 
z
" transform="scale(0.015625)"/>
       <path id="DejaVuSans-55" d="M 556 4666 
L 1191 4666 
L 1191 1831 
Q 1191 1081 1462 751 
Q 1734 422 2344 422 
Q 2950 422 3222 751 
Q 3494 1081 3494 1831 
L 3494 4666 
L 4128 4666 
L 4128 1753 
Q 4128 841 3676 375 
Q 3225 -91 2344 -91 
Q 1459 -91 1007 375 
Q 556 841 556 1753 
L 556 4666 
z
" transform="scale(0.015625)"/>
      </defs>
      <use xlink:href="#DejaVuSans-54"/>
      <use xlink:href="#DejaVuSans-65" x="44.083984"/>
      <use xlink:href="#DejaVuSans-6e" x="105.607422"/>
      <use xlink:href="#DejaVuSans-73" x="168.986328"/>
      <use xlink:href="#DejaVuSans-6f" x="221.085938"/>
      <use xlink:href="#DejaVuSans-72" x="282.267578"/>
      <use xlink:href="#DejaVuSans-47" x="323.380859"/>
      <use xlink:href="#DejaVuSans-50" x="400.871094"/>
      <use xlink:href="#DejaVuSans-20" x="461.173828"/>
      <use xlink:href="#DejaVuSans-28" x="492.960938"/>
      <use xlink:href="#DejaVuSans-43" x="531.974609"/>
      <use xlink:href="#DejaVuSans-50" x="601.798828"/>
      <use xlink:href="#DejaVuSans-55" x="662.101562"/>
      <use xlink:href="#DejaVuSans-29" x="735.294922"/>
     </g>
    </g>
    <g id="line2d_84">
     <path d="M 63 77.014688 
L 73 77.014688 
L 83 77.014688 
" style="fill: none; stroke: #2ca02c; stroke-width: 1.5; stroke-linecap: square"/>
    </g>
    <g id="text_28">
     <!-- Operon -->
     <g transform="translate(91 80.514688)scale(0.1 -0.1)">
      <defs>
       <path id="DejaVuSans-4f" d="M 2522 4238 
Q 1834 4238 1429 3725 
Q 1025 3213 1025 2328 
Q 1025 1447 1429 934 
Q 1834 422 2522 422 
Q 3209 422 3611 934 
Q 4013 1447 4013 2328 
Q 4013 3213 3611 3725 
Q 3209 4238 2522 4238 
z
M 2522 4750 
Q 3503 4750 4090 4092 
Q 4678 3434 4678 2328 
Q 4678 1225 4090 567 
Q 3503 -91 2522 -91 
Q 1538 -91 948 565 
Q 359 1222 359 2328 
Q 359 3434 948 4092 
Q 1538 4750 2522 4750 
z
" transform="scale(0.015625)"/>
       <path id="DejaVuSans-70" d="M 1159 525 
L 1159 -1331 
L 581 -1331 
L 581 3500 
L 1159 3500 
L 1159 2969 
Q 1341 3281 1617 3432 
Q 1894 3584 2278 3584 
Q 2916 3584 3314 3078 
Q 3713 2572 3713 1747 
Q 3713 922 3314 415 
Q 2916 -91 2278 -91 
Q 1894 -91 1617 61 
Q 1341 213 1159 525 
z
M 3116 1747 
Q 3116 2381 2855 2742 
Q 2594 3103 2138 3103 
Q 1681 3103 1420 2742 
Q 1159 2381 1159 1747 
Q 1159 1113 1420 752 
Q 1681 391 2138 391 
Q 2594 391 2855 752 
Q 3116 1113 3116 1747 
z
" transform="scale(0.015625)"/>
      </defs>
      <use xlink:href="#DejaVuSans-4f"/>
      <use xlink:href="#DejaVuSans-70" x="78.710938"/>
      <use xlink:href="#DejaVuSans-65" x="142.1875"/>
      <use xlink:href="#DejaVuSans-72" x="203.710938"/>
      <use xlink:href="#DejaVuSans-6f" x="242.574219"/>
      <use xlink:href="#DejaVuSans-6e" x="303.755859"/>
     </g>
    </g>
   </g>
  </g>
 </g>
 <defs>
  <clipPath id="pe877d9aa07">
   <rect x="54" y="34.56" width="334.8" height="217.44"/>
  </clipPath>
 </defs>
</svg>
