<?xml version="1.0" encoding="utf-8" standalone="no"?>
<!DOCTYPE svg PUBLIC "-//W3C//DTD SVG 1.1//EN"
  "http://www.w3.org/Graphics/SVG/1.1/DTD/svg11.dtd">
<svg xmlns:xlink="http://www.w3.org/1999/xlink" width="432pt" height="288pt" viewBox="0 0 432 288" xmlns="http://www.w3.org/2000/svg" version="1.1">
 <metadata>
  <rdf:RDF xmlns:dc="http://purl.org/dc/elements/1.1/" xmlns:cc="http://creativecommons.org/ns#" xmlns:rdf="http://www.w3.org/1999/02/22-rdf-syntax-ns#">
   <cc:Work>
    <dc:type rdf:resource="http://purl.org/dc/dcmitype/StillImage"/>
    <dc:date>2022-01-24T17:35:32.408464</dc:date>
    <dc:format>image/svg+xml</dc:format>
    <dc:creator>
     <cc:Agent>
      <dc:title>Matplotlib v3.5.1, https://matplotlib.org/</dc:title>
     </cc:Agent>
    </dc:creator>
   </cc:Work>
  </rdf:RDF>
 </metadata>
 <defs>
  <style type="text/css">*{stroke-linejoin: round; stroke-linecap: butt}</style>
 </defs>
 <g id="figure_1">
  <g id="patch_1">
   <path d="M 0 288 
L 432 288 
L 432 0 
L 0 0 
L 0 288 
z
" style="fill: none"/>
  </g>
  <g id="axes_1">
   <g id="patch_2">
    <path d="M 54 252 
L 388.8 252 
L 388.8 34.56 
L 54 34.56 
z
" style="fill: #ffffff"/>
   </g>
   <g id="PolyCollection_1">
    <path d="M 69.218182 101.508411 
L 69.218182 102.024011 
L 79.036364 92.670247 
L 88.854545 86.818776 
L 98.672727 82.325226 
L 108.490909 78.649037 
L 118.309091 75.059114 
L 128.127273 72.712036 
L 137.945455 70.481237 
L 147.763636 68.748776 
L 157.581818 66.284379 
L 167.4 64.539355 
L 177.218182 63.015359 
L 187.036364 61.869587 
L 196.854545 59.713187 
L 206.672727 59.052525 
L 216.490909 57.665027 
L 226.309091 56.278783 
L 236.127273 55.322735 
L 245.945455 54.072347 
L 255.763636 53.840772 
L 265.581818 52.441813 
L 275.4 51.821846 
L 285.218182 51.043699 
L 295.036364 50.032275 
L 304.854545 49.178882 
L 314.672727 48.474781 
L 324.490909 47.727514 
L 334.309091 47.315327 
L 344.127273 46.501253 
L 353.945455 45.839315 
L 363.763636 45.383815 
L 373.581818 44.53136 
L 373.581818 44.443636 
L 373.581818 44.443636 
L 363.763636 45.334363 
L 353.945455 45.753949 
L 344.127273 46.448801 
L 334.309091 47.270281 
L 324.490909 47.660025 
L 314.672727 48.440867 
L 304.854545 49.072851 
L 295.036364 49.974239 
L 285.218182 50.883202 
L 275.4 51.793394 
L 265.581818 52.380005 
L 255.763636 53.803021 
L 245.945455 54.021898 
L 236.127273 55.229631 
L 226.309091 56.073185 
L 216.490909 57.63033 
L 206.672727 58.973655 
L 196.854545 59.695068 
L 187.036364 61.774226 
L 177.218182 63.001139 
L 167.4 64.396186 
L 157.581818 66.126271 
L 147.763636 68.570783 
L 137.945455 70.195449 
L 128.127273 72.605799 
L 118.309091 74.53718 
L 108.490909 78.530455 
L 98.672727 82.171274 
L 88.854545 86.565363 
L 79.036364 92.016179 
L 69.218182 101.508411 
z
" clip-path="url(#pd7fc83de74)" style="fill: #1f77b4"/>
   </g>
   <g id="PolyCollection_2">
    <path d="M 69.218182 151.66018 
L 69.218182 152.899938 
L 79.036364 145.659517 
L 88.854545 140.015643 
L 98.672727 134.959066 
L 108.490909 130.357303 
L 118.309091 127.03153 
L 128.127273 124.346043 
L 137.945455 122.279921 
L 147.763636 121.976192 
L 157.581818 118.092848 
L 167.4 116.214331 
L 177.218182 114.961665 
L 187.036364 113.041567 
L 196.854545 111.605518 
L 206.672727 112.158063 
L 216.490909 109.753086 
L 226.309091 108.58208 
L 236.127273 107.449124 
L 245.945455 107.770413 
L 255.763636 108.118834 
L 265.581818 105.804866 
L 275.4 105.164561 
L 285.218182 104.359698 
L 295.036364 103.959228 
L 304.854545 104.145606 
L 314.672727 101.058116 
L 324.490909 100.512306 
L 334.309091 100.945989 
L 344.127273 100.329376 
L 353.945455 98.798545 
L 363.763636 99.340131 
L 373.581818 97.73587 
L 373.581818 96.917373 
L 373.581818 96.917373 
L 363.763636 97.527289 
L 353.945455 97.669508 
L 344.127273 97.911891 
L 334.309091 99.716034 
L 324.490909 99.606205 
L 314.672727 99.974405 
L 304.854545 99.982559 
L 295.036364 102.647064 
L 285.218182 103.80531 
L 275.4 103.870654 
L 265.581818 105.597311 
L 255.763636 106.47406 
L 245.945455 107.469316 
L 236.127273 106.835367 
L 226.309091 107.94752 
L 216.490909 108.661791 
L 206.672727 110.638856 
L 196.854545 111.173772 
L 187.036364 113.027093 
L 177.218182 114.367722 
L 167.4 115.424547 
L 157.581818 117.025994 
L 147.763636 118.561293 
L 137.945455 121.943917 
L 128.127273 123.767681 
L 118.309091 126.129195 
L 108.490909 129.498006 
L 98.672727 134.346302 
L 88.854545 139.061677 
L 79.036364 145.338604 
L 69.218182 151.66018 
z
" clip-path="url(#pd7fc83de74)" style="fill: #ff7f0e"/>
   </g>
   <g id="PolyCollection_3">
    <path d="M 69.218182 165.992168 
L 69.218182 167.223886 
L 79.036364 159.068775 
L 88.854545 152.960587 
L 98.672727 149.343178 
L 108.490909 145.176262 
L 118.309091 142.526416 
L 128.127273 140.218955 
L 137.945455 137.534486 
L 147.763636 136.199352 
L 157.581818 133.7952 
L 167.4 132.346283 
L 177.218182 130.799522 
L 187.036364 129.383101 
L 196.854545 127.374803 
L 206.672727 126.575371 
L 216.490909 125.526939 
L 226.309091 124.205991 
L 236.127273 123.141725 
L 245.945455 121.828123 
L 255.763636 121.28339 
L 265.581818 120.442556 
L 275.4 119.245821 
L 285.218182 118.927818 
L 295.036364 117.937847 
L 304.854545 117.049714 
L 314.672727 116.106066 
L 324.490909 115.705404 
L 334.309091 115.063761 
L 344.127273 114.059473 
L 353.945455 113.616085 
L 363.763636 113.239216 
L 373.581818 112.513269 
L 373.581818 112.066249 
L 373.581818 112.066249 
L 363.763636 112.345027 
L 353.945455 113.178489 
L 344.127273 113.693606 
L 334.309091 114.599231 
L 324.490909 115.104248 
L 314.672727 116.059871 
L 304.854545 116.35276 
L 295.036364 117.650135 
L 285.218182 118.617121 
L 275.4 118.992304 
L 265.581818 119.839108 
L 255.763636 121.032003 
L 245.945455 121.348978 
L 236.127273 122.402108 
L 226.309091 123.673621 
L 216.490909 125.006438 
L 206.672727 126.420428 
L 196.854545 127.23016 
L 187.036364 128.676225 
L 177.218182 130.517434 
L 167.4 131.855407 
L 157.581818 133.360525 
L 147.763636 135.894855 
L 137.945455 136.901016 
L 128.127273 139.571108 
L 118.309091 142.239214 
L 108.490909 144.920301 
L 98.672727 148.7656 
L 88.854545 152.49002 
L 79.036364 158.684465 
L 69.218182 165.992168 
z
" clip-path="url(#pd7fc83de74)" style="fill: #2ca02c"/>
   </g>
   <g id="PolyCollection_4">
    <path d="M 69.218182 242.061369 
L 69.218182 242.116364 
L 79.036364 231.912513 
L 88.854545 224.993104 
L 98.672727 218.962866 
L 108.490909 214.852784 
L 118.309091 211.193008 
L 128.127273 208.651523 
L 137.945455 206.059981 
L 147.763636 203.89876 
L 157.581818 201.53046 
L 167.4 199.648267 
L 177.218182 198.028239 
L 187.036364 196.57315 
L 196.854545 194.87055 
L 206.672727 193.562251 
L 216.490909 192.17717 
L 226.309091 190.910635 
L 236.127273 189.777236 
L 245.945455 188.737742 
L 255.763636 187.551657 
L 265.581818 186.572731 
L 275.4 186.017776 
L 285.218182 184.971064 
L 295.036364 183.726598 
L 304.854545 182.982417 
L 314.672727 182.018342 
L 324.490909 181.022997 
L 334.309091 180.518899 
L 344.127273 179.713817 
L 353.945455 178.982926 
L 363.763636 178.165894 
L 373.581818 177.430767 
L 373.581818 177.405687 
L 373.581818 177.405687 
L 363.763636 178.138466 
L 353.945455 178.940765 
L 344.127273 179.50146 
L 334.309091 180.343394 
L 324.490909 180.996222 
L 314.672727 181.995034 
L 304.854545 182.952101 
L 295.036364 183.719182 
L 285.218182 184.955727 
L 275.4 185.994836 
L 265.581818 186.556343 
L 255.763636 187.537072 
L 245.945455 188.732516 
L 236.127273 189.755598 
L 226.309091 190.870547 
L 216.490909 192.164305 
L 206.672727 193.524805 
L 196.854545 194.843617 
L 187.036364 196.525728 
L 177.218182 198.008844 
L 167.4 199.644568 
L 157.581818 201.509334 
L 147.763636 203.855503 
L 137.945455 206.0521 
L 128.127273 208.649264 
L 118.309091 211.173459 
L 108.490909 214.836004 
L 98.672727 218.934894 
L 88.854545 224.986445 
L 79.036364 231.889655 
L 69.218182 242.061369 
z
" clip-path="url(#pd7fc83de74)" style="fill: #d62728"/>
   </g>
   <g id="matplotlib.axis_1">
    <g id="xtick_1">
     <g id="line2d_1">
      <defs>
       <path id="m16b6ed3025" d="M 0 0 
L 0 3.5 
" style="stroke: #000000; stroke-width: 0.8"/>
      </defs>
      <g>
       <use xlink:href="#m16b6ed3025" x="69.218182" y="252" style="stroke: #000000; stroke-width: 0.8"/>
      </g>
     </g>
     <g id="text_1">
      <!-- 7 -->
      <g transform="translate(66.036932 266.598437)scale(0.1 -0.1)">
       <defs>
        <path id="DejaVuSans-37" d="M 525 4666 
L 3525 4666 
L 3525 4397 
L 1831 0 
L 1172 0 
L 2766 4134 
L 525 4134 
L 525 4666 
z
" transform="scale(0.015625)"/>
       </defs>
       <use xlink:href="#DejaVuSans-37"/>
      </g>
     </g>
    </g>
    <g id="xtick_2">
     <g id="line2d_2">
      <g>
       <use xlink:href="#m16b6ed3025" x="98.672727" y="252" style="stroke: #000000; stroke-width: 0.8"/>
      </g>
     </g>
     <g id="text_2">
      <!-- 27 -->
      <g transform="translate(92.310227 266.598437)scale(0.1 -0.1)">
       <defs>
        <path id="DejaVuSans-32" d="M 1228 531 
L 3431 531 
L 3431 0 
L 469 0 
L 469 531 
Q 828 903 1448 1529 
Q 2069 2156 2228 2338 
Q 2531 2678 2651 2914 
Q 2772 3150 2772 3378 
Q 2772 3750 2511 3984 
Q 2250 4219 1831 4219 
Q 1534 4219 1204 4116 
Q 875 4013 500 3803 
L 500 4441 
Q 881 4594 1212 4672 
Q 1544 4750 1819 4750 
Q 2544 4750 2975 4387 
Q 3406 4025 3406 3419 
Q 3406 3131 3298 2873 
Q 3191 2616 2906 2266 
Q 2828 2175 2409 1742 
Q 1991 1309 1228 531 
z
" transform="scale(0.015625)"/>
       </defs>
       <use xlink:href="#DejaVuSans-32"/>
       <use xlink:href="#DejaVuSans-37" x="63.623047"/>
      </g>
     </g>
    </g>
    <g id="xtick_3">
     <g id="line2d_3">
      <g>
       <use xlink:href="#m16b6ed3025" x="128.127273" y="252" style="stroke: #000000; stroke-width: 0.8"/>
      </g>
     </g>
     <g id="text_3">
      <!-- 55 -->
      <g transform="translate(121.764773 266.598437)scale(0.1 -0.1)">
       <defs>
        <path id="DejaVuSans-35" d="M 691 4666 
L 3169 4666 
L 3169 4134 
L 1269 4134 
L 1269 2991 
Q 1406 3038 1543 3061 
Q 1681 3084 1819 3084 
Q 2600 3084 3056 2656 
Q 3513 2228 3513 1497 
Q 3513 744 3044 326 
Q 2575 -91 1722 -91 
Q 1428 -91 1123 -41 
Q 819 9 494 109 
L 494 744 
Q 775 591 1075 516 
Q 1375 441 1709 441 
Q 2250 441 2565 725 
Q 2881 1009 2881 1497 
Q 2881 1984 2565 2268 
Q 2250 2553 1709 2553 
Q 1456 2553 1204 2497 
Q 953 2441 691 2322 
L 691 4666 
z
" transform="scale(0.015625)"/>
       </defs>
       <use xlink:href="#DejaVuSans-35"/>
       <use xlink:href="#DejaVuSans-35" x="63.623047"/>
      </g>
     </g>
    </g>
    <g id="xtick_4">
     <g id="line2d_4">
      <g>
       <use xlink:href="#m16b6ed3025" x="157.581818" y="252" style="stroke: #000000; stroke-width: 0.8"/>
      </g>
     </g>
     <g id="text_4">
      <!-- 77 -->
      <g transform="translate(151.219318 266.598437)scale(0.1 -0.1)">
       <use xlink:href="#DejaVuSans-37"/>
       <use xlink:href="#DejaVuSans-37" x="63.623047"/>
      </g>
     </g>
    </g>
    <g id="xtick_5">
     <g id="line2d_5">
      <g>
       <use xlink:href="#m16b6ed3025" x="187.036364" y="252" style="stroke: #000000; stroke-width: 0.8"/>
      </g>
     </g>
     <g id="text_5">
      <!-- 99 -->
      <g transform="translate(180.673864 266.598437)scale(0.1 -0.1)">
       <defs>
        <path id="DejaVuSans-39" d="M 703 97 
L 703 672 
Q 941 559 1184 500 
Q 1428 441 1663 441 
Q 2288 441 2617 861 
Q 2947 1281 2994 2138 
Q 2813 1869 2534 1725 
Q 2256 1581 1919 1581 
Q 1219 1581 811 2004 
Q 403 2428 403 3163 
Q 403 3881 828 4315 
Q 1253 4750 1959 4750 
Q 2769 4750 3195 4129 
Q 3622 3509 3622 2328 
Q 3622 1225 3098 567 
Q 2575 -91 1691 -91 
Q 1453 -91 1209 -44 
Q 966 3 703 97 
z
M 1959 2075 
Q 2384 2075 2632 2365 
Q 2881 2656 2881 3163 
Q 2881 3666 2632 3958 
Q 2384 4250 1959 4250 
Q 1534 4250 1286 3958 
Q 1038 3666 1038 3163 
Q 1038 2656 1286 2365 
Q 1534 2075 1959 2075 
z
" transform="scale(0.015625)"/>
       </defs>
       <use xlink:href="#DejaVuSans-39"/>
       <use xlink:href="#DejaVuSans-39" x="63.623047"/>
      </g>
     </g>
    </g>
    <g id="xtick_6">
     <g id="line2d_6">
      <g>
       <use xlink:href="#m16b6ed3025" x="216.490909" y="252" style="stroke: #000000; stroke-width: 0.8"/>
      </g>
     </g>
     <g id="text_6">
      <!-- 123 -->
      <g transform="translate(206.947159 266.598437)scale(0.1 -0.1)">
       <defs>
        <path id="DejaVuSans-31" d="M 794 531 
L 1825 531 
L 1825 4091 
L 703 3866 
L 703 4441 
L 1819 4666 
L 2450 4666 
L 2450 531 
L 3481 531 
L 3481 0 
L 794 0 
L 794 531 
z
" transform="scale(0.015625)"/>
        <path id="DejaVuSans-33" d="M 2597 2516 
Q 3050 2419 3304 2112 
Q 3559 1806 3559 1356 
Q 3559 666 3084 287 
Q 2609 -91 1734 -91 
Q 1441 -91 1130 -33 
Q 819 25 488 141 
L 488 750 
Q 750 597 1062 519 
Q 1375 441 1716 441 
Q 2309 441 2620 675 
Q 2931 909 2931 1356 
Q 2931 1769 2642 2001 
Q 2353 2234 1838 2234 
L 1294 2234 
L 1294 2753 
L 1863 2753 
Q 2328 2753 2575 2939 
Q 2822 3125 2822 3475 
Q 2822 3834 2567 4026 
Q 2313 4219 1838 4219 
Q 1578 4219 1281 4162 
Q 984 4106 628 3988 
L 628 4550 
Q 988 4650 1302 4700 
Q 1616 4750 1894 4750 
Q 2613 4750 3031 4423 
Q 3450 4097 3450 3541 
Q 3450 3153 3228 2886 
Q 3006 2619 2597 2516 
z
" transform="scale(0.015625)"/>
       </defs>
       <use xlink:href="#DejaVuSans-31"/>
       <use xlink:href="#DejaVuSans-32" x="63.623047"/>
       <use xlink:href="#DejaVuSans-33" x="127.246094"/>
      </g>
     </g>
    </g>
    <g id="xtick_7">
     <g id="line2d_7">
      <g>
       <use xlink:href="#m16b6ed3025" x="245.945455" y="252" style="stroke: #000000; stroke-width: 0.8"/>
      </g>
     </g>
     <g id="text_7">
      <!-- 145 -->
      <g transform="translate(236.401705 266.598437)scale(0.1 -0.1)">
       <defs>
        <path id="DejaVuSans-34" d="M 2419 4116 
L 825 1625 
L 2419 1625 
L 2419 4116 
z
M 2253 4666 
L 3047 4666 
L 3047 1625 
L 3713 1625 
L 3713 1100 
L 3047 1100 
L 3047 0 
L 2419 0 
L 2419 1100 
L 313 1100 
L 313 1709 
L 2253 4666 
z
" transform="scale(0.015625)"/>
       </defs>
       <use xlink:href="#DejaVuSans-31"/>
       <use xlink:href="#DejaVuSans-34" x="63.623047"/>
       <use xlink:href="#DejaVuSans-35" x="127.246094"/>
      </g>
     </g>
    </g>
    <g id="xtick_8">
     <g id="line2d_8">
      <g>
       <use xlink:href="#m16b6ed3025" x="275.4" y="252" style="stroke: #000000; stroke-width: 0.8"/>
      </g>
     </g>
     <g id="text_8">
      <!-- 175 -->
      <g transform="translate(265.85625 266.598437)scale(0.1 -0.1)">
       <use xlink:href="#DejaVuSans-31"/>
       <use xlink:href="#DejaVuSans-37" x="63.623047"/>
       <use xlink:href="#DejaVuSans-35" x="127.246094"/>
      </g>
     </g>
    </g>
    <g id="xtick_9">
     <g id="line2d_9">
      <g>
       <use xlink:href="#m16b6ed3025" x="304.854545" y="252" style="stroke: #000000; stroke-width: 0.8"/>
      </g>
     </g>
     <g id="text_9">
      <!-- 199 -->
      <g transform="translate(295.310795 266.598437)scale(0.1 -0.1)">
       <use xlink:href="#DejaVuSans-31"/>
       <use xlink:href="#DejaVuSans-39" x="63.623047"/>
       <use xlink:href="#DejaVuSans-39" x="127.246094"/>
      </g>
     </g>
    </g>
    <g id="xtick_10">
     <g id="line2d_10">
      <g>
       <use xlink:href="#m16b6ed3025" x="334.309091" y="252" style="stroke: #000000; stroke-width: 0.8"/>
      </g>
     </g>
     <g id="text_10">
      <!-- 217 -->
      <g transform="translate(324.765341 266.598437)scale(0.1 -0.1)">
       <use xlink:href="#DejaVuSans-32"/>
       <use xlink:href="#DejaVuSans-31" x="63.623047"/>
       <use xlink:href="#DejaVuSans-37" x="127.246094"/>
      </g>
     </g>
    </g>
    <g id="xtick_11">
     <g id="line2d_11">
      <g>
       <use xlink:href="#m16b6ed3025" x="363.763636" y="252" style="stroke: #000000; stroke-width: 0.8"/>
      </g>
     </g>
     <g id="text_11">
      <!-- 247 -->
      <g transform="translate(354.219886 266.598437)scale(0.1 -0.1)">
       <use xlink:href="#DejaVuSans-32"/>
       <use xlink:href="#DejaVuSans-34" x="63.623047"/>
       <use xlink:href="#DejaVuSans-37" x="127.246094"/>
      </g>
     </g>
    </g>
    <g id="text_12">
     <!-- Program size -->
     <g transform="translate(189.022656 280.276563)scale(0.1 -0.1)">
      <defs>
       <path id="DejaVuSans-50" d="M 1259 4147 
L 1259 2394 
L 2053 2394 
Q 2494 2394 2734 2622 
Q 2975 2850 2975 3272 
Q 2975 3691 2734 3919 
Q 2494 4147 2053 4147 
L 1259 4147 
z
M 628 4666 
L 2053 4666 
Q 2838 4666 3239 4311 
Q 3641 3956 3641 3272 
Q 3641 2581 3239 2228 
Q 2838 1875 2053 1875 
L 1259 1875 
L 1259 0 
L 628 0 
L 628 4666 
z
" transform="scale(0.015625)"/>
       <path id="DejaVuSans-72" d="M 2631 2963 
Q 2534 3019 2420 3045 
Q 2306 3072 2169 3072 
Q 1681 3072 1420 2755 
Q 1159 2438 1159 1844 
L 1159 0 
L 581 0 
L 581 3500 
L 1159 3500 
L 1159 2956 
Q 1341 3275 1631 3429 
Q 1922 3584 2338 3584 
Q 2397 3584 2469 3576 
Q 2541 3569 2628 3553 
L 2631 2963 
z
" transform="scale(0.015625)"/>
       <path id="DejaVuSans-6f" d="M 1959 3097 
Q 1497 3097 1228 2736 
Q 959 2375 959 1747 
Q 959 1119 1226 758 
Q 1494 397 1959 397 
Q 2419 397 2687 759 
Q 2956 1122 2956 1747 
Q 2956 2369 2687 2733 
Q 2419 3097 1959 3097 
z
M 1959 3584 
Q 2709 3584 3137 3096 
Q 3566 2609 3566 1747 
Q 3566 888 3137 398 
Q 2709 -91 1959 -91 
Q 1206 -91 779 398 
Q 353 888 353 1747 
Q 353 2609 779 3096 
Q 1206 3584 1959 3584 
z
" transform="scale(0.015625)"/>
       <path id="DejaVuSans-67" d="M 2906 1791 
Q 2906 2416 2648 2759 
Q 2391 3103 1925 3103 
Q 1463 3103 1205 2759 
Q 947 2416 947 1791 
Q 947 1169 1205 825 
Q 1463 481 1925 481 
Q 2391 481 2648 825 
Q 2906 1169 2906 1791 
z
M 3481 434 
Q 3481 -459 3084 -895 
Q 2688 -1331 1869 -1331 
Q 1566 -1331 1297 -1286 
Q 1028 -1241 775 -1147 
L 775 -588 
Q 1028 -725 1275 -790 
Q 1522 -856 1778 -856 
Q 2344 -856 2625 -561 
Q 2906 -266 2906 331 
L 2906 616 
Q 2728 306 2450 153 
Q 2172 0 1784 0 
Q 1141 0 747 490 
Q 353 981 353 1791 
Q 353 2603 747 3093 
Q 1141 3584 1784 3584 
Q 2172 3584 2450 3431 
Q 2728 3278 2906 2969 
L 2906 3500 
L 3481 3500 
L 3481 434 
z
" transform="scale(0.015625)"/>
       <path id="DejaVuSans-61" d="M 2194 1759 
Q 1497 1759 1228 1600 
Q 959 1441 959 1056 
Q 959 750 1161 570 
Q 1363 391 1709 391 
Q 2188 391 2477 730 
Q 2766 1069 2766 1631 
L 2766 1759 
L 2194 1759 
z
M 3341 1997 
L 3341 0 
L 2766 0 
L 2766 531 
Q 2569 213 2275 61 
Q 1981 -91 1556 -91 
Q 1019 -91 701 211 
Q 384 513 384 1019 
Q 384 1609 779 1909 
Q 1175 2209 1959 2209 
L 2766 2209 
L 2766 2266 
Q 2766 2663 2505 2880 
Q 2244 3097 1772 3097 
Q 1472 3097 1187 3025 
Q 903 2953 641 2809 
L 641 3341 
Q 956 3463 1253 3523 
Q 1550 3584 1831 3584 
Q 2591 3584 2966 3190 
Q 3341 2797 3341 1997 
z
" transform="scale(0.015625)"/>
       <path id="DejaVuSans-6d" d="M 3328 2828 
Q 3544 3216 3844 3400 
Q 4144 3584 4550 3584 
Q 5097 3584 5394 3201 
Q 5691 2819 5691 2113 
L 5691 0 
L 5113 0 
L 5113 2094 
Q 5113 2597 4934 2840 
Q 4756 3084 4391 3084 
Q 3944 3084 3684 2787 
Q 3425 2491 3425 1978 
L 3425 0 
L 2847 0 
L 2847 2094 
Q 2847 2600 2669 2842 
Q 2491 3084 2119 3084 
Q 1678 3084 1418 2786 
Q 1159 2488 1159 1978 
L 1159 0 
L 581 0 
L 581 3500 
L 1159 3500 
L 1159 2956 
Q 1356 3278 1631 3431 
Q 1906 3584 2284 3584 
Q 2666 3584 2933 3390 
Q 3200 3197 3328 2828 
z
" transform="scale(0.015625)"/>
       <path id="DejaVuSans-20" transform="scale(0.015625)"/>
       <path id="DejaVuSans-73" d="M 2834 3397 
L 2834 2853 
Q 2591 2978 2328 3040 
Q 2066 3103 1784 3103 
Q 1356 3103 1142 2972 
Q 928 2841 928 2578 
Q 928 2378 1081 2264 
Q 1234 2150 1697 2047 
L 1894 2003 
Q 2506 1872 2764 1633 
Q 3022 1394 3022 966 
Q 3022 478 2636 193 
Q 2250 -91 1575 -91 
Q 1294 -91 989 -36 
Q 684 19 347 128 
L 347 722 
Q 666 556 975 473 
Q 1284 391 1588 391 
Q 1994 391 2212 530 
Q 2431 669 2431 922 
Q 2431 1156 2273 1281 
Q 2116 1406 1581 1522 
L 1381 1569 
Q 847 1681 609 1914 
Q 372 2147 372 2553 
Q 372 3047 722 3315 
Q 1072 3584 1716 3584 
Q 2034 3584 2315 3537 
Q 2597 3491 2834 3397 
z
" transform="scale(0.015625)"/>
       <path id="DejaVuSans-69" d="M 603 3500 
L 1178 3500 
L 1178 0 
L 603 0 
L 603 3500 
z
M 603 4863 
L 1178 4863 
L 1178 4134 
L 603 4134 
L 603 4863 
z
" transform="scale(0.015625)"/>
       <path id="DejaVuSans-7a" d="M 353 3500 
L 3084 3500 
L 3084 2975 
L 922 459 
L 3084 459 
L 3084 0 
L 275 0 
L 275 525 
L 2438 3041 
L 353 3041 
L 353 3500 
z
" transform="scale(0.015625)"/>
       <path id="DejaVuSans-65" d="M 3597 1894 
L 3597 1613 
L 953 1613 
Q 991 1019 1311 708 
Q 1631 397 2203 397 
Q 2534 397 2845 478 
Q 3156 559 3463 722 
L 3463 178 
Q 3153 47 2828 -22 
Q 2503 -91 2169 -91 
Q 1331 -91 842 396 
Q 353 884 353 1716 
Q 353 2575 817 3079 
Q 1281 3584 2069 3584 
Q 2775 3584 3186 3129 
Q 3597 2675 3597 1894 
z
M 3022 2063 
Q 3016 2534 2758 2815 
Q 2500 3097 2075 3097 
Q 1594 3097 1305 2825 
Q 1016 2553 972 2059 
L 3022 2063 
z
" transform="scale(0.015625)"/>
      </defs>
      <use xlink:href="#DejaVuSans-50"/>
      <use xlink:href="#DejaVuSans-72" x="58.552734"/>
      <use xlink:href="#DejaVuSans-6f" x="97.416016"/>
      <use xlink:href="#DejaVuSans-67" x="158.597656"/>
      <use xlink:href="#DejaVuSans-72" x="222.074219"/>
      <use xlink:href="#DejaVuSans-61" x="263.1875"/>
      <use xlink:href="#DejaVuSans-6d" x="324.466797"/>
      <use xlink:href="#DejaVuSans-20" x="421.878906"/>
      <use xlink:href="#DejaVuSans-73" x="453.666016"/>
      <use xlink:href="#DejaVuSans-69" x="505.765625"/>
      <use xlink:href="#DejaVuSans-7a" x="533.548828"/>
      <use xlink:href="#DejaVuSans-65" x="586.039062"/>
     </g>
    </g>
   </g>
   <g id="matplotlib.axis_2">
    <g id="ytick_1">
     <g id="line2d_12">
      <defs>
       <path id="m8958a8942d" d="M 0 0 
L -3.5 0 
" style="stroke: #000000; stroke-width: 0.8"/>
      </defs>
      <g>
       <use xlink:href="#m8958a8942d" x="54" y="239.895405" style="stroke: #000000; stroke-width: 0.8"/>
      </g>
     </g>
     <g id="text_13">
      <!-- $\mathdefault{10^{-3}}$ -->
      <g transform="translate(23.5 243.694623)scale(0.1 -0.1)">
       <defs>
        <path id="DejaVuSans-30" d="M 2034 4250 
Q 1547 4250 1301 3770 
Q 1056 3291 1056 2328 
Q 1056 1369 1301 889 
Q 1547 409 2034 409 
Q 2525 409 2770 889 
Q 3016 1369 3016 2328 
Q 3016 3291 2770 3770 
Q 2525 4250 2034 4250 
z
M 2034 4750 
Q 2819 4750 3233 4129 
Q 3647 3509 3647 2328 
Q 3647 1150 3233 529 
Q 2819 -91 2034 -91 
Q 1250 -91 836 529 
Q 422 1150 422 2328 
Q 422 3509 836 4129 
Q 1250 4750 2034 4750 
z
" transform="scale(0.015625)"/>
        <path id="DejaVuSans-2212" d="M 678 2272 
L 4684 2272 
L 4684 1741 
L 678 1741 
L 678 2272 
z
" transform="scale(0.015625)"/>
       </defs>
       <use xlink:href="#DejaVuSans-31" transform="translate(0 0.765625)"/>
       <use xlink:href="#DejaVuSans-30" transform="translate(63.623047 0.765625)"/>
       <use xlink:href="#DejaVuSans-2212" transform="translate(128.203125 39.046875)scale(0.7)"/>
       <use xlink:href="#DejaVuSans-33" transform="translate(186.855469 39.046875)scale(0.7)"/>
      </g>
     </g>
    </g>
    <g id="ytick_2">
     <g id="line2d_13">
      <g>
       <use xlink:href="#m8958a8942d" x="54" y="195.198925" style="stroke: #000000; stroke-width: 0.8"/>
      </g>
     </g>
     <g id="text_14">
      <!-- $\mathdefault{10^{-2}}$ -->
      <g transform="translate(23.5 198.998144)scale(0.1 -0.1)">
       <use xlink:href="#DejaVuSans-31" transform="translate(0 0.765625)"/>
       <use xlink:href="#DejaVuSans-30" transform="translate(63.623047 0.765625)"/>
       <use xlink:href="#DejaVuSans-2212" transform="translate(128.203125 39.046875)scale(0.7)"/>
       <use xlink:href="#DejaVuSans-32" transform="translate(186.855469 39.046875)scale(0.7)"/>
      </g>
     </g>
    </g>
    <g id="ytick_3">
     <g id="line2d_14">
      <g>
       <use xlink:href="#m8958a8942d" x="54" y="150.502446" style="stroke: #000000; stroke-width: 0.8"/>
      </g>
     </g>
     <g id="text_15">
      <!-- $\mathdefault{10^{-1}}$ -->
      <g transform="translate(23.5 154.301665)scale(0.1 -0.1)">
       <use xlink:href="#DejaVuSans-31" transform="translate(0 0.684375)"/>
       <use xlink:href="#DejaVuSans-30" transform="translate(63.623047 0.684375)"/>
       <use xlink:href="#DejaVuSans-2212" transform="translate(128.203125 38.965625)scale(0.7)"/>
       <use xlink:href="#DejaVuSans-31" transform="translate(186.855469 38.965625)scale(0.7)"/>
      </g>
     </g>
    </g>
    <g id="ytick_4">
     <g id="line2d_15">
      <g>
       <use xlink:href="#m8958a8942d" x="54" y="105.805966" style="stroke: #000000; stroke-width: 0.8"/>
      </g>
     </g>
     <g id="text_16">
      <!-- $\mathdefault{10^{0}}$ -->
      <g transform="translate(29.4 109.605185)scale(0.1 -0.1)">
       <use xlink:href="#DejaVuSans-31" transform="translate(0 0.765625)"/>
       <use xlink:href="#DejaVuSans-30" transform="translate(63.623047 0.765625)"/>
       <use xlink:href="#DejaVuSans-30" transform="translate(128.203125 39.046875)scale(0.7)"/>
      </g>
     </g>
    </g>
    <g id="ytick_5">
     <g id="line2d_16">
      <g>
       <use xlink:href="#m8958a8942d" x="54" y="61.109487" style="stroke: #000000; stroke-width: 0.8"/>
      </g>
     </g>
     <g id="text_17">
      <!-- $\mathdefault{10^{1}}$ -->
      <g transform="translate(29.4 64.908706)scale(0.1 -0.1)">
       <use xlink:href="#DejaVuSans-31" transform="translate(0 0.684375)"/>
       <use xlink:href="#DejaVuSans-30" transform="translate(63.623047 0.684375)"/>
       <use xlink:href="#DejaVuSans-31" transform="translate(128.203125 38.965625)scale(0.7)"/>
      </g>
     </g>
    </g>
    <g id="ytick_6">
     <g id="line2d_17">
      <defs>
       <path id="m3630b8b3f2" d="M 0 0 
L -2 0 
" style="stroke: #000000; stroke-width: 0.6"/>
      </defs>
      <g>
       <use xlink:href="#m3630b8b3f2" x="54" y="249.811263" style="stroke: #000000; stroke-width: 0.6"/>
      </g>
     </g>
    </g>
    <g id="ytick_7">
     <g id="line2d_18">
      <g>
       <use xlink:href="#m3630b8b3f2" x="54" y="246.818977" style="stroke: #000000; stroke-width: 0.6"/>
      </g>
     </g>
    </g>
    <g id="ytick_8">
     <g id="line2d_19">
      <g>
       <use xlink:href="#m3630b8b3f2" x="54" y="244.226941" style="stroke: #000000; stroke-width: 0.6"/>
      </g>
     </g>
    </g>
    <g id="ytick_9">
     <g id="line2d_20">
      <g>
       <use xlink:href="#m3630b8b3f2" x="54" y="241.940603" style="stroke: #000000; stroke-width: 0.6"/>
      </g>
     </g>
    </g>
    <g id="ytick_10">
     <g id="line2d_21">
      <g>
       <use xlink:href="#m3630b8b3f2" x="54" y="226.440424" style="stroke: #000000; stroke-width: 0.6"/>
      </g>
     </g>
    </g>
    <g id="ytick_11">
     <g id="line2d_22">
      <g>
       <use xlink:href="#m3630b8b3f2" x="54" y="218.569764" style="stroke: #000000; stroke-width: 0.6"/>
      </g>
     </g>
    </g>
    <g id="ytick_12">
     <g id="line2d_23">
      <g>
       <use xlink:href="#m3630b8b3f2" x="54" y="212.985443" style="stroke: #000000; stroke-width: 0.6"/>
      </g>
     </g>
    </g>
    <g id="ytick_13">
     <g id="line2d_24">
      <g>
       <use xlink:href="#m3630b8b3f2" x="54" y="208.653906" style="stroke: #000000; stroke-width: 0.6"/>
      </g>
     </g>
    </g>
    <g id="ytick_14">
     <g id="line2d_25">
      <g>
       <use xlink:href="#m3630b8b3f2" x="54" y="205.114783" style="stroke: #000000; stroke-width: 0.6"/>
      </g>
     </g>
    </g>
    <g id="ytick_15">
     <g id="line2d_26">
      <g>
       <use xlink:href="#m3630b8b3f2" x="54" y="202.122497" style="stroke: #000000; stroke-width: 0.6"/>
      </g>
     </g>
    </g>
    <g id="ytick_16">
     <g id="line2d_27">
      <g>
       <use xlink:href="#m3630b8b3f2" x="54" y="199.530462" style="stroke: #000000; stroke-width: 0.6"/>
      </g>
     </g>
    </g>
    <g id="ytick_17">
     <g id="line2d_28">
      <g>
       <use xlink:href="#m3630b8b3f2" x="54" y="197.244124" style="stroke: #000000; stroke-width: 0.6"/>
      </g>
     </g>
    </g>
    <g id="ytick_18">
     <g id="line2d_29">
      <g>
       <use xlink:href="#m3630b8b3f2" x="54" y="181.743944" style="stroke: #000000; stroke-width: 0.6"/>
      </g>
     </g>
    </g>
    <g id="ytick_19">
     <g id="line2d_30">
      <g>
       <use xlink:href="#m3630b8b3f2" x="54" y="173.873285" style="stroke: #000000; stroke-width: 0.6"/>
      </g>
     </g>
    </g>
    <g id="ytick_20">
     <g id="line2d_31">
      <g>
       <use xlink:href="#m3630b8b3f2" x="54" y="168.288963" style="stroke: #000000; stroke-width: 0.6"/>
      </g>
     </g>
    </g>
    <g id="ytick_21">
     <g id="line2d_32">
      <g>
       <use xlink:href="#m3630b8b3f2" x="54" y="163.957427" style="stroke: #000000; stroke-width: 0.6"/>
      </g>
     </g>
    </g>
    <g id="ytick_22">
     <g id="line2d_33">
      <g>
       <use xlink:href="#m3630b8b3f2" x="54" y="160.418304" style="stroke: #000000; stroke-width: 0.6"/>
      </g>
     </g>
    </g>
    <g id="ytick_23">
     <g id="line2d_34">
      <g>
       <use xlink:href="#m3630b8b3f2" x="54" y="157.426018" style="stroke: #000000; stroke-width: 0.6"/>
      </g>
     </g>
    </g>
    <g id="ytick_24">
     <g id="line2d_35">
      <g>
       <use xlink:href="#m3630b8b3f2" x="54" y="154.833982" style="stroke: #000000; stroke-width: 0.6"/>
      </g>
     </g>
    </g>
    <g id="ytick_25">
     <g id="line2d_36">
      <g>
       <use xlink:href="#m3630b8b3f2" x="54" y="152.547645" style="stroke: #000000; stroke-width: 0.6"/>
      </g>
     </g>
    </g>
    <g id="ytick_26">
     <g id="line2d_37">
      <g>
       <use xlink:href="#m3630b8b3f2" x="54" y="137.047465" style="stroke: #000000; stroke-width: 0.6"/>
      </g>
     </g>
    </g>
    <g id="ytick_27">
     <g id="line2d_38">
      <g>
       <use xlink:href="#m3630b8b3f2" x="54" y="129.176806" style="stroke: #000000; stroke-width: 0.6"/>
      </g>
     </g>
    </g>
    <g id="ytick_28">
     <g id="line2d_39">
      <g>
       <use xlink:href="#m3630b8b3f2" x="54" y="123.592484" style="stroke: #000000; stroke-width: 0.6"/>
      </g>
     </g>
    </g>
    <g id="ytick_29">
     <g id="line2d_40">
      <g>
       <use xlink:href="#m3630b8b3f2" x="54" y="119.260947" style="stroke: #000000; stroke-width: 0.6"/>
      </g>
     </g>
    </g>
    <g id="ytick_30">
     <g id="line2d_41">
      <g>
       <use xlink:href="#m3630b8b3f2" x="54" y="115.721825" style="stroke: #000000; stroke-width: 0.6"/>
      </g>
     </g>
    </g>
    <g id="ytick_31">
     <g id="line2d_42">
      <g>
       <use xlink:href="#m3630b8b3f2" x="54" y="112.729539" style="stroke: #000000; stroke-width: 0.6"/>
      </g>
     </g>
    </g>
    <g id="ytick_32">
     <g id="line2d_43">
      <g>
       <use xlink:href="#m3630b8b3f2" x="54" y="110.137503" style="stroke: #000000; stroke-width: 0.6"/>
      </g>
     </g>
    </g>
    <g id="ytick_33">
     <g id="line2d_44">
      <g>
       <use xlink:href="#m3630b8b3f2" x="54" y="107.851165" style="stroke: #000000; stroke-width: 0.6"/>
      </g>
     </g>
    </g>
    <g id="ytick_34">
     <g id="line2d_45">
      <g>
       <use xlink:href="#m3630b8b3f2" x="54" y="92.350985" style="stroke: #000000; stroke-width: 0.6"/>
      </g>
     </g>
    </g>
    <g id="ytick_35">
     <g id="line2d_46">
      <g>
       <use xlink:href="#m3630b8b3f2" x="54" y="84.480326" style="stroke: #000000; stroke-width: 0.6"/>
      </g>
     </g>
    </g>
    <g id="ytick_36">
     <g id="line2d_47">
      <g>
       <use xlink:href="#m3630b8b3f2" x="54" y="78.896004" style="stroke: #000000; stroke-width: 0.6"/>
      </g>
     </g>
    </g>
    <g id="ytick_37">
     <g id="line2d_48">
      <g>
       <use xlink:href="#m3630b8b3f2" x="54" y="74.564468" style="stroke: #000000; stroke-width: 0.6"/>
      </g>
     </g>
    </g>
    <g id="ytick_38">
     <g id="line2d_49">
      <g>
       <use xlink:href="#m3630b8b3f2" x="54" y="71.025345" style="stroke: #000000; stroke-width: 0.6"/>
      </g>
     </g>
    </g>
    <g id="ytick_39">
     <g id="line2d_50">
      <g>
       <use xlink:href="#m3630b8b3f2" x="54" y="68.033059" style="stroke: #000000; stroke-width: 0.6"/>
      </g>
     </g>
    </g>
    <g id="ytick_40">
     <g id="line2d_51">
      <g>
       <use xlink:href="#m3630b8b3f2" x="54" y="65.441023" style="stroke: #000000; stroke-width: 0.6"/>
      </g>
     </g>
    </g>
    <g id="ytick_41">
     <g id="line2d_52">
      <g>
       <use xlink:href="#m3630b8b3f2" x="54" y="63.154686" style="stroke: #000000; stroke-width: 0.6"/>
      </g>
     </g>
    </g>
    <g id="ytick_42">
     <g id="line2d_53">
      <g>
       <use xlink:href="#m3630b8b3f2" x="54" y="47.654506" style="stroke: #000000; stroke-width: 0.6"/>
      </g>
     </g>
    </g>
    <g id="ytick_43">
     <g id="line2d_54">
      <g>
       <use xlink:href="#m3630b8b3f2" x="54" y="39.783847" style="stroke: #000000; stroke-width: 0.6"/>
      </g>
     </g>
    </g>
    <g id="text_18">
     <!-- Median average runtime -->
     <g transform="translate(17.420312 204.804219)rotate(-90)scale(0.1 -0.1)">
      <defs>
       <path id="DejaVuSans-4d" d="M 628 4666 
L 1569 4666 
L 2759 1491 
L 3956 4666 
L 4897 4666 
L 4897 0 
L 4281 0 
L 4281 4097 
L 3078 897 
L 2444 897 
L 1241 4097 
L 1241 0 
L 628 0 
L 628 4666 
z
" transform="scale(0.015625)"/>
       <path id="DejaVuSans-64" d="M 2906 2969 
L 2906 4863 
L 3481 4863 
L 3481 0 
L 2906 0 
L 2906 525 
Q 2725 213 2448 61 
Q 2172 -91 1784 -91 
Q 1150 -91 751 415 
Q 353 922 353 1747 
Q 353 2572 751 3078 
Q 1150 3584 1784 3584 
Q 2172 3584 2448 3432 
Q 2725 3281 2906 2969 
z
M 947 1747 
Q 947 1113 1208 752 
Q 1469 391 1925 391 
Q 2381 391 2643 752 
Q 2906 1113 2906 1747 
Q 2906 2381 2643 2742 
Q 2381 3103 1925 3103 
Q 1469 3103 1208 2742 
Q 947 2381 947 1747 
z
" transform="scale(0.015625)"/>
       <path id="DejaVuSans-6e" d="M 3513 2113 
L 3513 0 
L 2938 0 
L 2938 2094 
Q 2938 2591 2744 2837 
Q 2550 3084 2163 3084 
Q 1697 3084 1428 2787 
Q 1159 2491 1159 1978 
L 1159 0 
L 581 0 
L 581 3500 
L 1159 3500 
L 1159 2956 
Q 1366 3272 1645 3428 
Q 1925 3584 2291 3584 
Q 2894 3584 3203 3211 
Q 3513 2838 3513 2113 
z
" transform="scale(0.015625)"/>
       <path id="DejaVuSans-76" d="M 191 3500 
L 800 3500 
L 1894 563 
L 2988 3500 
L 3597 3500 
L 2284 0 
L 1503 0 
L 191 3500 
z
" transform="scale(0.015625)"/>
       <path id="DejaVuSans-75" d="M 544 1381 
L 544 3500 
L 1119 3500 
L 1119 1403 
Q 1119 906 1312 657 
Q 1506 409 1894 409 
Q 2359 409 2629 706 
Q 2900 1003 2900 1516 
L 2900 3500 
L 3475 3500 
L 3475 0 
L 2900 0 
L 2900 538 
Q 2691 219 2414 64 
Q 2138 -91 1772 -91 
Q 1169 -91 856 284 
Q 544 659 544 1381 
z
M 1991 3584 
L 1991 3584 
z
" transform="scale(0.015625)"/>
       <path id="DejaVuSans-74" d="M 1172 4494 
L 1172 3500 
L 2356 3500 
L 2356 3053 
L 1172 3053 
L 1172 1153 
Q 1172 725 1289 603 
Q 1406 481 1766 481 
L 2356 481 
L 2356 0 
L 1766 0 
Q 1100 0 847 248 
Q 594 497 594 1153 
L 594 3053 
L 172 3053 
L 172 3500 
L 594 3500 
L 594 4494 
L 1172 4494 
z
" transform="scale(0.015625)"/>
      </defs>
      <use xlink:href="#DejaVuSans-4d"/>
      <use xlink:href="#DejaVuSans-65" x="86.279297"/>
      <use xlink:href="#DejaVuSans-64" x="147.802734"/>
      <use xlink:href="#DejaVuSans-69" x="211.279297"/>
      <use xlink:href="#DejaVuSans-61" x="239.0625"/>
      <use xlink:href="#DejaVuSans-6e" x="300.341797"/>
      <use xlink:href="#DejaVuSans-20" x="363.720703"/>
      <use xlink:href="#DejaVuSans-61" x="395.507812"/>
      <use xlink:href="#DejaVuSans-76" x="456.787109"/>
      <use xlink:href="#DejaVuSans-65" x="515.966797"/>
      <use xlink:href="#DejaVuSans-72" x="577.490234"/>
      <use xlink:href="#DejaVuSans-61" x="618.603516"/>
      <use xlink:href="#DejaVuSans-67" x="679.882812"/>
      <use xlink:href="#DejaVuSans-65" x="743.359375"/>
      <use xlink:href="#DejaVuSans-20" x="804.882812"/>
      <use xlink:href="#DejaVuSans-72" x="836.669922"/>
      <use xlink:href="#DejaVuSans-75" x="877.783203"/>
      <use xlink:href="#DejaVuSans-6e" x="941.162109"/>
      <use xlink:href="#DejaVuSans-74" x="1004.541016"/>
      <use xlink:href="#DejaVuSans-69" x="1043.75"/>
      <use xlink:href="#DejaVuSans-6d" x="1071.533203"/>
      <use xlink:href="#DejaVuSans-65" x="1168.945312"/>
     </g>
    </g>
   </g>
   <g id="line2d_55">
    <path d="M 69.218182 101.764499 
L 79.036364 92.340459 
L 88.854545 86.691656 
L 98.672727 82.248098 
L 108.490909 78.589655 
L 118.309091 74.796393 
L 128.127273 72.658845 
L 137.945455 70.337817 
L 147.763636 68.659575 
L 157.581818 66.205164 
L 167.4 64.467639 
L 177.218182 63.008248 
L 187.036364 61.821848 
L 196.854545 59.704125 
L 206.672727 59.01305 
L 216.490909 57.647671 
L 226.309091 56.175712 
L 236.127273 55.276128 
L 245.945455 54.047106 
L 255.763636 53.821887 
L 265.581818 52.410885 
L 275.4 51.807615 
L 285.218182 50.963285 
L 295.036364 50.003235 
L 304.854545 49.125794 
L 314.672727 48.457817 
L 324.490909 47.69374 
L 334.309091 47.292791 
L 344.127273 46.475009 
L 353.945455 45.796585 
L 363.763636 45.359074 
L 373.581818 44.487449 
" clip-path="url(#pd7fc83de74)" style="fill: none; stroke: #1f77b4; stroke-width: 1.5; stroke-linecap: square"/>
   </g>
   <g id="line2d_56">
    <path d="M 69.218182 152.270163 
L 79.036364 145.498397 
L 88.854545 139.532801 
L 98.672727 134.650266 
L 108.490909 129.9229 
L 118.309091 126.57512 
L 128.127273 124.054708 
L 137.945455 122.111192 
L 147.763636 120.193745 
L 157.581818 117.552093 
L 167.4 115.815422 
L 177.218182 114.662422 
L 187.036364 113.034328 
L 196.854545 111.388445 
L 206.672727 111.383601 
L 216.490909 109.19977 
L 226.309091 108.262207 
L 236.127273 107.13982 
L 245.945455 107.619281 
L 255.763636 107.279032 
L 265.581818 105.700811 
L 275.4 104.506828 
L 285.218182 104.080525 
L 295.036364 103.292061 
L 304.854545 101.952693 
L 314.672727 100.508699 
L 324.490909 100.053969 
L 334.309091 100.321272 
L 344.127273 99.083024 
L 353.945455 98.225819 
L 363.763636 98.412555 
L 373.581818 97.322308 
" clip-path="url(#pd7fc83de74)" style="fill: none; stroke: #ff7f0e; stroke-width: 1.5; stroke-linecap: square"/>
   </g>
   <g id="line2d_57">
    <path d="M 69.218182 166.598259 
L 79.036364 158.875669 
L 88.854545 152.723878 
L 98.672727 149.052241 
L 108.490909 145.04786 
L 118.309091 142.382284 
L 128.127273 139.892329 
L 137.945455 137.215167 
L 147.763636 136.046507 
L 157.581818 133.576646 
L 167.4 132.099294 
L 177.218182 130.657965 
L 187.036364 129.026445 
L 196.854545 127.302347 
L 206.672727 126.497745 
L 216.490909 125.264944 
L 226.309091 123.937981 
L 236.127273 122.768394 
L 245.945455 121.587072 
L 255.763636 121.157289 
L 265.581818 120.138487 
L 275.4 119.118649 
L 285.218182 118.771848 
L 295.036364 117.793458 
L 304.854545 116.698109 
L 314.672727 116.082955 
L 324.490909 115.402499 
L 334.309091 114.830106 
L 344.127273 113.875677 
L 353.945455 113.396054 
L 363.763636 112.786973 
L 373.581818 112.288472 
" clip-path="url(#pd7fc83de74)" style="fill: none; stroke: #2ca02c; stroke-width: 1.5; stroke-linecap: square"/>
   </g>
   <g id="line2d_58">
    <path d="M 69.218182 242.088847 
L 79.036364 231.901081 
L 88.854545 224.989774 
L 98.672727 218.948875 
L 108.490909 214.844392 
L 118.309091 211.183231 
L 128.127273 208.650393 
L 137.945455 206.05604 
L 147.763636 203.877119 
L 157.581818 201.519894 
L 167.4 199.646418 
L 177.218182 198.018539 
L 187.036364 196.549425 
L 196.854545 194.857079 
L 206.672727 193.543519 
L 216.490909 192.170737 
L 226.309091 190.890581 
L 236.127273 189.766414 
L 245.945455 188.735129 
L 255.763636 187.544363 
L 265.581818 186.564535 
L 275.4 186.006302 
L 285.218182 184.963394 
L 295.036364 183.72289 
L 304.854545 182.967253 
L 314.672727 182.006685 
L 324.490909 181.009605 
L 334.309091 180.430948 
L 344.127273 179.607348 
L 353.945455 178.961834 
L 363.763636 178.152175 
L 373.581818 177.418223 
" clip-path="url(#pd7fc83de74)" style="fill: none; stroke: #d62728; stroke-width: 1.5; stroke-linecap: square"/>
   </g>
   <g id="patch_3">
    <path d="M 54 252 
L 54 34.56 
" style="fill: none; stroke: #000000; stroke-width: 0.8; stroke-linejoin: miter; stroke-linecap: square"/>
   </g>
   <g id="patch_4">
    <path d="M 388.8 252 
L 388.8 34.56 
" style="fill: none; stroke: #000000; stroke-width: 0.8; stroke-linejoin: miter; stroke-linecap: square"/>
   </g>
   <g id="patch_5">
    <path d="M 54 252 
L 388.8 252 
" style="fill: none; stroke: #000000; stroke-width: 0.8; stroke-linejoin: miter; stroke-linecap: square"/>
   </g>
   <g id="patch_6">
    <path d="M 54 34.56 
L 388.8 34.56 
" style="fill: none; stroke: #000000; stroke-width: 0.8; stroke-linejoin: miter; stroke-linecap: square"/>
   </g>
   <g id="text_19">
    <!-- Median Average Runtime vs. Program Size (100000 f.c., nicolau_a) -->
    <g transform="translate(21.8625 28.56)scale(0.12 -0.12)">
     <defs>
      <path id="DejaVuSans-41" d="M 2188 4044 
L 1331 1722 
L 3047 1722 
L 2188 4044 
z
M 1831 4666 
L 2547 4666 
L 4325 0 
L 3669 0 
L 3244 1197 
L 1141 1197 
L 716 0 
L 50 0 
L 1831 4666 
z
" transform="scale(0.015625)"/>
      <path id="DejaVuSans-52" d="M 2841 2188 
Q 3044 2119 3236 1894 
Q 3428 1669 3622 1275 
L 4263 0 
L 3584 0 
L 2988 1197 
Q 2756 1666 2539 1819 
Q 2322 1972 1947 1972 
L 1259 1972 
L 1259 0 
L 628 0 
L 628 4666 
L 2053 4666 
Q 2853 4666 3247 4331 
Q 3641 3997 3641 3322 
Q 3641 2881 3436 2590 
Q 3231 2300 2841 2188 
z
M 1259 4147 
L 1259 2491 
L 2053 2491 
Q 2509 2491 2742 2702 
Q 2975 2913 2975 3322 
Q 2975 3731 2742 3939 
Q 2509 4147 2053 4147 
L 1259 4147 
z
" transform="scale(0.015625)"/>
      <path id="DejaVuSans-2e" d="M 684 794 
L 1344 794 
L 1344 0 
L 684 0 
L 684 794 
z
" transform="scale(0.015625)"/>
      <path id="DejaVuSans-53" d="M 3425 4513 
L 3425 3897 
Q 3066 4069 2747 4153 
Q 2428 4238 2131 4238 
Q 1616 4238 1336 4038 
Q 1056 3838 1056 3469 
Q 1056 3159 1242 3001 
Q 1428 2844 1947 2747 
L 2328 2669 
Q 3034 2534 3370 2195 
Q 3706 1856 3706 1288 
Q 3706 609 3251 259 
Q 2797 -91 1919 -91 
Q 1588 -91 1214 -16 
Q 841 59 441 206 
L 441 856 
Q 825 641 1194 531 
Q 1563 422 1919 422 
Q 2459 422 2753 634 
Q 3047 847 3047 1241 
Q 3047 1584 2836 1778 
Q 2625 1972 2144 2069 
L 1759 2144 
Q 1053 2284 737 2584 
Q 422 2884 422 3419 
Q 422 4038 858 4394 
Q 1294 4750 2059 4750 
Q 2388 4750 2728 4690 
Q 3069 4631 3425 4513 
z
" transform="scale(0.015625)"/>
      <path id="DejaVuSans-28" d="M 1984 4856 
Q 1566 4138 1362 3434 
Q 1159 2731 1159 2009 
Q 1159 1288 1364 580 
Q 1569 -128 1984 -844 
L 1484 -844 
Q 1016 -109 783 600 
Q 550 1309 550 2009 
Q 550 2706 781 3412 
Q 1013 4119 1484 4856 
L 1984 4856 
z
" transform="scale(0.015625)"/>
      <path id="DejaVuSans-66" d="M 2375 4863 
L 2375 4384 
L 1825 4384 
Q 1516 4384 1395 4259 
Q 1275 4134 1275 3809 
L 1275 3500 
L 2222 3500 
L 2222 3053 
L 1275 3053 
L 1275 0 
L 697 0 
L 697 3053 
L 147 3053 
L 147 3500 
L 697 3500 
L 697 3744 
Q 697 4328 969 4595 
Q 1241 4863 1831 4863 
L 2375 4863 
z
" transform="scale(0.015625)"/>
      <path id="DejaVuSans-63" d="M 3122 3366 
L 3122 2828 
Q 2878 2963 2633 3030 
Q 2388 3097 2138 3097 
Q 1578 3097 1268 2742 
Q 959 2388 959 1747 
Q 959 1106 1268 751 
Q 1578 397 2138 397 
Q 2388 397 2633 464 
Q 2878 531 3122 666 
L 3122 134 
Q 2881 22 2623 -34 
Q 2366 -91 2075 -91 
Q 1284 -91 818 406 
Q 353 903 353 1747 
Q 353 2603 823 3093 
Q 1294 3584 2113 3584 
Q 2378 3584 2631 3529 
Q 2884 3475 3122 3366 
z
" transform="scale(0.015625)"/>
      <path id="DejaVuSans-2c" d="M 750 794 
L 1409 794 
L 1409 256 
L 897 -744 
L 494 -744 
L 750 256 
L 750 794 
z
" transform="scale(0.015625)"/>
      <path id="DejaVuSans-6c" d="M 603 4863 
L 1178 4863 
L 1178 0 
L 603 0 
L 603 4863 
z
" transform="scale(0.015625)"/>
      <path id="DejaVuSans-5f" d="M 3263 -1063 
L 3263 -1509 
L -63 -1509 
L -63 -1063 
L 3263 -1063 
z
" transform="scale(0.015625)"/>
      <path id="DejaVuSans-29" d="M 513 4856 
L 1013 4856 
Q 1481 4119 1714 3412 
Q 1947 2706 1947 2009 
Q 1947 1309 1714 600 
Q 1481 -109 1013 -844 
L 513 -844 
Q 928 -128 1133 580 
Q 1338 1288 1338 2009 
Q 1338 2731 1133 3434 
Q 928 4138 513 4856 
z
" transform="scale(0.015625)"/>
     </defs>
     <use xlink:href="#DejaVuSans-4d"/>
     <use xlink:href="#DejaVuSans-65" x="86.279297"/>
     <use xlink:href="#DejaVuSans-64" x="147.802734"/>
     <use xlink:href="#DejaVuSans-69" x="211.279297"/>
     <use xlink:href="#DejaVuSans-61" x="239.0625"/>
     <use xlink:href="#DejaVuSans-6e" x="300.341797"/>
     <use xlink:href="#DejaVuSans-20" x="363.720703"/>
     <use xlink:href="#DejaVuSans-41" x="395.507812"/>
     <use xlink:href="#DejaVuSans-76" x="458.041016"/>
     <use xlink:href="#DejaVuSans-65" x="517.220703"/>
     <use xlink:href="#DejaVuSans-72" x="578.744141"/>
     <use xlink:href="#DejaVuSans-61" x="619.857422"/>
     <use xlink:href="#DejaVuSans-67" x="681.136719"/>
     <use xlink:href="#DejaVuSans-65" x="744.613281"/>
     <use xlink:href="#DejaVuSans-20" x="806.136719"/>
     <use xlink:href="#DejaVuSans-52" x="837.923828"/>
     <use xlink:href="#DejaVuSans-75" x="902.90625"/>
     <use xlink:href="#DejaVuSans-6e" x="966.285156"/>
     <use xlink:href="#DejaVuSans-74" x="1029.664062"/>
     <use xlink:href="#DejaVuSans-69" x="1068.873047"/>
     <use xlink:href="#DejaVuSans-6d" x="1096.65625"/>
     <use xlink:href="#DejaVuSans-65" x="1194.068359"/>
     <use xlink:href="#DejaVuSans-20" x="1255.591797"/>
     <use xlink:href="#DejaVuSans-76" x="1287.378906"/>
     <use xlink:href="#DejaVuSans-73" x="1346.558594"/>
     <use xlink:href="#DejaVuSans-2e" x="1398.658203"/>
     <use xlink:href="#DejaVuSans-20" x="1430.445312"/>
     <use xlink:href="#DejaVuSans-50" x="1462.232422"/>
     <use xlink:href="#DejaVuSans-72" x="1520.785156"/>
     <use xlink:href="#DejaVuSans-6f" x="1559.648438"/>
     <use xlink:href="#DejaVuSans-67" x="1620.830078"/>
     <use xlink:href="#DejaVuSans-72" x="1684.306641"/>
     <use xlink:href="#DejaVuSans-61" x="1725.419922"/>
     <use xlink:href="#DejaVuSans-6d" x="1786.699219"/>
     <use xlink:href="#DejaVuSans-20" x="1884.111328"/>
     <use xlink:href="#DejaVuSans-53" x="1915.898438"/>
     <use xlink:href="#DejaVuSans-69" x="1979.375"/>
     <use xlink:href="#DejaVuSans-7a" x="2007.158203"/>
     <use xlink:href="#DejaVuSans-65" x="2059.648438"/>
     <use xlink:href="#DejaVuSans-20" x="2121.171875"/>
     <use xlink:href="#DejaVuSans-28" x="2152.958984"/>
     <use xlink:href="#DejaVuSans-31" x="2191.972656"/>
     <use xlink:href="#DejaVuSans-30" x="2255.595703"/>
     <use xlink:href="#DejaVuSans-30" x="2319.21875"/>
     <use xlink:href="#DejaVuSans-30" x="2382.841797"/>
     <use xlink:href="#DejaVuSans-30" x="2446.464844"/>
     <use xlink:href="#DejaVuSans-30" x="2510.087891"/>
     <use xlink:href="#DejaVuSans-20" x="2573.710938"/>
     <use xlink:href="#DejaVuSans-66" x="2605.498047"/>
     <use xlink:href="#DejaVuSans-2e" x="2633.453125"/>
     <use xlink:href="#DejaVuSans-63" x="2665.240234"/>
     <use xlink:href="#DejaVuSans-2e" x="2720.220703"/>
     <use xlink:href="#DejaVuSans-2c" x="2752.007812"/>
     <use xlink:href="#DejaVuSans-20" x="2783.794922"/>
     <use xlink:href="#DejaVuSans-6e" x="2815.582031"/>
     <use xlink:href="#DejaVuSans-69" x="2878.960938"/>
     <use xlink:href="#DejaVuSans-63" x="2906.744141"/>
     <use xlink:href="#DejaVuSans-6f" x="2961.724609"/>
     <use xlink:href="#DejaVuSans-6c" x="3022.90625"/>
     <use xlink:href="#DejaVuSans-61" x="3050.689453"/>
     <use xlink:href="#DejaVuSans-75" x="3111.96875"/>
     <use xlink:href="#DejaVuSans-5f" x="3175.347656"/>
     <use xlink:href="#DejaVuSans-61" x="3225.347656"/>
     <use xlink:href="#DejaVuSans-29" x="3286.626953"/>
    </g>
   </g>
   <g id="legend_1">
    <g id="patch_7">
     <path d="M 61 101.2725 
L 171.19375 101.2725 
Q 173.19375 101.2725 173.19375 99.2725 
L 173.19375 41.56 
Q 173.19375 39.56 171.19375 39.56 
L 61 39.56 
Q 59 39.56 59 41.56 
L 59 99.2725 
Q 59 101.2725 61 101.2725 
z
" style="fill: #ffffff; opacity: 0.8; stroke: #cccccc; stroke-linejoin: miter"/>
    </g>
    <g id="line2d_59">
     <path d="M 63 47.658437 
L 73 47.658437 
L 83 47.658437 
" style="fill: none; stroke: #1f77b4; stroke-width: 1.5; stroke-linecap: square"/>
    </g>
    <g id="text_20">
     <!-- DEAP -->
     <g transform="translate(91 51.158437)scale(0.1 -0.1)">
      <defs>
       <path id="DejaVuSans-44" d="M 1259 4147 
L 1259 519 
L 2022 519 
Q 2988 519 3436 956 
Q 3884 1394 3884 2338 
Q 3884 3275 3436 3711 
Q 2988 4147 2022 4147 
L 1259 4147 
z
M 628 4666 
L 1925 4666 
Q 3281 4666 3915 4102 
Q 4550 3538 4550 2338 
Q 4550 1131 3912 565 
Q 3275 0 1925 0 
L 628 0 
L 628 4666 
z
" transform="scale(0.015625)"/>
       <path id="DejaVuSans-45" d="M 628 4666 
L 3578 4666 
L 3578 4134 
L 1259 4134 
L 1259 2753 
L 3481 2753 
L 3481 2222 
L 1259 2222 
L 1259 531 
L 3634 531 
L 3634 0 
L 628 0 
L 628 4666 
z
" transform="scale(0.015625)"/>
      </defs>
      <use xlink:href="#DejaVuSans-44"/>
      <use xlink:href="#DejaVuSans-45" x="77.001953"/>
      <use xlink:href="#DejaVuSans-41" x="140.185547"/>
      <use xlink:href="#DejaVuSans-50" x="208.59375"/>
     </g>
    </g>
    <g id="line2d_60">
     <path d="M 63 62.336562 
L 73 62.336562 
L 83 62.336562 
" style="fill: none; stroke: #ff7f0e; stroke-width: 1.5; stroke-linecap: square"/>
    </g>
    <g id="text_21">
     <!-- TensorGP (CPU) -->
     <g transform="translate(91 65.836562)scale(0.1 -0.1)">
      <defs>
       <path id="DejaVuSans-54" d="M -19 4666 
L 3928 4666 
L 3928 4134 
L 2272 4134 
L 2272 0 
L 1638 0 
L 1638 4134 
L -19 4134 
L -19 4666 
z
" transform="scale(0.015625)"/>
       <path id="DejaVuSans-47" d="M 3809 666 
L 3809 1919 
L 2778 1919 
L 2778 2438 
L 4434 2438 
L 4434 434 
Q 4069 175 3628 42 
Q 3188 -91 2688 -91 
Q 1594 -91 976 548 
Q 359 1188 359 2328 
Q 359 3472 976 4111 
Q 1594 4750 2688 4750 
Q 3144 4750 3555 4637 
Q 3966 4525 4313 4306 
L 4313 3634 
Q 3963 3931 3569 4081 
Q 3175 4231 2741 4231 
Q 1884 4231 1454 3753 
Q 1025 3275 1025 2328 
Q 1025 1384 1454 906 
Q 1884 428 2741 428 
Q 3075 428 3337 486 
Q 3600 544 3809 666 
z
" transform="scale(0.015625)"/>
       <path id="DejaVuSans-43" d="M 4122 4306 
L 4122 3641 
Q 3803 3938 3442 4084 
Q 3081 4231 2675 4231 
Q 1875 4231 1450 3742 
Q 1025 3253 1025 2328 
Q 1025 1406 1450 917 
Q 1875 428 2675 428 
Q 3081 428 3442 575 
Q 3803 722 4122 1019 
L 4122 359 
Q 3791 134 3420 21 
Q 3050 -91 2638 -91 
Q 1578 -91 968 557 
Q 359 1206 359 2328 
Q 359 3453 968 4101 
Q 1578 4750 2638 4750 
Q 3056 4750 3426 4639 
Q 3797 4528 4122 4306 
z
" transform="scale(0.015625)"/>
       <path id="DejaVuSans-55" d="M 556 4666 
L 1191 4666 
L 1191 1831 
Q 1191 1081 1462 751 
Q 1734 422 2344 422 
Q 2950 422 3222 751 
Q 3494 1081 3494 1831 
L 3494 4666 
L 4128 4666 
L 4128 1753 
Q 4128 841 3676 375 
Q 3225 -91 2344 -91 
Q 1459 -91 1007 375 
Q 556 841 556 1753 
L 556 4666 
z
" transform="scale(0.015625)"/>
      </defs>
      <use xlink:href="#DejaVuSans-54"/>
      <use xlink:href="#DejaVuSans-65" x="44.083984"/>
      <use xlink:href="#DejaVuSans-6e" x="105.607422"/>
      <use xlink:href="#DejaVuSans-73" x="168.986328"/>
      <use xlink:href="#DejaVuSans-6f" x="221.085938"/>
      <use xlink:href="#DejaVuSans-72" x="282.267578"/>
      <use xlink:href="#DejaVuSans-47" x="323.380859"/>
      <use xlink:href="#DejaVuSans-50" x="400.871094"/>
      <use xlink:href="#DejaVuSans-20" x="461.173828"/>
      <use xlink:href="#DejaVuSans-28" x="492.960938"/>
      <use xlink:href="#DejaVuSans-43" x="531.974609"/>
      <use xlink:href="#DejaVuSans-50" x="601.798828"/>
      <use xlink:href="#DejaVuSans-55" x="662.101562"/>
      <use xlink:href="#DejaVuSans-29" x="735.294922"/>
     </g>
    </g>
    <g id="line2d_61">
     <path d="M 63 77.014687 
L 73 77.014687 
L 83 77.014687 
" style="fill: none; stroke: #2ca02c; stroke-width: 1.5; stroke-linecap: square"/>
    </g>
    <g id="text_22">
     <!-- TensorGP (GPU) -->
     <g transform="translate(91 80.514687)scale(0.1 -0.1)">
      <use xlink:href="#DejaVuSans-54"/>
      <use xlink:href="#DejaVuSans-65" x="44.083984"/>
      <use xlink:href="#DejaVuSans-6e" x="105.607422"/>
      <use xlink:href="#DejaVuSans-73" x="168.986328"/>
      <use xlink:href="#DejaVuSans-6f" x="221.085938"/>
      <use xlink:href="#DejaVuSans-72" x="282.267578"/>
      <use xlink:href="#DejaVuSans-47" x="323.380859"/>
      <use xlink:href="#DejaVuSans-50" x="400.871094"/>
      <use xlink:href="#DejaVuSans-20" x="461.173828"/>
      <use xlink:href="#DejaVuSans-28" x="492.960938"/>
      <use xlink:href="#DejaVuSans-47" x="531.974609"/>
      <use xlink:href="#DejaVuSans-50" x="609.464844"/>
      <use xlink:href="#DejaVuSans-55" x="669.767578"/>
      <use xlink:href="#DejaVuSans-29" x="742.960938"/>
     </g>
    </g>
    <g id="line2d_62">
     <path d="M 63 91.692813 
L 73 91.692813 
L 83 91.692813 
" style="fill: none; stroke: #d62728; stroke-width: 1.5; stroke-linecap: square"/>
    </g>
    <g id="text_23">
     <!-- Operon -->
     <g transform="translate(91 95.192813)scale(0.1 -0.1)">
      <defs>
       <path id="DejaVuSans-4f" d="M 2522 4238 
Q 1834 4238 1429 3725 
Q 1025 3213 1025 2328 
Q 1025 1447 1429 934 
Q 1834 422 2522 422 
Q 3209 422 3611 934 
Q 4013 1447 4013 2328 
Q 4013 3213 3611 3725 
Q 3209 4238 2522 4238 
z
M 2522 4750 
Q 3503 4750 4090 4092 
Q 4678 3434 4678 2328 
Q 4678 1225 4090 567 
Q 3503 -91 2522 -91 
Q 1538 -91 948 565 
Q 359 1222 359 2328 
Q 359 3434 948 4092 
Q 1538 4750 2522 4750 
z
" transform="scale(0.015625)"/>
       <path id="DejaVuSans-70" d="M 1159 525 
L 1159 -1331 
L 581 -1331 
L 581 3500 
L 1159 3500 
L 1159 2969 
Q 1341 3281 1617 3432 
Q 1894 3584 2278 3584 
Q 2916 3584 3314 3078 
Q 3713 2572 3713 1747 
Q 3713 922 3314 415 
Q 2916 -91 2278 -91 
Q 1894 -91 1617 61 
Q 1341 213 1159 525 
z
M 3116 1747 
Q 3116 2381 2855 2742 
Q 2594 3103 2138 3103 
Q 1681 3103 1420 2742 
Q 1159 2381 1159 1747 
Q 1159 1113 1420 752 
Q 1681 391 2138 391 
Q 2594 391 2855 752 
Q 3116 1113 3116 1747 
z
" transform="scale(0.015625)"/>
      </defs>
      <use xlink:href="#DejaVuSans-4f"/>
      <use xlink:href="#DejaVuSans-70" x="78.710938"/>
      <use xlink:href="#DejaVuSans-65" x="142.1875"/>
      <use xlink:href="#DejaVuSans-72" x="203.710938"/>
      <use xlink:href="#DejaVuSans-6f" x="242.574219"/>
      <use xlink:href="#DejaVuSans-6e" x="303.755859"/>
     </g>
    </g>
   </g>
  </g>
 </g>
 <defs>
  <clipPath id="pd7fc83de74">
   <rect x="54" y="34.56" width="334.8" height="217.44"/>
  </clipPath>
 </defs>
</svg>
