<?xml version="1.0" encoding="utf-8" standalone="no"?>
<!DOCTYPE svg PUBLIC "-//W3C//DTD SVG 1.1//EN"
  "http://www.w3.org/Graphics/SVG/1.1/DTD/svg11.dtd">
<svg xmlns:xlink="http://www.w3.org/1999/xlink" width="432pt" height="288pt" viewBox="0 0 432 288" xmlns="http://www.w3.org/2000/svg" version="1.1">
 <metadata>
  <rdf:RDF xmlns:dc="http://purl.org/dc/elements/1.1/" xmlns:cc="http://creativecommons.org/ns#" xmlns:rdf="http://www.w3.org/1999/02/22-rdf-syntax-ns#">
   <cc:Work>
    <dc:type rdf:resource="http://purl.org/dc/dcmitype/StillImage"/>
    <dc:date>2022-01-12T03:40:09.227262</dc:date>
    <dc:format>image/svg+xml</dc:format>
    <dc:creator>
     <cc:Agent>
      <dc:title>Matplotlib v3.5.1, https://matplotlib.org/</dc:title>
     </cc:Agent>
    </dc:creator>
   </cc:Work>
  </rdf:RDF>
 </metadata>
 <defs>
  <style type="text/css">*{stroke-linejoin: round; stroke-linecap: butt}</style>
 </defs>
 <g id="figure_1">
  <g id="patch_1">
   <path d="M 0 288 
L 432 288 
L 432 0 
L 0 0 
L 0 288 
z
" style="fill: none"/>
  </g>
  <g id="axes_1">
   <g id="patch_2">
    <path d="M 54 252 
L 388.8 252 
L 388.8 34.56 
L 54 34.56 
z
" style="fill: #ffffff"/>
   </g>
   <g id="PolyCollection_1">
    <path d="M 69.218182 241.622707 
L 69.218182 242.116364 
L 71.614746 229.20139 
L 74.01131 224.573733 
L 76.407874 219.095981 
L 78.804438 208.792092 
L 81.201002 212.635353 
L 83.597566 201.566077 
L 85.99413 204.769154 
L 88.390694 210.573943 
L 90.787258 207.172166 
L 93.183822 200.493578 
L 95.580387 203.83231 
L 97.976951 202.363057 
L 100.373515 204.033986 
L 102.770079 202.995883 
L 105.166643 198.112801 
L 107.563207 201.547613 
L 109.959771 204.331239 
L 112.356335 204.200354 
L 114.752899 196.612523 
L 117.149463 198.945626 
L 119.546027 201.870314 
L 121.942591 202.621631 
L 124.339155 200.51879 
L 126.735719 200.99106 
L 129.132283 202.164835 
L 131.528848 200.569767 
L 133.925412 197.725608 
L 136.321976 197.328711 
L 138.71854 196.595305 
L 141.115104 199.630948 
L 143.511668 197.32894 
L 145.908232 195.159775 
L 148.304796 199.894538 
L 150.70136 199.346837 
L 153.097924 198.920685 
L 155.494488 197.692389 
L 157.891052 197.071667 
L 160.287616 199.700998 
L 162.68418 200.244268 
L 165.080744 192.940383 
L 167.477309 200.14581 
L 169.873873 198.010604 
L 172.270437 200.110216 
L 174.667001 201.35413 
L 177.063565 199.716841 
L 179.460129 200.400231 
L 181.856693 200.410877 
L 184.253257 200.913391 
L 186.649821 199.003871 
L 189.046385 200.070596 
L 191.442949 199.034891 
L 193.839513 195.378368 
L 196.236077 198.621468 
L 198.632641 198.325126 
L 201.029205 198.245633 
L 203.42577 201.061002 
L 205.822334 199.881965 
L 208.218898 200.66488 
L 210.615462 198.235569 
L 213.012026 202.285401 
L 215.40859 197.969503 
L 217.805154 197.294602 
L 220.201718 200.055541 
L 222.598282 198.184832 
L 224.994846 199.982526 
L 227.39141 197.780563 
L 229.787974 199.873744 
L 232.184538 199.723366 
L 234.581102 195.154348 
L 236.977666 198.090779 
L 239.37423 199.374511 
L 241.770795 200.192837 
L 244.167359 198.990799 
L 246.563923 198.372022 
L 248.960487 199.463305 
L 251.357051 198.507255 
L 253.753615 200.177553 
L 256.150179 197.69274 
L 258.546743 201.424182 
L 260.943307 197.323691 
L 263.339871 199.310766 
L 265.736435 199.68965 
L 268.132999 198.138821 
L 270.529563 200.963651 
L 272.926127 200.103132 
L 275.322691 197.719588 
L 277.719256 197.985315 
L 280.11582 199.033245 
L 282.512384 198.197264 
L 284.908948 196.877011 
L 287.305512 197.671343 
L 289.702076 196.018485 
L 292.09864 197.079677 
L 294.495204 198.40183 
L 296.891768 196.694533 
L 299.288332 199.774834 
L 301.684896 200.555047 
L 304.08146 198.563693 
L 306.478024 197.762669 
L 308.874588 196.624982 
L 311.271152 198.656956 
L 313.667717 197.264789 
L 316.064281 198.826124 
L 318.460845 201.204756 
L 320.857409 197.818754 
L 323.253973 197.769171 
L 325.650537 198.258788 
L 328.047101 199.358221 
L 330.443665 197.305105 
L 332.840229 197.880138 
L 335.236793 197.663505 
L 337.633357 194.583101 
L 340.029921 195.326043 
L 342.426485 198.211371 
L 344.823049 196.095244 
L 347.219613 197.926909 
L 349.616178 197.460607 
L 352.012742 199.824309 
L 354.409306 196.178113 
L 356.80587 199.657945 
L 359.202434 195.949463 
L 361.598998 198.018302 
L 363.995562 199.473968 
L 366.392126 195.309124 
L 368.78869 196.46577 
L 371.185254 197.437525 
L 373.581818 197.560225 
L 373.581818 196.834121 
L 373.581818 196.834121 
L 371.185254 197.416817 
L 368.78869 195.895116 
L 366.392126 195.082137 
L 363.995562 199.374348 
L 361.598998 197.894044 
L 359.202434 195.743601 
L 356.80587 199.571933 
L 354.409306 196.033847 
L 352.012742 199.797129 
L 349.616178 197.287865 
L 347.219613 197.381282 
L 344.823049 195.73937 
L 342.426485 197.761248 
L 340.029921 194.886456 
L 337.633357 194.412901 
L 335.236793 197.535763 
L 332.840229 197.746793 
L 330.443665 197.112159 
L 328.047101 199.222332 
L 325.650537 197.9847 
L 323.253973 197.39921 
L 320.857409 197.523732 
L 318.460845 200.911325 
L 316.064281 198.331561 
L 313.667717 197.103004 
L 311.271152 198.233234 
L 308.874588 196.366292 
L 306.478024 197.50672 
L 304.08146 198.384945 
L 301.684896 200.261471 
L 299.288332 199.464301 
L 296.891768 196.628219 
L 294.495204 197.881252 
L 292.09864 196.996217 
L 289.702076 195.847624 
L 287.305512 197.559276 
L 284.908948 196.71556 
L 282.512384 198.076297 
L 280.11582 198.895761 
L 277.719256 197.817919 
L 275.322691 197.291756 
L 272.926127 199.76559 
L 270.529563 200.805793 
L 268.132999 197.988657 
L 265.736435 199.006797 
L 263.339871 199.134945 
L 260.943307 196.875347 
L 258.546743 201.142187 
L 256.150179 197.511494 
L 253.753615 199.812969 
L 251.357051 198.039003 
L 248.960487 199.406105 
L 246.563923 198.238734 
L 244.167359 198.864333 
L 241.770795 200.053414 
L 239.37423 198.942534 
L 236.977666 197.858203 
L 234.581102 194.560706 
L 232.184538 199.498998 
L 229.787974 199.611138 
L 227.39141 197.477401 
L 224.994846 199.753418 
L 222.598282 197.993684 
L 220.201718 199.895313 
L 217.805154 197.039821 
L 215.40859 197.550833 
L 213.012026 201.704565 
L 210.615462 197.66977 
L 208.218898 200.211898 
L 205.822334 199.707403 
L 203.42577 200.977319 
L 201.029205 198.079212 
L 198.632641 197.956864 
L 196.236077 197.923859 
L 193.839513 194.835531 
L 191.442949 198.538884 
L 189.046385 199.973179 
L 186.649821 198.684277 
L 184.253257 200.383989 
L 181.856693 200.041569 
L 179.460129 200.106933 
L 177.063565 199.216528 
L 174.667001 201.263123 
L 172.270437 199.806126 
L 169.873873 197.950638 
L 167.477309 200.013664 
L 165.080744 192.627621 
L 162.68418 200.070433 
L 160.287616 199.318659 
L 157.891052 196.781328 
L 155.494488 197.371565 
L 153.097924 198.473339 
L 150.70136 198.948614 
L 148.304796 199.38605 
L 145.908232 194.961603 
L 143.511668 197.210773 
L 141.115104 199.404569 
L 138.71854 195.963464 
L 136.321976 197.233042 
L 133.925412 197.34893 
L 131.528848 199.94774 
L 129.132283 201.73745 
L 126.735719 200.796962 
L 124.339155 200.355613 
L 121.942591 202.315363 
L 119.546027 201.430635 
L 117.149463 198.508176 
L 114.752899 196.275927 
L 112.356335 203.825954 
L 109.959771 203.934591 
L 107.563207 201.454477 
L 105.166643 197.689542 
L 102.770079 202.495525 
L 100.373515 203.795602 
L 97.976951 201.797517 
L 95.580387 203.491905 
L 93.183822 199.844027 
L 90.787258 206.97314 
L 88.390694 210.338131 
L 85.99413 204.278864 
L 83.597566 201.347232 
L 81.201002 212.562951 
L 78.804438 208.667975 
L 76.407874 218.783587 
L 74.01131 224.364354 
L 71.614746 228.895886 
L 69.218182 241.622707 
z
" clip-path="url(#p782f7a942f)" style="fill: #1f77b4"/>
   </g>
   <g id="PolyCollection_2">
    <path d="M 69.218182 181.133771 
L 69.218182 183.770056 
L 71.614746 163.569079 
L 74.01131 157.299276 
L 76.407874 152.634115 
L 78.804438 150.242237 
L 81.201002 147.372275 
L 83.597566 137.802385 
L 85.99413 139.430375 
L 88.390694 147.682135 
L 90.787258 143.926388 
L 93.183822 138.784135 
L 95.580387 140.212252 
L 97.976951 135.510286 
L 100.373515 140.141719 
L 102.770079 136.526126 
L 105.166643 136.735748 
L 107.563207 134.818182 
L 109.959771 138.004463 
L 112.356335 140.094377 
L 114.752899 131.286602 
L 117.149463 131.455944 
L 119.546027 133.335725 
L 121.942591 134.670092 
L 124.339155 134.962197 
L 126.735719 133.365866 
L 129.132283 134.137153 
L 131.528848 135.107057 
L 133.925412 129.828369 
L 136.321976 130.579485 
L 138.71854 130.664268 
L 141.115104 135.312021 
L 143.511668 131.153103 
L 145.908232 131.09272 
L 148.304796 131.261053 
L 150.70136 133.035759 
L 153.097924 130.813476 
L 155.494488 133.851624 
L 157.891052 135.12265 
L 160.287616 134.152298 
L 162.68418 131.802649 
L 165.080744 127.660935 
L 167.477309 135.1651 
L 169.873873 132.972032 
L 172.270437 135.207744 
L 174.667001 137.950383 
L 177.063565 137.801782 
L 179.460129 138.040287 
L 181.856693 133.134393 
L 184.253257 133.098802 
L 186.649821 130.789037 
L 189.046385 132.002547 
L 191.442949 133.952184 
L 193.839513 130.166053 
L 196.236077 132.614662 
L 198.632641 130.609765 
L 201.029205 133.275064 
L 203.42577 135.056037 
L 205.822334 131.802236 
L 208.218898 135.128817 
L 210.615462 131.973543 
L 213.012026 134.679451 
L 215.40859 135.312189 
L 217.805154 135.155028 
L 220.201718 133.527061 
L 222.598282 131.586574 
L 224.994846 131.561216 
L 227.39141 132.498763 
L 229.787974 131.391272 
L 232.184538 131.389283 
L 234.581102 129.646075 
L 236.977666 131.905254 
L 239.37423 135.424182 
L 241.770795 137.65803 
L 244.167359 137.390104 
L 246.563923 136.544885 
L 248.960487 131.86565 
L 251.357051 131.763883 
L 253.753615 134.776286 
L 256.150179 131.956275 
L 258.546743 132.381517 
L 260.943307 128.864683 
L 263.339871 132.508071 
L 265.736435 130.716253 
L 268.132999 131.096861 
L 270.529563 133.893995 
L 272.926127 131.033922 
L 275.322691 129.952997 
L 277.719256 129.728966 
L 280.11582 133.122871 
L 282.512384 129.62372 
L 284.908948 130.707365 
L 287.305512 129.35311 
L 289.702076 128.589113 
L 292.09864 129.384046 
L 294.495204 130.453096 
L 296.891768 130.005828 
L 299.288332 130.274019 
L 301.684896 131.594173 
L 304.08146 129.344935 
L 306.478024 129.939489 
L 308.874588 126.821058 
L 311.271152 129.285486 
L 313.667717 129.196707 
L 316.064281 130.014497 
L 318.460845 132.452097 
L 320.857409 130.309127 
L 323.253973 130.166602 
L 325.650537 129.735424 
L 328.047101 133.158204 
L 330.443665 128.593915 
L 332.840229 130.709883 
L 335.236793 129.089288 
L 337.633357 127.297277 
L 340.029921 127.976501 
L 342.426485 130.449494 
L 344.823049 129.633655 
L 347.219613 129.800834 
L 349.616178 129.315388 
L 352.012742 132.313659 
L 354.409306 128.773644 
L 356.80587 131.581961 
L 359.202434 129.448366 
L 361.598998 130.070829 
L 363.995562 131.469789 
L 366.392126 129.087572 
L 368.78869 129.625548 
L 371.185254 129.965246 
L 373.581818 129.667111 
L 373.581818 129.40094 
L 373.581818 129.40094 
L 371.185254 129.395733 
L 368.78869 129.371114 
L 366.392126 128.81653 
L 363.995562 130.72972 
L 361.598998 129.663471 
L 359.202434 129.150018 
L 356.80587 131.4823 
L 354.409306 128.492173 
L 352.012742 132.0378 
L 349.616178 128.970455 
L 347.219613 129.530273 
L 344.823049 129.345453 
L 342.426485 130.232304 
L 340.029921 127.798868 
L 337.633357 127.167462 
L 335.236793 128.705768 
L 332.840229 130.254769 
L 330.443665 128.482955 
L 328.047101 132.842746 
L 325.650537 129.387023 
L 323.253973 129.840069 
L 320.857409 130.058354 
L 318.460845 132.062667 
L 316.064281 129.849957 
L 313.667717 128.99804 
L 311.271152 129.045366 
L 308.874588 126.43442 
L 306.478024 129.872212 
L 304.08146 129.118717 
L 301.684896 131.431459 
L 299.288332 130.00306 
L 296.891768 129.788569 
L 294.495204 130.319626 
L 292.09864 129.191114 
L 289.702076 128.409507 
L 287.305512 129.333747 
L 284.908948 130.582768 
L 282.512384 129.151536 
L 280.11582 132.664557 
L 277.719256 129.415167 
L 275.322691 129.473253 
L 272.926127 130.595521 
L 270.529563 133.602205 
L 268.132999 130.952631 
L 265.736435 130.355825 
L 263.339871 132.198663 
L 260.943307 128.724539 
L 258.546743 131.662607 
L 256.150179 131.030011 
L 253.753615 131.305798 
L 251.357051 131.532202 
L 248.960487 131.680774 
L 246.563923 136.215176 
L 244.167359 136.971724 
L 241.770795 137.067084 
L 239.37423 135.223885 
L 236.977666 131.643305 
L 234.581102 129.1585 
L 232.184538 130.843806 
L 229.787974 130.144594 
L 227.39141 131.785827 
L 224.994846 131.281441 
L 222.598282 131.008485 
L 220.201718 128.593818 
L 217.805154 134.758051 
L 215.40859 134.879245 
L 213.012026 133.381698 
L 210.615462 131.709548 
L 208.218898 134.651605 
L 205.822334 131.628785 
L 203.42577 134.66957 
L 201.029205 131.755546 
L 198.632641 130.317277 
L 196.236077 132.437947 
L 193.839513 129.301668 
L 191.442949 133.682843 
L 189.046385 131.839724 
L 186.649821 130.486758 
L 184.253257 132.349494 
L 181.856693 132.492005 
L 179.460129 137.102612 
L 177.063565 136.555272 
L 174.667001 137.108343 
L 172.270437 132.735866 
L 169.873873 130.938289 
L 167.477309 133.885316 
L 165.080744 127.031408 
L 162.68418 131.505577 
L 160.287616 133.695957 
L 157.891052 133.229149 
L 155.494488 130.398573 
L 153.097924 130.182624 
L 150.70136 132.041914 
L 148.304796 131.115043 
L 145.908232 130.699195 
L 143.511668 130.51855 
L 141.115104 134.87421 
L 138.71854 129.937079 
L 136.321976 130.062406 
L 133.925412 129.131341 
L 131.528848 134.441402 
L 129.132283 133.644784 
L 126.735719 133.116132 
L 124.339155 134.527014 
L 121.942591 134.30484 
L 119.546027 132.895172 
L 117.149463 130.496247 
L 114.752899 130.292427 
L 112.356335 139.442304 
L 109.959771 137.717144 
L 107.563207 133.799755 
L 105.166643 135.910577 
L 102.770079 135.628495 
L 100.373515 139.325708 
L 97.976951 133.887465 
L 95.580387 138.068268 
L 93.183822 138.367172 
L 90.787258 143.258939 
L 88.390694 146.988687 
L 85.99413 138.966827 
L 83.597566 136.10942 
L 81.201002 147.156825 
L 78.804438 147.791406 
L 76.407874 151.058452 
L 74.01131 156.983433 
L 71.614746 162.946293 
L 69.218182 181.133771 
z
" clip-path="url(#p782f7a942f)" style="fill: #ff7f0e"/>
   </g>
   <g id="PolyCollection_3">
    <path d="M 69.218182 182.732896 
L 69.218182 184.499464 
L 71.614746 164.022661 
L 74.01131 157.057189 
L 76.407874 153.014918 
L 78.804438 147.136147 
L 81.201002 146.870645 
L 83.597566 135.913632 
L 85.99413 139.173245 
L 88.390694 146.786584 
L 90.787258 147.935037 
L 93.183822 142.899501 
L 95.580387 142.963851 
L 97.976951 139.251309 
L 100.373515 145.130079 
L 102.770079 140.849358 
L 105.166643 141.99739 
L 107.563207 139.071288 
L 109.959771 143.536425 
L 112.356335 145.074829 
L 114.752899 135.457269 
L 117.149463 132.152931 
L 119.546027 132.935448 
L 121.942591 134.645312 
L 124.339155 134.781487 
L 126.735719 133.324705 
L 129.132283 134.063041 
L 131.528848 135.49962 
L 133.925412 129.869635 
L 136.321976 130.776864 
L 138.71854 130.984178 
L 141.115104 135.838351 
L 143.511668 131.257039 
L 145.908232 131.456597 
L 148.304796 131.500071 
L 150.70136 132.978625 
L 153.097924 131.185113 
L 155.494488 130.924135 
L 157.891052 133.816019 
L 160.287616 134.877799 
L 162.68418 132.846428 
L 165.080744 128.670811 
L 167.477309 132.904837 
L 169.873873 137.505102 
L 172.270437 132.855147 
L 174.667001 132.579024 
L 177.063565 132.689951 
L 179.460129 132.513782 
L 181.856693 134.005259 
L 184.253257 133.407348 
L 186.649821 131.63253 
L 189.046385 133.484564 
L 191.442949 135.670563 
L 193.839513 136.281555 
L 196.236077 134.61652 
L 198.632641 132.579785 
L 201.029205 139.745569 
L 203.42577 135.494956 
L 205.822334 132.120029 
L 208.218898 135.639202 
L 210.615462 132.559497 
L 213.012026 133.400292 
L 215.40859 130.466313 
L 217.805154 130.546614 
L 220.201718 131.970446 
L 222.598282 132.067393 
L 224.994846 131.899454 
L 227.39141 132.933827 
L 229.787974 131.272422 
L 232.184538 131.574966 
L 234.581102 129.845238 
L 236.977666 131.850861 
L 239.37423 129.681745 
L 241.770795 132.123901 
L 244.167359 132.117914 
L 246.563923 131.256638 
L 248.960487 131.953769 
L 251.357051 131.148839 
L 253.753615 132.585561 
L 256.150179 131.182662 
L 258.546743 132.205917 
L 260.943307 129.994315 
L 263.339871 132.9985 
L 265.736435 130.549169 
L 268.132999 131.879428 
L 270.529563 134.660483 
L 272.926127 131.155514 
L 275.322691 130.350135 
L 277.719256 129.773045 
L 280.11582 133.502706 
L 282.512384 129.776182 
L 284.908948 131.516152 
L 287.305512 130.5109 
L 289.702076 129.361883 
L 292.09864 130.153321 
L 294.495204 131.283321 
L 296.891768 130.5988 
L 299.288332 130.988971 
L 301.684896 132.198423 
L 304.08146 129.021457 
L 306.478024 130.826673 
L 308.874588 127.075664 
L 311.271152 130.282769 
L 313.667717 129.67112 
L 316.064281 130.473428 
L 318.460845 132.772746 
L 320.857409 136.376612 
L 323.253973 136.136664 
L 325.650537 130.265487 
L 328.047101 133.56824 
L 330.443665 128.786111 
L 332.840229 131.114462 
L 335.236793 129.661493 
L 337.633357 127.795394 
L 340.029921 128.651767 
L 342.426485 131.225288 
L 344.823049 130.214296 
L 347.219613 129.610899 
L 349.616178 129.661091 
L 352.012742 132.481035 
L 354.409306 129.329173 
L 356.80587 131.879781 
L 359.202434 135.451216 
L 361.598998 135.675105 
L 363.995562 137.500892 
L 366.392126 138.031119 
L 368.78869 130.43631 
L 371.185254 130.602622 
L 373.581818 130.602016 
L 373.581818 130.270447 
L 373.581818 130.270447 
L 371.185254 130.292377 
L 368.78869 130.116324 
L 366.392126 132.061344 
L 363.995562 137.371044 
L 361.598998 135.668852 
L 359.202434 135.426393 
L 356.80587 131.791356 
L 354.409306 129.249224 
L 352.012742 132.298343 
L 349.616178 129.430979 
L 347.219613 129.458398 
L 344.823049 129.975273 
L 342.426485 130.957021 
L 340.029921 128.511463 
L 337.633357 127.720025 
L 335.236793 129.014865 
L 332.840229 130.934603 
L 330.443665 128.511767 
L 328.047101 133.171893 
L 325.650537 129.648876 
L 323.253973 135.815896 
L 320.857409 136.052946 
L 318.460845 132.707035 
L 316.064281 130.086515 
L 313.667717 129.597619 
L 311.271152 129.80339 
L 308.874588 127.030351 
L 306.478024 130.643027 
L 304.08146 128.988987 
L 301.684896 132.107561 
L 299.288332 130.902206 
L 296.891768 130.164058 
L 294.495204 131.087817 
L 292.09864 129.995265 
L 289.702076 128.984333 
L 287.305512 130.392634 
L 284.908948 131.281847 
L 282.512384 129.678851 
L 280.11582 133.316654 
L 277.719256 129.156988 
L 275.322691 130.294821 
L 272.926127 130.728148 
L 270.529563 134.190803 
L 268.132999 131.626488 
L 265.736435 130.472003 
L 263.339871 132.722999 
L 260.943307 129.669204 
L 258.546743 132.133994 
L 256.150179 130.598118 
L 253.753615 131.027285 
L 251.357051 130.975796 
L 248.960487 131.686503 
L 246.563923 131.042835 
L 244.167359 131.935762 
L 241.770795 131.911357 
L 239.37423 129.455154 
L 236.977666 131.501693 
L 234.581102 129.681305 
L 232.184538 131.487983 
L 229.787974 130.688094 
L 227.39141 132.359041 
L 224.994846 131.824588 
L 222.598282 131.406818 
L 220.201718 131.517388 
L 217.805154 130.256354 
L 215.40859 130.225504 
L 213.012026 132.989262 
L 210.615462 131.825965 
L 208.218898 134.784014 
L 205.822334 132.037726 
L 203.42577 134.98437 
L 201.029205 131.726364 
L 198.632641 130.557906 
L 196.236077 132.68226 
L 193.839513 130.469691 
L 191.442949 135.240255 
L 189.046385 133.217723 
L 186.649821 131.097473 
L 184.253257 132.994593 
L 181.856693 133.647982 
L 179.460129 132.191975 
L 177.063565 132.059179 
L 174.667001 132.48312 
L 172.270437 132.550103 
L 169.873873 134.913789 
L 167.477309 132.264044 
L 165.080744 127.47656 
L 162.68418 132.306753 
L 160.287616 134.460565 
L 157.891052 133.2156 
L 155.494488 130.182903 
L 153.097924 131.11258 
L 150.70136 132.435098 
L 148.304796 130.916076 
L 145.908232 131.347673 
L 143.511668 130.722694 
L 141.115104 135.382658 
L 138.71854 130.749678 
L 136.321976 130.576037 
L 133.925412 129.805779 
L 131.528848 134.986617 
L 129.132283 133.568426 
L 126.735719 133.076824 
L 124.339155 134.604685 
L 121.942591 134.132975 
L 119.546027 132.574128 
L 117.149463 130.806428 
L 114.752899 135.432589 
L 112.356335 144.629962 
L 109.959771 142.997584 
L 107.563207 138.779417 
L 105.166643 141.488233 
L 102.770079 140.780879 
L 100.373515 144.285846 
L 97.976951 138.908421 
L 95.580387 142.784599 
L 93.183822 142.816687 
L 90.787258 147.235474 
L 88.390694 146.107285 
L 85.99413 138.401487 
L 83.597566 135.60106 
L 81.201002 146.670222 
L 78.804438 146.519184 
L 76.407874 151.67643 
L 74.01131 156.797948 
L 71.614746 162.889372 
L 69.218182 182.732896 
z
" clip-path="url(#p782f7a942f)" style="fill: #2ca02c"/>
   </g>
   <g id="PolyCollection_4">
    <path d="M 69.218182 126.205272 
L 69.218182 130.557737 
L 71.614746 110.635243 
L 74.01131 103.117832 
L 76.407874 97.440601 
L 78.804438 94.784998 
L 81.201002 94.17476 
L 83.597566 88.394834 
L 85.99413 83.357612 
L 88.390694 84.29499 
L 90.787258 45021.915817 
L 93.183822 77.342703 
L 95.580387 80.385095 
L 97.976951 78.061556 
L 100.373515 80.238094 
L 102.770079 78.391639 
L 105.166643 77.909391 
L 107.563207 80.183095 
L 109.959771 77.759891 
L 112.356335 81.659345 
L 114.752899 83.860327 
L 117.149463 74.894287 
L 119.546027 84.675303 
L 121.942591 85.424501 
L 124.339155 76.383756 
L 126.735719 75.922506 
L 129.132283 78.751327 
L 131.528848 74.658539 
L 133.925412 73.649369 
L 136.321976 78.400767 
L 138.71854 73.661279 
L 141.115104 74.675185 
L 143.511668 76.118264 
L 145.908232 73.314437 
L 148.304796 79.397013 
L 150.70136 74.649896 
L 153.097924 78.290882 
L 155.494488 75.824266 
L 157.891052 73.730064 
L 160.287616 75.215969 
L 162.68418 76.322936 
L 165.080744 72.646172 
L 167.477309 74.639858 
L 169.873873 74.476889 
L 172.270437 74.290925 
L 174.667001 75.464843 
L 177.063565 73.767144 
L 179.460129 75.475003 
L 181.856693 77.478702 
L 184.253257 73.554915 
L 186.649821 80.753056 
L 189.046385 74.049314 
L 191.442949 73.217322 
L 193.839513 71.674804 
L 196.236077 74.491366 
L 198.632641 72.360854 
L 201.029205 71.624235 
L 203.42577 72.333632 
L 205.822334 76.085581 
L 208.218898 73.288547 
L 210.615462 72.16696 
L 213.012026 73.04601 
L 215.40859 71.999054 
L 217.805154 72.487034 
L 220.201718 73.401349 
L 222.598282 72.81029 
L 224.994846 73.544004 
L 227.39141 71.792735 
L 229.787974 73.305106 
L 232.184538 73.052078 
L 234.581102 70.969042 
L 236.977666 73.26458 
L 239.37423 77.19464 
L 241.770795 73.40084 
L 244.167359 73.028713 
L 246.563923 72.999915 
L 248.960487 76.263462 
L 251.357051 73.043626 
L 253.753615 72.569546 
L 256.150179 71.839705 
L 258.546743 74.153385 
L 260.943307 73.491621 
L 263.339871 74.170596 
L 265.736435 74.429459 
L 268.132999 73.014884 
L 270.529563 73.290865 
L 272.926127 72.641827 
L 275.322691 73.818452 
L 277.719256 73.192099 
L 280.11582 73.223669 
L 282.512384 73.442055 
L 284.908948 73.296346 
L 287.305512 72.718558 
L 289.702076 71.895887 
L 292.09864 72.452365 
L 294.495204 71.940309 
L 296.891768 72.892897 
L 299.288332 72.916903 
L 301.684896 73.501963 
L 304.08146 72.637478 
L 306.478024 45021.915817 
L 308.874588 72.182083 
L 311.271152 71.481743 
L 313.667717 72.065154 
L 316.064281 75.450916 
L 318.460845 72.854855 
L 320.857409 72.300904 
L 323.253973 73.204125 
L 325.650537 71.884823 
L 328.047101 71.842636 
L 330.443665 71.879557 
L 332.840229 70.548726 
L 335.236793 72.40479 
L 337.633357 71.790736 
L 340.029921 71.075383 
L 342.426485 72.076058 
L 344.823049 71.761709 
L 347.219613 71.56352 
L 349.616178 72.383377 
L 352.012742 72.993885 
L 354.409306 71.841516 
L 356.80587 72.388128 
L 359.202434 70.446163 
L 361.598998 73.034955 
L 363.995562 72.158397 
L 366.392126 71.567072 
L 368.78869 71.09793 
L 371.185254 71.438804 
L 373.581818 72.346494 
L 373.581818 70.453322 
L 373.581818 70.453322 
L 371.185254 70.854703 
L 368.78869 70.035145 
L 366.392126 70.388414 
L 363.995562 71.9122 
L 361.598998 71.122943 
L 359.202434 70.085102 
L 356.80587 71.591447 
L 354.409306 70.385726 
L 352.012742 71.907576 
L 349.616178 70.99717 
L 347.219613 71.144724 
L 344.823049 70.88966 
L 342.426485 70.901871 
L 340.029921 70.810471 
L 337.633357 69.523384 
L 335.236793 71.304666 
L 332.840229 70.307549 
L 330.443665 70.814206 
L 328.047101 71.247442 
L 325.650537 70.269341 
L 323.253973 71.273266 
L 320.857409 71.267296 
L 318.460845 72.080155 
L 316.064281 70.299346 
L 313.667717 71.446615 
L 311.271152 70.988209 
L 308.874588 71.688536 
L 306.478024 44.443636 
L 304.08146 71.271448 
L 301.684896 72.297527 
L 299.288332 71.740217 
L 296.891768 70.295493 
L 294.495204 71.171348 
L 292.09864 71.431098 
L 289.702076 71.875073 
L 287.305512 70.695235 
L 284.908948 71.978723 
L 282.512384 70.318267 
L 280.11582 71.952052 
L 277.719256 71.786552 
L 275.322691 71.782715 
L 272.926127 71.845066 
L 270.529563 72.812297 
L 268.132999 71.21464 
L 265.736435 72.749601 
L 263.339871 71.39098 
L 260.943307 71.234649 
L 258.546743 73.339038 
L 256.150179 71.442156 
L 253.753615 71.554266 
L 251.357051 72.287741 
L 248.960487 70.760142 
L 246.563923 71.303986 
L 244.167359 71.938293 
L 241.770795 72.665463 
L 239.37423 71.062543 
L 236.977666 70.614821 
L 234.581102 69.572973 
L 232.184538 71.097915 
L 229.787974 72.058437 
L 227.39141 70.597396 
L 224.994846 71.269036 
L 222.598282 70.214282 
L 220.201718 71.960581 
L 217.805154 71.208875 
L 215.40859 70.741755 
L 213.012026 72.989323 
L 210.615462 71.037825 
L 208.218898 72.73308 
L 205.822334 70.524798 
L 203.42577 71.707377 
L 201.029205 71.113084 
L 198.632641 71.061845 
L 196.236077 71.996641 
L 193.839513 69.174837 
L 191.442949 71.243636 
L 189.046385 72.626924 
L 186.649821 74.35064 
L 184.253257 72.793954 
L 181.856693 69.86203 
L 179.460129 68.881191 
L 177.063565 72.886698 
L 174.667001 74.146132 
L 172.270437 73.083113 
L 169.873873 72.051775 
L 167.477309 73.54271 
L 165.080744 69.998387 
L 162.68418 71.965674 
L 160.287616 73.051722 
L 157.891052 72.167377 
L 155.494488 71.440667 
L 153.097924 70.494997 
L 150.70136 73.992794 
L 148.304796 70.82908 
L 145.908232 71.996957 
L 143.511668 71.983594 
L 141.115104 73.495841 
L 138.71854 71.098759 
L 136.321976 74.125814 
L 133.925412 72.705861 
L 131.528848 73.36022 
L 129.132283 74.952109 
L 126.735719 74.688058 
L 124.339155 72.491721 
L 121.942591 71.503588 
L 119.546027 75.997885 
L 117.149463 73.96725 
L 114.752899 74.597423 
L 112.356335 77.046464 
L 109.959771 75.72779 
L 107.563207 76.109356 
L 105.166643 73.428091 
L 102.770079 76.862224 
L 100.373515 78.168206 
L 97.976951 76.398178 
L 95.580387 77.965084 
L 93.183822 76.702993 
L 90.787258 53.777632 
L 88.390694 83.377424 
L 85.99413 82.338305 
L 83.597566 84.709836 
L 81.201002 89.56052 
L 78.804438 89.908878 
L 76.407874 94.882018 
L 74.01131 101.605625 
L 71.614746 108.641443 
L 69.218182 126.205272 
z
" clip-path="url(#p782f7a942f)" style="fill: #d62728"/>
   </g>
   <g id="matplotlib.axis_1">
    <g id="xtick_1">
     <g id="line2d_1">
      <defs>
       <path id="me850c53d30" d="M 0 0 
L 0 3.5 
" style="stroke: #000000; stroke-width: 0.8"/>
      </defs>
      <g>
       <use xlink:href="#me850c53d30" x="69.218182" y="252" style="stroke: #000000; stroke-width: 0.8"/>
      </g>
     </g>
     <g id="text_1">
      <!-- 1 -->
      <g transform="translate(66.036932 266.598437)scale(0.1 -0.1)">
       <defs>
        <path id="DejaVuSans-31" d="M 794 531 
L 1825 531 
L 1825 4091 
L 703 3866 
L 703 4441 
L 1819 4666 
L 2450 4666 
L 2450 531 
L 3481 531 
L 3481 0 
L 794 0 
L 794 531 
z
" transform="scale(0.015625)"/>
       </defs>
       <use xlink:href="#DejaVuSans-31"/>
      </g>
     </g>
    </g>
    <g id="xtick_2">
     <g id="line2d_2">
      <g>
       <use xlink:href="#me850c53d30" x="90.787258" y="252" style="stroke: #000000; stroke-width: 0.8"/>
      </g>
     </g>
     <g id="text_2">
      <!-- 19 -->
      <g transform="translate(84.424758 266.598437)scale(0.1 -0.1)">
       <defs>
        <path id="DejaVuSans-39" d="M 703 97 
L 703 672 
Q 941 559 1184 500 
Q 1428 441 1663 441 
Q 2288 441 2617 861 
Q 2947 1281 2994 2138 
Q 2813 1869 2534 1725 
Q 2256 1581 1919 1581 
Q 1219 1581 811 2004 
Q 403 2428 403 3163 
Q 403 3881 828 4315 
Q 1253 4750 1959 4750 
Q 2769 4750 3195 4129 
Q 3622 3509 3622 2328 
Q 3622 1225 3098 567 
Q 2575 -91 1691 -91 
Q 1453 -91 1209 -44 
Q 966 3 703 97 
z
M 1959 2075 
Q 2384 2075 2632 2365 
Q 2881 2656 2881 3163 
Q 2881 3666 2632 3958 
Q 2384 4250 1959 4250 
Q 1534 4250 1286 3958 
Q 1038 3666 1038 3163 
Q 1038 2656 1286 2365 
Q 1534 2075 1959 2075 
z
" transform="scale(0.015625)"/>
       </defs>
       <use xlink:href="#DejaVuSans-31"/>
       <use xlink:href="#DejaVuSans-39" x="63.623047"/>
      </g>
     </g>
    </g>
    <g id="xtick_3">
     <g id="line2d_3">
      <g>
       <use xlink:href="#me850c53d30" x="112.356335" y="252" style="stroke: #000000; stroke-width: 0.8"/>
      </g>
     </g>
     <g id="text_3">
      <!-- 37 -->
      <g transform="translate(105.993835 266.598437)scale(0.1 -0.1)">
       <defs>
        <path id="DejaVuSans-33" d="M 2597 2516 
Q 3050 2419 3304 2112 
Q 3559 1806 3559 1356 
Q 3559 666 3084 287 
Q 2609 -91 1734 -91 
Q 1441 -91 1130 -33 
Q 819 25 488 141 
L 488 750 
Q 750 597 1062 519 
Q 1375 441 1716 441 
Q 2309 441 2620 675 
Q 2931 909 2931 1356 
Q 2931 1769 2642 2001 
Q 2353 2234 1838 2234 
L 1294 2234 
L 1294 2753 
L 1863 2753 
Q 2328 2753 2575 2939 
Q 2822 3125 2822 3475 
Q 2822 3834 2567 4026 
Q 2313 4219 1838 4219 
Q 1578 4219 1281 4162 
Q 984 4106 628 3988 
L 628 4550 
Q 988 4650 1302 4700 
Q 1616 4750 1894 4750 
Q 2613 4750 3031 4423 
Q 3450 4097 3450 3541 
Q 3450 3153 3228 2886 
Q 3006 2619 2597 2516 
z
" transform="scale(0.015625)"/>
        <path id="DejaVuSans-37" d="M 525 4666 
L 3525 4666 
L 3525 4397 
L 1831 0 
L 1172 0 
L 2766 4134 
L 525 4134 
L 525 4666 
z
" transform="scale(0.015625)"/>
       </defs>
       <use xlink:href="#DejaVuSans-33"/>
       <use xlink:href="#DejaVuSans-37" x="63.623047"/>
      </g>
     </g>
    </g>
    <g id="xtick_4">
     <g id="line2d_4">
      <g>
       <use xlink:href="#me850c53d30" x="133.925412" y="252" style="stroke: #000000; stroke-width: 0.8"/>
      </g>
     </g>
     <g id="text_4">
      <!-- 55 -->
      <g transform="translate(127.562912 266.598437)scale(0.1 -0.1)">
       <defs>
        <path id="DejaVuSans-35" d="M 691 4666 
L 3169 4666 
L 3169 4134 
L 1269 4134 
L 1269 2991 
Q 1406 3038 1543 3061 
Q 1681 3084 1819 3084 
Q 2600 3084 3056 2656 
Q 3513 2228 3513 1497 
Q 3513 744 3044 326 
Q 2575 -91 1722 -91 
Q 1428 -91 1123 -41 
Q 819 9 494 109 
L 494 744 
Q 775 591 1075 516 
Q 1375 441 1709 441 
Q 2250 441 2565 725 
Q 2881 1009 2881 1497 
Q 2881 1984 2565 2268 
Q 2250 2553 1709 2553 
Q 1456 2553 1204 2497 
Q 953 2441 691 2322 
L 691 4666 
z
" transform="scale(0.015625)"/>
       </defs>
       <use xlink:href="#DejaVuSans-35"/>
       <use xlink:href="#DejaVuSans-35" x="63.623047"/>
      </g>
     </g>
    </g>
    <g id="xtick_5">
     <g id="line2d_5">
      <g>
       <use xlink:href="#me850c53d30" x="155.494488" y="252" style="stroke: #000000; stroke-width: 0.8"/>
      </g>
     </g>
     <g id="text_5">
      <!-- 73 -->
      <g transform="translate(149.131988 266.598437)scale(0.1 -0.1)">
       <use xlink:href="#DejaVuSans-37"/>
       <use xlink:href="#DejaVuSans-33" x="63.623047"/>
      </g>
     </g>
    </g>
    <g id="xtick_6">
     <g id="line2d_6">
      <g>
       <use xlink:href="#me850c53d30" x="177.063565" y="252" style="stroke: #000000; stroke-width: 0.8"/>
      </g>
     </g>
     <g id="text_6">
      <!-- 91 -->
      <g transform="translate(170.701065 266.598437)scale(0.1 -0.1)">
       <use xlink:href="#DejaVuSans-39"/>
       <use xlink:href="#DejaVuSans-31" x="63.623047"/>
      </g>
     </g>
    </g>
    <g id="xtick_7">
     <g id="line2d_7">
      <g>
       <use xlink:href="#me850c53d30" x="198.632641" y="252" style="stroke: #000000; stroke-width: 0.8"/>
      </g>
     </g>
     <g id="text_7">
      <!-- 109 -->
      <g transform="translate(189.088891 266.598437)scale(0.1 -0.1)">
       <defs>
        <path id="DejaVuSans-30" d="M 2034 4250 
Q 1547 4250 1301 3770 
Q 1056 3291 1056 2328 
Q 1056 1369 1301 889 
Q 1547 409 2034 409 
Q 2525 409 2770 889 
Q 3016 1369 3016 2328 
Q 3016 3291 2770 3770 
Q 2525 4250 2034 4250 
z
M 2034 4750 
Q 2819 4750 3233 4129 
Q 3647 3509 3647 2328 
Q 3647 1150 3233 529 
Q 2819 -91 2034 -91 
Q 1250 -91 836 529 
Q 422 1150 422 2328 
Q 422 3509 836 4129 
Q 1250 4750 2034 4750 
z
" transform="scale(0.015625)"/>
       </defs>
       <use xlink:href="#DejaVuSans-31"/>
       <use xlink:href="#DejaVuSans-30" x="63.623047"/>
       <use xlink:href="#DejaVuSans-39" x="127.246094"/>
      </g>
     </g>
    </g>
    <g id="xtick_8">
     <g id="line2d_8">
      <g>
       <use xlink:href="#me850c53d30" x="220.201718" y="252" style="stroke: #000000; stroke-width: 0.8"/>
      </g>
     </g>
     <g id="text_8">
      <!-- 127 -->
      <g transform="translate(210.657968 266.598437)scale(0.1 -0.1)">
       <defs>
        <path id="DejaVuSans-32" d="M 1228 531 
L 3431 531 
L 3431 0 
L 469 0 
L 469 531 
Q 828 903 1448 1529 
Q 2069 2156 2228 2338 
Q 2531 2678 2651 2914 
Q 2772 3150 2772 3378 
Q 2772 3750 2511 3984 
Q 2250 4219 1831 4219 
Q 1534 4219 1204 4116 
Q 875 4013 500 3803 
L 500 4441 
Q 881 4594 1212 4672 
Q 1544 4750 1819 4750 
Q 2544 4750 2975 4387 
Q 3406 4025 3406 3419 
Q 3406 3131 3298 2873 
Q 3191 2616 2906 2266 
Q 2828 2175 2409 1742 
Q 1991 1309 1228 531 
z
" transform="scale(0.015625)"/>
       </defs>
       <use xlink:href="#DejaVuSans-31"/>
       <use xlink:href="#DejaVuSans-32" x="63.623047"/>
       <use xlink:href="#DejaVuSans-37" x="127.246094"/>
      </g>
     </g>
    </g>
    <g id="xtick_9">
     <g id="line2d_9">
      <g>
       <use xlink:href="#me850c53d30" x="241.770795" y="252" style="stroke: #000000; stroke-width: 0.8"/>
      </g>
     </g>
     <g id="text_9">
      <!-- 145 -->
      <g transform="translate(232.227045 266.598437)scale(0.1 -0.1)">
       <defs>
        <path id="DejaVuSans-34" d="M 2419 4116 
L 825 1625 
L 2419 1625 
L 2419 4116 
z
M 2253 4666 
L 3047 4666 
L 3047 1625 
L 3713 1625 
L 3713 1100 
L 3047 1100 
L 3047 0 
L 2419 0 
L 2419 1100 
L 313 1100 
L 313 1709 
L 2253 4666 
z
" transform="scale(0.015625)"/>
       </defs>
       <use xlink:href="#DejaVuSans-31"/>
       <use xlink:href="#DejaVuSans-34" x="63.623047"/>
       <use xlink:href="#DejaVuSans-35" x="127.246094"/>
      </g>
     </g>
    </g>
    <g id="xtick_10">
     <g id="line2d_10">
      <g>
       <use xlink:href="#me850c53d30" x="263.339871" y="252" style="stroke: #000000; stroke-width: 0.8"/>
      </g>
     </g>
     <g id="text_10">
      <!-- 163 -->
      <g transform="translate(253.796121 266.598437)scale(0.1 -0.1)">
       <defs>
        <path id="DejaVuSans-36" d="M 2113 2584 
Q 1688 2584 1439 2293 
Q 1191 2003 1191 1497 
Q 1191 994 1439 701 
Q 1688 409 2113 409 
Q 2538 409 2786 701 
Q 3034 994 3034 1497 
Q 3034 2003 2786 2293 
Q 2538 2584 2113 2584 
z
M 3366 4563 
L 3366 3988 
Q 3128 4100 2886 4159 
Q 2644 4219 2406 4219 
Q 1781 4219 1451 3797 
Q 1122 3375 1075 2522 
Q 1259 2794 1537 2939 
Q 1816 3084 2150 3084 
Q 2853 3084 3261 2657 
Q 3669 2231 3669 1497 
Q 3669 778 3244 343 
Q 2819 -91 2113 -91 
Q 1303 -91 875 529 
Q 447 1150 447 2328 
Q 447 3434 972 4092 
Q 1497 4750 2381 4750 
Q 2619 4750 2861 4703 
Q 3103 4656 3366 4563 
z
" transform="scale(0.015625)"/>
       </defs>
       <use xlink:href="#DejaVuSans-31"/>
       <use xlink:href="#DejaVuSans-36" x="63.623047"/>
       <use xlink:href="#DejaVuSans-33" x="127.246094"/>
      </g>
     </g>
    </g>
    <g id="xtick_11">
     <g id="line2d_11">
      <g>
       <use xlink:href="#me850c53d30" x="284.908948" y="252" style="stroke: #000000; stroke-width: 0.8"/>
      </g>
     </g>
     <g id="text_11">
      <!-- 181 -->
      <g transform="translate(275.365198 266.598437)scale(0.1 -0.1)">
       <defs>
        <path id="DejaVuSans-38" d="M 2034 2216 
Q 1584 2216 1326 1975 
Q 1069 1734 1069 1313 
Q 1069 891 1326 650 
Q 1584 409 2034 409 
Q 2484 409 2743 651 
Q 3003 894 3003 1313 
Q 3003 1734 2745 1975 
Q 2488 2216 2034 2216 
z
M 1403 2484 
Q 997 2584 770 2862 
Q 544 3141 544 3541 
Q 544 4100 942 4425 
Q 1341 4750 2034 4750 
Q 2731 4750 3128 4425 
Q 3525 4100 3525 3541 
Q 3525 3141 3298 2862 
Q 3072 2584 2669 2484 
Q 3125 2378 3379 2068 
Q 3634 1759 3634 1313 
Q 3634 634 3220 271 
Q 2806 -91 2034 -91 
Q 1263 -91 848 271 
Q 434 634 434 1313 
Q 434 1759 690 2068 
Q 947 2378 1403 2484 
z
M 1172 3481 
Q 1172 3119 1398 2916 
Q 1625 2713 2034 2713 
Q 2441 2713 2670 2916 
Q 2900 3119 2900 3481 
Q 2900 3844 2670 4047 
Q 2441 4250 2034 4250 
Q 1625 4250 1398 4047 
Q 1172 3844 1172 3481 
z
" transform="scale(0.015625)"/>
       </defs>
       <use xlink:href="#DejaVuSans-31"/>
       <use xlink:href="#DejaVuSans-38" x="63.623047"/>
       <use xlink:href="#DejaVuSans-31" x="127.246094"/>
      </g>
     </g>
    </g>
    <g id="xtick_12">
     <g id="line2d_12">
      <g>
       <use xlink:href="#me850c53d30" x="306.478024" y="252" style="stroke: #000000; stroke-width: 0.8"/>
      </g>
     </g>
     <g id="text_12">
      <!-- 199 -->
      <g transform="translate(296.934274 266.598437)scale(0.1 -0.1)">
       <use xlink:href="#DejaVuSans-31"/>
       <use xlink:href="#DejaVuSans-39" x="63.623047"/>
       <use xlink:href="#DejaVuSans-39" x="127.246094"/>
      </g>
     </g>
    </g>
    <g id="xtick_13">
     <g id="line2d_13">
      <g>
       <use xlink:href="#me850c53d30" x="328.047101" y="252" style="stroke: #000000; stroke-width: 0.8"/>
      </g>
     </g>
     <g id="text_13">
      <!-- 217 -->
      <g transform="translate(318.503351 266.598437)scale(0.1 -0.1)">
       <use xlink:href="#DejaVuSans-32"/>
       <use xlink:href="#DejaVuSans-31" x="63.623047"/>
       <use xlink:href="#DejaVuSans-37" x="127.246094"/>
      </g>
     </g>
    </g>
    <g id="xtick_14">
     <g id="line2d_14">
      <g>
       <use xlink:href="#me850c53d30" x="349.616178" y="252" style="stroke: #000000; stroke-width: 0.8"/>
      </g>
     </g>
     <g id="text_14">
      <!-- 235 -->
      <g transform="translate(340.072428 266.598437)scale(0.1 -0.1)">
       <use xlink:href="#DejaVuSans-32"/>
       <use xlink:href="#DejaVuSans-33" x="63.623047"/>
       <use xlink:href="#DejaVuSans-35" x="127.246094"/>
      </g>
     </g>
    </g>
    <g id="xtick_15">
     <g id="line2d_15">
      <g>
       <use xlink:href="#me850c53d30" x="371.185254" y="252" style="stroke: #000000; stroke-width: 0.8"/>
      </g>
     </g>
     <g id="text_15">
      <!-- 253 -->
      <g transform="translate(361.641504 266.598437)scale(0.1 -0.1)">
       <use xlink:href="#DejaVuSans-32"/>
       <use xlink:href="#DejaVuSans-35" x="63.623047"/>
       <use xlink:href="#DejaVuSans-33" x="127.246094"/>
      </g>
     </g>
    </g>
    <g id="text_16">
     <!-- Program size -->
     <g transform="translate(189.022656 280.276563)scale(0.1 -0.1)">
      <defs>
       <path id="DejaVuSans-50" d="M 1259 4147 
L 1259 2394 
L 2053 2394 
Q 2494 2394 2734 2622 
Q 2975 2850 2975 3272 
Q 2975 3691 2734 3919 
Q 2494 4147 2053 4147 
L 1259 4147 
z
M 628 4666 
L 2053 4666 
Q 2838 4666 3239 4311 
Q 3641 3956 3641 3272 
Q 3641 2581 3239 2228 
Q 2838 1875 2053 1875 
L 1259 1875 
L 1259 0 
L 628 0 
L 628 4666 
z
" transform="scale(0.015625)"/>
       <path id="DejaVuSans-72" d="M 2631 2963 
Q 2534 3019 2420 3045 
Q 2306 3072 2169 3072 
Q 1681 3072 1420 2755 
Q 1159 2438 1159 1844 
L 1159 0 
L 581 0 
L 581 3500 
L 1159 3500 
L 1159 2956 
Q 1341 3275 1631 3429 
Q 1922 3584 2338 3584 
Q 2397 3584 2469 3576 
Q 2541 3569 2628 3553 
L 2631 2963 
z
" transform="scale(0.015625)"/>
       <path id="DejaVuSans-6f" d="M 1959 3097 
Q 1497 3097 1228 2736 
Q 959 2375 959 1747 
Q 959 1119 1226 758 
Q 1494 397 1959 397 
Q 2419 397 2687 759 
Q 2956 1122 2956 1747 
Q 2956 2369 2687 2733 
Q 2419 3097 1959 3097 
z
M 1959 3584 
Q 2709 3584 3137 3096 
Q 3566 2609 3566 1747 
Q 3566 888 3137 398 
Q 2709 -91 1959 -91 
Q 1206 -91 779 398 
Q 353 888 353 1747 
Q 353 2609 779 3096 
Q 1206 3584 1959 3584 
z
" transform="scale(0.015625)"/>
       <path id="DejaVuSans-67" d="M 2906 1791 
Q 2906 2416 2648 2759 
Q 2391 3103 1925 3103 
Q 1463 3103 1205 2759 
Q 947 2416 947 1791 
Q 947 1169 1205 825 
Q 1463 481 1925 481 
Q 2391 481 2648 825 
Q 2906 1169 2906 1791 
z
M 3481 434 
Q 3481 -459 3084 -895 
Q 2688 -1331 1869 -1331 
Q 1566 -1331 1297 -1286 
Q 1028 -1241 775 -1147 
L 775 -588 
Q 1028 -725 1275 -790 
Q 1522 -856 1778 -856 
Q 2344 -856 2625 -561 
Q 2906 -266 2906 331 
L 2906 616 
Q 2728 306 2450 153 
Q 2172 0 1784 0 
Q 1141 0 747 490 
Q 353 981 353 1791 
Q 353 2603 747 3093 
Q 1141 3584 1784 3584 
Q 2172 3584 2450 3431 
Q 2728 3278 2906 2969 
L 2906 3500 
L 3481 3500 
L 3481 434 
z
" transform="scale(0.015625)"/>
       <path id="DejaVuSans-61" d="M 2194 1759 
Q 1497 1759 1228 1600 
Q 959 1441 959 1056 
Q 959 750 1161 570 
Q 1363 391 1709 391 
Q 2188 391 2477 730 
Q 2766 1069 2766 1631 
L 2766 1759 
L 2194 1759 
z
M 3341 1997 
L 3341 0 
L 2766 0 
L 2766 531 
Q 2569 213 2275 61 
Q 1981 -91 1556 -91 
Q 1019 -91 701 211 
Q 384 513 384 1019 
Q 384 1609 779 1909 
Q 1175 2209 1959 2209 
L 2766 2209 
L 2766 2266 
Q 2766 2663 2505 2880 
Q 2244 3097 1772 3097 
Q 1472 3097 1187 3025 
Q 903 2953 641 2809 
L 641 3341 
Q 956 3463 1253 3523 
Q 1550 3584 1831 3584 
Q 2591 3584 2966 3190 
Q 3341 2797 3341 1997 
z
" transform="scale(0.015625)"/>
       <path id="DejaVuSans-6d" d="M 3328 2828 
Q 3544 3216 3844 3400 
Q 4144 3584 4550 3584 
Q 5097 3584 5394 3201 
Q 5691 2819 5691 2113 
L 5691 0 
L 5113 0 
L 5113 2094 
Q 5113 2597 4934 2840 
Q 4756 3084 4391 3084 
Q 3944 3084 3684 2787 
Q 3425 2491 3425 1978 
L 3425 0 
L 2847 0 
L 2847 2094 
Q 2847 2600 2669 2842 
Q 2491 3084 2119 3084 
Q 1678 3084 1418 2786 
Q 1159 2488 1159 1978 
L 1159 0 
L 581 0 
L 581 3500 
L 1159 3500 
L 1159 2956 
Q 1356 3278 1631 3431 
Q 1906 3584 2284 3584 
Q 2666 3584 2933 3390 
Q 3200 3197 3328 2828 
z
" transform="scale(0.015625)"/>
       <path id="DejaVuSans-20" transform="scale(0.015625)"/>
       <path id="DejaVuSans-73" d="M 2834 3397 
L 2834 2853 
Q 2591 2978 2328 3040 
Q 2066 3103 1784 3103 
Q 1356 3103 1142 2972 
Q 928 2841 928 2578 
Q 928 2378 1081 2264 
Q 1234 2150 1697 2047 
L 1894 2003 
Q 2506 1872 2764 1633 
Q 3022 1394 3022 966 
Q 3022 478 2636 193 
Q 2250 -91 1575 -91 
Q 1294 -91 989 -36 
Q 684 19 347 128 
L 347 722 
Q 666 556 975 473 
Q 1284 391 1588 391 
Q 1994 391 2212 530 
Q 2431 669 2431 922 
Q 2431 1156 2273 1281 
Q 2116 1406 1581 1522 
L 1381 1569 
Q 847 1681 609 1914 
Q 372 2147 372 2553 
Q 372 3047 722 3315 
Q 1072 3584 1716 3584 
Q 2034 3584 2315 3537 
Q 2597 3491 2834 3397 
z
" transform="scale(0.015625)"/>
       <path id="DejaVuSans-69" d="M 603 3500 
L 1178 3500 
L 1178 0 
L 603 0 
L 603 3500 
z
M 603 4863 
L 1178 4863 
L 1178 4134 
L 603 4134 
L 603 4863 
z
" transform="scale(0.015625)"/>
       <path id="DejaVuSans-7a" d="M 353 3500 
L 3084 3500 
L 3084 2975 
L 922 459 
L 3084 459 
L 3084 0 
L 275 0 
L 275 525 
L 2438 3041 
L 353 3041 
L 353 3500 
z
" transform="scale(0.015625)"/>
       <path id="DejaVuSans-65" d="M 3597 1894 
L 3597 1613 
L 953 1613 
Q 991 1019 1311 708 
Q 1631 397 2203 397 
Q 2534 397 2845 478 
Q 3156 559 3463 722 
L 3463 178 
Q 3153 47 2828 -22 
Q 2503 -91 2169 -91 
Q 1331 -91 842 396 
Q 353 884 353 1716 
Q 353 2575 817 3079 
Q 1281 3584 2069 3584 
Q 2775 3584 3186 3129 
Q 3597 2675 3597 1894 
z
M 3022 2063 
Q 3016 2534 2758 2815 
Q 2500 3097 2075 3097 
Q 1594 3097 1305 2825 
Q 1016 2553 972 2059 
L 3022 2063 
z
" transform="scale(0.015625)"/>
      </defs>
      <use xlink:href="#DejaVuSans-50"/>
      <use xlink:href="#DejaVuSans-72" x="58.552734"/>
      <use xlink:href="#DejaVuSans-6f" x="97.416016"/>
      <use xlink:href="#DejaVuSans-67" x="158.597656"/>
      <use xlink:href="#DejaVuSans-72" x="222.074219"/>
      <use xlink:href="#DejaVuSans-61" x="263.1875"/>
      <use xlink:href="#DejaVuSans-6d" x="324.466797"/>
      <use xlink:href="#DejaVuSans-20" x="421.878906"/>
      <use xlink:href="#DejaVuSans-73" x="453.666016"/>
      <use xlink:href="#DejaVuSans-69" x="505.765625"/>
      <use xlink:href="#DejaVuSans-7a" x="533.548828"/>
      <use xlink:href="#DejaVuSans-65" x="586.039062"/>
     </g>
    </g>
   </g>
   <g id="matplotlib.axis_2">
    <g id="ytick_1">
     <g id="line2d_16">
      <defs>
       <path id="mb295929202" d="M 0 0 
L -3.5 0 
" style="stroke: #000000; stroke-width: 0.8"/>
      </defs>
      <g>
       <use xlink:href="#mb295929202" x="54" y="251.365675" style="stroke: #000000; stroke-width: 0.8"/>
      </g>
     </g>
     <g id="text_17">
      <!-- $\mathdefault{10^{6}}$ -->
      <g transform="translate(29.4 255.164894)scale(0.1 -0.1)">
       <use xlink:href="#DejaVuSans-31" transform="translate(0 0.765625)"/>
       <use xlink:href="#DejaVuSans-30" transform="translate(63.623047 0.765625)"/>
       <use xlink:href="#DejaVuSans-36" transform="translate(128.203125 39.046875)scale(0.7)"/>
      </g>
     </g>
    </g>
    <g id="ytick_2">
     <g id="line2d_17">
      <g>
       <use xlink:href="#mb295929202" x="54" y="206.862146" style="stroke: #000000; stroke-width: 0.8"/>
      </g>
     </g>
     <g id="text_18">
      <!-- $\mathdefault{10^{7}}$ -->
      <g transform="translate(29.4 210.661365)scale(0.1 -0.1)">
       <use xlink:href="#DejaVuSans-31" transform="translate(0 0.684375)"/>
       <use xlink:href="#DejaVuSans-30" transform="translate(63.623047 0.684375)"/>
       <use xlink:href="#DejaVuSans-37" transform="translate(128.203125 38.965625)scale(0.7)"/>
      </g>
     </g>
    </g>
    <g id="ytick_3">
     <g id="line2d_18">
      <g>
       <use xlink:href="#mb295929202" x="54" y="162.358617" style="stroke: #000000; stroke-width: 0.8"/>
      </g>
     </g>
     <g id="text_19">
      <!-- $\mathdefault{10^{8}}$ -->
      <g transform="translate(29.4 166.157836)scale(0.1 -0.1)">
       <use xlink:href="#DejaVuSans-31" transform="translate(0 0.765625)"/>
       <use xlink:href="#DejaVuSans-30" transform="translate(63.623047 0.765625)"/>
       <use xlink:href="#DejaVuSans-38" transform="translate(128.203125 39.046875)scale(0.7)"/>
      </g>
     </g>
    </g>
    <g id="ytick_4">
     <g id="line2d_19">
      <g>
       <use xlink:href="#mb295929202" x="54" y="117.855088" style="stroke: #000000; stroke-width: 0.8"/>
      </g>
     </g>
     <g id="text_20">
      <!-- $\mathdefault{10^{9}}$ -->
      <g transform="translate(29.4 121.654307)scale(0.1 -0.1)">
       <use xlink:href="#DejaVuSans-31" transform="translate(0 0.765625)"/>
       <use xlink:href="#DejaVuSans-30" transform="translate(63.623047 0.765625)"/>
       <use xlink:href="#DejaVuSans-39" transform="translate(128.203125 39.046875)scale(0.7)"/>
      </g>
     </g>
    </g>
    <g id="ytick_5">
     <g id="line2d_20">
      <g>
       <use xlink:href="#mb295929202" x="54" y="73.351559" style="stroke: #000000; stroke-width: 0.8"/>
      </g>
     </g>
     <g id="text_21">
      <!-- $\mathdefault{10^{10}}$ -->
      <g transform="translate(24.9 77.150778)scale(0.1 -0.1)">
       <use xlink:href="#DejaVuSans-31" transform="translate(0 0.765625)"/>
       <use xlink:href="#DejaVuSans-30" transform="translate(63.623047 0.765625)"/>
       <use xlink:href="#DejaVuSans-31" transform="translate(128.203125 39.046875)scale(0.7)"/>
       <use xlink:href="#DejaVuSans-30" transform="translate(172.739258 39.046875)scale(0.7)"/>
      </g>
     </g>
    </g>
    <g id="ytick_6">
     <g id="line2d_21">
      <defs>
       <path id="m3523d29262" d="M 0 0 
L -2 0 
" style="stroke: #000000; stroke-width: 0.6"/>
      </defs>
      <g>
       <use xlink:href="#m3523d29262" x="54" y="237.968778" style="stroke: #000000; stroke-width: 0.6"/>
      </g>
     </g>
    </g>
    <g id="ytick_7">
     <g id="line2d_22">
      <g>
       <use xlink:href="#m3523d29262" x="54" y="230.132096" style="stroke: #000000; stroke-width: 0.6"/>
      </g>
     </g>
    </g>
    <g id="ytick_8">
     <g id="line2d_23">
      <g>
       <use xlink:href="#m3523d29262" x="54" y="224.571881" style="stroke: #000000; stroke-width: 0.6"/>
      </g>
     </g>
    </g>
    <g id="ytick_9">
     <g id="line2d_24">
      <g>
       <use xlink:href="#m3523d29262" x="54" y="220.259043" style="stroke: #000000; stroke-width: 0.6"/>
      </g>
     </g>
    </g>
    <g id="ytick_10">
     <g id="line2d_25">
      <g>
       <use xlink:href="#m3523d29262" x="54" y="216.735198" style="stroke: #000000; stroke-width: 0.6"/>
      </g>
     </g>
    </g>
    <g id="ytick_11">
     <g id="line2d_26">
      <g>
       <use xlink:href="#m3523d29262" x="54" y="213.75583" style="stroke: #000000; stroke-width: 0.6"/>
      </g>
     </g>
    </g>
    <g id="ytick_12">
     <g id="line2d_27">
      <g>
       <use xlink:href="#m3523d29262" x="54" y="211.174984" style="stroke: #000000; stroke-width: 0.6"/>
      </g>
     </g>
    </g>
    <g id="ytick_13">
     <g id="line2d_28">
      <g>
       <use xlink:href="#m3523d29262" x="54" y="208.898516" style="stroke: #000000; stroke-width: 0.6"/>
      </g>
     </g>
    </g>
    <g id="ytick_14">
     <g id="line2d_29">
      <g>
       <use xlink:href="#m3523d29262" x="54" y="193.465249" style="stroke: #000000; stroke-width: 0.6"/>
      </g>
     </g>
    </g>
    <g id="ytick_15">
     <g id="line2d_30">
      <g>
       <use xlink:href="#m3523d29262" x="54" y="185.628567" style="stroke: #000000; stroke-width: 0.6"/>
      </g>
     </g>
    </g>
    <g id="ytick_16">
     <g id="line2d_31">
      <g>
       <use xlink:href="#m3523d29262" x="54" y="180.068352" style="stroke: #000000; stroke-width: 0.6"/>
      </g>
     </g>
    </g>
    <g id="ytick_17">
     <g id="line2d_32">
      <g>
       <use xlink:href="#m3523d29262" x="54" y="175.755514" style="stroke: #000000; stroke-width: 0.6"/>
      </g>
     </g>
    </g>
    <g id="ytick_18">
     <g id="line2d_33">
      <g>
       <use xlink:href="#m3523d29262" x="54" y="172.231669" style="stroke: #000000; stroke-width: 0.6"/>
      </g>
     </g>
    </g>
    <g id="ytick_19">
     <g id="line2d_34">
      <g>
       <use xlink:href="#m3523d29262" x="54" y="169.252301" style="stroke: #000000; stroke-width: 0.6"/>
      </g>
     </g>
    </g>
    <g id="ytick_20">
     <g id="line2d_35">
      <g>
       <use xlink:href="#m3523d29262" x="54" y="166.671455" style="stroke: #000000; stroke-width: 0.6"/>
      </g>
     </g>
    </g>
    <g id="ytick_21">
     <g id="line2d_36">
      <g>
       <use xlink:href="#m3523d29262" x="54" y="164.394987" style="stroke: #000000; stroke-width: 0.6"/>
      </g>
     </g>
    </g>
    <g id="ytick_22">
     <g id="line2d_37">
      <g>
       <use xlink:href="#m3523d29262" x="54" y="148.96172" style="stroke: #000000; stroke-width: 0.6"/>
      </g>
     </g>
    </g>
    <g id="ytick_23">
     <g id="line2d_38">
      <g>
       <use xlink:href="#m3523d29262" x="54" y="141.125038" style="stroke: #000000; stroke-width: 0.6"/>
      </g>
     </g>
    </g>
    <g id="ytick_24">
     <g id="line2d_39">
      <g>
       <use xlink:href="#m3523d29262" x="54" y="135.564823" style="stroke: #000000; stroke-width: 0.6"/>
      </g>
     </g>
    </g>
    <g id="ytick_25">
     <g id="line2d_40">
      <g>
       <use xlink:href="#m3523d29262" x="54" y="131.251985" style="stroke: #000000; stroke-width: 0.6"/>
      </g>
     </g>
    </g>
    <g id="ytick_26">
     <g id="line2d_41">
      <g>
       <use xlink:href="#m3523d29262" x="54" y="127.728141" style="stroke: #000000; stroke-width: 0.6"/>
      </g>
     </g>
    </g>
    <g id="ytick_27">
     <g id="line2d_42">
      <g>
       <use xlink:href="#m3523d29262" x="54" y="124.748772" style="stroke: #000000; stroke-width: 0.6"/>
      </g>
     </g>
    </g>
    <g id="ytick_28">
     <g id="line2d_43">
      <g>
       <use xlink:href="#m3523d29262" x="54" y="122.167926" style="stroke: #000000; stroke-width: 0.6"/>
      </g>
     </g>
    </g>
    <g id="ytick_29">
     <g id="line2d_44">
      <g>
       <use xlink:href="#m3523d29262" x="54" y="119.891458" style="stroke: #000000; stroke-width: 0.6"/>
      </g>
     </g>
    </g>
    <g id="ytick_30">
     <g id="line2d_45">
      <g>
       <use xlink:href="#m3523d29262" x="54" y="104.458191" style="stroke: #000000; stroke-width: 0.6"/>
      </g>
     </g>
    </g>
    <g id="ytick_31">
     <g id="line2d_46">
      <g>
       <use xlink:href="#m3523d29262" x="54" y="96.621509" style="stroke: #000000; stroke-width: 0.6"/>
      </g>
     </g>
    </g>
    <g id="ytick_32">
     <g id="line2d_47">
      <g>
       <use xlink:href="#m3523d29262" x="54" y="91.061294" style="stroke: #000000; stroke-width: 0.6"/>
      </g>
     </g>
    </g>
    <g id="ytick_33">
     <g id="line2d_48">
      <g>
       <use xlink:href="#m3523d29262" x="54" y="86.748456" style="stroke: #000000; stroke-width: 0.6"/>
      </g>
     </g>
    </g>
    <g id="ytick_34">
     <g id="line2d_49">
      <g>
       <use xlink:href="#m3523d29262" x="54" y="83.224612" style="stroke: #000000; stroke-width: 0.6"/>
      </g>
     </g>
    </g>
    <g id="ytick_35">
     <g id="line2d_50">
      <g>
       <use xlink:href="#m3523d29262" x="54" y="80.245243" style="stroke: #000000; stroke-width: 0.6"/>
      </g>
     </g>
    </g>
    <g id="ytick_36">
     <g id="line2d_51">
      <g>
       <use xlink:href="#m3523d29262" x="54" y="77.664397" style="stroke: #000000; stroke-width: 0.6"/>
      </g>
     </g>
    </g>
    <g id="ytick_37">
     <g id="line2d_52">
      <g>
       <use xlink:href="#m3523d29262" x="54" y="75.387929" style="stroke: #000000; stroke-width: 0.6"/>
      </g>
     </g>
    </g>
    <g id="ytick_38">
     <g id="line2d_53">
      <g>
       <use xlink:href="#m3523d29262" x="54" y="59.954662" style="stroke: #000000; stroke-width: 0.6"/>
      </g>
     </g>
    </g>
    <g id="ytick_39">
     <g id="line2d_54">
      <g>
       <use xlink:href="#m3523d29262" x="54" y="52.11798" style="stroke: #000000; stroke-width: 0.6"/>
      </g>
     </g>
    </g>
    <g id="ytick_40">
     <g id="line2d_55">
      <g>
       <use xlink:href="#m3523d29262" x="54" y="46.557765" style="stroke: #000000; stroke-width: 0.6"/>
      </g>
     </g>
    </g>
    <g id="ytick_41">
     <g id="line2d_56">
      <g>
       <use xlink:href="#m3523d29262" x="54" y="42.244927" style="stroke: #000000; stroke-width: 0.6"/>
      </g>
     </g>
    </g>
    <g id="ytick_42">
     <g id="line2d_57">
      <g>
       <use xlink:href="#m3523d29262" x="54" y="38.721083" style="stroke: #000000; stroke-width: 0.6"/>
      </g>
     </g>
    </g>
    <g id="ytick_43">
     <g id="line2d_58">
      <g>
       <use xlink:href="#m3523d29262" x="54" y="35.741714" style="stroke: #000000; stroke-width: 0.6"/>
      </g>
     </g>
    </g>
    <g id="text_22">
     <!-- Median NEPS -->
     <g transform="translate(18.820312 176.144844)rotate(-90)scale(0.1 -0.1)">
      <defs>
       <path id="DejaVuSans-4d" d="M 628 4666 
L 1569 4666 
L 2759 1491 
L 3956 4666 
L 4897 4666 
L 4897 0 
L 4281 0 
L 4281 4097 
L 3078 897 
L 2444 897 
L 1241 4097 
L 1241 0 
L 628 0 
L 628 4666 
z
" transform="scale(0.015625)"/>
       <path id="DejaVuSans-64" d="M 2906 2969 
L 2906 4863 
L 3481 4863 
L 3481 0 
L 2906 0 
L 2906 525 
Q 2725 213 2448 61 
Q 2172 -91 1784 -91 
Q 1150 -91 751 415 
Q 353 922 353 1747 
Q 353 2572 751 3078 
Q 1150 3584 1784 3584 
Q 2172 3584 2448 3432 
Q 2725 3281 2906 2969 
z
M 947 1747 
Q 947 1113 1208 752 
Q 1469 391 1925 391 
Q 2381 391 2643 752 
Q 2906 1113 2906 1747 
Q 2906 2381 2643 2742 
Q 2381 3103 1925 3103 
Q 1469 3103 1208 2742 
Q 947 2381 947 1747 
z
" transform="scale(0.015625)"/>
       <path id="DejaVuSans-6e" d="M 3513 2113 
L 3513 0 
L 2938 0 
L 2938 2094 
Q 2938 2591 2744 2837 
Q 2550 3084 2163 3084 
Q 1697 3084 1428 2787 
Q 1159 2491 1159 1978 
L 1159 0 
L 581 0 
L 581 3500 
L 1159 3500 
L 1159 2956 
Q 1366 3272 1645 3428 
Q 1925 3584 2291 3584 
Q 2894 3584 3203 3211 
Q 3513 2838 3513 2113 
z
" transform="scale(0.015625)"/>
       <path id="DejaVuSans-4e" d="M 628 4666 
L 1478 4666 
L 3547 763 
L 3547 4666 
L 4159 4666 
L 4159 0 
L 3309 0 
L 1241 3903 
L 1241 0 
L 628 0 
L 628 4666 
z
" transform="scale(0.015625)"/>
       <path id="DejaVuSans-45" d="M 628 4666 
L 3578 4666 
L 3578 4134 
L 1259 4134 
L 1259 2753 
L 3481 2753 
L 3481 2222 
L 1259 2222 
L 1259 531 
L 3634 531 
L 3634 0 
L 628 0 
L 628 4666 
z
" transform="scale(0.015625)"/>
       <path id="DejaVuSans-53" d="M 3425 4513 
L 3425 3897 
Q 3066 4069 2747 4153 
Q 2428 4238 2131 4238 
Q 1616 4238 1336 4038 
Q 1056 3838 1056 3469 
Q 1056 3159 1242 3001 
Q 1428 2844 1947 2747 
L 2328 2669 
Q 3034 2534 3370 2195 
Q 3706 1856 3706 1288 
Q 3706 609 3251 259 
Q 2797 -91 1919 -91 
Q 1588 -91 1214 -16 
Q 841 59 441 206 
L 441 856 
Q 825 641 1194 531 
Q 1563 422 1919 422 
Q 2459 422 2753 634 
Q 3047 847 3047 1241 
Q 3047 1584 2836 1778 
Q 2625 1972 2144 2069 
L 1759 2144 
Q 1053 2284 737 2584 
Q 422 2884 422 3419 
Q 422 4038 858 4394 
Q 1294 4750 2059 4750 
Q 2388 4750 2728 4690 
Q 3069 4631 3425 4513 
z
" transform="scale(0.015625)"/>
      </defs>
      <use xlink:href="#DejaVuSans-4d"/>
      <use xlink:href="#DejaVuSans-65" x="86.279297"/>
      <use xlink:href="#DejaVuSans-64" x="147.802734"/>
      <use xlink:href="#DejaVuSans-69" x="211.279297"/>
      <use xlink:href="#DejaVuSans-61" x="239.0625"/>
      <use xlink:href="#DejaVuSans-6e" x="300.341797"/>
      <use xlink:href="#DejaVuSans-20" x="363.720703"/>
      <use xlink:href="#DejaVuSans-4e" x="395.507812"/>
      <use xlink:href="#DejaVuSans-45" x="470.3125"/>
      <use xlink:href="#DejaVuSans-50" x="533.496094"/>
      <use xlink:href="#DejaVuSans-53" x="593.798828"/>
     </g>
    </g>
   </g>
   <g id="line2d_59">
    <path d="M 69.218182 241.867959 
L 71.614746 229.048034 
L 74.01131 224.46876 
L 76.407874 218.939153 
L 78.804438 208.729934 
L 81.201002 212.599118 
L 83.597566 201.456345 
L 85.99413 204.522454 
L 88.390694 210.455677 
L 90.787258 207.072397 
L 93.183822 200.166074 
L 95.580387 203.661358 
L 97.976951 202.078218 
L 100.373515 203.914426 
L 102.770079 202.744085 
L 105.166643 197.900013 
L 107.563207 201.500989 
L 109.959771 204.131898 
L 112.356335 204.012247 
L 114.752899 196.443493 
L 117.149463 198.725663 
L 119.546027 201.649224 
L 121.942591 202.46789 
L 124.339155 200.43703 
L 126.735719 200.893768 
L 129.132283 201.949961 
L 131.528848 200.256251 
L 133.925412 197.536352 
L 136.321976 197.280817 
L 138.71854 196.276803 
L 141.115104 199.517427 
L 145.908232 195.060435 
L 148.304796 199.638622 
L 153.097924 198.695718 
L 155.494488 197.531311 
L 157.891052 196.925952 
L 160.287616 199.508883 
L 162.68418 200.157155 
L 165.080744 192.783369 
L 167.477309 200.079624 
L 169.873873 197.980598 
L 172.270437 199.957573 
L 174.667001 201.308573 
L 177.063565 199.465066 
L 179.460129 200.253026 
L 181.856693 200.225341 
L 184.253257 200.646877 
L 186.649821 198.843414 
L 189.046385 200.021826 
L 191.442949 198.785297 
L 193.839513 195.105044 
L 196.236077 198.269516 
L 198.632641 198.140118 
L 201.029205 198.162243 
L 203.42577 201.019115 
L 205.822334 199.794487 
L 208.218898 200.437062 
L 210.615462 197.950599 
L 213.012026 201.992801 
L 215.40859 197.759034 
L 217.805154 197.166791 
L 220.201718 199.975261 
L 222.598282 198.089022 
L 224.994846 199.867633 
L 227.39141 197.628388 
L 229.787974 199.741995 
L 232.184538 199.610857 
L 234.581102 194.855248 
L 236.977666 197.974141 
L 239.37423 199.157316 
L 241.770795 200.123 
L 244.167359 198.927463 
L 246.563923 198.305263 
L 248.960487 199.434684 
L 251.357051 198.271711 
L 253.753615 199.994401 
L 256.150179 197.601904 
L 258.546743 201.28267 
L 260.943307 197.098219 
L 263.339871 199.222656 
L 265.736435 199.345208 
L 268.132999 198.063593 
L 270.529563 200.884561 
L 272.926127 199.933624 
L 275.322691 197.504488 
L 277.719256 197.901436 
L 280.11582 198.964381 
L 282.512384 198.136686 
L 284.908948 196.796117 
L 287.305512 197.615228 
L 289.702076 195.932866 
L 294.495204 198.139788 
L 296.891768 196.661348 
L 299.288332 199.618944 
L 301.684896 200.407702 
L 304.08146 198.474112 
L 306.478024 197.634271 
L 308.874588 196.495205 
L 311.271152 198.443934 
L 313.667717 197.183727 
L 316.064281 198.577261 
L 318.460845 201.057484 
L 320.857409 197.67068 
L 323.253973 197.583306 
L 325.650537 198.121258 
L 328.047101 199.290157 
L 330.443665 197.208391 
L 332.840229 197.813351 
L 335.236793 197.599529 
L 337.633357 194.497813 
L 340.029921 195.105 
L 342.426485 197.984999 
L 344.823049 195.916488 
L 347.219613 197.65217 
L 349.616178 197.374043 
L 352.012742 199.810714 
L 354.409306 196.105845 
L 356.80587 199.614891 
L 359.202434 195.846258 
L 361.598998 197.956073 
L 363.995562 199.424094 
L 366.392126 195.195297 
L 368.78869 196.178337 
L 371.185254 197.427168 
L 373.581818 197.193763 
L 373.581818 197.193763 
" clip-path="url(#p782f7a942f)" style="fill: none; stroke: #1f77b4; stroke-width: 1.5; stroke-linecap: square"/>
   </g>
   <g id="line2d_60">
    <path d="M 69.218182 182.407 
L 71.614746 163.255178 
L 74.01131 157.14071 
L 76.407874 151.830231 
L 78.804438 148.978001 
L 81.201002 147.26425 
L 83.597566 136.937372 
L 85.99413 139.197211 
L 88.390694 147.332301 
L 90.787258 143.589783 
L 93.183822 138.574529 
L 95.580387 139.110546 
L 97.976951 134.681848 
L 100.373515 139.729408 
L 102.770079 136.0721 
L 105.166643 136.318759 
L 107.563207 134.302261 
L 109.959771 137.860269 
L 112.356335 139.765591 
L 114.752899 130.783123 
L 117.149463 130.970139 
L 119.546027 133.114193 
L 121.942591 134.486603 
L 124.339155 134.743381 
L 126.735719 133.240596 
L 129.132283 133.8894 
L 131.528848 134.771364 
L 133.925412 129.476713 
L 136.321976 130.319216 
L 138.71854 130.297254 
L 141.115104 135.091876 
L 143.511668 130.833222 
L 145.908232 130.894956 
L 148.304796 131.187911 
L 150.70136 132.532449 
L 153.097924 130.495477 
L 155.494488 132.048086 
L 157.891052 134.152721 
L 160.287616 133.922781 
L 162.68418 131.653542 
L 165.080744 127.343609 
L 167.477309 134.514617 
L 169.873873 131.928423 
L 172.270437 133.932315 
L 174.667001 137.524778 
L 177.063565 137.16848 
L 179.460129 137.565763 
L 181.856693 132.81053 
L 184.253257 132.720517 
L 186.649821 130.637307 
L 189.046385 131.920964 
L 191.442949 133.817044 
L 193.839513 129.729029 
L 196.236077 132.526103 
L 198.632641 130.462968 
L 201.029205 132.500376 
L 203.42577 134.861838 
L 205.822334 131.715316 
L 208.218898 134.888738 
L 210.615462 131.841095 
L 213.012026 134.019685 
L 215.40859 135.094505 
L 217.805154 134.95552 
L 220.201718 130.903468 
L 222.598282 131.295368 
L 224.994846 131.420822 
L 227.39141 132.139008 
L 229.787974 130.757883 
L 232.184538 131.11462 
L 234.581102 129.40075 
L 236.977666 131.773836 
L 239.37423 135.323774 
L 241.770795 137.360299 
L 244.167359 137.179782 
L 246.563923 136.379327 
L 248.960487 131.772991 
L 251.357051 131.647695 
L 253.753615 132.963251 
L 256.150179 131.487595 
L 258.546743 132.018719 
L 260.943307 128.794484 
L 263.339871 132.352748 
L 265.736435 130.535199 
L 268.132999 131.024611 
L 270.529563 133.747549 
L 272.926127 130.813479 
L 275.322691 129.711637 
L 277.719256 129.57143 
L 280.11582 132.892356 
L 282.512384 129.386186 
L 284.908948 130.644966 
L 287.305512 129.343426 
L 289.702076 128.499101 
L 292.09864 129.287339 
L 294.495204 130.386245 
L 296.891768 129.896893 
L 299.288332 130.138065 
L 301.684896 131.512645 
L 304.08146 129.231495 
L 306.478024 129.905821 
L 308.874588 126.626772 
L 311.271152 129.165053 
L 313.667717 129.097118 
L 316.064281 129.932052 
L 318.460845 132.256401 
L 320.857409 130.183333 
L 323.253973 130.002646 
L 325.650537 129.560439 
L 328.047101 132.999831 
L 330.443665 128.538355 
L 332.840229 130.480987 
L 337.633357 127.23226 
L 340.029921 127.88748 
L 342.426485 130.340594 
L 344.823049 129.489017 
L 347.219613 129.66508 
L 349.616178 129.142152 
L 352.012742 132.175237 
L 354.409306 128.632396 
L 356.80587 131.532066 
L 359.202434 129.298616 
L 361.598998 129.866077 
L 363.995562 131.096212 
L 366.392126 128.951576 
L 368.78869 129.497912 
L 371.185254 129.678392 
L 373.581818 129.533567 
L 373.581818 129.533567 
" clip-path="url(#p782f7a942f)" style="fill: none; stroke: #ff7f0e; stroke-width: 1.5; stroke-linecap: square"/>
   </g>
   <g id="line2d_61">
    <path d="M 69.218182 183.596004 
L 71.614746 163.447712 
L 74.01131 156.927134 
L 76.407874 152.334089 
L 78.804438 146.825204 
L 81.201002 146.770174 
L 83.597566 135.756714 
L 85.99413 138.783514 
L 88.390694 146.443951 
L 90.787258 147.58209 
L 93.183822 142.85805 
L 95.580387 142.874017 
L 97.976951 139.079104 
L 100.373515 144.703354 
L 102.770079 140.815088 
L 105.166643 141.741135 
L 107.563207 138.924802 
L 109.959771 143.265127 
L 112.356335 144.851116 
L 114.752899 135.444925 
L 117.149463 131.467956 
L 119.546027 132.753943 
L 121.942591 134.387446 
L 124.339155 134.692884 
L 126.735719 133.200367 
L 129.132283 133.814151 
L 131.528848 135.241416 
L 133.925412 129.83768 
L 136.321976 130.67619 
L 138.71854 130.866572 
L 141.115104 135.609162 
L 143.511668 130.98802 
L 145.908232 131.402058 
L 148.304796 131.205868 
L 150.70136 132.704951 
L 153.097924 131.148812 
L 155.494488 130.549966 
L 157.891052 133.513478 
L 160.287616 134.668056 
L 162.68418 132.574707 
L 165.080744 128.064463 
L 167.477309 132.581785 
L 169.873873 136.16605 
L 172.270437 132.702023 
L 177.063565 132.371992 
L 179.460129 132.352209 
L 181.856693 133.825795 
L 184.253257 133.199869 
L 186.649821 131.36315 
L 191.442949 135.454211 
L 193.839513 133.157986 
L 196.236077 133.625203 
L 198.632641 131.542419 
L 201.029205 135.323011 
L 203.42577 135.237977 
L 205.822334 132.078834 
L 208.218898 135.206878 
L 210.615462 132.189251 
L 213.012026 133.193684 
L 215.40859 130.345533 
L 217.805154 130.400939 
L 220.201718 131.742589 
L 222.598282 131.734283 
L 224.994846 131.861985 
L 227.39141 132.644297 
L 229.787974 130.97805 
L 232.184538 131.531426 
L 234.581102 129.763098 
L 236.977666 131.675488 
L 239.37423 129.568118 
L 241.770795 132.017337 
L 244.167359 132.026623 
L 246.563923 131.149441 
L 248.960487 131.819674 
L 251.357051 131.062124 
L 253.753615 131.790723 
L 256.150179 130.88818 
L 258.546743 132.169922 
L 260.943307 129.831076 
L 263.339871 132.860259 
L 265.736435 130.510548 
L 268.132999 131.752544 
L 270.529563 134.424216 
L 272.926127 130.94065 
L 275.322691 130.322458 
L 277.719256 129.462562 
L 280.11582 133.409456 
L 282.512384 129.727455 
L 284.908948 131.398645 
L 287.305512 130.451676 
L 289.702076 129.172186 
L 292.09864 130.074131 
L 294.495204 131.185322 
L 296.891768 130.380206 
L 299.288332 130.945539 
L 301.684896 132.152939 
L 304.08146 129.005215 
L 306.478024 130.734632 
L 308.874588 127.052994 
L 311.271152 130.041593 
L 313.667717 129.634335 
L 316.064281 130.279003 
L 318.460845 132.739863 
L 320.857409 136.214101 
L 323.253973 135.975615 
L 325.650537 129.954723 
L 328.047101 133.369051 
L 330.443665 128.648452 
L 332.840229 131.024324 
L 337.633357 127.757673 
L 340.029921 128.581488 
L 342.426485 131.090689 
L 344.823049 130.094415 
L 347.219613 129.534498 
L 349.616178 129.545693 
L 352.012742 132.389473 
L 354.409306 129.289157 
L 356.80587 131.835518 
L 359.202434 135.438801 
L 361.598998 135.671978 
L 363.995562 137.435859 
L 366.392126 134.816655 
L 368.78869 130.275655 
L 371.185254 130.446877 
L 373.581818 130.435521 
L 373.581818 130.435521 
" clip-path="url(#p782f7a942f)" style="fill: none; stroke: #2ca02c; stroke-width: 1.5; stroke-linecap: square"/>
   </g>
   <g id="line2d_62">
    <path d="M 69.218182 128.259244 
L 71.614746 109.612645 
L 74.01131 102.346943 
L 76.407874 96.119002 
L 78.804438 92.193571 
L 81.201002 91.730266 
L 83.597566 86.464645 
L 85.99413 82.84124 
L 88.390694 83.830762 
L 90.787258 78.709046 
L 93.183822 77.020201 
L 95.580387 79.137238 
L 97.976951 77.211979 
L 100.373515 79.175454 
L 102.770079 77.611808 
L 105.166643 75.539151 
L 107.563207 78.039094 
L 109.959771 76.717146 
L 112.356335 79.215612 
L 114.752899 78.679192 
L 117.149463 74.425211 
L 119.546027 79.853649 
L 121.942591 77.236901 
L 124.339155 74.339935 
L 126.735719 75.295428 
L 129.132283 76.758517 
L 131.528848 73.99848 
L 133.925412 73.171858 
L 136.321976 76.145337 
L 138.71854 72.337582 
L 141.115104 74.076519 
L 143.511668 73.940575 
L 145.908232 72.644473 
L 148.304796 74.642114 
L 153.097924 74.002513 
L 157.891052 72.932931 
L 160.287616 74.103568 
L 162.68418 74.021775 
L 165.080744 71.276974 
L 167.477309 74.0835 
L 169.873873 73.226321 
L 172.270437 73.677586 
L 174.667001 74.794243 
L 179.460129 71.898258 
L 181.856693 73.29757 
L 184.253257 73.17069 
L 186.649821 77.287946 
L 189.046385 73.325037 
L 191.442949 72.205297 
L 193.839513 70.384428 
L 196.236077 73.203781 
L 198.632641 71.700438 
L 201.029205 71.36697 
L 203.42577 72.017968 
L 205.822334 73.105888 
L 208.218898 73.008818 
L 210.615462 71.594148 
L 213.012026 73.017646 
L 215.40859 71.360183 
L 217.805154 71.837391 
L 220.201718 72.667543 
L 222.598282 71.468733 
L 224.994846 72.373067 
L 227.39141 71.185826 
L 229.787974 72.671721 
L 232.184538 72.05031 
L 234.581102 70.258405 
L 236.977666 71.894327 
L 239.37423 73.886413 
L 241.770795 73.029654 
L 244.167359 72.475814 
L 246.563923 72.133355 
L 248.960487 73.316584 
L 253.753615 72.05524 
L 256.150179 71.639908 
L 258.546743 73.741923 
L 260.943307 72.330209 
L 263.339871 72.730862 
L 265.736435 73.571285 
L 268.132999 72.09381 
L 270.529563 73.0501 
L 272.926127 72.239341 
L 275.322691 72.773793 
L 277.719256 72.476552 
L 280.11582 72.577405 
L 282.512384 71.81712 
L 284.908948 72.626308 
L 287.305512 71.680432 
L 289.702076 71.885477 
L 292.09864 71.934987 
L 294.495204 71.552005 
L 296.891768 71.550595 
L 299.288332 72.319607 
L 301.684896 72.890365 
L 304.08146 71.942398 
L 306.478024 71.496337 
L 308.874588 71.933734 
L 311.271152 71.233401 
L 313.667717 71.75341 
L 316.064281 72.704 
L 318.460845 72.463624 
L 320.857409 71.777191 
L 323.253973 72.214593 
L 325.650537 71.060208 
L 328.047101 71.542748 
L 330.443665 71.339542 
L 332.840229 70.427762 
L 335.236793 71.846902 
L 337.633357 70.623831 
L 340.029921 70.942473 
L 342.426485 71.480049 
L 344.823049 71.320767 
L 347.219613 71.352987 
L 349.616178 71.677848 
L 352.012742 72.443099 
L 354.409306 71.099917 
L 356.80587 71.985683 
L 359.202434 70.264789 
L 361.598998 72.055315 
L 363.995562 72.034906 
L 366.392126 70.96876 
L 368.78869 70.559233 
L 371.185254 71.144547 
L 373.581818 71.376738 
L 373.581818 71.376738 
" clip-path="url(#p782f7a942f)" style="fill: none; stroke: #d62728; stroke-width: 1.5; stroke-linecap: square"/>
   </g>
   <g id="patch_3">
    <path d="M 54 252 
L 54 34.56 
" style="fill: none; stroke: #000000; stroke-width: 0.8; stroke-linejoin: miter; stroke-linecap: square"/>
   </g>
   <g id="patch_4">
    <path d="M 388.8 252 
L 388.8 34.56 
" style="fill: none; stroke: #000000; stroke-width: 0.8; stroke-linejoin: miter; stroke-linecap: square"/>
   </g>
   <g id="patch_5">
    <path d="M 54 252 
L 388.8 252 
" style="fill: none; stroke: #000000; stroke-width: 0.8; stroke-linejoin: miter; stroke-linecap: square"/>
   </g>
   <g id="patch_6">
    <path d="M 54 34.56 
L 388.8 34.56 
" style="fill: none; stroke: #000000; stroke-width: 0.8; stroke-linejoin: miter; stroke-linecap: square"/>
   </g>
   <g id="text_23">
    <!-- Median NEPS vs. Program Size (10000 f.c., nicolau_a) -->
    <g transform="translate(61.57875 28.56)scale(0.12 -0.12)">
     <defs>
      <path id="DejaVuSans-76" d="M 191 3500 
L 800 3500 
L 1894 563 
L 2988 3500 
L 3597 3500 
L 2284 0 
L 1503 0 
L 191 3500 
z
" transform="scale(0.015625)"/>
      <path id="DejaVuSans-2e" d="M 684 794 
L 1344 794 
L 1344 0 
L 684 0 
L 684 794 
z
" transform="scale(0.015625)"/>
      <path id="DejaVuSans-28" d="M 1984 4856 
Q 1566 4138 1362 3434 
Q 1159 2731 1159 2009 
Q 1159 1288 1364 580 
Q 1569 -128 1984 -844 
L 1484 -844 
Q 1016 -109 783 600 
Q 550 1309 550 2009 
Q 550 2706 781 3412 
Q 1013 4119 1484 4856 
L 1984 4856 
z
" transform="scale(0.015625)"/>
      <path id="DejaVuSans-66" d="M 2375 4863 
L 2375 4384 
L 1825 4384 
Q 1516 4384 1395 4259 
Q 1275 4134 1275 3809 
L 1275 3500 
L 2222 3500 
L 2222 3053 
L 1275 3053 
L 1275 0 
L 697 0 
L 697 3053 
L 147 3053 
L 147 3500 
L 697 3500 
L 697 3744 
Q 697 4328 969 4595 
Q 1241 4863 1831 4863 
L 2375 4863 
z
" transform="scale(0.015625)"/>
      <path id="DejaVuSans-63" d="M 3122 3366 
L 3122 2828 
Q 2878 2963 2633 3030 
Q 2388 3097 2138 3097 
Q 1578 3097 1268 2742 
Q 959 2388 959 1747 
Q 959 1106 1268 751 
Q 1578 397 2138 397 
Q 2388 397 2633 464 
Q 2878 531 3122 666 
L 3122 134 
Q 2881 22 2623 -34 
Q 2366 -91 2075 -91 
Q 1284 -91 818 406 
Q 353 903 353 1747 
Q 353 2603 823 3093 
Q 1294 3584 2113 3584 
Q 2378 3584 2631 3529 
Q 2884 3475 3122 3366 
z
" transform="scale(0.015625)"/>
      <path id="DejaVuSans-2c" d="M 750 794 
L 1409 794 
L 1409 256 
L 897 -744 
L 494 -744 
L 750 256 
L 750 794 
z
" transform="scale(0.015625)"/>
      <path id="DejaVuSans-6c" d="M 603 4863 
L 1178 4863 
L 1178 0 
L 603 0 
L 603 4863 
z
" transform="scale(0.015625)"/>
      <path id="DejaVuSans-75" d="M 544 1381 
L 544 3500 
L 1119 3500 
L 1119 1403 
Q 1119 906 1312 657 
Q 1506 409 1894 409 
Q 2359 409 2629 706 
Q 2900 1003 2900 1516 
L 2900 3500 
L 3475 3500 
L 3475 0 
L 2900 0 
L 2900 538 
Q 2691 219 2414 64 
Q 2138 -91 1772 -91 
Q 1169 -91 856 284 
Q 544 659 544 1381 
z
M 1991 3584 
L 1991 3584 
z
" transform="scale(0.015625)"/>
      <path id="DejaVuSans-5f" d="M 3263 -1063 
L 3263 -1509 
L -63 -1509 
L -63 -1063 
L 3263 -1063 
z
" transform="scale(0.015625)"/>
      <path id="DejaVuSans-29" d="M 513 4856 
L 1013 4856 
Q 1481 4119 1714 3412 
Q 1947 2706 1947 2009 
Q 1947 1309 1714 600 
Q 1481 -109 1013 -844 
L 513 -844 
Q 928 -128 1133 580 
Q 1338 1288 1338 2009 
Q 1338 2731 1133 3434 
Q 928 4138 513 4856 
z
" transform="scale(0.015625)"/>
     </defs>
     <use xlink:href="#DejaVuSans-4d"/>
     <use xlink:href="#DejaVuSans-65" x="86.279297"/>
     <use xlink:href="#DejaVuSans-64" x="147.802734"/>
     <use xlink:href="#DejaVuSans-69" x="211.279297"/>
     <use xlink:href="#DejaVuSans-61" x="239.0625"/>
     <use xlink:href="#DejaVuSans-6e" x="300.341797"/>
     <use xlink:href="#DejaVuSans-20" x="363.720703"/>
     <use xlink:href="#DejaVuSans-4e" x="395.507812"/>
     <use xlink:href="#DejaVuSans-45" x="470.3125"/>
     <use xlink:href="#DejaVuSans-50" x="533.496094"/>
     <use xlink:href="#DejaVuSans-53" x="593.798828"/>
     <use xlink:href="#DejaVuSans-20" x="657.275391"/>
     <use xlink:href="#DejaVuSans-76" x="689.0625"/>
     <use xlink:href="#DejaVuSans-73" x="748.242188"/>
     <use xlink:href="#DejaVuSans-2e" x="800.341797"/>
     <use xlink:href="#DejaVuSans-20" x="832.128906"/>
     <use xlink:href="#DejaVuSans-50" x="863.916016"/>
     <use xlink:href="#DejaVuSans-72" x="922.46875"/>
     <use xlink:href="#DejaVuSans-6f" x="961.332031"/>
     <use xlink:href="#DejaVuSans-67" x="1022.513672"/>
     <use xlink:href="#DejaVuSans-72" x="1085.990234"/>
     <use xlink:href="#DejaVuSans-61" x="1127.103516"/>
     <use xlink:href="#DejaVuSans-6d" x="1188.382812"/>
     <use xlink:href="#DejaVuSans-20" x="1285.794922"/>
     <use xlink:href="#DejaVuSans-53" x="1317.582031"/>
     <use xlink:href="#DejaVuSans-69" x="1381.058594"/>
     <use xlink:href="#DejaVuSans-7a" x="1408.841797"/>
     <use xlink:href="#DejaVuSans-65" x="1461.332031"/>
     <use xlink:href="#DejaVuSans-20" x="1522.855469"/>
     <use xlink:href="#DejaVuSans-28" x="1554.642578"/>
     <use xlink:href="#DejaVuSans-31" x="1593.65625"/>
     <use xlink:href="#DejaVuSans-30" x="1657.279297"/>
     <use xlink:href="#DejaVuSans-30" x="1720.902344"/>
     <use xlink:href="#DejaVuSans-30" x="1784.525391"/>
     <use xlink:href="#DejaVuSans-30" x="1848.148438"/>
     <use xlink:href="#DejaVuSans-20" x="1911.771484"/>
     <use xlink:href="#DejaVuSans-66" x="1943.558594"/>
     <use xlink:href="#DejaVuSans-2e" x="1971.513672"/>
     <use xlink:href="#DejaVuSans-63" x="2003.300781"/>
     <use xlink:href="#DejaVuSans-2e" x="2058.28125"/>
     <use xlink:href="#DejaVuSans-2c" x="2090.068359"/>
     <use xlink:href="#DejaVuSans-20" x="2121.855469"/>
     <use xlink:href="#DejaVuSans-6e" x="2153.642578"/>
     <use xlink:href="#DejaVuSans-69" x="2217.021484"/>
     <use xlink:href="#DejaVuSans-63" x="2244.804688"/>
     <use xlink:href="#DejaVuSans-6f" x="2299.785156"/>
     <use xlink:href="#DejaVuSans-6c" x="2360.966797"/>
     <use xlink:href="#DejaVuSans-61" x="2388.75"/>
     <use xlink:href="#DejaVuSans-75" x="2450.029297"/>
     <use xlink:href="#DejaVuSans-5f" x="2513.408203"/>
     <use xlink:href="#DejaVuSans-61" x="2563.408203"/>
     <use xlink:href="#DejaVuSans-29" x="2624.6875"/>
    </g>
   </g>
   <g id="legend_1">
    <g id="patch_7">
     <path d="M 61 101.2725 
L 171.19375 101.2725 
Q 173.19375 101.2725 173.19375 99.2725 
L 173.19375 41.56 
Q 173.19375 39.56 171.19375 39.56 
L 61 39.56 
Q 59 39.56 59 41.56 
L 59 99.2725 
Q 59 101.2725 61 101.2725 
z
" style="fill: #ffffff; opacity: 0.8; stroke: #cccccc; stroke-linejoin: miter"/>
    </g>
    <g id="line2d_63">
     <path d="M 63 47.658437 
L 73 47.658437 
L 83 47.658437 
" style="fill: none; stroke: #1f77b4; stroke-width: 1.5; stroke-linecap: square"/>
    </g>
    <g id="text_24">
     <!-- DEAP -->
     <g transform="translate(91 51.158437)scale(0.1 -0.1)">
      <defs>
       <path id="DejaVuSans-44" d="M 1259 4147 
L 1259 519 
L 2022 519 
Q 2988 519 3436 956 
Q 3884 1394 3884 2338 
Q 3884 3275 3436 3711 
Q 2988 4147 2022 4147 
L 1259 4147 
z
M 628 4666 
L 1925 4666 
Q 3281 4666 3915 4102 
Q 4550 3538 4550 2338 
Q 4550 1131 3912 565 
Q 3275 0 1925 0 
L 628 0 
L 628 4666 
z
" transform="scale(0.015625)"/>
       <path id="DejaVuSans-41" d="M 2188 4044 
L 1331 1722 
L 3047 1722 
L 2188 4044 
z
M 1831 4666 
L 2547 4666 
L 4325 0 
L 3669 0 
L 3244 1197 
L 1141 1197 
L 716 0 
L 50 0 
L 1831 4666 
z
" transform="scale(0.015625)"/>
      </defs>
      <use xlink:href="#DejaVuSans-44"/>
      <use xlink:href="#DejaVuSans-45" x="77.001953"/>
      <use xlink:href="#DejaVuSans-41" x="140.185547"/>
      <use xlink:href="#DejaVuSans-50" x="208.59375"/>
     </g>
    </g>
    <g id="line2d_64">
     <path d="M 63 62.336562 
L 73 62.336562 
L 83 62.336562 
" style="fill: none; stroke: #ff7f0e; stroke-width: 1.5; stroke-linecap: square"/>
    </g>
    <g id="text_25">
     <!-- TensorGP (CPU) -->
     <g transform="translate(91 65.836562)scale(0.1 -0.1)">
      <defs>
       <path id="DejaVuSans-54" d="M -19 4666 
L 3928 4666 
L 3928 4134 
L 2272 4134 
L 2272 0 
L 1638 0 
L 1638 4134 
L -19 4134 
L -19 4666 
z
" transform="scale(0.015625)"/>
       <path id="DejaVuSans-47" d="M 3809 666 
L 3809 1919 
L 2778 1919 
L 2778 2438 
L 4434 2438 
L 4434 434 
Q 4069 175 3628 42 
Q 3188 -91 2688 -91 
Q 1594 -91 976 548 
Q 359 1188 359 2328 
Q 359 3472 976 4111 
Q 1594 4750 2688 4750 
Q 3144 4750 3555 4637 
Q 3966 4525 4313 4306 
L 4313 3634 
Q 3963 3931 3569 4081 
Q 3175 4231 2741 4231 
Q 1884 4231 1454 3753 
Q 1025 3275 1025 2328 
Q 1025 1384 1454 906 
Q 1884 428 2741 428 
Q 3075 428 3337 486 
Q 3600 544 3809 666 
z
" transform="scale(0.015625)"/>
       <path id="DejaVuSans-43" d="M 4122 4306 
L 4122 3641 
Q 3803 3938 3442 4084 
Q 3081 4231 2675 4231 
Q 1875 4231 1450 3742 
Q 1025 3253 1025 2328 
Q 1025 1406 1450 917 
Q 1875 428 2675 428 
Q 3081 428 3442 575 
Q 3803 722 4122 1019 
L 4122 359 
Q 3791 134 3420 21 
Q 3050 -91 2638 -91 
Q 1578 -91 968 557 
Q 359 1206 359 2328 
Q 359 3453 968 4101 
Q 1578 4750 2638 4750 
Q 3056 4750 3426 4639 
Q 3797 4528 4122 4306 
z
" transform="scale(0.015625)"/>
       <path id="DejaVuSans-55" d="M 556 4666 
L 1191 4666 
L 1191 1831 
Q 1191 1081 1462 751 
Q 1734 422 2344 422 
Q 2950 422 3222 751 
Q 3494 1081 3494 1831 
L 3494 4666 
L 4128 4666 
L 4128 1753 
Q 4128 841 3676 375 
Q 3225 -91 2344 -91 
Q 1459 -91 1007 375 
Q 556 841 556 1753 
L 556 4666 
z
" transform="scale(0.015625)"/>
      </defs>
      <use xlink:href="#DejaVuSans-54"/>
      <use xlink:href="#DejaVuSans-65" x="44.083984"/>
      <use xlink:href="#DejaVuSans-6e" x="105.607422"/>
      <use xlink:href="#DejaVuSans-73" x="168.986328"/>
      <use xlink:href="#DejaVuSans-6f" x="221.085938"/>
      <use xlink:href="#DejaVuSans-72" x="282.267578"/>
      <use xlink:href="#DejaVuSans-47" x="323.380859"/>
      <use xlink:href="#DejaVuSans-50" x="400.871094"/>
      <use xlink:href="#DejaVuSans-20" x="461.173828"/>
      <use xlink:href="#DejaVuSans-28" x="492.960938"/>
      <use xlink:href="#DejaVuSans-43" x="531.974609"/>
      <use xlink:href="#DejaVuSans-50" x="601.798828"/>
      <use xlink:href="#DejaVuSans-55" x="662.101562"/>
      <use xlink:href="#DejaVuSans-29" x="735.294922"/>
     </g>
    </g>
    <g id="line2d_65">
     <path d="M 63 77.014687 
L 73 77.014687 
L 83 77.014687 
" style="fill: none; stroke: #2ca02c; stroke-width: 1.5; stroke-linecap: square"/>
    </g>
    <g id="text_26">
     <!-- TensorGP (GPU) -->
     <g transform="translate(91 80.514687)scale(0.1 -0.1)">
      <use xlink:href="#DejaVuSans-54"/>
      <use xlink:href="#DejaVuSans-65" x="44.083984"/>
      <use xlink:href="#DejaVuSans-6e" x="105.607422"/>
      <use xlink:href="#DejaVuSans-73" x="168.986328"/>
      <use xlink:href="#DejaVuSans-6f" x="221.085938"/>
      <use xlink:href="#DejaVuSans-72" x="282.267578"/>
      <use xlink:href="#DejaVuSans-47" x="323.380859"/>
      <use xlink:href="#DejaVuSans-50" x="400.871094"/>
      <use xlink:href="#DejaVuSans-20" x="461.173828"/>
      <use xlink:href="#DejaVuSans-28" x="492.960938"/>
      <use xlink:href="#DejaVuSans-47" x="531.974609"/>
      <use xlink:href="#DejaVuSans-50" x="609.464844"/>
      <use xlink:href="#DejaVuSans-55" x="669.767578"/>
      <use xlink:href="#DejaVuSans-29" x="742.960938"/>
     </g>
    </g>
    <g id="line2d_66">
     <path d="M 63 91.692813 
L 73 91.692813 
L 83 91.692813 
" style="fill: none; stroke: #d62728; stroke-width: 1.5; stroke-linecap: square"/>
    </g>
    <g id="text_27">
     <!-- Operon -->
     <g transform="translate(91 95.192813)scale(0.1 -0.1)">
      <defs>
       <path id="DejaVuSans-4f" d="M 2522 4238 
Q 1834 4238 1429 3725 
Q 1025 3213 1025 2328 
Q 1025 1447 1429 934 
Q 1834 422 2522 422 
Q 3209 422 3611 934 
Q 4013 1447 4013 2328 
Q 4013 3213 3611 3725 
Q 3209 4238 2522 4238 
z
M 2522 4750 
Q 3503 4750 4090 4092 
Q 4678 3434 4678 2328 
Q 4678 1225 4090 567 
Q 3503 -91 2522 -91 
Q 1538 -91 948 565 
Q 359 1222 359 2328 
Q 359 3434 948 4092 
Q 1538 4750 2522 4750 
z
" transform="scale(0.015625)"/>
       <path id="DejaVuSans-70" d="M 1159 525 
L 1159 -1331 
L 581 -1331 
L 581 3500 
L 1159 3500 
L 1159 2969 
Q 1341 3281 1617 3432 
Q 1894 3584 2278 3584 
Q 2916 3584 3314 3078 
Q 3713 2572 3713 1747 
Q 3713 922 3314 415 
Q 2916 -91 2278 -91 
Q 1894 -91 1617 61 
Q 1341 213 1159 525 
z
M 3116 1747 
Q 3116 2381 2855 2742 
Q 2594 3103 2138 3103 
Q 1681 3103 1420 2742 
Q 1159 2381 1159 1747 
Q 1159 1113 1420 752 
Q 1681 391 2138 391 
Q 2594 391 2855 752 
Q 3116 1113 3116 1747 
z
" transform="scale(0.015625)"/>
      </defs>
      <use xlink:href="#DejaVuSans-4f"/>
      <use xlink:href="#DejaVuSans-70" x="78.710938"/>
      <use xlink:href="#DejaVuSans-65" x="142.1875"/>
      <use xlink:href="#DejaVuSans-72" x="203.710938"/>
      <use xlink:href="#DejaVuSans-6f" x="242.574219"/>
      <use xlink:href="#DejaVuSans-6e" x="303.755859"/>
     </g>
    </g>
   </g>
  </g>
 </g>
 <defs>
  <clipPath id="p782f7a942f">
   <rect x="54" y="34.56" width="334.8" height="217.44"/>
  </clipPath>
 </defs>
</svg>
