<?xml version="1.0" encoding="utf-8" standalone="no"?>
<!DOCTYPE svg PUBLIC "-//W3C//DTD SVG 1.1//EN"
  "http://www.w3.org/Graphics/SVG/1.1/DTD/svg11.dtd">
<svg xmlns:xlink="http://www.w3.org/1999/xlink" width="432pt" height="288pt" viewBox="0 0 432 288" xmlns="http://www.w3.org/2000/svg" version="1.1">
 <metadata>
  <rdf:RDF xmlns:dc="http://purl.org/dc/elements/1.1/" xmlns:cc="http://creativecommons.org/ns#" xmlns:rdf="http://www.w3.org/1999/02/22-rdf-syntax-ns#">
   <cc:Work>
    <dc:type rdf:resource="http://purl.org/dc/dcmitype/StillImage"/>
    <dc:date>2022-01-12T02:40:45.419491</dc:date>
    <dc:format>image/svg+xml</dc:format>
    <dc:creator>
     <cc:Agent>
      <dc:title>Matplotlib v3.5.1, https://matplotlib.org/</dc:title>
     </cc:Agent>
    </dc:creator>
   </cc:Work>
  </rdf:RDF>
 </metadata>
 <defs>
  <style type="text/css">*{stroke-linejoin: round; stroke-linecap: butt}</style>
 </defs>
 <g id="figure_1">
  <g id="patch_1">
   <path d="M 0 288 
L 432 288 
L 432 0 
L 0 0 
L 0 288 
z
" style="fill: none"/>
  </g>
  <g id="axes_1">
   <g id="patch_2">
    <path d="M 54 252 
L 388.8 252 
L 388.8 34.56 
L 54 34.56 
z
" style="fill: #ffffff"/>
   </g>
   <g id="PolyCollection_1">
    <path d="M 69.218182 217.411316 
L 69.218182 217.411316 
L 71.614746 204.292148 
L 74.01131 193.802348 
L 76.407874 192.180243 
L 78.804438 185.982917 
L 81.201002 182.542152 
L 83.597566 179.468474 
L 85.99413 178.244103 
L 88.390694 176.982708 
L 90.787258 175.779724 
L 93.183822 176.772501 
L 95.580387 173.072138 
L 97.976951 175.111168 
L 100.373515 171.305816 
L 102.770079 170.044364 
L 105.166643 169.182497 
L 107.563207 172.108922 
L 109.959771 167.196866 
L 112.356335 168.558632 
L 114.752899 166.312555 
L 117.149463 166.286108 
L 119.546027 165.213548 
L 121.942591 165.898581 
L 124.339155 163.812146 
L 126.735719 163.079336 
L 129.132283 163.39525 
L 131.528848 164.09624 
L 133.925412 162.112728 
L 136.321976 161.051636 
L 138.71854 161.285899 
L 141.115104 161.70361 
L 143.511668 162.004305 
L 145.908232 165.274537 
L 148.304796 161.779948 
L 150.70136 160.354638 
L 153.097924 161.220804 
L 155.494488 159.873065 
L 157.891052 164.56165 
L 160.287616 160.077964 
L 162.68418 161.733941 
L 165.080744 158.428591 
L 167.477309 163.53215 
L 169.873873 158.700987 
L 172.270437 160.039893 
L 174.667001 159.260957 
L 177.063565 158.156001 
L 179.460129 158.732448 
L 181.856693 158.118964 
L 184.253257 158.136407 
L 186.649821 156.938556 
L 189.046385 157.785905 
L 191.442949 157.817455 
L 193.839513 156.897722 
L 196.236077 156.983799 
L 198.632641 155.832246 
L 201.029205 156.609919 
L 203.42577 157.016465 
L 205.822334 156.625493 
L 208.218898 157.073979 
L 210.615462 155.200459 
L 213.012026 156.010853 
L 215.40859 155.221198 
L 217.805154 155.286572 
L 220.201718 155.509549 
L 222.598282 155.208765 
L 224.994846 155.010351 
L 227.39141 155.38528 
L 229.787974 154.625855 
L 232.184538 155.623744 
L 234.581102 153.879998 
L 236.977666 154.988805 
L 239.37423 153.261363 
L 241.770795 154.000538 
L 244.167359 153.945845 
L 246.563923 154.56238 
L 248.960487 154.315299 
L 251.357051 153.973905 
L 253.753615 153.205605 
L 256.150179 152.652048 
L 258.546743 152.94461 
L 260.943307 152.45979 
L 263.339871 153.368273 
L 265.736435 153.121873 
L 268.132999 153.286165 
L 270.529563 154.161444 
L 272.926127 152.367902 
L 275.322691 152.39052 
L 277.719256 157.933594 
L 280.11582 153.817996 
L 282.512384 152.017835 
L 284.908948 152.619026 
L 287.305512 152.296854 
L 289.702076 152.442221 
L 292.09864 152.34462 
L 294.495204 153.314432 
L 296.891768 152.493112 
L 299.288332 152.615114 
L 301.684896 159.706086 
L 304.08146 151.65261 
L 306.478024 159.006158 
L 308.874588 151.152473 
L 311.271152 151.898843 
L 313.667717 151.669461 
L 316.064281 152.384424 
L 318.460845 152.983215 
L 320.857409 152.113999 
L 323.253973 152.423945 
L 325.650537 151.461704 
L 328.047101 153.275419 
L 330.443665 151.337948 
L 332.840229 152.379336 
L 335.236793 153.197632 
L 337.633357 150.750998 
L 340.029921 150.56099 
L 342.426485 152.034158 
L 344.823049 151.273938 
L 347.219613 151.250291 
L 349.616178 150.717878 
L 352.012742 151.59514 
L 354.409306 150.05495 
L 356.80587 151.280913 
L 359.202434 150.908101 
L 361.598998 151.094236 
L 363.995562 151.319864 
L 366.392126 150.572885 
L 368.78869 150.40461 
L 371.185254 150.361806 
L 373.581818 150.706922 
L 373.581818 150.706922 
L 373.581818 150.706922 
L 371.185254 150.361806 
L 368.78869 150.40461 
L 366.392126 150.572885 
L 363.995562 151.319864 
L 361.598998 151.094236 
L 359.202434 150.908101 
L 356.80587 151.280913 
L 354.409306 150.05495 
L 352.012742 151.59514 
L 349.616178 150.717878 
L 347.219613 151.250291 
L 344.823049 151.273938 
L 342.426485 152.034158 
L 340.029921 150.56099 
L 337.633357 150.750998 
L 335.236793 153.197632 
L 332.840229 152.379336 
L 330.443665 151.337948 
L 328.047101 153.275419 
L 325.650537 151.461704 
L 323.253973 152.423945 
L 320.857409 152.113999 
L 318.460845 152.983215 
L 316.064281 152.384424 
L 313.667717 151.669461 
L 311.271152 151.898843 
L 308.874588 151.152473 
L 306.478024 159.006158 
L 304.08146 151.65261 
L 301.684896 159.706086 
L 299.288332 152.615114 
L 296.891768 152.493112 
L 294.495204 153.314432 
L 292.09864 152.34462 
L 289.702076 152.442221 
L 287.305512 152.296854 
L 284.908948 152.619026 
L 282.512384 152.017835 
L 280.11582 153.817996 
L 277.719256 157.933594 
L 275.322691 152.39052 
L 272.926127 152.367902 
L 270.529563 154.161444 
L 268.132999 153.286165 
L 265.736435 153.121873 
L 263.339871 153.368273 
L 260.943307 152.45979 
L 258.546743 152.94461 
L 256.150179 152.652048 
L 253.753615 153.205605 
L 251.357051 153.973905 
L 248.960487 154.315299 
L 246.563923 154.56238 
L 244.167359 153.945845 
L 241.770795 154.000538 
L 239.37423 153.261363 
L 236.977666 154.988805 
L 234.581102 153.879998 
L 232.184538 155.623744 
L 229.787974 154.625855 
L 227.39141 155.38528 
L 224.994846 155.010351 
L 222.598282 155.208765 
L 220.201718 155.509549 
L 217.805154 155.286572 
L 215.40859 155.221198 
L 213.012026 156.010853 
L 210.615462 155.200459 
L 208.218898 157.073979 
L 205.822334 156.625493 
L 203.42577 157.016465 
L 201.029205 156.609919 
L 198.632641 155.832246 
L 196.236077 156.983799 
L 193.839513 156.897722 
L 191.442949 157.817455 
L 189.046385 157.785905 
L 186.649821 156.938556 
L 184.253257 158.136407 
L 181.856693 158.118964 
L 179.460129 158.732448 
L 177.063565 158.156001 
L 174.667001 159.260957 
L 172.270437 160.039893 
L 169.873873 158.700987 
L 167.477309 163.53215 
L 165.080744 158.428591 
L 162.68418 161.733941 
L 160.287616 160.077964 
L 157.891052 164.56165 
L 155.494488 159.873065 
L 153.097924 161.220804 
L 150.70136 160.354638 
L 148.304796 161.779948 
L 145.908232 165.274537 
L 143.511668 162.004305 
L 141.115104 161.70361 
L 138.71854 161.285899 
L 136.321976 161.051636 
L 133.925412 162.112728 
L 131.528848 164.09624 
L 129.132283 163.39525 
L 126.735719 163.079336 
L 124.339155 163.812146 
L 121.942591 165.898581 
L 119.546027 165.213548 
L 117.149463 166.286108 
L 114.752899 166.312555 
L 112.356335 168.558632 
L 109.959771 167.196866 
L 107.563207 172.108922 
L 105.166643 169.182497 
L 102.770079 170.044364 
L 100.373515 171.305816 
L 97.976951 175.111168 
L 95.580387 173.072138 
L 93.183822 176.772501 
L 90.787258 175.779724 
L 88.390694 176.982708 
L 85.99413 178.244103 
L 83.597566 179.468474 
L 81.201002 182.542152 
L 78.804438 185.982917 
L 76.407874 192.180243 
L 74.01131 193.802348 
L 71.614746 204.292148 
L 69.218182 217.411316 
z
" clip-path="url(#pe7e0f4812f)" style="fill: #1f77b4"/>
   </g>
   <g id="PolyCollection_2">
    <path d="M 69.218182 242.116364 
L 69.218182 242.116364 
L 71.614746 181.756292 
L 74.01131 173.439842 
L 76.407874 168.419328 
L 78.804438 165.069203 
L 81.201002 165.826699 
L 83.597566 156.345928 
L 85.99413 158.486861 
L 88.390694 164.226808 
L 90.787258 161.393696 
L 93.183822 158.643692 
L 95.580387 157.650421 
L 97.976951 155.39146 
L 100.373515 159.179375 
L 102.770079 156.642552 
L 105.166643 156.718079 
L 107.563207 155.489612 
L 109.959771 158.362645 
L 112.356335 159.031206 
L 114.752899 152.223912 
L 117.149463 153.031032 
L 119.546027 153.915987 
L 121.942591 155.754701 
L 124.339155 155.099806 
L 126.735719 154.416559 
L 129.132283 155.414585 
L 131.528848 156.919612 
L 133.925412 151.492614 
L 136.321976 153.816364 
L 138.71854 155.86457 
L 141.115104 159.726584 
L 143.511668 156.353937 
L 145.908232 156.502921 
L 148.304796 153.815422 
L 150.70136 153.449501 
L 153.097924 152.631566 
L 155.494488 151.6033 
L 157.891052 154.858564 
L 160.287616 155.703083 
L 162.68418 153.042527 
L 165.080744 150.071874 
L 167.477309 153.482217 
L 169.873873 151.696107 
L 172.270437 153.577343 
L 174.667001 153.714435 
L 177.063565 153.427772 
L 179.460129 153.396825 
L 181.856693 154.806949 
L 184.253257 153.553408 
L 186.649821 152.601235 
L 189.046385 153.614347 
L 191.442949 154.774433 
L 193.839513 152.328913 
L 196.236077 153.794203 
L 198.632641 152.179192 
L 201.029205 153.422776 
L 203.42577 155.16376 
L 205.822334 152.658654 
L 208.218898 154.848295 
L 210.615462 153.093719 
L 213.012026 157.577644 
L 215.40859 152.788335 
L 217.805154 151.207932 
L 220.201718 153.102041 
L 222.598282 152.774968 
L 224.994846 152.968467 
L 227.39141 157.336625 
L 229.787974 156.331365 
L 232.184538 156.742272 
L 234.581102 155.325123 
L 236.977666 156.809783 
L 239.37423 155.590656 
L 241.770795 157.017404 
L 244.167359 157.184848 
L 246.563923 156.293164 
L 248.960487 153.696251 
L 251.357051 152.576513 
L 253.753615 153.467531 
L 256.150179 152.087402 
L 258.546743 152.981869 
L 260.943307 151.262127 
L 263.339871 153.909145 
L 265.736435 152.295353 
L 268.132999 156.825401 
L 270.529563 154.395131 
L 272.926127 152.372473 
L 275.322691 151.892676 
L 277.719256 151.401809 
L 280.11582 157.662601 
L 282.512384 155.279267 
L 284.908948 156.004055 
L 287.305512 151.923438 
L 289.702076 151.050669 
L 292.09864 151.449851 
L 294.495204 152.258673 
L 296.891768 151.973969 
L 299.288332 151.980004 
L 301.684896 153.048487 
L 304.08146 151.446895 
L 306.478024 155.682538 
L 308.874588 153.188222 
L 311.271152 155.361978 
L 313.667717 155.115179 
L 316.064281 155.799318 
L 318.460845 157.345605 
L 320.857409 152.452443 
L 323.253973 152.076155 
L 325.650537 151.775138 
L 328.047101 153.92755 
L 330.443665 150.742202 
L 332.840229 152.422669 
L 335.236793 151.30324 
L 337.633357 150.616566 
L 340.029921 150.654636 
L 342.426485 152.119089 
L 344.823049 151.769765 
L 347.219613 151.700931 
L 349.616178 150.856748 
L 352.012742 153.5358 
L 354.409306 151.118178 
L 356.80587 152.969605 
L 359.202434 151.585442 
L 361.598998 151.831851 
L 363.995562 153.052012 
L 366.392126 151.371965 
L 368.78869 151.542599 
L 371.185254 151.700846 
L 373.581818 151.766347 
L 373.581818 151.766347 
L 373.581818 151.766347 
L 371.185254 151.700846 
L 368.78869 151.542599 
L 366.392126 151.371965 
L 363.995562 153.052012 
L 361.598998 151.831851 
L 359.202434 151.585442 
L 356.80587 152.969605 
L 354.409306 151.118178 
L 352.012742 153.5358 
L 349.616178 150.856748 
L 347.219613 151.700931 
L 344.823049 151.769765 
L 342.426485 152.119089 
L 340.029921 150.654636 
L 337.633357 150.616566 
L 335.236793 151.30324 
L 332.840229 152.422669 
L 330.443665 150.742202 
L 328.047101 153.92755 
L 325.650537 151.775138 
L 323.253973 152.076155 
L 320.857409 152.452443 
L 318.460845 157.345605 
L 316.064281 155.799318 
L 313.667717 155.115179 
L 311.271152 155.361978 
L 308.874588 153.188222 
L 306.478024 155.682538 
L 304.08146 151.446895 
L 301.684896 153.048487 
L 299.288332 151.980004 
L 296.891768 151.973969 
L 294.495204 152.258673 
L 292.09864 151.449851 
L 289.702076 151.050669 
L 287.305512 151.923438 
L 284.908948 156.004055 
L 282.512384 155.279267 
L 280.11582 157.662601 
L 277.719256 151.401809 
L 275.322691 151.892676 
L 272.926127 152.372473 
L 270.529563 154.395131 
L 268.132999 156.825401 
L 265.736435 152.295353 
L 263.339871 153.909145 
L 260.943307 151.262127 
L 258.546743 152.981869 
L 256.150179 152.087402 
L 253.753615 153.467531 
L 251.357051 152.576513 
L 248.960487 153.696251 
L 246.563923 156.293164 
L 244.167359 157.184848 
L 241.770795 157.017404 
L 239.37423 155.590656 
L 236.977666 156.809783 
L 234.581102 155.325123 
L 232.184538 156.742272 
L 229.787974 156.331365 
L 227.39141 157.336625 
L 224.994846 152.968467 
L 222.598282 152.774968 
L 220.201718 153.102041 
L 217.805154 151.207932 
L 215.40859 152.788335 
L 213.012026 157.577644 
L 210.615462 153.093719 
L 208.218898 154.848295 
L 205.822334 152.658654 
L 203.42577 155.16376 
L 201.029205 153.422776 
L 198.632641 152.179192 
L 196.236077 153.794203 
L 193.839513 152.328913 
L 191.442949 154.774433 
L 189.046385 153.614347 
L 186.649821 152.601235 
L 184.253257 153.553408 
L 181.856693 154.806949 
L 179.460129 153.396825 
L 177.063565 153.427772 
L 174.667001 153.714435 
L 172.270437 153.577343 
L 169.873873 151.696107 
L 167.477309 153.482217 
L 165.080744 150.071874 
L 162.68418 153.042527 
L 160.287616 155.703083 
L 157.891052 154.858564 
L 155.494488 151.6033 
L 153.097924 152.631566 
L 150.70136 153.449501 
L 148.304796 153.815422 
L 145.908232 156.502921 
L 143.511668 156.353937 
L 141.115104 159.726584 
L 138.71854 155.86457 
L 136.321976 153.816364 
L 133.925412 151.492614 
L 131.528848 156.919612 
L 129.132283 155.414585 
L 126.735719 154.416559 
L 124.339155 155.099806 
L 121.942591 155.754701 
L 119.546027 153.915987 
L 117.149463 153.031032 
L 114.752899 152.223912 
L 112.356335 159.031206 
L 109.959771 158.362645 
L 107.563207 155.489612 
L 105.166643 156.718079 
L 102.770079 156.642552 
L 100.373515 159.179375 
L 97.976951 155.39146 
L 95.580387 157.650421 
L 93.183822 158.643692 
L 90.787258 161.393696 
L 88.390694 164.226808 
L 85.99413 158.486861 
L 83.597566 156.345928 
L 81.201002 165.826699 
L 78.804438 165.069203 
L 76.407874 168.419328 
L 74.01131 173.439842 
L 71.614746 181.756292 
L 69.218182 242.116364 
z
" clip-path="url(#pe7e0f4812f)" style="fill: #ff7f0e"/>
   </g>
   <g id="PolyCollection_3">
    <path d="M 69.218182 193.146418 
L 69.218182 193.146418 
L 71.614746 177.300262 
L 74.01131 172.560961 
L 76.407874 168.377023 
L 78.804438 165.033532 
L 81.201002 165.155972 
L 83.597566 156.490413 
L 85.99413 158.756348 
L 88.390694 165.759841 
L 90.787258 162.205614 
L 93.183822 158.82234 
L 95.580387 158.721613 
L 97.976951 155.077019 
L 100.373515 159.56851 
L 102.770079 156.745435 
L 105.166643 158.047982 
L 107.563207 155.403922 
L 109.959771 158.526967 
L 112.356335 159.363019 
L 114.752899 153.109787 
L 117.149463 152.334484 
L 119.546027 154.555101 
L 121.942591 155.489965 
L 124.339155 155.825248 
L 126.735719 154.002392 
L 129.132283 155.205309 
L 131.528848 155.936561 
L 133.925412 151.589702 
L 136.321976 152.43107 
L 138.71854 152.454128 
L 141.115104 156.585611 
L 143.511668 152.70924 
L 145.908232 153.201942 
L 148.304796 153.450839 
L 150.70136 153.962337 
L 153.097924 152.431563 
L 155.494488 152.528666 
L 157.891052 154.884398 
L 160.287616 156.059942 
L 162.68418 154.217609 
L 165.080744 150.095932 
L 167.477309 153.277922 
L 169.873873 152.387314 
L 172.270437 154.282934 
L 174.667001 154.232464 
L 177.063565 154.119455 
L 179.460129 153.508949 
L 181.856693 155.581098 
L 184.253257 154.560355 
L 186.649821 153.128453 
L 189.046385 156.485861 
L 191.442949 159.003377 
L 193.839513 155.744617 
L 196.236077 157.844075 
L 198.632641 156.273982 
L 201.029205 157.551771 
L 203.42577 159.445843 
L 205.822334 157.202505 
L 208.218898 159.206472 
L 210.615462 156.98088 
L 213.012026 157.857382 
L 215.40859 155.779152 
L 217.805154 155.625797 
L 220.201718 156.989353 
L 222.598282 157.209813 
L 224.994846 157.358202 
L 227.39141 157.784145 
L 229.787974 152.483112 
L 232.184538 153.48178 
L 234.581102 151.953058 
L 236.977666 153.780443 
L 239.37423 151.983676 
L 241.770795 153.617802 
L 244.167359 154.156923 
L 246.563923 152.68622 
L 248.960487 153.845747 
L 251.357051 153.092123 
L 253.753615 153.775524 
L 256.150179 152.218883 
L 258.546743 153.326439 
L 260.943307 155.400204 
L 263.339871 154.337094 
L 265.736435 152.944566 
L 268.132999 153.522872 
L 270.529563 155.372337 
L 272.926127 152.966397 
L 275.322691 151.738993 
L 277.719256 151.81971 
L 280.11582 154.78555 
L 282.512384 151.809557 
L 284.908948 153.434227 
L 287.305512 151.891767 
L 289.702076 151.252946 
L 292.09864 152.047728 
L 294.495204 153.117816 
L 296.891768 152.742183 
L 299.288332 152.903338 
L 301.684896 153.462288 
L 304.08146 151.438016 
L 306.478024 152.808654 
L 308.874588 149.632943 
L 311.271152 151.852261 
L 313.667717 155.547166 
L 316.064281 156.468079 
L 318.460845 157.86701 
L 320.857409 152.826028 
L 323.253973 152.46689 
L 325.650537 152.088015 
L 328.047101 154.775911 
L 330.443665 151.201449 
L 332.840229 152.634941 
L 335.236793 151.99687 
L 337.633357 150.274924 
L 340.029921 151.09512 
L 342.426485 152.745649 
L 344.823049 152.370055 
L 347.219613 151.971216 
L 349.616178 151.684257 
L 352.012742 153.685163 
L 354.409306 151.454413 
L 356.80587 153.482763 
L 359.202434 151.957432 
L 361.598998 151.980595 
L 363.995562 153.653098 
L 366.392126 151.983425 
L 368.78869 152.225362 
L 371.185254 152.183624 
L 373.581818 152.474774 
L 373.581818 152.474774 
L 373.581818 152.474774 
L 371.185254 152.183624 
L 368.78869 152.225362 
L 366.392126 151.983425 
L 363.995562 153.653098 
L 361.598998 151.980595 
L 359.202434 151.957432 
L 356.80587 153.482763 
L 354.409306 151.454413 
L 352.012742 153.685163 
L 349.616178 151.684257 
L 347.219613 151.971216 
L 344.823049 152.370055 
L 342.426485 152.745649 
L 340.029921 151.09512 
L 337.633357 150.274924 
L 335.236793 151.99687 
L 332.840229 152.634941 
L 330.443665 151.201449 
L 328.047101 154.775911 
L 325.650537 152.088015 
L 323.253973 152.46689 
L 320.857409 152.826028 
L 318.460845 157.86701 
L 316.064281 156.468079 
L 313.667717 155.547166 
L 311.271152 151.852261 
L 308.874588 149.632943 
L 306.478024 152.808654 
L 304.08146 151.438016 
L 301.684896 153.462288 
L 299.288332 152.903338 
L 296.891768 152.742183 
L 294.495204 153.117816 
L 292.09864 152.047728 
L 289.702076 151.252946 
L 287.305512 151.891767 
L 284.908948 153.434227 
L 282.512384 151.809557 
L 280.11582 154.78555 
L 277.719256 151.81971 
L 275.322691 151.738993 
L 272.926127 152.966397 
L 270.529563 155.372337 
L 268.132999 153.522872 
L 265.736435 152.944566 
L 263.339871 154.337094 
L 260.943307 155.400204 
L 258.546743 153.326439 
L 256.150179 152.218883 
L 253.753615 153.775524 
L 251.357051 153.092123 
L 248.960487 153.845747 
L 246.563923 152.68622 
L 244.167359 154.156923 
L 241.770795 153.617802 
L 239.37423 151.983676 
L 236.977666 153.780443 
L 234.581102 151.953058 
L 232.184538 153.48178 
L 229.787974 152.483112 
L 227.39141 157.784145 
L 224.994846 157.358202 
L 222.598282 157.209813 
L 220.201718 156.989353 
L 217.805154 155.625797 
L 215.40859 155.779152 
L 213.012026 157.857382 
L 210.615462 156.98088 
L 208.218898 159.206472 
L 205.822334 157.202505 
L 203.42577 159.445843 
L 201.029205 157.551771 
L 198.632641 156.273982 
L 196.236077 157.844075 
L 193.839513 155.744617 
L 191.442949 159.003377 
L 189.046385 156.485861 
L 186.649821 153.128453 
L 184.253257 154.560355 
L 181.856693 155.581098 
L 179.460129 153.508949 
L 177.063565 154.119455 
L 174.667001 154.232464 
L 172.270437 154.282934 
L 169.873873 152.387314 
L 167.477309 153.277922 
L 165.080744 150.095932 
L 162.68418 154.217609 
L 160.287616 156.059942 
L 157.891052 154.884398 
L 155.494488 152.528666 
L 153.097924 152.431563 
L 150.70136 153.962337 
L 148.304796 153.450839 
L 145.908232 153.201942 
L 143.511668 152.70924 
L 141.115104 156.585611 
L 138.71854 152.454128 
L 136.321976 152.43107 
L 133.925412 151.589702 
L 131.528848 155.936561 
L 129.132283 155.205309 
L 126.735719 154.002392 
L 124.339155 155.825248 
L 121.942591 155.489965 
L 119.546027 154.555101 
L 117.149463 152.334484 
L 114.752899 153.109787 
L 112.356335 159.363019 
L 109.959771 158.526967 
L 107.563207 155.403922 
L 105.166643 158.047982 
L 102.770079 156.745435 
L 100.373515 159.56851 
L 97.976951 155.077019 
L 95.580387 158.721613 
L 93.183822 158.82234 
L 90.787258 162.205614 
L 88.390694 165.759841 
L 85.99413 158.756348 
L 83.597566 156.490413 
L 81.201002 165.155972 
L 78.804438 165.033532 
L 76.407874 168.377023 
L 74.01131 172.560961 
L 71.614746 177.300262 
L 69.218182 193.146418 
z
" clip-path="url(#pe7e0f4812f)" style="fill: #2ca02c"/>
   </g>
   <g id="PolyCollection_4">
    <path d="M 69.218182 142.982256 
L 69.218182 142.982256 
L 71.614746 128.926082 
L 74.01131 117.698669 
L 76.407874 112.618166 
L 78.804438 109.937498 
L 81.201002 111.9329 
L 83.597566 107.547191 
L 85.99413 102.763673 
L 88.390694 105.576165 
L 90.787258 62.372902 
L 93.183822 102.334033 
L 95.580387 97.928876 
L 97.976951 98.534367 
L 100.373515 99.721332 
L 102.770079 95.680256 
L 105.166643 94.843369 
L 107.563207 96.660878 
L 109.959771 93.565392 
L 112.356335 90.510548 
L 114.752899 90.176157 
L 117.149463 93.723278 
L 119.546027 99.155153 
L 121.942591 92.883087 
L 124.339155 98.546381 
L 126.735719 89.992368 
L 129.132283 88.58353 
L 131.528848 100.075372 
L 133.925412 91.700402 
L 136.321976 95.345222 
L 138.71854 98.199636 
L 141.115104 87.412303 
L 143.511668 86.339252 
L 145.908232 92.193248 
L 148.304796 91.566305 
L 150.70136 92.941278 
L 153.097924 95.840718 
L 155.494488 92.661082 
L 157.891052 91.802304 
L 160.287616 84.756408 
L 162.68418 89.625428 
L 165.080744 92.559984 
L 167.477309 93.77002 
L 169.873873 95.75121 
L 172.270437 90.664697 
L 174.667001 92.090812 
L 177.063565 95.455181 
L 179.460129 95.959018 
L 181.856693 90.914547 
L 184.253257 95.601327 
L 186.649821 88.560274 
L 189.046385 90.521837 
L 191.442949 91.648577 
L 193.839513 94.670916 
L 196.236077 88.327183 
L 198.632641 87.126636 
L 201.029205 84.707731 
L 203.42577 83.411288 
L 205.822334 79.976697 
L 208.218898 81.926217 
L 210.615462 85.609294 
L 213.012026 80.242715 
L 215.40859 79.155166 
L 217.805154 77.741801 
L 220.201718 86.392418 
L 222.598282 79.76031 
L 224.994846 77.7242 
L 227.39141 77.960974 
L 229.787974 83.460741 
L 232.184538 80.738916 
L 234.581102 79.189616 
L 236.977666 82.140476 
L 239.37423 81.375713 
L 241.770795 77.084604 
L 244.167359 76.410879 
L 246.563923 78.410455 
L 248.960487 75.18662 
L 251.357051 75.757767 
L 253.753615 76.005353 
L 256.150179 77.314645 
L 258.546743 79.144864 
L 260.943307 77.226904 
L 263.339871 77.087822 
L 265.736435 76.526674 
L 268.132999 82.088549 
L 270.529563 79.832984 
L 272.926127 79.540818 
L 275.322691 79.01452 
L 277.719256 82.505649 
L 280.11582 77.356564 
L 282.512384 78.999517 
L 284.908948 80.579133 
L 287.305512 75.651568 
L 289.702076 78.226175 
L 292.09864 82.333943 
L 294.495204 81.737616 
L 296.891768 78.946395 
L 299.288332 76.086296 
L 301.684896 77.581314 
L 304.08146 81.256559 
L 306.478024 44.443636 
L 308.874588 72.910966 
L 311.271152 81.212451 
L 313.667717 77.707077 
L 316.064281 74.367495 
L 318.460845 73.712784 
L 320.857409 74.30398 
L 323.253973 86.260124 
L 325.650537 74.179927 
L 328.047101 73.261167 
L 330.443665 73.805731 
L 332.840229 73.859004 
L 335.236793 71.869546 
L 337.633357 72.491057 
L 340.029921 71.611115 
L 342.426485 71.609584 
L 344.823049 73.554426 
L 347.219613 71.410626 
L 349.616178 78.927945 
L 352.012742 78.060723 
L 354.409306 78.597913 
L 356.80587 74.86899 
L 359.202434 71.955643 
L 361.598998 75.840966 
L 363.995562 76.69356 
L 366.392126 72.21346 
L 368.78869 75.958757 
L 371.185254 75.633375 
L 373.581818 71.269839 
L 373.581818 71.269839 
L 373.581818 71.269839 
L 371.185254 75.633375 
L 368.78869 75.958757 
L 366.392126 72.21346 
L 363.995562 76.69356 
L 361.598998 75.840966 
L 359.202434 71.955643 
L 356.80587 74.86899 
L 354.409306 78.597913 
L 352.012742 78.060723 
L 349.616178 78.927945 
L 347.219613 71.410626 
L 344.823049 73.554426 
L 342.426485 71.609584 
L 340.029921 71.611115 
L 337.633357 72.491057 
L 335.236793 71.869546 
L 332.840229 73.859004 
L 330.443665 73.805731 
L 328.047101 73.261167 
L 325.650537 74.179927 
L 323.253973 86.260124 
L 320.857409 74.30398 
L 318.460845 73.712784 
L 316.064281 74.367495 
L 313.667717 77.707077 
L 311.271152 81.212451 
L 308.874588 72.910966 
L 306.478024 44.443636 
L 304.08146 81.256559 
L 301.684896 77.581314 
L 299.288332 76.086296 
L 296.891768 78.946395 
L 294.495204 81.737616 
L 292.09864 82.333943 
L 289.702076 78.226175 
L 287.305512 75.651568 
L 284.908948 80.579133 
L 282.512384 78.999517 
L 280.11582 77.356564 
L 277.719256 82.505649 
L 275.322691 79.01452 
L 272.926127 79.540818 
L 270.529563 79.832984 
L 268.132999 82.088549 
L 265.736435 76.526674 
L 263.339871 77.087822 
L 260.943307 77.226904 
L 258.546743 79.144864 
L 256.150179 77.314645 
L 253.753615 76.005353 
L 251.357051 75.757767 
L 248.960487 75.18662 
L 246.563923 78.410455 
L 244.167359 76.410879 
L 241.770795 77.084604 
L 239.37423 81.375713 
L 236.977666 82.140476 
L 234.581102 79.189616 
L 232.184538 80.738916 
L 229.787974 83.460741 
L 227.39141 77.960974 
L 224.994846 77.7242 
L 222.598282 79.76031 
L 220.201718 86.392418 
L 217.805154 77.741801 
L 215.40859 79.155166 
L 213.012026 80.242715 
L 210.615462 85.609294 
L 208.218898 81.926217 
L 205.822334 79.976697 
L 203.42577 83.411288 
L 201.029205 84.707731 
L 198.632641 87.126636 
L 196.236077 88.327183 
L 193.839513 94.670916 
L 191.442949 91.648577 
L 189.046385 90.521837 
L 186.649821 88.560274 
L 184.253257 95.601327 
L 181.856693 90.914547 
L 179.460129 95.959018 
L 177.063565 95.455181 
L 174.667001 92.090812 
L 172.270437 90.664697 
L 169.873873 95.75121 
L 167.477309 93.77002 
L 165.080744 92.559984 
L 162.68418 89.625428 
L 160.287616 84.756408 
L 157.891052 91.802304 
L 155.494488 92.661082 
L 153.097924 95.840718 
L 150.70136 92.941278 
L 148.304796 91.566305 
L 145.908232 92.193248 
L 143.511668 86.339252 
L 141.115104 87.412303 
L 138.71854 98.199636 
L 136.321976 95.345222 
L 133.925412 91.700402 
L 131.528848 100.075372 
L 129.132283 88.58353 
L 126.735719 89.992368 
L 124.339155 98.546381 
L 121.942591 92.883087 
L 119.546027 99.155153 
L 117.149463 93.723278 
L 114.752899 90.176157 
L 112.356335 90.510548 
L 109.959771 93.565392 
L 107.563207 96.660878 
L 105.166643 94.843369 
L 102.770079 95.680256 
L 100.373515 99.721332 
L 97.976951 98.534367 
L 95.580387 97.928876 
L 93.183822 102.334033 
L 90.787258 62.372902 
L 88.390694 105.576165 
L 85.99413 102.763673 
L 83.597566 107.547191 
L 81.201002 111.9329 
L 78.804438 109.937498 
L 76.407874 112.618166 
L 74.01131 117.698669 
L 71.614746 128.926082 
L 69.218182 142.982256 
z
" clip-path="url(#pe7e0f4812f)" style="fill: #d62728"/>
   </g>
   <g id="matplotlib.axis_1">
    <g id="xtick_1">
     <g id="line2d_1">
      <defs>
       <path id="m6dca4238d3" d="M 0 0 
L 0 3.5 
" style="stroke: #000000; stroke-width: 0.8"/>
      </defs>
      <g>
       <use xlink:href="#m6dca4238d3" x="69.218182" y="252" style="stroke: #000000; stroke-width: 0.8"/>
      </g>
     </g>
     <g id="text_1">
      <!-- 1 -->
      <g transform="translate(66.036932 266.598437)scale(0.1 -0.1)">
       <defs>
        <path id="DejaVuSans-31" d="M 794 531 
L 1825 531 
L 1825 4091 
L 703 3866 
L 703 4441 
L 1819 4666 
L 2450 4666 
L 2450 531 
L 3481 531 
L 3481 0 
L 794 0 
L 794 531 
z
" transform="scale(0.015625)"/>
       </defs>
       <use xlink:href="#DejaVuSans-31"/>
      </g>
     </g>
    </g>
    <g id="xtick_2">
     <g id="line2d_2">
      <g>
       <use xlink:href="#m6dca4238d3" x="90.787258" y="252" style="stroke: #000000; stroke-width: 0.8"/>
      </g>
     </g>
     <g id="text_2">
      <!-- 19 -->
      <g transform="translate(84.424758 266.598437)scale(0.1 -0.1)">
       <defs>
        <path id="DejaVuSans-39" d="M 703 97 
L 703 672 
Q 941 559 1184 500 
Q 1428 441 1663 441 
Q 2288 441 2617 861 
Q 2947 1281 2994 2138 
Q 2813 1869 2534 1725 
Q 2256 1581 1919 1581 
Q 1219 1581 811 2004 
Q 403 2428 403 3163 
Q 403 3881 828 4315 
Q 1253 4750 1959 4750 
Q 2769 4750 3195 4129 
Q 3622 3509 3622 2328 
Q 3622 1225 3098 567 
Q 2575 -91 1691 -91 
Q 1453 -91 1209 -44 
Q 966 3 703 97 
z
M 1959 2075 
Q 2384 2075 2632 2365 
Q 2881 2656 2881 3163 
Q 2881 3666 2632 3958 
Q 2384 4250 1959 4250 
Q 1534 4250 1286 3958 
Q 1038 3666 1038 3163 
Q 1038 2656 1286 2365 
Q 1534 2075 1959 2075 
z
" transform="scale(0.015625)"/>
       </defs>
       <use xlink:href="#DejaVuSans-31"/>
       <use xlink:href="#DejaVuSans-39" x="63.623047"/>
      </g>
     </g>
    </g>
    <g id="xtick_3">
     <g id="line2d_3">
      <g>
       <use xlink:href="#m6dca4238d3" x="112.356335" y="252" style="stroke: #000000; stroke-width: 0.8"/>
      </g>
     </g>
     <g id="text_3">
      <!-- 37 -->
      <g transform="translate(105.993835 266.598437)scale(0.1 -0.1)">
       <defs>
        <path id="DejaVuSans-33" d="M 2597 2516 
Q 3050 2419 3304 2112 
Q 3559 1806 3559 1356 
Q 3559 666 3084 287 
Q 2609 -91 1734 -91 
Q 1441 -91 1130 -33 
Q 819 25 488 141 
L 488 750 
Q 750 597 1062 519 
Q 1375 441 1716 441 
Q 2309 441 2620 675 
Q 2931 909 2931 1356 
Q 2931 1769 2642 2001 
Q 2353 2234 1838 2234 
L 1294 2234 
L 1294 2753 
L 1863 2753 
Q 2328 2753 2575 2939 
Q 2822 3125 2822 3475 
Q 2822 3834 2567 4026 
Q 2313 4219 1838 4219 
Q 1578 4219 1281 4162 
Q 984 4106 628 3988 
L 628 4550 
Q 988 4650 1302 4700 
Q 1616 4750 1894 4750 
Q 2613 4750 3031 4423 
Q 3450 4097 3450 3541 
Q 3450 3153 3228 2886 
Q 3006 2619 2597 2516 
z
" transform="scale(0.015625)"/>
        <path id="DejaVuSans-37" d="M 525 4666 
L 3525 4666 
L 3525 4397 
L 1831 0 
L 1172 0 
L 2766 4134 
L 525 4134 
L 525 4666 
z
" transform="scale(0.015625)"/>
       </defs>
       <use xlink:href="#DejaVuSans-33"/>
       <use xlink:href="#DejaVuSans-37" x="63.623047"/>
      </g>
     </g>
    </g>
    <g id="xtick_4">
     <g id="line2d_4">
      <g>
       <use xlink:href="#m6dca4238d3" x="133.925412" y="252" style="stroke: #000000; stroke-width: 0.8"/>
      </g>
     </g>
     <g id="text_4">
      <!-- 55 -->
      <g transform="translate(127.562912 266.598437)scale(0.1 -0.1)">
       <defs>
        <path id="DejaVuSans-35" d="M 691 4666 
L 3169 4666 
L 3169 4134 
L 1269 4134 
L 1269 2991 
Q 1406 3038 1543 3061 
Q 1681 3084 1819 3084 
Q 2600 3084 3056 2656 
Q 3513 2228 3513 1497 
Q 3513 744 3044 326 
Q 2575 -91 1722 -91 
Q 1428 -91 1123 -41 
Q 819 9 494 109 
L 494 744 
Q 775 591 1075 516 
Q 1375 441 1709 441 
Q 2250 441 2565 725 
Q 2881 1009 2881 1497 
Q 2881 1984 2565 2268 
Q 2250 2553 1709 2553 
Q 1456 2553 1204 2497 
Q 953 2441 691 2322 
L 691 4666 
z
" transform="scale(0.015625)"/>
       </defs>
       <use xlink:href="#DejaVuSans-35"/>
       <use xlink:href="#DejaVuSans-35" x="63.623047"/>
      </g>
     </g>
    </g>
    <g id="xtick_5">
     <g id="line2d_5">
      <g>
       <use xlink:href="#m6dca4238d3" x="155.494488" y="252" style="stroke: #000000; stroke-width: 0.8"/>
      </g>
     </g>
     <g id="text_5">
      <!-- 73 -->
      <g transform="translate(149.131988 266.598437)scale(0.1 -0.1)">
       <use xlink:href="#DejaVuSans-37"/>
       <use xlink:href="#DejaVuSans-33" x="63.623047"/>
      </g>
     </g>
    </g>
    <g id="xtick_6">
     <g id="line2d_6">
      <g>
       <use xlink:href="#m6dca4238d3" x="177.063565" y="252" style="stroke: #000000; stroke-width: 0.8"/>
      </g>
     </g>
     <g id="text_6">
      <!-- 91 -->
      <g transform="translate(170.701065 266.598437)scale(0.1 -0.1)">
       <use xlink:href="#DejaVuSans-39"/>
       <use xlink:href="#DejaVuSans-31" x="63.623047"/>
      </g>
     </g>
    </g>
    <g id="xtick_7">
     <g id="line2d_7">
      <g>
       <use xlink:href="#m6dca4238d3" x="198.632641" y="252" style="stroke: #000000; stroke-width: 0.8"/>
      </g>
     </g>
     <g id="text_7">
      <!-- 109 -->
      <g transform="translate(189.088891 266.598437)scale(0.1 -0.1)">
       <defs>
        <path id="DejaVuSans-30" d="M 2034 4250 
Q 1547 4250 1301 3770 
Q 1056 3291 1056 2328 
Q 1056 1369 1301 889 
Q 1547 409 2034 409 
Q 2525 409 2770 889 
Q 3016 1369 3016 2328 
Q 3016 3291 2770 3770 
Q 2525 4250 2034 4250 
z
M 2034 4750 
Q 2819 4750 3233 4129 
Q 3647 3509 3647 2328 
Q 3647 1150 3233 529 
Q 2819 -91 2034 -91 
Q 1250 -91 836 529 
Q 422 1150 422 2328 
Q 422 3509 836 4129 
Q 1250 4750 2034 4750 
z
" transform="scale(0.015625)"/>
       </defs>
       <use xlink:href="#DejaVuSans-31"/>
       <use xlink:href="#DejaVuSans-30" x="63.623047"/>
       <use xlink:href="#DejaVuSans-39" x="127.246094"/>
      </g>
     </g>
    </g>
    <g id="xtick_8">
     <g id="line2d_8">
      <g>
       <use xlink:href="#m6dca4238d3" x="220.201718" y="252" style="stroke: #000000; stroke-width: 0.8"/>
      </g>
     </g>
     <g id="text_8">
      <!-- 127 -->
      <g transform="translate(210.657968 266.598437)scale(0.1 -0.1)">
       <defs>
        <path id="DejaVuSans-32" d="M 1228 531 
L 3431 531 
L 3431 0 
L 469 0 
L 469 531 
Q 828 903 1448 1529 
Q 2069 2156 2228 2338 
Q 2531 2678 2651 2914 
Q 2772 3150 2772 3378 
Q 2772 3750 2511 3984 
Q 2250 4219 1831 4219 
Q 1534 4219 1204 4116 
Q 875 4013 500 3803 
L 500 4441 
Q 881 4594 1212 4672 
Q 1544 4750 1819 4750 
Q 2544 4750 2975 4387 
Q 3406 4025 3406 3419 
Q 3406 3131 3298 2873 
Q 3191 2616 2906 2266 
Q 2828 2175 2409 1742 
Q 1991 1309 1228 531 
z
" transform="scale(0.015625)"/>
       </defs>
       <use xlink:href="#DejaVuSans-31"/>
       <use xlink:href="#DejaVuSans-32" x="63.623047"/>
       <use xlink:href="#DejaVuSans-37" x="127.246094"/>
      </g>
     </g>
    </g>
    <g id="xtick_9">
     <g id="line2d_9">
      <g>
       <use xlink:href="#m6dca4238d3" x="241.770795" y="252" style="stroke: #000000; stroke-width: 0.8"/>
      </g>
     </g>
     <g id="text_9">
      <!-- 145 -->
      <g transform="translate(232.227045 266.598437)scale(0.1 -0.1)">
       <defs>
        <path id="DejaVuSans-34" d="M 2419 4116 
L 825 1625 
L 2419 1625 
L 2419 4116 
z
M 2253 4666 
L 3047 4666 
L 3047 1625 
L 3713 1625 
L 3713 1100 
L 3047 1100 
L 3047 0 
L 2419 0 
L 2419 1100 
L 313 1100 
L 313 1709 
L 2253 4666 
z
" transform="scale(0.015625)"/>
       </defs>
       <use xlink:href="#DejaVuSans-31"/>
       <use xlink:href="#DejaVuSans-34" x="63.623047"/>
       <use xlink:href="#DejaVuSans-35" x="127.246094"/>
      </g>
     </g>
    </g>
    <g id="xtick_10">
     <g id="line2d_10">
      <g>
       <use xlink:href="#m6dca4238d3" x="263.339871" y="252" style="stroke: #000000; stroke-width: 0.8"/>
      </g>
     </g>
     <g id="text_10">
      <!-- 163 -->
      <g transform="translate(253.796121 266.598437)scale(0.1 -0.1)">
       <defs>
        <path id="DejaVuSans-36" d="M 2113 2584 
Q 1688 2584 1439 2293 
Q 1191 2003 1191 1497 
Q 1191 994 1439 701 
Q 1688 409 2113 409 
Q 2538 409 2786 701 
Q 3034 994 3034 1497 
Q 3034 2003 2786 2293 
Q 2538 2584 2113 2584 
z
M 3366 4563 
L 3366 3988 
Q 3128 4100 2886 4159 
Q 2644 4219 2406 4219 
Q 1781 4219 1451 3797 
Q 1122 3375 1075 2522 
Q 1259 2794 1537 2939 
Q 1816 3084 2150 3084 
Q 2853 3084 3261 2657 
Q 3669 2231 3669 1497 
Q 3669 778 3244 343 
Q 2819 -91 2113 -91 
Q 1303 -91 875 529 
Q 447 1150 447 2328 
Q 447 3434 972 4092 
Q 1497 4750 2381 4750 
Q 2619 4750 2861 4703 
Q 3103 4656 3366 4563 
z
" transform="scale(0.015625)"/>
       </defs>
       <use xlink:href="#DejaVuSans-31"/>
       <use xlink:href="#DejaVuSans-36" x="63.623047"/>
       <use xlink:href="#DejaVuSans-33" x="127.246094"/>
      </g>
     </g>
    </g>
    <g id="xtick_11">
     <g id="line2d_11">
      <g>
       <use xlink:href="#m6dca4238d3" x="284.908948" y="252" style="stroke: #000000; stroke-width: 0.8"/>
      </g>
     </g>
     <g id="text_11">
      <!-- 181 -->
      <g transform="translate(275.365198 266.598437)scale(0.1 -0.1)">
       <defs>
        <path id="DejaVuSans-38" d="M 2034 2216 
Q 1584 2216 1326 1975 
Q 1069 1734 1069 1313 
Q 1069 891 1326 650 
Q 1584 409 2034 409 
Q 2484 409 2743 651 
Q 3003 894 3003 1313 
Q 3003 1734 2745 1975 
Q 2488 2216 2034 2216 
z
M 1403 2484 
Q 997 2584 770 2862 
Q 544 3141 544 3541 
Q 544 4100 942 4425 
Q 1341 4750 2034 4750 
Q 2731 4750 3128 4425 
Q 3525 4100 3525 3541 
Q 3525 3141 3298 2862 
Q 3072 2584 2669 2484 
Q 3125 2378 3379 2068 
Q 3634 1759 3634 1313 
Q 3634 634 3220 271 
Q 2806 -91 2034 -91 
Q 1263 -91 848 271 
Q 434 634 434 1313 
Q 434 1759 690 2068 
Q 947 2378 1403 2484 
z
M 1172 3481 
Q 1172 3119 1398 2916 
Q 1625 2713 2034 2713 
Q 2441 2713 2670 2916 
Q 2900 3119 2900 3481 
Q 2900 3844 2670 4047 
Q 2441 4250 2034 4250 
Q 1625 4250 1398 4047 
Q 1172 3844 1172 3481 
z
" transform="scale(0.015625)"/>
       </defs>
       <use xlink:href="#DejaVuSans-31"/>
       <use xlink:href="#DejaVuSans-38" x="63.623047"/>
       <use xlink:href="#DejaVuSans-31" x="127.246094"/>
      </g>
     </g>
    </g>
    <g id="xtick_12">
     <g id="line2d_12">
      <g>
       <use xlink:href="#m6dca4238d3" x="306.478024" y="252" style="stroke: #000000; stroke-width: 0.8"/>
      </g>
     </g>
     <g id="text_12">
      <!-- 199 -->
      <g transform="translate(296.934274 266.598437)scale(0.1 -0.1)">
       <use xlink:href="#DejaVuSans-31"/>
       <use xlink:href="#DejaVuSans-39" x="63.623047"/>
       <use xlink:href="#DejaVuSans-39" x="127.246094"/>
      </g>
     </g>
    </g>
    <g id="xtick_13">
     <g id="line2d_13">
      <g>
       <use xlink:href="#m6dca4238d3" x="328.047101" y="252" style="stroke: #000000; stroke-width: 0.8"/>
      </g>
     </g>
     <g id="text_13">
      <!-- 217 -->
      <g transform="translate(318.503351 266.598437)scale(0.1 -0.1)">
       <use xlink:href="#DejaVuSans-32"/>
       <use xlink:href="#DejaVuSans-31" x="63.623047"/>
       <use xlink:href="#DejaVuSans-37" x="127.246094"/>
      </g>
     </g>
    </g>
    <g id="xtick_14">
     <g id="line2d_14">
      <g>
       <use xlink:href="#m6dca4238d3" x="349.616178" y="252" style="stroke: #000000; stroke-width: 0.8"/>
      </g>
     </g>
     <g id="text_14">
      <!-- 235 -->
      <g transform="translate(340.072428 266.598437)scale(0.1 -0.1)">
       <use xlink:href="#DejaVuSans-32"/>
       <use xlink:href="#DejaVuSans-33" x="63.623047"/>
       <use xlink:href="#DejaVuSans-35" x="127.246094"/>
      </g>
     </g>
    </g>
    <g id="xtick_15">
     <g id="line2d_15">
      <g>
       <use xlink:href="#m6dca4238d3" x="371.185254" y="252" style="stroke: #000000; stroke-width: 0.8"/>
      </g>
     </g>
     <g id="text_15">
      <!-- 253 -->
      <g transform="translate(361.641504 266.598437)scale(0.1 -0.1)">
       <use xlink:href="#DejaVuSans-32"/>
       <use xlink:href="#DejaVuSans-35" x="63.623047"/>
       <use xlink:href="#DejaVuSans-33" x="127.246094"/>
      </g>
     </g>
    </g>
    <g id="text_16">
     <!-- Program size -->
     <g transform="translate(189.022656 280.276563)scale(0.1 -0.1)">
      <defs>
       <path id="DejaVuSans-50" d="M 1259 4147 
L 1259 2394 
L 2053 2394 
Q 2494 2394 2734 2622 
Q 2975 2850 2975 3272 
Q 2975 3691 2734 3919 
Q 2494 4147 2053 4147 
L 1259 4147 
z
M 628 4666 
L 2053 4666 
Q 2838 4666 3239 4311 
Q 3641 3956 3641 3272 
Q 3641 2581 3239 2228 
Q 2838 1875 2053 1875 
L 1259 1875 
L 1259 0 
L 628 0 
L 628 4666 
z
" transform="scale(0.015625)"/>
       <path id="DejaVuSans-72" d="M 2631 2963 
Q 2534 3019 2420 3045 
Q 2306 3072 2169 3072 
Q 1681 3072 1420 2755 
Q 1159 2438 1159 1844 
L 1159 0 
L 581 0 
L 581 3500 
L 1159 3500 
L 1159 2956 
Q 1341 3275 1631 3429 
Q 1922 3584 2338 3584 
Q 2397 3584 2469 3576 
Q 2541 3569 2628 3553 
L 2631 2963 
z
" transform="scale(0.015625)"/>
       <path id="DejaVuSans-6f" d="M 1959 3097 
Q 1497 3097 1228 2736 
Q 959 2375 959 1747 
Q 959 1119 1226 758 
Q 1494 397 1959 397 
Q 2419 397 2687 759 
Q 2956 1122 2956 1747 
Q 2956 2369 2687 2733 
Q 2419 3097 1959 3097 
z
M 1959 3584 
Q 2709 3584 3137 3096 
Q 3566 2609 3566 1747 
Q 3566 888 3137 398 
Q 2709 -91 1959 -91 
Q 1206 -91 779 398 
Q 353 888 353 1747 
Q 353 2609 779 3096 
Q 1206 3584 1959 3584 
z
" transform="scale(0.015625)"/>
       <path id="DejaVuSans-67" d="M 2906 1791 
Q 2906 2416 2648 2759 
Q 2391 3103 1925 3103 
Q 1463 3103 1205 2759 
Q 947 2416 947 1791 
Q 947 1169 1205 825 
Q 1463 481 1925 481 
Q 2391 481 2648 825 
Q 2906 1169 2906 1791 
z
M 3481 434 
Q 3481 -459 3084 -895 
Q 2688 -1331 1869 -1331 
Q 1566 -1331 1297 -1286 
Q 1028 -1241 775 -1147 
L 775 -588 
Q 1028 -725 1275 -790 
Q 1522 -856 1778 -856 
Q 2344 -856 2625 -561 
Q 2906 -266 2906 331 
L 2906 616 
Q 2728 306 2450 153 
Q 2172 0 1784 0 
Q 1141 0 747 490 
Q 353 981 353 1791 
Q 353 2603 747 3093 
Q 1141 3584 1784 3584 
Q 2172 3584 2450 3431 
Q 2728 3278 2906 2969 
L 2906 3500 
L 3481 3500 
L 3481 434 
z
" transform="scale(0.015625)"/>
       <path id="DejaVuSans-61" d="M 2194 1759 
Q 1497 1759 1228 1600 
Q 959 1441 959 1056 
Q 959 750 1161 570 
Q 1363 391 1709 391 
Q 2188 391 2477 730 
Q 2766 1069 2766 1631 
L 2766 1759 
L 2194 1759 
z
M 3341 1997 
L 3341 0 
L 2766 0 
L 2766 531 
Q 2569 213 2275 61 
Q 1981 -91 1556 -91 
Q 1019 -91 701 211 
Q 384 513 384 1019 
Q 384 1609 779 1909 
Q 1175 2209 1959 2209 
L 2766 2209 
L 2766 2266 
Q 2766 2663 2505 2880 
Q 2244 3097 1772 3097 
Q 1472 3097 1187 3025 
Q 903 2953 641 2809 
L 641 3341 
Q 956 3463 1253 3523 
Q 1550 3584 1831 3584 
Q 2591 3584 2966 3190 
Q 3341 2797 3341 1997 
z
" transform="scale(0.015625)"/>
       <path id="DejaVuSans-6d" d="M 3328 2828 
Q 3544 3216 3844 3400 
Q 4144 3584 4550 3584 
Q 5097 3584 5394 3201 
Q 5691 2819 5691 2113 
L 5691 0 
L 5113 0 
L 5113 2094 
Q 5113 2597 4934 2840 
Q 4756 3084 4391 3084 
Q 3944 3084 3684 2787 
Q 3425 2491 3425 1978 
L 3425 0 
L 2847 0 
L 2847 2094 
Q 2847 2600 2669 2842 
Q 2491 3084 2119 3084 
Q 1678 3084 1418 2786 
Q 1159 2488 1159 1978 
L 1159 0 
L 581 0 
L 581 3500 
L 1159 3500 
L 1159 2956 
Q 1356 3278 1631 3431 
Q 1906 3584 2284 3584 
Q 2666 3584 2933 3390 
Q 3200 3197 3328 2828 
z
" transform="scale(0.015625)"/>
       <path id="DejaVuSans-20" transform="scale(0.015625)"/>
       <path id="DejaVuSans-73" d="M 2834 3397 
L 2834 2853 
Q 2591 2978 2328 3040 
Q 2066 3103 1784 3103 
Q 1356 3103 1142 2972 
Q 928 2841 928 2578 
Q 928 2378 1081 2264 
Q 1234 2150 1697 2047 
L 1894 2003 
Q 2506 1872 2764 1633 
Q 3022 1394 3022 966 
Q 3022 478 2636 193 
Q 2250 -91 1575 -91 
Q 1294 -91 989 -36 
Q 684 19 347 128 
L 347 722 
Q 666 556 975 473 
Q 1284 391 1588 391 
Q 1994 391 2212 530 
Q 2431 669 2431 922 
Q 2431 1156 2273 1281 
Q 2116 1406 1581 1522 
L 1381 1569 
Q 847 1681 609 1914 
Q 372 2147 372 2553 
Q 372 3047 722 3315 
Q 1072 3584 1716 3584 
Q 2034 3584 2315 3537 
Q 2597 3491 2834 3397 
z
" transform="scale(0.015625)"/>
       <path id="DejaVuSans-69" d="M 603 3500 
L 1178 3500 
L 1178 0 
L 603 0 
L 603 3500 
z
M 603 4863 
L 1178 4863 
L 1178 4134 
L 603 4134 
L 603 4863 
z
" transform="scale(0.015625)"/>
       <path id="DejaVuSans-7a" d="M 353 3500 
L 3084 3500 
L 3084 2975 
L 922 459 
L 3084 459 
L 3084 0 
L 275 0 
L 275 525 
L 2438 3041 
L 353 3041 
L 353 3500 
z
" transform="scale(0.015625)"/>
       <path id="DejaVuSans-65" d="M 3597 1894 
L 3597 1613 
L 953 1613 
Q 991 1019 1311 708 
Q 1631 397 2203 397 
Q 2534 397 2845 478 
Q 3156 559 3463 722 
L 3463 178 
Q 3153 47 2828 -22 
Q 2503 -91 2169 -91 
Q 1331 -91 842 396 
Q 353 884 353 1716 
Q 353 2575 817 3079 
Q 1281 3584 2069 3584 
Q 2775 3584 3186 3129 
Q 3597 2675 3597 1894 
z
M 3022 2063 
Q 3016 2534 2758 2815 
Q 2500 3097 2075 3097 
Q 1594 3097 1305 2825 
Q 1016 2553 972 2059 
L 3022 2063 
z
" transform="scale(0.015625)"/>
      </defs>
      <use xlink:href="#DejaVuSans-50"/>
      <use xlink:href="#DejaVuSans-72" x="58.552734"/>
      <use xlink:href="#DejaVuSans-6f" x="97.416016"/>
      <use xlink:href="#DejaVuSans-67" x="158.597656"/>
      <use xlink:href="#DejaVuSans-72" x="222.074219"/>
      <use xlink:href="#DejaVuSans-61" x="263.1875"/>
      <use xlink:href="#DejaVuSans-6d" x="324.466797"/>
      <use xlink:href="#DejaVuSans-20" x="421.878906"/>
      <use xlink:href="#DejaVuSans-73" x="453.666016"/>
      <use xlink:href="#DejaVuSans-69" x="505.765625"/>
      <use xlink:href="#DejaVuSans-7a" x="533.548828"/>
      <use xlink:href="#DejaVuSans-65" x="586.039062"/>
     </g>
    </g>
   </g>
   <g id="matplotlib.axis_2">
    <g id="ytick_1">
     <g id="line2d_16">
      <defs>
       <path id="m90c5542a2d" d="M 0 0 
L -3.5 0 
" style="stroke: #000000; stroke-width: 0.8"/>
      </defs>
      <g>
       <use xlink:href="#m90c5542a2d" x="54" y="246.218448" style="stroke: #000000; stroke-width: 0.8"/>
      </g>
     </g>
     <g id="text_17">
      <!-- $\mathdefault{10^{4}}$ -->
      <g transform="translate(29.4 250.017667)scale(0.1 -0.1)">
       <use xlink:href="#DejaVuSans-31" transform="translate(0 0.684375)"/>
       <use xlink:href="#DejaVuSans-30" transform="translate(63.623047 0.684375)"/>
       <use xlink:href="#DejaVuSans-34" transform="translate(128.203125 38.965625)scale(0.7)"/>
      </g>
     </g>
    </g>
    <g id="ytick_2">
     <g id="line2d_17">
      <g>
       <use xlink:href="#m90c5542a2d" x="54" y="212.085131" style="stroke: #000000; stroke-width: 0.8"/>
      </g>
     </g>
     <g id="text_18">
      <!-- $\mathdefault{10^{5}}$ -->
      <g transform="translate(29.4 215.88435)scale(0.1 -0.1)">
       <use xlink:href="#DejaVuSans-31" transform="translate(0 0.684375)"/>
       <use xlink:href="#DejaVuSans-30" transform="translate(63.623047 0.684375)"/>
       <use xlink:href="#DejaVuSans-35" transform="translate(128.203125 38.965625)scale(0.7)"/>
      </g>
     </g>
    </g>
    <g id="ytick_3">
     <g id="line2d_18">
      <g>
       <use xlink:href="#m90c5542a2d" x="54" y="177.951814" style="stroke: #000000; stroke-width: 0.8"/>
      </g>
     </g>
     <g id="text_19">
      <!-- $\mathdefault{10^{6}}$ -->
      <g transform="translate(29.4 181.751033)scale(0.1 -0.1)">
       <use xlink:href="#DejaVuSans-31" transform="translate(0 0.765625)"/>
       <use xlink:href="#DejaVuSans-30" transform="translate(63.623047 0.765625)"/>
       <use xlink:href="#DejaVuSans-36" transform="translate(128.203125 39.046875)scale(0.7)"/>
      </g>
     </g>
    </g>
    <g id="ytick_4">
     <g id="line2d_19">
      <g>
       <use xlink:href="#m90c5542a2d" x="54" y="143.818497" style="stroke: #000000; stroke-width: 0.8"/>
      </g>
     </g>
     <g id="text_20">
      <!-- $\mathdefault{10^{7}}$ -->
      <g transform="translate(29.4 147.617716)scale(0.1 -0.1)">
       <use xlink:href="#DejaVuSans-31" transform="translate(0 0.684375)"/>
       <use xlink:href="#DejaVuSans-30" transform="translate(63.623047 0.684375)"/>
       <use xlink:href="#DejaVuSans-37" transform="translate(128.203125 38.965625)scale(0.7)"/>
      </g>
     </g>
    </g>
    <g id="ytick_5">
     <g id="line2d_20">
      <g>
       <use xlink:href="#m90c5542a2d" x="54" y="109.68518" style="stroke: #000000; stroke-width: 0.8"/>
      </g>
     </g>
     <g id="text_21">
      <!-- $\mathdefault{10^{8}}$ -->
      <g transform="translate(29.4 113.484399)scale(0.1 -0.1)">
       <use xlink:href="#DejaVuSans-31" transform="translate(0 0.765625)"/>
       <use xlink:href="#DejaVuSans-30" transform="translate(63.623047 0.765625)"/>
       <use xlink:href="#DejaVuSans-38" transform="translate(128.203125 39.046875)scale(0.7)"/>
      </g>
     </g>
    </g>
    <g id="ytick_6">
     <g id="line2d_21">
      <g>
       <use xlink:href="#m90c5542a2d" x="54" y="75.551863" style="stroke: #000000; stroke-width: 0.8"/>
      </g>
     </g>
     <g id="text_22">
      <!-- $\mathdefault{10^{9}}$ -->
      <g transform="translate(29.4 79.351082)scale(0.1 -0.1)">
       <use xlink:href="#DejaVuSans-31" transform="translate(0 0.765625)"/>
       <use xlink:href="#DejaVuSans-30" transform="translate(63.623047 0.765625)"/>
       <use xlink:href="#DejaVuSans-39" transform="translate(128.203125 39.046875)scale(0.7)"/>
      </g>
     </g>
    </g>
    <g id="ytick_7">
     <g id="line2d_22">
      <g>
       <use xlink:href="#m90c5542a2d" x="54" y="41.418546" style="stroke: #000000; stroke-width: 0.8"/>
      </g>
     </g>
     <g id="text_23">
      <!-- $\mathdefault{10^{10}}$ -->
      <g transform="translate(24.9 45.217765)scale(0.1 -0.1)">
       <use xlink:href="#DejaVuSans-31" transform="translate(0 0.765625)"/>
       <use xlink:href="#DejaVuSans-30" transform="translate(63.623047 0.765625)"/>
       <use xlink:href="#DejaVuSans-31" transform="translate(128.203125 39.046875)scale(0.7)"/>
       <use xlink:href="#DejaVuSans-30" transform="translate(172.739258 39.046875)scale(0.7)"/>
      </g>
     </g>
    </g>
    <g id="ytick_8">
     <g id="line2d_23">
      <defs>
       <path id="m38aae0d492" d="M 0 0 
L -2 0 
" style="stroke: #000000; stroke-width: 0.6"/>
      </defs>
      <g>
       <use xlink:href="#m38aae0d492" x="54" y="251.505766" style="stroke: #000000; stroke-width: 0.6"/>
      </g>
     </g>
    </g>
    <g id="ytick_9">
     <g id="line2d_24">
      <g>
       <use xlink:href="#m38aae0d492" x="54" y="249.526309" style="stroke: #000000; stroke-width: 0.6"/>
      </g>
     </g>
    </g>
    <g id="ytick_10">
     <g id="line2d_25">
      <g>
       <use xlink:href="#m38aae0d492" x="54" y="247.780303" style="stroke: #000000; stroke-width: 0.6"/>
      </g>
     </g>
    </g>
    <g id="ytick_11">
     <g id="line2d_26">
      <g>
       <use xlink:href="#m38aae0d492" x="54" y="235.943296" style="stroke: #000000; stroke-width: 0.6"/>
      </g>
     </g>
    </g>
    <g id="ytick_12">
     <g id="line2d_27">
      <g>
       <use xlink:href="#m38aae0d492" x="54" y="229.932717" style="stroke: #000000; stroke-width: 0.6"/>
      </g>
     </g>
    </g>
    <g id="ytick_13">
     <g id="line2d_28">
      <g>
       <use xlink:href="#m38aae0d492" x="54" y="225.668144" style="stroke: #000000; stroke-width: 0.6"/>
      </g>
     </g>
    </g>
    <g id="ytick_14">
     <g id="line2d_29">
      <g>
       <use xlink:href="#m38aae0d492" x="54" y="222.360284" style="stroke: #000000; stroke-width: 0.6"/>
      </g>
     </g>
    </g>
    <g id="ytick_15">
     <g id="line2d_30">
      <g>
       <use xlink:href="#m38aae0d492" x="54" y="219.657565" style="stroke: #000000; stroke-width: 0.6"/>
      </g>
     </g>
    </g>
    <g id="ytick_16">
     <g id="line2d_31">
      <g>
       <use xlink:href="#m38aae0d492" x="54" y="217.372449" style="stroke: #000000; stroke-width: 0.6"/>
      </g>
     </g>
    </g>
    <g id="ytick_17">
     <g id="line2d_32">
      <g>
       <use xlink:href="#m38aae0d492" x="54" y="215.392991" style="stroke: #000000; stroke-width: 0.6"/>
      </g>
     </g>
    </g>
    <g id="ytick_18">
     <g id="line2d_33">
      <g>
       <use xlink:href="#m38aae0d492" x="54" y="213.646986" style="stroke: #000000; stroke-width: 0.6"/>
      </g>
     </g>
    </g>
    <g id="ytick_19">
     <g id="line2d_34">
      <g>
       <use xlink:href="#m38aae0d492" x="54" y="201.809979" style="stroke: #000000; stroke-width: 0.6"/>
      </g>
     </g>
    </g>
    <g id="ytick_20">
     <g id="line2d_35">
      <g>
       <use xlink:href="#m38aae0d492" x="54" y="195.7994" style="stroke: #000000; stroke-width: 0.6"/>
      </g>
     </g>
    </g>
    <g id="ytick_21">
     <g id="line2d_36">
      <g>
       <use xlink:href="#m38aae0d492" x="54" y="191.534827" style="stroke: #000000; stroke-width: 0.6"/>
      </g>
     </g>
    </g>
    <g id="ytick_22">
     <g id="line2d_37">
      <g>
       <use xlink:href="#m38aae0d492" x="54" y="188.226967" style="stroke: #000000; stroke-width: 0.6"/>
      </g>
     </g>
    </g>
    <g id="ytick_23">
     <g id="line2d_38">
      <g>
       <use xlink:href="#m38aae0d492" x="54" y="185.524248" style="stroke: #000000; stroke-width: 0.6"/>
      </g>
     </g>
    </g>
    <g id="ytick_24">
     <g id="line2d_39">
      <g>
       <use xlink:href="#m38aae0d492" x="54" y="183.239132" style="stroke: #000000; stroke-width: 0.6"/>
      </g>
     </g>
    </g>
    <g id="ytick_25">
     <g id="line2d_40">
      <g>
       <use xlink:href="#m38aae0d492" x="54" y="181.259674" style="stroke: #000000; stroke-width: 0.6"/>
      </g>
     </g>
    </g>
    <g id="ytick_26">
     <g id="line2d_41">
      <g>
       <use xlink:href="#m38aae0d492" x="54" y="179.513669" style="stroke: #000000; stroke-width: 0.6"/>
      </g>
     </g>
    </g>
    <g id="ytick_27">
     <g id="line2d_42">
      <g>
       <use xlink:href="#m38aae0d492" x="54" y="167.676662" style="stroke: #000000; stroke-width: 0.6"/>
      </g>
     </g>
    </g>
    <g id="ytick_28">
     <g id="line2d_43">
      <g>
       <use xlink:href="#m38aae0d492" x="54" y="161.666083" style="stroke: #000000; stroke-width: 0.6"/>
      </g>
     </g>
    </g>
    <g id="ytick_29">
     <g id="line2d_44">
      <g>
       <use xlink:href="#m38aae0d492" x="54" y="157.40151" style="stroke: #000000; stroke-width: 0.6"/>
      </g>
     </g>
    </g>
    <g id="ytick_30">
     <g id="line2d_45">
      <g>
       <use xlink:href="#m38aae0d492" x="54" y="154.093649" style="stroke: #000000; stroke-width: 0.6"/>
      </g>
     </g>
    </g>
    <g id="ytick_31">
     <g id="line2d_46">
      <g>
       <use xlink:href="#m38aae0d492" x="54" y="151.390931" style="stroke: #000000; stroke-width: 0.6"/>
      </g>
     </g>
    </g>
    <g id="ytick_32">
     <g id="line2d_47">
      <g>
       <use xlink:href="#m38aae0d492" x="54" y="149.105815" style="stroke: #000000; stroke-width: 0.6"/>
      </g>
     </g>
    </g>
    <g id="ytick_33">
     <g id="line2d_48">
      <g>
       <use xlink:href="#m38aae0d492" x="54" y="147.126357" style="stroke: #000000; stroke-width: 0.6"/>
      </g>
     </g>
    </g>
    <g id="ytick_34">
     <g id="line2d_49">
      <g>
       <use xlink:href="#m38aae0d492" x="54" y="145.380352" style="stroke: #000000; stroke-width: 0.6"/>
      </g>
     </g>
    </g>
    <g id="ytick_35">
     <g id="line2d_50">
      <g>
       <use xlink:href="#m38aae0d492" x="54" y="133.543345" style="stroke: #000000; stroke-width: 0.6"/>
      </g>
     </g>
    </g>
    <g id="ytick_36">
     <g id="line2d_51">
      <g>
       <use xlink:href="#m38aae0d492" x="54" y="127.532766" style="stroke: #000000; stroke-width: 0.6"/>
      </g>
     </g>
    </g>
    <g id="ytick_37">
     <g id="line2d_52">
      <g>
       <use xlink:href="#m38aae0d492" x="54" y="123.268193" style="stroke: #000000; stroke-width: 0.6"/>
      </g>
     </g>
    </g>
    <g id="ytick_38">
     <g id="line2d_53">
      <g>
       <use xlink:href="#m38aae0d492" x="54" y="119.960332" style="stroke: #000000; stroke-width: 0.6"/>
      </g>
     </g>
    </g>
    <g id="ytick_39">
     <g id="line2d_54">
      <g>
       <use xlink:href="#m38aae0d492" x="54" y="117.257614" style="stroke: #000000; stroke-width: 0.6"/>
      </g>
     </g>
    </g>
    <g id="ytick_40">
     <g id="line2d_55">
      <g>
       <use xlink:href="#m38aae0d492" x="54" y="114.972498" style="stroke: #000000; stroke-width: 0.6"/>
      </g>
     </g>
    </g>
    <g id="ytick_41">
     <g id="line2d_56">
      <g>
       <use xlink:href="#m38aae0d492" x="54" y="112.99304" style="stroke: #000000; stroke-width: 0.6"/>
      </g>
     </g>
    </g>
    <g id="ytick_42">
     <g id="line2d_57">
      <g>
       <use xlink:href="#m38aae0d492" x="54" y="111.247035" style="stroke: #000000; stroke-width: 0.6"/>
      </g>
     </g>
    </g>
    <g id="ytick_43">
     <g id="line2d_58">
      <g>
       <use xlink:href="#m38aae0d492" x="54" y="99.410028" style="stroke: #000000; stroke-width: 0.6"/>
      </g>
     </g>
    </g>
    <g id="ytick_44">
     <g id="line2d_59">
      <g>
       <use xlink:href="#m38aae0d492" x="54" y="93.399449" style="stroke: #000000; stroke-width: 0.6"/>
      </g>
     </g>
    </g>
    <g id="ytick_45">
     <g id="line2d_60">
      <g>
       <use xlink:href="#m38aae0d492" x="54" y="89.134876" style="stroke: #000000; stroke-width: 0.6"/>
      </g>
     </g>
    </g>
    <g id="ytick_46">
     <g id="line2d_61">
      <g>
       <use xlink:href="#m38aae0d492" x="54" y="85.827015" style="stroke: #000000; stroke-width: 0.6"/>
      </g>
     </g>
    </g>
    <g id="ytick_47">
     <g id="line2d_62">
      <g>
       <use xlink:href="#m38aae0d492" x="54" y="83.124297" style="stroke: #000000; stroke-width: 0.6"/>
      </g>
     </g>
    </g>
    <g id="ytick_48">
     <g id="line2d_63">
      <g>
       <use xlink:href="#m38aae0d492" x="54" y="80.839181" style="stroke: #000000; stroke-width: 0.6"/>
      </g>
     </g>
    </g>
    <g id="ytick_49">
     <g id="line2d_64">
      <g>
       <use xlink:href="#m38aae0d492" x="54" y="78.859723" style="stroke: #000000; stroke-width: 0.6"/>
      </g>
     </g>
    </g>
    <g id="ytick_50">
     <g id="line2d_65">
      <g>
       <use xlink:href="#m38aae0d492" x="54" y="77.113718" style="stroke: #000000; stroke-width: 0.6"/>
      </g>
     </g>
    </g>
    <g id="ytick_51">
     <g id="line2d_66">
      <g>
       <use xlink:href="#m38aae0d492" x="54" y="65.276711" style="stroke: #000000; stroke-width: 0.6"/>
      </g>
     </g>
    </g>
    <g id="ytick_52">
     <g id="line2d_67">
      <g>
       <use xlink:href="#m38aae0d492" x="54" y="59.266132" style="stroke: #000000; stroke-width: 0.6"/>
      </g>
     </g>
    </g>
    <g id="ytick_53">
     <g id="line2d_68">
      <g>
       <use xlink:href="#m38aae0d492" x="54" y="55.001559" style="stroke: #000000; stroke-width: 0.6"/>
      </g>
     </g>
    </g>
    <g id="ytick_54">
     <g id="line2d_69">
      <g>
       <use xlink:href="#m38aae0d492" x="54" y="51.693698" style="stroke: #000000; stroke-width: 0.6"/>
      </g>
     </g>
    </g>
    <g id="ytick_55">
     <g id="line2d_70">
      <g>
       <use xlink:href="#m38aae0d492" x="54" y="48.99098" style="stroke: #000000; stroke-width: 0.6"/>
      </g>
     </g>
    </g>
    <g id="ytick_56">
     <g id="line2d_71">
      <g>
       <use xlink:href="#m38aae0d492" x="54" y="46.705864" style="stroke: #000000; stroke-width: 0.6"/>
      </g>
     </g>
    </g>
    <g id="ytick_57">
     <g id="line2d_72">
      <g>
       <use xlink:href="#m38aae0d492" x="54" y="44.726406" style="stroke: #000000; stroke-width: 0.6"/>
      </g>
     </g>
    </g>
    <g id="ytick_58">
     <g id="line2d_73">
      <g>
       <use xlink:href="#m38aae0d492" x="54" y="42.980401" style="stroke: #000000; stroke-width: 0.6"/>
      </g>
     </g>
    </g>
    <g id="text_24">
     <!-- Median NEPS -->
     <g transform="translate(18.820312 176.144844)rotate(-90)scale(0.1 -0.1)">
      <defs>
       <path id="DejaVuSans-4d" d="M 628 4666 
L 1569 4666 
L 2759 1491 
L 3956 4666 
L 4897 4666 
L 4897 0 
L 4281 0 
L 4281 4097 
L 3078 897 
L 2444 897 
L 1241 4097 
L 1241 0 
L 628 0 
L 628 4666 
z
" transform="scale(0.015625)"/>
       <path id="DejaVuSans-64" d="M 2906 2969 
L 2906 4863 
L 3481 4863 
L 3481 0 
L 2906 0 
L 2906 525 
Q 2725 213 2448 61 
Q 2172 -91 1784 -91 
Q 1150 -91 751 415 
Q 353 922 353 1747 
Q 353 2572 751 3078 
Q 1150 3584 1784 3584 
Q 2172 3584 2448 3432 
Q 2725 3281 2906 2969 
z
M 947 1747 
Q 947 1113 1208 752 
Q 1469 391 1925 391 
Q 2381 391 2643 752 
Q 2906 1113 2906 1747 
Q 2906 2381 2643 2742 
Q 2381 3103 1925 3103 
Q 1469 3103 1208 2742 
Q 947 2381 947 1747 
z
" transform="scale(0.015625)"/>
       <path id="DejaVuSans-6e" d="M 3513 2113 
L 3513 0 
L 2938 0 
L 2938 2094 
Q 2938 2591 2744 2837 
Q 2550 3084 2163 3084 
Q 1697 3084 1428 2787 
Q 1159 2491 1159 1978 
L 1159 0 
L 581 0 
L 581 3500 
L 1159 3500 
L 1159 2956 
Q 1366 3272 1645 3428 
Q 1925 3584 2291 3584 
Q 2894 3584 3203 3211 
Q 3513 2838 3513 2113 
z
" transform="scale(0.015625)"/>
       <path id="DejaVuSans-4e" d="M 628 4666 
L 1478 4666 
L 3547 763 
L 3547 4666 
L 4159 4666 
L 4159 0 
L 3309 0 
L 1241 3903 
L 1241 0 
L 628 0 
L 628 4666 
z
" transform="scale(0.015625)"/>
       <path id="DejaVuSans-45" d="M 628 4666 
L 3578 4666 
L 3578 4134 
L 1259 4134 
L 1259 2753 
L 3481 2753 
L 3481 2222 
L 1259 2222 
L 1259 531 
L 3634 531 
L 3634 0 
L 628 0 
L 628 4666 
z
" transform="scale(0.015625)"/>
       <path id="DejaVuSans-53" d="M 3425 4513 
L 3425 3897 
Q 3066 4069 2747 4153 
Q 2428 4238 2131 4238 
Q 1616 4238 1336 4038 
Q 1056 3838 1056 3469 
Q 1056 3159 1242 3001 
Q 1428 2844 1947 2747 
L 2328 2669 
Q 3034 2534 3370 2195 
Q 3706 1856 3706 1288 
Q 3706 609 3251 259 
Q 2797 -91 1919 -91 
Q 1588 -91 1214 -16 
Q 841 59 441 206 
L 441 856 
Q 825 641 1194 531 
Q 1563 422 1919 422 
Q 2459 422 2753 634 
Q 3047 847 3047 1241 
Q 3047 1584 2836 1778 
Q 2625 1972 2144 2069 
L 1759 2144 
Q 1053 2284 737 2584 
Q 422 2884 422 3419 
Q 422 4038 858 4394 
Q 1294 4750 2059 4750 
Q 2388 4750 2728 4690 
Q 3069 4631 3425 4513 
z
" transform="scale(0.015625)"/>
      </defs>
      <use xlink:href="#DejaVuSans-4d"/>
      <use xlink:href="#DejaVuSans-65" x="86.279297"/>
      <use xlink:href="#DejaVuSans-64" x="147.802734"/>
      <use xlink:href="#DejaVuSans-69" x="211.279297"/>
      <use xlink:href="#DejaVuSans-61" x="239.0625"/>
      <use xlink:href="#DejaVuSans-6e" x="300.341797"/>
      <use xlink:href="#DejaVuSans-20" x="363.720703"/>
      <use xlink:href="#DejaVuSans-4e" x="395.507812"/>
      <use xlink:href="#DejaVuSans-45" x="470.3125"/>
      <use xlink:href="#DejaVuSans-50" x="533.496094"/>
      <use xlink:href="#DejaVuSans-53" x="593.798828"/>
     </g>
    </g>
   </g>
   <g id="line2d_74">
    <path d="M 69.218182 217.411316 
L 71.614746 204.292148 
L 74.01131 193.802348 
L 76.407874 192.180243 
L 78.804438 185.982917 
L 81.201002 182.542152 
L 83.597566 179.468474 
L 90.787258 175.779724 
L 93.183822 176.772501 
L 95.580387 173.072138 
L 97.976951 175.111168 
L 100.373515 171.305816 
L 102.770079 170.044364 
L 105.166643 169.182497 
L 107.563207 172.108922 
L 109.959771 167.196866 
L 112.356335 168.558632 
L 114.752899 166.312555 
L 117.149463 166.286108 
L 119.546027 165.213548 
L 121.942591 165.898581 
L 124.339155 163.812146 
L 126.735719 163.079336 
L 129.132283 163.39525 
L 131.528848 164.09624 
L 133.925412 162.112728 
L 136.321976 161.051636 
L 138.71854 161.285899 
L 141.115104 161.70361 
L 143.511668 162.004305 
L 145.908232 165.274537 
L 148.304796 161.779948 
L 150.70136 160.354638 
L 153.097924 161.220804 
L 155.494488 159.873065 
L 157.891052 164.56165 
L 160.287616 160.077964 
L 162.68418 161.733941 
L 165.080744 158.428591 
L 167.477309 163.53215 
L 169.873873 158.700987 
L 172.270437 160.039893 
L 174.667001 159.260957 
L 177.063565 158.156001 
L 179.460129 158.732448 
L 181.856693 158.118964 
L 184.253257 158.136407 
L 186.649821 156.938556 
L 189.046385 157.785905 
L 191.442949 157.817455 
L 193.839513 156.897722 
L 196.236077 156.983799 
L 198.632641 155.832246 
L 201.029205 156.609919 
L 203.42577 157.016465 
L 205.822334 156.625493 
L 208.218898 157.073979 
L 210.615462 155.200459 
L 213.012026 156.010853 
L 215.40859 155.221198 
L 217.805154 155.286572 
L 220.201718 155.509549 
L 224.994846 155.010351 
L 227.39141 155.38528 
L 229.787974 154.625855 
L 232.184538 155.623744 
L 234.581102 153.879998 
L 236.977666 154.988805 
L 239.37423 153.261363 
L 241.770795 154.000538 
L 244.167359 153.945845 
L 246.563923 154.56238 
L 251.357051 153.973905 
L 253.753615 153.205605 
L 256.150179 152.652048 
L 258.546743 152.94461 
L 260.943307 152.45979 
L 263.339871 153.368273 
L 265.736435 153.121873 
L 268.132999 153.286165 
L 270.529563 154.161444 
L 272.926127 152.367902 
L 275.322691 152.39052 
L 277.719256 157.933594 
L 280.11582 153.817996 
L 282.512384 152.017835 
L 284.908948 152.619026 
L 287.305512 152.296854 
L 289.702076 152.442221 
L 292.09864 152.34462 
L 294.495204 153.314432 
L 296.891768 152.493112 
L 299.288332 152.615114 
L 301.684896 159.706086 
L 304.08146 151.65261 
L 306.478024 159.006158 
L 308.874588 151.152473 
L 311.271152 151.898843 
L 313.667717 151.669461 
L 316.064281 152.384424 
L 318.460845 152.983215 
L 320.857409 152.113999 
L 323.253973 152.423945 
L 325.650537 151.461704 
L 328.047101 153.275419 
L 330.443665 151.337948 
L 332.840229 152.379336 
L 335.236793 153.197632 
L 337.633357 150.750998 
L 340.029921 150.56099 
L 342.426485 152.034158 
L 344.823049 151.273938 
L 347.219613 151.250291 
L 349.616178 150.717878 
L 352.012742 151.59514 
L 354.409306 150.05495 
L 356.80587 151.280913 
L 359.202434 150.908101 
L 363.995562 151.319864 
L 366.392126 150.572885 
L 368.78869 150.40461 
L 371.185254 150.361806 
L 373.581818 150.706922 
L 373.581818 150.706922 
" clip-path="url(#pe7e0f4812f)" style="fill: none; stroke: #1f77b4; stroke-width: 1.5; stroke-linecap: square"/>
   </g>
   <g id="line2d_75">
    <path d="M 69.218182 242.116364 
L 71.614746 181.756292 
L 74.01131 173.439842 
L 76.407874 168.419328 
L 78.804438 165.069203 
L 81.201002 165.826699 
L 83.597566 156.345928 
L 85.99413 158.486861 
L 88.390694 164.226808 
L 93.183822 158.643692 
L 95.580387 157.650421 
L 97.976951 155.39146 
L 100.373515 159.179375 
L 102.770079 156.642552 
L 105.166643 156.718079 
L 107.563207 155.489612 
L 109.959771 158.362645 
L 112.356335 159.031206 
L 114.752899 152.223912 
L 119.546027 153.915987 
L 121.942591 155.754701 
L 126.735719 154.416559 
L 129.132283 155.414585 
L 131.528848 156.919612 
L 133.925412 151.492614 
L 136.321976 153.816364 
L 138.71854 155.86457 
L 141.115104 159.726584 
L 143.511668 156.353937 
L 145.908232 156.502921 
L 148.304796 153.815422 
L 150.70136 153.449501 
L 153.097924 152.631566 
L 155.494488 151.6033 
L 157.891052 154.858564 
L 160.287616 155.703083 
L 162.68418 153.042527 
L 165.080744 150.071874 
L 167.477309 153.482217 
L 169.873873 151.696107 
L 172.270437 153.577343 
L 174.667001 153.714435 
L 177.063565 153.427772 
L 179.460129 153.396825 
L 181.856693 154.806949 
L 184.253257 153.553408 
L 186.649821 152.601235 
L 189.046385 153.614347 
L 191.442949 154.774433 
L 193.839513 152.328913 
L 196.236077 153.794203 
L 198.632641 152.179192 
L 201.029205 153.422776 
L 203.42577 155.16376 
L 205.822334 152.658654 
L 208.218898 154.848295 
L 210.615462 153.093719 
L 213.012026 157.577644 
L 215.40859 152.788335 
L 217.805154 151.207932 
L 220.201718 153.102041 
L 222.598282 152.774968 
L 224.994846 152.968467 
L 227.39141 157.336625 
L 229.787974 156.331365 
L 232.184538 156.742272 
L 234.581102 155.325123 
L 236.977666 156.809783 
L 239.37423 155.590656 
L 241.770795 157.017404 
L 244.167359 157.184848 
L 246.563923 156.293164 
L 248.960487 153.696251 
L 251.357051 152.576513 
L 253.753615 153.467531 
L 256.150179 152.087402 
L 258.546743 152.981869 
L 260.943307 151.262127 
L 263.339871 153.909145 
L 265.736435 152.295353 
L 268.132999 156.825401 
L 270.529563 154.395131 
L 272.926127 152.372473 
L 277.719256 151.401809 
L 280.11582 157.662601 
L 282.512384 155.279267 
L 284.908948 156.004055 
L 287.305512 151.923438 
L 289.702076 151.050669 
L 292.09864 151.449851 
L 294.495204 152.258673 
L 296.891768 151.973969 
L 299.288332 151.980004 
L 301.684896 153.048487 
L 304.08146 151.446895 
L 306.478024 155.682538 
L 308.874588 153.188222 
L 311.271152 155.361978 
L 313.667717 155.115179 
L 316.064281 155.799318 
L 318.460845 157.345605 
L 320.857409 152.452443 
L 325.650537 151.775138 
L 328.047101 153.92755 
L 330.443665 150.742202 
L 332.840229 152.422669 
L 335.236793 151.30324 
L 337.633357 150.616566 
L 340.029921 150.654636 
L 342.426485 152.119089 
L 344.823049 151.769765 
L 347.219613 151.700931 
L 349.616178 150.856748 
L 352.012742 153.5358 
L 354.409306 151.118178 
L 356.80587 152.969605 
L 359.202434 151.585442 
L 361.598998 151.831851 
L 363.995562 153.052012 
L 366.392126 151.371965 
L 371.185254 151.700846 
L 373.581818 151.766347 
L 373.581818 151.766347 
" clip-path="url(#pe7e0f4812f)" style="fill: none; stroke: #ff7f0e; stroke-width: 1.5; stroke-linecap: square"/>
   </g>
   <g id="line2d_76">
    <path d="M 69.218182 193.146418 
L 71.614746 177.300262 
L 74.01131 172.560961 
L 76.407874 168.377023 
L 78.804438 165.033532 
L 81.201002 165.155972 
L 83.597566 156.490413 
L 85.99413 158.756348 
L 88.390694 165.759841 
L 93.183822 158.82234 
L 95.580387 158.721613 
L 97.976951 155.077019 
L 100.373515 159.56851 
L 102.770079 156.745435 
L 105.166643 158.047982 
L 107.563207 155.403922 
L 109.959771 158.526967 
L 112.356335 159.363019 
L 114.752899 153.109787 
L 117.149463 152.334484 
L 119.546027 154.555101 
L 121.942591 155.489965 
L 124.339155 155.825248 
L 126.735719 154.002392 
L 129.132283 155.205309 
L 131.528848 155.936561 
L 133.925412 151.589702 
L 136.321976 152.43107 
L 138.71854 152.454128 
L 141.115104 156.585611 
L 143.511668 152.70924 
L 145.908232 153.201942 
L 148.304796 153.450839 
L 150.70136 153.962337 
L 153.097924 152.431563 
L 155.494488 152.528666 
L 157.891052 154.884398 
L 160.287616 156.059942 
L 162.68418 154.217609 
L 165.080744 150.095932 
L 167.477309 153.277922 
L 169.873873 152.387314 
L 172.270437 154.282934 
L 177.063565 154.119455 
L 179.460129 153.508949 
L 181.856693 155.581098 
L 184.253257 154.560355 
L 186.649821 153.128453 
L 189.046385 156.485861 
L 191.442949 159.003377 
L 193.839513 155.744617 
L 196.236077 157.844075 
L 198.632641 156.273982 
L 201.029205 157.551771 
L 203.42577 159.445843 
L 205.822334 157.202505 
L 208.218898 159.206472 
L 210.615462 156.98088 
L 213.012026 157.857382 
L 215.40859 155.779152 
L 217.805154 155.625797 
L 220.201718 156.989353 
L 224.994846 157.358202 
L 227.39141 157.784145 
L 229.787974 152.483112 
L 232.184538 153.48178 
L 234.581102 151.953058 
L 236.977666 153.780443 
L 239.37423 151.983676 
L 241.770795 153.617802 
L 244.167359 154.156923 
L 246.563923 152.68622 
L 248.960487 153.845747 
L 251.357051 153.092123 
L 253.753615 153.775524 
L 256.150179 152.218883 
L 258.546743 153.326439 
L 260.943307 155.400204 
L 263.339871 154.337094 
L 265.736435 152.944566 
L 268.132999 153.522872 
L 270.529563 155.372337 
L 272.926127 152.966397 
L 275.322691 151.738993 
L 277.719256 151.81971 
L 280.11582 154.78555 
L 282.512384 151.809557 
L 284.908948 153.434227 
L 287.305512 151.891767 
L 289.702076 151.252946 
L 292.09864 152.047728 
L 294.495204 153.117816 
L 296.891768 152.742183 
L 299.288332 152.903338 
L 301.684896 153.462288 
L 304.08146 151.438016 
L 306.478024 152.808654 
L 308.874588 149.632943 
L 311.271152 151.852261 
L 313.667717 155.547166 
L 316.064281 156.468079 
L 318.460845 157.86701 
L 320.857409 152.826028 
L 325.650537 152.088015 
L 328.047101 154.775911 
L 330.443665 151.201449 
L 332.840229 152.634941 
L 335.236793 151.99687 
L 337.633357 150.274924 
L 340.029921 151.09512 
L 342.426485 152.745649 
L 349.616178 151.684257 
L 352.012742 153.685163 
L 354.409306 151.454413 
L 356.80587 153.482763 
L 359.202434 151.957432 
L 361.598998 151.980595 
L 363.995562 153.653098 
L 366.392126 151.983425 
L 368.78869 152.225362 
L 371.185254 152.183624 
L 373.581818 152.474774 
L 373.581818 152.474774 
" clip-path="url(#pe7e0f4812f)" style="fill: none; stroke: #2ca02c; stroke-width: 1.5; stroke-linecap: square"/>
   </g>
   <g id="line2d_77">
    <path d="M 69.218182 142.982256 
L 71.614746 128.926082 
L 74.01131 117.698669 
L 76.407874 112.618166 
L 78.804438 109.937498 
L 81.201002 111.9329 
L 83.597566 107.547191 
L 85.99413 102.763673 
L 88.390694 105.576165 
L 90.787258 62.372902 
L 93.183822 102.334033 
L 95.580387 97.928876 
L 97.976951 98.534367 
L 100.373515 99.721332 
L 102.770079 95.680256 
L 105.166643 94.843369 
L 107.563207 96.660878 
L 112.356335 90.510548 
L 114.752899 90.176157 
L 117.149463 93.723278 
L 119.546027 99.155153 
L 121.942591 92.883087 
L 124.339155 98.546381 
L 126.735719 89.992368 
L 129.132283 88.58353 
L 131.528848 100.075372 
L 133.925412 91.700402 
L 136.321976 95.345222 
L 138.71854 98.199636 
L 141.115104 87.412303 
L 143.511668 86.339252 
L 145.908232 92.193248 
L 148.304796 91.566305 
L 150.70136 92.941278 
L 153.097924 95.840718 
L 155.494488 92.661082 
L 157.891052 91.802304 
L 160.287616 84.756408 
L 162.68418 89.625428 
L 165.080744 92.559984 
L 167.477309 93.77002 
L 169.873873 95.75121 
L 172.270437 90.664697 
L 174.667001 92.090812 
L 177.063565 95.455181 
L 179.460129 95.959018 
L 181.856693 90.914547 
L 184.253257 95.601327 
L 186.649821 88.560274 
L 189.046385 90.521837 
L 191.442949 91.648577 
L 193.839513 94.670916 
L 196.236077 88.327183 
L 198.632641 87.126636 
L 201.029205 84.707731 
L 203.42577 83.411288 
L 205.822334 79.976697 
L 208.218898 81.926217 
L 210.615462 85.609294 
L 213.012026 80.242715 
L 215.40859 79.155166 
L 217.805154 77.741801 
L 220.201718 86.392418 
L 222.598282 79.76031 
L 224.994846 77.7242 
L 227.39141 77.960974 
L 229.787974 83.460741 
L 232.184538 80.738916 
L 234.581102 79.189616 
L 236.977666 82.140476 
L 239.37423 81.375713 
L 241.770795 77.084604 
L 244.167359 76.410879 
L 246.563923 78.410455 
L 248.960487 75.18662 
L 251.357051 75.757767 
L 253.753615 76.005353 
L 256.150179 77.314645 
L 258.546743 79.144864 
L 260.943307 77.226904 
L 263.339871 77.087822 
L 265.736435 76.526674 
L 268.132999 82.088549 
L 270.529563 79.832984 
L 272.926127 79.540818 
L 275.322691 79.01452 
L 277.719256 82.505649 
L 280.11582 77.356564 
L 284.908948 80.579133 
L 287.305512 75.651568 
L 289.702076 78.226175 
L 292.09864 82.333943 
L 294.495204 81.737616 
L 299.288332 76.086296 
L 301.684896 77.581314 
L 304.08146 81.256559 
L 306.478024 44.443636 
L 308.874588 72.910966 
L 311.271152 81.212451 
L 316.064281 74.367495 
L 318.460845 73.712784 
L 320.857409 74.30398 
L 323.253973 86.260124 
L 325.650537 74.179927 
L 328.047101 73.261167 
L 330.443665 73.805731 
L 332.840229 73.859004 
L 335.236793 71.869546 
L 337.633357 72.491057 
L 340.029921 71.611115 
L 342.426485 71.609584 
L 344.823049 73.554426 
L 347.219613 71.410626 
L 349.616178 78.927945 
L 352.012742 78.060723 
L 354.409306 78.597913 
L 356.80587 74.86899 
L 359.202434 71.955643 
L 361.598998 75.840966 
L 363.995562 76.69356 
L 366.392126 72.21346 
L 368.78869 75.958757 
L 371.185254 75.633375 
L 373.581818 71.269839 
L 373.581818 71.269839 
" clip-path="url(#pe7e0f4812f)" style="fill: none; stroke: #d62728; stroke-width: 1.5; stroke-linecap: square"/>
   </g>
   <g id="patch_3">
    <path d="M 54 252 
L 54 34.56 
" style="fill: none; stroke: #000000; stroke-width: 0.8; stroke-linejoin: miter; stroke-linecap: square"/>
   </g>
   <g id="patch_4">
    <path d="M 388.8 252 
L 388.8 34.56 
" style="fill: none; stroke: #000000; stroke-width: 0.8; stroke-linejoin: miter; stroke-linecap: square"/>
   </g>
   <g id="patch_5">
    <path d="M 54 252 
L 388.8 252 
" style="fill: none; stroke: #000000; stroke-width: 0.8; stroke-linejoin: miter; stroke-linecap: square"/>
   </g>
   <g id="patch_6">
    <path d="M 54 34.56 
L 388.8 34.56 
" style="fill: none; stroke: #000000; stroke-width: 0.8; stroke-linejoin: miter; stroke-linecap: square"/>
   </g>
   <g id="text_25">
    <!-- Median NEPS vs. Program Size (100 f.c., nicolau_a) -->
    <g transform="translate(69.21375 28.56)scale(0.12 -0.12)">
     <defs>
      <path id="DejaVuSans-76" d="M 191 3500 
L 800 3500 
L 1894 563 
L 2988 3500 
L 3597 3500 
L 2284 0 
L 1503 0 
L 191 3500 
z
" transform="scale(0.015625)"/>
      <path id="DejaVuSans-2e" d="M 684 794 
L 1344 794 
L 1344 0 
L 684 0 
L 684 794 
z
" transform="scale(0.015625)"/>
      <path id="DejaVuSans-28" d="M 1984 4856 
Q 1566 4138 1362 3434 
Q 1159 2731 1159 2009 
Q 1159 1288 1364 580 
Q 1569 -128 1984 -844 
L 1484 -844 
Q 1016 -109 783 600 
Q 550 1309 550 2009 
Q 550 2706 781 3412 
Q 1013 4119 1484 4856 
L 1984 4856 
z
" transform="scale(0.015625)"/>
      <path id="DejaVuSans-66" d="M 2375 4863 
L 2375 4384 
L 1825 4384 
Q 1516 4384 1395 4259 
Q 1275 4134 1275 3809 
L 1275 3500 
L 2222 3500 
L 2222 3053 
L 1275 3053 
L 1275 0 
L 697 0 
L 697 3053 
L 147 3053 
L 147 3500 
L 697 3500 
L 697 3744 
Q 697 4328 969 4595 
Q 1241 4863 1831 4863 
L 2375 4863 
z
" transform="scale(0.015625)"/>
      <path id="DejaVuSans-63" d="M 3122 3366 
L 3122 2828 
Q 2878 2963 2633 3030 
Q 2388 3097 2138 3097 
Q 1578 3097 1268 2742 
Q 959 2388 959 1747 
Q 959 1106 1268 751 
Q 1578 397 2138 397 
Q 2388 397 2633 464 
Q 2878 531 3122 666 
L 3122 134 
Q 2881 22 2623 -34 
Q 2366 -91 2075 -91 
Q 1284 -91 818 406 
Q 353 903 353 1747 
Q 353 2603 823 3093 
Q 1294 3584 2113 3584 
Q 2378 3584 2631 3529 
Q 2884 3475 3122 3366 
z
" transform="scale(0.015625)"/>
      <path id="DejaVuSans-2c" d="M 750 794 
L 1409 794 
L 1409 256 
L 897 -744 
L 494 -744 
L 750 256 
L 750 794 
z
" transform="scale(0.015625)"/>
      <path id="DejaVuSans-6c" d="M 603 4863 
L 1178 4863 
L 1178 0 
L 603 0 
L 603 4863 
z
" transform="scale(0.015625)"/>
      <path id="DejaVuSans-75" d="M 544 1381 
L 544 3500 
L 1119 3500 
L 1119 1403 
Q 1119 906 1312 657 
Q 1506 409 1894 409 
Q 2359 409 2629 706 
Q 2900 1003 2900 1516 
L 2900 3500 
L 3475 3500 
L 3475 0 
L 2900 0 
L 2900 538 
Q 2691 219 2414 64 
Q 2138 -91 1772 -91 
Q 1169 -91 856 284 
Q 544 659 544 1381 
z
M 1991 3584 
L 1991 3584 
z
" transform="scale(0.015625)"/>
      <path id="DejaVuSans-5f" d="M 3263 -1063 
L 3263 -1509 
L -63 -1509 
L -63 -1063 
L 3263 -1063 
z
" transform="scale(0.015625)"/>
      <path id="DejaVuSans-29" d="M 513 4856 
L 1013 4856 
Q 1481 4119 1714 3412 
Q 1947 2706 1947 2009 
Q 1947 1309 1714 600 
Q 1481 -109 1013 -844 
L 513 -844 
Q 928 -128 1133 580 
Q 1338 1288 1338 2009 
Q 1338 2731 1133 3434 
Q 928 4138 513 4856 
z
" transform="scale(0.015625)"/>
     </defs>
     <use xlink:href="#DejaVuSans-4d"/>
     <use xlink:href="#DejaVuSans-65" x="86.279297"/>
     <use xlink:href="#DejaVuSans-64" x="147.802734"/>
     <use xlink:href="#DejaVuSans-69" x="211.279297"/>
     <use xlink:href="#DejaVuSans-61" x="239.0625"/>
     <use xlink:href="#DejaVuSans-6e" x="300.341797"/>
     <use xlink:href="#DejaVuSans-20" x="363.720703"/>
     <use xlink:href="#DejaVuSans-4e" x="395.507812"/>
     <use xlink:href="#DejaVuSans-45" x="470.3125"/>
     <use xlink:href="#DejaVuSans-50" x="533.496094"/>
     <use xlink:href="#DejaVuSans-53" x="593.798828"/>
     <use xlink:href="#DejaVuSans-20" x="657.275391"/>
     <use xlink:href="#DejaVuSans-76" x="689.0625"/>
     <use xlink:href="#DejaVuSans-73" x="748.242188"/>
     <use xlink:href="#DejaVuSans-2e" x="800.341797"/>
     <use xlink:href="#DejaVuSans-20" x="832.128906"/>
     <use xlink:href="#DejaVuSans-50" x="863.916016"/>
     <use xlink:href="#DejaVuSans-72" x="922.46875"/>
     <use xlink:href="#DejaVuSans-6f" x="961.332031"/>
     <use xlink:href="#DejaVuSans-67" x="1022.513672"/>
     <use xlink:href="#DejaVuSans-72" x="1085.990234"/>
     <use xlink:href="#DejaVuSans-61" x="1127.103516"/>
     <use xlink:href="#DejaVuSans-6d" x="1188.382812"/>
     <use xlink:href="#DejaVuSans-20" x="1285.794922"/>
     <use xlink:href="#DejaVuSans-53" x="1317.582031"/>
     <use xlink:href="#DejaVuSans-69" x="1381.058594"/>
     <use xlink:href="#DejaVuSans-7a" x="1408.841797"/>
     <use xlink:href="#DejaVuSans-65" x="1461.332031"/>
     <use xlink:href="#DejaVuSans-20" x="1522.855469"/>
     <use xlink:href="#DejaVuSans-28" x="1554.642578"/>
     <use xlink:href="#DejaVuSans-31" x="1593.65625"/>
     <use xlink:href="#DejaVuSans-30" x="1657.279297"/>
     <use xlink:href="#DejaVuSans-30" x="1720.902344"/>
     <use xlink:href="#DejaVuSans-20" x="1784.525391"/>
     <use xlink:href="#DejaVuSans-66" x="1816.3125"/>
     <use xlink:href="#DejaVuSans-2e" x="1844.267578"/>
     <use xlink:href="#DejaVuSans-63" x="1876.054688"/>
     <use xlink:href="#DejaVuSans-2e" x="1931.035156"/>
     <use xlink:href="#DejaVuSans-2c" x="1962.822266"/>
     <use xlink:href="#DejaVuSans-20" x="1994.609375"/>
     <use xlink:href="#DejaVuSans-6e" x="2026.396484"/>
     <use xlink:href="#DejaVuSans-69" x="2089.775391"/>
     <use xlink:href="#DejaVuSans-63" x="2117.558594"/>
     <use xlink:href="#DejaVuSans-6f" x="2172.539062"/>
     <use xlink:href="#DejaVuSans-6c" x="2233.720703"/>
     <use xlink:href="#DejaVuSans-61" x="2261.503906"/>
     <use xlink:href="#DejaVuSans-75" x="2322.783203"/>
     <use xlink:href="#DejaVuSans-5f" x="2386.162109"/>
     <use xlink:href="#DejaVuSans-61" x="2436.162109"/>
     <use xlink:href="#DejaVuSans-29" x="2497.441406"/>
    </g>
   </g>
   <g id="legend_1">
    <g id="patch_7">
     <path d="M 61 101.2725 
L 171.19375 101.2725 
Q 173.19375 101.2725 173.19375 99.2725 
L 173.19375 41.56 
Q 173.19375 39.56 171.19375 39.56 
L 61 39.56 
Q 59 39.56 59 41.56 
L 59 99.2725 
Q 59 101.2725 61 101.2725 
z
" style="fill: #ffffff; opacity: 0.8; stroke: #cccccc; stroke-linejoin: miter"/>
    </g>
    <g id="line2d_78">
     <path d="M 63 47.658437 
L 73 47.658437 
L 83 47.658437 
" style="fill: none; stroke: #1f77b4; stroke-width: 1.5; stroke-linecap: square"/>
    </g>
    <g id="text_26">
     <!-- DEAP -->
     <g transform="translate(91 51.158437)scale(0.1 -0.1)">
      <defs>
       <path id="DejaVuSans-44" d="M 1259 4147 
L 1259 519 
L 2022 519 
Q 2988 519 3436 956 
Q 3884 1394 3884 2338 
Q 3884 3275 3436 3711 
Q 2988 4147 2022 4147 
L 1259 4147 
z
M 628 4666 
L 1925 4666 
Q 3281 4666 3915 4102 
Q 4550 3538 4550 2338 
Q 4550 1131 3912 565 
Q 3275 0 1925 0 
L 628 0 
L 628 4666 
z
" transform="scale(0.015625)"/>
       <path id="DejaVuSans-41" d="M 2188 4044 
L 1331 1722 
L 3047 1722 
L 2188 4044 
z
M 1831 4666 
L 2547 4666 
L 4325 0 
L 3669 0 
L 3244 1197 
L 1141 1197 
L 716 0 
L 50 0 
L 1831 4666 
z
" transform="scale(0.015625)"/>
      </defs>
      <use xlink:href="#DejaVuSans-44"/>
      <use xlink:href="#DejaVuSans-45" x="77.001953"/>
      <use xlink:href="#DejaVuSans-41" x="140.185547"/>
      <use xlink:href="#DejaVuSans-50" x="208.59375"/>
     </g>
    </g>
    <g id="line2d_79">
     <path d="M 63 62.336562 
L 73 62.336562 
L 83 62.336562 
" style="fill: none; stroke: #ff7f0e; stroke-width: 1.5; stroke-linecap: square"/>
    </g>
    <g id="text_27">
     <!-- TensorGP (CPU) -->
     <g transform="translate(91 65.836562)scale(0.1 -0.1)">
      <defs>
       <path id="DejaVuSans-54" d="M -19 4666 
L 3928 4666 
L 3928 4134 
L 2272 4134 
L 2272 0 
L 1638 0 
L 1638 4134 
L -19 4134 
L -19 4666 
z
" transform="scale(0.015625)"/>
       <path id="DejaVuSans-47" d="M 3809 666 
L 3809 1919 
L 2778 1919 
L 2778 2438 
L 4434 2438 
L 4434 434 
Q 4069 175 3628 42 
Q 3188 -91 2688 -91 
Q 1594 -91 976 548 
Q 359 1188 359 2328 
Q 359 3472 976 4111 
Q 1594 4750 2688 4750 
Q 3144 4750 3555 4637 
Q 3966 4525 4313 4306 
L 4313 3634 
Q 3963 3931 3569 4081 
Q 3175 4231 2741 4231 
Q 1884 4231 1454 3753 
Q 1025 3275 1025 2328 
Q 1025 1384 1454 906 
Q 1884 428 2741 428 
Q 3075 428 3337 486 
Q 3600 544 3809 666 
z
" transform="scale(0.015625)"/>
       <path id="DejaVuSans-43" d="M 4122 4306 
L 4122 3641 
Q 3803 3938 3442 4084 
Q 3081 4231 2675 4231 
Q 1875 4231 1450 3742 
Q 1025 3253 1025 2328 
Q 1025 1406 1450 917 
Q 1875 428 2675 428 
Q 3081 428 3442 575 
Q 3803 722 4122 1019 
L 4122 359 
Q 3791 134 3420 21 
Q 3050 -91 2638 -91 
Q 1578 -91 968 557 
Q 359 1206 359 2328 
Q 359 3453 968 4101 
Q 1578 4750 2638 4750 
Q 3056 4750 3426 4639 
Q 3797 4528 4122 4306 
z
" transform="scale(0.015625)"/>
       <path id="DejaVuSans-55" d="M 556 4666 
L 1191 4666 
L 1191 1831 
Q 1191 1081 1462 751 
Q 1734 422 2344 422 
Q 2950 422 3222 751 
Q 3494 1081 3494 1831 
L 3494 4666 
L 4128 4666 
L 4128 1753 
Q 4128 841 3676 375 
Q 3225 -91 2344 -91 
Q 1459 -91 1007 375 
Q 556 841 556 1753 
L 556 4666 
z
" transform="scale(0.015625)"/>
      </defs>
      <use xlink:href="#DejaVuSans-54"/>
      <use xlink:href="#DejaVuSans-65" x="44.083984"/>
      <use xlink:href="#DejaVuSans-6e" x="105.607422"/>
      <use xlink:href="#DejaVuSans-73" x="168.986328"/>
      <use xlink:href="#DejaVuSans-6f" x="221.085938"/>
      <use xlink:href="#DejaVuSans-72" x="282.267578"/>
      <use xlink:href="#DejaVuSans-47" x="323.380859"/>
      <use xlink:href="#DejaVuSans-50" x="400.871094"/>
      <use xlink:href="#DejaVuSans-20" x="461.173828"/>
      <use xlink:href="#DejaVuSans-28" x="492.960938"/>
      <use xlink:href="#DejaVuSans-43" x="531.974609"/>
      <use xlink:href="#DejaVuSans-50" x="601.798828"/>
      <use xlink:href="#DejaVuSans-55" x="662.101562"/>
      <use xlink:href="#DejaVuSans-29" x="735.294922"/>
     </g>
    </g>
    <g id="line2d_80">
     <path d="M 63 77.014687 
L 73 77.014687 
L 83 77.014687 
" style="fill: none; stroke: #2ca02c; stroke-width: 1.5; stroke-linecap: square"/>
    </g>
    <g id="text_28">
     <!-- TensorGP (GPU) -->
     <g transform="translate(91 80.514687)scale(0.1 -0.1)">
      <use xlink:href="#DejaVuSans-54"/>
      <use xlink:href="#DejaVuSans-65" x="44.083984"/>
      <use xlink:href="#DejaVuSans-6e" x="105.607422"/>
      <use xlink:href="#DejaVuSans-73" x="168.986328"/>
      <use xlink:href="#DejaVuSans-6f" x="221.085938"/>
      <use xlink:href="#DejaVuSans-72" x="282.267578"/>
      <use xlink:href="#DejaVuSans-47" x="323.380859"/>
      <use xlink:href="#DejaVuSans-50" x="400.871094"/>
      <use xlink:href="#DejaVuSans-20" x="461.173828"/>
      <use xlink:href="#DejaVuSans-28" x="492.960938"/>
      <use xlink:href="#DejaVuSans-47" x="531.974609"/>
      <use xlink:href="#DejaVuSans-50" x="609.464844"/>
      <use xlink:href="#DejaVuSans-55" x="669.767578"/>
      <use xlink:href="#DejaVuSans-29" x="742.960938"/>
     </g>
    </g>
    <g id="line2d_81">
     <path d="M 63 91.692813 
L 73 91.692813 
L 83 91.692813 
" style="fill: none; stroke: #d62728; stroke-width: 1.5; stroke-linecap: square"/>
    </g>
    <g id="text_29">
     <!-- Operon -->
     <g transform="translate(91 95.192813)scale(0.1 -0.1)">
      <defs>
       <path id="DejaVuSans-4f" d="M 2522 4238 
Q 1834 4238 1429 3725 
Q 1025 3213 1025 2328 
Q 1025 1447 1429 934 
Q 1834 422 2522 422 
Q 3209 422 3611 934 
Q 4013 1447 4013 2328 
Q 4013 3213 3611 3725 
Q 3209 4238 2522 4238 
z
M 2522 4750 
Q 3503 4750 4090 4092 
Q 4678 3434 4678 2328 
Q 4678 1225 4090 567 
Q 3503 -91 2522 -91 
Q 1538 -91 948 565 
Q 359 1222 359 2328 
Q 359 3434 948 4092 
Q 1538 4750 2522 4750 
z
" transform="scale(0.015625)"/>
       <path id="DejaVuSans-70" d="M 1159 525 
L 1159 -1331 
L 581 -1331 
L 581 3500 
L 1159 3500 
L 1159 2969 
Q 1341 3281 1617 3432 
Q 1894 3584 2278 3584 
Q 2916 3584 3314 3078 
Q 3713 2572 3713 1747 
Q 3713 922 3314 415 
Q 2916 -91 2278 -91 
Q 1894 -91 1617 61 
Q 1341 213 1159 525 
z
M 3116 1747 
Q 3116 2381 2855 2742 
Q 2594 3103 2138 3103 
Q 1681 3103 1420 2742 
Q 1159 2381 1159 1747 
Q 1159 1113 1420 752 
Q 1681 391 2138 391 
Q 2594 391 2855 752 
Q 3116 1113 3116 1747 
z
" transform="scale(0.015625)"/>
      </defs>
      <use xlink:href="#DejaVuSans-4f"/>
      <use xlink:href="#DejaVuSans-70" x="78.710938"/>
      <use xlink:href="#DejaVuSans-65" x="142.1875"/>
      <use xlink:href="#DejaVuSans-72" x="203.710938"/>
      <use xlink:href="#DejaVuSans-6f" x="242.574219"/>
      <use xlink:href="#DejaVuSans-6e" x="303.755859"/>
     </g>
    </g>
   </g>
  </g>
 </g>
 <defs>
  <clipPath id="pe7e0f4812f">
   <rect x="54" y="34.56" width="334.8" height="217.44"/>
  </clipPath>
 </defs>
</svg>
