<?xml version="1.0" encoding="utf-8" standalone="no"?>
<!DOCTYPE svg PUBLIC "-//W3C//DTD SVG 1.1//EN"
  "http://www.w3.org/Graphics/SVG/1.1/DTD/svg11.dtd">
<svg xmlns:xlink="http://www.w3.org/1999/xlink" width="432pt" height="288pt" viewBox="0 0 432 288" xmlns="http://www.w3.org/2000/svg" version="1.1">
 <metadata>
  <rdf:RDF xmlns:dc="http://purl.org/dc/elements/1.1/" xmlns:cc="http://creativecommons.org/ns#" xmlns:rdf="http://www.w3.org/1999/02/22-rdf-syntax-ns#">
   <cc:Work>
    <dc:type rdf:resource="http://purl.org/dc/dcmitype/StillImage"/>
    <dc:date>2022-01-12T03:40:08.567621</dc:date>
    <dc:format>image/svg+xml</dc:format>
    <dc:creator>
     <cc:Agent>
      <dc:title>Matplotlib v3.5.1, https://matplotlib.org/</dc:title>
     </cc:Agent>
    </dc:creator>
   </cc:Work>
  </rdf:RDF>
 </metadata>
 <defs>
  <style type="text/css">*{stroke-linejoin: round; stroke-linecap: butt}</style>
 </defs>
 <g id="figure_1">
  <g id="patch_1">
   <path d="M 0 288 
L 432 288 
L 432 0 
L 0 0 
L 0 288 
z
" style="fill: none"/>
  </g>
  <g id="axes_1">
   <g id="patch_2">
    <path d="M 54 252 
L 388.8 252 
L 388.8 34.56 
L 54 34.56 
z
" style="fill: #ffffff"/>
   </g>
   <g id="PolyCollection_1">
    <path d="M 69.218182 241.60303 
L 69.218182 242.116364 
L 71.614746 224.896132 
L 74.01131 217.745811 
L 76.407874 212.158737 
L 78.804438 206.593403 
L 81.201002 207.067745 
L 83.597566 200.689308 
L 85.99413 200.363754 
L 88.390694 206.944471 
L 90.787258 199.529175 
L 93.183822 195.851232 
L 95.580387 195.452253 
L 97.976951 194.063097 
L 100.373515 194.639463 
L 102.770079 193.350278 
L 105.166643 190.59955 
L 107.563207 191.764636 
L 109.959771 194.163662 
L 112.356335 198.85364 
L 114.752899 188.113843 
L 117.149463 189.330833 
L 119.546027 190.586002 
L 121.942591 190.979847 
L 124.339155 189.568254 
L 126.735719 189.515315 
L 129.132283 191.565276 
L 131.528848 192.294407 
L 133.925412 187.073715 
L 136.321976 186.697956 
L 138.71854 185.85922 
L 141.115104 188.106056 
L 143.511668 186.52277 
L 145.908232 184.550863 
L 148.304796 187.389199 
L 150.70136 188.347921 
L 153.097924 189.132521 
L 155.494488 187.061379 
L 157.891052 186.306843 
L 160.287616 187.908942 
L 162.68418 188.409705 
L 165.080744 182.409076 
L 167.477309 186.913879 
L 169.873873 185.464151 
L 172.270437 186.918148 
L 174.667001 188.284879 
L 177.063565 186.484385 
L 179.460129 186.877367 
L 181.856693 187.407262 
L 184.253257 187.410733 
L 186.649821 185.781212 
L 189.046385 187.131943 
L 191.442949 185.925281 
L 193.839513 183.899838 
L 196.236077 185.463214 
L 198.632641 184.902915 
L 201.029205 185.331854 
L 203.42577 187.371184 
L 205.822334 186.129366 
L 208.218898 186.680045 
L 210.615462 184.53781 
L 213.012026 187.669233 
L 215.40859 184.561439 
L 217.805154 184.039025 
L 220.201718 186.055802 
L 222.598282 185.327253 
L 224.994846 186.35989 
L 227.39141 186.273571 
L 229.787974 186.020591 
L 232.184538 185.900751 
L 234.581102 182.213377 
L 236.977666 184.520415 
L 239.37423 185.490091 
L 241.770795 186.093026 
L 244.167359 185.117858 
L 246.563923 184.657716 
L 248.960487 185.388438 
L 251.357051 184.679609 
L 253.753615 186.137786 
L 256.150179 184.543461 
L 258.546743 187.135053 
L 260.943307 183.754443 
L 263.339871 185.302893 
L 265.736435 185.258473 
L 268.132999 184.446191 
L 270.529563 186.491116 
L 272.926127 185.700175 
L 275.322691 183.881898 
L 277.719256 184.250296 
L 280.11582 186.486067 
L 282.512384 184.116253 
L 284.908948 183.778407 
L 287.305512 184.143047 
L 289.702076 182.386712 
L 292.09864 183.319596 
L 294.495204 184.337518 
L 296.891768 183.058684 
L 299.288332 185.070353 
L 301.684896 186.721618 
L 304.08146 184.329118 
L 306.478024 183.776196 
L 308.874588 182.641391 
L 311.271152 184.044297 
L 313.667717 183.479764 
L 316.064281 184.198731 
L 318.460845 185.977708 
L 320.857409 183.76844 
L 323.253973 184.145408 
L 325.650537 183.977893 
L 328.047101 185.06348 
L 330.443665 183.097673 
L 332.840229 183.753063 
L 335.236793 183.367803 
L 337.633357 180.68485 
L 340.029921 181.548357 
L 342.426485 184.313357 
L 344.823049 182.16391 
L 347.219613 183.343994 
L 349.616178 183.05902 
L 352.012742 185.051019 
L 354.409306 182.34357 
L 356.80587 185.030753 
L 359.202434 182.4163 
L 361.598998 184.974721 
L 363.995562 185.489608 
L 366.392126 181.455813 
L 368.78869 182.302126 
L 371.185254 184.175705 
L 373.581818 183.278383 
L 373.581818 182.650967 
L 373.581818 182.650967 
L 371.185254 182.380449 
L 368.78869 182.075135 
L 366.392126 181.405469 
L 363.995562 184.897209 
L 361.598998 183.954029 
L 359.202434 181.969928 
L 356.80587 184.523763 
L 354.409306 181.671577 
L 352.012742 184.928652 
L 349.616178 182.960933 
L 347.219613 183.163503 
L 344.823049 182.042614 
L 342.426485 183.677575 
L 340.029921 181.304155 
L 337.633357 180.560483 
L 335.236793 183.057133 
L 332.840229 183.39447 
L 330.443665 182.768587 
L 328.047101 184.747359 
L 325.650537 183.73504 
L 323.253973 183.112992 
L 320.857409 183.392507 
L 318.460845 185.789613 
L 316.064281 184.037358 
L 313.667717 183.088523 
L 311.271152 183.945253 
L 308.874588 182.34162 
L 306.478024 183.585345 
L 304.08146 184.144677 
L 301.684896 185.880344 
L 299.288332 184.907286 
L 296.891768 182.649141 
L 294.495204 184.230257 
L 292.09864 183.142594 
L 289.702076 182.232845 
L 287.305512 183.571098 
L 284.908948 183.37381 
L 282.512384 183.821844 
L 280.11582 184.654581 
L 277.719256 183.775886 
L 275.322691 183.474151 
L 272.926127 185.469472 
L 270.529563 186.321742 
L 268.132999 184.083579 
L 265.736435 185.146738 
L 263.339871 185.18304 
L 260.943307 183.466828 
L 258.546743 186.738699 
L 256.150179 184.211266 
L 253.753615 185.148261 
L 251.357051 184.55771 
L 248.960487 185.275747 
L 246.563923 184.473719 
L 244.167359 184.902646 
L 241.770795 185.867527 
L 239.37423 184.802268 
L 236.977666 184.242032 
L 234.581102 182.126243 
L 232.184538 185.74993 
L 229.787974 185.830645 
L 227.39141 185.025313 
L 224.994846 186.003136 
L 222.598282 184.991089 
L 220.201718 185.923553 
L 217.805154 183.830911 
L 215.40859 184.394917 
L 213.012026 187.545606 
L 210.615462 184.367031 
L 208.218898 186.380005 
L 205.822334 185.631357 
L 203.42577 187.287488 
L 201.029205 184.81995 
L 198.632641 184.765152 
L 196.236077 185.336528 
L 193.839513 182.972295 
L 191.442949 185.846855 
L 189.046385 186.340539 
L 186.649821 185.475185 
L 184.253257 187.307842 
L 181.856693 187.262033 
L 179.460129 186.801597 
L 177.063565 186.414473 
L 174.667001 187.635312 
L 172.270437 186.685224 
L 169.873873 185.134103 
L 167.477309 186.835193 
L 165.080744 181.98589 
L 162.68418 187.880264 
L 160.287616 187.56674 
L 157.891052 185.50688 
L 155.494488 186.106009 
L 153.097924 186.609803 
L 150.70136 186.989209 
L 148.304796 187.2093 
L 145.908232 184.405172 
L 143.511668 186.347319 
L 141.115104 187.990922 
L 138.71854 185.598943 
L 136.321976 186.446492 
L 133.925412 186.872239 
L 131.528848 187.128984 
L 129.132283 188.645975 
L 126.735719 189.330316 
L 124.339155 189.222579 
L 121.942591 190.837674 
L 119.546027 190.561345 
L 117.149463 189.244759 
L 114.752899 188.066373 
L 112.356335 191.672775 
L 109.959771 192.699026 
L 107.563207 191.463851 
L 105.166643 190.185127 
L 102.770079 193.247764 
L 100.373515 194.53229 
L 97.976951 193.622093 
L 95.580387 195.127221 
L 93.183822 194.678878 
L 90.787258 199.222693 
L 88.390694 200.291551 
L 85.99413 200.155885 
L 83.597566 199.54883 
L 81.201002 206.596929 
L 78.804438 206.03638 
L 76.407874 211.423013 
L 74.01131 217.167307 
L 71.614746 224.728968 
L 69.218182 241.60303 
z
" clip-path="url(#p6b64e67bc4)" style="fill: #1f77b4"/>
   </g>
   <g id="PolyCollection_2">
    <path d="M 69.218182 206.257177 
L 69.218182 207.323464 
L 71.614746 189.592244 
L 74.01131 183.092163 
L 76.407874 177.545483 
L 78.804438 173.789991 
L 81.201002 173.520803 
L 83.597566 163.193503 
L 85.99413 165.981967 
L 88.390694 173.056162 
L 90.787258 169.780656 
L 93.183822 165.450263 
L 95.580387 165.645248 
L 97.976951 161.528111 
L 100.373515 166.125346 
L 102.770079 163.429644 
L 105.166643 163.64102 
L 107.563207 161.467652 
L 109.959771 164.810453 
L 112.356335 166.45795 
L 114.752899 157.824852 
L 117.149463 158.119115 
L 119.546027 159.648949 
L 121.942591 161.087091 
L 124.339155 161.096103 
L 126.735719 165.051236 
L 129.132283 165.676478 
L 131.528848 167.229453 
L 133.925412 161.916295 
L 136.321976 162.720382 
L 138.71854 163.035195 
L 141.115104 167.140333 
L 143.511668 163.217727 
L 145.908232 163.841451 
L 148.304796 163.411897 
L 150.70136 164.685949 
L 153.097924 162.78363 
L 155.494488 162.553445 
L 157.891052 165.706279 
L 160.287616 166.200495 
L 162.68418 164.420998 
L 165.080744 159.821119 
L 167.477309 164.141957 
L 169.873873 162.644223 
L 172.270437 162.496955 
L 174.667001 159.991738 
L 177.063565 160.48913 
L 179.460129 159.183025 
L 181.856693 161.295978 
L 184.253257 160.16806 
L 186.649821 157.871997 
L 189.046385 159.142553 
L 191.442949 161.196458 
L 193.839513 158.383895 
L 196.236077 160.38063 
L 198.632641 158.260215 
L 201.029205 159.673884 
L 203.42577 161.913737 
L 205.822334 159.241144 
L 208.218898 161.777609 
L 210.615462 158.774789 
L 213.012026 160.080004 
L 215.40859 159.227789 
L 217.805154 157.480961 
L 220.201718 158.453689 
L 222.598282 158.796799 
L 224.994846 158.912442 
L 227.39141 159.505465 
L 229.787974 158.300816 
L 232.184538 158.700165 
L 234.581102 156.581857 
L 236.977666 158.785077 
L 239.37423 156.769401 
L 241.770795 158.839918 
L 244.167359 159.310411 
L 246.563923 157.955984 
L 248.960487 159.396369 
L 251.357051 158.155588 
L 253.753615 159.087344 
L 256.150179 157.534154 
L 258.546743 158.589796 
L 260.943307 156.475114 
L 263.339871 159.446944 
L 265.736435 157.828284 
L 268.132999 158.745589 
L 270.529563 160.627105 
L 272.926127 158.142223 
L 275.322691 157.143137 
L 277.719256 156.960243 
L 280.11582 159.879444 
L 282.512384 156.649632 
L 284.908948 158.528914 
L 287.305512 157.318389 
L 289.702076 156.307821 
L 292.09864 156.807711 
L 294.495204 158.311466 
L 296.891768 157.288533 
L 299.288332 157.991422 
L 301.684896 158.585308 
L 304.08146 156.4616 
L 306.478024 157.45676 
L 308.874588 153.763856 
L 311.271152 157.041951 
L 313.667717 156.518068 
L 316.064281 157.323822 
L 318.460845 159.165962 
L 320.857409 162.731172 
L 323.253973 164.695656 
L 325.650537 163.717002 
L 328.047101 160.228208 
L 330.443665 156.064211 
L 332.840229 157.790095 
L 335.236793 156.437157 
L 337.633357 154.998424 
L 340.029921 155.572423 
L 342.426485 158.080246 
L 344.823049 157.412335 
L 347.219613 157.097744 
L 349.616178 156.64482 
L 352.012742 159.26282 
L 354.409306 156.474251 
L 356.80587 158.705 
L 359.202434 156.840204 
L 361.598998 157.364172 
L 363.995562 158.527342 
L 366.392126 156.426043 
L 368.78869 157.239463 
L 371.185254 156.99658 
L 373.581818 157.417631 
L 373.581818 157.08388 
L 373.581818 157.08388 
L 371.185254 156.794068 
L 368.78869 157.133179 
L 366.392126 156.183182 
L 363.995562 158.261144 
L 361.598998 157.221819 
L 359.202434 156.579934 
L 356.80587 158.275647 
L 354.409306 156.212795 
L 352.012742 159.183849 
L 349.616178 156.592045 
L 347.219613 156.597199 
L 344.823049 157.164519 
L 342.426485 157.839454 
L 340.029921 155.340238 
L 337.633357 154.654225 
L 335.236793 156.143786 
L 332.840229 157.679298 
L 330.443665 156.060473 
L 328.047101 159.3599 
L 325.650537 162.527315 
L 323.253973 162.38546 
L 320.857409 162.639128 
L 318.460845 159.001563 
L 316.064281 157.085872 
L 313.667717 156.423849 
L 311.271152 156.940766 
L 308.874588 153.684268 
L 306.478024 156.893356 
L 304.08146 156.253753 
L 301.684896 158.462818 
L 299.288332 157.826774 
L 296.891768 156.937742 
L 294.495204 158.195222 
L 292.09864 156.506878 
L 289.702076 156.112151 
L 287.305512 156.50686 
L 284.908948 158.208678 
L 282.512384 156.009084 
L 280.11582 159.444962 
L 277.719256 156.817832 
L 275.322691 156.766569 
L 272.926127 157.75708 
L 270.529563 160.377869 
L 268.132999 158.480764 
L 265.736435 157.398488 
L 263.339871 159.144397 
L 260.943307 156.031135 
L 258.546743 158.372671 
L 256.150179 157.453793 
L 253.753615 158.856284 
L 251.357051 157.627452 
L 248.960487 158.944154 
L 246.563923 157.733362 
L 244.167359 158.787807 
L 241.770795 158.759801 
L 239.37423 156.689709 
L 236.977666 158.18549 
L 234.581102 156.327031 
L 232.184538 158.076347 
L 229.787974 157.801188 
L 227.39141 159.21803 
L 224.994846 158.558887 
L 222.598282 158.512136 
L 220.201718 158.014361 
L 217.805154 157.244222 
L 215.40859 155.844769 
L 213.012026 159.897623 
L 210.615462 158.198446 
L 208.218898 161.300912 
L 205.822334 158.713978 
L 203.42577 161.851222 
L 201.029205 159.41384 
L 198.632641 157.722613 
L 196.236077 159.854993 
L 193.839513 156.90603 
L 191.442949 160.872949 
L 189.046385 158.863283 
L 186.649821 157.566968 
L 184.253257 159.878354 
L 181.856693 160.922348 
L 179.460129 158.571463 
L 177.063565 159.622702 
L 174.667001 159.000207 
L 172.270437 158.400456 
L 169.873873 162.487824 
L 167.477309 163.891931 
L 165.080744 159.499959 
L 162.68418 164.020641 
L 160.287616 165.733926 
L 157.891052 165.439472 
L 155.494488 162.181058 
L 153.097924 162.609868 
L 150.70136 164.489468 
L 148.304796 163.117705 
L 145.908232 162.873211 
L 143.511668 162.666344 
L 141.115104 166.782714 
L 138.71854 162.662436 
L 136.321976 162.237792 
L 133.925412 161.542853 
L 131.528848 166.703151 
L 129.132283 165.480237 
L 126.735719 164.221457 
L 124.339155 160.772928 
L 121.942591 160.923964 
L 119.546027 159.590288 
L 117.149463 157.448423 
L 114.752899 157.474162 
L 112.356335 166.035405 
L 109.959771 164.672347 
L 107.563207 160.441752 
L 105.166643 163.390754 
L 102.770079 162.803238 
L 100.373515 165.86994 
L 97.976951 161.018115 
L 95.580387 165.030476 
L 93.183822 165.357945 
L 90.787258 169.559396 
L 88.390694 172.586405 
L 85.99413 165.616759 
L 83.597566 162.562008 
L 81.201002 173.397409 
L 78.804438 173.218828 
L 76.407874 177.070584 
L 74.01131 182.156469 
L 71.614746 188.008631 
L 69.218182 206.257177 
z
" clip-path="url(#p6b64e67bc4)" style="fill: #ff7f0e"/>
   </g>
   <g id="PolyCollection_3">
    <path d="M 69.218182 206.239718 
L 69.218182 208.44382 
L 71.614746 190.034714 
L 74.01131 183.482171 
L 76.407874 178.888376 
L 78.804438 174.217662 
L 81.201002 174.230883 
L 83.597566 162.598998 
L 85.99413 166.798965 
L 88.390694 174.039725 
L 90.787258 170.073793 
L 93.183822 166.978072 
L 95.580387 166.804321 
L 97.976951 163.464928 
L 100.373515 167.42095 
L 102.770079 165.030112 
L 105.166643 165.05433 
L 107.563207 161.797424 
L 109.959771 165.718591 
L 112.356335 167.678777 
L 114.752899 158.687382 
L 117.149463 158.959556 
L 119.546027 161.001857 
L 121.942591 163.428379 
L 124.339155 162.553941 
L 126.735719 161.049666 
L 129.132283 162.798483 
L 131.528848 165.190759 
L 133.925412 158.182201 
L 136.321976 158.794873 
L 138.71854 158.415765 
L 141.115104 163.370079 
L 143.511668 158.886897 
L 145.908232 159.259922 
L 148.304796 158.828883 
L 150.70136 160.594301 
L 153.097924 159.026534 
L 155.494488 157.698677 
L 157.891052 161.22888 
L 160.287616 161.955603 
L 162.68418 159.482432 
L 165.080744 154.986496 
L 167.477309 158.945534 
L 169.873873 157.775291 
L 172.270437 160.025081 
L 174.667001 159.806032 
L 177.063565 159.727627 
L 179.460129 159.059916 
L 181.856693 160.862087 
L 184.253257 160.616286 
L 186.649821 158.839241 
L 189.046385 159.813964 
L 191.442949 161.656466 
L 193.839513 157.554211 
L 196.236077 160.400299 
L 198.632641 158.078177 
L 201.029205 160.012558 
L 203.42577 162.025463 
L 205.822334 159.02127 
L 208.218898 161.716504 
L 210.615462 159.022069 
L 213.012026 160.126814 
L 215.40859 157.625208 
L 217.805154 157.695173 
L 220.201718 158.883566 
L 222.598282 159.062852 
L 224.994846 159.474447 
L 227.39141 160.53974 
L 229.787974 158.977417 
L 232.184538 159.670383 
L 234.581102 158.017769 
L 236.977666 159.912112 
L 239.37423 157.674116 
L 241.770795 159.640339 
L 244.167359 159.844515 
L 246.563923 158.593686 
L 248.960487 159.874307 
L 251.357051 159.031199 
L 253.753615 159.86767 
L 256.150179 158.221168 
L 258.546743 159.522352 
L 260.943307 157.445645 
L 263.339871 160.22295 
L 265.736435 158.25597 
L 268.132999 159.230506 
L 270.529563 160.961638 
L 272.926127 158.536526 
L 275.322691 157.712198 
L 277.719256 157.47508 
L 280.11582 160.507715 
L 282.512384 157.286324 
L 284.908948 158.688712 
L 287.305512 158.095136 
L 289.702076 156.566612 
L 292.09864 157.667068 
L 294.495204 158.783002 
L 296.891768 157.878357 
L 299.288332 158.077399 
L 301.684896 159.494817 
L 304.08146 156.569909 
L 306.478024 158.346302 
L 308.874588 154.079742 
L 311.271152 157.298952 
L 313.667717 157.090404 
L 316.064281 157.868415 
L 318.460845 160.06605 
L 320.857409 158.2143 
L 323.253973 157.659418 
L 325.650537 157.893223 
L 328.047101 160.414648 
L 330.443665 156.853801 
L 332.840229 158.266715 
L 335.236793 157.151825 
L 337.633357 155.548394 
L 340.029921 156.413637 
L 342.426485 158.324862 
L 344.823049 157.822375 
L 347.219613 157.219874 
L 349.616178 157.324098 
L 352.012742 159.899483 
L 354.409306 157.066977 
L 356.80587 159.151621 
L 359.202434 157.747258 
L 361.598998 157.839669 
L 363.995562 159.536779 
L 366.392126 157.098624 
L 368.78869 157.849466 
L 371.185254 157.5525 
L 373.581818 157.913655 
L 373.581818 157.767599 
L 373.581818 157.767599 
L 371.185254 157.363717 
L 368.78869 157.798426 
L 366.392126 156.747981 
L 363.995562 159.325204 
L 361.598998 157.434444 
L 359.202434 157.610484 
L 356.80587 158.915249 
L 354.409306 156.860669 
L 352.012742 159.52149 
L 349.616178 156.835307 
L 347.219613 156.981097 
L 344.823049 157.528068 
L 342.426485 157.96796 
L 340.029921 156.065118 
L 337.633357 154.77542 
L 335.236793 157.007436 
L 332.840229 158.074419 
L 330.443665 156.62563 
L 328.047101 160.227754 
L 325.650537 157.488055 
L 323.253973 157.510694 
L 320.857409 157.904805 
L 318.460845 159.896566 
L 316.064281 157.466783 
L 313.667717 156.847501 
L 311.271152 156.995697 
L 308.874588 153.692695 
L 306.478024 158.195562 
L 304.08146 156.403885 
L 301.684896 159.203638 
L 299.288332 158.026202 
L 296.891768 157.572643 
L 294.495204 158.387127 
L 292.09864 157.304735 
L 289.702076 156.212739 
L 287.305512 157.553428 
L 284.908948 158.520866 
L 282.512384 156.957795 
L 280.11582 160.375594 
L 277.719256 156.917188 
L 275.322691 157.374399 
L 272.926127 158.152676 
L 270.529563 160.904695 
L 268.132999 159.025668 
L 265.736435 158.12828 
L 263.339871 159.978605 
L 260.943307 156.867742 
L 258.546743 159.331606 
L 256.150179 157.991028 
L 253.753615 159.331528 
L 251.357051 158.705357 
L 248.960487 159.839762 
L 246.563923 158.361944 
L 244.167359 159.667521 
L 241.770795 159.298195 
L 239.37423 157.360661 
L 236.977666 159.587753 
L 234.581102 157.632732 
L 232.184538 159.376285 
L 229.787974 158.557122 
L 227.39141 159.727969 
L 224.994846 159.400523 
L 222.598282 158.925937 
L 220.201718 158.117907 
L 217.805154 157.45755 
L 215.40859 157.334597 
L 213.012026 160.035954 
L 210.615462 158.971867 
L 208.218898 161.653744 
L 205.822334 158.693577 
L 203.42577 161.53267 
L 201.029205 159.654779 
L 198.632641 157.926417 
L 196.236077 159.803294 
L 193.839513 157.19878 
L 191.442949 161.363206 
L 189.046385 159.678104 
L 186.649821 158.265125 
L 184.253257 159.827409 
L 181.856693 160.606434 
L 179.460129 158.771493 
L 177.063565 159.398894 
L 174.667001 159.412914 
L 172.270437 159.433365 
L 169.873873 157.462646 
L 167.477309 158.892222 
L 165.080744 154.689574 
L 162.68418 159.3832 
L 160.287616 161.727167 
L 157.891052 161.014547 
L 155.494488 157.565109 
L 153.097924 158.240982 
L 150.70136 159.851526 
L 148.304796 158.233269 
L 145.908232 158.774861 
L 143.511668 158.423394 
L 141.115104 162.506861 
L 138.71854 158.197438 
L 136.321976 157.87932 
L 133.925412 157.714852 
L 131.528848 160.652243 
L 129.132283 161.508556 
L 126.735719 160.608936 
L 124.339155 161.940978 
L 121.942591 162.158528 
L 119.546027 159.584523 
L 117.149463 158.269851 
L 114.752899 158.405855 
L 112.356335 167.559966 
L 109.959771 165.56663 
L 107.563207 161.028478 
L 105.166643 164.167589 
L 102.770079 162.722472 
L 100.373515 166.151417 
L 97.976951 162.380699 
L 95.580387 166.365276 
L 93.183822 166.400392 
L 90.787258 169.729177 
L 88.390694 173.557021 
L 85.99413 165.770962 
L 83.597566 162.443751 
L 81.201002 174.015445 
L 78.804438 173.272056 
L 76.407874 177.586262 
L 74.01131 183.067321 
L 71.614746 188.556581 
L 69.218182 206.239718 
z
" clip-path="url(#p6b64e67bc4)" style="fill: #2ca02c"/>
   </g>
   <g id="PolyCollection_4">
    <path d="M 69.218182 147.261084 
L 69.218182 154.244243 
L 71.614746 132.788806 
L 74.01131 127.723558 
L 76.407874 118.440961 
L 78.804438 122.741594 
L 81.201002 120.185271 
L 83.597566 111.312115 
L 85.99413 107.720537 
L 88.390694 112.995937 
L 90.787258 41807.761604 
L 93.183822 102.578496 
L 95.580387 109.215967 
L 97.976951 98.56149 
L 100.373515 98.424195 
L 102.770079 100.521685 
L 105.166643 96.167203 
L 107.563207 99.47657 
L 109.959771 106.526874 
L 112.356335 94.175045 
L 114.752899 93.30162 
L 117.149463 91.271072 
L 119.546027 93.815017 
L 121.942591 97.63866 
L 124.339155 96.23938 
L 126.735719 91.052148 
L 129.132283 92.844734 
L 131.528848 88.482108 
L 133.925412 88.559873 
L 136.321976 91.394841 
L 138.71854 88.001399 
L 141.115104 87.496213 
L 143.511668 88.833481 
L 145.908232 89.298853 
L 148.304796 91.636436 
L 150.70136 86.273294 
L 153.097924 89.39816 
L 155.494488 84.869318 
L 157.891052 87.726174 
L 160.287616 85.248323 
L 162.68418 92.332481 
L 165.080744 84.05807 
L 167.477309 89.388784 
L 169.873873 81.551218 
L 172.270437 85.559316 
L 174.667001 87.664219 
L 177.063565 82.229365 
L 179.460129 81.013186 
L 181.856693 81.459151 
L 184.253257 83.472293 
L 186.649821 87.218579 
L 189.046385 87.84338 
L 191.442949 83.974508 
L 193.839513 81.861336 
L 196.236077 80.132567 
L 198.632641 81.234689 
L 201.029205 83.020329 
L 203.42577 83.34252 
L 205.822334 79.297081 
L 208.218898 81.251925 
L 210.615462 81.08976 
L 213.012026 80.719222 
L 215.40859 89.446219 
L 217.805154 80.954571 
L 220.201718 84.552975 
L 222.598282 83.349134 
L 224.994846 81.30753 
L 227.39141 82.506244 
L 229.787974 90.88996 
L 232.184538 80.424635 
L 234.581102 79.758974 
L 236.977666 82.871087 
L 239.37423 84.663332 
L 241.770795 79.247136 
L 244.167359 79.72156 
L 246.563923 80.722617 
L 248.960487 83.339182 
L 251.357051 81.336193 
L 253.753615 78.183365 
L 256.150179 79.5892 
L 258.546743 80.389863 
L 260.943307 82.261116 
L 263.339871 77.467692 
L 265.736435 80.031887 
L 268.132999 73.042278 
L 270.529563 79.188403 
L 272.926127 78.411525 
L 275.322691 77.60824 
L 277.719256 75.93796 
L 280.11582 77.598183 
L 282.512384 75.68704 
L 284.908948 79.434966 
L 287.305512 76.541395 
L 289.702076 74.984902 
L 292.09864 74.290766 
L 294.495204 75.324695 
L 296.891768 73.619439 
L 299.288332 78.390265 
L 301.684896 74.999025 
L 304.08146 78.245505 
L 306.478024 41807.761604 
L 308.874588 78.731904 
L 311.271152 78.59901 
L 313.667717 76.542714 
L 316.064281 74.981991 
L 318.460845 74.907618 
L 320.857409 77.574524 
L 323.253973 76.499041 
L 325.650537 80.401835 
L 328.047101 76.133888 
L 330.443665 77.555214 
L 332.840229 79.064077 
L 335.236793 77.730399 
L 337.633357 75.309063 
L 340.029921 72.827981 
L 342.426485 73.00123 
L 344.823049 73.490071 
L 347.219613 72.301172 
L 349.616178 74.981506 
L 352.012742 74.488399 
L 354.409306 71.291404 
L 356.80587 72.410012 
L 359.202434 73.395235 
L 361.598998 75.940766 
L 363.995562 76.561977 
L 366.392126 73.060539 
L 368.78869 71.872646 
L 371.185254 75.815666 
L 373.581818 72.418752 
L 373.581818 70.432947 
L 373.581818 70.432947 
L 371.185254 68.585801 
L 368.78869 71.497733 
L 366.392126 70.402479 
L 363.995562 71.076242 
L 361.598998 72.168689 
L 359.202434 68.883761 
L 356.80587 71.761205 
L 354.409306 71.122331 
L 352.012742 71.884128 
L 349.616178 69.350732 
L 347.219613 71.699934 
L 344.823049 70.743585 
L 342.426485 71.192982 
L 340.029921 72.100715 
L 337.633357 69.84796 
L 335.236793 71.652819 
L 332.840229 71.311226 
L 330.443665 72.933082 
L 328.047101 71.526703 
L 325.650537 73.332565 
L 323.253973 73.368261 
L 320.857409 74.021271 
L 318.460845 73.023501 
L 316.064281 73.492896 
L 313.667717 75.685182 
L 311.271152 76.675132 
L 308.874588 71.627637 
L 306.478024 44.443636 
L 304.08146 73.655568 
L 301.684896 71.297909 
L 299.288332 69.209591 
L 296.891768 70.681404 
L 294.495204 73.420205 
L 292.09864 72.484312 
L 289.702076 72.049475 
L 287.305512 74.349982 
L 284.908948 73.855894 
L 282.512384 73.311819 
L 280.11582 76.004511 
L 277.719256 73.673463 
L 275.322691 71.407578 
L 272.926127 77.062125 
L 270.529563 77.143366 
L 268.132999 70.286698 
L 265.736435 72.118559 
L 263.339871 74.655851 
L 260.943307 72.123377 
L 258.546743 72.744555 
L 256.150179 71.775722 
L 253.753615 75.667743 
L 251.357051 76.501842 
L 248.960487 79.138469 
L 246.563923 77.548211 
L 244.167359 76.452868 
L 241.770795 76.187127 
L 239.37423 76.096092 
L 236.977666 76.841976 
L 234.581102 77.770715 
L 232.184538 80.082725 
L 229.787974 73.60563 
L 227.39141 77.360021 
L 224.994846 78.621903 
L 222.598282 74.071123 
L 220.201718 81.179067 
L 217.805154 78.159572 
L 215.40859 75.98866 
L 213.012026 79.892931 
L 210.615462 77.234356 
L 208.218898 76.859906 
L 205.822334 78.611724 
L 203.42577 74.30693 
L 201.029205 74.207505 
L 198.632641 79.265817 
L 196.236077 78.698624 
L 193.839513 78.735057 
L 191.442949 81.416613 
L 189.046385 77.874951 
L 186.649821 74.777177 
L 184.253257 78.984358 
L 181.856693 78.045786 
L 179.460129 80.133142 
L 177.063565 79.377277 
L 174.667001 77.659585 
L 172.270437 75.645035 
L 169.873873 79.966276 
L 167.477309 75.9883 
L 165.080744 77.883353 
L 162.68418 78.212908 
L 160.287616 82.044234 
L 157.891052 79.894533 
L 155.494488 83.261605 
L 153.097924 85.068979 
L 150.70136 84.433366 
L 148.304796 78.907476 
L 145.908232 84.077842 
L 143.511668 85.113976 
L 141.115104 82.398762 
L 138.71854 82.350701 
L 136.321976 87.046562 
L 133.925412 86.155473 
L 131.528848 86.887384 
L 129.132283 87.299724 
L 126.735719 86.004896 
L 124.339155 82.367822 
L 121.942591 84.05343 
L 119.546027 86.904794 
L 117.149463 90.200323 
L 114.752899 86.352344 
L 112.356335 93.743934 
L 109.959771 95.760433 
L 107.563207 94.145723 
L 105.166643 93.747828 
L 102.770079 93.266378 
L 100.373515 92.242218 
L 97.976951 92.082035 
L 95.580387 91.195365 
L 93.183822 97.640553 
L 90.787258 83.942054 
L 88.390694 100.79798 
L 85.99413 101.756016 
L 83.597566 101.183289 
L 81.201002 111.854649 
L 78.804438 114.906222 
L 76.407874 116.127902 
L 74.01131 118.247782 
L 71.614746 124.653424 
L 69.218182 147.261084 
z
" clip-path="url(#p6b64e67bc4)" style="fill: #d62728"/>
   </g>
   <g id="matplotlib.axis_1">
    <g id="xtick_1">
     <g id="line2d_1">
      <defs>
       <path id="m187e6ee4bf" d="M 0 0 
L 0 3.5 
" style="stroke: #000000; stroke-width: 0.8"/>
      </defs>
      <g>
       <use xlink:href="#m187e6ee4bf" x="69.218182" y="252" style="stroke: #000000; stroke-width: 0.8"/>
      </g>
     </g>
     <g id="text_1">
      <!-- 1 -->
      <g transform="translate(66.036932 266.598437)scale(0.1 -0.1)">
       <defs>
        <path id="DejaVuSans-31" d="M 794 531 
L 1825 531 
L 1825 4091 
L 703 3866 
L 703 4441 
L 1819 4666 
L 2450 4666 
L 2450 531 
L 3481 531 
L 3481 0 
L 794 0 
L 794 531 
z
" transform="scale(0.015625)"/>
       </defs>
       <use xlink:href="#DejaVuSans-31"/>
      </g>
     </g>
    </g>
    <g id="xtick_2">
     <g id="line2d_2">
      <g>
       <use xlink:href="#m187e6ee4bf" x="90.787258" y="252" style="stroke: #000000; stroke-width: 0.8"/>
      </g>
     </g>
     <g id="text_2">
      <!-- 19 -->
      <g transform="translate(84.424758 266.598437)scale(0.1 -0.1)">
       <defs>
        <path id="DejaVuSans-39" d="M 703 97 
L 703 672 
Q 941 559 1184 500 
Q 1428 441 1663 441 
Q 2288 441 2617 861 
Q 2947 1281 2994 2138 
Q 2813 1869 2534 1725 
Q 2256 1581 1919 1581 
Q 1219 1581 811 2004 
Q 403 2428 403 3163 
Q 403 3881 828 4315 
Q 1253 4750 1959 4750 
Q 2769 4750 3195 4129 
Q 3622 3509 3622 2328 
Q 3622 1225 3098 567 
Q 2575 -91 1691 -91 
Q 1453 -91 1209 -44 
Q 966 3 703 97 
z
M 1959 2075 
Q 2384 2075 2632 2365 
Q 2881 2656 2881 3163 
Q 2881 3666 2632 3958 
Q 2384 4250 1959 4250 
Q 1534 4250 1286 3958 
Q 1038 3666 1038 3163 
Q 1038 2656 1286 2365 
Q 1534 2075 1959 2075 
z
" transform="scale(0.015625)"/>
       </defs>
       <use xlink:href="#DejaVuSans-31"/>
       <use xlink:href="#DejaVuSans-39" x="63.623047"/>
      </g>
     </g>
    </g>
    <g id="xtick_3">
     <g id="line2d_3">
      <g>
       <use xlink:href="#m187e6ee4bf" x="112.356335" y="252" style="stroke: #000000; stroke-width: 0.8"/>
      </g>
     </g>
     <g id="text_3">
      <!-- 37 -->
      <g transform="translate(105.993835 266.598437)scale(0.1 -0.1)">
       <defs>
        <path id="DejaVuSans-33" d="M 2597 2516 
Q 3050 2419 3304 2112 
Q 3559 1806 3559 1356 
Q 3559 666 3084 287 
Q 2609 -91 1734 -91 
Q 1441 -91 1130 -33 
Q 819 25 488 141 
L 488 750 
Q 750 597 1062 519 
Q 1375 441 1716 441 
Q 2309 441 2620 675 
Q 2931 909 2931 1356 
Q 2931 1769 2642 2001 
Q 2353 2234 1838 2234 
L 1294 2234 
L 1294 2753 
L 1863 2753 
Q 2328 2753 2575 2939 
Q 2822 3125 2822 3475 
Q 2822 3834 2567 4026 
Q 2313 4219 1838 4219 
Q 1578 4219 1281 4162 
Q 984 4106 628 3988 
L 628 4550 
Q 988 4650 1302 4700 
Q 1616 4750 1894 4750 
Q 2613 4750 3031 4423 
Q 3450 4097 3450 3541 
Q 3450 3153 3228 2886 
Q 3006 2619 2597 2516 
z
" transform="scale(0.015625)"/>
        <path id="DejaVuSans-37" d="M 525 4666 
L 3525 4666 
L 3525 4397 
L 1831 0 
L 1172 0 
L 2766 4134 
L 525 4134 
L 525 4666 
z
" transform="scale(0.015625)"/>
       </defs>
       <use xlink:href="#DejaVuSans-33"/>
       <use xlink:href="#DejaVuSans-37" x="63.623047"/>
      </g>
     </g>
    </g>
    <g id="xtick_4">
     <g id="line2d_4">
      <g>
       <use xlink:href="#m187e6ee4bf" x="133.925412" y="252" style="stroke: #000000; stroke-width: 0.8"/>
      </g>
     </g>
     <g id="text_4">
      <!-- 55 -->
      <g transform="translate(127.562912 266.598437)scale(0.1 -0.1)">
       <defs>
        <path id="DejaVuSans-35" d="M 691 4666 
L 3169 4666 
L 3169 4134 
L 1269 4134 
L 1269 2991 
Q 1406 3038 1543 3061 
Q 1681 3084 1819 3084 
Q 2600 3084 3056 2656 
Q 3513 2228 3513 1497 
Q 3513 744 3044 326 
Q 2575 -91 1722 -91 
Q 1428 -91 1123 -41 
Q 819 9 494 109 
L 494 744 
Q 775 591 1075 516 
Q 1375 441 1709 441 
Q 2250 441 2565 725 
Q 2881 1009 2881 1497 
Q 2881 1984 2565 2268 
Q 2250 2553 1709 2553 
Q 1456 2553 1204 2497 
Q 953 2441 691 2322 
L 691 4666 
z
" transform="scale(0.015625)"/>
       </defs>
       <use xlink:href="#DejaVuSans-35"/>
       <use xlink:href="#DejaVuSans-35" x="63.623047"/>
      </g>
     </g>
    </g>
    <g id="xtick_5">
     <g id="line2d_5">
      <g>
       <use xlink:href="#m187e6ee4bf" x="155.494488" y="252" style="stroke: #000000; stroke-width: 0.8"/>
      </g>
     </g>
     <g id="text_5">
      <!-- 73 -->
      <g transform="translate(149.131988 266.598437)scale(0.1 -0.1)">
       <use xlink:href="#DejaVuSans-37"/>
       <use xlink:href="#DejaVuSans-33" x="63.623047"/>
      </g>
     </g>
    </g>
    <g id="xtick_6">
     <g id="line2d_6">
      <g>
       <use xlink:href="#m187e6ee4bf" x="177.063565" y="252" style="stroke: #000000; stroke-width: 0.8"/>
      </g>
     </g>
     <g id="text_6">
      <!-- 91 -->
      <g transform="translate(170.701065 266.598437)scale(0.1 -0.1)">
       <use xlink:href="#DejaVuSans-39"/>
       <use xlink:href="#DejaVuSans-31" x="63.623047"/>
      </g>
     </g>
    </g>
    <g id="xtick_7">
     <g id="line2d_7">
      <g>
       <use xlink:href="#m187e6ee4bf" x="198.632641" y="252" style="stroke: #000000; stroke-width: 0.8"/>
      </g>
     </g>
     <g id="text_7">
      <!-- 109 -->
      <g transform="translate(189.088891 266.598437)scale(0.1 -0.1)">
       <defs>
        <path id="DejaVuSans-30" d="M 2034 4250 
Q 1547 4250 1301 3770 
Q 1056 3291 1056 2328 
Q 1056 1369 1301 889 
Q 1547 409 2034 409 
Q 2525 409 2770 889 
Q 3016 1369 3016 2328 
Q 3016 3291 2770 3770 
Q 2525 4250 2034 4250 
z
M 2034 4750 
Q 2819 4750 3233 4129 
Q 3647 3509 3647 2328 
Q 3647 1150 3233 529 
Q 2819 -91 2034 -91 
Q 1250 -91 836 529 
Q 422 1150 422 2328 
Q 422 3509 836 4129 
Q 1250 4750 2034 4750 
z
" transform="scale(0.015625)"/>
       </defs>
       <use xlink:href="#DejaVuSans-31"/>
       <use xlink:href="#DejaVuSans-30" x="63.623047"/>
       <use xlink:href="#DejaVuSans-39" x="127.246094"/>
      </g>
     </g>
    </g>
    <g id="xtick_8">
     <g id="line2d_8">
      <g>
       <use xlink:href="#m187e6ee4bf" x="220.201718" y="252" style="stroke: #000000; stroke-width: 0.8"/>
      </g>
     </g>
     <g id="text_8">
      <!-- 127 -->
      <g transform="translate(210.657968 266.598437)scale(0.1 -0.1)">
       <defs>
        <path id="DejaVuSans-32" d="M 1228 531 
L 3431 531 
L 3431 0 
L 469 0 
L 469 531 
Q 828 903 1448 1529 
Q 2069 2156 2228 2338 
Q 2531 2678 2651 2914 
Q 2772 3150 2772 3378 
Q 2772 3750 2511 3984 
Q 2250 4219 1831 4219 
Q 1534 4219 1204 4116 
Q 875 4013 500 3803 
L 500 4441 
Q 881 4594 1212 4672 
Q 1544 4750 1819 4750 
Q 2544 4750 2975 4387 
Q 3406 4025 3406 3419 
Q 3406 3131 3298 2873 
Q 3191 2616 2906 2266 
Q 2828 2175 2409 1742 
Q 1991 1309 1228 531 
z
" transform="scale(0.015625)"/>
       </defs>
       <use xlink:href="#DejaVuSans-31"/>
       <use xlink:href="#DejaVuSans-32" x="63.623047"/>
       <use xlink:href="#DejaVuSans-37" x="127.246094"/>
      </g>
     </g>
    </g>
    <g id="xtick_9">
     <g id="line2d_9">
      <g>
       <use xlink:href="#m187e6ee4bf" x="241.770795" y="252" style="stroke: #000000; stroke-width: 0.8"/>
      </g>
     </g>
     <g id="text_9">
      <!-- 145 -->
      <g transform="translate(232.227045 266.598437)scale(0.1 -0.1)">
       <defs>
        <path id="DejaVuSans-34" d="M 2419 4116 
L 825 1625 
L 2419 1625 
L 2419 4116 
z
M 2253 4666 
L 3047 4666 
L 3047 1625 
L 3713 1625 
L 3713 1100 
L 3047 1100 
L 3047 0 
L 2419 0 
L 2419 1100 
L 313 1100 
L 313 1709 
L 2253 4666 
z
" transform="scale(0.015625)"/>
       </defs>
       <use xlink:href="#DejaVuSans-31"/>
       <use xlink:href="#DejaVuSans-34" x="63.623047"/>
       <use xlink:href="#DejaVuSans-35" x="127.246094"/>
      </g>
     </g>
    </g>
    <g id="xtick_10">
     <g id="line2d_10">
      <g>
       <use xlink:href="#m187e6ee4bf" x="263.339871" y="252" style="stroke: #000000; stroke-width: 0.8"/>
      </g>
     </g>
     <g id="text_10">
      <!-- 163 -->
      <g transform="translate(253.796121 266.598437)scale(0.1 -0.1)">
       <defs>
        <path id="DejaVuSans-36" d="M 2113 2584 
Q 1688 2584 1439 2293 
Q 1191 2003 1191 1497 
Q 1191 994 1439 701 
Q 1688 409 2113 409 
Q 2538 409 2786 701 
Q 3034 994 3034 1497 
Q 3034 2003 2786 2293 
Q 2538 2584 2113 2584 
z
M 3366 4563 
L 3366 3988 
Q 3128 4100 2886 4159 
Q 2644 4219 2406 4219 
Q 1781 4219 1451 3797 
Q 1122 3375 1075 2522 
Q 1259 2794 1537 2939 
Q 1816 3084 2150 3084 
Q 2853 3084 3261 2657 
Q 3669 2231 3669 1497 
Q 3669 778 3244 343 
Q 2819 -91 2113 -91 
Q 1303 -91 875 529 
Q 447 1150 447 2328 
Q 447 3434 972 4092 
Q 1497 4750 2381 4750 
Q 2619 4750 2861 4703 
Q 3103 4656 3366 4563 
z
" transform="scale(0.015625)"/>
       </defs>
       <use xlink:href="#DejaVuSans-31"/>
       <use xlink:href="#DejaVuSans-36" x="63.623047"/>
       <use xlink:href="#DejaVuSans-33" x="127.246094"/>
      </g>
     </g>
    </g>
    <g id="xtick_11">
     <g id="line2d_11">
      <g>
       <use xlink:href="#m187e6ee4bf" x="284.908948" y="252" style="stroke: #000000; stroke-width: 0.8"/>
      </g>
     </g>
     <g id="text_11">
      <!-- 181 -->
      <g transform="translate(275.365198 266.598437)scale(0.1 -0.1)">
       <defs>
        <path id="DejaVuSans-38" d="M 2034 2216 
Q 1584 2216 1326 1975 
Q 1069 1734 1069 1313 
Q 1069 891 1326 650 
Q 1584 409 2034 409 
Q 2484 409 2743 651 
Q 3003 894 3003 1313 
Q 3003 1734 2745 1975 
Q 2488 2216 2034 2216 
z
M 1403 2484 
Q 997 2584 770 2862 
Q 544 3141 544 3541 
Q 544 4100 942 4425 
Q 1341 4750 2034 4750 
Q 2731 4750 3128 4425 
Q 3525 4100 3525 3541 
Q 3525 3141 3298 2862 
Q 3072 2584 2669 2484 
Q 3125 2378 3379 2068 
Q 3634 1759 3634 1313 
Q 3634 634 3220 271 
Q 2806 -91 2034 -91 
Q 1263 -91 848 271 
Q 434 634 434 1313 
Q 434 1759 690 2068 
Q 947 2378 1403 2484 
z
M 1172 3481 
Q 1172 3119 1398 2916 
Q 1625 2713 2034 2713 
Q 2441 2713 2670 2916 
Q 2900 3119 2900 3481 
Q 2900 3844 2670 4047 
Q 2441 4250 2034 4250 
Q 1625 4250 1398 4047 
Q 1172 3844 1172 3481 
z
" transform="scale(0.015625)"/>
       </defs>
       <use xlink:href="#DejaVuSans-31"/>
       <use xlink:href="#DejaVuSans-38" x="63.623047"/>
       <use xlink:href="#DejaVuSans-31" x="127.246094"/>
      </g>
     </g>
    </g>
    <g id="xtick_12">
     <g id="line2d_12">
      <g>
       <use xlink:href="#m187e6ee4bf" x="306.478024" y="252" style="stroke: #000000; stroke-width: 0.8"/>
      </g>
     </g>
     <g id="text_12">
      <!-- 199 -->
      <g transform="translate(296.934274 266.598437)scale(0.1 -0.1)">
       <use xlink:href="#DejaVuSans-31"/>
       <use xlink:href="#DejaVuSans-39" x="63.623047"/>
       <use xlink:href="#DejaVuSans-39" x="127.246094"/>
      </g>
     </g>
    </g>
    <g id="xtick_13">
     <g id="line2d_13">
      <g>
       <use xlink:href="#m187e6ee4bf" x="328.047101" y="252" style="stroke: #000000; stroke-width: 0.8"/>
      </g>
     </g>
     <g id="text_13">
      <!-- 217 -->
      <g transform="translate(318.503351 266.598437)scale(0.1 -0.1)">
       <use xlink:href="#DejaVuSans-32"/>
       <use xlink:href="#DejaVuSans-31" x="63.623047"/>
       <use xlink:href="#DejaVuSans-37" x="127.246094"/>
      </g>
     </g>
    </g>
    <g id="xtick_14">
     <g id="line2d_14">
      <g>
       <use xlink:href="#m187e6ee4bf" x="349.616178" y="252" style="stroke: #000000; stroke-width: 0.8"/>
      </g>
     </g>
     <g id="text_14">
      <!-- 235 -->
      <g transform="translate(340.072428 266.598437)scale(0.1 -0.1)">
       <use xlink:href="#DejaVuSans-32"/>
       <use xlink:href="#DejaVuSans-33" x="63.623047"/>
       <use xlink:href="#DejaVuSans-35" x="127.246094"/>
      </g>
     </g>
    </g>
    <g id="xtick_15">
     <g id="line2d_15">
      <g>
       <use xlink:href="#m187e6ee4bf" x="371.185254" y="252" style="stroke: #000000; stroke-width: 0.8"/>
      </g>
     </g>
     <g id="text_15">
      <!-- 253 -->
      <g transform="translate(361.641504 266.598437)scale(0.1 -0.1)">
       <use xlink:href="#DejaVuSans-32"/>
       <use xlink:href="#DejaVuSans-35" x="63.623047"/>
       <use xlink:href="#DejaVuSans-33" x="127.246094"/>
      </g>
     </g>
    </g>
    <g id="text_16">
     <!-- Program size -->
     <g transform="translate(189.022656 280.276563)scale(0.1 -0.1)">
      <defs>
       <path id="DejaVuSans-50" d="M 1259 4147 
L 1259 2394 
L 2053 2394 
Q 2494 2394 2734 2622 
Q 2975 2850 2975 3272 
Q 2975 3691 2734 3919 
Q 2494 4147 2053 4147 
L 1259 4147 
z
M 628 4666 
L 2053 4666 
Q 2838 4666 3239 4311 
Q 3641 3956 3641 3272 
Q 3641 2581 3239 2228 
Q 2838 1875 2053 1875 
L 1259 1875 
L 1259 0 
L 628 0 
L 628 4666 
z
" transform="scale(0.015625)"/>
       <path id="DejaVuSans-72" d="M 2631 2963 
Q 2534 3019 2420 3045 
Q 2306 3072 2169 3072 
Q 1681 3072 1420 2755 
Q 1159 2438 1159 1844 
L 1159 0 
L 581 0 
L 581 3500 
L 1159 3500 
L 1159 2956 
Q 1341 3275 1631 3429 
Q 1922 3584 2338 3584 
Q 2397 3584 2469 3576 
Q 2541 3569 2628 3553 
L 2631 2963 
z
" transform="scale(0.015625)"/>
       <path id="DejaVuSans-6f" d="M 1959 3097 
Q 1497 3097 1228 2736 
Q 959 2375 959 1747 
Q 959 1119 1226 758 
Q 1494 397 1959 397 
Q 2419 397 2687 759 
Q 2956 1122 2956 1747 
Q 2956 2369 2687 2733 
Q 2419 3097 1959 3097 
z
M 1959 3584 
Q 2709 3584 3137 3096 
Q 3566 2609 3566 1747 
Q 3566 888 3137 398 
Q 2709 -91 1959 -91 
Q 1206 -91 779 398 
Q 353 888 353 1747 
Q 353 2609 779 3096 
Q 1206 3584 1959 3584 
z
" transform="scale(0.015625)"/>
       <path id="DejaVuSans-67" d="M 2906 1791 
Q 2906 2416 2648 2759 
Q 2391 3103 1925 3103 
Q 1463 3103 1205 2759 
Q 947 2416 947 1791 
Q 947 1169 1205 825 
Q 1463 481 1925 481 
Q 2391 481 2648 825 
Q 2906 1169 2906 1791 
z
M 3481 434 
Q 3481 -459 3084 -895 
Q 2688 -1331 1869 -1331 
Q 1566 -1331 1297 -1286 
Q 1028 -1241 775 -1147 
L 775 -588 
Q 1028 -725 1275 -790 
Q 1522 -856 1778 -856 
Q 2344 -856 2625 -561 
Q 2906 -266 2906 331 
L 2906 616 
Q 2728 306 2450 153 
Q 2172 0 1784 0 
Q 1141 0 747 490 
Q 353 981 353 1791 
Q 353 2603 747 3093 
Q 1141 3584 1784 3584 
Q 2172 3584 2450 3431 
Q 2728 3278 2906 2969 
L 2906 3500 
L 3481 3500 
L 3481 434 
z
" transform="scale(0.015625)"/>
       <path id="DejaVuSans-61" d="M 2194 1759 
Q 1497 1759 1228 1600 
Q 959 1441 959 1056 
Q 959 750 1161 570 
Q 1363 391 1709 391 
Q 2188 391 2477 730 
Q 2766 1069 2766 1631 
L 2766 1759 
L 2194 1759 
z
M 3341 1997 
L 3341 0 
L 2766 0 
L 2766 531 
Q 2569 213 2275 61 
Q 1981 -91 1556 -91 
Q 1019 -91 701 211 
Q 384 513 384 1019 
Q 384 1609 779 1909 
Q 1175 2209 1959 2209 
L 2766 2209 
L 2766 2266 
Q 2766 2663 2505 2880 
Q 2244 3097 1772 3097 
Q 1472 3097 1187 3025 
Q 903 2953 641 2809 
L 641 3341 
Q 956 3463 1253 3523 
Q 1550 3584 1831 3584 
Q 2591 3584 2966 3190 
Q 3341 2797 3341 1997 
z
" transform="scale(0.015625)"/>
       <path id="DejaVuSans-6d" d="M 3328 2828 
Q 3544 3216 3844 3400 
Q 4144 3584 4550 3584 
Q 5097 3584 5394 3201 
Q 5691 2819 5691 2113 
L 5691 0 
L 5113 0 
L 5113 2094 
Q 5113 2597 4934 2840 
Q 4756 3084 4391 3084 
Q 3944 3084 3684 2787 
Q 3425 2491 3425 1978 
L 3425 0 
L 2847 0 
L 2847 2094 
Q 2847 2600 2669 2842 
Q 2491 3084 2119 3084 
Q 1678 3084 1418 2786 
Q 1159 2488 1159 1978 
L 1159 0 
L 581 0 
L 581 3500 
L 1159 3500 
L 1159 2956 
Q 1356 3278 1631 3431 
Q 1906 3584 2284 3584 
Q 2666 3584 2933 3390 
Q 3200 3197 3328 2828 
z
" transform="scale(0.015625)"/>
       <path id="DejaVuSans-20" transform="scale(0.015625)"/>
       <path id="DejaVuSans-73" d="M 2834 3397 
L 2834 2853 
Q 2591 2978 2328 3040 
Q 2066 3103 1784 3103 
Q 1356 3103 1142 2972 
Q 928 2841 928 2578 
Q 928 2378 1081 2264 
Q 1234 2150 1697 2047 
L 1894 2003 
Q 2506 1872 2764 1633 
Q 3022 1394 3022 966 
Q 3022 478 2636 193 
Q 2250 -91 1575 -91 
Q 1294 -91 989 -36 
Q 684 19 347 128 
L 347 722 
Q 666 556 975 473 
Q 1284 391 1588 391 
Q 1994 391 2212 530 
Q 2431 669 2431 922 
Q 2431 1156 2273 1281 
Q 2116 1406 1581 1522 
L 1381 1569 
Q 847 1681 609 1914 
Q 372 2147 372 2553 
Q 372 3047 722 3315 
Q 1072 3584 1716 3584 
Q 2034 3584 2315 3537 
Q 2597 3491 2834 3397 
z
" transform="scale(0.015625)"/>
       <path id="DejaVuSans-69" d="M 603 3500 
L 1178 3500 
L 1178 0 
L 603 0 
L 603 3500 
z
M 603 4863 
L 1178 4863 
L 1178 4134 
L 603 4134 
L 603 4863 
z
" transform="scale(0.015625)"/>
       <path id="DejaVuSans-7a" d="M 353 3500 
L 3084 3500 
L 3084 2975 
L 922 459 
L 3084 459 
L 3084 0 
L 275 0 
L 275 525 
L 2438 3041 
L 353 3041 
L 353 3500 
z
" transform="scale(0.015625)"/>
       <path id="DejaVuSans-65" d="M 3597 1894 
L 3597 1613 
L 953 1613 
Q 991 1019 1311 708 
Q 1631 397 2203 397 
Q 2534 397 2845 478 
Q 3156 559 3463 722 
L 3463 178 
Q 3153 47 2828 -22 
Q 2503 -91 2169 -91 
Q 1331 -91 842 396 
Q 353 884 353 1716 
Q 353 2575 817 3079 
Q 1281 3584 2069 3584 
Q 2775 3584 3186 3129 
Q 3597 2675 3597 1894 
z
M 3022 2063 
Q 3016 2534 2758 2815 
Q 2500 3097 2075 3097 
Q 1594 3097 1305 2825 
Q 1016 2553 972 2059 
L 3022 2063 
z
" transform="scale(0.015625)"/>
      </defs>
      <use xlink:href="#DejaVuSans-50"/>
      <use xlink:href="#DejaVuSans-72" x="58.552734"/>
      <use xlink:href="#DejaVuSans-6f" x="97.416016"/>
      <use xlink:href="#DejaVuSans-67" x="158.597656"/>
      <use xlink:href="#DejaVuSans-72" x="222.074219"/>
      <use xlink:href="#DejaVuSans-61" x="263.1875"/>
      <use xlink:href="#DejaVuSans-6d" x="324.466797"/>
      <use xlink:href="#DejaVuSans-20" x="421.878906"/>
      <use xlink:href="#DejaVuSans-73" x="453.666016"/>
      <use xlink:href="#DejaVuSans-69" x="505.765625"/>
      <use xlink:href="#DejaVuSans-7a" x="533.548828"/>
      <use xlink:href="#DejaVuSans-65" x="586.039062"/>
     </g>
    </g>
   </g>
   <g id="matplotlib.axis_2">
    <g id="ytick_1">
     <g id="line2d_16">
      <defs>
       <path id="m369f3228d0" d="M 0 0 
L -3.5 0 
" style="stroke: #000000; stroke-width: 0.8"/>
      </defs>
      <g>
       <use xlink:href="#m369f3228d0" x="54" y="230.810492" style="stroke: #000000; stroke-width: 0.8"/>
      </g>
     </g>
     <g id="text_17">
      <!-- $\mathdefault{10^{6}}$ -->
      <g transform="translate(29.4 234.609711)scale(0.1 -0.1)">
       <use xlink:href="#DejaVuSans-31" transform="translate(0 0.765625)"/>
       <use xlink:href="#DejaVuSans-30" transform="translate(63.623047 0.765625)"/>
       <use xlink:href="#DejaVuSans-36" transform="translate(128.203125 39.046875)scale(0.7)"/>
      </g>
     </g>
    </g>
    <g id="ytick_2">
     <g id="line2d_17">
      <g>
       <use xlink:href="#m369f3228d0" x="54" y="189.481515" style="stroke: #000000; stroke-width: 0.8"/>
      </g>
     </g>
     <g id="text_18">
      <!-- $\mathdefault{10^{7}}$ -->
      <g transform="translate(29.4 193.280734)scale(0.1 -0.1)">
       <use xlink:href="#DejaVuSans-31" transform="translate(0 0.684375)"/>
       <use xlink:href="#DejaVuSans-30" transform="translate(63.623047 0.684375)"/>
       <use xlink:href="#DejaVuSans-37" transform="translate(128.203125 38.965625)scale(0.7)"/>
      </g>
     </g>
    </g>
    <g id="ytick_3">
     <g id="line2d_18">
      <g>
       <use xlink:href="#m369f3228d0" x="54" y="148.152538" style="stroke: #000000; stroke-width: 0.8"/>
      </g>
     </g>
     <g id="text_19">
      <!-- $\mathdefault{10^{8}}$ -->
      <g transform="translate(29.4 151.951756)scale(0.1 -0.1)">
       <use xlink:href="#DejaVuSans-31" transform="translate(0 0.765625)"/>
       <use xlink:href="#DejaVuSans-30" transform="translate(63.623047 0.765625)"/>
       <use xlink:href="#DejaVuSans-38" transform="translate(128.203125 39.046875)scale(0.7)"/>
      </g>
     </g>
    </g>
    <g id="ytick_4">
     <g id="line2d_19">
      <g>
       <use xlink:href="#m369f3228d0" x="54" y="106.82356" style="stroke: #000000; stroke-width: 0.8"/>
      </g>
     </g>
     <g id="text_20">
      <!-- $\mathdefault{10^{9}}$ -->
      <g transform="translate(29.4 110.622779)scale(0.1 -0.1)">
       <use xlink:href="#DejaVuSans-31" transform="translate(0 0.765625)"/>
       <use xlink:href="#DejaVuSans-30" transform="translate(63.623047 0.765625)"/>
       <use xlink:href="#DejaVuSans-39" transform="translate(128.203125 39.046875)scale(0.7)"/>
      </g>
     </g>
    </g>
    <g id="ytick_5">
     <g id="line2d_20">
      <g>
       <use xlink:href="#m369f3228d0" x="54" y="65.494583" style="stroke: #000000; stroke-width: 0.8"/>
      </g>
     </g>
     <g id="text_21">
      <!-- $\mathdefault{10^{10}}$ -->
      <g transform="translate(24.9 69.293802)scale(0.1 -0.1)">
       <use xlink:href="#DejaVuSans-31" transform="translate(0 0.765625)"/>
       <use xlink:href="#DejaVuSans-30" transform="translate(63.623047 0.765625)"/>
       <use xlink:href="#DejaVuSans-31" transform="translate(128.203125 39.046875)scale(0.7)"/>
       <use xlink:href="#DejaVuSans-30" transform="translate(172.739258 39.046875)scale(0.7)"/>
      </g>
     </g>
    </g>
    <g id="ytick_6">
     <g id="line2d_21">
      <defs>
       <path id="m4e7e6e7de2" d="M 0 0 
L -2 0 
" style="stroke: #000000; stroke-width: 0.6"/>
      </defs>
      <g>
       <use xlink:href="#m4e7e6e7de2" x="54" y="247.256946" style="stroke: #000000; stroke-width: 0.6"/>
      </g>
     </g>
    </g>
    <g id="ytick_7">
     <g id="line2d_22">
      <g>
       <use xlink:href="#m4e7e6e7de2" x="54" y="243.251754" style="stroke: #000000; stroke-width: 0.6"/>
      </g>
     </g>
    </g>
    <g id="ytick_8">
     <g id="line2d_23">
      <g>
       <use xlink:href="#m4e7e6e7de2" x="54" y="239.979274" style="stroke: #000000; stroke-width: 0.6"/>
      </g>
     </g>
    </g>
    <g id="ytick_9">
     <g id="line2d_24">
      <g>
       <use xlink:href="#m4e7e6e7de2" x="54" y="237.212432" style="stroke: #000000; stroke-width: 0.6"/>
      </g>
     </g>
    </g>
    <g id="ytick_10">
     <g id="line2d_25">
      <g>
       <use xlink:href="#m4e7e6e7de2" x="54" y="234.815684" style="stroke: #000000; stroke-width: 0.6"/>
      </g>
     </g>
    </g>
    <g id="ytick_11">
     <g id="line2d_26">
      <g>
       <use xlink:href="#m4e7e6e7de2" x="54" y="232.701602" style="stroke: #000000; stroke-width: 0.6"/>
      </g>
     </g>
    </g>
    <g id="ytick_12">
     <g id="line2d_27">
      <g>
       <use xlink:href="#m4e7e6e7de2" x="54" y="218.36923" style="stroke: #000000; stroke-width: 0.6"/>
      </g>
     </g>
    </g>
    <g id="ytick_13">
     <g id="line2d_28">
      <g>
       <use xlink:href="#m4e7e6e7de2" x="54" y="211.091559" style="stroke: #000000; stroke-width: 0.6"/>
      </g>
     </g>
    </g>
    <g id="ytick_14">
     <g id="line2d_29">
      <g>
       <use xlink:href="#m4e7e6e7de2" x="54" y="205.927968" style="stroke: #000000; stroke-width: 0.6"/>
      </g>
     </g>
    </g>
    <g id="ytick_15">
     <g id="line2d_30">
      <g>
       <use xlink:href="#m4e7e6e7de2" x="54" y="201.922777" style="stroke: #000000; stroke-width: 0.6"/>
      </g>
     </g>
    </g>
    <g id="ytick_16">
     <g id="line2d_31">
      <g>
       <use xlink:href="#m4e7e6e7de2" x="54" y="198.650297" style="stroke: #000000; stroke-width: 0.6"/>
      </g>
     </g>
    </g>
    <g id="ytick_17">
     <g id="line2d_32">
      <g>
       <use xlink:href="#m4e7e6e7de2" x="54" y="195.883454" style="stroke: #000000; stroke-width: 0.6"/>
      </g>
     </g>
    </g>
    <g id="ytick_18">
     <g id="line2d_33">
      <g>
       <use xlink:href="#m4e7e6e7de2" x="54" y="193.486707" style="stroke: #000000; stroke-width: 0.6"/>
      </g>
     </g>
    </g>
    <g id="ytick_19">
     <g id="line2d_34">
      <g>
       <use xlink:href="#m4e7e6e7de2" x="54" y="191.372625" style="stroke: #000000; stroke-width: 0.6"/>
      </g>
     </g>
    </g>
    <g id="ytick_20">
     <g id="line2d_35">
      <g>
       <use xlink:href="#m4e7e6e7de2" x="54" y="177.040253" style="stroke: #000000; stroke-width: 0.6"/>
      </g>
     </g>
    </g>
    <g id="ytick_21">
     <g id="line2d_36">
      <g>
       <use xlink:href="#m4e7e6e7de2" x="54" y="169.762581" style="stroke: #000000; stroke-width: 0.6"/>
      </g>
     </g>
    </g>
    <g id="ytick_22">
     <g id="line2d_37">
      <g>
       <use xlink:href="#m4e7e6e7de2" x="54" y="164.598991" style="stroke: #000000; stroke-width: 0.6"/>
      </g>
     </g>
    </g>
    <g id="ytick_23">
     <g id="line2d_38">
      <g>
       <use xlink:href="#m4e7e6e7de2" x="54" y="160.593799" style="stroke: #000000; stroke-width: 0.6"/>
      </g>
     </g>
    </g>
    <g id="ytick_24">
     <g id="line2d_39">
      <g>
       <use xlink:href="#m4e7e6e7de2" x="54" y="157.321319" style="stroke: #000000; stroke-width: 0.6"/>
      </g>
     </g>
    </g>
    <g id="ytick_25">
     <g id="line2d_40">
      <g>
       <use xlink:href="#m4e7e6e7de2" x="54" y="154.554477" style="stroke: #000000; stroke-width: 0.6"/>
      </g>
     </g>
    </g>
    <g id="ytick_26">
     <g id="line2d_41">
      <g>
       <use xlink:href="#m4e7e6e7de2" x="54" y="152.157729" style="stroke: #000000; stroke-width: 0.6"/>
      </g>
     </g>
    </g>
    <g id="ytick_27">
     <g id="line2d_42">
      <g>
       <use xlink:href="#m4e7e6e7de2" x="54" y="150.043648" style="stroke: #000000; stroke-width: 0.6"/>
      </g>
     </g>
    </g>
    <g id="ytick_28">
     <g id="line2d_43">
      <g>
       <use xlink:href="#m4e7e6e7de2" x="54" y="135.711276" style="stroke: #000000; stroke-width: 0.6"/>
      </g>
     </g>
    </g>
    <g id="ytick_29">
     <g id="line2d_44">
      <g>
       <use xlink:href="#m4e7e6e7de2" x="54" y="128.433604" style="stroke: #000000; stroke-width: 0.6"/>
      </g>
     </g>
    </g>
    <g id="ytick_30">
     <g id="line2d_45">
      <g>
       <use xlink:href="#m4e7e6e7de2" x="54" y="123.270014" style="stroke: #000000; stroke-width: 0.6"/>
      </g>
     </g>
    </g>
    <g id="ytick_31">
     <g id="line2d_46">
      <g>
       <use xlink:href="#m4e7e6e7de2" x="54" y="119.264822" style="stroke: #000000; stroke-width: 0.6"/>
      </g>
     </g>
    </g>
    <g id="ytick_32">
     <g id="line2d_47">
      <g>
       <use xlink:href="#m4e7e6e7de2" x="54" y="115.992342" style="stroke: #000000; stroke-width: 0.6"/>
      </g>
     </g>
    </g>
    <g id="ytick_33">
     <g id="line2d_48">
      <g>
       <use xlink:href="#m4e7e6e7de2" x="54" y="113.2255" style="stroke: #000000; stroke-width: 0.6"/>
      </g>
     </g>
    </g>
    <g id="ytick_34">
     <g id="line2d_49">
      <g>
       <use xlink:href="#m4e7e6e7de2" x="54" y="110.828752" style="stroke: #000000; stroke-width: 0.6"/>
      </g>
     </g>
    </g>
    <g id="ytick_35">
     <g id="line2d_50">
      <g>
       <use xlink:href="#m4e7e6e7de2" x="54" y="108.714671" style="stroke: #000000; stroke-width: 0.6"/>
      </g>
     </g>
    </g>
    <g id="ytick_36">
     <g id="line2d_51">
      <g>
       <use xlink:href="#m4e7e6e7de2" x="54" y="94.382298" style="stroke: #000000; stroke-width: 0.6"/>
      </g>
     </g>
    </g>
    <g id="ytick_37">
     <g id="line2d_52">
      <g>
       <use xlink:href="#m4e7e6e7de2" x="54" y="87.104627" style="stroke: #000000; stroke-width: 0.6"/>
      </g>
     </g>
    </g>
    <g id="ytick_38">
     <g id="line2d_53">
      <g>
       <use xlink:href="#m4e7e6e7de2" x="54" y="81.941037" style="stroke: #000000; stroke-width: 0.6"/>
      </g>
     </g>
    </g>
    <g id="ytick_39">
     <g id="line2d_54">
      <g>
       <use xlink:href="#m4e7e6e7de2" x="54" y="77.935845" style="stroke: #000000; stroke-width: 0.6"/>
      </g>
     </g>
    </g>
    <g id="ytick_40">
     <g id="line2d_55">
      <g>
       <use xlink:href="#m4e7e6e7de2" x="54" y="74.663365" style="stroke: #000000; stroke-width: 0.6"/>
      </g>
     </g>
    </g>
    <g id="ytick_41">
     <g id="line2d_56">
      <g>
       <use xlink:href="#m4e7e6e7de2" x="54" y="71.896523" style="stroke: #000000; stroke-width: 0.6"/>
      </g>
     </g>
    </g>
    <g id="ytick_42">
     <g id="line2d_57">
      <g>
       <use xlink:href="#m4e7e6e7de2" x="54" y="69.499775" style="stroke: #000000; stroke-width: 0.6"/>
      </g>
     </g>
    </g>
    <g id="ytick_43">
     <g id="line2d_58">
      <g>
       <use xlink:href="#m4e7e6e7de2" x="54" y="67.385693" style="stroke: #000000; stroke-width: 0.6"/>
      </g>
     </g>
    </g>
    <g id="ytick_44">
     <g id="line2d_59">
      <g>
       <use xlink:href="#m4e7e6e7de2" x="54" y="53.053321" style="stroke: #000000; stroke-width: 0.6"/>
      </g>
     </g>
    </g>
    <g id="ytick_45">
     <g id="line2d_60">
      <g>
       <use xlink:href="#m4e7e6e7de2" x="54" y="45.77565" style="stroke: #000000; stroke-width: 0.6"/>
      </g>
     </g>
    </g>
    <g id="ytick_46">
     <g id="line2d_61">
      <g>
       <use xlink:href="#m4e7e6e7de2" x="54" y="40.612059" style="stroke: #000000; stroke-width: 0.6"/>
      </g>
     </g>
    </g>
    <g id="ytick_47">
     <g id="line2d_62">
      <g>
       <use xlink:href="#m4e7e6e7de2" x="54" y="36.606868" style="stroke: #000000; stroke-width: 0.6"/>
      </g>
     </g>
    </g>
    <g id="text_22">
     <!-- Median NEPS -->
     <g transform="translate(18.820312 176.144844)rotate(-90)scale(0.1 -0.1)">
      <defs>
       <path id="DejaVuSans-4d" d="M 628 4666 
L 1569 4666 
L 2759 1491 
L 3956 4666 
L 4897 4666 
L 4897 0 
L 4281 0 
L 4281 4097 
L 3078 897 
L 2444 897 
L 1241 4097 
L 1241 0 
L 628 0 
L 628 4666 
z
" transform="scale(0.015625)"/>
       <path id="DejaVuSans-64" d="M 2906 2969 
L 2906 4863 
L 3481 4863 
L 3481 0 
L 2906 0 
L 2906 525 
Q 2725 213 2448 61 
Q 2172 -91 1784 -91 
Q 1150 -91 751 415 
Q 353 922 353 1747 
Q 353 2572 751 3078 
Q 1150 3584 1784 3584 
Q 2172 3584 2448 3432 
Q 2725 3281 2906 2969 
z
M 947 1747 
Q 947 1113 1208 752 
Q 1469 391 1925 391 
Q 2381 391 2643 752 
Q 2906 1113 2906 1747 
Q 2906 2381 2643 2742 
Q 2381 3103 1925 3103 
Q 1469 3103 1208 2742 
Q 947 2381 947 1747 
z
" transform="scale(0.015625)"/>
       <path id="DejaVuSans-6e" d="M 3513 2113 
L 3513 0 
L 2938 0 
L 2938 2094 
Q 2938 2591 2744 2837 
Q 2550 3084 2163 3084 
Q 1697 3084 1428 2787 
Q 1159 2491 1159 1978 
L 1159 0 
L 581 0 
L 581 3500 
L 1159 3500 
L 1159 2956 
Q 1366 3272 1645 3428 
Q 1925 3584 2291 3584 
Q 2894 3584 3203 3211 
Q 3513 2838 3513 2113 
z
" transform="scale(0.015625)"/>
       <path id="DejaVuSans-4e" d="M 628 4666 
L 1478 4666 
L 3547 763 
L 3547 4666 
L 4159 4666 
L 4159 0 
L 3309 0 
L 1241 3903 
L 1241 0 
L 628 0 
L 628 4666 
z
" transform="scale(0.015625)"/>
       <path id="DejaVuSans-45" d="M 628 4666 
L 3578 4666 
L 3578 4134 
L 1259 4134 
L 1259 2753 
L 3481 2753 
L 3481 2222 
L 1259 2222 
L 1259 531 
L 3634 531 
L 3634 0 
L 628 0 
L 628 4666 
z
" transform="scale(0.015625)"/>
       <path id="DejaVuSans-53" d="M 3425 4513 
L 3425 3897 
Q 3066 4069 2747 4153 
Q 2428 4238 2131 4238 
Q 1616 4238 1336 4038 
Q 1056 3838 1056 3469 
Q 1056 3159 1242 3001 
Q 1428 2844 1947 2747 
L 2328 2669 
Q 3034 2534 3370 2195 
Q 3706 1856 3706 1288 
Q 3706 609 3251 259 
Q 2797 -91 1919 -91 
Q 1588 -91 1214 -16 
Q 841 59 441 206 
L 441 856 
Q 825 641 1194 531 
Q 1563 422 1919 422 
Q 2459 422 2753 634 
Q 3047 847 3047 1241 
Q 3047 1584 2836 1778 
Q 2625 1972 2144 2069 
L 1759 2144 
Q 1053 2284 737 2584 
Q 422 2884 422 3419 
Q 422 4038 858 4394 
Q 1294 4750 2059 4750 
Q 2388 4750 2728 4690 
Q 3069 4631 3425 4513 
z
" transform="scale(0.015625)"/>
      </defs>
      <use xlink:href="#DejaVuSans-4d"/>
      <use xlink:href="#DejaVuSans-65" x="86.279297"/>
      <use xlink:href="#DejaVuSans-64" x="147.802734"/>
      <use xlink:href="#DejaVuSans-69" x="211.279297"/>
      <use xlink:href="#DejaVuSans-61" x="239.0625"/>
      <use xlink:href="#DejaVuSans-6e" x="300.341797"/>
      <use xlink:href="#DejaVuSans-20" x="363.720703"/>
      <use xlink:href="#DejaVuSans-4e" x="395.507812"/>
      <use xlink:href="#DejaVuSans-45" x="470.3125"/>
      <use xlink:href="#DejaVuSans-50" x="533.496094"/>
      <use xlink:href="#DejaVuSans-53" x="593.798828"/>
     </g>
    </g>
   </g>
   <g id="line2d_63">
    <path d="M 69.218182 241.857862 
L 71.614746 224.812356 
L 74.01131 217.454229 
L 78.804438 206.312731 
L 81.201002 206.830794 
L 83.597566 200.110012 
L 85.99413 200.259518 
L 88.390694 203.311515 
L 93.183822 195.255485 
L 95.580387 195.289001 
L 97.976951 193.84124 
L 100.373515 194.585796 
L 102.770079 193.298948 
L 105.166643 190.391142 
L 107.563207 191.613614 
L 109.959771 193.416409 
L 112.356335 194.906469 
L 114.752899 188.090092 
L 119.546027 190.573669 
L 121.942591 190.90862 
L 124.339155 189.394584 
L 126.735719 189.422577 
L 129.132283 190.04634 
L 131.528848 189.526518 
L 133.925412 186.972694 
L 136.321976 186.571784 
L 138.71854 185.72861 
L 141.115104 188.048396 
L 143.511668 186.43483 
L 145.908232 184.47787 
L 148.304796 187.299024 
L 150.70136 187.655711 
L 153.097924 187.826877 
L 155.494488 186.577338 
L 157.891052 185.902405 
L 160.287616 187.737026 
L 162.68418 188.143033 
L 165.080744 182.196236 
L 167.477309 186.874493 
L 169.873873 185.298368 
L 172.270437 186.801308 
L 174.667001 187.957157 
L 177.063565 186.449395 
L 181.856693 187.334501 
L 184.253257 187.359214 
L 186.649821 185.627546 
L 189.046385 186.73188 
L 191.442949 185.886025 
L 193.839513 183.430075 
L 196.236077 185.399759 
L 198.632641 184.833901 
L 201.029205 185.074077 
L 203.42577 187.329287 
L 205.822334 185.878635 
L 208.218898 186.529398 
L 210.615462 184.452217 
L 213.012026 187.607313 
L 215.40859 184.477985 
L 217.805154 183.934666 
L 220.201718 185.989556 
L 222.598282 185.158384 
L 224.994846 186.180627 
L 227.39141 185.638593 
L 229.787974 185.925366 
L 232.184538 185.825182 
L 234.581102 182.169757 
L 236.977666 184.380684 
L 241.770795 185.979922 
L 244.167359 185.009929 
L 246.563923 184.565482 
L 248.960487 185.332004 
L 251.357051 184.618556 
L 253.753615 185.636205 
L 256.150179 184.376595 
L 258.546743 186.935782 
L 260.943307 183.610059 
L 263.339871 185.242866 
L 265.736435 185.202519 
L 268.132999 184.263969 
L 270.529563 186.406229 
L 272.926127 185.584453 
L 275.322691 183.676867 
L 277.719256 184.011523 
L 280.11582 185.546974 
L 282.512384 183.968445 
L 284.908948 183.574968 
L 287.305512 183.854794 
L 289.702076 182.309613 
L 292.09864 183.230877 
L 294.495204 184.283807 
L 296.891768 182.852745 
L 299.288332 184.988635 
L 301.684896 186.296053 
L 304.08146 184.236661 
L 306.478024 183.680517 
L 308.874588 182.49088 
L 311.271152 183.994706 
L 313.667717 183.283078 
L 316.064281 184.117863 
L 318.460845 185.883414 
L 320.857409 183.579489 
L 323.253973 183.621778 
L 325.650537 183.856056 
L 328.047101 184.904724 
L 330.443665 182.932376 
L 332.840229 183.572871 
L 335.236793 183.211796 
L 337.633357 180.622559 
L 340.029921 181.425841 
L 342.426485 183.992651 
L 344.823049 182.103159 
L 347.219613 183.253521 
L 349.616178 183.00991 
L 352.012742 184.989731 
L 354.409306 182.004429 
L 356.80587 184.775468 
L 359.202434 182.191726 
L 361.598998 184.45712 
L 363.995562 185.190964 
L 366.392126 181.430623 
L 368.78869 182.188271 
L 371.185254 183.255641 
L 373.581818 182.961934 
L 373.581818 182.961934 
" clip-path="url(#p6b64e67bc4)" style="fill: none; stroke: #1f77b4; stroke-width: 1.5; stroke-linecap: square"/>
   </g>
   <g id="line2d_64">
    <path d="M 69.218182 206.782404 
L 71.614746 188.782978 
L 74.01131 182.618219 
L 76.407874 177.306463 
L 78.804438 173.502138 
L 81.201002 173.459 
L 83.597566 162.874979 
L 85.99413 165.798434 
L 88.390694 172.819747 
L 90.787258 169.669685 
L 93.183822 165.404044 
L 95.580387 165.33523 
L 97.976951 161.271302 
L 100.373515 165.997189 
L 102.770079 163.113709 
L 105.166643 163.515451 
L 107.563207 160.947373 
L 109.959771 164.741267 
L 112.356335 166.245434 
L 114.752899 157.648651 
L 117.149463 157.780636 
L 119.546027 159.619594 
L 121.942591 161.005342 
L 124.339155 160.933788 
L 126.735719 164.631552 
L 129.132283 165.578089 
L 131.528848 166.964373 
L 133.925412 161.728603 
L 136.321976 162.477465 
L 138.71854 162.847848 
L 141.115104 166.960633 
L 143.511668 162.939918 
L 145.908232 163.350803 
L 148.304796 163.264198 
L 150.70136 164.58744 
L 153.097924 162.696539 
L 155.494488 162.366286 
L 157.891052 165.57238 
L 160.287616 165.965695 
L 162.68418 164.219703 
L 165.080744 159.659821 
L 167.477309 164.016509 
L 169.873873 162.565853 
L 172.270437 160.33209 
L 174.667001 159.489126 
L 177.063565 160.050688 
L 179.460129 158.874639 
L 181.856693 161.108191 
L 184.253257 160.022622 
L 186.649821 157.718835 
L 189.046385 159.002375 
L 191.442949 161.033975 
L 193.839513 157.629756 
L 196.236077 160.115887 
L 198.632641 157.989401 
L 201.029205 159.543391 
L 203.42577 161.882452 
L 205.822334 158.975626 
L 208.218898 161.537678 
L 210.615462 158.484304 
L 213.012026 159.988582 
L 215.40859 157.456693 
L 217.805154 157.362201 
L 220.201718 158.232681 
L 222.598282 158.653903 
L 224.994846 158.734794 
L 227.39141 159.361172 
L 229.787974 158.049263 
L 232.184538 158.385546 
L 234.581102 156.453992 
L 236.977666 158.48278 
L 239.37423 156.729511 
L 241.770795 158.799815 
L 244.167359 159.047207 
L 246.563923 157.844328 
L 248.960487 159.168837 
L 251.357051 157.889577 
L 253.753615 158.971442 
L 256.150179 157.493929 
L 258.546743 158.480905 
L 260.943307 156.251752 
L 263.339871 159.295033 
L 265.736435 157.6121 
L 268.132999 158.612688 
L 270.529563 160.502054 
L 272.926127 157.948619 
L 275.322691 156.953865 
L 277.719256 156.888896 
L 280.11582 159.660888 
L 282.512384 156.3265 
L 284.908948 158.368082 
L 287.305512 156.908038 
L 289.702076 156.209719 
L 292.09864 156.656665 
L 294.495204 158.25325 
L 296.891768 157.11228 
L 299.288332 157.908909 
L 301.684896 158.523958 
L 304.08146 156.357376 
L 306.478024 157.172848 
L 308.874588 153.724018 
L 311.271152 156.991287 
L 313.667717 156.470897 
L 316.064281 157.204453 
L 318.460845 159.083574 
L 320.857409 162.685091 
L 323.253973 163.503416 
L 325.650537 163.112304 
L 328.047101 159.788804 
L 330.443665 156.062342 
L 332.840229 157.734611 
L 337.633357 154.8255 
L 340.029921 155.455955 
L 342.426485 157.959446 
L 344.823049 157.287999 
L 347.219613 156.845727 
L 349.616178 156.618413 
L 352.012742 159.223291 
L 354.409306 156.343047 
L 356.80587 158.48904 
L 359.202434 156.709597 
L 361.598998 157.292854 
L 363.995562 158.393749 
L 366.392126 156.304202 
L 368.78869 157.186242 
L 371.185254 156.895038 
L 373.581818 157.249979 
L 373.581818 157.249979 
" clip-path="url(#p6b64e67bc4)" style="fill: none; stroke: #ff7f0e; stroke-width: 1.5; stroke-linecap: square"/>
   </g>
   <g id="line2d_65">
    <path d="M 69.218182 207.307958 
L 71.614746 189.280436 
L 74.01131 183.273548 
L 76.407874 178.225514 
L 78.804438 173.738633 
L 81.201002 174.122841 
L 83.597566 162.521207 
L 85.99413 166.277605 
L 88.390694 173.79675 
L 90.787258 169.900658 
L 93.183822 166.686909 
L 95.580387 166.583456 
L 97.976951 162.914628 
L 100.373515 166.774962 
L 102.770079 163.839232 
L 105.166643 164.605484 
L 107.563207 161.408833 
L 109.959771 165.64245 
L 112.356335 167.619273 
L 114.752899 158.546066 
L 117.149463 158.611391 
L 119.546027 160.279204 
L 121.942591 162.782226 
L 124.339155 162.244843 
L 126.735719 160.827948 
L 129.132283 162.141934 
L 131.528848 162.778432 
L 133.925412 157.947005 
L 136.321976 158.331259 
L 138.71854 158.30627 
L 141.115104 162.933281 
L 143.511668 158.653649 
L 145.908232 159.015753 
L 148.304796 158.528605 
L 150.70136 160.219072 
L 153.097924 158.629461 
L 155.494488 157.631769 
L 157.891052 161.121394 
L 160.287616 161.841021 
L 162.68418 159.432748 
L 165.080744 154.837421 
L 167.477309 158.918858 
L 169.873873 157.618288 
L 172.270437 159.726785 
L 177.063565 159.562508 
L 179.460129 158.915125 
L 181.856693 160.733805 
L 184.253257 160.217514 
L 186.649821 158.549888 
L 189.046385 159.745905 
L 191.442949 161.509237 
L 193.839513 157.375616 
L 196.236077 160.099314 
L 198.632641 158.002136 
L 203.42577 161.777375 
L 205.822334 158.856676 
L 208.218898 161.685096 
L 210.615462 158.99695 
L 213.012026 160.081326 
L 215.40859 157.479314 
L 217.805154 157.575968 
L 220.201718 158.496654 
L 224.994846 159.437447 
L 227.39141 160.129266 
L 229.787974 158.76604 
L 232.184538 159.522732 
L 234.581102 157.824218 
L 236.977666 159.7492 
L 239.37423 157.516704 
L 241.770795 159.468452 
L 244.167359 159.7558 
L 246.563923 158.477441 
L 248.960487 159.857026 
L 251.357051 158.867539 
L 253.753615 159.597597 
L 256.150179 158.105729 
L 258.546743 159.426726 
L 260.943307 157.154368 
L 263.339871 160.100362 
L 265.736435 158.192011 
L 268.132999 159.127795 
L 270.529563 160.933144 
L 272.926127 158.343575 
L 275.322691 157.542504 
L 277.719256 157.193967 
L 280.11582 160.441533 
L 282.512384 157.121308 
L 284.908948 158.604593 
L 287.305512 157.822238 
L 289.702076 156.388803 
L 294.495204 158.583973 
L 296.891768 157.724849 
L 299.288332 158.051782 
L 301.684896 159.348637 
L 304.08146 156.486705 
L 306.478024 158.270774 
L 308.874588 153.885175 
L 311.271152 157.146684 
L 313.667717 156.968542 
L 316.064281 157.666476 
L 318.460845 159.981108 
L 320.857409 158.058886 
L 323.253973 157.584902 
L 325.650537 157.689496 
L 328.047101 160.320958 
L 330.443665 156.739353 
L 332.840229 158.170309 
L 335.236793 157.079485 
L 337.633357 155.157746 
L 340.029921 156.238532 
L 342.426485 158.145524 
L 347.219613 157.100089 
L 349.616178 157.078039 
L 352.012742 159.709492 
L 354.409306 156.963527 
L 356.80587 159.033046 
L 359.202434 157.678741 
L 361.598998 157.635913 
L 363.995562 159.43068 
L 366.392126 156.922446 
L 368.78869 157.823928 
L 371.185254 157.45786 
L 373.581818 157.840479 
L 373.581818 157.840479 
" clip-path="url(#p6b64e67bc4)" style="fill: none; stroke: #2ca02c; stroke-width: 1.5; stroke-linecap: square"/>
   </g>
   <g id="line2d_66">
    <path d="M 69.218182 150.415178 
L 71.614746 128.264086 
L 74.01131 122.367482 
L 76.407874 117.247197 
L 78.804438 118.399707 
L 81.201002 115.540926 
L 83.597566 105.542507 
L 85.99413 104.491653 
L 88.390694 105.880102 
L 90.787258 101.668785 
L 93.183822 99.940248 
L 95.580387 98.033153 
L 97.976951 95.030956 
L 100.373515 95.068362 
L 102.770079 96.529908 
L 105.166643 94.916782 
L 107.563207 96.613961 
L 109.959771 100.34821 
L 112.356335 93.958195 
L 114.752899 89.492743 
L 117.149463 90.727714 
L 119.546027 90.029391 
L 121.942591 89.5903 
L 124.339155 87.995628 
L 126.735719 88.351692 
L 129.132283 89.858946 
L 131.528848 87.667041 
L 133.925412 87.317442 
L 136.321976 89.089347 
L 138.71854 84.954593 
L 141.115104 84.767134 
L 143.511668 86.877553 
L 145.908232 86.499176 
L 148.304796 84.166454 
L 150.70136 85.329764 
L 153.097924 87.103363 
L 155.494488 84.047467 
L 157.891052 83.386553 
L 160.287616 83.574877 
L 162.68418 83.918684 
L 165.080744 80.706486 
L 167.477309 81.46597 
L 172.270437 79.926173 
L 174.667001 81.973678 
L 177.063565 80.746731 
L 179.460129 80.567771 
L 181.856693 79.67145 
L 184.253257 81.08842 
L 186.649821 79.940814 
L 189.046385 82.175851 
L 191.442949 82.650033 
L 193.839513 80.230217 
L 196.236077 79.401279 
L 198.632641 80.22327 
L 201.029205 78.078384 
L 203.42577 78.262059 
L 205.822334 78.951131 
L 208.218898 78.921911 
L 210.615462 79.058739 
L 215.40859 81.484663 
L 217.805154 79.502722 
L 220.201718 82.786863 
L 222.598282 78.117198 
L 224.994846 79.914533 
L 227.39141 79.749324 
L 229.787974 80.242999 
L 232.184538 80.252866 
L 234.581102 78.737328 
L 236.977666 79.604563 
L 239.37423 79.873337 
L 241.770795 77.652 
L 244.167359 78.012909 
L 246.563923 79.065328 
L 248.960487 81.116214 
L 251.357051 78.756747 
L 253.753615 76.881518 
L 256.150179 75.260609 
L 258.546743 76.163187 
L 260.943307 76.485826 
L 263.339871 76.006766 
L 265.736435 75.642607 
L 268.132999 71.611659 
L 270.529563 78.136774 
L 272.926127 77.724147 
L 275.322691 74.241469 
L 277.719256 74.770023 
L 280.11582 76.783665 
L 282.512384 74.460168 
L 284.908948 76.429529 
L 287.305512 75.412265 
L 289.702076 73.457246 
L 292.09864 73.364822 
L 294.495204 74.347202 
L 296.891768 72.090373 
L 299.288332 73.219241 
L 301.684896 73.053238 
L 304.08146 75.804216 
L 306.478024 77.52715 
L 308.874588 74.830554 
L 311.271152 77.611306 
L 313.667717 76.108828 
L 316.064281 74.222005 
L 318.460845 73.940849 
L 320.857409 75.710113 
L 323.253973 74.865476 
L 325.650537 76.521394 
L 328.047101 73.682877 
L 330.443665 75.095774 
L 335.236793 74.435592 
L 337.633357 72.37161 
L 340.029921 72.460665 
L 342.426485 72.074345 
L 349.616178 71.946214 
L 352.012742 73.139072 
L 354.409306 71.206668 
L 356.80587 72.082677 
L 359.202434 70.998124 
L 361.598998 73.955819 
L 363.995562 73.610345 
L 366.392126 71.682349 
L 368.78869 71.684211 
L 371.185254 71.839143 
L 373.581818 71.398401 
L 373.581818 71.398401 
" clip-path="url(#p6b64e67bc4)" style="fill: none; stroke: #d62728; stroke-width: 1.5; stroke-linecap: square"/>
   </g>
   <g id="patch_3">
    <path d="M 54 252 
L 54 34.56 
" style="fill: none; stroke: #000000; stroke-width: 0.8; stroke-linejoin: miter; stroke-linecap: square"/>
   </g>
   <g id="patch_4">
    <path d="M 388.8 252 
L 388.8 34.56 
" style="fill: none; stroke: #000000; stroke-width: 0.8; stroke-linejoin: miter; stroke-linecap: square"/>
   </g>
   <g id="patch_5">
    <path d="M 54 252 
L 388.8 252 
" style="fill: none; stroke: #000000; stroke-width: 0.8; stroke-linejoin: miter; stroke-linecap: square"/>
   </g>
   <g id="patch_6">
    <path d="M 54 34.56 
L 388.8 34.56 
" style="fill: none; stroke: #000000; stroke-width: 0.8; stroke-linejoin: miter; stroke-linecap: square"/>
   </g>
   <g id="text_23">
    <!-- Median NEPS vs. Program Size (1000 f.c., nicolau_a) -->
    <g transform="translate(65.39625 28.56)scale(0.12 -0.12)">
     <defs>
      <path id="DejaVuSans-76" d="M 191 3500 
L 800 3500 
L 1894 563 
L 2988 3500 
L 3597 3500 
L 2284 0 
L 1503 0 
L 191 3500 
z
" transform="scale(0.015625)"/>
      <path id="DejaVuSans-2e" d="M 684 794 
L 1344 794 
L 1344 0 
L 684 0 
L 684 794 
z
" transform="scale(0.015625)"/>
      <path id="DejaVuSans-28" d="M 1984 4856 
Q 1566 4138 1362 3434 
Q 1159 2731 1159 2009 
Q 1159 1288 1364 580 
Q 1569 -128 1984 -844 
L 1484 -844 
Q 1016 -109 783 600 
Q 550 1309 550 2009 
Q 550 2706 781 3412 
Q 1013 4119 1484 4856 
L 1984 4856 
z
" transform="scale(0.015625)"/>
      <path id="DejaVuSans-66" d="M 2375 4863 
L 2375 4384 
L 1825 4384 
Q 1516 4384 1395 4259 
Q 1275 4134 1275 3809 
L 1275 3500 
L 2222 3500 
L 2222 3053 
L 1275 3053 
L 1275 0 
L 697 0 
L 697 3053 
L 147 3053 
L 147 3500 
L 697 3500 
L 697 3744 
Q 697 4328 969 4595 
Q 1241 4863 1831 4863 
L 2375 4863 
z
" transform="scale(0.015625)"/>
      <path id="DejaVuSans-63" d="M 3122 3366 
L 3122 2828 
Q 2878 2963 2633 3030 
Q 2388 3097 2138 3097 
Q 1578 3097 1268 2742 
Q 959 2388 959 1747 
Q 959 1106 1268 751 
Q 1578 397 2138 397 
Q 2388 397 2633 464 
Q 2878 531 3122 666 
L 3122 134 
Q 2881 22 2623 -34 
Q 2366 -91 2075 -91 
Q 1284 -91 818 406 
Q 353 903 353 1747 
Q 353 2603 823 3093 
Q 1294 3584 2113 3584 
Q 2378 3584 2631 3529 
Q 2884 3475 3122 3366 
z
" transform="scale(0.015625)"/>
      <path id="DejaVuSans-2c" d="M 750 794 
L 1409 794 
L 1409 256 
L 897 -744 
L 494 -744 
L 750 256 
L 750 794 
z
" transform="scale(0.015625)"/>
      <path id="DejaVuSans-6c" d="M 603 4863 
L 1178 4863 
L 1178 0 
L 603 0 
L 603 4863 
z
" transform="scale(0.015625)"/>
      <path id="DejaVuSans-75" d="M 544 1381 
L 544 3500 
L 1119 3500 
L 1119 1403 
Q 1119 906 1312 657 
Q 1506 409 1894 409 
Q 2359 409 2629 706 
Q 2900 1003 2900 1516 
L 2900 3500 
L 3475 3500 
L 3475 0 
L 2900 0 
L 2900 538 
Q 2691 219 2414 64 
Q 2138 -91 1772 -91 
Q 1169 -91 856 284 
Q 544 659 544 1381 
z
M 1991 3584 
L 1991 3584 
z
" transform="scale(0.015625)"/>
      <path id="DejaVuSans-5f" d="M 3263 -1063 
L 3263 -1509 
L -63 -1509 
L -63 -1063 
L 3263 -1063 
z
" transform="scale(0.015625)"/>
      <path id="DejaVuSans-29" d="M 513 4856 
L 1013 4856 
Q 1481 4119 1714 3412 
Q 1947 2706 1947 2009 
Q 1947 1309 1714 600 
Q 1481 -109 1013 -844 
L 513 -844 
Q 928 -128 1133 580 
Q 1338 1288 1338 2009 
Q 1338 2731 1133 3434 
Q 928 4138 513 4856 
z
" transform="scale(0.015625)"/>
     </defs>
     <use xlink:href="#DejaVuSans-4d"/>
     <use xlink:href="#DejaVuSans-65" x="86.279297"/>
     <use xlink:href="#DejaVuSans-64" x="147.802734"/>
     <use xlink:href="#DejaVuSans-69" x="211.279297"/>
     <use xlink:href="#DejaVuSans-61" x="239.0625"/>
     <use xlink:href="#DejaVuSans-6e" x="300.341797"/>
     <use xlink:href="#DejaVuSans-20" x="363.720703"/>
     <use xlink:href="#DejaVuSans-4e" x="395.507812"/>
     <use xlink:href="#DejaVuSans-45" x="470.3125"/>
     <use xlink:href="#DejaVuSans-50" x="533.496094"/>
     <use xlink:href="#DejaVuSans-53" x="593.798828"/>
     <use xlink:href="#DejaVuSans-20" x="657.275391"/>
     <use xlink:href="#DejaVuSans-76" x="689.0625"/>
     <use xlink:href="#DejaVuSans-73" x="748.242188"/>
     <use xlink:href="#DejaVuSans-2e" x="800.341797"/>
     <use xlink:href="#DejaVuSans-20" x="832.128906"/>
     <use xlink:href="#DejaVuSans-50" x="863.916016"/>
     <use xlink:href="#DejaVuSans-72" x="922.46875"/>
     <use xlink:href="#DejaVuSans-6f" x="961.332031"/>
     <use xlink:href="#DejaVuSans-67" x="1022.513672"/>
     <use xlink:href="#DejaVuSans-72" x="1085.990234"/>
     <use xlink:href="#DejaVuSans-61" x="1127.103516"/>
     <use xlink:href="#DejaVuSans-6d" x="1188.382812"/>
     <use xlink:href="#DejaVuSans-20" x="1285.794922"/>
     <use xlink:href="#DejaVuSans-53" x="1317.582031"/>
     <use xlink:href="#DejaVuSans-69" x="1381.058594"/>
     <use xlink:href="#DejaVuSans-7a" x="1408.841797"/>
     <use xlink:href="#DejaVuSans-65" x="1461.332031"/>
     <use xlink:href="#DejaVuSans-20" x="1522.855469"/>
     <use xlink:href="#DejaVuSans-28" x="1554.642578"/>
     <use xlink:href="#DejaVuSans-31" x="1593.65625"/>
     <use xlink:href="#DejaVuSans-30" x="1657.279297"/>
     <use xlink:href="#DejaVuSans-30" x="1720.902344"/>
     <use xlink:href="#DejaVuSans-30" x="1784.525391"/>
     <use xlink:href="#DejaVuSans-20" x="1848.148438"/>
     <use xlink:href="#DejaVuSans-66" x="1879.935547"/>
     <use xlink:href="#DejaVuSans-2e" x="1907.890625"/>
     <use xlink:href="#DejaVuSans-63" x="1939.677734"/>
     <use xlink:href="#DejaVuSans-2e" x="1994.658203"/>
     <use xlink:href="#DejaVuSans-2c" x="2026.445312"/>
     <use xlink:href="#DejaVuSans-20" x="2058.232422"/>
     <use xlink:href="#DejaVuSans-6e" x="2090.019531"/>
     <use xlink:href="#DejaVuSans-69" x="2153.398438"/>
     <use xlink:href="#DejaVuSans-63" x="2181.181641"/>
     <use xlink:href="#DejaVuSans-6f" x="2236.162109"/>
     <use xlink:href="#DejaVuSans-6c" x="2297.34375"/>
     <use xlink:href="#DejaVuSans-61" x="2325.126953"/>
     <use xlink:href="#DejaVuSans-75" x="2386.40625"/>
     <use xlink:href="#DejaVuSans-5f" x="2449.785156"/>
     <use xlink:href="#DejaVuSans-61" x="2499.785156"/>
     <use xlink:href="#DejaVuSans-29" x="2561.064453"/>
    </g>
   </g>
   <g id="legend_1">
    <g id="patch_7">
     <path d="M 61 101.2725 
L 171.19375 101.2725 
Q 173.19375 101.2725 173.19375 99.2725 
L 173.19375 41.56 
Q 173.19375 39.56 171.19375 39.56 
L 61 39.56 
Q 59 39.56 59 41.56 
L 59 99.2725 
Q 59 101.2725 61 101.2725 
z
" style="fill: #ffffff; opacity: 0.8; stroke: #cccccc; stroke-linejoin: miter"/>
    </g>
    <g id="line2d_67">
     <path d="M 63 47.658437 
L 73 47.658437 
L 83 47.658437 
" style="fill: none; stroke: #1f77b4; stroke-width: 1.5; stroke-linecap: square"/>
    </g>
    <g id="text_24">
     <!-- DEAP -->
     <g transform="translate(91 51.158437)scale(0.1 -0.1)">
      <defs>
       <path id="DejaVuSans-44" d="M 1259 4147 
L 1259 519 
L 2022 519 
Q 2988 519 3436 956 
Q 3884 1394 3884 2338 
Q 3884 3275 3436 3711 
Q 2988 4147 2022 4147 
L 1259 4147 
z
M 628 4666 
L 1925 4666 
Q 3281 4666 3915 4102 
Q 4550 3538 4550 2338 
Q 4550 1131 3912 565 
Q 3275 0 1925 0 
L 628 0 
L 628 4666 
z
" transform="scale(0.015625)"/>
       <path id="DejaVuSans-41" d="M 2188 4044 
L 1331 1722 
L 3047 1722 
L 2188 4044 
z
M 1831 4666 
L 2547 4666 
L 4325 0 
L 3669 0 
L 3244 1197 
L 1141 1197 
L 716 0 
L 50 0 
L 1831 4666 
z
" transform="scale(0.015625)"/>
      </defs>
      <use xlink:href="#DejaVuSans-44"/>
      <use xlink:href="#DejaVuSans-45" x="77.001953"/>
      <use xlink:href="#DejaVuSans-41" x="140.185547"/>
      <use xlink:href="#DejaVuSans-50" x="208.59375"/>
     </g>
    </g>
    <g id="line2d_68">
     <path d="M 63 62.336562 
L 73 62.336562 
L 83 62.336562 
" style="fill: none; stroke: #ff7f0e; stroke-width: 1.5; stroke-linecap: square"/>
    </g>
    <g id="text_25">
     <!-- TensorGP (CPU) -->
     <g transform="translate(91 65.836562)scale(0.1 -0.1)">
      <defs>
       <path id="DejaVuSans-54" d="M -19 4666 
L 3928 4666 
L 3928 4134 
L 2272 4134 
L 2272 0 
L 1638 0 
L 1638 4134 
L -19 4134 
L -19 4666 
z
" transform="scale(0.015625)"/>
       <path id="DejaVuSans-47" d="M 3809 666 
L 3809 1919 
L 2778 1919 
L 2778 2438 
L 4434 2438 
L 4434 434 
Q 4069 175 3628 42 
Q 3188 -91 2688 -91 
Q 1594 -91 976 548 
Q 359 1188 359 2328 
Q 359 3472 976 4111 
Q 1594 4750 2688 4750 
Q 3144 4750 3555 4637 
Q 3966 4525 4313 4306 
L 4313 3634 
Q 3963 3931 3569 4081 
Q 3175 4231 2741 4231 
Q 1884 4231 1454 3753 
Q 1025 3275 1025 2328 
Q 1025 1384 1454 906 
Q 1884 428 2741 428 
Q 3075 428 3337 486 
Q 3600 544 3809 666 
z
" transform="scale(0.015625)"/>
       <path id="DejaVuSans-43" d="M 4122 4306 
L 4122 3641 
Q 3803 3938 3442 4084 
Q 3081 4231 2675 4231 
Q 1875 4231 1450 3742 
Q 1025 3253 1025 2328 
Q 1025 1406 1450 917 
Q 1875 428 2675 428 
Q 3081 428 3442 575 
Q 3803 722 4122 1019 
L 4122 359 
Q 3791 134 3420 21 
Q 3050 -91 2638 -91 
Q 1578 -91 968 557 
Q 359 1206 359 2328 
Q 359 3453 968 4101 
Q 1578 4750 2638 4750 
Q 3056 4750 3426 4639 
Q 3797 4528 4122 4306 
z
" transform="scale(0.015625)"/>
       <path id="DejaVuSans-55" d="M 556 4666 
L 1191 4666 
L 1191 1831 
Q 1191 1081 1462 751 
Q 1734 422 2344 422 
Q 2950 422 3222 751 
Q 3494 1081 3494 1831 
L 3494 4666 
L 4128 4666 
L 4128 1753 
Q 4128 841 3676 375 
Q 3225 -91 2344 -91 
Q 1459 -91 1007 375 
Q 556 841 556 1753 
L 556 4666 
z
" transform="scale(0.015625)"/>
      </defs>
      <use xlink:href="#DejaVuSans-54"/>
      <use xlink:href="#DejaVuSans-65" x="44.083984"/>
      <use xlink:href="#DejaVuSans-6e" x="105.607422"/>
      <use xlink:href="#DejaVuSans-73" x="168.986328"/>
      <use xlink:href="#DejaVuSans-6f" x="221.085938"/>
      <use xlink:href="#DejaVuSans-72" x="282.267578"/>
      <use xlink:href="#DejaVuSans-47" x="323.380859"/>
      <use xlink:href="#DejaVuSans-50" x="400.871094"/>
      <use xlink:href="#DejaVuSans-20" x="461.173828"/>
      <use xlink:href="#DejaVuSans-28" x="492.960938"/>
      <use xlink:href="#DejaVuSans-43" x="531.974609"/>
      <use xlink:href="#DejaVuSans-50" x="601.798828"/>
      <use xlink:href="#DejaVuSans-55" x="662.101562"/>
      <use xlink:href="#DejaVuSans-29" x="735.294922"/>
     </g>
    </g>
    <g id="line2d_69">
     <path d="M 63 77.014687 
L 73 77.014687 
L 83 77.014687 
" style="fill: none; stroke: #2ca02c; stroke-width: 1.5; stroke-linecap: square"/>
    </g>
    <g id="text_26">
     <!-- TensorGP (GPU) -->
     <g transform="translate(91 80.514687)scale(0.1 -0.1)">
      <use xlink:href="#DejaVuSans-54"/>
      <use xlink:href="#DejaVuSans-65" x="44.083984"/>
      <use xlink:href="#DejaVuSans-6e" x="105.607422"/>
      <use xlink:href="#DejaVuSans-73" x="168.986328"/>
      <use xlink:href="#DejaVuSans-6f" x="221.085938"/>
      <use xlink:href="#DejaVuSans-72" x="282.267578"/>
      <use xlink:href="#DejaVuSans-47" x="323.380859"/>
      <use xlink:href="#DejaVuSans-50" x="400.871094"/>
      <use xlink:href="#DejaVuSans-20" x="461.173828"/>
      <use xlink:href="#DejaVuSans-28" x="492.960938"/>
      <use xlink:href="#DejaVuSans-47" x="531.974609"/>
      <use xlink:href="#DejaVuSans-50" x="609.464844"/>
      <use xlink:href="#DejaVuSans-55" x="669.767578"/>
      <use xlink:href="#DejaVuSans-29" x="742.960938"/>
     </g>
    </g>
    <g id="line2d_70">
     <path d="M 63 91.692813 
L 73 91.692813 
L 83 91.692813 
" style="fill: none; stroke: #d62728; stroke-width: 1.5; stroke-linecap: square"/>
    </g>
    <g id="text_27">
     <!-- Operon -->
     <g transform="translate(91 95.192813)scale(0.1 -0.1)">
      <defs>
       <path id="DejaVuSans-4f" d="M 2522 4238 
Q 1834 4238 1429 3725 
Q 1025 3213 1025 2328 
Q 1025 1447 1429 934 
Q 1834 422 2522 422 
Q 3209 422 3611 934 
Q 4013 1447 4013 2328 
Q 4013 3213 3611 3725 
Q 3209 4238 2522 4238 
z
M 2522 4750 
Q 3503 4750 4090 4092 
Q 4678 3434 4678 2328 
Q 4678 1225 4090 567 
Q 3503 -91 2522 -91 
Q 1538 -91 948 565 
Q 359 1222 359 2328 
Q 359 3434 948 4092 
Q 1538 4750 2522 4750 
z
" transform="scale(0.015625)"/>
       <path id="DejaVuSans-70" d="M 1159 525 
L 1159 -1331 
L 581 -1331 
L 581 3500 
L 1159 3500 
L 1159 2969 
Q 1341 3281 1617 3432 
Q 1894 3584 2278 3584 
Q 2916 3584 3314 3078 
Q 3713 2572 3713 1747 
Q 3713 922 3314 415 
Q 2916 -91 2278 -91 
Q 1894 -91 1617 61 
Q 1341 213 1159 525 
z
M 3116 1747 
Q 3116 2381 2855 2742 
Q 2594 3103 2138 3103 
Q 1681 3103 1420 2742 
Q 1159 2381 1159 1747 
Q 1159 1113 1420 752 
Q 1681 391 2138 391 
Q 2594 391 2855 752 
Q 3116 1113 3116 1747 
z
" transform="scale(0.015625)"/>
      </defs>
      <use xlink:href="#DejaVuSans-4f"/>
      <use xlink:href="#DejaVuSans-70" x="78.710938"/>
      <use xlink:href="#DejaVuSans-65" x="142.1875"/>
      <use xlink:href="#DejaVuSans-72" x="203.710938"/>
      <use xlink:href="#DejaVuSans-6f" x="242.574219"/>
      <use xlink:href="#DejaVuSans-6e" x="303.755859"/>
     </g>
    </g>
   </g>
  </g>
 </g>
 <defs>
  <clipPath id="p6b64e67bc4">
   <rect x="54" y="34.56" width="334.8" height="217.44"/>
  </clipPath>
 </defs>
</svg>
