<?xml version="1.0" encoding="utf-8" standalone="no"?>
<!DOCTYPE svg PUBLIC "-//W3C//DTD SVG 1.1//EN"
  "http://www.w3.org/Graphics/SVG/1.1/DTD/svg11.dtd">
<svg xmlns:xlink="http://www.w3.org/1999/xlink" width="432pt" height="288pt" viewBox="0 0 432 288" xmlns="http://www.w3.org/2000/svg" version="1.1">
 <metadata>
  <rdf:RDF xmlns:dc="http://purl.org/dc/elements/1.1/" xmlns:cc="http://creativecommons.org/ns#" xmlns:rdf="http://www.w3.org/1999/02/22-rdf-syntax-ns#">
   <cc:Work>
    <dc:type rdf:resource="http://purl.org/dc/dcmitype/StillImage"/>
    <dc:date>2022-01-21T04:56:55.643491</dc:date>
    <dc:format>image/svg+xml</dc:format>
    <dc:creator>
     <cc:Agent>
      <dc:title>Matplotlib v3.5.1, https://matplotlib.org/</dc:title>
     </cc:Agent>
    </dc:creator>
   </cc:Work>
  </rdf:RDF>
 </metadata>
 <defs>
  <style type="text/css">*{stroke-linejoin: round; stroke-linecap: butt}</style>
 </defs>
 <g id="figure_1">
  <g id="patch_1">
   <path d="M 0 288 
L 432 288 
L 432 0 
L 0 0 
L 0 288 
z
" style="fill: none"/>
  </g>
  <g id="axes_1">
   <g id="patch_2">
    <path d="M 54 252 
L 388.8 252 
L 388.8 34.56 
L 54 34.56 
z
" style="fill: #ffffff"/>
   </g>
   <g id="patch_3">
    <path d="M 69.218182 252 
L 70.173798 252 
L 70.173798 231.630913 
L 69.218182 231.630913 
z
" clip-path="url(#pa6dcb43d96)" style="fill: #1f77b4"/>
   </g>
   <g id="patch_4">
    <path d="M 70.412702 252 
L 71.368317 252 
L 71.368317 252 
L 70.412702 252 
z
" clip-path="url(#pa6dcb43d96)" style="fill: #1f77b4"/>
   </g>
   <g id="patch_5">
    <path d="M 71.607221 252 
L 72.562837 252 
L 72.562837 150.154567 
L 71.607221 150.154567 
z
" clip-path="url(#pa6dcb43d96)" style="fill: #1f77b4"/>
   </g>
   <g id="patch_6">
    <path d="M 72.801741 252 
L 73.757357 252 
L 73.757357 252 
L 72.801741 252 
z
" clip-path="url(#pa6dcb43d96)" style="fill: #1f77b4"/>
   </g>
   <g id="patch_7">
    <path d="M 73.996261 252 
L 74.951877 252 
L 74.951877 106.021546 
L 73.996261 106.021546 
z
" clip-path="url(#pa6dcb43d96)" style="fill: #1f77b4"/>
   </g>
   <g id="patch_8">
    <path d="M 75.190781 252 
L 76.146396 252 
L 76.146396 252 
L 75.190781 252 
z
" clip-path="url(#pa6dcb43d96)" style="fill: #1f77b4"/>
   </g>
   <g id="patch_9">
    <path d="M 76.3853 252 
L 77.340916 252 
L 77.340916 85.652459 
L 76.3853 85.652459 
z
" clip-path="url(#pa6dcb43d96)" style="fill: #1f77b4"/>
   </g>
   <g id="patch_10">
    <path d="M 77.57982 252 
L 78.535436 252 
L 78.535436 252 
L 77.57982 252 
z
" clip-path="url(#pa6dcb43d96)" style="fill: #1f77b4"/>
   </g>
   <g id="patch_11">
    <path d="M 78.77434 252 
L 79.729956 252 
L 79.729956 207.866979 
L 78.77434 207.866979 
z
" clip-path="url(#pa6dcb43d96)" style="fill: #1f77b4"/>
   </g>
   <g id="patch_12">
    <path d="M 79.96886 252 
L 80.924476 252 
L 80.924476 252 
L 79.96886 252 
z
" clip-path="url(#pa6dcb43d96)" style="fill: #1f77b4"/>
   </g>
   <g id="patch_13">
    <path d="M 81.163379 252 
L 82.118995 252 
L 82.118995 150.154567 
L 81.163379 150.154567 
z
" clip-path="url(#pa6dcb43d96)" style="fill: #1f77b4"/>
   </g>
   <g id="patch_14">
    <path d="M 82.357899 252 
L 83.313515 252 
L 83.313515 252 
L 82.357899 252 
z
" clip-path="url(#pa6dcb43d96)" style="fill: #1f77b4"/>
   </g>
   <g id="patch_15">
    <path d="M 83.552419 252 
L 84.508035 252 
L 84.508035 143.364871 
L 83.552419 143.364871 
z
" clip-path="url(#pa6dcb43d96)" style="fill: #1f77b4"/>
   </g>
   <g id="patch_16">
    <path d="M 84.746939 252 
L 85.702555 252 
L 85.702555 252 
L 84.746939 252 
z
" clip-path="url(#pa6dcb43d96)" style="fill: #1f77b4"/>
   </g>
   <g id="patch_17">
    <path d="M 85.941459 252 
L 86.897074 252 
L 86.897074 72.073068 
L 85.941459 72.073068 
z
" clip-path="url(#pa6dcb43d96)" style="fill: #1f77b4"/>
   </g>
   <g id="patch_18">
    <path d="M 87.135978 252 
L 88.091594 252 
L 88.091594 252 
L 87.135978 252 
z
" clip-path="url(#pa6dcb43d96)" style="fill: #1f77b4"/>
   </g>
   <g id="patch_19">
    <path d="M 88.330498 252 
L 89.286114 252 
L 89.286114 204.472131 
L 88.330498 204.472131 
z
" clip-path="url(#pa6dcb43d96)" style="fill: #1f77b4"/>
   </g>
   <g id="patch_20">
    <path d="M 89.525018 252 
L 90.480634 252 
L 90.480634 252 
L 89.525018 252 
z
" clip-path="url(#pa6dcb43d96)" style="fill: #1f77b4"/>
   </g>
   <g id="patch_21">
    <path d="M 90.719538 252 
L 91.675153 252 
L 91.675153 153.549415 
L 90.719538 153.549415 
z
" clip-path="url(#pa6dcb43d96)" style="fill: #1f77b4"/>
   </g>
   <g id="patch_22">
    <path d="M 91.914057 252 
L 92.869673 252 
L 92.869673 252 
L 91.914057 252 
z
" clip-path="url(#pa6dcb43d96)" style="fill: #1f77b4"/>
   </g>
   <g id="patch_23">
    <path d="M 93.108577 252 
L 94.064193 252 
L 94.064193 102.626698 
L 93.108577 102.626698 
z
" clip-path="url(#pa6dcb43d96)" style="fill: #1f77b4"/>
   </g>
   <g id="patch_24">
    <path d="M 94.303097 252 
L 95.258713 252 
L 95.258713 252 
L 94.303097 252 
z
" clip-path="url(#pa6dcb43d96)" style="fill: #1f77b4"/>
   </g>
   <g id="patch_25">
    <path d="M 95.497617 252 
L 96.453232 252 
L 96.453232 112.811241 
L 95.497617 112.811241 
z
" clip-path="url(#pa6dcb43d96)" style="fill: #1f77b4"/>
   </g>
   <g id="patch_26">
    <path d="M 96.692136 252 
L 97.647752 252 
L 97.647752 252 
L 96.692136 252 
z
" clip-path="url(#pa6dcb43d96)" style="fill: #1f77b4"/>
   </g>
   <g id="patch_27">
    <path d="M 97.886656 252 
L 98.842272 252 
L 98.842272 187.497892 
L 97.886656 187.497892 
z
" clip-path="url(#pa6dcb43d96)" style="fill: #1f77b4"/>
   </g>
   <g id="patch_28">
    <path d="M 99.081176 252 
L 100.036792 252 
L 100.036792 252 
L 99.081176 252 
z
" clip-path="url(#pa6dcb43d96)" style="fill: #1f77b4"/>
   </g>
   <g id="patch_29">
    <path d="M 100.275696 252 
L 101.231312 252 
L 101.231312 136.575176 
L 100.275696 136.575176 
z
" clip-path="url(#pa6dcb43d96)" style="fill: #1f77b4"/>
   </g>
   <g id="patch_30">
    <path d="M 101.470215 252 
L 102.425831 252 
L 102.425831 252 
L 101.470215 252 
z
" clip-path="url(#pa6dcb43d96)" style="fill: #1f77b4"/>
   </g>
   <g id="patch_31">
    <path d="M 102.664735 252 
L 103.620351 252 
L 103.620351 153.549415 
L 102.664735 153.549415 
z
" clip-path="url(#pa6dcb43d96)" style="fill: #1f77b4"/>
   </g>
   <g id="patch_32">
    <path d="M 103.859255 252 
L 104.814871 252 
L 104.814871 252 
L 103.859255 252 
z
" clip-path="url(#pa6dcb43d96)" style="fill: #1f77b4"/>
   </g>
   <g id="patch_33">
    <path d="M 105.053775 252 
L 106.009391 252 
L 106.009391 95.837002 
L 105.053775 95.837002 
z
" clip-path="url(#pa6dcb43d96)" style="fill: #1f77b4"/>
   </g>
   <g id="patch_34">
    <path d="M 106.248295 252 
L 107.20391 252 
L 107.20391 252 
L 106.248295 252 
z
" clip-path="url(#pa6dcb43d96)" style="fill: #1f77b4"/>
   </g>
   <g id="patch_35">
    <path d="M 107.442814 252 
L 108.39843 252 
L 108.39843 218.051522 
L 107.442814 218.051522 
z
" clip-path="url(#pa6dcb43d96)" style="fill: #1f77b4"/>
   </g>
   <g id="patch_36">
    <path d="M 108.637334 252 
L 109.59295 252 
L 109.59295 252 
L 108.637334 252 
z
" clip-path="url(#pa6dcb43d96)" style="fill: #1f77b4"/>
   </g>
   <g id="patch_37">
    <path d="M 109.831854 252 
L 110.78747 252 
L 110.78747 139.970023 
L 109.831854 139.970023 
z
" clip-path="url(#pa6dcb43d96)" style="fill: #1f77b4"/>
   </g>
   <g id="patch_38">
    <path d="M 111.026374 252 
L 111.981989 252 
L 111.981989 252 
L 111.026374 252 
z
" clip-path="url(#pa6dcb43d96)" style="fill: #1f77b4"/>
   </g>
   <g id="patch_39">
    <path d="M 112.220893 252 
L 113.176509 252 
L 113.176509 170.523653 
L 112.220893 170.523653 
z
" clip-path="url(#pa6dcb43d96)" style="fill: #1f77b4"/>
   </g>
   <g id="patch_40">
    <path d="M 113.415413 252 
L 114.371029 252 
L 114.371029 252 
L 113.415413 252 
z
" clip-path="url(#pa6dcb43d96)" style="fill: #1f77b4"/>
   </g>
   <g id="patch_41">
    <path d="M 114.609933 252 
L 115.565549 252 
L 115.565549 44.914286 
L 114.609933 44.914286 
z
" clip-path="url(#pa6dcb43d96)" style="fill: #1f77b4"/>
   </g>
   <g id="patch_42">
    <path d="M 115.804453 252 
L 116.760069 252 
L 116.760069 252 
L 115.804453 252 
z
" clip-path="url(#pa6dcb43d96)" style="fill: #1f77b4"/>
   </g>
   <g id="patch_43">
    <path d="M 116.998972 252 
L 117.954588 252 
L 117.954588 201.077283 
L 116.998972 201.077283 
z
" clip-path="url(#pa6dcb43d96)" style="fill: #1f77b4"/>
   </g>
   <g id="patch_44">
    <path d="M 118.193492 252 
L 119.149108 252 
L 119.149108 252 
L 118.193492 252 
z
" clip-path="url(#pa6dcb43d96)" style="fill: #1f77b4"/>
   </g>
   <g id="patch_45">
    <path d="M 119.388012 252 
L 120.343628 252 
L 120.343628 153.549415 
L 119.388012 153.549415 
z
" clip-path="url(#pa6dcb43d96)" style="fill: #1f77b4"/>
   </g>
   <g id="patch_46">
    <path d="M 120.582532 252 
L 121.538148 252 
L 121.538148 252 
L 120.582532 252 
z
" clip-path="url(#pa6dcb43d96)" style="fill: #1f77b4"/>
   </g>
   <g id="patch_47">
    <path d="M 121.777052 252 
L 122.732667 252 
L 122.732667 146.759719 
L 121.777052 146.759719 
z
" clip-path="url(#pa6dcb43d96)" style="fill: #1f77b4"/>
   </g>
   <g id="patch_48">
    <path d="M 122.971571 252 
L 123.927187 252 
L 123.927187 252 
L 122.971571 252 
z
" clip-path="url(#pa6dcb43d96)" style="fill: #1f77b4"/>
   </g>
   <g id="patch_49">
    <path d="M 124.166091 252 
L 125.121707 252 
L 125.121707 72.073068 
L 124.166091 72.073068 
z
" clip-path="url(#pa6dcb43d96)" style="fill: #1f77b4"/>
   </g>
   <g id="patch_50">
    <path d="M 125.360611 252 
L 126.316227 252 
L 126.316227 252 
L 125.360611 252 
z
" clip-path="url(#pa6dcb43d96)" style="fill: #1f77b4"/>
   </g>
   <g id="patch_51">
    <path d="M 126.555131 252 
L 127.510746 252 
L 127.510746 201.077283 
L 126.555131 201.077283 
z
" clip-path="url(#pa6dcb43d96)" style="fill: #1f77b4"/>
   </g>
   <g id="patch_52">
    <path d="M 127.74965 252 
L 128.705266 252 
L 128.705266 252 
L 127.74965 252 
z
" clip-path="url(#pa6dcb43d96)" style="fill: #1f77b4"/>
   </g>
   <g id="patch_53">
    <path d="M 128.94417 252 
L 129.899786 252 
L 129.899786 102.626698 
L 128.94417 102.626698 
z
" clip-path="url(#pa6dcb43d96)" style="fill: #1f77b4"/>
   </g>
   <g id="patch_54">
    <path d="M 130.13869 252 
L 131.094306 252 
L 131.094306 252 
L 130.13869 252 
z
" clip-path="url(#pa6dcb43d96)" style="fill: #1f77b4"/>
   </g>
   <g id="patch_55">
    <path d="M 131.33321 252 
L 132.288825 252 
L 132.288825 153.549415 
L 131.33321 153.549415 
z
" clip-path="url(#pa6dcb43d96)" style="fill: #1f77b4"/>
   </g>
   <g id="patch_56">
    <path d="M 132.527729 252 
L 133.483345 252 
L 133.483345 252 
L 132.527729 252 
z
" clip-path="url(#pa6dcb43d96)" style="fill: #1f77b4"/>
   </g>
   <g id="patch_57">
    <path d="M 133.722249 252 
L 134.677865 252 
L 134.677865 116.206089 
L 133.722249 116.206089 
z
" clip-path="url(#pa6dcb43d96)" style="fill: #1f77b4"/>
   </g>
   <g id="patch_58">
    <path d="M 134.916769 252 
L 135.872385 252 
L 135.872385 252 
L 134.916769 252 
z
" clip-path="url(#pa6dcb43d96)" style="fill: #1f77b4"/>
   </g>
   <g id="patch_59">
    <path d="M 136.111289 252 
L 137.066905 252 
L 137.066905 207.866979 
L 136.111289 207.866979 
z
" clip-path="url(#pa6dcb43d96)" style="fill: #1f77b4"/>
   </g>
   <g id="patch_60">
    <path d="M 137.305808 252 
L 138.261424 252 
L 138.261424 252 
L 137.305808 252 
z
" clip-path="url(#pa6dcb43d96)" style="fill: #1f77b4"/>
   </g>
   <g id="patch_61">
    <path d="M 138.500328 252 
L 139.455944 252 
L 139.455944 153.549415 
L 138.500328 153.549415 
z
" clip-path="url(#pa6dcb43d96)" style="fill: #1f77b4"/>
   </g>
   <g id="patch_62">
    <path d="M 139.694848 252 
L 140.650464 252 
L 140.650464 252 
L 139.694848 252 
z
" clip-path="url(#pa6dcb43d96)" style="fill: #1f77b4"/>
   </g>
   <g id="patch_63">
    <path d="M 140.889368 252 
L 141.844984 252 
L 141.844984 156.944262 
L 140.889368 156.944262 
z
" clip-path="url(#pa6dcb43d96)" style="fill: #1f77b4"/>
   </g>
   <g id="patch_64">
    <path d="M 142.083888 252 
L 143.039503 252 
L 143.039503 252 
L 142.083888 252 
z
" clip-path="url(#pa6dcb43d96)" style="fill: #1f77b4"/>
   </g>
   <g id="patch_65">
    <path d="M 143.278407 252 
L 144.234023 252 
L 144.234023 55.098829 
L 143.278407 55.098829 
z
" clip-path="url(#pa6dcb43d96)" style="fill: #1f77b4"/>
   </g>
   <g id="patch_66">
    <path d="M 144.472927 252 
L 145.428543 252 
L 145.428543 252 
L 144.472927 252 
z
" clip-path="url(#pa6dcb43d96)" style="fill: #1f77b4"/>
   </g>
   <g id="patch_67">
    <path d="M 145.667447 252 
L 146.623063 252 
L 146.623063 184.103044 
L 145.667447 184.103044 
z
" clip-path="url(#pa6dcb43d96)" style="fill: #1f77b4"/>
   </g>
   <g id="patch_68">
    <path d="M 146.861967 252 
L 147.817582 252 
L 147.817582 252 
L 146.861967 252 
z
" clip-path="url(#pa6dcb43d96)" style="fill: #1f77b4"/>
   </g>
   <g id="patch_69">
    <path d="M 148.056486 252 
L 149.012102 252 
L 149.012102 126.390632 
L 148.056486 126.390632 
z
" clip-path="url(#pa6dcb43d96)" style="fill: #1f77b4"/>
   </g>
   <g id="patch_70">
    <path d="M 149.251006 252 
L 150.206622 252 
L 150.206622 252 
L 149.251006 252 
z
" clip-path="url(#pa6dcb43d96)" style="fill: #1f77b4"/>
   </g>
   <g id="patch_71">
    <path d="M 150.445526 252 
L 151.401142 252 
L 151.401142 153.549415 
L 150.445526 153.549415 
z
" clip-path="url(#pa6dcb43d96)" style="fill: #1f77b4"/>
   </g>
   <g id="patch_72">
    <path d="M 151.640046 252 
L 152.595661 252 
L 152.595661 252 
L 151.640046 252 
z
" clip-path="url(#pa6dcb43d96)" style="fill: #1f77b4"/>
   </g>
   <g id="patch_73">
    <path d="M 152.834565 252 
L 153.790181 252 
L 153.790181 109.416393 
L 152.834565 109.416393 
z
" clip-path="url(#pa6dcb43d96)" style="fill: #1f77b4"/>
   </g>
   <g id="patch_74">
    <path d="M 154.029085 252 
L 154.984701 252 
L 154.984701 252 
L 154.029085 252 
z
" clip-path="url(#pa6dcb43d96)" style="fill: #1f77b4"/>
   </g>
   <g id="patch_75">
    <path d="M 155.223605 252 
L 156.179221 252 
L 156.179221 204.472131 
L 155.223605 204.472131 
z
" clip-path="url(#pa6dcb43d96)" style="fill: #1f77b4"/>
   </g>
   <g id="patch_76">
    <path d="M 156.418125 252 
L 157.373741 252 
L 157.373741 252 
L 156.418125 252 
z
" clip-path="url(#pa6dcb43d96)" style="fill: #1f77b4"/>
   </g>
   <g id="patch_77">
    <path d="M 157.612644 252 
L 158.56826 252 
L 158.56826 143.364871 
L 157.612644 143.364871 
z
" clip-path="url(#pa6dcb43d96)" style="fill: #1f77b4"/>
   </g>
   <g id="patch_78">
    <path d="M 158.807164 252 
L 159.76278 252 
L 159.76278 252 
L 158.807164 252 
z
" clip-path="url(#pa6dcb43d96)" style="fill: #1f77b4"/>
   </g>
   <g id="patch_79">
    <path d="M 160.001684 252 
L 160.9573 252 
L 160.9573 143.364871 
L 160.001684 143.364871 
z
" clip-path="url(#pa6dcb43d96)" style="fill: #1f77b4"/>
   </g>
   <g id="patch_80">
    <path d="M 161.196204 252 
L 162.15182 252 
L 162.15182 252 
L 161.196204 252 
z
" clip-path="url(#pa6dcb43d96)" style="fill: #1f77b4"/>
   </g>
   <g id="patch_81">
    <path d="M 162.390724 252 
L 163.346339 252 
L 163.346339 82.257611 
L 162.390724 82.257611 
z
" clip-path="url(#pa6dcb43d96)" style="fill: #1f77b4"/>
   </g>
   <g id="patch_82">
    <path d="M 163.585243 252 
L 164.540859 252 
L 164.540859 252 
L 163.585243 252 
z
" clip-path="url(#pa6dcb43d96)" style="fill: #1f77b4"/>
   </g>
   <g id="patch_83">
    <path d="M 164.779763 252 
L 165.735379 252 
L 165.735379 207.866979 
L 164.779763 207.866979 
z
" clip-path="url(#pa6dcb43d96)" style="fill: #1f77b4"/>
   </g>
   <g id="patch_84">
    <path d="M 165.974283 252 
L 166.929899 252 
L 166.929899 252 
L 165.974283 252 
z
" clip-path="url(#pa6dcb43d96)" style="fill: #1f77b4"/>
   </g>
   <g id="patch_85">
    <path d="M 167.168803 252 
L 168.124418 252 
L 168.124418 119.600937 
L 167.168803 119.600937 
z
" clip-path="url(#pa6dcb43d96)" style="fill: #1f77b4"/>
   </g>
   <g id="patch_86">
    <path d="M 168.363322 252 
L 169.318938 252 
L 169.318938 252 
L 168.363322 252 
z
" clip-path="url(#pa6dcb43d96)" style="fill: #1f77b4"/>
   </g>
   <g id="patch_87">
    <path d="M 169.557842 252 
L 170.513458 252 
L 170.513458 139.970023 
L 169.557842 139.970023 
z
" clip-path="url(#pa6dcb43d96)" style="fill: #1f77b4"/>
   </g>
   <g id="patch_88">
    <path d="M 170.752362 252 
L 171.707978 252 
L 171.707978 252 
L 170.752362 252 
z
" clip-path="url(#pa6dcb43d96)" style="fill: #1f77b4"/>
   </g>
   <g id="patch_89">
    <path d="M 171.946882 252 
L 172.902498 252 
L 172.902498 106.021546 
L 171.946882 106.021546 
z
" clip-path="url(#pa6dcb43d96)" style="fill: #1f77b4"/>
   </g>
   <g id="patch_90">
    <path d="M 173.141401 252 
L 174.097017 252 
L 174.097017 252 
L 173.141401 252 
z
" clip-path="url(#pa6dcb43d96)" style="fill: #1f77b4"/>
   </g>
   <g id="patch_91">
    <path d="M 174.335921 252 
L 175.291537 252 
L 175.291537 177.313349 
L 174.335921 177.313349 
z
" clip-path="url(#pa6dcb43d96)" style="fill: #1f77b4"/>
   </g>
   <g id="patch_92">
    <path d="M 175.530441 252 
L 176.486057 252 
L 176.486057 252 
L 175.530441 252 
z
" clip-path="url(#pa6dcb43d96)" style="fill: #1f77b4"/>
   </g>
   <g id="patch_93">
    <path d="M 176.724961 252 
L 177.680577 252 
L 177.680577 156.944262 
L 176.724961 156.944262 
z
" clip-path="url(#pa6dcb43d96)" style="fill: #1f77b4"/>
   </g>
   <g id="patch_94">
    <path d="M 177.919481 252 
L 178.875096 252 
L 178.875096 252 
L 177.919481 252 
z
" clip-path="url(#pa6dcb43d96)" style="fill: #1f77b4"/>
   </g>
   <g id="patch_95">
    <path d="M 179.114 252 
L 180.069616 252 
L 180.069616 163.733958 
L 179.114 163.733958 
z
" clip-path="url(#pa6dcb43d96)" style="fill: #1f77b4"/>
   </g>
   <g id="patch_96">
    <path d="M 180.30852 252 
L 181.264136 252 
L 181.264136 252 
L 180.30852 252 
z
" clip-path="url(#pa6dcb43d96)" style="fill: #1f77b4"/>
   </g>
   <g id="patch_97">
    <path d="M 181.50304 252 
L 182.458656 252 
L 182.458656 75.467916 
L 181.50304 75.467916 
z
" clip-path="url(#pa6dcb43d96)" style="fill: #1f77b4"/>
   </g>
   <g id="patch_98">
    <path d="M 182.69756 252 
L 183.653175 252 
L 183.653175 252 
L 182.69756 252 
z
" clip-path="url(#pa6dcb43d96)" style="fill: #1f77b4"/>
   </g>
   <g id="patch_99">
    <path d="M 183.892079 252 
L 184.847695 252 
L 184.847695 180.708197 
L 183.892079 180.708197 
z
" clip-path="url(#pa6dcb43d96)" style="fill: #1f77b4"/>
   </g>
   <g id="patch_100">
    <path d="M 185.086599 252 
L 186.042215 252 
L 186.042215 252 
L 185.086599 252 
z
" clip-path="url(#pa6dcb43d96)" style="fill: #1f77b4"/>
   </g>
   <g id="patch_101">
    <path d="M 186.281119 252 
L 187.236735 252 
L 187.236735 150.154567 
L 186.281119 150.154567 
z
" clip-path="url(#pa6dcb43d96)" style="fill: #1f77b4"/>
   </g>
   <g id="patch_102">
    <path d="M 187.475639 252 
L 188.431254 252 
L 188.431254 252 
L 187.475639 252 
z
" clip-path="url(#pa6dcb43d96)" style="fill: #1f77b4"/>
   </g>
   <g id="patch_103">
    <path d="M 188.670158 252 
L 189.625774 252 
L 189.625774 163.733958 
L 188.670158 163.733958 
z
" clip-path="url(#pa6dcb43d96)" style="fill: #1f77b4"/>
   </g>
   <g id="patch_104">
    <path d="M 189.864678 252 
L 190.820294 252 
L 190.820294 252 
L 189.864678 252 
z
" clip-path="url(#pa6dcb43d96)" style="fill: #1f77b4"/>
   </g>
   <g id="patch_105">
    <path d="M 191.059198 252 
L 192.014814 252 
L 192.014814 78.862763 
L 191.059198 78.862763 
z
" clip-path="url(#pa6dcb43d96)" style="fill: #1f77b4"/>
   </g>
   <g id="patch_106">
    <path d="M 192.253718 252 
L 193.209334 252 
L 193.209334 252 
L 192.253718 252 
z
" clip-path="url(#pa6dcb43d96)" style="fill: #1f77b4"/>
   </g>
   <g id="patch_107">
    <path d="M 193.448237 252 
L 194.403853 252 
L 194.403853 190.89274 
L 193.448237 190.89274 
z
" clip-path="url(#pa6dcb43d96)" style="fill: #1f77b4"/>
   </g>
   <g id="patch_108">
    <path d="M 194.642757 252 
L 195.598373 252 
L 195.598373 252 
L 194.642757 252 
z
" clip-path="url(#pa6dcb43d96)" style="fill: #1f77b4"/>
   </g>
   <g id="patch_109">
    <path d="M 195.837277 252 
L 196.792893 252 
L 196.792893 163.733958 
L 195.837277 163.733958 
z
" clip-path="url(#pa6dcb43d96)" style="fill: #1f77b4"/>
   </g>
   <g id="patch_110">
    <path d="M 197.031797 252 
L 197.987413 252 
L 197.987413 252 
L 197.031797 252 
z
" clip-path="url(#pa6dcb43d96)" style="fill: #1f77b4"/>
   </g>
   <g id="patch_111">
    <path d="M 198.226317 252 
L 199.181932 252 
L 199.181932 92.442155 
L 198.226317 92.442155 
z
" clip-path="url(#pa6dcb43d96)" style="fill: #1f77b4"/>
   </g>
   <g id="patch_112">
    <path d="M 199.420836 252 
L 200.376452 252 
L 200.376452 252 
L 199.420836 252 
z
" clip-path="url(#pa6dcb43d96)" style="fill: #1f77b4"/>
   </g>
   <g id="patch_113">
    <path d="M 200.615356 252 
L 201.570972 252 
L 201.570972 126.390632 
L 200.615356 126.390632 
z
" clip-path="url(#pa6dcb43d96)" style="fill: #1f77b4"/>
   </g>
   <g id="patch_114">
    <path d="M 201.809876 252 
L 202.765492 252 
L 202.765492 252 
L 201.809876 252 
z
" clip-path="url(#pa6dcb43d96)" style="fill: #1f77b4"/>
   </g>
   <g id="patch_115">
    <path d="M 203.004396 252 
L 203.960011 252 
L 203.960011 204.472131 
L 203.004396 204.472131 
z
" clip-path="url(#pa6dcb43d96)" style="fill: #1f77b4"/>
   </g>
   <g id="patch_116">
    <path d="M 204.198915 252 
L 205.154531 252 
L 205.154531 252 
L 204.198915 252 
z
" clip-path="url(#pa6dcb43d96)" style="fill: #1f77b4"/>
   </g>
   <g id="patch_117">
    <path d="M 205.393435 252 
L 206.349051 252 
L 206.349051 133.180328 
L 205.393435 133.180328 
z
" clip-path="url(#pa6dcb43d96)" style="fill: #1f77b4"/>
   </g>
   <g id="patch_118">
    <path d="M 206.587955 252 
L 207.543571 252 
L 207.543571 252 
L 206.587955 252 
z
" clip-path="url(#pa6dcb43d96)" style="fill: #1f77b4"/>
   </g>
   <g id="patch_119">
    <path d="M 207.782475 252 
L 208.73809 252 
L 208.73809 139.970023 
L 207.782475 139.970023 
z
" clip-path="url(#pa6dcb43d96)" style="fill: #1f77b4"/>
   </g>
   <g id="patch_120">
    <path d="M 208.976994 252 
L 209.93261 252 
L 209.93261 252 
L 208.976994 252 
z
" clip-path="url(#pa6dcb43d96)" style="fill: #1f77b4"/>
   </g>
   <g id="patch_121">
    <path d="M 210.171514 252 
L 211.12713 252 
L 211.12713 95.837002 
L 210.171514 95.837002 
z
" clip-path="url(#pa6dcb43d96)" style="fill: #1f77b4"/>
   </g>
   <g id="patch_122">
    <path d="M 211.366034 252 
L 212.32165 252 
L 212.32165 252 
L 211.366034 252 
z
" clip-path="url(#pa6dcb43d96)" style="fill: #1f77b4"/>
   </g>
   <g id="patch_123">
    <path d="M 212.560554 252 
L 213.51617 252 
L 213.51617 180.708197 
L 212.560554 180.708197 
z
" clip-path="url(#pa6dcb43d96)" style="fill: #1f77b4"/>
   </g>
   <g id="patch_124">
    <path d="M 213.755073 252 
L 214.710689 252 
L 214.710689 252 
L 213.755073 252 
z
" clip-path="url(#pa6dcb43d96)" style="fill: #1f77b4"/>
   </g>
   <g id="patch_125">
    <path d="M 214.949593 252 
L 215.905209 252 
L 215.905209 139.970023 
L 214.949593 139.970023 
z
" clip-path="url(#pa6dcb43d96)" style="fill: #1f77b4"/>
   </g>
   <g id="patch_126">
    <path d="M 216.144113 252 
L 217.099729 252 
L 217.099729 252 
L 216.144113 252 
z
" clip-path="url(#pa6dcb43d96)" style="fill: #1f77b4"/>
   </g>
   <g id="patch_127">
    <path d="M 217.338633 252 
L 218.294249 252 
L 218.294249 139.970023 
L 217.338633 139.970023 
z
" clip-path="url(#pa6dcb43d96)" style="fill: #1f77b4"/>
   </g>
   <g id="patch_128">
    <path d="M 218.533153 252 
L 219.488768 252 
L 219.488768 252 
L 218.533153 252 
z
" clip-path="url(#pa6dcb43d96)" style="fill: #1f77b4"/>
   </g>
   <g id="patch_129">
    <path d="M 219.727672 252 
L 220.683288 252 
L 220.683288 112.811241 
L 219.727672 112.811241 
z
" clip-path="url(#pa6dcb43d96)" style="fill: #1f77b4"/>
   </g>
   <g id="patch_130">
    <path d="M 220.922192 252 
L 221.877808 252 
L 221.877808 252 
L 220.922192 252 
z
" clip-path="url(#pa6dcb43d96)" style="fill: #1f77b4"/>
   </g>
   <g id="patch_131">
    <path d="M 222.116712 252 
L 223.072328 252 
L 223.072328 194.287588 
L 222.116712 194.287588 
z
" clip-path="url(#pa6dcb43d96)" style="fill: #1f77b4"/>
   </g>
   <g id="patch_132">
    <path d="M 223.311232 252 
L 224.266847 252 
L 224.266847 252 
L 223.311232 252 
z
" clip-path="url(#pa6dcb43d96)" style="fill: #1f77b4"/>
   </g>
   <g id="patch_133">
    <path d="M 224.505751 252 
L 225.461367 252 
L 225.461367 153.549415 
L 224.505751 153.549415 
z
" clip-path="url(#pa6dcb43d96)" style="fill: #1f77b4"/>
   </g>
   <g id="patch_134">
    <path d="M 225.700271 252 
L 226.655887 252 
L 226.655887 252 
L 225.700271 252 
z
" clip-path="url(#pa6dcb43d96)" style="fill: #1f77b4"/>
   </g>
   <g id="patch_135">
    <path d="M 226.894791 252 
L 227.850407 252 
L 227.850407 139.970023 
L 226.894791 139.970023 
z
" clip-path="url(#pa6dcb43d96)" style="fill: #1f77b4"/>
   </g>
   <g id="patch_136">
    <path d="M 228.089311 252 
L 229.044927 252 
L 229.044927 252 
L 228.089311 252 
z
" clip-path="url(#pa6dcb43d96)" style="fill: #1f77b4"/>
   </g>
   <g id="patch_137">
    <path d="M 229.28383 252 
L 230.239446 252 
L 230.239446 85.652459 
L 229.28383 85.652459 
z
" clip-path="url(#pa6dcb43d96)" style="fill: #1f77b4"/>
   </g>
   <g id="patch_138">
    <path d="M 230.47835 252 
L 231.433966 252 
L 231.433966 252 
L 230.47835 252 
z
" clip-path="url(#pa6dcb43d96)" style="fill: #1f77b4"/>
   </g>
   <g id="patch_139">
    <path d="M 231.67287 252 
L 232.628486 252 
L 232.628486 197.682436 
L 231.67287 197.682436 
z
" clip-path="url(#pa6dcb43d96)" style="fill: #1f77b4"/>
   </g>
   <g id="patch_140">
    <path d="M 232.86739 252 
L 233.823006 252 
L 233.823006 252 
L 232.86739 252 
z
" clip-path="url(#pa6dcb43d96)" style="fill: #1f77b4"/>
   </g>
   <g id="patch_141">
    <path d="M 234.06191 252 
L 235.017525 252 
L 235.017525 160.33911 
L 234.06191 160.33911 
z
" clip-path="url(#pa6dcb43d96)" style="fill: #1f77b4"/>
   </g>
   <g id="patch_142">
    <path d="M 235.256429 252 
L 236.212045 252 
L 236.212045 252 
L 235.256429 252 
z
" clip-path="url(#pa6dcb43d96)" style="fill: #1f77b4"/>
   </g>
   <g id="patch_143">
    <path d="M 236.450949 252 
L 237.406565 252 
L 237.406565 150.154567 
L 236.450949 150.154567 
z
" clip-path="url(#pa6dcb43d96)" style="fill: #1f77b4"/>
   </g>
   <g id="patch_144">
    <path d="M 237.645469 252 
L 238.601085 252 
L 238.601085 252 
L 237.645469 252 
z
" clip-path="url(#pa6dcb43d96)" style="fill: #1f77b4"/>
   </g>
   <g id="patch_145">
    <path d="M 238.839989 252 
L 239.795604 252 
L 239.795604 65.283372 
L 238.839989 65.283372 
z
" clip-path="url(#pa6dcb43d96)" style="fill: #1f77b4"/>
   </g>
   <g id="patch_146">
    <path d="M 240.034508 252 
L 240.990124 252 
L 240.990124 252 
L 240.034508 252 
z
" clip-path="url(#pa6dcb43d96)" style="fill: #1f77b4"/>
   </g>
   <g id="patch_147">
    <path d="M 241.229028 252 
L 242.184644 252 
L 242.184644 187.497892 
L 241.229028 187.497892 
z
" clip-path="url(#pa6dcb43d96)" style="fill: #1f77b4"/>
   </g>
   <g id="patch_148">
    <path d="M 242.423548 252 
L 243.379164 252 
L 243.379164 252 
L 242.423548 252 
z
" clip-path="url(#pa6dcb43d96)" style="fill: #1f77b4"/>
   </g>
   <g id="patch_149">
    <path d="M 243.618068 252 
L 244.573683 252 
L 244.573683 187.497892 
L 243.618068 187.497892 
z
" clip-path="url(#pa6dcb43d96)" style="fill: #1f77b4"/>
   </g>
   <g id="patch_150">
    <path d="M 244.812587 252 
L 245.768203 252 
L 245.768203 252 
L 244.812587 252 
z
" clip-path="url(#pa6dcb43d96)" style="fill: #1f77b4"/>
   </g>
   <g id="patch_151">
    <path d="M 246.007107 252 
L 246.962723 252 
L 246.962723 133.180328 
L 246.007107 133.180328 
z
" clip-path="url(#pa6dcb43d96)" style="fill: #1f77b4"/>
   </g>
   <g id="patch_152">
    <path d="M 247.201627 252 
L 248.157243 252 
L 248.157243 252 
L 247.201627 252 
z
" clip-path="url(#pa6dcb43d96)" style="fill: #1f77b4"/>
   </g>
   <g id="patch_153">
    <path d="M 248.396147 252 
L 249.351763 252 
L 249.351763 65.283372 
L 248.396147 65.283372 
z
" clip-path="url(#pa6dcb43d96)" style="fill: #1f77b4"/>
   </g>
   <g id="patch_154">
    <path d="M 249.590666 252 
L 250.546282 252 
L 250.546282 252 
L 249.590666 252 
z
" clip-path="url(#pa6dcb43d96)" style="fill: #1f77b4"/>
   </g>
   <g id="patch_155">
    <path d="M 250.785186 252 
L 251.740802 252 
L 251.740802 214.656674 
L 250.785186 214.656674 
z
" clip-path="url(#pa6dcb43d96)" style="fill: #1f77b4"/>
   </g>
   <g id="patch_156">
    <path d="M 251.979706 252 
L 252.935322 252 
L 252.935322 252 
L 251.979706 252 
z
" clip-path="url(#pa6dcb43d96)" style="fill: #1f77b4"/>
   </g>
   <g id="patch_157">
    <path d="M 253.174226 252 
L 254.129842 252 
L 254.129842 133.180328 
L 253.174226 133.180328 
z
" clip-path="url(#pa6dcb43d96)" style="fill: #1f77b4"/>
   </g>
   <g id="patch_158">
    <path d="M 254.368746 252 
L 255.324361 252 
L 255.324361 252 
L 254.368746 252 
z
" clip-path="url(#pa6dcb43d96)" style="fill: #1f77b4"/>
   </g>
   <g id="patch_159">
    <path d="M 255.563265 252 
L 256.518881 252 
L 256.518881 156.944262 
L 255.563265 156.944262 
z
" clip-path="url(#pa6dcb43d96)" style="fill: #1f77b4"/>
   </g>
   <g id="patch_160">
    <path d="M 256.757785 252 
L 257.713401 252 
L 257.713401 252 
L 256.757785 252 
z
" clip-path="url(#pa6dcb43d96)" style="fill: #1f77b4"/>
   </g>
   <g id="patch_161">
    <path d="M 257.952305 252 
L 258.907921 252 
L 258.907921 68.67822 
L 257.952305 68.67822 
z
" clip-path="url(#pa6dcb43d96)" style="fill: #1f77b4"/>
   </g>
   <g id="patch_162">
    <path d="M 259.146825 252 
L 260.10244 252 
L 260.10244 252 
L 259.146825 252 
z
" clip-path="url(#pa6dcb43d96)" style="fill: #1f77b4"/>
   </g>
   <g id="patch_163">
    <path d="M 260.341344 252 
L 261.29696 252 
L 261.29696 218.051522 
L 260.341344 218.051522 
z
" clip-path="url(#pa6dcb43d96)" style="fill: #1f77b4"/>
   </g>
   <g id="patch_164">
    <path d="M 261.535864 252 
L 262.49148 252 
L 262.49148 252 
L 261.535864 252 
z
" clip-path="url(#pa6dcb43d96)" style="fill: #1f77b4"/>
   </g>
   <g id="patch_165">
    <path d="M 262.730384 252 
L 263.686 252 
L 263.686 150.154567 
L 262.730384 150.154567 
z
" clip-path="url(#pa6dcb43d96)" style="fill: #1f77b4"/>
   </g>
   <g id="patch_166">
    <path d="M 263.924904 252 
L 264.880519 252 
L 264.880519 252 
L 263.924904 252 
z
" clip-path="url(#pa6dcb43d96)" style="fill: #1f77b4"/>
   </g>
   <g id="patch_167">
    <path d="M 265.119423 252 
L 266.075039 252 
L 266.075039 122.995785 
L 265.119423 122.995785 
z
" clip-path="url(#pa6dcb43d96)" style="fill: #1f77b4"/>
   </g>
   <g id="patch_168">
    <path d="M 266.313943 252 
L 267.269559 252 
L 267.269559 252 
L 266.313943 252 
z
" clip-path="url(#pa6dcb43d96)" style="fill: #1f77b4"/>
   </g>
   <g id="patch_169">
    <path d="M 267.508463 252 
L 268.464079 252 
L 268.464079 82.257611 
L 267.508463 82.257611 
z
" clip-path="url(#pa6dcb43d96)" style="fill: #1f77b4"/>
   </g>
   <g id="patch_170">
    <path d="M 268.702983 252 
L 269.658599 252 
L 269.658599 252 
L 268.702983 252 
z
" clip-path="url(#pa6dcb43d96)" style="fill: #1f77b4"/>
   </g>
   <g id="patch_171">
    <path d="M 269.897502 252 
L 270.853118 252 
L 270.853118 204.472131 
L 269.897502 204.472131 
z
" clip-path="url(#pa6dcb43d96)" style="fill: #1f77b4"/>
   </g>
   <g id="patch_172">
    <path d="M 271.092022 252 
L 272.047638 252 
L 272.047638 252 
L 271.092022 252 
z
" clip-path="url(#pa6dcb43d96)" style="fill: #1f77b4"/>
   </g>
   <g id="patch_173">
    <path d="M 272.286542 252 
L 273.242158 252 
L 273.242158 163.733958 
L 272.286542 163.733958 
z
" clip-path="url(#pa6dcb43d96)" style="fill: #1f77b4"/>
   </g>
   <g id="patch_174">
    <path d="M 273.481062 252 
L 274.436678 252 
L 274.436678 252 
L 273.481062 252 
z
" clip-path="url(#pa6dcb43d96)" style="fill: #1f77b4"/>
   </g>
   <g id="patch_175">
    <path d="M 274.675582 252 
L 275.631197 252 
L 275.631197 156.944262 
L 274.675582 156.944262 
z
" clip-path="url(#pa6dcb43d96)" style="fill: #1f77b4"/>
   </g>
   <g id="patch_176">
    <path d="M 275.870101 252 
L 276.825717 252 
L 276.825717 252 
L 275.870101 252 
z
" clip-path="url(#pa6dcb43d96)" style="fill: #1f77b4"/>
   </g>
   <g id="patch_177">
    <path d="M 277.064621 252 
L 278.020237 252 
L 278.020237 48.309133 
L 277.064621 48.309133 
z
" clip-path="url(#pa6dcb43d96)" style="fill: #1f77b4"/>
   </g>
   <g id="patch_178">
    <path d="M 278.259141 252 
L 279.214757 252 
L 279.214757 252 
L 278.259141 252 
z
" clip-path="url(#pa6dcb43d96)" style="fill: #1f77b4"/>
   </g>
   <g id="patch_179">
    <path d="M 279.453661 252 
L 280.409276 252 
L 280.409276 214.656674 
L 279.453661 214.656674 
z
" clip-path="url(#pa6dcb43d96)" style="fill: #1f77b4"/>
   </g>
   <g id="patch_180">
    <path d="M 280.64818 252 
L 281.603796 252 
L 281.603796 252 
L 280.64818 252 
z
" clip-path="url(#pa6dcb43d96)" style="fill: #1f77b4"/>
   </g>
   <g id="patch_181">
    <path d="M 281.8427 252 
L 282.798316 252 
L 282.798316 136.575176 
L 281.8427 136.575176 
z
" clip-path="url(#pa6dcb43d96)" style="fill: #1f77b4"/>
   </g>
   <g id="patch_182">
    <path d="M 283.03722 252 
L 283.992836 252 
L 283.992836 252 
L 283.03722 252 
z
" clip-path="url(#pa6dcb43d96)" style="fill: #1f77b4"/>
   </g>
   <g id="patch_183">
    <path d="M 284.23174 252 
L 285.187356 252 
L 285.187356 156.944262 
L 284.23174 156.944262 
z
" clip-path="url(#pa6dcb43d96)" style="fill: #1f77b4"/>
   </g>
   <g id="patch_184">
    <path d="M 285.426259 252 
L 286.381875 252 
L 286.381875 252 
L 285.426259 252 
z
" clip-path="url(#pa6dcb43d96)" style="fill: #1f77b4"/>
   </g>
   <g id="patch_185">
    <path d="M 286.620779 252 
L 287.576395 252 
L 287.576395 65.283372 
L 286.620779 65.283372 
z
" clip-path="url(#pa6dcb43d96)" style="fill: #1f77b4"/>
   </g>
   <g id="patch_186">
    <path d="M 287.815299 252 
L 288.770915 252 
L 288.770915 252 
L 287.815299 252 
z
" clip-path="url(#pa6dcb43d96)" style="fill: #1f77b4"/>
   </g>
   <g id="patch_187">
    <path d="M 289.009819 252 
L 289.965435 252 
L 289.965435 214.656674 
L 289.009819 214.656674 
z
" clip-path="url(#pa6dcb43d96)" style="fill: #1f77b4"/>
   </g>
   <g id="patch_188">
    <path d="M 290.204339 252 
L 291.159954 252 
L 291.159954 252 
L 290.204339 252 
z
" clip-path="url(#pa6dcb43d96)" style="fill: #1f77b4"/>
   </g>
   <g id="patch_189">
    <path d="M 291.398858 252 
L 292.354474 252 
L 292.354474 150.154567 
L 291.398858 150.154567 
z
" clip-path="url(#pa6dcb43d96)" style="fill: #1f77b4"/>
   </g>
   <g id="patch_190">
    <path d="M 292.593378 252 
L 293.548994 252 
L 293.548994 252 
L 292.593378 252 
z
" clip-path="url(#pa6dcb43d96)" style="fill: #1f77b4"/>
   </g>
   <g id="patch_191">
    <path d="M 293.787898 252 
L 294.743514 252 
L 294.743514 119.600937 
L 293.787898 119.600937 
z
" clip-path="url(#pa6dcb43d96)" style="fill: #1f77b4"/>
   </g>
   <g id="patch_192">
    <path d="M 294.982418 252 
L 295.938033 252 
L 295.938033 252 
L 294.982418 252 
z
" clip-path="url(#pa6dcb43d96)" style="fill: #1f77b4"/>
   </g>
   <g id="patch_193">
    <path d="M 296.176937 252 
L 297.132553 252 
L 297.132553 89.047307 
L 296.176937 89.047307 
z
" clip-path="url(#pa6dcb43d96)" style="fill: #1f77b4"/>
   </g>
   <g id="patch_194">
    <path d="M 297.371457 252 
L 298.327073 252 
L 298.327073 252 
L 297.371457 252 
z
" clip-path="url(#pa6dcb43d96)" style="fill: #1f77b4"/>
   </g>
   <g id="patch_195">
    <path d="M 298.565977 252 
L 299.521593 252 
L 299.521593 180.708197 
L 298.565977 180.708197 
z
" clip-path="url(#pa6dcb43d96)" style="fill: #1f77b4"/>
   </g>
   <g id="patch_196">
    <path d="M 299.760497 252 
L 300.716112 252 
L 300.716112 252 
L 299.760497 252 
z
" clip-path="url(#pa6dcb43d96)" style="fill: #1f77b4"/>
   </g>
   <g id="patch_197">
    <path d="M 300.955016 252 
L 301.910632 252 
L 301.910632 150.154567 
L 300.955016 150.154567 
z
" clip-path="url(#pa6dcb43d96)" style="fill: #1f77b4"/>
   </g>
   <g id="patch_198">
    <path d="M 302.149536 252 
L 303.105152 252 
L 303.105152 252 
L 302.149536 252 
z
" clip-path="url(#pa6dcb43d96)" style="fill: #1f77b4"/>
   </g>
   <g id="patch_199">
    <path d="M 303.344056 252 
L 304.299672 252 
L 304.299672 160.33911 
L 303.344056 160.33911 
z
" clip-path="url(#pa6dcb43d96)" style="fill: #1f77b4"/>
   </g>
   <g id="patch_200">
    <path d="M 304.538576 252 
L 305.494192 252 
L 305.494192 252 
L 304.538576 252 
z
" clip-path="url(#pa6dcb43d96)" style="fill: #1f77b4"/>
   </g>
   <g id="patch_201">
    <path d="M 305.733095 252 
L 306.688711 252 
L 306.688711 82.257611 
L 305.733095 82.257611 
z
" clip-path="url(#pa6dcb43d96)" style="fill: #1f77b4"/>
   </g>
   <g id="patch_202">
    <path d="M 306.927615 252 
L 307.883231 252 
L 307.883231 252 
L 306.927615 252 
z
" clip-path="url(#pa6dcb43d96)" style="fill: #1f77b4"/>
   </g>
   <g id="patch_203">
    <path d="M 308.122135 252 
L 309.077751 252 
L 309.077751 194.287588 
L 308.122135 194.287588 
z
" clip-path="url(#pa6dcb43d96)" style="fill: #1f77b4"/>
   </g>
   <g id="patch_204">
    <path d="M 309.316655 252 
L 310.272271 252 
L 310.272271 252 
L 309.316655 252 
z
" clip-path="url(#pa6dcb43d96)" style="fill: #1f77b4"/>
   </g>
   <g id="patch_205">
    <path d="M 310.511175 252 
L 311.46679 252 
L 311.46679 129.78548 
L 310.511175 129.78548 
z
" clip-path="url(#pa6dcb43d96)" style="fill: #1f77b4"/>
   </g>
   <g id="patch_206">
    <path d="M 311.705694 252 
L 312.66131 252 
L 312.66131 252 
L 311.705694 252 
z
" clip-path="url(#pa6dcb43d96)" style="fill: #1f77b4"/>
   </g>
   <g id="patch_207">
    <path d="M 312.900214 252 
L 313.85583 252 
L 313.85583 136.575176 
L 312.900214 136.575176 
z
" clip-path="url(#pa6dcb43d96)" style="fill: #1f77b4"/>
   </g>
   <g id="patch_208">
    <path d="M 314.094734 252 
L 315.05035 252 
L 315.05035 252 
L 314.094734 252 
z
" clip-path="url(#pa6dcb43d96)" style="fill: #1f77b4"/>
   </g>
   <g id="patch_209">
    <path d="M 315.289254 252 
L 316.244869 252 
L 316.244869 112.811241 
L 315.289254 112.811241 
z
" clip-path="url(#pa6dcb43d96)" style="fill: #1f77b4"/>
   </g>
   <g id="patch_210">
    <path d="M 316.483773 252 
L 317.439389 252 
L 317.439389 252 
L 316.483773 252 
z
" clip-path="url(#pa6dcb43d96)" style="fill: #1f77b4"/>
   </g>
   <g id="patch_211">
    <path d="M 317.678293 252 
L 318.633909 252 
L 318.633909 204.472131 
L 317.678293 204.472131 
z
" clip-path="url(#pa6dcb43d96)" style="fill: #1f77b4"/>
   </g>
   <g id="patch_212">
    <path d="M 318.872813 252 
L 319.828429 252 
L 319.828429 252 
L 318.872813 252 
z
" clip-path="url(#pa6dcb43d96)" style="fill: #1f77b4"/>
   </g>
   <g id="patch_213">
    <path d="M 320.067333 252 
L 321.022948 252 
L 321.022948 139.970023 
L 320.067333 139.970023 
z
" clip-path="url(#pa6dcb43d96)" style="fill: #1f77b4"/>
   </g>
   <g id="patch_214">
    <path d="M 321.261852 252 
L 322.217468 252 
L 322.217468 252 
L 321.261852 252 
z
" clip-path="url(#pa6dcb43d96)" style="fill: #1f77b4"/>
   </g>
   <g id="patch_215">
    <path d="M 322.456372 252 
L 323.411988 252 
L 323.411988 116.206089 
L 322.456372 116.206089 
z
" clip-path="url(#pa6dcb43d96)" style="fill: #1f77b4"/>
   </g>
   <g id="patch_216">
    <path d="M 323.650892 252 
L 324.606508 252 
L 324.606508 252 
L 323.650892 252 
z
" clip-path="url(#pa6dcb43d96)" style="fill: #1f77b4"/>
   </g>
   <g id="patch_217">
    <path d="M 324.845412 252 
L 325.801028 252 
L 325.801028 112.811241 
L 324.845412 112.811241 
z
" clip-path="url(#pa6dcb43d96)" style="fill: #1f77b4"/>
   </g>
   <g id="patch_218">
    <path d="M 326.039931 252 
L 326.995547 252 
L 326.995547 252 
L 326.039931 252 
z
" clip-path="url(#pa6dcb43d96)" style="fill: #1f77b4"/>
   </g>
   <g id="patch_219">
    <path d="M 327.234451 252 
L 328.190067 252 
L 328.190067 187.497892 
L 327.234451 187.497892 
z
" clip-path="url(#pa6dcb43d96)" style="fill: #1f77b4"/>
   </g>
   <g id="patch_220">
    <path d="M 328.428971 252 
L 329.384587 252 
L 329.384587 252 
L 328.428971 252 
z
" clip-path="url(#pa6dcb43d96)" style="fill: #1f77b4"/>
   </g>
   <g id="patch_221">
    <path d="M 329.623491 252 
L 330.579107 252 
L 330.579107 143.364871 
L 329.623491 143.364871 
z
" clip-path="url(#pa6dcb43d96)" style="fill: #1f77b4"/>
   </g>
   <g id="patch_222">
    <path d="M 330.818011 252 
L 331.773626 252 
L 331.773626 252 
L 330.818011 252 
z
" clip-path="url(#pa6dcb43d96)" style="fill: #1f77b4"/>
   </g>
   <g id="patch_223">
    <path d="M 332.01253 252 
L 332.968146 252 
L 332.968146 163.733958 
L 332.01253 163.733958 
z
" clip-path="url(#pa6dcb43d96)" style="fill: #1f77b4"/>
   </g>
   <g id="patch_224">
    <path d="M 333.20705 252 
L 334.162666 252 
L 334.162666 252 
L 333.20705 252 
z
" clip-path="url(#pa6dcb43d96)" style="fill: #1f77b4"/>
   </g>
   <g id="patch_225">
    <path d="M 334.40157 252 
L 335.357186 252 
L 335.357186 78.862763 
L 334.40157 78.862763 
z
" clip-path="url(#pa6dcb43d96)" style="fill: #1f77b4"/>
   </g>
   <g id="patch_226">
    <path d="M 335.59609 252 
L 336.551705 252 
L 336.551705 252 
L 335.59609 252 
z
" clip-path="url(#pa6dcb43d96)" style="fill: #1f77b4"/>
   </g>
   <g id="patch_227">
    <path d="M 336.790609 252 
L 337.746225 252 
L 337.746225 184.103044 
L 336.790609 184.103044 
z
" clip-path="url(#pa6dcb43d96)" style="fill: #1f77b4"/>
   </g>
   <g id="patch_228">
    <path d="M 337.985129 252 
L 338.940745 252 
L 338.940745 252 
L 337.985129 252 
z
" clip-path="url(#pa6dcb43d96)" style="fill: #1f77b4"/>
   </g>
   <g id="patch_229">
    <path d="M 339.179649 252 
L 340.135265 252 
L 340.135265 156.944262 
L 339.179649 156.944262 
z
" clip-path="url(#pa6dcb43d96)" style="fill: #1f77b4"/>
   </g>
   <g id="patch_230">
    <path d="M 340.374169 252 
L 341.329785 252 
L 341.329785 252 
L 340.374169 252 
z
" clip-path="url(#pa6dcb43d96)" style="fill: #1f77b4"/>
   </g>
   <g id="patch_231">
    <path d="M 341.568688 252 
L 342.524304 252 
L 342.524304 139.970023 
L 341.568688 139.970023 
z
" clip-path="url(#pa6dcb43d96)" style="fill: #1f77b4"/>
   </g>
   <g id="patch_232">
    <path d="M 342.763208 252 
L 343.718824 252 
L 343.718824 252 
L 342.763208 252 
z
" clip-path="url(#pa6dcb43d96)" style="fill: #1f77b4"/>
   </g>
   <g id="patch_233">
    <path d="M 343.957728 252 
L 344.913344 252 
L 344.913344 92.442155 
L 343.957728 92.442155 
z
" clip-path="url(#pa6dcb43d96)" style="fill: #1f77b4"/>
   </g>
   <g id="patch_234">
    <path d="M 345.152248 252 
L 346.107864 252 
L 346.107864 252 
L 345.152248 252 
z
" clip-path="url(#pa6dcb43d96)" style="fill: #1f77b4"/>
   </g>
   <g id="patch_235">
    <path d="M 346.346768 252 
L 347.302383 252 
L 347.302383 211.261827 
L 346.346768 211.261827 
z
" clip-path="url(#pa6dcb43d96)" style="fill: #1f77b4"/>
   </g>
   <g id="patch_236">
    <path d="M 347.541287 252 
L 348.496903 252 
L 348.496903 252 
L 347.541287 252 
z
" clip-path="url(#pa6dcb43d96)" style="fill: #1f77b4"/>
   </g>
   <g id="patch_237">
    <path d="M 348.735807 252 
L 349.691423 252 
L 349.691423 153.549415 
L 348.735807 153.549415 
z
" clip-path="url(#pa6dcb43d96)" style="fill: #1f77b4"/>
   </g>
   <g id="patch_238">
    <path d="M 349.930327 252 
L 350.885943 252 
L 350.885943 252 
L 349.930327 252 
z
" clip-path="url(#pa6dcb43d96)" style="fill: #1f77b4"/>
   </g>
   <g id="patch_239">
    <path d="M 351.124847 252 
L 352.080462 252 
L 352.080462 150.154567 
L 351.124847 150.154567 
z
" clip-path="url(#pa6dcb43d96)" style="fill: #1f77b4"/>
   </g>
   <g id="patch_240">
    <path d="M 352.319366 252 
L 353.274982 252 
L 353.274982 252 
L 352.319366 252 
z
" clip-path="url(#pa6dcb43d96)" style="fill: #1f77b4"/>
   </g>
   <g id="patch_241">
    <path d="M 353.513886 252 
L 354.469502 252 
L 354.469502 58.493677 
L 353.513886 58.493677 
z
" clip-path="url(#pa6dcb43d96)" style="fill: #1f77b4"/>
   </g>
   <g id="patch_242">
    <path d="M 354.708406 252 
L 355.664022 252 
L 355.664022 252 
L 354.708406 252 
z
" clip-path="url(#pa6dcb43d96)" style="fill: #1f77b4"/>
   </g>
   <g id="patch_243">
    <path d="M 355.902926 252 
L 356.858541 252 
L 356.858541 197.682436 
L 355.902926 197.682436 
z
" clip-path="url(#pa6dcb43d96)" style="fill: #1f77b4"/>
   </g>
   <g id="patch_244">
    <path d="M 357.097445 252 
L 358.053061 252 
L 358.053061 252 
L 357.097445 252 
z
" clip-path="url(#pa6dcb43d96)" style="fill: #1f77b4"/>
   </g>
   <g id="patch_245">
    <path d="M 358.291965 252 
L 359.247581 252 
L 359.247581 139.970023 
L 358.291965 139.970023 
z
" clip-path="url(#pa6dcb43d96)" style="fill: #1f77b4"/>
   </g>
   <g id="patch_246">
    <path d="M 359.486485 252 
L 360.442101 252 
L 360.442101 252 
L 359.486485 252 
z
" clip-path="url(#pa6dcb43d96)" style="fill: #1f77b4"/>
   </g>
   <g id="patch_247">
    <path d="M 360.681005 252 
L 361.636621 252 
L 361.636621 153.549415 
L 360.681005 153.549415 
z
" clip-path="url(#pa6dcb43d96)" style="fill: #1f77b4"/>
   </g>
   <g id="patch_248">
    <path d="M 361.875524 252 
L 362.83114 252 
L 362.83114 252 
L 361.875524 252 
z
" clip-path="url(#pa6dcb43d96)" style="fill: #1f77b4"/>
   </g>
   <g id="patch_249">
    <path d="M 363.070044 252 
L 364.02566 252 
L 364.02566 82.257611 
L 363.070044 82.257611 
z
" clip-path="url(#pa6dcb43d96)" style="fill: #1f77b4"/>
   </g>
   <g id="patch_250">
    <path d="M 364.264564 252 
L 365.22018 252 
L 365.22018 252 
L 364.264564 252 
z
" clip-path="url(#pa6dcb43d96)" style="fill: #1f77b4"/>
   </g>
   <g id="patch_251">
    <path d="M 365.459084 252 
L 366.4147 252 
L 366.4147 190.89274 
L 365.459084 190.89274 
z
" clip-path="url(#pa6dcb43d96)" style="fill: #1f77b4"/>
   </g>
   <g id="patch_252">
    <path d="M 366.653604 252 
L 367.609219 252 
L 367.609219 252 
L 366.653604 252 
z
" clip-path="url(#pa6dcb43d96)" style="fill: #1f77b4"/>
   </g>
   <g id="patch_253">
    <path d="M 367.848123 252 
L 368.803739 252 
L 368.803739 139.970023 
L 367.848123 139.970023 
z
" clip-path="url(#pa6dcb43d96)" style="fill: #1f77b4"/>
   </g>
   <g id="patch_254">
    <path d="M 369.042643 252 
L 369.998259 252 
L 369.998259 252 
L 369.042643 252 
z
" clip-path="url(#pa6dcb43d96)" style="fill: #1f77b4"/>
   </g>
   <g id="patch_255">
    <path d="M 370.237163 252 
L 371.192779 252 
L 371.192779 112.811241 
L 370.237163 112.811241 
z
" clip-path="url(#pa6dcb43d96)" style="fill: #1f77b4"/>
   </g>
   <g id="patch_256">
    <path d="M 371.431683 252 
L 372.387298 252 
L 372.387298 252 
L 371.431683 252 
z
" clip-path="url(#pa6dcb43d96)" style="fill: #1f77b4"/>
   </g>
   <g id="patch_257">
    <path d="M 372.626202 252 
L 373.581818 252 
L 373.581818 129.78548 
L 372.626202 129.78548 
z
" clip-path="url(#pa6dcb43d96)" style="fill: #1f77b4"/>
   </g>
   <g id="matplotlib.axis_1">
    <g id="xtick_1">
     <g id="line2d_1">
      <defs>
       <path id="m694adc1709" d="M 0 0 
L 0 3.5 
" style="stroke: #000000; stroke-width: 0.8"/>
      </defs>
      <g>
       <use xlink:href="#m694adc1709" x="68.50147" y="252" style="stroke: #000000; stroke-width: 0.8"/>
      </g>
     </g>
     <g id="text_1">
      <!-- 0 -->
      <g transform="translate(65.32022 266.598437)scale(0.1 -0.1)">
       <defs>
        <path id="DejaVuSans-30" d="M 2034 4250 
Q 1547 4250 1301 3770 
Q 1056 3291 1056 2328 
Q 1056 1369 1301 889 
Q 1547 409 2034 409 
Q 2525 409 2770 889 
Q 3016 1369 3016 2328 
Q 3016 3291 2770 3770 
Q 2525 4250 2034 4250 
z
M 2034 4750 
Q 2819 4750 3233 4129 
Q 3647 3509 3647 2328 
Q 3647 1150 3233 529 
Q 2819 -91 2034 -91 
Q 1250 -91 836 529 
Q 422 1150 422 2328 
Q 422 3509 836 4129 
Q 1250 4750 2034 4750 
z
" transform="scale(0.015625)"/>
       </defs>
       <use xlink:href="#DejaVuSans-30"/>
      </g>
     </g>
    </g>
    <g id="xtick_2">
     <g id="line2d_2">
      <g>
       <use xlink:href="#m694adc1709" x="128.227458" y="252" style="stroke: #000000; stroke-width: 0.8"/>
      </g>
     </g>
     <g id="text_2">
      <!-- 50 -->
      <g transform="translate(121.864958 266.598437)scale(0.1 -0.1)">
       <defs>
        <path id="DejaVuSans-35" d="M 691 4666 
L 3169 4666 
L 3169 4134 
L 1269 4134 
L 1269 2991 
Q 1406 3038 1543 3061 
Q 1681 3084 1819 3084 
Q 2600 3084 3056 2656 
Q 3513 2228 3513 1497 
Q 3513 744 3044 326 
Q 2575 -91 1722 -91 
Q 1428 -91 1123 -41 
Q 819 9 494 109 
L 494 744 
Q 775 591 1075 516 
Q 1375 441 1709 441 
Q 2250 441 2565 725 
Q 2881 1009 2881 1497 
Q 2881 1984 2565 2268 
Q 2250 2553 1709 2553 
Q 1456 2553 1204 2497 
Q 953 2441 691 2322 
L 691 4666 
z
" transform="scale(0.015625)"/>
       </defs>
       <use xlink:href="#DejaVuSans-35"/>
       <use xlink:href="#DejaVuSans-30" x="63.623047"/>
      </g>
     </g>
    </g>
    <g id="xtick_3">
     <g id="line2d_3">
      <g>
       <use xlink:href="#m694adc1709" x="187.953447" y="252" style="stroke: #000000; stroke-width: 0.8"/>
      </g>
     </g>
     <g id="text_3">
      <!-- 100 -->
      <g transform="translate(178.409697 266.598437)scale(0.1 -0.1)">
       <defs>
        <path id="DejaVuSans-31" d="M 794 531 
L 1825 531 
L 1825 4091 
L 703 3866 
L 703 4441 
L 1819 4666 
L 2450 4666 
L 2450 531 
L 3481 531 
L 3481 0 
L 794 0 
L 794 531 
z
" transform="scale(0.015625)"/>
       </defs>
       <use xlink:href="#DejaVuSans-31"/>
       <use xlink:href="#DejaVuSans-30" x="63.623047"/>
       <use xlink:href="#DejaVuSans-30" x="127.246094"/>
      </g>
     </g>
    </g>
    <g id="xtick_4">
     <g id="line2d_4">
      <g>
       <use xlink:href="#m694adc1709" x="247.679435" y="252" style="stroke: #000000; stroke-width: 0.8"/>
      </g>
     </g>
     <g id="text_4">
      <!-- 150 -->
      <g transform="translate(238.135685 266.598437)scale(0.1 -0.1)">
       <use xlink:href="#DejaVuSans-31"/>
       <use xlink:href="#DejaVuSans-35" x="63.623047"/>
       <use xlink:href="#DejaVuSans-30" x="127.246094"/>
      </g>
     </g>
    </g>
    <g id="xtick_5">
     <g id="line2d_5">
      <g>
       <use xlink:href="#m694adc1709" x="307.405423" y="252" style="stroke: #000000; stroke-width: 0.8"/>
      </g>
     </g>
     <g id="text_5">
      <!-- 200 -->
      <g transform="translate(297.861673 266.598437)scale(0.1 -0.1)">
       <defs>
        <path id="DejaVuSans-32" d="M 1228 531 
L 3431 531 
L 3431 0 
L 469 0 
L 469 531 
Q 828 903 1448 1529 
Q 2069 2156 2228 2338 
Q 2531 2678 2651 2914 
Q 2772 3150 2772 3378 
Q 2772 3750 2511 3984 
Q 2250 4219 1831 4219 
Q 1534 4219 1204 4116 
Q 875 4013 500 3803 
L 500 4441 
Q 881 4594 1212 4672 
Q 1544 4750 1819 4750 
Q 2544 4750 2975 4387 
Q 3406 4025 3406 3419 
Q 3406 3131 3298 2873 
Q 3191 2616 2906 2266 
Q 2828 2175 2409 1742 
Q 1991 1309 1228 531 
z
" transform="scale(0.015625)"/>
       </defs>
       <use xlink:href="#DejaVuSans-32"/>
       <use xlink:href="#DejaVuSans-30" x="63.623047"/>
       <use xlink:href="#DejaVuSans-30" x="127.246094"/>
      </g>
     </g>
    </g>
    <g id="xtick_6">
     <g id="line2d_6">
      <g>
       <use xlink:href="#m694adc1709" x="367.131411" y="252" style="stroke: #000000; stroke-width: 0.8"/>
      </g>
     </g>
     <g id="text_6">
      <!-- 250 -->
      <g transform="translate(357.587661 266.598437)scale(0.1 -0.1)">
       <use xlink:href="#DejaVuSans-32"/>
       <use xlink:href="#DejaVuSans-35" x="63.623047"/>
       <use xlink:href="#DejaVuSans-30" x="127.246094"/>
      </g>
     </g>
    </g>
    <g id="text_7">
     <!-- Size -->
     <g transform="translate(211.135938 280.276563)scale(0.1 -0.1)">
      <defs>
       <path id="DejaVuSans-53" d="M 3425 4513 
L 3425 3897 
Q 3066 4069 2747 4153 
Q 2428 4238 2131 4238 
Q 1616 4238 1336 4038 
Q 1056 3838 1056 3469 
Q 1056 3159 1242 3001 
Q 1428 2844 1947 2747 
L 2328 2669 
Q 3034 2534 3370 2195 
Q 3706 1856 3706 1288 
Q 3706 609 3251 259 
Q 2797 -91 1919 -91 
Q 1588 -91 1214 -16 
Q 841 59 441 206 
L 441 856 
Q 825 641 1194 531 
Q 1563 422 1919 422 
Q 2459 422 2753 634 
Q 3047 847 3047 1241 
Q 3047 1584 2836 1778 
Q 2625 1972 2144 2069 
L 1759 2144 
Q 1053 2284 737 2584 
Q 422 2884 422 3419 
Q 422 4038 858 4394 
Q 1294 4750 2059 4750 
Q 2388 4750 2728 4690 
Q 3069 4631 3425 4513 
z
" transform="scale(0.015625)"/>
       <path id="DejaVuSans-69" d="M 603 3500 
L 1178 3500 
L 1178 0 
L 603 0 
L 603 3500 
z
M 603 4863 
L 1178 4863 
L 1178 4134 
L 603 4134 
L 603 4863 
z
" transform="scale(0.015625)"/>
       <path id="DejaVuSans-7a" d="M 353 3500 
L 3084 3500 
L 3084 2975 
L 922 459 
L 3084 459 
L 3084 0 
L 275 0 
L 275 525 
L 2438 3041 
L 353 3041 
L 353 3500 
z
" transform="scale(0.015625)"/>
       <path id="DejaVuSans-65" d="M 3597 1894 
L 3597 1613 
L 953 1613 
Q 991 1019 1311 708 
Q 1631 397 2203 397 
Q 2534 397 2845 478 
Q 3156 559 3463 722 
L 3463 178 
Q 3153 47 2828 -22 
Q 2503 -91 2169 -91 
Q 1331 -91 842 396 
Q 353 884 353 1716 
Q 353 2575 817 3079 
Q 1281 3584 2069 3584 
Q 2775 3584 3186 3129 
Q 3597 2675 3597 1894 
z
M 3022 2063 
Q 3016 2534 2758 2815 
Q 2500 3097 2075 3097 
Q 1594 3097 1305 2825 
Q 1016 2553 972 2059 
L 3022 2063 
z
" transform="scale(0.015625)"/>
      </defs>
      <use xlink:href="#DejaVuSans-53"/>
      <use xlink:href="#DejaVuSans-69" x="63.476562"/>
      <use xlink:href="#DejaVuSans-7a" x="91.259766"/>
      <use xlink:href="#DejaVuSans-65" x="143.75"/>
     </g>
    </g>
   </g>
   <g id="matplotlib.axis_2">
    <g id="ytick_1">
     <g id="line2d_7">
      <defs>
       <path id="mfbeae15bcc" d="M 0 0 
L -3.5 0 
" style="stroke: #000000; stroke-width: 0.8"/>
      </defs>
      <g>
       <use xlink:href="#mfbeae15bcc" x="54" y="252" style="stroke: #000000; stroke-width: 0.8"/>
      </g>
     </g>
     <g id="text_8">
      <!-- 0 -->
      <g transform="translate(40.6375 255.799219)scale(0.1 -0.1)">
       <use xlink:href="#DejaVuSans-30"/>
      </g>
     </g>
    </g>
    <g id="ytick_2">
     <g id="line2d_8">
      <g>
       <use xlink:href="#mfbeae15bcc" x="54" y="218.051522" style="stroke: #000000; stroke-width: 0.8"/>
      </g>
     </g>
     <g id="text_9">
      <!-- 10 -->
      <g transform="translate(34.275 221.850741)scale(0.1 -0.1)">
       <use xlink:href="#DejaVuSans-31"/>
       <use xlink:href="#DejaVuSans-30" x="63.623047"/>
      </g>
     </g>
    </g>
    <g id="ytick_3">
     <g id="line2d_9">
      <g>
       <use xlink:href="#mfbeae15bcc" x="54" y="184.103044" style="stroke: #000000; stroke-width: 0.8"/>
      </g>
     </g>
     <g id="text_10">
      <!-- 20 -->
      <g transform="translate(34.275 187.902263)scale(0.1 -0.1)">
       <use xlink:href="#DejaVuSans-32"/>
       <use xlink:href="#DejaVuSans-30" x="63.623047"/>
      </g>
     </g>
    </g>
    <g id="ytick_4">
     <g id="line2d_10">
      <g>
       <use xlink:href="#mfbeae15bcc" x="54" y="150.154567" style="stroke: #000000; stroke-width: 0.8"/>
      </g>
     </g>
     <g id="text_11">
      <!-- 30 -->
      <g transform="translate(34.275 153.953785)scale(0.1 -0.1)">
       <defs>
        <path id="DejaVuSans-33" d="M 2597 2516 
Q 3050 2419 3304 2112 
Q 3559 1806 3559 1356 
Q 3559 666 3084 287 
Q 2609 -91 1734 -91 
Q 1441 -91 1130 -33 
Q 819 25 488 141 
L 488 750 
Q 750 597 1062 519 
Q 1375 441 1716 441 
Q 2309 441 2620 675 
Q 2931 909 2931 1356 
Q 2931 1769 2642 2001 
Q 2353 2234 1838 2234 
L 1294 2234 
L 1294 2753 
L 1863 2753 
Q 2328 2753 2575 2939 
Q 2822 3125 2822 3475 
Q 2822 3834 2567 4026 
Q 2313 4219 1838 4219 
Q 1578 4219 1281 4162 
Q 984 4106 628 3988 
L 628 4550 
Q 988 4650 1302 4700 
Q 1616 4750 1894 4750 
Q 2613 4750 3031 4423 
Q 3450 4097 3450 3541 
Q 3450 3153 3228 2886 
Q 3006 2619 2597 2516 
z
" transform="scale(0.015625)"/>
       </defs>
       <use xlink:href="#DejaVuSans-33"/>
       <use xlink:href="#DejaVuSans-30" x="63.623047"/>
      </g>
     </g>
    </g>
    <g id="ytick_5">
     <g id="line2d_11">
      <g>
       <use xlink:href="#mfbeae15bcc" x="54" y="116.206089" style="stroke: #000000; stroke-width: 0.8"/>
      </g>
     </g>
     <g id="text_12">
      <!-- 40 -->
      <g transform="translate(34.275 120.005308)scale(0.1 -0.1)">
       <defs>
        <path id="DejaVuSans-34" d="M 2419 4116 
L 825 1625 
L 2419 1625 
L 2419 4116 
z
M 2253 4666 
L 3047 4666 
L 3047 1625 
L 3713 1625 
L 3713 1100 
L 3047 1100 
L 3047 0 
L 2419 0 
L 2419 1100 
L 313 1100 
L 313 1709 
L 2253 4666 
z
" transform="scale(0.015625)"/>
       </defs>
       <use xlink:href="#DejaVuSans-34"/>
       <use xlink:href="#DejaVuSans-30" x="63.623047"/>
      </g>
     </g>
    </g>
    <g id="ytick_6">
     <g id="line2d_12">
      <g>
       <use xlink:href="#mfbeae15bcc" x="54" y="82.257611" style="stroke: #000000; stroke-width: 0.8"/>
      </g>
     </g>
     <g id="text_13">
      <!-- 50 -->
      <g transform="translate(34.275 86.05683)scale(0.1 -0.1)">
       <use xlink:href="#DejaVuSans-35"/>
       <use xlink:href="#DejaVuSans-30" x="63.623047"/>
      </g>
     </g>
    </g>
    <g id="ytick_7">
     <g id="line2d_13">
      <g>
       <use xlink:href="#mfbeae15bcc" x="54" y="48.309133" style="stroke: #000000; stroke-width: 0.8"/>
      </g>
     </g>
     <g id="text_14">
      <!-- 60 -->
      <g transform="translate(34.275 52.108352)scale(0.1 -0.1)">
       <defs>
        <path id="DejaVuSans-36" d="M 2113 2584 
Q 1688 2584 1439 2293 
Q 1191 2003 1191 1497 
Q 1191 994 1439 701 
Q 1688 409 2113 409 
Q 2538 409 2786 701 
Q 3034 994 3034 1497 
Q 3034 2003 2786 2293 
Q 2538 2584 2113 2584 
z
M 3366 4563 
L 3366 3988 
Q 3128 4100 2886 4159 
Q 2644 4219 2406 4219 
Q 1781 4219 1451 3797 
Q 1122 3375 1075 2522 
Q 1259 2794 1537 2939 
Q 1816 3084 2150 3084 
Q 2853 3084 3261 2657 
Q 3669 2231 3669 1497 
Q 3669 778 3244 343 
Q 2819 -91 2113 -91 
Q 1303 -91 875 529 
Q 447 1150 447 2328 
Q 447 3434 972 4092 
Q 1497 4750 2381 4750 
Q 2619 4750 2861 4703 
Q 3103 4656 3366 4563 
z
" transform="scale(0.015625)"/>
       </defs>
       <use xlink:href="#DejaVuSans-36"/>
       <use xlink:href="#DejaVuSans-30" x="63.623047"/>
      </g>
     </g>
    </g>
    <g id="text_15">
     <!-- Size counts -->
     <g transform="translate(28.195312 171.844063)rotate(-90)scale(0.1 -0.1)">
      <defs>
       <path id="DejaVuSans-20" transform="scale(0.015625)"/>
       <path id="DejaVuSans-63" d="M 3122 3366 
L 3122 2828 
Q 2878 2963 2633 3030 
Q 2388 3097 2138 3097 
Q 1578 3097 1268 2742 
Q 959 2388 959 1747 
Q 959 1106 1268 751 
Q 1578 397 2138 397 
Q 2388 397 2633 464 
Q 2878 531 3122 666 
L 3122 134 
Q 2881 22 2623 -34 
Q 2366 -91 2075 -91 
Q 1284 -91 818 406 
Q 353 903 353 1747 
Q 353 2603 823 3093 
Q 1294 3584 2113 3584 
Q 2378 3584 2631 3529 
Q 2884 3475 3122 3366 
z
" transform="scale(0.015625)"/>
       <path id="DejaVuSans-6f" d="M 1959 3097 
Q 1497 3097 1228 2736 
Q 959 2375 959 1747 
Q 959 1119 1226 758 
Q 1494 397 1959 397 
Q 2419 397 2687 759 
Q 2956 1122 2956 1747 
Q 2956 2369 2687 2733 
Q 2419 3097 1959 3097 
z
M 1959 3584 
Q 2709 3584 3137 3096 
Q 3566 2609 3566 1747 
Q 3566 888 3137 398 
Q 2709 -91 1959 -91 
Q 1206 -91 779 398 
Q 353 888 353 1747 
Q 353 2609 779 3096 
Q 1206 3584 1959 3584 
z
" transform="scale(0.015625)"/>
       <path id="DejaVuSans-75" d="M 544 1381 
L 544 3500 
L 1119 3500 
L 1119 1403 
Q 1119 906 1312 657 
Q 1506 409 1894 409 
Q 2359 409 2629 706 
Q 2900 1003 2900 1516 
L 2900 3500 
L 3475 3500 
L 3475 0 
L 2900 0 
L 2900 538 
Q 2691 219 2414 64 
Q 2138 -91 1772 -91 
Q 1169 -91 856 284 
Q 544 659 544 1381 
z
M 1991 3584 
L 1991 3584 
z
" transform="scale(0.015625)"/>
       <path id="DejaVuSans-6e" d="M 3513 2113 
L 3513 0 
L 2938 0 
L 2938 2094 
Q 2938 2591 2744 2837 
Q 2550 3084 2163 3084 
Q 1697 3084 1428 2787 
Q 1159 2491 1159 1978 
L 1159 0 
L 581 0 
L 581 3500 
L 1159 3500 
L 1159 2956 
Q 1366 3272 1645 3428 
Q 1925 3584 2291 3584 
Q 2894 3584 3203 3211 
Q 3513 2838 3513 2113 
z
" transform="scale(0.015625)"/>
       <path id="DejaVuSans-74" d="M 1172 4494 
L 1172 3500 
L 2356 3500 
L 2356 3053 
L 1172 3053 
L 1172 1153 
Q 1172 725 1289 603 
Q 1406 481 1766 481 
L 2356 481 
L 2356 0 
L 1766 0 
Q 1100 0 847 248 
Q 594 497 594 1153 
L 594 3053 
L 172 3053 
L 172 3500 
L 594 3500 
L 594 4494 
L 1172 4494 
z
" transform="scale(0.015625)"/>
       <path id="DejaVuSans-73" d="M 2834 3397 
L 2834 2853 
Q 2591 2978 2328 3040 
Q 2066 3103 1784 3103 
Q 1356 3103 1142 2972 
Q 928 2841 928 2578 
Q 928 2378 1081 2264 
Q 1234 2150 1697 2047 
L 1894 2003 
Q 2506 1872 2764 1633 
Q 3022 1394 3022 966 
Q 3022 478 2636 193 
Q 2250 -91 1575 -91 
Q 1294 -91 989 -36 
Q 684 19 347 128 
L 347 722 
Q 666 556 975 473 
Q 1284 391 1588 391 
Q 1994 391 2212 530 
Q 2431 669 2431 922 
Q 2431 1156 2273 1281 
Q 2116 1406 1581 1522 
L 1381 1569 
Q 847 1681 609 1914 
Q 372 2147 372 2553 
Q 372 3047 722 3315 
Q 1072 3584 1716 3584 
Q 2034 3584 2315 3537 
Q 2597 3491 2834 3397 
z
" transform="scale(0.015625)"/>
      </defs>
      <use xlink:href="#DejaVuSans-53"/>
      <use xlink:href="#DejaVuSans-69" x="63.476562"/>
      <use xlink:href="#DejaVuSans-7a" x="91.259766"/>
      <use xlink:href="#DejaVuSans-65" x="143.75"/>
      <use xlink:href="#DejaVuSans-20" x="205.273438"/>
      <use xlink:href="#DejaVuSans-63" x="237.060547"/>
      <use xlink:href="#DejaVuSans-6f" x="292.041016"/>
      <use xlink:href="#DejaVuSans-75" x="353.222656"/>
      <use xlink:href="#DejaVuSans-6e" x="416.601562"/>
      <use xlink:href="#DejaVuSans-74" x="479.980469"/>
      <use xlink:href="#DejaVuSans-73" x="519.189453"/>
     </g>
    </g>
   </g>
   <g id="patch_258">
    <path d="M 54 252 
L 54 34.56 
" style="fill: none; stroke: #000000; stroke-width: 0.8; stroke-linejoin: miter; stroke-linecap: square"/>
   </g>
   <g id="patch_259">
    <path d="M 388.8 252 
L 388.8 34.56 
" style="fill: none; stroke: #000000; stroke-width: 0.8; stroke-linejoin: miter; stroke-linecap: square"/>
   </g>
   <g id="patch_260">
    <path d="M 54 252 
L 388.8 252 
" style="fill: none; stroke: #000000; stroke-width: 0.8; stroke-linejoin: miter; stroke-linecap: square"/>
   </g>
   <g id="patch_261">
    <path d="M 54 34.56 
L 388.8 34.56 
" style="fill: none; stroke: #000000; stroke-width: 0.8; stroke-linejoin: miter; stroke-linecap: square"/>
   </g>
   <g id="text_16">
    <!-- Number of instances of each size (nicolau_a) -->
    <g transform="translate(86.697188 28.56)scale(0.12 -0.12)">
     <defs>
      <path id="DejaVuSans-4e" d="M 628 4666 
L 1478 4666 
L 3547 763 
L 3547 4666 
L 4159 4666 
L 4159 0 
L 3309 0 
L 1241 3903 
L 1241 0 
L 628 0 
L 628 4666 
z
" transform="scale(0.015625)"/>
      <path id="DejaVuSans-6d" d="M 3328 2828 
Q 3544 3216 3844 3400 
Q 4144 3584 4550 3584 
Q 5097 3584 5394 3201 
Q 5691 2819 5691 2113 
L 5691 0 
L 5113 0 
L 5113 2094 
Q 5113 2597 4934 2840 
Q 4756 3084 4391 3084 
Q 3944 3084 3684 2787 
Q 3425 2491 3425 1978 
L 3425 0 
L 2847 0 
L 2847 2094 
Q 2847 2600 2669 2842 
Q 2491 3084 2119 3084 
Q 1678 3084 1418 2786 
Q 1159 2488 1159 1978 
L 1159 0 
L 581 0 
L 581 3500 
L 1159 3500 
L 1159 2956 
Q 1356 3278 1631 3431 
Q 1906 3584 2284 3584 
Q 2666 3584 2933 3390 
Q 3200 3197 3328 2828 
z
" transform="scale(0.015625)"/>
      <path id="DejaVuSans-62" d="M 3116 1747 
Q 3116 2381 2855 2742 
Q 2594 3103 2138 3103 
Q 1681 3103 1420 2742 
Q 1159 2381 1159 1747 
Q 1159 1113 1420 752 
Q 1681 391 2138 391 
Q 2594 391 2855 752 
Q 3116 1113 3116 1747 
z
M 1159 2969 
Q 1341 3281 1617 3432 
Q 1894 3584 2278 3584 
Q 2916 3584 3314 3078 
Q 3713 2572 3713 1747 
Q 3713 922 3314 415 
Q 2916 -91 2278 -91 
Q 1894 -91 1617 61 
Q 1341 213 1159 525 
L 1159 0 
L 581 0 
L 581 4863 
L 1159 4863 
L 1159 2969 
z
" transform="scale(0.015625)"/>
      <path id="DejaVuSans-72" d="M 2631 2963 
Q 2534 3019 2420 3045 
Q 2306 3072 2169 3072 
Q 1681 3072 1420 2755 
Q 1159 2438 1159 1844 
L 1159 0 
L 581 0 
L 581 3500 
L 1159 3500 
L 1159 2956 
Q 1341 3275 1631 3429 
Q 1922 3584 2338 3584 
Q 2397 3584 2469 3576 
Q 2541 3569 2628 3553 
L 2631 2963 
z
" transform="scale(0.015625)"/>
      <path id="DejaVuSans-66" d="M 2375 4863 
L 2375 4384 
L 1825 4384 
Q 1516 4384 1395 4259 
Q 1275 4134 1275 3809 
L 1275 3500 
L 2222 3500 
L 2222 3053 
L 1275 3053 
L 1275 0 
L 697 0 
L 697 3053 
L 147 3053 
L 147 3500 
L 697 3500 
L 697 3744 
Q 697 4328 969 4595 
Q 1241 4863 1831 4863 
L 2375 4863 
z
" transform="scale(0.015625)"/>
      <path id="DejaVuSans-61" d="M 2194 1759 
Q 1497 1759 1228 1600 
Q 959 1441 959 1056 
Q 959 750 1161 570 
Q 1363 391 1709 391 
Q 2188 391 2477 730 
Q 2766 1069 2766 1631 
L 2766 1759 
L 2194 1759 
z
M 3341 1997 
L 3341 0 
L 2766 0 
L 2766 531 
Q 2569 213 2275 61 
Q 1981 -91 1556 -91 
Q 1019 -91 701 211 
Q 384 513 384 1019 
Q 384 1609 779 1909 
Q 1175 2209 1959 2209 
L 2766 2209 
L 2766 2266 
Q 2766 2663 2505 2880 
Q 2244 3097 1772 3097 
Q 1472 3097 1187 3025 
Q 903 2953 641 2809 
L 641 3341 
Q 956 3463 1253 3523 
Q 1550 3584 1831 3584 
Q 2591 3584 2966 3190 
Q 3341 2797 3341 1997 
z
" transform="scale(0.015625)"/>
      <path id="DejaVuSans-68" d="M 3513 2113 
L 3513 0 
L 2938 0 
L 2938 2094 
Q 2938 2591 2744 2837 
Q 2550 3084 2163 3084 
Q 1697 3084 1428 2787 
Q 1159 2491 1159 1978 
L 1159 0 
L 581 0 
L 581 4863 
L 1159 4863 
L 1159 2956 
Q 1366 3272 1645 3428 
Q 1925 3584 2291 3584 
Q 2894 3584 3203 3211 
Q 3513 2838 3513 2113 
z
" transform="scale(0.015625)"/>
      <path id="DejaVuSans-28" d="M 1984 4856 
Q 1566 4138 1362 3434 
Q 1159 2731 1159 2009 
Q 1159 1288 1364 580 
Q 1569 -128 1984 -844 
L 1484 -844 
Q 1016 -109 783 600 
Q 550 1309 550 2009 
Q 550 2706 781 3412 
Q 1013 4119 1484 4856 
L 1984 4856 
z
" transform="scale(0.015625)"/>
      <path id="DejaVuSans-6c" d="M 603 4863 
L 1178 4863 
L 1178 0 
L 603 0 
L 603 4863 
z
" transform="scale(0.015625)"/>
      <path id="DejaVuSans-5f" d="M 3263 -1063 
L 3263 -1509 
L -63 -1509 
L -63 -1063 
L 3263 -1063 
z
" transform="scale(0.015625)"/>
      <path id="DejaVuSans-29" d="M 513 4856 
L 1013 4856 
Q 1481 4119 1714 3412 
Q 1947 2706 1947 2009 
Q 1947 1309 1714 600 
Q 1481 -109 1013 -844 
L 513 -844 
Q 928 -128 1133 580 
Q 1338 1288 1338 2009 
Q 1338 2731 1133 3434 
Q 928 4138 513 4856 
z
" transform="scale(0.015625)"/>
     </defs>
     <use xlink:href="#DejaVuSans-4e"/>
     <use xlink:href="#DejaVuSans-75" x="74.804688"/>
     <use xlink:href="#DejaVuSans-6d" x="138.183594"/>
     <use xlink:href="#DejaVuSans-62" x="235.595703"/>
     <use xlink:href="#DejaVuSans-65" x="299.072266"/>
     <use xlink:href="#DejaVuSans-72" x="360.595703"/>
     <use xlink:href="#DejaVuSans-20" x="401.708984"/>
     <use xlink:href="#DejaVuSans-6f" x="433.496094"/>
     <use xlink:href="#DejaVuSans-66" x="494.677734"/>
     <use xlink:href="#DejaVuSans-20" x="529.882812"/>
     <use xlink:href="#DejaVuSans-69" x="561.669922"/>
     <use xlink:href="#DejaVuSans-6e" x="589.453125"/>
     <use xlink:href="#DejaVuSans-73" x="652.832031"/>
     <use xlink:href="#DejaVuSans-74" x="704.931641"/>
     <use xlink:href="#DejaVuSans-61" x="744.140625"/>
     <use xlink:href="#DejaVuSans-6e" x="805.419922"/>
     <use xlink:href="#DejaVuSans-63" x="868.798828"/>
     <use xlink:href="#DejaVuSans-65" x="923.779297"/>
     <use xlink:href="#DejaVuSans-73" x="985.302734"/>
     <use xlink:href="#DejaVuSans-20" x="1037.402344"/>
     <use xlink:href="#DejaVuSans-6f" x="1069.189453"/>
     <use xlink:href="#DejaVuSans-66" x="1130.371094"/>
     <use xlink:href="#DejaVuSans-20" x="1165.576172"/>
     <use xlink:href="#DejaVuSans-65" x="1197.363281"/>
     <use xlink:href="#DejaVuSans-61" x="1258.886719"/>
     <use xlink:href="#DejaVuSans-63" x="1320.166016"/>
     <use xlink:href="#DejaVuSans-68" x="1375.146484"/>
     <use xlink:href="#DejaVuSans-20" x="1438.525391"/>
     <use xlink:href="#DejaVuSans-73" x="1470.3125"/>
     <use xlink:href="#DejaVuSans-69" x="1522.412109"/>
     <use xlink:href="#DejaVuSans-7a" x="1550.195312"/>
     <use xlink:href="#DejaVuSans-65" x="1602.685547"/>
     <use xlink:href="#DejaVuSans-20" x="1664.208984"/>
     <use xlink:href="#DejaVuSans-28" x="1695.996094"/>
     <use xlink:href="#DejaVuSans-6e" x="1735.009766"/>
     <use xlink:href="#DejaVuSans-69" x="1798.388672"/>
     <use xlink:href="#DejaVuSans-63" x="1826.171875"/>
     <use xlink:href="#DejaVuSans-6f" x="1881.152344"/>
     <use xlink:href="#DejaVuSans-6c" x="1942.333984"/>
     <use xlink:href="#DejaVuSans-61" x="1970.117188"/>
     <use xlink:href="#DejaVuSans-75" x="2031.396484"/>
     <use xlink:href="#DejaVuSans-5f" x="2094.775391"/>
     <use xlink:href="#DejaVuSans-61" x="2144.775391"/>
     <use xlink:href="#DejaVuSans-29" x="2206.054688"/>
    </g>
   </g>
  </g>
 </g>
 <defs>
  <clipPath id="pa6dcb43d96">
   <rect x="54" y="34.56" width="334.8" height="217.44"/>
  </clipPath>
 </defs>
</svg>
