<?xml version="1.0" encoding="utf-8" standalone="no"?>
<!DOCTYPE svg PUBLIC "-//W3C//DTD SVG 1.1//EN"
  "http://www.w3.org/Graphics/SVG/1.1/DTD/svg11.dtd">
<svg xmlns:xlink="http://www.w3.org/1999/xlink" width="432pt" height="288pt" viewBox="0 0 432 288" xmlns="http://www.w3.org/2000/svg" version="1.1">
 <metadata>
  <rdf:RDF xmlns:dc="http://purl.org/dc/elements/1.1/" xmlns:cc="http://creativecommons.org/ns#" xmlns:rdf="http://www.w3.org/1999/02/22-rdf-syntax-ns#">
   <cc:Work>
    <dc:type rdf:resource="http://purl.org/dc/dcmitype/StillImage"/>
    <dc:date>2022-01-12T03:40:11.530571</dc:date>
    <dc:format>image/svg+xml</dc:format>
    <dc:creator>
     <cc:Agent>
      <dc:title>Matplotlib v3.5.1, https://matplotlib.org/</dc:title>
     </cc:Agent>
    </dc:creator>
   </cc:Work>
  </rdf:RDF>
 </metadata>
 <defs>
  <style type="text/css">*{stroke-linejoin: round; stroke-linecap: butt}</style>
 </defs>
 <g id="figure_1">
  <g id="patch_1">
   <path d="M 0 288 
L 432 288 
L 432 0 
L 0 0 
L 0 288 
z
" style="fill: none"/>
  </g>
  <g id="axes_1">
   <g id="patch_2">
    <path d="M 54 252 
L 388.8 252 
L 388.8 34.56 
L 54 34.56 
z
" style="fill: #ffffff"/>
   </g>
   <g id="PolyCollection_1">
    <path d="M 69.218182 240.881914 
L 69.218182 242.116364 
L 74.127273 227.232112 
L 79.036364 221.394283 
L 83.945455 213.935727 
L 88.854545 209.325945 
L 93.763636 205.605619 
L 98.672727 202.617886 
L 103.581818 200.109096 
L 108.490909 198.554633 
L 113.4 198.531009 
L 118.309091 198.274576 
L 123.218182 203.792445 
L 128.127273 195.15706 
L 133.036364 196.530553 
L 137.945455 196.186873 
L 142.854545 197.790647 
L 147.763636 192.53948 
L 152.672727 195.301821 
L 157.581818 192.236082 
L 162.490909 190.700578 
L 167.4 194.865549 
L 172.309091 186.2211 
L 177.218182 190.78406 
L 182.127273 185.589728 
L 187.036364 184.248272 
L 191.945455 186.21877 
L 196.854545 184.76981 
L 201.763636 183.640676 
L 206.672727 182.747579 
L 211.581818 181.960804 
L 216.490909 181.504173 
L 221.4 181.886097 
L 226.309091 183.597512 
L 231.218182 181.952419 
L 236.127273 181.238243 
L 241.036364 180.512533 
L 245.945455 182.124806 
L 250.854545 180.66154 
L 255.763636 176.757723 
L 260.672727 181.409105 
L 265.581818 178.747145 
L 270.490909 178.203338 
L 275.4 179.717759 
L 280.309091 179.159634 
L 285.218182 177.262694 
L 290.127273 178.128661 
L 295.036364 177.473924 
L 299.945455 176.525329 
L 304.854545 179.852484 
L 309.763636 178.451652 
L 314.672727 175.120831 
L 319.581818 179.04356 
L 324.490909 181.517608 
L 329.4 178.687484 
L 334.309091 175.639006 
L 339.218182 177.240406 
L 344.127273 175.735466 
L 349.036364 176.541788 
L 353.945455 173.905805 
L 358.854545 176.078076 
L 363.763636 174.378503 
L 368.672727 175.77578 
L 373.581818 176.688648 
L 373.581818 176.081925 
L 373.581818 176.081925 
L 368.672727 175.065581 
L 363.763636 173.237862 
L 358.854545 175.670226 
L 353.945455 173.463741 
L 349.036364 175.489483 
L 344.127273 175.009314 
L 339.218182 176.114788 
L 334.309091 174.108942 
L 329.4 178.108831 
L 324.490909 178.270179 
L 319.581818 176.717051 
L 314.672727 174.657032 
L 309.763636 178.228011 
L 304.854545 176.181921 
L 299.945455 176.300013 
L 295.036364 176.855935 
L 290.127273 177.880448 
L 285.218182 176.77812 
L 280.309091 178.615324 
L 275.4 179.002933 
L 270.490909 177.823521 
L 265.581818 178.179813 
L 260.672727 181.273201 
L 255.763636 176.158084 
L 250.854545 179.905178 
L 245.945455 181.880849 
L 241.036364 180.148573 
L 236.127273 180.719437 
L 231.218182 181.611204 
L 226.309091 183.072964 
L 221.4 181.338211 
L 216.490909 181.160396 
L 211.581818 181.128058 
L 206.672727 182.20544 
L 201.763636 182.765054 
L 196.854545 184.236008 
L 191.945455 177.81903 
L 187.036364 182.951868 
L 182.127273 184.451808 
L 177.218182 186.703148 
L 172.309091 181.832422 
L 167.4 188.898122 
L 162.490909 186.022916 
L 157.581818 186.911412 
L 152.672727 188.444817 
L 147.763636 187.449321 
L 142.854545 191.993725 
L 137.945455 195.7791 
L 133.036364 191.943515 
L 128.127273 194.539496 
L 123.218182 197.78652 
L 118.309091 196.876479 
L 113.4 198.079345 
L 108.490909 197.649878 
L 103.581818 199.557186 
L 98.672727 201.608825 
L 93.763636 204.911319 
L 88.854545 208.502629 
L 83.945455 213.167169 
L 79.036364 220.58484 
L 74.127273 226.701264 
L 69.218182 240.881914 
z
" clip-path="url(#p7c8dfc1151)" style="fill: #1f77b4"/>
   </g>
   <g id="PolyCollection_2">
    <path d="M 69.218182 193.622991 
L 69.218182 194.199591 
L 74.127273 183.932242 
L 79.036364 177.065361 
L 83.945455 169.481177 
L 88.854545 164.915708 
L 93.763636 161.462999 
L 98.672727 159.768013 
L 103.581818 156.66449 
L 108.490909 157.381808 
L 113.4 151.135003 
L 118.309091 155.861792 
L 123.218182 150.115564 
L 128.127273 152.294255 
L 133.036364 156.411973 
L 137.945455 149.90986 
L 142.854545 147.882347 
L 147.763636 154.112108 
L 152.672727 146.365845 
L 157.581818 151.12166 
L 162.490909 148.566283 
L 167.4 143.521312 
L 172.309091 147.457789 
L 177.218182 146.505271 
L 182.127273 145.496269 
L 187.036364 143.020491 
L 191.945455 140.026932 
L 196.854545 146.316115 
L 201.763636 144.735126 
L 206.672727 138.87505 
L 211.581818 142.381183 
L 216.490909 142.869755 
L 221.4 142.893369 
L 226.309091 144.206133 
L 231.218182 142.574473 
L 236.127273 143.672845 
L 241.036364 142.46968 
L 245.945455 142.78967 
L 250.854545 148.109285 
L 255.763636 137.836452 
L 260.672727 143.100278 
L 265.581818 142.390607 
L 270.490909 140.756429 
L 275.4 141.482424 
L 280.309091 143.726899 
L 285.218182 142.137392 
L 290.127273 142.632117 
L 295.036364 139.145795 
L 299.945455 136.478378 
L 304.854545 142.607814 
L 309.763636 141.177606 
L 314.672727 134.334152 
L 319.581818 136.447618 
L 324.490909 143.078135 
L 329.4 140.700734 
L 334.309091 136.01971 
L 339.218182 142.136159 
L 344.127273 138.643462 
L 349.036364 142.917392 
L 353.945455 136.94166 
L 358.854545 138.739591 
L 363.763636 139.103797 
L 368.672727 137.100966 
L 373.581818 138.383291 
L 373.581818 137.79257 
L 373.581818 137.79257 
L 368.672727 136.336988 
L 363.763636 138.323538 
L 358.854545 138.568171 
L 353.945455 136.250351 
L 349.036364 142.382661 
L 344.127273 138.416176 
L 339.218182 141.653995 
L 334.309091 135.516781 
L 329.4 140.363438 
L 324.490909 142.865279 
L 319.581818 136.08083 
L 314.672727 133.878183 
L 309.763636 140.835598 
L 304.854545 141.789122 
L 299.945455 135.792873 
L 295.036364 138.822448 
L 290.127273 142.573938 
L 285.218182 140.656279 
L 280.309091 142.67402 
L 275.4 140.945635 
L 270.490909 140.644258 
L 265.581818 141.967215 
L 260.672727 142.595493 
L 255.763636 137.222306 
L 250.854545 147.588011 
L 245.945455 140.940926 
L 241.036364 141.382223 
L 236.127273 142.725384 
L 231.218182 141.960232 
L 226.309091 143.597713 
L 221.4 142.441877 
L 216.490909 142.113275 
L 211.581818 142.262505 
L 206.672727 138.468635 
L 201.763636 144.107285 
L 196.854545 145.717644 
L 191.945455 139.511731 
L 187.036364 142.313643 
L 182.127273 144.999278 
L 177.218182 146.170352 
L 172.309091 146.835581 
L 167.4 142.919944 
L 162.490909 148.158657 
L 157.581818 150.208792 
L 152.672727 145.826382 
L 147.763636 152.757841 
L 142.854545 147.67359 
L 137.945455 148.954149 
L 133.036364 155.45595 
L 128.127273 151.74871 
L 123.218182 149.599852 
L 118.309091 155.407823 
L 113.4 150.359097 
L 108.490909 157.134006 
L 103.581818 156.288547 
L 98.672727 159.166903 
L 93.763636 160.917896 
L 88.854545 164.750351 
L 83.945455 168.475489 
L 79.036364 176.287934 
L 74.127273 183.602121 
L 69.218182 193.622991 
z
" clip-path="url(#p7c8dfc1151)" style="fill: #ff7f0e"/>
   </g>
   <g id="PolyCollection_3">
    <path d="M 69.218182 191.38142 
L 69.218182 192.683769 
L 74.127273 185.128503 
L 79.036364 178.208272 
L 83.945455 169.259972 
L 88.854545 165.916701 
L 93.763636 162.369165 
L 98.672727 160.042402 
L 103.581818 156.273872 
L 108.490909 157.804188 
L 113.4 150.739318 
L 118.309091 155.642926 
L 123.218182 150.068101 
L 128.127273 152.037815 
L 133.036364 155.404677 
L 137.945455 150.482101 
L 142.854545 146.796365 
L 147.763636 153.703253 
L 152.672727 146.245938 
L 157.581818 152.121654 
L 162.490909 149.917479 
L 167.4 143.955374 
L 172.309091 147.355278 
L 177.218182 147.476444 
L 182.127273 145.643117 
L 187.036364 143.05677 
L 191.945455 139.969503 
L 196.854545 146.961917 
L 201.763636 145.834269 
L 206.672727 139.669678 
L 211.581818 143.473896 
L 216.490909 143.296915 
L 221.4 143.760533 
L 226.309091 144.523564 
L 231.218182 143.210316 
L 236.127273 143.503158 
L 241.036364 141.408665 
L 245.945455 142.449796 
L 250.854545 149.032483 
L 255.763636 137.44766 
L 260.672727 143.772641 
L 265.581818 142.736007 
L 270.490909 140.968226 
L 275.4 141.627046 
L 280.309091 144.56262 
L 285.218182 145.137068 
L 290.127273 143.507827 
L 295.036364 140.622247 
L 299.945455 136.163425 
L 304.854545 142.642289 
L 309.763636 141.289246 
L 314.672727 134.302942 
L 319.581818 137.393803 
L 324.490909 143.603106 
L 329.4 140.834498 
L 334.309091 136.163045 
L 339.218182 142.315125 
L 344.127273 144.839057 
L 349.036364 148.652785 
L 353.945455 142.418329 
L 358.854545 145.124083 
L 363.763636 144.575952 
L 368.672727 143.465533 
L 373.581818 144.909595 
L 373.581818 143.490041 
L 373.581818 143.490041 
L 368.672727 143.032173 
L 363.763636 143.872112 
L 358.854545 145.042626 
L 353.945455 142.313693 
L 349.036364 148.602891 
L 344.127273 144.627739 
L 339.218182 142.001691 
L 334.309091 135.725417 
L 329.4 140.616463 
L 324.490909 142.98216 
L 319.581818 136.833052 
L 314.672727 134.043952 
L 309.763636 140.767132 
L 304.854545 142.141432 
L 299.945455 135.828139 
L 295.036364 138.510464 
L 290.127273 143.243504 
L 285.218182 139.913016 
L 280.309091 143.583546 
L 275.4 141.307549 
L 270.490909 140.855158 
L 265.581818 142.104996 
L 260.672727 142.700874 
L 255.763636 136.785716 
L 250.854545 148.114192 
L 245.945455 141.873817 
L 241.036364 141.266143 
L 236.127273 143.065363 
L 231.218182 143.021365 
L 226.309091 143.902918 
L 221.4 143.190889 
L 216.490909 142.767921 
L 211.581818 142.581619 
L 206.672727 139.269362 
L 201.763636 145.080391 
L 196.854545 146.599507 
L 191.945455 139.883565 
L 187.036364 142.691161 
L 182.127273 145.350949 
L 177.218182 146.684026 
L 172.309091 147.14514 
L 167.4 143.537188 
L 162.490909 148.992051 
L 157.581818 151.357112 
L 152.672727 145.715361 
L 147.763636 153.216555 
L 142.854545 146.358127 
L 137.945455 149.031169 
L 133.036364 154.729865 
L 128.127273 151.628112 
L 123.218182 148.850709 
L 118.309091 155.235203 
L 113.4 150.413856 
L 108.490909 157.566186 
L 103.581818 156.096517 
L 98.672727 159.208756 
L 93.763636 161.769668 
L 88.854545 165.656853 
L 83.945455 167.38367 
L 79.036364 175.222034 
L 74.127273 184.261847 
L 69.218182 191.38142 
z
" clip-path="url(#p7c8dfc1151)" style="fill: #2ca02c"/>
   </g>
   <g id="PolyCollection_4">
    <path d="M 69.218182 128.641273 
L 69.218182 131.873698 
L 74.127273 117.926556 
L 79.036364 125.32125 
L 83.945455 99.311933 
L 88.854545 94.117459 
L 93.763636 96.14945 
L 98.672727 90.190325 
L 103.581818 86.493328 
L 108.490909 91.139075 
L 113.4 51162.725143 
L 118.309091 79.31435 
L 123.218182 79.956175 
L 128.127273 78.774903 
L 133.036364 75.376902 
L 137.945455 72.814587 
L 142.854545 75.832736 
L 147.763636 78.035294 
L 152.672727 77.914763 
L 157.581818 70.814362 
L 162.490909 72.529869 
L 167.4 67.976719 
L 172.309091 71.20052 
L 177.218182 65.209162 
L 182.127273 74.892071 
L 187.036364 82.521956 
L 191.945455 64.701106 
L 196.854545 62.593507 
L 201.763636 62.539892 
L 206.672727 67.11384 
L 211.581818 64.664332 
L 216.490909 61.421957 
L 221.4 64.309917 
L 226.309091 64.994091 
L 231.218182 65.789522 
L 236.127273 57.726189 
L 241.036364 69.028693 
L 245.945455 58.284009 
L 250.854545 60.697539 
L 255.763636 61.875199 
L 260.672727 58.191416 
L 265.581818 58.773025 
L 270.490909 61.955647 
L 275.4 54.127463 
L 280.309091 57.702255 
L 285.218182 58.651666 
L 290.127273 67.882611 
L 295.036364 70.672507 
L 299.945455 53.491558 
L 304.854545 53.237608 
L 309.763636 56.40645 
L 314.672727 52.832799 
L 319.581818 58.814836 
L 324.490909 52.224774 
L 329.4 54.335468 
L 334.309091 56.782461 
L 339.218182 69.422882 
L 344.127273 53.230262 
L 349.036364 52.859725 
L 353.945455 52.527126 
L 358.854545 50.229656 
L 363.763636 50.339909 
L 368.672727 49.086152 
L 373.581818 49.398733 
L 373.581818 48.272571 
L 373.581818 48.272571 
L 368.672727 48.066029 
L 363.763636 47.293442 
L 358.854545 46.108455 
L 353.945455 49.881078 
L 349.036364 48.764241 
L 344.127273 48.029881 
L 339.218182 45.883819 
L 334.309091 44.443636 
L 329.4 49.691317 
L 324.490909 51.737546 
L 319.581818 50.042613 
L 314.672727 51.515514 
L 309.763636 47.905573 
L 304.854545 50.778582 
L 299.945455 48.790209 
L 295.036364 49.831641 
L 290.127273 47.276714 
L 285.218182 56.339678 
L 280.309091 53.870129 
L 275.4 51.808964 
L 270.490909 45.516796 
L 265.581818 55.008052 
L 260.672727 55.775259 
L 255.763636 52.825051 
L 250.854545 57.242906 
L 245.945455 54.888252 
L 241.036364 57.993347 
L 236.127273 54.14793 
L 231.218182 56.308891 
L 226.309091 59.702884 
L 221.4 59.434928 
L 216.490909 58.844297 
L 211.581818 62.384371 
L 206.672727 55.409057 
L 201.763636 60.192482 
L 196.854545 49.467123 
L 191.945455 64.048408 
L 187.036364 55.012237 
L 182.127273 57.839212 
L 177.218182 59.715918 
L 172.309091 65.308616 
L 167.4 62.152005 
L 162.490909 66.258858 
L 157.581818 67.769329 
L 152.672727 64.385157 
L 147.763636 69.075776 
L 142.854545 66.988641 
L 137.945455 70.67065 
L 133.036364 73.279935 
L 128.127273 71.856297 
L 123.218182 75.62695 
L 118.309091 71.561657 
L 113.4 58.17244 
L 108.490909 78.726192 
L 103.581818 84.169832 
L 98.672727 87.879865 
L 93.763636 83.613134 
L 88.854545 85.954402 
L 83.945455 94.921761 
L 79.036364 90.087957 
L 74.127273 108.90096 
L 69.218182 128.641273 
z
" clip-path="url(#p7c8dfc1151)" style="fill: #d62728"/>
   </g>
   <g id="matplotlib.axis_1">
    <g id="xtick_1">
     <g id="line2d_1">
      <defs>
       <path id="m22ffe2bafb" d="M 0 0 
L 0 3.5 
" style="stroke: #000000; stroke-width: 0.8"/>
      </defs>
      <g>
       <use xlink:href="#m22ffe2bafb" x="69.218182" y="252" style="stroke: #000000; stroke-width: 0.8"/>
      </g>
     </g>
     <g id="text_1">
      <!-- 1 -->
      <g transform="translate(66.036932 266.598437)scale(0.1 -0.1)">
       <defs>
        <path id="DejaVuSans-31" d="M 794 531 
L 1825 531 
L 1825 4091 
L 703 3866 
L 703 4441 
L 1819 4666 
L 2450 4666 
L 2450 531 
L 3481 531 
L 3481 0 
L 794 0 
L 794 531 
z
" transform="scale(0.015625)"/>
       </defs>
       <use xlink:href="#DejaVuSans-31"/>
      </g>
     </g>
    </g>
    <g id="xtick_2">
     <g id="line2d_2">
      <g>
       <use xlink:href="#m22ffe2bafb" x="93.763636" y="252" style="stroke: #000000; stroke-width: 0.8"/>
      </g>
     </g>
     <g id="text_2">
      <!-- 6 -->
      <g transform="translate(90.582386 266.598437)scale(0.1 -0.1)">
       <defs>
        <path id="DejaVuSans-36" d="M 2113 2584 
Q 1688 2584 1439 2293 
Q 1191 2003 1191 1497 
Q 1191 994 1439 701 
Q 1688 409 2113 409 
Q 2538 409 2786 701 
Q 3034 994 3034 1497 
Q 3034 2003 2786 2293 
Q 2538 2584 2113 2584 
z
M 3366 4563 
L 3366 3988 
Q 3128 4100 2886 4159 
Q 2644 4219 2406 4219 
Q 1781 4219 1451 3797 
Q 1122 3375 1075 2522 
Q 1259 2794 1537 2939 
Q 1816 3084 2150 3084 
Q 2853 3084 3261 2657 
Q 3669 2231 3669 1497 
Q 3669 778 3244 343 
Q 2819 -91 2113 -91 
Q 1303 -91 875 529 
Q 447 1150 447 2328 
Q 447 3434 972 4092 
Q 1497 4750 2381 4750 
Q 2619 4750 2861 4703 
Q 3103 4656 3366 4563 
z
" transform="scale(0.015625)"/>
       </defs>
       <use xlink:href="#DejaVuSans-36"/>
      </g>
     </g>
    </g>
    <g id="xtick_3">
     <g id="line2d_3">
      <g>
       <use xlink:href="#m22ffe2bafb" x="118.309091" y="252" style="stroke: #000000; stroke-width: 0.8"/>
      </g>
     </g>
     <g id="text_3">
      <!-- 11 -->
      <g transform="translate(111.946591 266.598437)scale(0.1 -0.1)">
       <use xlink:href="#DejaVuSans-31"/>
       <use xlink:href="#DejaVuSans-31" x="63.623047"/>
      </g>
     </g>
    </g>
    <g id="xtick_4">
     <g id="line2d_4">
      <g>
       <use xlink:href="#m22ffe2bafb" x="142.854545" y="252" style="stroke: #000000; stroke-width: 0.8"/>
      </g>
     </g>
     <g id="text_4">
      <!-- 16 -->
      <g transform="translate(136.492045 266.598437)scale(0.1 -0.1)">
       <use xlink:href="#DejaVuSans-31"/>
       <use xlink:href="#DejaVuSans-36" x="63.623047"/>
      </g>
     </g>
    </g>
    <g id="xtick_5">
     <g id="line2d_5">
      <g>
       <use xlink:href="#m22ffe2bafb" x="167.4" y="252" style="stroke: #000000; stroke-width: 0.8"/>
      </g>
     </g>
     <g id="text_5">
      <!-- 21 -->
      <g transform="translate(161.0375 266.598437)scale(0.1 -0.1)">
       <defs>
        <path id="DejaVuSans-32" d="M 1228 531 
L 3431 531 
L 3431 0 
L 469 0 
L 469 531 
Q 828 903 1448 1529 
Q 2069 2156 2228 2338 
Q 2531 2678 2651 2914 
Q 2772 3150 2772 3378 
Q 2772 3750 2511 3984 
Q 2250 4219 1831 4219 
Q 1534 4219 1204 4116 
Q 875 4013 500 3803 
L 500 4441 
Q 881 4594 1212 4672 
Q 1544 4750 1819 4750 
Q 2544 4750 2975 4387 
Q 3406 4025 3406 3419 
Q 3406 3131 3298 2873 
Q 3191 2616 2906 2266 
Q 2828 2175 2409 1742 
Q 1991 1309 1228 531 
z
" transform="scale(0.015625)"/>
       </defs>
       <use xlink:href="#DejaVuSans-32"/>
       <use xlink:href="#DejaVuSans-31" x="63.623047"/>
      </g>
     </g>
    </g>
    <g id="xtick_6">
     <g id="line2d_6">
      <g>
       <use xlink:href="#m22ffe2bafb" x="191.945455" y="252" style="stroke: #000000; stroke-width: 0.8"/>
      </g>
     </g>
     <g id="text_6">
      <!-- 26 -->
      <g transform="translate(185.582955 266.598437)scale(0.1 -0.1)">
       <use xlink:href="#DejaVuSans-32"/>
       <use xlink:href="#DejaVuSans-36" x="63.623047"/>
      </g>
     </g>
    </g>
    <g id="xtick_7">
     <g id="line2d_7">
      <g>
       <use xlink:href="#m22ffe2bafb" x="216.490909" y="252" style="stroke: #000000; stroke-width: 0.8"/>
      </g>
     </g>
     <g id="text_7">
      <!-- 31 -->
      <g transform="translate(210.128409 266.598437)scale(0.1 -0.1)">
       <defs>
        <path id="DejaVuSans-33" d="M 2597 2516 
Q 3050 2419 3304 2112 
Q 3559 1806 3559 1356 
Q 3559 666 3084 287 
Q 2609 -91 1734 -91 
Q 1441 -91 1130 -33 
Q 819 25 488 141 
L 488 750 
Q 750 597 1062 519 
Q 1375 441 1716 441 
Q 2309 441 2620 675 
Q 2931 909 2931 1356 
Q 2931 1769 2642 2001 
Q 2353 2234 1838 2234 
L 1294 2234 
L 1294 2753 
L 1863 2753 
Q 2328 2753 2575 2939 
Q 2822 3125 2822 3475 
Q 2822 3834 2567 4026 
Q 2313 4219 1838 4219 
Q 1578 4219 1281 4162 
Q 984 4106 628 3988 
L 628 4550 
Q 988 4650 1302 4700 
Q 1616 4750 1894 4750 
Q 2613 4750 3031 4423 
Q 3450 4097 3450 3541 
Q 3450 3153 3228 2886 
Q 3006 2619 2597 2516 
z
" transform="scale(0.015625)"/>
       </defs>
       <use xlink:href="#DejaVuSans-33"/>
       <use xlink:href="#DejaVuSans-31" x="63.623047"/>
      </g>
     </g>
    </g>
    <g id="xtick_8">
     <g id="line2d_8">
      <g>
       <use xlink:href="#m22ffe2bafb" x="241.036364" y="252" style="stroke: #000000; stroke-width: 0.8"/>
      </g>
     </g>
     <g id="text_8">
      <!-- 36 -->
      <g transform="translate(234.673864 266.598437)scale(0.1 -0.1)">
       <use xlink:href="#DejaVuSans-33"/>
       <use xlink:href="#DejaVuSans-36" x="63.623047"/>
      </g>
     </g>
    </g>
    <g id="xtick_9">
     <g id="line2d_9">
      <g>
       <use xlink:href="#m22ffe2bafb" x="265.581818" y="252" style="stroke: #000000; stroke-width: 0.8"/>
      </g>
     </g>
     <g id="text_9">
      <!-- 41 -->
      <g transform="translate(259.219318 266.598437)scale(0.1 -0.1)">
       <defs>
        <path id="DejaVuSans-34" d="M 2419 4116 
L 825 1625 
L 2419 1625 
L 2419 4116 
z
M 2253 4666 
L 3047 4666 
L 3047 1625 
L 3713 1625 
L 3713 1100 
L 3047 1100 
L 3047 0 
L 2419 0 
L 2419 1100 
L 313 1100 
L 313 1709 
L 2253 4666 
z
" transform="scale(0.015625)"/>
       </defs>
       <use xlink:href="#DejaVuSans-34"/>
       <use xlink:href="#DejaVuSans-31" x="63.623047"/>
      </g>
     </g>
    </g>
    <g id="xtick_10">
     <g id="line2d_10">
      <g>
       <use xlink:href="#m22ffe2bafb" x="290.127273" y="252" style="stroke: #000000; stroke-width: 0.8"/>
      </g>
     </g>
     <g id="text_10">
      <!-- 46 -->
      <g transform="translate(283.764773 266.598437)scale(0.1 -0.1)">
       <use xlink:href="#DejaVuSans-34"/>
       <use xlink:href="#DejaVuSans-36" x="63.623047"/>
      </g>
     </g>
    </g>
    <g id="xtick_11">
     <g id="line2d_11">
      <g>
       <use xlink:href="#m22ffe2bafb" x="314.672727" y="252" style="stroke: #000000; stroke-width: 0.8"/>
      </g>
     </g>
     <g id="text_11">
      <!-- 51 -->
      <g transform="translate(308.310227 266.598437)scale(0.1 -0.1)">
       <defs>
        <path id="DejaVuSans-35" d="M 691 4666 
L 3169 4666 
L 3169 4134 
L 1269 4134 
L 1269 2991 
Q 1406 3038 1543 3061 
Q 1681 3084 1819 3084 
Q 2600 3084 3056 2656 
Q 3513 2228 3513 1497 
Q 3513 744 3044 326 
Q 2575 -91 1722 -91 
Q 1428 -91 1123 -41 
Q 819 9 494 109 
L 494 744 
Q 775 591 1075 516 
Q 1375 441 1709 441 
Q 2250 441 2565 725 
Q 2881 1009 2881 1497 
Q 2881 1984 2565 2268 
Q 2250 2553 1709 2553 
Q 1456 2553 1204 2497 
Q 953 2441 691 2322 
L 691 4666 
z
" transform="scale(0.015625)"/>
       </defs>
       <use xlink:href="#DejaVuSans-35"/>
       <use xlink:href="#DejaVuSans-31" x="63.623047"/>
      </g>
     </g>
    </g>
    <g id="xtick_12">
     <g id="line2d_12">
      <g>
       <use xlink:href="#m22ffe2bafb" x="339.218182" y="252" style="stroke: #000000; stroke-width: 0.8"/>
      </g>
     </g>
     <g id="text_12">
      <!-- 56 -->
      <g transform="translate(332.855682 266.598437)scale(0.1 -0.1)">
       <use xlink:href="#DejaVuSans-35"/>
       <use xlink:href="#DejaVuSans-36" x="63.623047"/>
      </g>
     </g>
    </g>
    <g id="xtick_13">
     <g id="line2d_13">
      <g>
       <use xlink:href="#m22ffe2bafb" x="363.763636" y="252" style="stroke: #000000; stroke-width: 0.8"/>
      </g>
     </g>
     <g id="text_13">
      <!-- 61 -->
      <g transform="translate(357.401136 266.598437)scale(0.1 -0.1)">
       <use xlink:href="#DejaVuSans-36"/>
       <use xlink:href="#DejaVuSans-31" x="63.623047"/>
      </g>
     </g>
    </g>
    <g id="text_14">
     <!-- Program size -->
     <g transform="translate(189.022656 280.276563)scale(0.1 -0.1)">
      <defs>
       <path id="DejaVuSans-50" d="M 1259 4147 
L 1259 2394 
L 2053 2394 
Q 2494 2394 2734 2622 
Q 2975 2850 2975 3272 
Q 2975 3691 2734 3919 
Q 2494 4147 2053 4147 
L 1259 4147 
z
M 628 4666 
L 2053 4666 
Q 2838 4666 3239 4311 
Q 3641 3956 3641 3272 
Q 3641 2581 3239 2228 
Q 2838 1875 2053 1875 
L 1259 1875 
L 1259 0 
L 628 0 
L 628 4666 
z
" transform="scale(0.015625)"/>
       <path id="DejaVuSans-72" d="M 2631 2963 
Q 2534 3019 2420 3045 
Q 2306 3072 2169 3072 
Q 1681 3072 1420 2755 
Q 1159 2438 1159 1844 
L 1159 0 
L 581 0 
L 581 3500 
L 1159 3500 
L 1159 2956 
Q 1341 3275 1631 3429 
Q 1922 3584 2338 3584 
Q 2397 3584 2469 3576 
Q 2541 3569 2628 3553 
L 2631 2963 
z
" transform="scale(0.015625)"/>
       <path id="DejaVuSans-6f" d="M 1959 3097 
Q 1497 3097 1228 2736 
Q 959 2375 959 1747 
Q 959 1119 1226 758 
Q 1494 397 1959 397 
Q 2419 397 2687 759 
Q 2956 1122 2956 1747 
Q 2956 2369 2687 2733 
Q 2419 3097 1959 3097 
z
M 1959 3584 
Q 2709 3584 3137 3096 
Q 3566 2609 3566 1747 
Q 3566 888 3137 398 
Q 2709 -91 1959 -91 
Q 1206 -91 779 398 
Q 353 888 353 1747 
Q 353 2609 779 3096 
Q 1206 3584 1959 3584 
z
" transform="scale(0.015625)"/>
       <path id="DejaVuSans-67" d="M 2906 1791 
Q 2906 2416 2648 2759 
Q 2391 3103 1925 3103 
Q 1463 3103 1205 2759 
Q 947 2416 947 1791 
Q 947 1169 1205 825 
Q 1463 481 1925 481 
Q 2391 481 2648 825 
Q 2906 1169 2906 1791 
z
M 3481 434 
Q 3481 -459 3084 -895 
Q 2688 -1331 1869 -1331 
Q 1566 -1331 1297 -1286 
Q 1028 -1241 775 -1147 
L 775 -588 
Q 1028 -725 1275 -790 
Q 1522 -856 1778 -856 
Q 2344 -856 2625 -561 
Q 2906 -266 2906 331 
L 2906 616 
Q 2728 306 2450 153 
Q 2172 0 1784 0 
Q 1141 0 747 490 
Q 353 981 353 1791 
Q 353 2603 747 3093 
Q 1141 3584 1784 3584 
Q 2172 3584 2450 3431 
Q 2728 3278 2906 2969 
L 2906 3500 
L 3481 3500 
L 3481 434 
z
" transform="scale(0.015625)"/>
       <path id="DejaVuSans-61" d="M 2194 1759 
Q 1497 1759 1228 1600 
Q 959 1441 959 1056 
Q 959 750 1161 570 
Q 1363 391 1709 391 
Q 2188 391 2477 730 
Q 2766 1069 2766 1631 
L 2766 1759 
L 2194 1759 
z
M 3341 1997 
L 3341 0 
L 2766 0 
L 2766 531 
Q 2569 213 2275 61 
Q 1981 -91 1556 -91 
Q 1019 -91 701 211 
Q 384 513 384 1019 
Q 384 1609 779 1909 
Q 1175 2209 1959 2209 
L 2766 2209 
L 2766 2266 
Q 2766 2663 2505 2880 
Q 2244 3097 1772 3097 
Q 1472 3097 1187 3025 
Q 903 2953 641 2809 
L 641 3341 
Q 956 3463 1253 3523 
Q 1550 3584 1831 3584 
Q 2591 3584 2966 3190 
Q 3341 2797 3341 1997 
z
" transform="scale(0.015625)"/>
       <path id="DejaVuSans-6d" d="M 3328 2828 
Q 3544 3216 3844 3400 
Q 4144 3584 4550 3584 
Q 5097 3584 5394 3201 
Q 5691 2819 5691 2113 
L 5691 0 
L 5113 0 
L 5113 2094 
Q 5113 2597 4934 2840 
Q 4756 3084 4391 3084 
Q 3944 3084 3684 2787 
Q 3425 2491 3425 1978 
L 3425 0 
L 2847 0 
L 2847 2094 
Q 2847 2600 2669 2842 
Q 2491 3084 2119 3084 
Q 1678 3084 1418 2786 
Q 1159 2488 1159 1978 
L 1159 0 
L 581 0 
L 581 3500 
L 1159 3500 
L 1159 2956 
Q 1356 3278 1631 3431 
Q 1906 3584 2284 3584 
Q 2666 3584 2933 3390 
Q 3200 3197 3328 2828 
z
" transform="scale(0.015625)"/>
       <path id="DejaVuSans-20" transform="scale(0.015625)"/>
       <path id="DejaVuSans-73" d="M 2834 3397 
L 2834 2853 
Q 2591 2978 2328 3040 
Q 2066 3103 1784 3103 
Q 1356 3103 1142 2972 
Q 928 2841 928 2578 
Q 928 2378 1081 2264 
Q 1234 2150 1697 2047 
L 1894 2003 
Q 2506 1872 2764 1633 
Q 3022 1394 3022 966 
Q 3022 478 2636 193 
Q 2250 -91 1575 -91 
Q 1294 -91 989 -36 
Q 684 19 347 128 
L 347 722 
Q 666 556 975 473 
Q 1284 391 1588 391 
Q 1994 391 2212 530 
Q 2431 669 2431 922 
Q 2431 1156 2273 1281 
Q 2116 1406 1581 1522 
L 1381 1569 
Q 847 1681 609 1914 
Q 372 2147 372 2553 
Q 372 3047 722 3315 
Q 1072 3584 1716 3584 
Q 2034 3584 2315 3537 
Q 2597 3491 2834 3397 
z
" transform="scale(0.015625)"/>
       <path id="DejaVuSans-69" d="M 603 3500 
L 1178 3500 
L 1178 0 
L 603 0 
L 603 3500 
z
M 603 4863 
L 1178 4863 
L 1178 4134 
L 603 4134 
L 603 4863 
z
" transform="scale(0.015625)"/>
       <path id="DejaVuSans-7a" d="M 353 3500 
L 3084 3500 
L 3084 2975 
L 922 459 
L 3084 459 
L 3084 0 
L 275 0 
L 275 525 
L 2438 3041 
L 353 3041 
L 353 3500 
z
" transform="scale(0.015625)"/>
       <path id="DejaVuSans-65" d="M 3597 1894 
L 3597 1613 
L 953 1613 
Q 991 1019 1311 708 
Q 1631 397 2203 397 
Q 2534 397 2845 478 
Q 3156 559 3463 722 
L 3463 178 
Q 3153 47 2828 -22 
Q 2503 -91 2169 -91 
Q 1331 -91 842 396 
Q 353 884 353 1716 
Q 353 2575 817 3079 
Q 1281 3584 2069 3584 
Q 2775 3584 3186 3129 
Q 3597 2675 3597 1894 
z
M 3022 2063 
Q 3016 2534 2758 2815 
Q 2500 3097 2075 3097 
Q 1594 3097 1305 2825 
Q 1016 2553 972 2059 
L 3022 2063 
z
" transform="scale(0.015625)"/>
      </defs>
      <use xlink:href="#DejaVuSans-50"/>
      <use xlink:href="#DejaVuSans-72" x="58.552734"/>
      <use xlink:href="#DejaVuSans-6f" x="97.416016"/>
      <use xlink:href="#DejaVuSans-67" x="158.597656"/>
      <use xlink:href="#DejaVuSans-72" x="222.074219"/>
      <use xlink:href="#DejaVuSans-61" x="263.1875"/>
      <use xlink:href="#DejaVuSans-6d" x="324.466797"/>
      <use xlink:href="#DejaVuSans-20" x="421.878906"/>
      <use xlink:href="#DejaVuSans-73" x="453.666016"/>
      <use xlink:href="#DejaVuSans-69" x="505.765625"/>
      <use xlink:href="#DejaVuSans-7a" x="533.548828"/>
      <use xlink:href="#DejaVuSans-65" x="586.039062"/>
     </g>
    </g>
   </g>
   <g id="matplotlib.axis_2">
    <g id="ytick_1">
     <g id="line2d_14">
      <defs>
       <path id="m49d78d88df" d="M 0 0 
L -3.5 0 
" style="stroke: #000000; stroke-width: 0.8"/>
      </defs>
      <g>
       <use xlink:href="#m49d78d88df" x="54" y="226.394293" style="stroke: #000000; stroke-width: 0.8"/>
      </g>
     </g>
     <g id="text_15">
      <!-- $\mathdefault{10^{6}}$ -->
      <g transform="translate(29.4 230.193511)scale(0.1 -0.1)">
       <defs>
        <path id="DejaVuSans-30" d="M 2034 4250 
Q 1547 4250 1301 3770 
Q 1056 3291 1056 2328 
Q 1056 1369 1301 889 
Q 1547 409 2034 409 
Q 2525 409 2770 889 
Q 3016 1369 3016 2328 
Q 3016 3291 2770 3770 
Q 2525 4250 2034 4250 
z
M 2034 4750 
Q 2819 4750 3233 4129 
Q 3647 3509 3647 2328 
Q 3647 1150 3233 529 
Q 2819 -91 2034 -91 
Q 1250 -91 836 529 
Q 422 1150 422 2328 
Q 422 3509 836 4129 
Q 1250 4750 2034 4750 
z
" transform="scale(0.015625)"/>
       </defs>
       <use xlink:href="#DejaVuSans-31" transform="translate(0 0.765625)"/>
       <use xlink:href="#DejaVuSans-30" transform="translate(63.623047 0.765625)"/>
       <use xlink:href="#DejaVuSans-36" transform="translate(128.203125 39.046875)scale(0.7)"/>
      </g>
     </g>
    </g>
    <g id="ytick_2">
     <g id="line2d_15">
      <g>
       <use xlink:href="#m49d78d88df" x="54" y="175.761757" style="stroke: #000000; stroke-width: 0.8"/>
      </g>
     </g>
     <g id="text_16">
      <!-- $\mathdefault{10^{7}}$ -->
      <g transform="translate(29.4 179.560976)scale(0.1 -0.1)">
       <defs>
        <path id="DejaVuSans-37" d="M 525 4666 
L 3525 4666 
L 3525 4397 
L 1831 0 
L 1172 0 
L 2766 4134 
L 525 4134 
L 525 4666 
z
" transform="scale(0.015625)"/>
       </defs>
       <use xlink:href="#DejaVuSans-31" transform="translate(0 0.684375)"/>
       <use xlink:href="#DejaVuSans-30" transform="translate(63.623047 0.684375)"/>
       <use xlink:href="#DejaVuSans-37" transform="translate(128.203125 38.965625)scale(0.7)"/>
      </g>
     </g>
    </g>
    <g id="ytick_3">
     <g id="line2d_16">
      <g>
       <use xlink:href="#m49d78d88df" x="54" y="125.129221" style="stroke: #000000; stroke-width: 0.8"/>
      </g>
     </g>
     <g id="text_17">
      <!-- $\mathdefault{10^{8}}$ -->
      <g transform="translate(29.4 128.92844)scale(0.1 -0.1)">
       <defs>
        <path id="DejaVuSans-38" d="M 2034 2216 
Q 1584 2216 1326 1975 
Q 1069 1734 1069 1313 
Q 1069 891 1326 650 
Q 1584 409 2034 409 
Q 2484 409 2743 651 
Q 3003 894 3003 1313 
Q 3003 1734 2745 1975 
Q 2488 2216 2034 2216 
z
M 1403 2484 
Q 997 2584 770 2862 
Q 544 3141 544 3541 
Q 544 4100 942 4425 
Q 1341 4750 2034 4750 
Q 2731 4750 3128 4425 
Q 3525 4100 3525 3541 
Q 3525 3141 3298 2862 
Q 3072 2584 2669 2484 
Q 3125 2378 3379 2068 
Q 3634 1759 3634 1313 
Q 3634 634 3220 271 
Q 2806 -91 2034 -91 
Q 1263 -91 848 271 
Q 434 634 434 1313 
Q 434 1759 690 2068 
Q 947 2378 1403 2484 
z
M 1172 3481 
Q 1172 3119 1398 2916 
Q 1625 2713 2034 2713 
Q 2441 2713 2670 2916 
Q 2900 3119 2900 3481 
Q 2900 3844 2670 4047 
Q 2441 4250 2034 4250 
Q 1625 4250 1398 4047 
Q 1172 3844 1172 3481 
z
" transform="scale(0.015625)"/>
       </defs>
       <use xlink:href="#DejaVuSans-31" transform="translate(0 0.765625)"/>
       <use xlink:href="#DejaVuSans-30" transform="translate(63.623047 0.765625)"/>
       <use xlink:href="#DejaVuSans-38" transform="translate(128.203125 39.046875)scale(0.7)"/>
      </g>
     </g>
    </g>
    <g id="ytick_4">
     <g id="line2d_17">
      <g>
       <use xlink:href="#m49d78d88df" x="54" y="74.496686" style="stroke: #000000; stroke-width: 0.8"/>
      </g>
     </g>
     <g id="text_18">
      <!-- $\mathdefault{10^{9}}$ -->
      <g transform="translate(29.4 78.295904)scale(0.1 -0.1)">
       <defs>
        <path id="DejaVuSans-39" d="M 703 97 
L 703 672 
Q 941 559 1184 500 
Q 1428 441 1663 441 
Q 2288 441 2617 861 
Q 2947 1281 2994 2138 
Q 2813 1869 2534 1725 
Q 2256 1581 1919 1581 
Q 1219 1581 811 2004 
Q 403 2428 403 3163 
Q 403 3881 828 4315 
Q 1253 4750 1959 4750 
Q 2769 4750 3195 4129 
Q 3622 3509 3622 2328 
Q 3622 1225 3098 567 
Q 2575 -91 1691 -91 
Q 1453 -91 1209 -44 
Q 966 3 703 97 
z
M 1959 2075 
Q 2384 2075 2632 2365 
Q 2881 2656 2881 3163 
Q 2881 3666 2632 3958 
Q 2384 4250 1959 4250 
Q 1534 4250 1286 3958 
Q 1038 3666 1038 3163 
Q 1038 2656 1286 2365 
Q 1534 2075 1959 2075 
z
" transform="scale(0.015625)"/>
       </defs>
       <use xlink:href="#DejaVuSans-31" transform="translate(0 0.765625)"/>
       <use xlink:href="#DejaVuSans-30" transform="translate(63.623047 0.765625)"/>
       <use xlink:href="#DejaVuSans-39" transform="translate(128.203125 39.046875)scale(0.7)"/>
      </g>
     </g>
    </g>
    <g id="ytick_5">
     <g id="line2d_18">
      <defs>
       <path id="m264ab3b63b" d="M 0 0 
L -2 0 
" style="stroke: #000000; stroke-width: 0.6"/>
      </defs>
      <g>
       <use xlink:href="#m264ab3b63b" x="54" y="246.543004" style="stroke: #000000; stroke-width: 0.6"/>
      </g>
     </g>
    </g>
    <g id="ytick_6">
     <g id="line2d_19">
      <g>
       <use xlink:href="#m264ab3b63b" x="54" y="241.636205" style="stroke: #000000; stroke-width: 0.6"/>
      </g>
     </g>
    </g>
    <g id="ytick_7">
     <g id="line2d_20">
      <g>
       <use xlink:href="#m264ab3b63b" x="54" y="237.627057" style="stroke: #000000; stroke-width: 0.6"/>
      </g>
     </g>
    </g>
    <g id="ytick_8">
     <g id="line2d_21">
      <g>
       <use xlink:href="#m264ab3b63b" x="54" y="234.237372" style="stroke: #000000; stroke-width: 0.6"/>
      </g>
     </g>
    </g>
    <g id="ytick_9">
     <g id="line2d_22">
      <g>
       <use xlink:href="#m264ab3b63b" x="54" y="231.301092" style="stroke: #000000; stroke-width: 0.6"/>
      </g>
     </g>
    </g>
    <g id="ytick_10">
     <g id="line2d_23">
      <g>
       <use xlink:href="#m264ab3b63b" x="54" y="228.71111" style="stroke: #000000; stroke-width: 0.6"/>
      </g>
     </g>
    </g>
    <g id="ytick_11">
     <g id="line2d_24">
      <g>
       <use xlink:href="#m264ab3b63b" x="54" y="211.152381" style="stroke: #000000; stroke-width: 0.6"/>
      </g>
     </g>
    </g>
    <g id="ytick_12">
     <g id="line2d_25">
      <g>
       <use xlink:href="#m264ab3b63b" x="54" y="202.236434" style="stroke: #000000; stroke-width: 0.6"/>
      </g>
     </g>
    </g>
    <g id="ytick_13">
     <g id="line2d_26">
      <g>
       <use xlink:href="#m264ab3b63b" x="54" y="195.910469" style="stroke: #000000; stroke-width: 0.6"/>
      </g>
     </g>
    </g>
    <g id="ytick_14">
     <g id="line2d_27">
      <g>
       <use xlink:href="#m264ab3b63b" x="54" y="191.003669" style="stroke: #000000; stroke-width: 0.6"/>
      </g>
     </g>
    </g>
    <g id="ytick_15">
     <g id="line2d_28">
      <g>
       <use xlink:href="#m264ab3b63b" x="54" y="186.994522" style="stroke: #000000; stroke-width: 0.6"/>
      </g>
     </g>
    </g>
    <g id="ytick_16">
     <g id="line2d_29">
      <g>
       <use xlink:href="#m264ab3b63b" x="54" y="183.604836" style="stroke: #000000; stroke-width: 0.6"/>
      </g>
     </g>
    </g>
    <g id="ytick_17">
     <g id="line2d_30">
      <g>
       <use xlink:href="#m264ab3b63b" x="54" y="180.668557" style="stroke: #000000; stroke-width: 0.6"/>
      </g>
     </g>
    </g>
    <g id="ytick_18">
     <g id="line2d_31">
      <g>
       <use xlink:href="#m264ab3b63b" x="54" y="178.078575" style="stroke: #000000; stroke-width: 0.6"/>
      </g>
     </g>
    </g>
    <g id="ytick_19">
     <g id="line2d_32">
      <g>
       <use xlink:href="#m264ab3b63b" x="54" y="160.519845" style="stroke: #000000; stroke-width: 0.6"/>
      </g>
     </g>
    </g>
    <g id="ytick_20">
     <g id="line2d_33">
      <g>
       <use xlink:href="#m264ab3b63b" x="54" y="151.603898" style="stroke: #000000; stroke-width: 0.6"/>
      </g>
     </g>
    </g>
    <g id="ytick_21">
     <g id="line2d_34">
      <g>
       <use xlink:href="#m264ab3b63b" x="54" y="145.277933" style="stroke: #000000; stroke-width: 0.6"/>
      </g>
     </g>
    </g>
    <g id="ytick_22">
     <g id="line2d_35">
      <g>
       <use xlink:href="#m264ab3b63b" x="54" y="140.371133" style="stroke: #000000; stroke-width: 0.6"/>
      </g>
     </g>
    </g>
    <g id="ytick_23">
     <g id="line2d_36">
      <g>
       <use xlink:href="#m264ab3b63b" x="54" y="136.361986" style="stroke: #000000; stroke-width: 0.6"/>
      </g>
     </g>
    </g>
    <g id="ytick_24">
     <g id="line2d_37">
      <g>
       <use xlink:href="#m264ab3b63b" x="54" y="132.9723" style="stroke: #000000; stroke-width: 0.6"/>
      </g>
     </g>
    </g>
    <g id="ytick_25">
     <g id="line2d_38">
      <g>
       <use xlink:href="#m264ab3b63b" x="54" y="130.036021" style="stroke: #000000; stroke-width: 0.6"/>
      </g>
     </g>
    </g>
    <g id="ytick_26">
     <g id="line2d_39">
      <g>
       <use xlink:href="#m264ab3b63b" x="54" y="127.446039" style="stroke: #000000; stroke-width: 0.6"/>
      </g>
     </g>
    </g>
    <g id="ytick_27">
     <g id="line2d_40">
      <g>
       <use xlink:href="#m264ab3b63b" x="54" y="109.887309" style="stroke: #000000; stroke-width: 0.6"/>
      </g>
     </g>
    </g>
    <g id="ytick_28">
     <g id="line2d_41">
      <g>
       <use xlink:href="#m264ab3b63b" x="54" y="100.971362" style="stroke: #000000; stroke-width: 0.6"/>
      </g>
     </g>
    </g>
    <g id="ytick_29">
     <g id="line2d_42">
      <g>
       <use xlink:href="#m264ab3b63b" x="54" y="94.645397" style="stroke: #000000; stroke-width: 0.6"/>
      </g>
     </g>
    </g>
    <g id="ytick_30">
     <g id="line2d_43">
      <g>
       <use xlink:href="#m264ab3b63b" x="54" y="89.738598" style="stroke: #000000; stroke-width: 0.6"/>
      </g>
     </g>
    </g>
    <g id="ytick_31">
     <g id="line2d_44">
      <g>
       <use xlink:href="#m264ab3b63b" x="54" y="85.72945" style="stroke: #000000; stroke-width: 0.6"/>
      </g>
     </g>
    </g>
    <g id="ytick_32">
     <g id="line2d_45">
      <g>
       <use xlink:href="#m264ab3b63b" x="54" y="82.339765" style="stroke: #000000; stroke-width: 0.6"/>
      </g>
     </g>
    </g>
    <g id="ytick_33">
     <g id="line2d_46">
      <g>
       <use xlink:href="#m264ab3b63b" x="54" y="79.403485" style="stroke: #000000; stroke-width: 0.6"/>
      </g>
     </g>
    </g>
    <g id="ytick_34">
     <g id="line2d_47">
      <g>
       <use xlink:href="#m264ab3b63b" x="54" y="76.813504" style="stroke: #000000; stroke-width: 0.6"/>
      </g>
     </g>
    </g>
    <g id="ytick_35">
     <g id="line2d_48">
      <g>
       <use xlink:href="#m264ab3b63b" x="54" y="59.254774" style="stroke: #000000; stroke-width: 0.6"/>
      </g>
     </g>
    </g>
    <g id="ytick_36">
     <g id="line2d_49">
      <g>
       <use xlink:href="#m264ab3b63b" x="54" y="50.338827" style="stroke: #000000; stroke-width: 0.6"/>
      </g>
     </g>
    </g>
    <g id="ytick_37">
     <g id="line2d_50">
      <g>
       <use xlink:href="#m264ab3b63b" x="54" y="44.012862" style="stroke: #000000; stroke-width: 0.6"/>
      </g>
     </g>
    </g>
    <g id="ytick_38">
     <g id="line2d_51">
      <g>
       <use xlink:href="#m264ab3b63b" x="54" y="39.106062" style="stroke: #000000; stroke-width: 0.6"/>
      </g>
     </g>
    </g>
    <g id="ytick_39">
     <g id="line2d_52">
      <g>
       <use xlink:href="#m264ab3b63b" x="54" y="35.096915" style="stroke: #000000; stroke-width: 0.6"/>
      </g>
     </g>
    </g>
    <g id="text_19">
     <!-- Median NEPS -->
     <g transform="translate(23.320312 176.144844)rotate(-90)scale(0.1 -0.1)">
      <defs>
       <path id="DejaVuSans-4d" d="M 628 4666 
L 1569 4666 
L 2759 1491 
L 3956 4666 
L 4897 4666 
L 4897 0 
L 4281 0 
L 4281 4097 
L 3078 897 
L 2444 897 
L 1241 4097 
L 1241 0 
L 628 0 
L 628 4666 
z
" transform="scale(0.015625)"/>
       <path id="DejaVuSans-64" d="M 2906 2969 
L 2906 4863 
L 3481 4863 
L 3481 0 
L 2906 0 
L 2906 525 
Q 2725 213 2448 61 
Q 2172 -91 1784 -91 
Q 1150 -91 751 415 
Q 353 922 353 1747 
Q 353 2572 751 3078 
Q 1150 3584 1784 3584 
Q 2172 3584 2448 3432 
Q 2725 3281 2906 2969 
z
M 947 1747 
Q 947 1113 1208 752 
Q 1469 391 1925 391 
Q 2381 391 2643 752 
Q 2906 1113 2906 1747 
Q 2906 2381 2643 2742 
Q 2381 3103 1925 3103 
Q 1469 3103 1208 2742 
Q 947 2381 947 1747 
z
" transform="scale(0.015625)"/>
       <path id="DejaVuSans-6e" d="M 3513 2113 
L 3513 0 
L 2938 0 
L 2938 2094 
Q 2938 2591 2744 2837 
Q 2550 3084 2163 3084 
Q 1697 3084 1428 2787 
Q 1159 2491 1159 1978 
L 1159 0 
L 581 0 
L 581 3500 
L 1159 3500 
L 1159 2956 
Q 1366 3272 1645 3428 
Q 1925 3584 2291 3584 
Q 2894 3584 3203 3211 
Q 3513 2838 3513 2113 
z
" transform="scale(0.015625)"/>
       <path id="DejaVuSans-4e" d="M 628 4666 
L 1478 4666 
L 3547 763 
L 3547 4666 
L 4159 4666 
L 4159 0 
L 3309 0 
L 1241 3903 
L 1241 0 
L 628 0 
L 628 4666 
z
" transform="scale(0.015625)"/>
       <path id="DejaVuSans-45" d="M 628 4666 
L 3578 4666 
L 3578 4134 
L 1259 4134 
L 1259 2753 
L 3481 2753 
L 3481 2222 
L 1259 2222 
L 1259 531 
L 3634 531 
L 3634 0 
L 628 0 
L 628 4666 
z
" transform="scale(0.015625)"/>
       <path id="DejaVuSans-53" d="M 3425 4513 
L 3425 3897 
Q 3066 4069 2747 4153 
Q 2428 4238 2131 4238 
Q 1616 4238 1336 4038 
Q 1056 3838 1056 3469 
Q 1056 3159 1242 3001 
Q 1428 2844 1947 2747 
L 2328 2669 
Q 3034 2534 3370 2195 
Q 3706 1856 3706 1288 
Q 3706 609 3251 259 
Q 2797 -91 1919 -91 
Q 1588 -91 1214 -16 
Q 841 59 441 206 
L 441 856 
Q 825 641 1194 531 
Q 1563 422 1919 422 
Q 2459 422 2753 634 
Q 3047 847 3047 1241 
Q 3047 1584 2836 1778 
Q 2625 1972 2144 2069 
L 1759 2144 
Q 1053 2284 737 2584 
Q 422 2884 422 3419 
Q 422 4038 858 4394 
Q 1294 4750 2059 4750 
Q 2388 4750 2728 4690 
Q 3069 4631 3425 4513 
z
" transform="scale(0.015625)"/>
      </defs>
      <use xlink:href="#DejaVuSans-4d"/>
      <use xlink:href="#DejaVuSans-65" x="86.279297"/>
      <use xlink:href="#DejaVuSans-64" x="147.802734"/>
      <use xlink:href="#DejaVuSans-69" x="211.279297"/>
      <use xlink:href="#DejaVuSans-61" x="239.0625"/>
      <use xlink:href="#DejaVuSans-6e" x="300.341797"/>
      <use xlink:href="#DejaVuSans-20" x="363.720703"/>
      <use xlink:href="#DejaVuSans-4e" x="395.507812"/>
      <use xlink:href="#DejaVuSans-45" x="470.3125"/>
      <use xlink:href="#DejaVuSans-50" x="533.496094"/>
      <use xlink:href="#DejaVuSans-53" x="593.798828"/>
     </g>
    </g>
   </g>
   <g id="line2d_53">
    <path d="M 69.218182 241.490477 
L 74.127273 226.965086 
L 79.036364 220.985837 
L 83.945455 213.548091 
L 88.854545 208.910434 
L 93.763636 205.255729 
L 98.672727 202.107568 
L 103.581818 199.831409 
L 108.490909 198.097602 
L 113.4 198.304017 
L 118.309091 197.564418 
L 123.218182 200.585069 
L 128.127273 194.84611 
L 133.036364 194.117642 
L 137.945455 195.982041 
L 142.854545 194.701711 
L 147.763636 189.847443 
L 152.672727 191.607116 
L 157.581818 189.41297 
L 162.490909 188.2376 
L 167.4 191.680026 
L 172.309091 183.917455 
L 177.218182 188.64907 
L 182.127273 185.013408 
L 187.036364 183.590518 
L 191.945455 181.620238 
L 196.854545 184.501289 
L 201.763636 183.198507 
L 206.672727 182.474839 
L 211.581818 181.540489 
L 216.490909 181.331613 
L 221.4 181.610448 
L 226.309091 183.333674 
L 231.218182 181.78115 
L 236.127273 180.97731 
L 241.036364 180.3298 
L 245.945455 182.002489 
L 250.854545 180.280107 
L 255.763636 176.45586 
L 260.672727 181.341048 
L 265.581818 178.461649 
L 270.490909 178.012609 
L 275.4 179.357441 
L 280.309091 178.885795 
L 285.218182 177.019072 
L 290.127273 178.004204 
L 295.036364 177.162759 
L 299.945455 176.412382 
L 304.854545 177.940703 
L 309.763636 178.339547 
L 314.672727 174.887708 
L 319.581818 177.849551 
L 324.490909 179.834 
L 329.4 178.396254 
L 334.309091 174.860668 
L 339.218182 176.670395 
L 344.127273 175.369393 
L 349.036364 176.009341 
L 353.945455 173.683662 
L 358.854545 175.873206 
L 363.763636 173.800787 
L 368.672727 175.417813 
L 373.581818 176.383194 
" clip-path="url(#p7c8dfc1151)" style="fill: none; stroke: #1f77b4; stroke-width: 1.5; stroke-linecap: square"/>
   </g>
   <g id="line2d_54">
    <path d="M 69.218182 193.909401 
L 74.127273 183.766562 
L 79.036364 176.673212 
L 83.945455 168.972584 
L 88.854545 164.832874 
L 93.763636 161.188758 
L 98.672727 159.465404 
L 103.581818 156.475715 
L 108.490909 157.257558 
L 113.4 150.743628 
L 118.309091 155.633636 
L 123.218182 149.856196 
L 128.127273 152.019791 
L 133.036364 155.928766 
L 137.945455 149.426813 
L 142.854545 147.777721 
L 147.763636 153.424551 
L 152.672727 146.094459 
L 157.581818 150.660489 
L 162.490909 148.361525 
L 167.4 143.218572 
L 172.309091 147.144484 
L 177.218182 146.337174 
L 182.127273 145.246369 
L 187.036364 142.664227 
L 191.945455 139.767823 
L 196.854545 146.014843 
L 201.763636 144.418965 
L 206.672727 138.670904 
L 211.581818 142.321764 
L 216.490909 142.488262 
L 221.4 142.666464 
L 226.309091 143.899818 
L 231.218182 142.265208 
L 236.127273 143.194012 
L 241.036364 141.919229 
L 245.945455 141.845875 
L 250.854545 147.847103 
L 255.763636 137.527235 
L 260.672727 142.846437 
L 265.581818 142.177892 
L 270.490909 140.700272 
L 275.4 141.212392 
L 280.309091 143.194159 
L 285.218182 141.384368 
L 290.127273 142.603008 
L 295.036364 138.983527 
L 299.945455 136.132954 
L 304.854545 142.194658 
L 309.763636 141.005937 
L 314.672727 134.104985 
L 319.581818 136.263459 
L 324.490909 142.971449 
L 329.4 140.531439 
L 334.309091 135.766807 
L 339.218182 141.893756 
L 344.127273 138.529526 
L 349.036364 142.648401 
L 353.945455 136.593289 
L 358.854545 138.653714 
L 363.763636 138.710207 
L 368.672727 136.715659 
L 373.581818 138.085947 
" clip-path="url(#p7c8dfc1151)" style="fill: none; stroke: #ff7f0e; stroke-width: 1.5; stroke-linecap: square"/>
   </g>
   <g id="line2d_55">
    <path d="M 69.218182 192.022954 
L 74.127273 184.690906 
L 79.036364 176.664499 
L 83.945455 168.301815 
L 88.854545 165.786393 
L 93.763636 162.067374 
L 98.672727 159.621629 
L 103.581818 156.185016 
L 108.490909 157.684865 
L 113.4 150.575985 
L 118.309091 155.438119 
L 123.218182 149.450981 
L 128.127273 151.83201 
L 133.036364 155.064682 
L 137.945455 149.74467 
L 142.854545 146.576154 
L 147.763636 153.458558 
L 152.672727 145.979049 
L 157.581818 151.736061 
L 162.490909 149.449897 
L 167.4 143.745287 
L 172.309091 147.249958 
L 177.218182 147.076666 
L 182.127273 145.496548 
L 187.036364 142.873206 
L 191.945455 139.926492 
L 196.854545 146.779965 
L 201.763636 145.4541 
L 206.672727 139.468609 
L 211.581818 143.023232 
L 216.490909 143.030827 
L 221.4 143.473866 
L 226.309091 144.211052 
L 231.218182 143.115638 
L 236.127273 143.283171 
L 241.036364 141.337288 
L 245.945455 142.159921 
L 250.854545 148.568544 
L 255.763636 137.114197 
L 260.672727 143.230228 
L 265.581818 142.418238 
L 270.490909 140.911619 
L 275.4 141.466717 
L 280.309091 144.067634 
L 285.218182 142.37027 
L 290.127273 143.375268 
L 295.036364 139.541014 
L 299.945455 135.995143 
L 304.854545 142.390434 
L 309.763636 141.02664 
L 314.672727 134.173066 
L 319.581818 137.11164 
L 324.490909 143.290442 
L 329.4 140.72521 
L 334.309091 135.943142 
L 339.218182 142.157849 
L 344.127273 144.733144 
L 349.036364 148.627824 
L 353.945455 142.365949 
L 358.854545 145.083317 
L 363.763636 144.221216 
L 368.672727 143.247785 
L 373.581818 144.188365 
" clip-path="url(#p7c8dfc1151)" style="fill: none; stroke: #2ca02c; stroke-width: 1.5; stroke-linecap: square"/>
   </g>
   <g id="line2d_56">
    <path d="M 69.218182 130.198144 
L 74.127273 112.953901 
L 79.036364 101.294421 
L 83.945455 97.007467 
L 88.854545 89.659293 
L 93.763636 88.999756 
L 98.672727 89.004763 
L 103.581818 85.300906 
L 108.490909 84.068148 
L 113.4 80.099532 
L 118.309091 75.098093 
L 123.218182 77.685193 
L 128.127273 75.044612 
L 133.036364 74.303431 
L 137.945455 71.7165 
L 142.854545 70.96902 
L 147.763636 73.102341 
L 152.672727 70.125412 
L 157.581818 69.239179 
L 162.490909 69.171569 
L 167.4 64.872062 
L 172.309091 68.057819 
L 177.218182 62.291449 
L 182.127273 64.75241 
L 187.036364 64.719476 
L 191.945455 64.372335 
L 196.854545 55.065062 
L 201.763636 61.334878 
L 206.672727 60.491678 
L 211.581818 63.494815 
L 216.490909 60.095378 
L 221.4 61.737602 
L 226.309091 62.18972 
L 231.218182 60.542174 
L 236.127273 55.864355 
L 241.036364 62.825907 
L 245.945455 56.520646 
L 250.854545 58.90245 
L 255.763636 56.88778 
L 260.672727 56.950169 
L 265.581818 56.810058 
L 270.490909 52.234546 
L 275.4 52.937671 
L 280.309091 55.702818 
L 285.218182 57.465301 
L 290.127273 55.24945 
L 295.036364 57.870265 
L 299.945455 51.015478 
L 304.854545 51.973739 
L 309.763636 51.747751 
L 314.672727 52.164294 
L 319.581818 53.994158 
L 324.490909 51.979811 
L 329.4 51.891014 
L 334.309091 49.758717 
L 339.218182 54.643427 
L 344.127273 50.476696 
L 349.036364 50.716773 
L 353.945455 51.164325 
L 358.854545 48.072649 
L 363.763636 48.76396 
L 368.672727 48.570175 
L 373.581818 48.828443 
" clip-path="url(#p7c8dfc1151)" style="fill: none; stroke: #d62728; stroke-width: 1.5; stroke-linecap: square"/>
   </g>
   <g id="patch_3">
    <path d="M 54 252 
L 54 34.56 
" style="fill: none; stroke: #000000; stroke-width: 0.8; stroke-linejoin: miter; stroke-linecap: square"/>
   </g>
   <g id="patch_4">
    <path d="M 388.8 252 
L 388.8 34.56 
" style="fill: none; stroke: #000000; stroke-width: 0.8; stroke-linejoin: miter; stroke-linecap: square"/>
   </g>
   <g id="patch_5">
    <path d="M 54 252 
L 388.8 252 
" style="fill: none; stroke: #000000; stroke-width: 0.8; stroke-linejoin: miter; stroke-linecap: square"/>
   </g>
   <g id="patch_6">
    <path d="M 54 34.56 
L 388.8 34.56 
" style="fill: none; stroke: #000000; stroke-width: 0.8; stroke-linejoin: miter; stroke-linecap: square"/>
   </g>
   <g id="text_20">
    <!-- Median NEPS vs. Program Size (1000 f.c., nicolau_b) -->
    <g transform="translate(65.264063 28.56)scale(0.12 -0.12)">
     <defs>
      <path id="DejaVuSans-76" d="M 191 3500 
L 800 3500 
L 1894 563 
L 2988 3500 
L 3597 3500 
L 2284 0 
L 1503 0 
L 191 3500 
z
" transform="scale(0.015625)"/>
      <path id="DejaVuSans-2e" d="M 684 794 
L 1344 794 
L 1344 0 
L 684 0 
L 684 794 
z
" transform="scale(0.015625)"/>
      <path id="DejaVuSans-28" d="M 1984 4856 
Q 1566 4138 1362 3434 
Q 1159 2731 1159 2009 
Q 1159 1288 1364 580 
Q 1569 -128 1984 -844 
L 1484 -844 
Q 1016 -109 783 600 
Q 550 1309 550 2009 
Q 550 2706 781 3412 
Q 1013 4119 1484 4856 
L 1984 4856 
z
" transform="scale(0.015625)"/>
      <path id="DejaVuSans-66" d="M 2375 4863 
L 2375 4384 
L 1825 4384 
Q 1516 4384 1395 4259 
Q 1275 4134 1275 3809 
L 1275 3500 
L 2222 3500 
L 2222 3053 
L 1275 3053 
L 1275 0 
L 697 0 
L 697 3053 
L 147 3053 
L 147 3500 
L 697 3500 
L 697 3744 
Q 697 4328 969 4595 
Q 1241 4863 1831 4863 
L 2375 4863 
z
" transform="scale(0.015625)"/>
      <path id="DejaVuSans-63" d="M 3122 3366 
L 3122 2828 
Q 2878 2963 2633 3030 
Q 2388 3097 2138 3097 
Q 1578 3097 1268 2742 
Q 959 2388 959 1747 
Q 959 1106 1268 751 
Q 1578 397 2138 397 
Q 2388 397 2633 464 
Q 2878 531 3122 666 
L 3122 134 
Q 2881 22 2623 -34 
Q 2366 -91 2075 -91 
Q 1284 -91 818 406 
Q 353 903 353 1747 
Q 353 2603 823 3093 
Q 1294 3584 2113 3584 
Q 2378 3584 2631 3529 
Q 2884 3475 3122 3366 
z
" transform="scale(0.015625)"/>
      <path id="DejaVuSans-2c" d="M 750 794 
L 1409 794 
L 1409 256 
L 897 -744 
L 494 -744 
L 750 256 
L 750 794 
z
" transform="scale(0.015625)"/>
      <path id="DejaVuSans-6c" d="M 603 4863 
L 1178 4863 
L 1178 0 
L 603 0 
L 603 4863 
z
" transform="scale(0.015625)"/>
      <path id="DejaVuSans-75" d="M 544 1381 
L 544 3500 
L 1119 3500 
L 1119 1403 
Q 1119 906 1312 657 
Q 1506 409 1894 409 
Q 2359 409 2629 706 
Q 2900 1003 2900 1516 
L 2900 3500 
L 3475 3500 
L 3475 0 
L 2900 0 
L 2900 538 
Q 2691 219 2414 64 
Q 2138 -91 1772 -91 
Q 1169 -91 856 284 
Q 544 659 544 1381 
z
M 1991 3584 
L 1991 3584 
z
" transform="scale(0.015625)"/>
      <path id="DejaVuSans-5f" d="M 3263 -1063 
L 3263 -1509 
L -63 -1509 
L -63 -1063 
L 3263 -1063 
z
" transform="scale(0.015625)"/>
      <path id="DejaVuSans-62" d="M 3116 1747 
Q 3116 2381 2855 2742 
Q 2594 3103 2138 3103 
Q 1681 3103 1420 2742 
Q 1159 2381 1159 1747 
Q 1159 1113 1420 752 
Q 1681 391 2138 391 
Q 2594 391 2855 752 
Q 3116 1113 3116 1747 
z
M 1159 2969 
Q 1341 3281 1617 3432 
Q 1894 3584 2278 3584 
Q 2916 3584 3314 3078 
Q 3713 2572 3713 1747 
Q 3713 922 3314 415 
Q 2916 -91 2278 -91 
Q 1894 -91 1617 61 
Q 1341 213 1159 525 
L 1159 0 
L 581 0 
L 581 4863 
L 1159 4863 
L 1159 2969 
z
" transform="scale(0.015625)"/>
      <path id="DejaVuSans-29" d="M 513 4856 
L 1013 4856 
Q 1481 4119 1714 3412 
Q 1947 2706 1947 2009 
Q 1947 1309 1714 600 
Q 1481 -109 1013 -844 
L 513 -844 
Q 928 -128 1133 580 
Q 1338 1288 1338 2009 
Q 1338 2731 1133 3434 
Q 928 4138 513 4856 
z
" transform="scale(0.015625)"/>
     </defs>
     <use xlink:href="#DejaVuSans-4d"/>
     <use xlink:href="#DejaVuSans-65" x="86.279297"/>
     <use xlink:href="#DejaVuSans-64" x="147.802734"/>
     <use xlink:href="#DejaVuSans-69" x="211.279297"/>
     <use xlink:href="#DejaVuSans-61" x="239.0625"/>
     <use xlink:href="#DejaVuSans-6e" x="300.341797"/>
     <use xlink:href="#DejaVuSans-20" x="363.720703"/>
     <use xlink:href="#DejaVuSans-4e" x="395.507812"/>
     <use xlink:href="#DejaVuSans-45" x="470.3125"/>
     <use xlink:href="#DejaVuSans-50" x="533.496094"/>
     <use xlink:href="#DejaVuSans-53" x="593.798828"/>
     <use xlink:href="#DejaVuSans-20" x="657.275391"/>
     <use xlink:href="#DejaVuSans-76" x="689.0625"/>
     <use xlink:href="#DejaVuSans-73" x="748.242188"/>
     <use xlink:href="#DejaVuSans-2e" x="800.341797"/>
     <use xlink:href="#DejaVuSans-20" x="832.128906"/>
     <use xlink:href="#DejaVuSans-50" x="863.916016"/>
     <use xlink:href="#DejaVuSans-72" x="922.46875"/>
     <use xlink:href="#DejaVuSans-6f" x="961.332031"/>
     <use xlink:href="#DejaVuSans-67" x="1022.513672"/>
     <use xlink:href="#DejaVuSans-72" x="1085.990234"/>
     <use xlink:href="#DejaVuSans-61" x="1127.103516"/>
     <use xlink:href="#DejaVuSans-6d" x="1188.382812"/>
     <use xlink:href="#DejaVuSans-20" x="1285.794922"/>
     <use xlink:href="#DejaVuSans-53" x="1317.582031"/>
     <use xlink:href="#DejaVuSans-69" x="1381.058594"/>
     <use xlink:href="#DejaVuSans-7a" x="1408.841797"/>
     <use xlink:href="#DejaVuSans-65" x="1461.332031"/>
     <use xlink:href="#DejaVuSans-20" x="1522.855469"/>
     <use xlink:href="#DejaVuSans-28" x="1554.642578"/>
     <use xlink:href="#DejaVuSans-31" x="1593.65625"/>
     <use xlink:href="#DejaVuSans-30" x="1657.279297"/>
     <use xlink:href="#DejaVuSans-30" x="1720.902344"/>
     <use xlink:href="#DejaVuSans-30" x="1784.525391"/>
     <use xlink:href="#DejaVuSans-20" x="1848.148438"/>
     <use xlink:href="#DejaVuSans-66" x="1879.935547"/>
     <use xlink:href="#DejaVuSans-2e" x="1907.890625"/>
     <use xlink:href="#DejaVuSans-63" x="1939.677734"/>
     <use xlink:href="#DejaVuSans-2e" x="1994.658203"/>
     <use xlink:href="#DejaVuSans-2c" x="2026.445312"/>
     <use xlink:href="#DejaVuSans-20" x="2058.232422"/>
     <use xlink:href="#DejaVuSans-6e" x="2090.019531"/>
     <use xlink:href="#DejaVuSans-69" x="2153.398438"/>
     <use xlink:href="#DejaVuSans-63" x="2181.181641"/>
     <use xlink:href="#DejaVuSans-6f" x="2236.162109"/>
     <use xlink:href="#DejaVuSans-6c" x="2297.34375"/>
     <use xlink:href="#DejaVuSans-61" x="2325.126953"/>
     <use xlink:href="#DejaVuSans-75" x="2386.40625"/>
     <use xlink:href="#DejaVuSans-5f" x="2449.785156"/>
     <use xlink:href="#DejaVuSans-62" x="2499.785156"/>
     <use xlink:href="#DejaVuSans-29" x="2563.261719"/>
    </g>
   </g>
   <g id="legend_1">
    <g id="patch_7">
     <path d="M 61 101.2725 
L 171.19375 101.2725 
Q 173.19375 101.2725 173.19375 99.2725 
L 173.19375 41.56 
Q 173.19375 39.56 171.19375 39.56 
L 61 39.56 
Q 59 39.56 59 41.56 
L 59 99.2725 
Q 59 101.2725 61 101.2725 
z
" style="fill: #ffffff; opacity: 0.8; stroke: #cccccc; stroke-linejoin: miter"/>
    </g>
    <g id="line2d_57">
     <path d="M 63 47.658437 
L 73 47.658437 
L 83 47.658437 
" style="fill: none; stroke: #1f77b4; stroke-width: 1.5; stroke-linecap: square"/>
    </g>
    <g id="text_21">
     <!-- DEAP -->
     <g transform="translate(91 51.158437)scale(0.1 -0.1)">
      <defs>
       <path id="DejaVuSans-44" d="M 1259 4147 
L 1259 519 
L 2022 519 
Q 2988 519 3436 956 
Q 3884 1394 3884 2338 
Q 3884 3275 3436 3711 
Q 2988 4147 2022 4147 
L 1259 4147 
z
M 628 4666 
L 1925 4666 
Q 3281 4666 3915 4102 
Q 4550 3538 4550 2338 
Q 4550 1131 3912 565 
Q 3275 0 1925 0 
L 628 0 
L 628 4666 
z
" transform="scale(0.015625)"/>
       <path id="DejaVuSans-41" d="M 2188 4044 
L 1331 1722 
L 3047 1722 
L 2188 4044 
z
M 1831 4666 
L 2547 4666 
L 4325 0 
L 3669 0 
L 3244 1197 
L 1141 1197 
L 716 0 
L 50 0 
L 1831 4666 
z
" transform="scale(0.015625)"/>
      </defs>
      <use xlink:href="#DejaVuSans-44"/>
      <use xlink:href="#DejaVuSans-45" x="77.001953"/>
      <use xlink:href="#DejaVuSans-41" x="140.185547"/>
      <use xlink:href="#DejaVuSans-50" x="208.59375"/>
     </g>
    </g>
    <g id="line2d_58">
     <path d="M 63 62.336562 
L 73 62.336562 
L 83 62.336562 
" style="fill: none; stroke: #ff7f0e; stroke-width: 1.5; stroke-linecap: square"/>
    </g>
    <g id="text_22">
     <!-- TensorGP (CPU) -->
     <g transform="translate(91 65.836562)scale(0.1 -0.1)">
      <defs>
       <path id="DejaVuSans-54" d="M -19 4666 
L 3928 4666 
L 3928 4134 
L 2272 4134 
L 2272 0 
L 1638 0 
L 1638 4134 
L -19 4134 
L -19 4666 
z
" transform="scale(0.015625)"/>
       <path id="DejaVuSans-47" d="M 3809 666 
L 3809 1919 
L 2778 1919 
L 2778 2438 
L 4434 2438 
L 4434 434 
Q 4069 175 3628 42 
Q 3188 -91 2688 -91 
Q 1594 -91 976 548 
Q 359 1188 359 2328 
Q 359 3472 976 4111 
Q 1594 4750 2688 4750 
Q 3144 4750 3555 4637 
Q 3966 4525 4313 4306 
L 4313 3634 
Q 3963 3931 3569 4081 
Q 3175 4231 2741 4231 
Q 1884 4231 1454 3753 
Q 1025 3275 1025 2328 
Q 1025 1384 1454 906 
Q 1884 428 2741 428 
Q 3075 428 3337 486 
Q 3600 544 3809 666 
z
" transform="scale(0.015625)"/>
       <path id="DejaVuSans-43" d="M 4122 4306 
L 4122 3641 
Q 3803 3938 3442 4084 
Q 3081 4231 2675 4231 
Q 1875 4231 1450 3742 
Q 1025 3253 1025 2328 
Q 1025 1406 1450 917 
Q 1875 428 2675 428 
Q 3081 428 3442 575 
Q 3803 722 4122 1019 
L 4122 359 
Q 3791 134 3420 21 
Q 3050 -91 2638 -91 
Q 1578 -91 968 557 
Q 359 1206 359 2328 
Q 359 3453 968 4101 
Q 1578 4750 2638 4750 
Q 3056 4750 3426 4639 
Q 3797 4528 4122 4306 
z
" transform="scale(0.015625)"/>
       <path id="DejaVuSans-55" d="M 556 4666 
L 1191 4666 
L 1191 1831 
Q 1191 1081 1462 751 
Q 1734 422 2344 422 
Q 2950 422 3222 751 
Q 3494 1081 3494 1831 
L 3494 4666 
L 4128 4666 
L 4128 1753 
Q 4128 841 3676 375 
Q 3225 -91 2344 -91 
Q 1459 -91 1007 375 
Q 556 841 556 1753 
L 556 4666 
z
" transform="scale(0.015625)"/>
      </defs>
      <use xlink:href="#DejaVuSans-54"/>
      <use xlink:href="#DejaVuSans-65" x="44.083984"/>
      <use xlink:href="#DejaVuSans-6e" x="105.607422"/>
      <use xlink:href="#DejaVuSans-73" x="168.986328"/>
      <use xlink:href="#DejaVuSans-6f" x="221.085938"/>
      <use xlink:href="#DejaVuSans-72" x="282.267578"/>
      <use xlink:href="#DejaVuSans-47" x="323.380859"/>
      <use xlink:href="#DejaVuSans-50" x="400.871094"/>
      <use xlink:href="#DejaVuSans-20" x="461.173828"/>
      <use xlink:href="#DejaVuSans-28" x="492.960938"/>
      <use xlink:href="#DejaVuSans-43" x="531.974609"/>
      <use xlink:href="#DejaVuSans-50" x="601.798828"/>
      <use xlink:href="#DejaVuSans-55" x="662.101562"/>
      <use xlink:href="#DejaVuSans-29" x="735.294922"/>
     </g>
    </g>
    <g id="line2d_59">
     <path d="M 63 77.014687 
L 73 77.014687 
L 83 77.014687 
" style="fill: none; stroke: #2ca02c; stroke-width: 1.5; stroke-linecap: square"/>
    </g>
    <g id="text_23">
     <!-- TensorGP (GPU) -->
     <g transform="translate(91 80.514687)scale(0.1 -0.1)">
      <use xlink:href="#DejaVuSans-54"/>
      <use xlink:href="#DejaVuSans-65" x="44.083984"/>
      <use xlink:href="#DejaVuSans-6e" x="105.607422"/>
      <use xlink:href="#DejaVuSans-73" x="168.986328"/>
      <use xlink:href="#DejaVuSans-6f" x="221.085938"/>
      <use xlink:href="#DejaVuSans-72" x="282.267578"/>
      <use xlink:href="#DejaVuSans-47" x="323.380859"/>
      <use xlink:href="#DejaVuSans-50" x="400.871094"/>
      <use xlink:href="#DejaVuSans-20" x="461.173828"/>
      <use xlink:href="#DejaVuSans-28" x="492.960938"/>
      <use xlink:href="#DejaVuSans-47" x="531.974609"/>
      <use xlink:href="#DejaVuSans-50" x="609.464844"/>
      <use xlink:href="#DejaVuSans-55" x="669.767578"/>
      <use xlink:href="#DejaVuSans-29" x="742.960938"/>
     </g>
    </g>
    <g id="line2d_60">
     <path d="M 63 91.692813 
L 73 91.692813 
L 83 91.692813 
" style="fill: none; stroke: #d62728; stroke-width: 1.5; stroke-linecap: square"/>
    </g>
    <g id="text_24">
     <!-- Operon -->
     <g transform="translate(91 95.192813)scale(0.1 -0.1)">
      <defs>
       <path id="DejaVuSans-4f" d="M 2522 4238 
Q 1834 4238 1429 3725 
Q 1025 3213 1025 2328 
Q 1025 1447 1429 934 
Q 1834 422 2522 422 
Q 3209 422 3611 934 
Q 4013 1447 4013 2328 
Q 4013 3213 3611 3725 
Q 3209 4238 2522 4238 
z
M 2522 4750 
Q 3503 4750 4090 4092 
Q 4678 3434 4678 2328 
Q 4678 1225 4090 567 
Q 3503 -91 2522 -91 
Q 1538 -91 948 565 
Q 359 1222 359 2328 
Q 359 3434 948 4092 
Q 1538 4750 2522 4750 
z
" transform="scale(0.015625)"/>
       <path id="DejaVuSans-70" d="M 1159 525 
L 1159 -1331 
L 581 -1331 
L 581 3500 
L 1159 3500 
L 1159 2969 
Q 1341 3281 1617 3432 
Q 1894 3584 2278 3584 
Q 2916 3584 3314 3078 
Q 3713 2572 3713 1747 
Q 3713 922 3314 415 
Q 2916 -91 2278 -91 
Q 1894 -91 1617 61 
Q 1341 213 1159 525 
z
M 3116 1747 
Q 3116 2381 2855 2742 
Q 2594 3103 2138 3103 
Q 1681 3103 1420 2742 
Q 1159 2381 1159 1747 
Q 1159 1113 1420 752 
Q 1681 391 2138 391 
Q 2594 391 2855 752 
Q 3116 1113 3116 1747 
z
" transform="scale(0.015625)"/>
      </defs>
      <use xlink:href="#DejaVuSans-4f"/>
      <use xlink:href="#DejaVuSans-70" x="78.710938"/>
      <use xlink:href="#DejaVuSans-65" x="142.1875"/>
      <use xlink:href="#DejaVuSans-72" x="203.710938"/>
      <use xlink:href="#DejaVuSans-6f" x="242.574219"/>
      <use xlink:href="#DejaVuSans-6e" x="303.755859"/>
     </g>
    </g>
   </g>
  </g>
 </g>
 <defs>
  <clipPath id="p7c8dfc1151">
   <rect x="54" y="34.56" width="334.8" height="217.44"/>
  </clipPath>
 </defs>
</svg>
