<?xml version="1.0" encoding="utf-8" standalone="no"?>
<!DOCTYPE svg PUBLIC "-//W3C//DTD SVG 1.1//EN"
  "http://www.w3.org/Graphics/SVG/1.1/DTD/svg11.dtd">
<svg xmlns:xlink="http://www.w3.org/1999/xlink" width="432pt" height="288pt" viewBox="0 0 432 288" xmlns="http://www.w3.org/2000/svg" version="1.1">
 <metadata>
  <rdf:RDF xmlns:dc="http://purl.org/dc/elements/1.1/" xmlns:cc="http://creativecommons.org/ns#" xmlns:rdf="http://www.w3.org/1999/02/22-rdf-syntax-ns#">
   <cc:Work>
    <dc:type rdf:resource="http://purl.org/dc/dcmitype/StillImage"/>
    <dc:date>2022-01-12T03:40:12.608637</dc:date>
    <dc:format>image/svg+xml</dc:format>
    <dc:creator>
     <cc:Agent>
      <dc:title>Matplotlib v3.5.1, https://matplotlib.org/</dc:title>
     </cc:Agent>
    </dc:creator>
   </cc:Work>
  </rdf:RDF>
 </metadata>
 <defs>
  <style type="text/css">*{stroke-linejoin: round; stroke-linecap: butt}</style>
 </defs>
 <g id="figure_1">
  <g id="patch_1">
   <path d="M 0 288 
L 432 288 
L 432 0 
L 0 0 
L 0 288 
z
" style="fill: none"/>
  </g>
  <g id="axes_1">
   <g id="patch_2">
    <path d="M 54 252 
L 388.8 252 
L 388.8 34.56 
L 54 34.56 
z
" style="fill: #ffffff"/>
   </g>
   <g id="PolyCollection_1">
    <path d="M 69.218182 241.885023 
L 69.218182 242.116364 
L 74.127273 233.935462 
L 79.036364 230.902384 
L 83.945455 225.412713 
L 88.854545 220.917009 
L 93.763636 219.811965 
L 98.672727 217.524817 
L 103.581818 216.631211 
L 108.490909 215.76017 
L 113.4 215.002636 
L 118.309091 216.704383 
L 123.218182 214.394794 
L 128.127273 215.005891 
L 133.036364 215.109116 
L 137.945455 210.275569 
L 142.854545 211.091059 
L 147.763636 212.385774 
L 152.672727 207.85564 
L 157.581818 212.745648 
L 162.490909 210.938266 
L 167.4 210.881842 
L 172.309091 206.928867 
L 177.218182 211.804492 
L 182.127273 209.565703 
L 187.036364 208.24157 
L 191.945455 206.58359 
L 196.854545 211.008672 
L 201.763636 209.931316 
L 206.672727 210.120525 
L 211.581818 208.999351 
L 216.490909 208.579288 
L 221.4 209.561922 
L 226.309091 212.576638 
L 231.218182 210.646232 
L 236.127273 209.053359 
L 241.036364 208.502224 
L 245.945455 211.391629 
L 250.854545 208.53605 
L 255.763636 205.347871 
L 260.672727 211.891938 
L 265.581818 207.807733 
L 270.490909 207.751047 
L 275.4 209.564399 
L 280.309091 209.304356 
L 285.218182 207.335431 
L 290.127273 208.486688 
L 295.036364 207.236644 
L 299.945455 206.517889 
L 304.854545 206.554573 
L 309.763636 208.735956 
L 314.672727 204.932106 
L 319.581818 207.417169 
L 324.490909 209.007532 
L 329.4 208.919742 
L 334.309091 205.194058 
L 339.218182 208.185369 
L 344.127273 206.833491 
L 349.036364 207.757576 
L 353.945455 205.304266 
L 358.854545 207.306856 
L 363.763636 205.496521 
L 368.672727 207.573379 
L 373.581818 208.114761 
L 373.581818 208.018045 
L 373.581818 208.018045 
L 368.672727 207.531451 
L 363.763636 205.337256 
L 358.854545 207.032527 
L 353.945455 205.138546 
L 349.036364 207.556382 
L 344.127273 206.666516 
L 339.218182 207.873047 
L 334.309091 205.124411 
L 329.4 208.66454 
L 324.490909 208.858002 
L 319.581818 207.119736 
L 314.672727 204.766313 
L 309.763636 208.555463 
L 304.854545 206.430644 
L 299.945455 206.352289 
L 295.036364 207.142341 
L 290.127273 208.328275 
L 285.218182 207.318736 
L 280.309091 209.169143 
L 275.4 209.206426 
L 270.490909 207.592762 
L 265.581818 207.707676 
L 260.672727 211.585889 
L 255.763636 205.158491 
L 250.854545 208.495245 
L 245.945455 211.182183 
L 241.036364 208.338379 
L 236.127273 208.640534 
L 231.218182 210.368877 
L 226.309091 212.251139 
L 221.4 209.386369 
L 216.490909 208.393931 
L 211.581818 208.870352 
L 206.672727 209.954137 
L 201.763636 209.723487 
L 196.854545 210.793278 
L 191.945455 206.263414 
L 187.036364 208.20233 
L 182.127273 209.312998 
L 177.218182 211.464826 
L 172.309091 206.56869 
L 167.4 210.477279 
L 162.490909 210.861797 
L 157.581818 212.321196 
L 152.672727 207.621144 
L 147.763636 212.261482 
L 142.854545 210.839295 
L 137.945455 209.774884 
L 133.036364 215.069486 
L 128.127273 214.686247 
L 123.218182 214.083964 
L 118.309091 216.51036 
L 113.4 214.794998 
L 108.490909 215.487158 
L 103.581818 216.188083 
L 98.672727 217.429053 
L 93.763636 219.452044 
L 88.854545 220.701682 
L 83.945455 225.109378 
L 79.036364 230.578461 
L 74.127273 233.17061 
L 69.218182 241.885023 
z
" clip-path="url(#pbc6645cb38)" style="fill: #1f77b4"/>
   </g>
   <g id="PolyCollection_2">
    <path d="M 69.218182 159.191099 
L 69.218182 159.507266 
L 74.127273 153.088497 
L 79.036364 147.45657 
L 83.945455 143.992401 
L 88.854545 140.352951 
L 93.763636 138.060928 
L 98.672727 135.144377 
L 103.581818 134.51812 
L 108.490909 134.619402 
L 113.4 134.21405 
L 118.309091 135.950153 
L 123.218182 131.253205 
L 128.127273 131.501843 
L 133.036364 134.708136 
L 137.945455 128.144513 
L 142.854545 130.186026 
L 147.763636 136.424439 
L 152.672727 126.999842 
L 157.581818 131.082585 
L 162.490909 132.2181 
L 167.4 126.738944 
L 172.309091 131.232025 
L 177.218182 130.55016 
L 182.127273 126.328631 
L 187.036364 124.775239 
L 191.945455 123.141563 
L 196.854545 127.810243 
L 201.763636 125.352098 
L 206.672727 123.065175 
L 211.581818 125.83067 
L 216.490909 124.759982 
L 221.4 126.169381 
L 226.309091 128.610247 
L 231.218182 123.92662 
L 236.127273 124.739737 
L 241.036364 125.952413 
L 245.945455 129.444789 
L 250.854545 131.919652 
L 255.763636 121.76411 
L 260.672727 126.411558 
L 265.581818 124.536951 
L 270.490909 124.30381 
L 275.4 123.723872 
L 280.309091 126.00254 
L 285.218182 125.300595 
L 290.127273 125.540875 
L 295.036364 123.917556 
L 299.945455 121.031604 
L 304.854545 124.559006 
L 309.763636 124.811685 
L 314.672727 119.398152 
L 319.581818 121.338064 
L 324.490909 125.722092 
L 329.4 123.860015 
L 334.309091 120.065478 
L 339.218182 123.855235 
L 344.127273 121.46651 
L 349.036364 124.440635 
L 353.945455 119.887848 
L 358.854545 122.368473 
L 363.763636 120.927661 
L 368.672727 121.187859 
L 373.581818 121.854378 
L 373.581818 121.319498 
L 373.581818 121.319498 
L 368.672727 120.338942 
L 363.763636 120.290532 
L 358.854545 122.210039 
L 353.945455 119.738794 
L 349.036364 124.096513 
L 344.127273 120.853523 
L 339.218182 123.697653 
L 334.309091 119.713261 
L 329.4 123.326767 
L 324.490909 125.483174 
L 319.581818 121.241783 
L 314.672727 118.448297 
L 309.763636 124.458516 
L 304.854545 124.427669 
L 299.945455 120.759301 
L 295.036364 122.835087 
L 290.127273 124.880067 
L 285.218182 124.952738 
L 280.309091 125.132336 
L 275.4 123.072271 
L 270.490909 123.765324 
L 265.581818 123.834042 
L 260.672727 125.555505 
L 255.763636 120.763962 
L 250.854545 129.095055 
L 245.945455 125.541675 
L 241.036364 125.290322 
L 236.127273 124.499315 
L 231.218182 123.337693 
L 226.309091 127.782172 
L 221.4 125.625627 
L 216.490909 124.311731 
L 211.581818 123.903847 
L 206.672727 122.939879 
L 201.763636 125.173827 
L 196.854545 126.984508 
L 191.945455 122.869208 
L 187.036364 124.104444 
L 182.127273 126.123108 
L 177.218182 127.968571 
L 172.309091 128.388162 
L 167.4 126.294105 
L 162.490909 128.875431 
L 157.581818 130.800871 
L 152.672727 126.183646 
L 147.763636 133.64402 
L 142.854545 127.85753 
L 137.945455 127.670822 
L 133.036364 132.740859 
L 128.127273 130.732531 
L 123.218182 129.195329 
L 118.309091 134.194343 
L 113.4 131.959538 
L 108.490909 133.508868 
L 103.581818 133.633266 
L 98.672727 134.580185 
L 93.763636 137.716729 
L 88.854545 139.481376 
L 83.945455 143.753269 
L 79.036364 146.179174 
L 74.127273 152.574656 
L 69.218182 159.191099 
z
" clip-path="url(#pbc6645cb38)" style="fill: #ff7f0e"/>
   </g>
   <g id="PolyCollection_3">
    <path d="M 69.218182 160.570801 
L 69.218182 161.217638 
L 74.127273 153.985864 
L 79.036364 149.692488 
L 83.945455 143.845763 
L 88.854545 140.643948 
L 93.763636 141.668202 
L 98.672727 135.91261 
L 103.581818 133.487361 
L 108.490909 134.867775 
L 113.4 130.294519 
L 118.309091 135.76075 
L 123.218182 130.201204 
L 128.127273 131.514211 
L 133.036364 133.974792 
L 137.945455 128.167552 
L 142.854545 127.940071 
L 147.763636 133.149732 
L 152.672727 126.437581 
L 157.581818 131.582612 
L 162.490909 131.868108 
L 167.4 134.541863 
L 172.309091 133.892012 
L 177.218182 128.365636 
L 182.127273 125.908988 
L 187.036364 124.256447 
L 191.945455 123.277619 
L 196.854545 127.032884 
L 201.763636 127.157468 
L 206.672727 123.564459 
L 211.581818 125.667351 
L 216.490909 123.729332 
L 221.4 127.314047 
L 226.309091 127.170082 
L 231.218182 124.609865 
L 236.127273 125.54397 
L 241.036364 123.946815 
L 245.945455 125.835914 
L 250.854545 129.201186 
L 255.763636 122.050453 
L 260.672727 127.907602 
L 265.581818 123.785591 
L 270.490909 125.596111 
L 275.4 124.83377 
L 280.309091 126.101273 
L 285.218182 126.116506 
L 290.127273 125.563622 
L 295.036364 123.423487 
L 299.945455 120.911503 
L 304.854545 124.783027 
L 309.763636 124.173237 
L 314.672727 119.104352 
L 319.581818 121.898073 
L 324.490909 126.180167 
L 329.4 125.315011 
L 334.309091 122.865849 
L 339.218182 127.719585 
L 344.127273 126.175753 
L 349.036364 130.561576 
L 353.945455 122.351348 
L 358.854545 124.7832 
L 363.763636 122.375682 
L 368.672727 122.599998 
L 373.581818 124.151865 
L 373.581818 122.614663 
L 373.581818 122.614663 
L 368.672727 121.382431 
L 363.763636 120.629908 
L 358.854545 123.51459 
L 353.945455 121.903926 
L 349.036364 126.797509 
L 344.127273 123.184388 
L 339.218182 126.220443 
L 334.309091 122.060122 
L 329.4 124.000759 
L 324.490909 125.499863 
L 319.581818 121.097011 
L 314.672727 118.64087 
L 309.763636 124.001259 
L 304.854545 123.902029 
L 299.945455 120.38452 
L 295.036364 122.711913 
L 290.127273 124.804211 
L 285.218182 124.951318 
L 280.309091 125.820763 
L 275.4 124.245298 
L 270.490909 125.063419 
L 265.581818 123.377668 
L 260.672727 126.06276 
L 255.763636 121.207495 
L 250.854545 128.186327 
L 245.945455 124.456547 
L 241.036364 123.807979 
L 236.127273 124.768788 
L 231.218182 124.529253 
L 226.309091 126.002706 
L 221.4 125.851319 
L 216.490909 123.07334 
L 211.581818 125.048127 
L 206.672727 123.168451 
L 201.763636 124.796067 
L 196.854545 126.936101 
L 191.945455 122.440607 
L 187.036364 124.0626 
L 182.127273 125.657273 
L 177.218182 127.567132 
L 172.309091 132.917038 
L 167.4 132.335706 
L 162.490909 131.394374 
L 157.581818 130.817971 
L 152.672727 125.818438 
L 147.763636 132.643748 
L 142.854545 127.129721 
L 137.945455 127.387737 
L 133.036364 132.491013 
L 128.127273 131.040098 
L 123.218182 129.369747 
L 118.309091 132.745479 
L 113.4 130.209526 
L 108.490909 133.965969 
L 103.581818 132.894961 
L 98.672727 135.327424 
L 93.763636 138.952676 
L 88.854545 139.570447 
L 83.945455 143.366516 
L 79.036364 148.847061 
L 74.127273 153.902968 
L 69.218182 160.570801 
z
" clip-path="url(#pbc6645cb38)" style="fill: #2ca02c"/>
   </g>
   <g id="PolyCollection_4">
    <path d="M 69.218182 125.337143 
L 69.218182 140.828512 
L 74.127273 127.374508 
L 79.036364 118.652027 
L 83.945455 124.042621 
L 88.854545 117.917083 
L 93.763636 117.356318 
L 98.672727 112.372613 
L 103.581818 113.039117 
L 108.490909 110.882125 
L 113.4 39242.129593 
L 118.309091 113.220937 
L 123.218182 111.314852 
L 128.127273 106.214554 
L 133.036364 105.112948 
L 137.945455 104.322439 
L 142.854545 106.607883 
L 147.763636 108.08939 
L 152.672727 102.087195 
L 157.581818 102.930336 
L 162.490909 106.423999 
L 167.4 104.946127 
L 172.309091 105.029567 
L 177.218182 104.985532 
L 182.127273 103.204319 
L 187.036364 101.307653 
L 191.945455 100.51187 
L 196.854545 102.636826 
L 201.763636 99.993475 
L 206.672727 101.064651 
L 211.581818 101.843773 
L 216.490909 96.780698 
L 221.4 101.094916 
L 226.309091 104.931127 
L 231.218182 100.051386 
L 236.127273 104.121009 
L 241.036364 102.274452 
L 245.945455 102.921578 
L 250.854545 104.286338 
L 255.763636 101.608299 
L 260.672727 100.658758 
L 265.581818 96.874357 
L 270.490909 99.804949 
L 275.4 99.086542 
L 280.309091 103.370211 
L 285.218182 102.437734 
L 290.127273 101.054726 
L 295.036364 103.48621 
L 299.945455 98.50121 
L 304.854545 98.811859 
L 309.763636 100.284942 
L 314.672727 97.576763 
L 319.581818 100.665469 
L 324.490909 99.832758 
L 329.4 99.863159 
L 334.309091 98.596712 
L 339.218182 99.513779 
L 344.127273 97.140139 
L 349.036364 97.766424 
L 353.945455 96.73503 
L 358.854545 97.509729 
L 363.763636 95.570844 
L 368.672727 96.9206 
L 373.581818 96.004062 
L 373.581818 95.310899 
L 373.581818 95.310899 
L 368.672727 95.601958 
L 363.763636 95.028165 
L 358.854545 97.288261 
L 353.945455 96.159854 
L 349.036364 96.79853 
L 344.127273 96.36939 
L 339.218182 98.956944 
L 334.309091 98.353793 
L 329.4 98.593382 
L 324.490909 99.131414 
L 319.581818 98.42382 
L 314.672727 96.724336 
L 309.763636 99.939666 
L 304.854545 98.104481 
L 299.945455 97.735426 
L 295.036364 97.570826 
L 290.127273 100.47667 
L 285.218182 102.261671 
L 280.309091 100.799286 
L 275.4 96.642076 
L 270.490909 98.851038 
L 265.581818 95.605552 
L 260.672727 100.282471 
L 255.763636 101.041219 
L 250.854545 103.419645 
L 245.945455 102.304012 
L 241.036364 101.371583 
L 236.127273 102.217897 
L 231.218182 98.284548 
L 226.309091 104.247458 
L 221.4 100.696264 
L 216.490909 96.264398 
L 211.581818 101.761389 
L 206.672727 100.414689 
L 201.763636 99.728465 
L 196.854545 101.688336 
L 191.945455 100.119501 
L 187.036364 100.638264 
L 182.127273 102.535431 
L 177.218182 104.445991 
L 172.309091 104.734594 
L 167.4 103.718933 
L 162.490909 105.974381 
L 157.581818 101.866208 
L 152.672727 101.734599 
L 147.763636 107.666968 
L 142.854545 104.989996 
L 137.945455 102.902203 
L 133.036364 103.696135 
L 128.127273 105.327728 
L 123.218182 106.498955 
L 118.309091 112.91796 
L 113.4 44.443636 
L 108.490909 109.3793 
L 103.581818 112.010077 
L 98.672727 111.090594 
L 93.763636 116.377382 
L 88.854545 114.024027 
L 83.945455 120.101855 
L 79.036364 115.469032 
L 74.127273 124.354961 
L 69.218182 125.337143 
z
" clip-path="url(#pbc6645cb38)" style="fill: #d62728"/>
   </g>
   <g id="matplotlib.axis_1">
    <g id="xtick_1">
     <g id="line2d_1">
      <defs>
       <path id="m59bbb7c7dc" d="M 0 0 
L 0 3.5 
" style="stroke: #000000; stroke-width: 0.8"/>
      </defs>
      <g>
       <use xlink:href="#m59bbb7c7dc" x="69.218182" y="252" style="stroke: #000000; stroke-width: 0.8"/>
      </g>
     </g>
     <g id="text_1">
      <!-- 1 -->
      <g transform="translate(66.036932 266.598437)scale(0.1 -0.1)">
       <defs>
        <path id="DejaVuSans-31" d="M 794 531 
L 1825 531 
L 1825 4091 
L 703 3866 
L 703 4441 
L 1819 4666 
L 2450 4666 
L 2450 531 
L 3481 531 
L 3481 0 
L 794 0 
L 794 531 
z
" transform="scale(0.015625)"/>
       </defs>
       <use xlink:href="#DejaVuSans-31"/>
      </g>
     </g>
    </g>
    <g id="xtick_2">
     <g id="line2d_2">
      <g>
       <use xlink:href="#m59bbb7c7dc" x="93.763636" y="252" style="stroke: #000000; stroke-width: 0.8"/>
      </g>
     </g>
     <g id="text_2">
      <!-- 6 -->
      <g transform="translate(90.582386 266.598437)scale(0.1 -0.1)">
       <defs>
        <path id="DejaVuSans-36" d="M 2113 2584 
Q 1688 2584 1439 2293 
Q 1191 2003 1191 1497 
Q 1191 994 1439 701 
Q 1688 409 2113 409 
Q 2538 409 2786 701 
Q 3034 994 3034 1497 
Q 3034 2003 2786 2293 
Q 2538 2584 2113 2584 
z
M 3366 4563 
L 3366 3988 
Q 3128 4100 2886 4159 
Q 2644 4219 2406 4219 
Q 1781 4219 1451 3797 
Q 1122 3375 1075 2522 
Q 1259 2794 1537 2939 
Q 1816 3084 2150 3084 
Q 2853 3084 3261 2657 
Q 3669 2231 3669 1497 
Q 3669 778 3244 343 
Q 2819 -91 2113 -91 
Q 1303 -91 875 529 
Q 447 1150 447 2328 
Q 447 3434 972 4092 
Q 1497 4750 2381 4750 
Q 2619 4750 2861 4703 
Q 3103 4656 3366 4563 
z
" transform="scale(0.015625)"/>
       </defs>
       <use xlink:href="#DejaVuSans-36"/>
      </g>
     </g>
    </g>
    <g id="xtick_3">
     <g id="line2d_3">
      <g>
       <use xlink:href="#m59bbb7c7dc" x="118.309091" y="252" style="stroke: #000000; stroke-width: 0.8"/>
      </g>
     </g>
     <g id="text_3">
      <!-- 11 -->
      <g transform="translate(111.946591 266.598437)scale(0.1 -0.1)">
       <use xlink:href="#DejaVuSans-31"/>
       <use xlink:href="#DejaVuSans-31" x="63.623047"/>
      </g>
     </g>
    </g>
    <g id="xtick_4">
     <g id="line2d_4">
      <g>
       <use xlink:href="#m59bbb7c7dc" x="142.854545" y="252" style="stroke: #000000; stroke-width: 0.8"/>
      </g>
     </g>
     <g id="text_4">
      <!-- 16 -->
      <g transform="translate(136.492045 266.598437)scale(0.1 -0.1)">
       <use xlink:href="#DejaVuSans-31"/>
       <use xlink:href="#DejaVuSans-36" x="63.623047"/>
      </g>
     </g>
    </g>
    <g id="xtick_5">
     <g id="line2d_5">
      <g>
       <use xlink:href="#m59bbb7c7dc" x="167.4" y="252" style="stroke: #000000; stroke-width: 0.8"/>
      </g>
     </g>
     <g id="text_5">
      <!-- 21 -->
      <g transform="translate(161.0375 266.598437)scale(0.1 -0.1)">
       <defs>
        <path id="DejaVuSans-32" d="M 1228 531 
L 3431 531 
L 3431 0 
L 469 0 
L 469 531 
Q 828 903 1448 1529 
Q 2069 2156 2228 2338 
Q 2531 2678 2651 2914 
Q 2772 3150 2772 3378 
Q 2772 3750 2511 3984 
Q 2250 4219 1831 4219 
Q 1534 4219 1204 4116 
Q 875 4013 500 3803 
L 500 4441 
Q 881 4594 1212 4672 
Q 1544 4750 1819 4750 
Q 2544 4750 2975 4387 
Q 3406 4025 3406 3419 
Q 3406 3131 3298 2873 
Q 3191 2616 2906 2266 
Q 2828 2175 2409 1742 
Q 1991 1309 1228 531 
z
" transform="scale(0.015625)"/>
       </defs>
       <use xlink:href="#DejaVuSans-32"/>
       <use xlink:href="#DejaVuSans-31" x="63.623047"/>
      </g>
     </g>
    </g>
    <g id="xtick_6">
     <g id="line2d_6">
      <g>
       <use xlink:href="#m59bbb7c7dc" x="191.945455" y="252" style="stroke: #000000; stroke-width: 0.8"/>
      </g>
     </g>
     <g id="text_6">
      <!-- 26 -->
      <g transform="translate(185.582955 266.598437)scale(0.1 -0.1)">
       <use xlink:href="#DejaVuSans-32"/>
       <use xlink:href="#DejaVuSans-36" x="63.623047"/>
      </g>
     </g>
    </g>
    <g id="xtick_7">
     <g id="line2d_7">
      <g>
       <use xlink:href="#m59bbb7c7dc" x="216.490909" y="252" style="stroke: #000000; stroke-width: 0.8"/>
      </g>
     </g>
     <g id="text_7">
      <!-- 31 -->
      <g transform="translate(210.128409 266.598437)scale(0.1 -0.1)">
       <defs>
        <path id="DejaVuSans-33" d="M 2597 2516 
Q 3050 2419 3304 2112 
Q 3559 1806 3559 1356 
Q 3559 666 3084 287 
Q 2609 -91 1734 -91 
Q 1441 -91 1130 -33 
Q 819 25 488 141 
L 488 750 
Q 750 597 1062 519 
Q 1375 441 1716 441 
Q 2309 441 2620 675 
Q 2931 909 2931 1356 
Q 2931 1769 2642 2001 
Q 2353 2234 1838 2234 
L 1294 2234 
L 1294 2753 
L 1863 2753 
Q 2328 2753 2575 2939 
Q 2822 3125 2822 3475 
Q 2822 3834 2567 4026 
Q 2313 4219 1838 4219 
Q 1578 4219 1281 4162 
Q 984 4106 628 3988 
L 628 4550 
Q 988 4650 1302 4700 
Q 1616 4750 1894 4750 
Q 2613 4750 3031 4423 
Q 3450 4097 3450 3541 
Q 3450 3153 3228 2886 
Q 3006 2619 2597 2516 
z
" transform="scale(0.015625)"/>
       </defs>
       <use xlink:href="#DejaVuSans-33"/>
       <use xlink:href="#DejaVuSans-31" x="63.623047"/>
      </g>
     </g>
    </g>
    <g id="xtick_8">
     <g id="line2d_8">
      <g>
       <use xlink:href="#m59bbb7c7dc" x="241.036364" y="252" style="stroke: #000000; stroke-width: 0.8"/>
      </g>
     </g>
     <g id="text_8">
      <!-- 36 -->
      <g transform="translate(234.673864 266.598437)scale(0.1 -0.1)">
       <use xlink:href="#DejaVuSans-33"/>
       <use xlink:href="#DejaVuSans-36" x="63.623047"/>
      </g>
     </g>
    </g>
    <g id="xtick_9">
     <g id="line2d_9">
      <g>
       <use xlink:href="#m59bbb7c7dc" x="265.581818" y="252" style="stroke: #000000; stroke-width: 0.8"/>
      </g>
     </g>
     <g id="text_9">
      <!-- 41 -->
      <g transform="translate(259.219318 266.598437)scale(0.1 -0.1)">
       <defs>
        <path id="DejaVuSans-34" d="M 2419 4116 
L 825 1625 
L 2419 1625 
L 2419 4116 
z
M 2253 4666 
L 3047 4666 
L 3047 1625 
L 3713 1625 
L 3713 1100 
L 3047 1100 
L 3047 0 
L 2419 0 
L 2419 1100 
L 313 1100 
L 313 1709 
L 2253 4666 
z
" transform="scale(0.015625)"/>
       </defs>
       <use xlink:href="#DejaVuSans-34"/>
       <use xlink:href="#DejaVuSans-31" x="63.623047"/>
      </g>
     </g>
    </g>
    <g id="xtick_10">
     <g id="line2d_10">
      <g>
       <use xlink:href="#m59bbb7c7dc" x="290.127273" y="252" style="stroke: #000000; stroke-width: 0.8"/>
      </g>
     </g>
     <g id="text_10">
      <!-- 46 -->
      <g transform="translate(283.764773 266.598437)scale(0.1 -0.1)">
       <use xlink:href="#DejaVuSans-34"/>
       <use xlink:href="#DejaVuSans-36" x="63.623047"/>
      </g>
     </g>
    </g>
    <g id="xtick_11">
     <g id="line2d_11">
      <g>
       <use xlink:href="#m59bbb7c7dc" x="314.672727" y="252" style="stroke: #000000; stroke-width: 0.8"/>
      </g>
     </g>
     <g id="text_11">
      <!-- 51 -->
      <g transform="translate(308.310227 266.598437)scale(0.1 -0.1)">
       <defs>
        <path id="DejaVuSans-35" d="M 691 4666 
L 3169 4666 
L 3169 4134 
L 1269 4134 
L 1269 2991 
Q 1406 3038 1543 3061 
Q 1681 3084 1819 3084 
Q 2600 3084 3056 2656 
Q 3513 2228 3513 1497 
Q 3513 744 3044 326 
Q 2575 -91 1722 -91 
Q 1428 -91 1123 -41 
Q 819 9 494 109 
L 494 744 
Q 775 591 1075 516 
Q 1375 441 1709 441 
Q 2250 441 2565 725 
Q 2881 1009 2881 1497 
Q 2881 1984 2565 2268 
Q 2250 2553 1709 2553 
Q 1456 2553 1204 2497 
Q 953 2441 691 2322 
L 691 4666 
z
" transform="scale(0.015625)"/>
       </defs>
       <use xlink:href="#DejaVuSans-35"/>
       <use xlink:href="#DejaVuSans-31" x="63.623047"/>
      </g>
     </g>
    </g>
    <g id="xtick_12">
     <g id="line2d_12">
      <g>
       <use xlink:href="#m59bbb7c7dc" x="339.218182" y="252" style="stroke: #000000; stroke-width: 0.8"/>
      </g>
     </g>
     <g id="text_12">
      <!-- 56 -->
      <g transform="translate(332.855682 266.598437)scale(0.1 -0.1)">
       <use xlink:href="#DejaVuSans-35"/>
       <use xlink:href="#DejaVuSans-36" x="63.623047"/>
      </g>
     </g>
    </g>
    <g id="xtick_13">
     <g id="line2d_13">
      <g>
       <use xlink:href="#m59bbb7c7dc" x="363.763636" y="252" style="stroke: #000000; stroke-width: 0.8"/>
      </g>
     </g>
     <g id="text_13">
      <!-- 61 -->
      <g transform="translate(357.401136 266.598437)scale(0.1 -0.1)">
       <use xlink:href="#DejaVuSans-36"/>
       <use xlink:href="#DejaVuSans-31" x="63.623047"/>
      </g>
     </g>
    </g>
    <g id="text_14">
     <!-- Program size -->
     <g transform="translate(189.022656 280.276563)scale(0.1 -0.1)">
      <defs>
       <path id="DejaVuSans-50" d="M 1259 4147 
L 1259 2394 
L 2053 2394 
Q 2494 2394 2734 2622 
Q 2975 2850 2975 3272 
Q 2975 3691 2734 3919 
Q 2494 4147 2053 4147 
L 1259 4147 
z
M 628 4666 
L 2053 4666 
Q 2838 4666 3239 4311 
Q 3641 3956 3641 3272 
Q 3641 2581 3239 2228 
Q 2838 1875 2053 1875 
L 1259 1875 
L 1259 0 
L 628 0 
L 628 4666 
z
" transform="scale(0.015625)"/>
       <path id="DejaVuSans-72" d="M 2631 2963 
Q 2534 3019 2420 3045 
Q 2306 3072 2169 3072 
Q 1681 3072 1420 2755 
Q 1159 2438 1159 1844 
L 1159 0 
L 581 0 
L 581 3500 
L 1159 3500 
L 1159 2956 
Q 1341 3275 1631 3429 
Q 1922 3584 2338 3584 
Q 2397 3584 2469 3576 
Q 2541 3569 2628 3553 
L 2631 2963 
z
" transform="scale(0.015625)"/>
       <path id="DejaVuSans-6f" d="M 1959 3097 
Q 1497 3097 1228 2736 
Q 959 2375 959 1747 
Q 959 1119 1226 758 
Q 1494 397 1959 397 
Q 2419 397 2687 759 
Q 2956 1122 2956 1747 
Q 2956 2369 2687 2733 
Q 2419 3097 1959 3097 
z
M 1959 3584 
Q 2709 3584 3137 3096 
Q 3566 2609 3566 1747 
Q 3566 888 3137 398 
Q 2709 -91 1959 -91 
Q 1206 -91 779 398 
Q 353 888 353 1747 
Q 353 2609 779 3096 
Q 1206 3584 1959 3584 
z
" transform="scale(0.015625)"/>
       <path id="DejaVuSans-67" d="M 2906 1791 
Q 2906 2416 2648 2759 
Q 2391 3103 1925 3103 
Q 1463 3103 1205 2759 
Q 947 2416 947 1791 
Q 947 1169 1205 825 
Q 1463 481 1925 481 
Q 2391 481 2648 825 
Q 2906 1169 2906 1791 
z
M 3481 434 
Q 3481 -459 3084 -895 
Q 2688 -1331 1869 -1331 
Q 1566 -1331 1297 -1286 
Q 1028 -1241 775 -1147 
L 775 -588 
Q 1028 -725 1275 -790 
Q 1522 -856 1778 -856 
Q 2344 -856 2625 -561 
Q 2906 -266 2906 331 
L 2906 616 
Q 2728 306 2450 153 
Q 2172 0 1784 0 
Q 1141 0 747 490 
Q 353 981 353 1791 
Q 353 2603 747 3093 
Q 1141 3584 1784 3584 
Q 2172 3584 2450 3431 
Q 2728 3278 2906 2969 
L 2906 3500 
L 3481 3500 
L 3481 434 
z
" transform="scale(0.015625)"/>
       <path id="DejaVuSans-61" d="M 2194 1759 
Q 1497 1759 1228 1600 
Q 959 1441 959 1056 
Q 959 750 1161 570 
Q 1363 391 1709 391 
Q 2188 391 2477 730 
Q 2766 1069 2766 1631 
L 2766 1759 
L 2194 1759 
z
M 3341 1997 
L 3341 0 
L 2766 0 
L 2766 531 
Q 2569 213 2275 61 
Q 1981 -91 1556 -91 
Q 1019 -91 701 211 
Q 384 513 384 1019 
Q 384 1609 779 1909 
Q 1175 2209 1959 2209 
L 2766 2209 
L 2766 2266 
Q 2766 2663 2505 2880 
Q 2244 3097 1772 3097 
Q 1472 3097 1187 3025 
Q 903 2953 641 2809 
L 641 3341 
Q 956 3463 1253 3523 
Q 1550 3584 1831 3584 
Q 2591 3584 2966 3190 
Q 3341 2797 3341 1997 
z
" transform="scale(0.015625)"/>
       <path id="DejaVuSans-6d" d="M 3328 2828 
Q 3544 3216 3844 3400 
Q 4144 3584 4550 3584 
Q 5097 3584 5394 3201 
Q 5691 2819 5691 2113 
L 5691 0 
L 5113 0 
L 5113 2094 
Q 5113 2597 4934 2840 
Q 4756 3084 4391 3084 
Q 3944 3084 3684 2787 
Q 3425 2491 3425 1978 
L 3425 0 
L 2847 0 
L 2847 2094 
Q 2847 2600 2669 2842 
Q 2491 3084 2119 3084 
Q 1678 3084 1418 2786 
Q 1159 2488 1159 1978 
L 1159 0 
L 581 0 
L 581 3500 
L 1159 3500 
L 1159 2956 
Q 1356 3278 1631 3431 
Q 1906 3584 2284 3584 
Q 2666 3584 2933 3390 
Q 3200 3197 3328 2828 
z
" transform="scale(0.015625)"/>
       <path id="DejaVuSans-20" transform="scale(0.015625)"/>
       <path id="DejaVuSans-73" d="M 2834 3397 
L 2834 2853 
Q 2591 2978 2328 3040 
Q 2066 3103 1784 3103 
Q 1356 3103 1142 2972 
Q 928 2841 928 2578 
Q 928 2378 1081 2264 
Q 1234 2150 1697 2047 
L 1894 2003 
Q 2506 1872 2764 1633 
Q 3022 1394 3022 966 
Q 3022 478 2636 193 
Q 2250 -91 1575 -91 
Q 1294 -91 989 -36 
Q 684 19 347 128 
L 347 722 
Q 666 556 975 473 
Q 1284 391 1588 391 
Q 1994 391 2212 530 
Q 2431 669 2431 922 
Q 2431 1156 2273 1281 
Q 2116 1406 1581 1522 
L 1381 1569 
Q 847 1681 609 1914 
Q 372 2147 372 2553 
Q 372 3047 722 3315 
Q 1072 3584 1716 3584 
Q 2034 3584 2315 3537 
Q 2597 3491 2834 3397 
z
" transform="scale(0.015625)"/>
       <path id="DejaVuSans-69" d="M 603 3500 
L 1178 3500 
L 1178 0 
L 603 0 
L 603 3500 
z
M 603 4863 
L 1178 4863 
L 1178 4134 
L 603 4134 
L 603 4863 
z
" transform="scale(0.015625)"/>
       <path id="DejaVuSans-7a" d="M 353 3500 
L 3084 3500 
L 3084 2975 
L 922 459 
L 3084 459 
L 3084 0 
L 275 0 
L 275 525 
L 2438 3041 
L 353 3041 
L 353 3500 
z
" transform="scale(0.015625)"/>
       <path id="DejaVuSans-65" d="M 3597 1894 
L 3597 1613 
L 953 1613 
Q 991 1019 1311 708 
Q 1631 397 2203 397 
Q 2534 397 2845 478 
Q 3156 559 3463 722 
L 3463 178 
Q 3153 47 2828 -22 
Q 2503 -91 2169 -91 
Q 1331 -91 842 396 
Q 353 884 353 1716 
Q 353 2575 817 3079 
Q 1281 3584 2069 3584 
Q 2775 3584 3186 3129 
Q 3597 2675 3597 1894 
z
M 3022 2063 
Q 3016 2534 2758 2815 
Q 2500 3097 2075 3097 
Q 1594 3097 1305 2825 
Q 1016 2553 972 2059 
L 3022 2063 
z
" transform="scale(0.015625)"/>
      </defs>
      <use xlink:href="#DejaVuSans-50"/>
      <use xlink:href="#DejaVuSans-72" x="58.552734"/>
      <use xlink:href="#DejaVuSans-6f" x="97.416016"/>
      <use xlink:href="#DejaVuSans-67" x="158.597656"/>
      <use xlink:href="#DejaVuSans-72" x="222.074219"/>
      <use xlink:href="#DejaVuSans-61" x="263.1875"/>
      <use xlink:href="#DejaVuSans-6d" x="324.466797"/>
      <use xlink:href="#DejaVuSans-20" x="421.878906"/>
      <use xlink:href="#DejaVuSans-73" x="453.666016"/>
      <use xlink:href="#DejaVuSans-69" x="505.765625"/>
      <use xlink:href="#DejaVuSans-7a" x="533.548828"/>
      <use xlink:href="#DejaVuSans-65" x="586.039062"/>
     </g>
    </g>
   </g>
   <g id="matplotlib.axis_2">
    <g id="ytick_1">
     <g id="line2d_14">
      <defs>
       <path id="m170afb159a" d="M 0 0 
L -3.5 0 
" style="stroke: #000000; stroke-width: 0.8"/>
      </defs>
      <g>
       <use xlink:href="#m170afb159a" x="54" y="251.389821" style="stroke: #000000; stroke-width: 0.8"/>
      </g>
     </g>
     <g id="text_15">
      <!-- $\mathdefault{10^{6}}$ -->
      <g transform="translate(29.4 255.18904)scale(0.1 -0.1)">
       <defs>
        <path id="DejaVuSans-30" d="M 2034 4250 
Q 1547 4250 1301 3770 
Q 1056 3291 1056 2328 
Q 1056 1369 1301 889 
Q 1547 409 2034 409 
Q 2525 409 2770 889 
Q 3016 1369 3016 2328 
Q 3016 3291 2770 3770 
Q 2525 4250 2034 4250 
z
M 2034 4750 
Q 2819 4750 3233 4129 
Q 3647 3509 3647 2328 
Q 3647 1150 3233 529 
Q 2819 -91 2034 -91 
Q 1250 -91 836 529 
Q 422 1150 422 2328 
Q 422 3509 836 4129 
Q 1250 4750 2034 4750 
z
" transform="scale(0.015625)"/>
       </defs>
       <use xlink:href="#DejaVuSans-31" transform="translate(0 0.765625)"/>
       <use xlink:href="#DejaVuSans-30" transform="translate(63.623047 0.765625)"/>
       <use xlink:href="#DejaVuSans-36" transform="translate(128.203125 39.046875)scale(0.7)"/>
      </g>
     </g>
    </g>
    <g id="ytick_2">
     <g id="line2d_15">
      <g>
       <use xlink:href="#m170afb159a" x="54" y="212.63163" style="stroke: #000000; stroke-width: 0.8"/>
      </g>
     </g>
     <g id="text_16">
      <!-- $\mathdefault{10^{7}}$ -->
      <g transform="translate(29.4 216.430849)scale(0.1 -0.1)">
       <defs>
        <path id="DejaVuSans-37" d="M 525 4666 
L 3525 4666 
L 3525 4397 
L 1831 0 
L 1172 0 
L 2766 4134 
L 525 4134 
L 525 4666 
z
" transform="scale(0.015625)"/>
       </defs>
       <use xlink:href="#DejaVuSans-31" transform="translate(0 0.684375)"/>
       <use xlink:href="#DejaVuSans-30" transform="translate(63.623047 0.684375)"/>
       <use xlink:href="#DejaVuSans-37" transform="translate(128.203125 38.965625)scale(0.7)"/>
      </g>
     </g>
    </g>
    <g id="ytick_3">
     <g id="line2d_16">
      <g>
       <use xlink:href="#m170afb159a" x="54" y="173.87344" style="stroke: #000000; stroke-width: 0.8"/>
      </g>
     </g>
     <g id="text_17">
      <!-- $\mathdefault{10^{8}}$ -->
      <g transform="translate(29.4 177.672659)scale(0.1 -0.1)">
       <defs>
        <path id="DejaVuSans-38" d="M 2034 2216 
Q 1584 2216 1326 1975 
Q 1069 1734 1069 1313 
Q 1069 891 1326 650 
Q 1584 409 2034 409 
Q 2484 409 2743 651 
Q 3003 894 3003 1313 
Q 3003 1734 2745 1975 
Q 2488 2216 2034 2216 
z
M 1403 2484 
Q 997 2584 770 2862 
Q 544 3141 544 3541 
Q 544 4100 942 4425 
Q 1341 4750 2034 4750 
Q 2731 4750 3128 4425 
Q 3525 4100 3525 3541 
Q 3525 3141 3298 2862 
Q 3072 2584 2669 2484 
Q 3125 2378 3379 2068 
Q 3634 1759 3634 1313 
Q 3634 634 3220 271 
Q 2806 -91 2034 -91 
Q 1263 -91 848 271 
Q 434 634 434 1313 
Q 434 1759 690 2068 
Q 947 2378 1403 2484 
z
M 1172 3481 
Q 1172 3119 1398 2916 
Q 1625 2713 2034 2713 
Q 2441 2713 2670 2916 
Q 2900 3119 2900 3481 
Q 2900 3844 2670 4047 
Q 2441 4250 2034 4250 
Q 1625 4250 1398 4047 
Q 1172 3844 1172 3481 
z
" transform="scale(0.015625)"/>
       </defs>
       <use xlink:href="#DejaVuSans-31" transform="translate(0 0.765625)"/>
       <use xlink:href="#DejaVuSans-30" transform="translate(63.623047 0.765625)"/>
       <use xlink:href="#DejaVuSans-38" transform="translate(128.203125 39.046875)scale(0.7)"/>
      </g>
     </g>
    </g>
    <g id="ytick_4">
     <g id="line2d_17">
      <g>
       <use xlink:href="#m170afb159a" x="54" y="135.115249" style="stroke: #000000; stroke-width: 0.8"/>
      </g>
     </g>
     <g id="text_18">
      <!-- $\mathdefault{10^{9}}$ -->
      <g transform="translate(29.4 138.914468)scale(0.1 -0.1)">
       <defs>
        <path id="DejaVuSans-39" d="M 703 97 
L 703 672 
Q 941 559 1184 500 
Q 1428 441 1663 441 
Q 2288 441 2617 861 
Q 2947 1281 2994 2138 
Q 2813 1869 2534 1725 
Q 2256 1581 1919 1581 
Q 1219 1581 811 2004 
Q 403 2428 403 3163 
Q 403 3881 828 4315 
Q 1253 4750 1959 4750 
Q 2769 4750 3195 4129 
Q 3622 3509 3622 2328 
Q 3622 1225 3098 567 
Q 2575 -91 1691 -91 
Q 1453 -91 1209 -44 
Q 966 3 703 97 
z
M 1959 2075 
Q 2384 2075 2632 2365 
Q 2881 2656 2881 3163 
Q 2881 3666 2632 3958 
Q 2384 4250 1959 4250 
Q 1534 4250 1286 3958 
Q 1038 3666 1038 3163 
Q 1038 2656 1286 2365 
Q 1534 2075 1959 2075 
z
" transform="scale(0.015625)"/>
       </defs>
       <use xlink:href="#DejaVuSans-31" transform="translate(0 0.765625)"/>
       <use xlink:href="#DejaVuSans-30" transform="translate(63.623047 0.765625)"/>
       <use xlink:href="#DejaVuSans-39" transform="translate(128.203125 39.046875)scale(0.7)"/>
      </g>
     </g>
    </g>
    <g id="ytick_5">
     <g id="line2d_18">
      <g>
       <use xlink:href="#m170afb159a" x="54" y="96.357059" style="stroke: #000000; stroke-width: 0.8"/>
      </g>
     </g>
     <g id="text_19">
      <!-- $\mathdefault{10^{10}}$ -->
      <g transform="translate(24.9 100.156277)scale(0.1 -0.1)">
       <use xlink:href="#DejaVuSans-31" transform="translate(0 0.765625)"/>
       <use xlink:href="#DejaVuSans-30" transform="translate(63.623047 0.765625)"/>
       <use xlink:href="#DejaVuSans-31" transform="translate(128.203125 39.046875)scale(0.7)"/>
       <use xlink:href="#DejaVuSans-30" transform="translate(172.739258 39.046875)scale(0.7)"/>
      </g>
     </g>
    </g>
    <g id="ytick_6">
     <g id="line2d_19">
      <g>
       <use xlink:href="#m170afb159a" x="54" y="57.598868" style="stroke: #000000; stroke-width: 0.8"/>
      </g>
     </g>
     <g id="text_20">
      <!-- $\mathdefault{10^{11}}$ -->
      <g transform="translate(24.9 61.398087)scale(0.1 -0.1)">
       <use xlink:href="#DejaVuSans-31" transform="translate(0 0.684375)"/>
       <use xlink:href="#DejaVuSans-30" transform="translate(63.623047 0.684375)"/>
       <use xlink:href="#DejaVuSans-31" transform="translate(128.203125 38.965625)scale(0.7)"/>
       <use xlink:href="#DejaVuSans-31" transform="translate(172.739258 38.965625)scale(0.7)"/>
      </g>
     </g>
    </g>
    <g id="ytick_7">
     <g id="line2d_20">
      <defs>
       <path id="m1221aa3b7c" d="M 0 0 
L -2 0 
" style="stroke: #000000; stroke-width: 0.6"/>
      </defs>
      <g>
       <use xlink:href="#m1221aa3b7c" x="54" y="239.722443" style="stroke: #000000; stroke-width: 0.6"/>
      </g>
     </g>
    </g>
    <g id="ytick_8">
     <g id="line2d_21">
      <g>
       <use xlink:href="#m1221aa3b7c" x="54" y="232.897465" style="stroke: #000000; stroke-width: 0.6"/>
      </g>
     </g>
    </g>
    <g id="ytick_9">
     <g id="line2d_22">
      <g>
       <use xlink:href="#m1221aa3b7c" x="54" y="228.055065" style="stroke: #000000; stroke-width: 0.6"/>
      </g>
     </g>
    </g>
    <g id="ytick_10">
     <g id="line2d_23">
      <g>
       <use xlink:href="#m1221aa3b7c" x="54" y="224.299008" style="stroke: #000000; stroke-width: 0.6"/>
      </g>
     </g>
    </g>
    <g id="ytick_11">
     <g id="line2d_24">
      <g>
       <use xlink:href="#m1221aa3b7c" x="54" y="221.230087" style="stroke: #000000; stroke-width: 0.6"/>
      </g>
     </g>
    </g>
    <g id="ytick_12">
     <g id="line2d_25">
      <g>
       <use xlink:href="#m1221aa3b7c" x="54" y="218.63535" style="stroke: #000000; stroke-width: 0.6"/>
      </g>
     </g>
    </g>
    <g id="ytick_13">
     <g id="line2d_26">
      <g>
       <use xlink:href="#m1221aa3b7c" x="54" y="216.387687" style="stroke: #000000; stroke-width: 0.6"/>
      </g>
     </g>
    </g>
    <g id="ytick_14">
     <g id="line2d_27">
      <g>
       <use xlink:href="#m1221aa3b7c" x="54" y="214.405108" style="stroke: #000000; stroke-width: 0.6"/>
      </g>
     </g>
    </g>
    <g id="ytick_15">
     <g id="line2d_28">
      <g>
       <use xlink:href="#m1221aa3b7c" x="54" y="200.964252" style="stroke: #000000; stroke-width: 0.6"/>
      </g>
     </g>
    </g>
    <g id="ytick_16">
     <g id="line2d_29">
      <g>
       <use xlink:href="#m1221aa3b7c" x="54" y="194.139274" style="stroke: #000000; stroke-width: 0.6"/>
      </g>
     </g>
    </g>
    <g id="ytick_17">
     <g id="line2d_30">
      <g>
       <use xlink:href="#m1221aa3b7c" x="54" y="189.296875" style="stroke: #000000; stroke-width: 0.6"/>
      </g>
     </g>
    </g>
    <g id="ytick_18">
     <g id="line2d_31">
      <g>
       <use xlink:href="#m1221aa3b7c" x="54" y="185.540818" style="stroke: #000000; stroke-width: 0.6"/>
      </g>
     </g>
    </g>
    <g id="ytick_19">
     <g id="line2d_32">
      <g>
       <use xlink:href="#m1221aa3b7c" x="54" y="182.471896" style="stroke: #000000; stroke-width: 0.6"/>
      </g>
     </g>
    </g>
    <g id="ytick_20">
     <g id="line2d_33">
      <g>
       <use xlink:href="#m1221aa3b7c" x="54" y="179.87716" style="stroke: #000000; stroke-width: 0.6"/>
      </g>
     </g>
    </g>
    <g id="ytick_21">
     <g id="line2d_34">
      <g>
       <use xlink:href="#m1221aa3b7c" x="54" y="177.629497" style="stroke: #000000; stroke-width: 0.6"/>
      </g>
     </g>
    </g>
    <g id="ytick_22">
     <g id="line2d_35">
      <g>
       <use xlink:href="#m1221aa3b7c" x="54" y="175.646917" style="stroke: #000000; stroke-width: 0.6"/>
      </g>
     </g>
    </g>
    <g id="ytick_23">
     <g id="line2d_36">
      <g>
       <use xlink:href="#m1221aa3b7c" x="54" y="162.206062" style="stroke: #000000; stroke-width: 0.6"/>
      </g>
     </g>
    </g>
    <g id="ytick_24">
     <g id="line2d_37">
      <g>
       <use xlink:href="#m1221aa3b7c" x="54" y="155.381083" style="stroke: #000000; stroke-width: 0.6"/>
      </g>
     </g>
    </g>
    <g id="ytick_25">
     <g id="line2d_38">
      <g>
       <use xlink:href="#m1221aa3b7c" x="54" y="150.538684" style="stroke: #000000; stroke-width: 0.6"/>
      </g>
     </g>
    </g>
    <g id="ytick_26">
     <g id="line2d_39">
      <g>
       <use xlink:href="#m1221aa3b7c" x="54" y="146.782627" style="stroke: #000000; stroke-width: 0.6"/>
      </g>
     </g>
    </g>
    <g id="ytick_27">
     <g id="line2d_40">
      <g>
       <use xlink:href="#m1221aa3b7c" x="54" y="143.713705" style="stroke: #000000; stroke-width: 0.6"/>
      </g>
     </g>
    </g>
    <g id="ytick_28">
     <g id="line2d_41">
      <g>
       <use xlink:href="#m1221aa3b7c" x="54" y="141.118969" style="stroke: #000000; stroke-width: 0.6"/>
      </g>
     </g>
    </g>
    <g id="ytick_29">
     <g id="line2d_42">
      <g>
       <use xlink:href="#m1221aa3b7c" x="54" y="138.871306" style="stroke: #000000; stroke-width: 0.6"/>
      </g>
     </g>
    </g>
    <g id="ytick_30">
     <g id="line2d_43">
      <g>
       <use xlink:href="#m1221aa3b7c" x="54" y="136.888727" style="stroke: #000000; stroke-width: 0.6"/>
      </g>
     </g>
    </g>
    <g id="ytick_31">
     <g id="line2d_44">
      <g>
       <use xlink:href="#m1221aa3b7c" x="54" y="123.447871" style="stroke: #000000; stroke-width: 0.6"/>
      </g>
     </g>
    </g>
    <g id="ytick_32">
     <g id="line2d_45">
      <g>
       <use xlink:href="#m1221aa3b7c" x="54" y="116.622893" style="stroke: #000000; stroke-width: 0.6"/>
      </g>
     </g>
    </g>
    <g id="ytick_33">
     <g id="line2d_46">
      <g>
       <use xlink:href="#m1221aa3b7c" x="54" y="111.780493" style="stroke: #000000; stroke-width: 0.6"/>
      </g>
     </g>
    </g>
    <g id="ytick_34">
     <g id="line2d_47">
      <g>
       <use xlink:href="#m1221aa3b7c" x="54" y="108.024437" style="stroke: #000000; stroke-width: 0.6"/>
      </g>
     </g>
    </g>
    <g id="ytick_35">
     <g id="line2d_48">
      <g>
       <use xlink:href="#m1221aa3b7c" x="54" y="104.955515" style="stroke: #000000; stroke-width: 0.6"/>
      </g>
     </g>
    </g>
    <g id="ytick_36">
     <g id="line2d_49">
      <g>
       <use xlink:href="#m1221aa3b7c" x="54" y="102.360778" style="stroke: #000000; stroke-width: 0.6"/>
      </g>
     </g>
    </g>
    <g id="ytick_37">
     <g id="line2d_50">
      <g>
       <use xlink:href="#m1221aa3b7c" x="54" y="100.113115" style="stroke: #000000; stroke-width: 0.6"/>
      </g>
     </g>
    </g>
    <g id="ytick_38">
     <g id="line2d_51">
      <g>
       <use xlink:href="#m1221aa3b7c" x="54" y="98.130536" style="stroke: #000000; stroke-width: 0.6"/>
      </g>
     </g>
    </g>
    <g id="ytick_39">
     <g id="line2d_52">
      <g>
       <use xlink:href="#m1221aa3b7c" x="54" y="84.689681" style="stroke: #000000; stroke-width: 0.6"/>
      </g>
     </g>
    </g>
    <g id="ytick_40">
     <g id="line2d_53">
      <g>
       <use xlink:href="#m1221aa3b7c" x="54" y="77.864702" style="stroke: #000000; stroke-width: 0.6"/>
      </g>
     </g>
    </g>
    <g id="ytick_41">
     <g id="line2d_54">
      <g>
       <use xlink:href="#m1221aa3b7c" x="54" y="73.022303" style="stroke: #000000; stroke-width: 0.6"/>
      </g>
     </g>
    </g>
    <g id="ytick_42">
     <g id="line2d_55">
      <g>
       <use xlink:href="#m1221aa3b7c" x="54" y="69.266246" style="stroke: #000000; stroke-width: 0.6"/>
      </g>
     </g>
    </g>
    <g id="ytick_43">
     <g id="line2d_56">
      <g>
       <use xlink:href="#m1221aa3b7c" x="54" y="66.197324" style="stroke: #000000; stroke-width: 0.6"/>
      </g>
     </g>
    </g>
    <g id="ytick_44">
     <g id="line2d_57">
      <g>
       <use xlink:href="#m1221aa3b7c" x="54" y="63.602588" style="stroke: #000000; stroke-width: 0.6"/>
      </g>
     </g>
    </g>
    <g id="ytick_45">
     <g id="line2d_58">
      <g>
       <use xlink:href="#m1221aa3b7c" x="54" y="61.354925" style="stroke: #000000; stroke-width: 0.6"/>
      </g>
     </g>
    </g>
    <g id="ytick_46">
     <g id="line2d_59">
      <g>
       <use xlink:href="#m1221aa3b7c" x="54" y="59.372345" style="stroke: #000000; stroke-width: 0.6"/>
      </g>
     </g>
    </g>
    <g id="ytick_47">
     <g id="line2d_60">
      <g>
       <use xlink:href="#m1221aa3b7c" x="54" y="45.93149" style="stroke: #000000; stroke-width: 0.6"/>
      </g>
     </g>
    </g>
    <g id="ytick_48">
     <g id="line2d_61">
      <g>
       <use xlink:href="#m1221aa3b7c" x="54" y="39.106511" style="stroke: #000000; stroke-width: 0.6"/>
      </g>
     </g>
    </g>
    <g id="text_21">
     <!-- Median NEPS -->
     <g transform="translate(18.820312 176.144844)rotate(-90)scale(0.1 -0.1)">
      <defs>
       <path id="DejaVuSans-4d" d="M 628 4666 
L 1569 4666 
L 2759 1491 
L 3956 4666 
L 4897 4666 
L 4897 0 
L 4281 0 
L 4281 4097 
L 3078 897 
L 2444 897 
L 1241 4097 
L 1241 0 
L 628 0 
L 628 4666 
z
" transform="scale(0.015625)"/>
       <path id="DejaVuSans-64" d="M 2906 2969 
L 2906 4863 
L 3481 4863 
L 3481 0 
L 2906 0 
L 2906 525 
Q 2725 213 2448 61 
Q 2172 -91 1784 -91 
Q 1150 -91 751 415 
Q 353 922 353 1747 
Q 353 2572 751 3078 
Q 1150 3584 1784 3584 
Q 2172 3584 2448 3432 
Q 2725 3281 2906 2969 
z
M 947 1747 
Q 947 1113 1208 752 
Q 1469 391 1925 391 
Q 2381 391 2643 752 
Q 2906 1113 2906 1747 
Q 2906 2381 2643 2742 
Q 2381 3103 1925 3103 
Q 1469 3103 1208 2742 
Q 947 2381 947 1747 
z
" transform="scale(0.015625)"/>
       <path id="DejaVuSans-6e" d="M 3513 2113 
L 3513 0 
L 2938 0 
L 2938 2094 
Q 2938 2591 2744 2837 
Q 2550 3084 2163 3084 
Q 1697 3084 1428 2787 
Q 1159 2491 1159 1978 
L 1159 0 
L 581 0 
L 581 3500 
L 1159 3500 
L 1159 2956 
Q 1366 3272 1645 3428 
Q 1925 3584 2291 3584 
Q 2894 3584 3203 3211 
Q 3513 2838 3513 2113 
z
" transform="scale(0.015625)"/>
       <path id="DejaVuSans-4e" d="M 628 4666 
L 1478 4666 
L 3547 763 
L 3547 4666 
L 4159 4666 
L 4159 0 
L 3309 0 
L 1241 3903 
L 1241 0 
L 628 0 
L 628 4666 
z
" transform="scale(0.015625)"/>
       <path id="DejaVuSans-45" d="M 628 4666 
L 3578 4666 
L 3578 4134 
L 1259 4134 
L 1259 2753 
L 3481 2753 
L 3481 2222 
L 1259 2222 
L 1259 531 
L 3634 531 
L 3634 0 
L 628 0 
L 628 4666 
z
" transform="scale(0.015625)"/>
       <path id="DejaVuSans-53" d="M 3425 4513 
L 3425 3897 
Q 3066 4069 2747 4153 
Q 2428 4238 2131 4238 
Q 1616 4238 1336 4038 
Q 1056 3838 1056 3469 
Q 1056 3159 1242 3001 
Q 1428 2844 1947 2747 
L 2328 2669 
Q 3034 2534 3370 2195 
Q 3706 1856 3706 1288 
Q 3706 609 3251 259 
Q 2797 -91 1919 -91 
Q 1588 -91 1214 -16 
Q 841 59 441 206 
L 441 856 
Q 825 641 1194 531 
Q 1563 422 1919 422 
Q 2459 422 2753 634 
Q 3047 847 3047 1241 
Q 3047 1584 2836 1778 
Q 2625 1972 2144 2069 
L 1759 2144 
Q 1053 2284 737 2584 
Q 422 2884 422 3419 
Q 422 4038 858 4394 
Q 1294 4750 2059 4750 
Q 2388 4750 2728 4690 
Q 3069 4631 3425 4513 
z
" transform="scale(0.015625)"/>
      </defs>
      <use xlink:href="#DejaVuSans-4d"/>
      <use xlink:href="#DejaVuSans-65" x="86.279297"/>
      <use xlink:href="#DejaVuSans-64" x="147.802734"/>
      <use xlink:href="#DejaVuSans-69" x="211.279297"/>
      <use xlink:href="#DejaVuSans-61" x="239.0625"/>
      <use xlink:href="#DejaVuSans-6e" x="300.341797"/>
      <use xlink:href="#DejaVuSans-20" x="363.720703"/>
      <use xlink:href="#DejaVuSans-4e" x="395.507812"/>
      <use xlink:href="#DejaVuSans-45" x="470.3125"/>
      <use xlink:href="#DejaVuSans-50" x="533.496094"/>
      <use xlink:href="#DejaVuSans-53" x="593.798828"/>
     </g>
    </g>
   </g>
   <g id="line2d_62">
    <path d="M 69.218182 242.000296 
L 74.127273 233.548692 
L 79.036364 230.739644 
L 83.945455 225.260362 
L 88.854545 220.809001 
L 93.763636 219.631043 
L 98.672727 217.476867 
L 103.581818 216.408189 
L 108.490909 215.62311 
L 113.4 214.898497 
L 118.309091 216.607092 
L 123.218182 214.238662 
L 128.127273 214.84531 
L 133.036364 215.089289 
L 137.945455 210.023365 
L 142.854545 210.964706 
L 147.763636 212.323513 
L 152.672727 207.737984 
L 157.581818 212.532084 
L 162.490909 210.899988 
L 167.4 210.678345 
L 172.309091 206.747815 
L 177.218182 211.633802 
L 182.127273 209.438876 
L 187.036364 208.221938 
L 191.945455 206.422741 
L 196.854545 210.900631 
L 201.763636 209.827081 
L 206.672727 210.037126 
L 211.581818 208.934728 
L 216.490909 208.486354 
L 221.4 209.473917 
L 226.309091 212.413102 
L 231.218182 210.506983 
L 236.127273 208.845681 
L 241.036364 208.420102 
L 245.945455 211.28658 
L 250.854545 208.515635 
L 255.763636 205.252915 
L 260.672727 211.738218 
L 265.581818 207.75763 
L 270.490909 207.671719 
L 275.4 209.384461 
L 280.309091 209.236614 
L 285.218182 207.327082 
L 290.127273 208.407295 
L 295.036364 207.189426 
L 299.945455 206.434885 
L 304.854545 206.492495 
L 309.763636 208.645467 
L 314.672727 204.849005 
L 319.581818 207.267795 
L 324.490909 208.932601 
L 329.4 208.791657 
L 334.309091 205.159198 
L 339.218182 208.028484 
L 344.127273 206.749796 
L 349.036364 207.656679 
L 353.945455 205.221202 
L 358.854545 207.169133 
L 363.763636 205.4167 
L 368.672727 207.552402 
L 373.581818 208.066334 
" clip-path="url(#pbc6645cb38)" style="fill: none; stroke: #1f77b4; stroke-width: 1.5; stroke-linecap: square"/>
   </g>
   <g id="line2d_63">
    <path d="M 69.218182 159.34844 
L 74.127273 152.829616 
L 79.036364 146.805758 
L 83.945455 143.872411 
L 88.854545 139.911523 
L 93.763636 137.887949 
L 98.672727 134.859917 
L 103.581818 134.069879 
L 108.490909 134.054978 
L 113.4 133.049077 
L 118.309091 135.049365 
L 123.218182 130.192838 
L 128.127273 131.112792 
L 133.036364 133.695773 
L 137.945455 127.906001 
L 142.854545 128.981546 
L 147.763636 134.976885 
L 152.672727 126.586797 
L 157.581818 130.941138 
L 162.490909 130.463926 
L 167.4 126.515055 
L 172.309091 129.750106 
L 177.218182 129.209922 
L 182.127273 126.225556 
L 187.036364 124.4365 
L 191.945455 123.004835 
L 196.854545 127.392313 
L 201.763636 125.262727 
L 206.672727 123.00241 
L 211.581818 124.839703 
L 216.490909 124.534364 
L 221.4 125.895308 
L 226.309091 128.191118 
L 231.218182 123.629581 
L 236.127273 124.619097 
L 241.036364 125.618113 
L 245.945455 127.380353 
L 250.854545 130.448174 
L 255.763636 121.256609 
L 260.672727 125.97809 
L 265.581818 124.181828 
L 270.490909 124.032414 
L 275.4 123.394919 
L 280.309091 125.561815 
L 285.218182 125.125768 
L 290.127273 125.207229 
L 295.036364 123.367622 
L 299.945455 120.894902 
L 304.854545 124.493209 
L 309.763636 124.634174 
L 314.672727 118.916525 
L 319.581818 121.289855 
L 324.490909 125.602209 
L 329.4 123.591279 
L 334.309091 119.888448 
L 339.218182 123.776259 
L 344.127273 121.157226 
L 349.036364 124.267694 
L 353.945455 119.813156 
L 358.854545 122.28907 
L 363.763636 120.606082 
L 368.672727 120.75805 
L 373.581818 121.584813 
" clip-path="url(#pbc6645cb38)" style="fill: none; stroke: #ff7f0e; stroke-width: 1.5; stroke-linecap: square"/>
   </g>
   <g id="line2d_64">
    <path d="M 69.218182 160.891113 
L 74.127273 153.944365 
L 79.036364 149.264467 
L 83.945455 143.604434 
L 88.854545 140.098641 
L 93.763636 140.255737 
L 98.672727 135.617474 
L 103.581818 133.188555 
L 108.490909 134.410833 
L 113.4 130.251969 
L 118.309091 134.185687 
L 123.218182 129.780343 
L 128.127273 131.275485 
L 133.036364 133.216559 
L 137.945455 127.773129 
L 142.854545 127.53002 
L 147.763636 132.894839 
L 152.672727 126.125163 
L 157.581818 131.19595 
L 162.490909 131.629575 
L 167.4 133.402666 
L 172.309091 133.397467 
L 177.218182 127.961649 
L 182.127273 125.78266 
L 187.036364 124.159244 
L 191.945455 122.853911 
L 196.854545 126.984423 
L 201.763636 125.935392 
L 206.672727 123.36529 
L 211.581818 125.354892 
L 216.490909 123.398141 
L 221.4 126.566799 
L 226.309091 126.576276 
L 231.218182 124.569511 
L 236.127273 125.151917 
L 241.036364 123.877254 
L 245.945455 125.132105 
L 250.854545 128.686109 
L 255.763636 121.623698 
L 260.672727 126.959919 
L 265.581818 123.580394 
L 270.490909 125.327658 
L 275.4 124.536962 
L 280.309091 125.960434 
L 285.218182 125.523832 
L 290.127273 125.179634 
L 295.036364 123.06394 
L 299.945455 120.645949 
L 304.854545 124.336765 
L 309.763636 124.087029 
L 314.672727 118.871016 
L 319.581818 121.492777 
L 324.490909 125.836579 
L 329.4 124.645061 
L 334.309091 122.458165 
L 339.218182 126.953329 
L 344.127273 124.613707 
L 349.036364 128.574546 
L 353.945455 122.12615 
L 358.854545 124.136946 
L 363.763636 121.480173 
L 368.672727 121.980208 
L 373.581818 123.365722 
" clip-path="url(#pbc6645cb38)" style="fill: none; stroke: #2ca02c; stroke-width: 1.5; stroke-linecap: square"/>
   </g>
   <g id="line2d_65">
    <path d="M 69.218182 131.360244 
L 74.127273 125.797116 
L 79.036364 116.985404 
L 83.945455 121.957175 
L 88.854545 115.858255 
L 93.763636 116.859735 
L 98.672727 111.719401 
L 103.581818 112.516734 
L 108.490909 110.113946 
L 113.4 113.362259 
L 118.309091 113.068767 
L 123.218182 108.735255 
L 128.127273 105.765301 
L 133.036364 104.389639 
L 137.945455 103.597346 
L 142.854545 105.779509 
L 147.763636 107.876854 
L 152.672727 101.909974 
L 157.581818 102.389864 
L 162.490909 106.197689 
L 167.4 104.321349 
L 172.309091 104.881434 
L 177.218182 104.7136 
L 182.127273 102.866553 
L 187.036364 100.969631 
L 191.945455 100.314542 
L 196.854545 102.155901 
L 201.763636 99.860449 
L 206.672727 100.736533 
L 211.581818 101.802531 
L 216.490909 96.520568 
L 221.4 100.89441 
L 226.309091 104.585822 
L 231.218182 99.144795 
L 236.127273 103.142571 
L 241.036364 101.816965 
L 245.945455 102.609963 
L 250.854545 103.847414 
L 255.763636 101.322371 
L 260.672727 100.469563 
L 265.581818 96.228002 
L 270.490909 99.321237 
L 275.4 97.819974 
L 280.309091 102.035712 
L 285.218182 102.349472 
L 290.127273 100.763217 
L 295.036364 100.269991 
L 299.945455 98.113964 
L 304.854545 98.454454 
L 309.763636 100.111419 
L 314.672727 97.145154 
L 319.581818 99.507356 
L 324.490909 99.478434 
L 329.4 99.2163 
L 334.309091 98.474814 
L 339.218182 99.233059 
L 344.127273 96.750353 
L 349.036364 97.275521 
L 353.945455 96.444985 
L 358.854545 97.39863 
L 363.763636 95.297318 
L 368.672727 96.24837 
L 373.581818 95.653913 
" clip-path="url(#pbc6645cb38)" style="fill: none; stroke: #d62728; stroke-width: 1.5; stroke-linecap: square"/>
   </g>
   <g id="patch_3">
    <path d="M 54 252 
L 54 34.56 
" style="fill: none; stroke: #000000; stroke-width: 0.8; stroke-linejoin: miter; stroke-linecap: square"/>
   </g>
   <g id="patch_4">
    <path d="M 388.8 252 
L 388.8 34.56 
" style="fill: none; stroke: #000000; stroke-width: 0.8; stroke-linejoin: miter; stroke-linecap: square"/>
   </g>
   <g id="patch_5">
    <path d="M 54 252 
L 388.8 252 
" style="fill: none; stroke: #000000; stroke-width: 0.8; stroke-linejoin: miter; stroke-linecap: square"/>
   </g>
   <g id="patch_6">
    <path d="M 54 34.56 
L 388.8 34.56 
" style="fill: none; stroke: #000000; stroke-width: 0.8; stroke-linejoin: miter; stroke-linecap: square"/>
   </g>
   <g id="text_22">
    <!-- Median NEPS vs. Program Size (100000 f.c., nicolau_b) -->
    <g transform="translate(57.629063 28.56)scale(0.12 -0.12)">
     <defs>
      <path id="DejaVuSans-76" d="M 191 3500 
L 800 3500 
L 1894 563 
L 2988 3500 
L 3597 3500 
L 2284 0 
L 1503 0 
L 191 3500 
z
" transform="scale(0.015625)"/>
      <path id="DejaVuSans-2e" d="M 684 794 
L 1344 794 
L 1344 0 
L 684 0 
L 684 794 
z
" transform="scale(0.015625)"/>
      <path id="DejaVuSans-28" d="M 1984 4856 
Q 1566 4138 1362 3434 
Q 1159 2731 1159 2009 
Q 1159 1288 1364 580 
Q 1569 -128 1984 -844 
L 1484 -844 
Q 1016 -109 783 600 
Q 550 1309 550 2009 
Q 550 2706 781 3412 
Q 1013 4119 1484 4856 
L 1984 4856 
z
" transform="scale(0.015625)"/>
      <path id="DejaVuSans-66" d="M 2375 4863 
L 2375 4384 
L 1825 4384 
Q 1516 4384 1395 4259 
Q 1275 4134 1275 3809 
L 1275 3500 
L 2222 3500 
L 2222 3053 
L 1275 3053 
L 1275 0 
L 697 0 
L 697 3053 
L 147 3053 
L 147 3500 
L 697 3500 
L 697 3744 
Q 697 4328 969 4595 
Q 1241 4863 1831 4863 
L 2375 4863 
z
" transform="scale(0.015625)"/>
      <path id="DejaVuSans-63" d="M 3122 3366 
L 3122 2828 
Q 2878 2963 2633 3030 
Q 2388 3097 2138 3097 
Q 1578 3097 1268 2742 
Q 959 2388 959 1747 
Q 959 1106 1268 751 
Q 1578 397 2138 397 
Q 2388 397 2633 464 
Q 2878 531 3122 666 
L 3122 134 
Q 2881 22 2623 -34 
Q 2366 -91 2075 -91 
Q 1284 -91 818 406 
Q 353 903 353 1747 
Q 353 2603 823 3093 
Q 1294 3584 2113 3584 
Q 2378 3584 2631 3529 
Q 2884 3475 3122 3366 
z
" transform="scale(0.015625)"/>
      <path id="DejaVuSans-2c" d="M 750 794 
L 1409 794 
L 1409 256 
L 897 -744 
L 494 -744 
L 750 256 
L 750 794 
z
" transform="scale(0.015625)"/>
      <path id="DejaVuSans-6c" d="M 603 4863 
L 1178 4863 
L 1178 0 
L 603 0 
L 603 4863 
z
" transform="scale(0.015625)"/>
      <path id="DejaVuSans-75" d="M 544 1381 
L 544 3500 
L 1119 3500 
L 1119 1403 
Q 1119 906 1312 657 
Q 1506 409 1894 409 
Q 2359 409 2629 706 
Q 2900 1003 2900 1516 
L 2900 3500 
L 3475 3500 
L 3475 0 
L 2900 0 
L 2900 538 
Q 2691 219 2414 64 
Q 2138 -91 1772 -91 
Q 1169 -91 856 284 
Q 544 659 544 1381 
z
M 1991 3584 
L 1991 3584 
z
" transform="scale(0.015625)"/>
      <path id="DejaVuSans-5f" d="M 3263 -1063 
L 3263 -1509 
L -63 -1509 
L -63 -1063 
L 3263 -1063 
z
" transform="scale(0.015625)"/>
      <path id="DejaVuSans-62" d="M 3116 1747 
Q 3116 2381 2855 2742 
Q 2594 3103 2138 3103 
Q 1681 3103 1420 2742 
Q 1159 2381 1159 1747 
Q 1159 1113 1420 752 
Q 1681 391 2138 391 
Q 2594 391 2855 752 
Q 3116 1113 3116 1747 
z
M 1159 2969 
Q 1341 3281 1617 3432 
Q 1894 3584 2278 3584 
Q 2916 3584 3314 3078 
Q 3713 2572 3713 1747 
Q 3713 922 3314 415 
Q 2916 -91 2278 -91 
Q 1894 -91 1617 61 
Q 1341 213 1159 525 
L 1159 0 
L 581 0 
L 581 4863 
L 1159 4863 
L 1159 2969 
z
" transform="scale(0.015625)"/>
      <path id="DejaVuSans-29" d="M 513 4856 
L 1013 4856 
Q 1481 4119 1714 3412 
Q 1947 2706 1947 2009 
Q 1947 1309 1714 600 
Q 1481 -109 1013 -844 
L 513 -844 
Q 928 -128 1133 580 
Q 1338 1288 1338 2009 
Q 1338 2731 1133 3434 
Q 928 4138 513 4856 
z
" transform="scale(0.015625)"/>
     </defs>
     <use xlink:href="#DejaVuSans-4d"/>
     <use xlink:href="#DejaVuSans-65" x="86.279297"/>
     <use xlink:href="#DejaVuSans-64" x="147.802734"/>
     <use xlink:href="#DejaVuSans-69" x="211.279297"/>
     <use xlink:href="#DejaVuSans-61" x="239.0625"/>
     <use xlink:href="#DejaVuSans-6e" x="300.341797"/>
     <use xlink:href="#DejaVuSans-20" x="363.720703"/>
     <use xlink:href="#DejaVuSans-4e" x="395.507812"/>
     <use xlink:href="#DejaVuSans-45" x="470.3125"/>
     <use xlink:href="#DejaVuSans-50" x="533.496094"/>
     <use xlink:href="#DejaVuSans-53" x="593.798828"/>
     <use xlink:href="#DejaVuSans-20" x="657.275391"/>
     <use xlink:href="#DejaVuSans-76" x="689.0625"/>
     <use xlink:href="#DejaVuSans-73" x="748.242188"/>
     <use xlink:href="#DejaVuSans-2e" x="800.341797"/>
     <use xlink:href="#DejaVuSans-20" x="832.128906"/>
     <use xlink:href="#DejaVuSans-50" x="863.916016"/>
     <use xlink:href="#DejaVuSans-72" x="922.46875"/>
     <use xlink:href="#DejaVuSans-6f" x="961.332031"/>
     <use xlink:href="#DejaVuSans-67" x="1022.513672"/>
     <use xlink:href="#DejaVuSans-72" x="1085.990234"/>
     <use xlink:href="#DejaVuSans-61" x="1127.103516"/>
     <use xlink:href="#DejaVuSans-6d" x="1188.382812"/>
     <use xlink:href="#DejaVuSans-20" x="1285.794922"/>
     <use xlink:href="#DejaVuSans-53" x="1317.582031"/>
     <use xlink:href="#DejaVuSans-69" x="1381.058594"/>
     <use xlink:href="#DejaVuSans-7a" x="1408.841797"/>
     <use xlink:href="#DejaVuSans-65" x="1461.332031"/>
     <use xlink:href="#DejaVuSans-20" x="1522.855469"/>
     <use xlink:href="#DejaVuSans-28" x="1554.642578"/>
     <use xlink:href="#DejaVuSans-31" x="1593.65625"/>
     <use xlink:href="#DejaVuSans-30" x="1657.279297"/>
     <use xlink:href="#DejaVuSans-30" x="1720.902344"/>
     <use xlink:href="#DejaVuSans-30" x="1784.525391"/>
     <use xlink:href="#DejaVuSans-30" x="1848.148438"/>
     <use xlink:href="#DejaVuSans-30" x="1911.771484"/>
     <use xlink:href="#DejaVuSans-20" x="1975.394531"/>
     <use xlink:href="#DejaVuSans-66" x="2007.181641"/>
     <use xlink:href="#DejaVuSans-2e" x="2035.136719"/>
     <use xlink:href="#DejaVuSans-63" x="2066.923828"/>
     <use xlink:href="#DejaVuSans-2e" x="2121.904297"/>
     <use xlink:href="#DejaVuSans-2c" x="2153.691406"/>
     <use xlink:href="#DejaVuSans-20" x="2185.478516"/>
     <use xlink:href="#DejaVuSans-6e" x="2217.265625"/>
     <use xlink:href="#DejaVuSans-69" x="2280.644531"/>
     <use xlink:href="#DejaVuSans-63" x="2308.427734"/>
     <use xlink:href="#DejaVuSans-6f" x="2363.408203"/>
     <use xlink:href="#DejaVuSans-6c" x="2424.589844"/>
     <use xlink:href="#DejaVuSans-61" x="2452.373047"/>
     <use xlink:href="#DejaVuSans-75" x="2513.652344"/>
     <use xlink:href="#DejaVuSans-5f" x="2577.03125"/>
     <use xlink:href="#DejaVuSans-62" x="2627.03125"/>
     <use xlink:href="#DejaVuSans-29" x="2690.507812"/>
    </g>
   </g>
   <g id="legend_1">
    <g id="patch_7">
     <path d="M 61 101.2725 
L 171.19375 101.2725 
Q 173.19375 101.2725 173.19375 99.2725 
L 173.19375 41.56 
Q 173.19375 39.56 171.19375 39.56 
L 61 39.56 
Q 59 39.56 59 41.56 
L 59 99.2725 
Q 59 101.2725 61 101.2725 
z
" style="fill: #ffffff; opacity: 0.8; stroke: #cccccc; stroke-linejoin: miter"/>
    </g>
    <g id="line2d_66">
     <path d="M 63 47.658437 
L 73 47.658437 
L 83 47.658437 
" style="fill: none; stroke: #1f77b4; stroke-width: 1.5; stroke-linecap: square"/>
    </g>
    <g id="text_23">
     <!-- DEAP -->
     <g transform="translate(91 51.158437)scale(0.1 -0.1)">
      <defs>
       <path id="DejaVuSans-44" d="M 1259 4147 
L 1259 519 
L 2022 519 
Q 2988 519 3436 956 
Q 3884 1394 3884 2338 
Q 3884 3275 3436 3711 
Q 2988 4147 2022 4147 
L 1259 4147 
z
M 628 4666 
L 1925 4666 
Q 3281 4666 3915 4102 
Q 4550 3538 4550 2338 
Q 4550 1131 3912 565 
Q 3275 0 1925 0 
L 628 0 
L 628 4666 
z
" transform="scale(0.015625)"/>
       <path id="DejaVuSans-41" d="M 2188 4044 
L 1331 1722 
L 3047 1722 
L 2188 4044 
z
M 1831 4666 
L 2547 4666 
L 4325 0 
L 3669 0 
L 3244 1197 
L 1141 1197 
L 716 0 
L 50 0 
L 1831 4666 
z
" transform="scale(0.015625)"/>
      </defs>
      <use xlink:href="#DejaVuSans-44"/>
      <use xlink:href="#DejaVuSans-45" x="77.001953"/>
      <use xlink:href="#DejaVuSans-41" x="140.185547"/>
      <use xlink:href="#DejaVuSans-50" x="208.59375"/>
     </g>
    </g>
    <g id="line2d_67">
     <path d="M 63 62.336562 
L 73 62.336562 
L 83 62.336562 
" style="fill: none; stroke: #ff7f0e; stroke-width: 1.5; stroke-linecap: square"/>
    </g>
    <g id="text_24">
     <!-- TensorGP (CPU) -->
     <g transform="translate(91 65.836562)scale(0.1 -0.1)">
      <defs>
       <path id="DejaVuSans-54" d="M -19 4666 
L 3928 4666 
L 3928 4134 
L 2272 4134 
L 2272 0 
L 1638 0 
L 1638 4134 
L -19 4134 
L -19 4666 
z
" transform="scale(0.015625)"/>
       <path id="DejaVuSans-47" d="M 3809 666 
L 3809 1919 
L 2778 1919 
L 2778 2438 
L 4434 2438 
L 4434 434 
Q 4069 175 3628 42 
Q 3188 -91 2688 -91 
Q 1594 -91 976 548 
Q 359 1188 359 2328 
Q 359 3472 976 4111 
Q 1594 4750 2688 4750 
Q 3144 4750 3555 4637 
Q 3966 4525 4313 4306 
L 4313 3634 
Q 3963 3931 3569 4081 
Q 3175 4231 2741 4231 
Q 1884 4231 1454 3753 
Q 1025 3275 1025 2328 
Q 1025 1384 1454 906 
Q 1884 428 2741 428 
Q 3075 428 3337 486 
Q 3600 544 3809 666 
z
" transform="scale(0.015625)"/>
       <path id="DejaVuSans-43" d="M 4122 4306 
L 4122 3641 
Q 3803 3938 3442 4084 
Q 3081 4231 2675 4231 
Q 1875 4231 1450 3742 
Q 1025 3253 1025 2328 
Q 1025 1406 1450 917 
Q 1875 428 2675 428 
Q 3081 428 3442 575 
Q 3803 722 4122 1019 
L 4122 359 
Q 3791 134 3420 21 
Q 3050 -91 2638 -91 
Q 1578 -91 968 557 
Q 359 1206 359 2328 
Q 359 3453 968 4101 
Q 1578 4750 2638 4750 
Q 3056 4750 3426 4639 
Q 3797 4528 4122 4306 
z
" transform="scale(0.015625)"/>
       <path id="DejaVuSans-55" d="M 556 4666 
L 1191 4666 
L 1191 1831 
Q 1191 1081 1462 751 
Q 1734 422 2344 422 
Q 2950 422 3222 751 
Q 3494 1081 3494 1831 
L 3494 4666 
L 4128 4666 
L 4128 1753 
Q 4128 841 3676 375 
Q 3225 -91 2344 -91 
Q 1459 -91 1007 375 
Q 556 841 556 1753 
L 556 4666 
z
" transform="scale(0.015625)"/>
      </defs>
      <use xlink:href="#DejaVuSans-54"/>
      <use xlink:href="#DejaVuSans-65" x="44.083984"/>
      <use xlink:href="#DejaVuSans-6e" x="105.607422"/>
      <use xlink:href="#DejaVuSans-73" x="168.986328"/>
      <use xlink:href="#DejaVuSans-6f" x="221.085938"/>
      <use xlink:href="#DejaVuSans-72" x="282.267578"/>
      <use xlink:href="#DejaVuSans-47" x="323.380859"/>
      <use xlink:href="#DejaVuSans-50" x="400.871094"/>
      <use xlink:href="#DejaVuSans-20" x="461.173828"/>
      <use xlink:href="#DejaVuSans-28" x="492.960938"/>
      <use xlink:href="#DejaVuSans-43" x="531.974609"/>
      <use xlink:href="#DejaVuSans-50" x="601.798828"/>
      <use xlink:href="#DejaVuSans-55" x="662.101562"/>
      <use xlink:href="#DejaVuSans-29" x="735.294922"/>
     </g>
    </g>
    <g id="line2d_68">
     <path d="M 63 77.014687 
L 73 77.014687 
L 83 77.014687 
" style="fill: none; stroke: #2ca02c; stroke-width: 1.5; stroke-linecap: square"/>
    </g>
    <g id="text_25">
     <!-- TensorGP (GPU) -->
     <g transform="translate(91 80.514687)scale(0.1 -0.1)">
      <use xlink:href="#DejaVuSans-54"/>
      <use xlink:href="#DejaVuSans-65" x="44.083984"/>
      <use xlink:href="#DejaVuSans-6e" x="105.607422"/>
      <use xlink:href="#DejaVuSans-73" x="168.986328"/>
      <use xlink:href="#DejaVuSans-6f" x="221.085938"/>
      <use xlink:href="#DejaVuSans-72" x="282.267578"/>
      <use xlink:href="#DejaVuSans-47" x="323.380859"/>
      <use xlink:href="#DejaVuSans-50" x="400.871094"/>
      <use xlink:href="#DejaVuSans-20" x="461.173828"/>
      <use xlink:href="#DejaVuSans-28" x="492.960938"/>
      <use xlink:href="#DejaVuSans-47" x="531.974609"/>
      <use xlink:href="#DejaVuSans-50" x="609.464844"/>
      <use xlink:href="#DejaVuSans-55" x="669.767578"/>
      <use xlink:href="#DejaVuSans-29" x="742.960938"/>
     </g>
    </g>
    <g id="line2d_69">
     <path d="M 63 91.692813 
L 73 91.692813 
L 83 91.692813 
" style="fill: none; stroke: #d62728; stroke-width: 1.5; stroke-linecap: square"/>
    </g>
    <g id="text_26">
     <!-- Operon -->
     <g transform="translate(91 95.192813)scale(0.1 -0.1)">
      <defs>
       <path id="DejaVuSans-4f" d="M 2522 4238 
Q 1834 4238 1429 3725 
Q 1025 3213 1025 2328 
Q 1025 1447 1429 934 
Q 1834 422 2522 422 
Q 3209 422 3611 934 
Q 4013 1447 4013 2328 
Q 4013 3213 3611 3725 
Q 3209 4238 2522 4238 
z
M 2522 4750 
Q 3503 4750 4090 4092 
Q 4678 3434 4678 2328 
Q 4678 1225 4090 567 
Q 3503 -91 2522 -91 
Q 1538 -91 948 565 
Q 359 1222 359 2328 
Q 359 3434 948 4092 
Q 1538 4750 2522 4750 
z
" transform="scale(0.015625)"/>
       <path id="DejaVuSans-70" d="M 1159 525 
L 1159 -1331 
L 581 -1331 
L 581 3500 
L 1159 3500 
L 1159 2969 
Q 1341 3281 1617 3432 
Q 1894 3584 2278 3584 
Q 2916 3584 3314 3078 
Q 3713 2572 3713 1747 
Q 3713 922 3314 415 
Q 2916 -91 2278 -91 
Q 1894 -91 1617 61 
Q 1341 213 1159 525 
z
M 3116 1747 
Q 3116 2381 2855 2742 
Q 2594 3103 2138 3103 
Q 1681 3103 1420 2742 
Q 1159 2381 1159 1747 
Q 1159 1113 1420 752 
Q 1681 391 2138 391 
Q 2594 391 2855 752 
Q 3116 1113 3116 1747 
z
" transform="scale(0.015625)"/>
      </defs>
      <use xlink:href="#DejaVuSans-4f"/>
      <use xlink:href="#DejaVuSans-70" x="78.710938"/>
      <use xlink:href="#DejaVuSans-65" x="142.1875"/>
      <use xlink:href="#DejaVuSans-72" x="203.710938"/>
      <use xlink:href="#DejaVuSans-6f" x="242.574219"/>
      <use xlink:href="#DejaVuSans-6e" x="303.755859"/>
     </g>
    </g>
   </g>
  </g>
 </g>
 <defs>
  <clipPath id="pbc6645cb38">
   <rect x="54" y="34.56" width="334.8" height="217.44"/>
  </clipPath>
 </defs>
</svg>
