<?xml version="1.0" encoding="utf-8" standalone="no"?>
<!DOCTYPE svg PUBLIC "-//W3C//DTD SVG 1.1//EN"
  "http://www.w3.org/Graphics/SVG/1.1/DTD/svg11.dtd">
<svg xmlns:xlink="http://www.w3.org/1999/xlink" width="432pt" height="288pt" viewBox="0 0 432 288" xmlns="http://www.w3.org/2000/svg" version="1.1">
 <metadata>
  <rdf:RDF xmlns:dc="http://purl.org/dc/elements/1.1/" xmlns:cc="http://creativecommons.org/ns#" xmlns:rdf="http://www.w3.org/1999/02/22-rdf-syntax-ns#">
   <cc:Work>
    <dc:type rdf:resource="http://purl.org/dc/dcmitype/StillImage"/>
    <dc:date>2022-01-12T03:40:10.941002</dc:date>
    <dc:format>image/svg+xml</dc:format>
    <dc:creator>
     <cc:Agent>
      <dc:title>Matplotlib v3.5.1, https://matplotlib.org/</dc:title>
     </cc:Agent>
    </dc:creator>
   </cc:Work>
  </rdf:RDF>
 </metadata>
 <defs>
  <style type="text/css">*{stroke-linejoin: round; stroke-linecap: butt}</style>
 </defs>
 <g id="figure_1">
  <g id="patch_1">
   <path d="M 0 288 
L 432 288 
L 432 0 
L 0 0 
L 0 288 
z
" style="fill: none"/>
  </g>
  <g id="axes_1">
   <g id="patch_2">
    <path d="M 54 252 
L 388.8 252 
L 388.8 34.56 
L 54 34.56 
z
" style="fill: #ffffff"/>
   </g>
   <g id="PolyCollection_1">
    <path d="M 69.218182 240.88177 
L 69.218182 242.116364 
L 74.127273 226.948967 
L 79.036364 218.601746 
L 83.945455 212.543064 
L 88.854545 207.423832 
L 93.763636 204.091358 
L 98.672727 200.356571 
L 103.581818 197.852071 
L 108.490909 195.790745 
L 113.4 192.981678 
L 118.309091 191.57593 
L 123.218182 189.668153 
L 128.127273 188.507065 
L 133.036364 187.134036 
L 137.945455 185.898609 
L 142.854545 184.122798 
L 147.763636 184.025719 
L 152.672727 181.510289 
L 157.581818 181.314174 
L 162.490909 180.820841 
L 167.4 180.121147 
L 172.309091 178.642316 
L 177.218182 177.584883 
L 182.127273 176.254806 
L 187.036364 175.934009 
L 191.945455 174.51755 
L 196.854545 174.315572 
L 201.763636 174.229071 
L 206.672727 174.254397 
L 211.581818 174.810786 
L 216.490909 174.411787 
L 221.4 174.032073 
L 226.309091 173.046297 
L 231.218182 173.402668 
L 236.127273 170.858985 
L 241.036364 170.068951 
L 245.945455 169.924291 
L 250.854545 169.992074 
L 255.763636 168.766654 
L 260.672727 169.253003 
L 265.581818 168.387254 
L 270.490909 167.378152 
L 275.4 167.274155 
L 280.309091 167.352072 
L 285.218182 165.862532 
L 290.127273 166.098006 
L 295.036364 165.002839 
L 299.945455 164.238632 
L 304.854545 165.039928 
L 309.763636 165.136004 
L 314.672727 165.079744 
L 319.581818 164.622967 
L 324.490909 165.286529 
L 329.4 166.26046 
L 334.309091 162.501295 
L 339.218182 163.891134 
L 344.127273 163.109794 
L 349.036364 164.0731 
L 353.945455 161.681689 
L 358.854545 161.570542 
L 363.763636 161.177468 
L 368.672727 160.859638 
L 373.581818 161.800317 
L 373.581818 160.550656 
L 373.581818 160.550656 
L 368.672727 160.462461 
L 363.763636 160.377031 
L 358.854545 161.169656 
L 353.945455 160.817441 
L 349.036364 162.702901 
L 344.127273 162.013465 
L 339.218182 163.090872 
L 334.309091 162.284737 
L 329.4 164.826403 
L 324.490909 165.131403 
L 319.581818 163.935438 
L 314.672727 162.828333 
L 309.763636 164.281438 
L 304.854545 164.64018 
L 299.945455 164.202626 
L 295.036364 164.5903 
L 290.127273 165.677258 
L 285.218182 165.661274 
L 280.309091 166.158736 
L 275.4 167.034502 
L 270.490909 167.133427 
L 265.581818 167.210837 
L 260.672727 167.686426 
L 255.763636 168.159181 
L 250.854545 169.204655 
L 245.945455 169.129755 
L 241.036364 169.58959 
L 236.127273 169.826779 
L 231.218182 172.555663 
L 226.309091 172.234589 
L 221.4 173.16825 
L 216.490909 173.717372 
L 211.581818 173.419417 
L 206.672727 172.404369 
L 201.763636 174.09023 
L 196.854545 174.127522 
L 191.945455 173.698627 
L 187.036364 175.029439 
L 182.127273 175.999667 
L 177.218182 176.116257 
L 172.309091 177.136117 
L 167.4 178.624549 
L 162.490909 180.220864 
L 157.581818 180.736804 
L 152.672727 181.182682 
L 147.763636 183.404699 
L 142.854545 183.604201 
L 137.945455 185.40392 
L 133.036364 186.498147 
L 128.127273 187.752418 
L 123.218182 189.376591 
L 118.309091 191.287259 
L 113.4 192.507618 
L 108.490909 194.625701 
L 103.581818 197.508217 
L 98.672727 200.215424 
L 93.763636 202.841235 
L 88.854545 207.204217 
L 83.945455 211.78751 
L 79.036364 218.085834 
L 74.127273 226.648416 
L 69.218182 240.88177 
z
" clip-path="url(#p5d825aa9ad)" style="fill: #1f77b4"/>
   </g>
   <g id="PolyCollection_2">
    <path d="M 69.218182 200.659847 
L 69.218182 201.740087 
L 74.127273 191.73411 
L 79.036364 185.508386 
L 83.945455 179.612603 
L 88.854545 174.805514 
L 93.763636 170.636512 
L 98.672727 167.667964 
L 103.581818 165.749155 
L 108.490909 166.413104 
L 113.4 163.256581 
L 118.309091 164.875272 
L 123.218182 158.9036 
L 128.127273 160.973252 
L 133.036364 163.892811 
L 137.945455 161.571019 
L 142.854545 155.79472 
L 147.763636 162.241106 
L 152.672727 154.860271 
L 157.581818 162.065856 
L 162.490909 158.234178 
L 167.4 152.934321 
L 172.309091 155.826344 
L 177.218182 155.897078 
L 182.127273 154.470083 
L 187.036364 152.344254 
L 191.945455 149.570585 
L 196.854545 155.714373 
L 201.763636 153.903645 
L 206.672727 148.810893 
L 211.581818 152.152254 
L 216.490909 152.049696 
L 221.4 153.043175 
L 226.309091 154.148276 
L 231.218182 152.801963 
L 236.127273 152.984727 
L 241.036364 155.406689 
L 245.945455 163.623913 
L 250.854545 156.888364 
L 255.763636 146.516749 
L 260.672727 152.533582 
L 265.581818 151.311581 
L 270.490909 150.184673 
L 275.4 150.293621 
L 280.309091 152.389537 
L 285.218182 150.883184 
L 290.127273 151.608161 
L 295.036364 148.616459 
L 299.945455 145.519293 
L 304.854545 153.788879 
L 309.763636 153.21117 
L 314.672727 146.124007 
L 319.581818 148.482867 
L 324.490909 152.479595 
L 329.4 150.095274 
L 334.309091 160.760043 
L 339.218182 159.01849 
L 344.127273 148.059395 
L 349.036364 151.685695 
L 353.945455 145.522837 
L 358.854545 147.956115 
L 363.763636 147.224989 
L 368.672727 146.049489 
L 373.581818 146.663812 
L 373.581818 146.443681 
L 373.581818 146.443681 
L 368.672727 145.379042 
L 363.763636 146.788092 
L 358.854545 147.3289 
L 353.945455 145.320968 
L 349.036364 151.484039 
L 344.127273 147.612971 
L 339.218182 152.652272 
L 334.309091 146.656624 
L 329.4 149.745724 
L 324.490909 152.344182 
L 319.581818 144.458458 
L 314.672727 145.554902 
L 309.763636 152.641977 
L 304.854545 149.979297 
L 299.945455 145.381063 
L 295.036364 147.990412 
L 290.127273 151.053608 
L 285.218182 150.039438 
L 280.309091 152.061812 
L 275.4 150.038839 
L 270.490909 149.719099 
L 265.581818 151.174898 
L 260.672727 152.378077 
L 255.763636 146.169466 
L 250.854545 156.811768 
L 245.945455 161.487977 
L 241.036364 146.695331 
L 236.127273 151.4448 
L 231.218182 151.97463 
L 226.309091 153.773552 
L 221.4 152.196343 
L 216.490909 151.352875 
L 211.581818 152.008134 
L 206.672727 148.186555 
L 201.763636 153.780313 
L 196.854545 155.303893 
L 191.945455 148.800277 
L 187.036364 151.915838 
L 182.127273 154.184465 
L 177.218182 155.833 
L 172.309091 155.44478 
L 167.4 152.533469 
L 162.490909 157.449747 
L 157.581818 158.455445 
L 152.672727 154.306873 
L 147.763636 161.307659 
L 142.854545 155.26292 
L 137.945455 155.983936 
L 133.036364 163.672407 
L 128.127273 160.354163 
L 123.218182 158.442058 
L 118.309091 164.351095 
L 113.4 157.307586 
L 108.490909 166.327059 
L 103.581818 164.843707 
L 98.672727 167.310681 
L 93.763636 170.16867 
L 88.854545 174.351014 
L 83.945455 176.527982 
L 79.036364 184.828812 
L 74.127273 191.068901 
L 69.218182 200.659847 
z
" clip-path="url(#p5d825aa9ad)" style="fill: #ff7f0e"/>
   </g>
   <g id="PolyCollection_3">
    <path d="M 69.218182 201.587823 
L 69.218182 202.337993 
L 74.127273 193.533325 
L 79.036364 186.768023 
L 83.945455 177.771041 
L 88.854545 175.110494 
L 93.763636 170.873733 
L 98.672727 167.562461 
L 103.581818 164.861627 
L 108.490909 165.817896 
L 113.4 159.353835 
L 118.309091 164.834546 
L 123.218182 158.114652 
L 128.127273 160.796766 
L 133.036364 164.227115 
L 137.945455 158.238391 
L 142.854545 155.6087 
L 147.763636 162.453968 
L 152.672727 154.830025 
L 157.581818 160.288509 
L 162.490909 158.437955 
L 167.4 153.280264 
L 172.309091 155.894927 
L 177.218182 156.412365 
L 182.127273 154.780706 
L 187.036364 151.977603 
L 191.945455 149.424549 
L 196.854545 155.254327 
L 201.763636 153.406394 
L 206.672727 148.173458 
L 211.581818 151.890559 
L 216.490909 152.437935 
L 221.4 152.349063 
L 226.309091 153.163537 
L 231.218182 151.405513 
L 236.127273 152.446084 
L 241.036364 149.753018 
L 245.945455 150.893584 
L 250.854545 156.900337 
L 255.763636 145.718526 
L 260.672727 151.641747 
L 265.581818 151.032246 
L 270.490909 148.879086 
L 275.4 149.520007 
L 280.309091 152.387429 
L 285.218182 149.946652 
L 290.127273 151.541958 
L 295.036364 147.995006 
L 299.945455 144.745829 
L 304.854545 151.296733 
L 309.763636 149.709495 
L 314.672727 143.108962 
L 319.581818 145.878681 
L 324.490909 152.508611 
L 329.4 149.617356 
L 334.309091 144.937971 
L 339.218182 150.850095 
L 344.127273 147.812218 
L 349.036364 151.739731 
L 353.945455 145.476394 
L 358.854545 147.843691 
L 363.763636 147.332498 
L 368.672727 145.855981 
L 373.581818 147.021307 
L 373.581818 146.43085 
L 373.581818 146.43085 
L 368.672727 145.38475 
L 363.763636 146.986195 
L 358.854545 147.538392 
L 353.945455 144.952606 
L 349.036364 151.414479 
L 344.127273 147.365724 
L 339.218182 150.673905 
L 334.309091 144.199237 
L 329.4 149.388651 
L 324.490909 152.044423 
L 319.581818 145.407922 
L 314.672727 142.712378 
L 309.763636 149.470094 
L 304.854545 150.94226 
L 299.945455 144.372545 
L 295.036364 147.157072 
L 290.127273 151.323355 
L 285.218182 149.633897 
L 280.309091 151.737823 
L 275.4 149.301784 
L 270.490909 148.582875 
L 265.581818 149.924675 
L 260.672727 150.915031 
L 255.763636 145.233999 
L 250.854545 156.779524 
L 245.945455 150.227651 
L 241.036364 149.609137 
L 236.127273 152.172776 
L 231.218182 151.132455 
L 226.309091 152.655824 
L 221.4 151.960297 
L 216.490909 151.750631 
L 211.581818 151.032901 
L 206.672727 147.474681 
L 201.763636 153.119755 
L 196.854545 154.276723 
L 191.945455 148.58752 
L 187.036364 151.666968 
L 182.127273 154.08268 
L 177.218182 155.652026 
L 172.309091 155.643929 
L 167.4 152.700568 
L 162.490909 158.168167 
L 157.581818 160.161494 
L 152.672727 154.270512 
L 147.763636 161.868415 
L 142.854545 154.536793 
L 137.945455 157.764006 
L 133.036364 163.421527 
L 128.127273 160.475778 
L 123.218182 157.954385 
L 118.309091 163.217986 
L 113.4 158.70026 
L 108.490909 165.376141 
L 103.581818 164.185516 
L 98.672727 167.008411 
L 93.763636 170.131576 
L 88.854545 173.236887 
L 83.945455 177.247392 
L 79.036364 185.526158 
L 74.127273 192.527656 
L 69.218182 201.587823 
z
" clip-path="url(#p5d825aa9ad)" style="fill: #2ca02c"/>
   </g>
   <g id="PolyCollection_4">
    <path d="M 69.218182 122.660682 
L 69.218182 135.829279 
L 74.127273 120.416166 
L 79.036364 109.419066 
L 83.945455 106.169909 
L 88.854545 98.776941 
L 93.763636 97.794554 
L 98.672727 101.041206 
L 103.581818 95.411584 
L 108.490909 89.626348 
L 113.4 49702.922587 
L 118.309091 86.630203 
L 123.218182 91.303331 
L 128.127273 82.974133 
L 133.036364 83.96307 
L 137.945455 80.717795 
L 142.854545 83.229284 
L 147.763636 88.977398 
L 152.672727 82.127275 
L 157.581818 75.477245 
L 162.490909 74.935457 
L 167.4 72.306663 
L 172.309091 73.950488 
L 177.218182 79.589645 
L 182.127273 66.086123 
L 187.036364 72.282124 
L 191.945455 72.153907 
L 196.854545 72.922016 
L 201.763636 81.192645 
L 206.672727 71.666891 
L 211.581818 72.926532 
L 216.490909 67.411833 
L 221.4 98.01649 
L 226.309091 71.94684 
L 231.218182 70.93025 
L 236.127273 64.262224 
L 241.036364 69.176528 
L 245.945455 68.562566 
L 250.854545 67.561116 
L 255.763636 66.003778 
L 260.672727 63.664348 
L 265.581818 64.347134 
L 270.490909 66.073843 
L 275.4 62.802798 
L 280.309091 65.481189 
L 285.218182 76.243853 
L 290.127273 61.066839 
L 295.036364 59.9158 
L 299.945455 60.119389 
L 304.854545 57.988623 
L 309.763636 59.396523 
L 314.672727 58.509608 
L 319.581818 58.662816 
L 324.490909 74.793752 
L 329.4 58.876835 
L 334.309091 54.300255 
L 339.218182 64.441056 
L 344.127273 51.473913 
L 349.036364 57.685269 
L 353.945455 55.647769 
L 358.854545 56.114107 
L 363.763636 52.49953 
L 368.672727 56.434133 
L 373.581818 52.892782 
L 373.581818 52.321423 
L 373.581818 52.321423 
L 368.672727 46.632363 
L 363.763636 51.14903 
L 358.854545 53.654673 
L 353.945455 53.097019 
L 349.036364 55.943311 
L 344.127273 48.337039 
L 339.218182 47.07103 
L 334.309091 52.117645 
L 329.4 57.058376 
L 324.490909 44.443636 
L 319.581818 53.612101 
L 314.672727 56.40159 
L 309.763636 56.18047 
L 304.854545 54.294565 
L 299.945455 57.09235 
L 295.036364 58.684389 
L 290.127273 59.582584 
L 285.218182 45.472195 
L 280.309091 57.080232 
L 275.4 55.67059 
L 270.490909 61.405026 
L 265.581818 52.597556 
L 260.672727 59.145656 
L 255.763636 60.432519 
L 250.854545 62.254782 
L 245.945455 60.483326 
L 241.036364 59.791907 
L 236.127273 63.131411 
L 231.218182 52.887276 
L 226.309091 61.040301 
L 221.4 58.06515 
L 216.490909 61.139635 
L 211.581818 62.695353 
L 206.672727 59.53929 
L 201.763636 61.380956 
L 196.854545 64.07068 
L 191.945455 63.601177 
L 187.036364 65.50318 
L 182.127273 62.636765 
L 177.218182 69.800513 
L 172.309091 72.376447 
L 167.4 69.226329 
L 162.490909 67.636712 
L 157.581818 64.799199 
L 152.672727 69.49552 
L 147.763636 73.659881 
L 142.854545 64.73646 
L 137.945455 75.779938 
L 133.036364 70.846899 
L 128.127273 76.706188 
L 123.218182 74.790128 
L 118.309091 84.167194 
L 113.4 67.364057 
L 108.490909 78.812306 
L 103.581818 74.21214 
L 98.672727 90.135842 
L 93.763636 92.641127 
L 88.854545 97.78135 
L 83.945455 103.031885 
L 79.036364 108.685364 
L 74.127273 115.204856 
L 69.218182 122.660682 
z
" clip-path="url(#p5d825aa9ad)" style="fill: #d62728"/>
   </g>
   <g id="matplotlib.axis_1">
    <g id="xtick_1">
     <g id="line2d_1">
      <defs>
       <path id="m3d302fb604" d="M 0 0 
L 0 3.5 
" style="stroke: #000000; stroke-width: 0.8"/>
      </defs>
      <g>
       <use xlink:href="#m3d302fb604" x="69.218182" y="252" style="stroke: #000000; stroke-width: 0.8"/>
      </g>
     </g>
     <g id="text_1">
      <!-- 1 -->
      <g transform="translate(66.036932 266.598437)scale(0.1 -0.1)">
       <defs>
        <path id="DejaVuSans-31" d="M 794 531 
L 1825 531 
L 1825 4091 
L 703 3866 
L 703 4441 
L 1819 4666 
L 2450 4666 
L 2450 531 
L 3481 531 
L 3481 0 
L 794 0 
L 794 531 
z
" transform="scale(0.015625)"/>
       </defs>
       <use xlink:href="#DejaVuSans-31"/>
      </g>
     </g>
    </g>
    <g id="xtick_2">
     <g id="line2d_2">
      <g>
       <use xlink:href="#m3d302fb604" x="93.763636" y="252" style="stroke: #000000; stroke-width: 0.8"/>
      </g>
     </g>
     <g id="text_2">
      <!-- 6 -->
      <g transform="translate(90.582386 266.598437)scale(0.1 -0.1)">
       <defs>
        <path id="DejaVuSans-36" d="M 2113 2584 
Q 1688 2584 1439 2293 
Q 1191 2003 1191 1497 
Q 1191 994 1439 701 
Q 1688 409 2113 409 
Q 2538 409 2786 701 
Q 3034 994 3034 1497 
Q 3034 2003 2786 2293 
Q 2538 2584 2113 2584 
z
M 3366 4563 
L 3366 3988 
Q 3128 4100 2886 4159 
Q 2644 4219 2406 4219 
Q 1781 4219 1451 3797 
Q 1122 3375 1075 2522 
Q 1259 2794 1537 2939 
Q 1816 3084 2150 3084 
Q 2853 3084 3261 2657 
Q 3669 2231 3669 1497 
Q 3669 778 3244 343 
Q 2819 -91 2113 -91 
Q 1303 -91 875 529 
Q 447 1150 447 2328 
Q 447 3434 972 4092 
Q 1497 4750 2381 4750 
Q 2619 4750 2861 4703 
Q 3103 4656 3366 4563 
z
" transform="scale(0.015625)"/>
       </defs>
       <use xlink:href="#DejaVuSans-36"/>
      </g>
     </g>
    </g>
    <g id="xtick_3">
     <g id="line2d_3">
      <g>
       <use xlink:href="#m3d302fb604" x="118.309091" y="252" style="stroke: #000000; stroke-width: 0.8"/>
      </g>
     </g>
     <g id="text_3">
      <!-- 11 -->
      <g transform="translate(111.946591 266.598437)scale(0.1 -0.1)">
       <use xlink:href="#DejaVuSans-31"/>
       <use xlink:href="#DejaVuSans-31" x="63.623047"/>
      </g>
     </g>
    </g>
    <g id="xtick_4">
     <g id="line2d_4">
      <g>
       <use xlink:href="#m3d302fb604" x="142.854545" y="252" style="stroke: #000000; stroke-width: 0.8"/>
      </g>
     </g>
     <g id="text_4">
      <!-- 16 -->
      <g transform="translate(136.492045 266.598437)scale(0.1 -0.1)">
       <use xlink:href="#DejaVuSans-31"/>
       <use xlink:href="#DejaVuSans-36" x="63.623047"/>
      </g>
     </g>
    </g>
    <g id="xtick_5">
     <g id="line2d_5">
      <g>
       <use xlink:href="#m3d302fb604" x="167.4" y="252" style="stroke: #000000; stroke-width: 0.8"/>
      </g>
     </g>
     <g id="text_5">
      <!-- 21 -->
      <g transform="translate(161.0375 266.598437)scale(0.1 -0.1)">
       <defs>
        <path id="DejaVuSans-32" d="M 1228 531 
L 3431 531 
L 3431 0 
L 469 0 
L 469 531 
Q 828 903 1448 1529 
Q 2069 2156 2228 2338 
Q 2531 2678 2651 2914 
Q 2772 3150 2772 3378 
Q 2772 3750 2511 3984 
Q 2250 4219 1831 4219 
Q 1534 4219 1204 4116 
Q 875 4013 500 3803 
L 500 4441 
Q 881 4594 1212 4672 
Q 1544 4750 1819 4750 
Q 2544 4750 2975 4387 
Q 3406 4025 3406 3419 
Q 3406 3131 3298 2873 
Q 3191 2616 2906 2266 
Q 2828 2175 2409 1742 
Q 1991 1309 1228 531 
z
" transform="scale(0.015625)"/>
       </defs>
       <use xlink:href="#DejaVuSans-32"/>
       <use xlink:href="#DejaVuSans-31" x="63.623047"/>
      </g>
     </g>
    </g>
    <g id="xtick_6">
     <g id="line2d_6">
      <g>
       <use xlink:href="#m3d302fb604" x="191.945455" y="252" style="stroke: #000000; stroke-width: 0.8"/>
      </g>
     </g>
     <g id="text_6">
      <!-- 26 -->
      <g transform="translate(185.582955 266.598437)scale(0.1 -0.1)">
       <use xlink:href="#DejaVuSans-32"/>
       <use xlink:href="#DejaVuSans-36" x="63.623047"/>
      </g>
     </g>
    </g>
    <g id="xtick_7">
     <g id="line2d_7">
      <g>
       <use xlink:href="#m3d302fb604" x="216.490909" y="252" style="stroke: #000000; stroke-width: 0.8"/>
      </g>
     </g>
     <g id="text_7">
      <!-- 31 -->
      <g transform="translate(210.128409 266.598437)scale(0.1 -0.1)">
       <defs>
        <path id="DejaVuSans-33" d="M 2597 2516 
Q 3050 2419 3304 2112 
Q 3559 1806 3559 1356 
Q 3559 666 3084 287 
Q 2609 -91 1734 -91 
Q 1441 -91 1130 -33 
Q 819 25 488 141 
L 488 750 
Q 750 597 1062 519 
Q 1375 441 1716 441 
Q 2309 441 2620 675 
Q 2931 909 2931 1356 
Q 2931 1769 2642 2001 
Q 2353 2234 1838 2234 
L 1294 2234 
L 1294 2753 
L 1863 2753 
Q 2328 2753 2575 2939 
Q 2822 3125 2822 3475 
Q 2822 3834 2567 4026 
Q 2313 4219 1838 4219 
Q 1578 4219 1281 4162 
Q 984 4106 628 3988 
L 628 4550 
Q 988 4650 1302 4700 
Q 1616 4750 1894 4750 
Q 2613 4750 3031 4423 
Q 3450 4097 3450 3541 
Q 3450 3153 3228 2886 
Q 3006 2619 2597 2516 
z
" transform="scale(0.015625)"/>
       </defs>
       <use xlink:href="#DejaVuSans-33"/>
       <use xlink:href="#DejaVuSans-31" x="63.623047"/>
      </g>
     </g>
    </g>
    <g id="xtick_8">
     <g id="line2d_8">
      <g>
       <use xlink:href="#m3d302fb604" x="241.036364" y="252" style="stroke: #000000; stroke-width: 0.8"/>
      </g>
     </g>
     <g id="text_8">
      <!-- 36 -->
      <g transform="translate(234.673864 266.598437)scale(0.1 -0.1)">
       <use xlink:href="#DejaVuSans-33"/>
       <use xlink:href="#DejaVuSans-36" x="63.623047"/>
      </g>
     </g>
    </g>
    <g id="xtick_9">
     <g id="line2d_9">
      <g>
       <use xlink:href="#m3d302fb604" x="265.581818" y="252" style="stroke: #000000; stroke-width: 0.8"/>
      </g>
     </g>
     <g id="text_9">
      <!-- 41 -->
      <g transform="translate(259.219318 266.598437)scale(0.1 -0.1)">
       <defs>
        <path id="DejaVuSans-34" d="M 2419 4116 
L 825 1625 
L 2419 1625 
L 2419 4116 
z
M 2253 4666 
L 3047 4666 
L 3047 1625 
L 3713 1625 
L 3713 1100 
L 3047 1100 
L 3047 0 
L 2419 0 
L 2419 1100 
L 313 1100 
L 313 1709 
L 2253 4666 
z
" transform="scale(0.015625)"/>
       </defs>
       <use xlink:href="#DejaVuSans-34"/>
       <use xlink:href="#DejaVuSans-31" x="63.623047"/>
      </g>
     </g>
    </g>
    <g id="xtick_10">
     <g id="line2d_10">
      <g>
       <use xlink:href="#m3d302fb604" x="290.127273" y="252" style="stroke: #000000; stroke-width: 0.8"/>
      </g>
     </g>
     <g id="text_10">
      <!-- 46 -->
      <g transform="translate(283.764773 266.598437)scale(0.1 -0.1)">
       <use xlink:href="#DejaVuSans-34"/>
       <use xlink:href="#DejaVuSans-36" x="63.623047"/>
      </g>
     </g>
    </g>
    <g id="xtick_11">
     <g id="line2d_11">
      <g>
       <use xlink:href="#m3d302fb604" x="314.672727" y="252" style="stroke: #000000; stroke-width: 0.8"/>
      </g>
     </g>
     <g id="text_11">
      <!-- 51 -->
      <g transform="translate(308.310227 266.598437)scale(0.1 -0.1)">
       <defs>
        <path id="DejaVuSans-35" d="M 691 4666 
L 3169 4666 
L 3169 4134 
L 1269 4134 
L 1269 2991 
Q 1406 3038 1543 3061 
Q 1681 3084 1819 3084 
Q 2600 3084 3056 2656 
Q 3513 2228 3513 1497 
Q 3513 744 3044 326 
Q 2575 -91 1722 -91 
Q 1428 -91 1123 -41 
Q 819 9 494 109 
L 494 744 
Q 775 591 1075 516 
Q 1375 441 1709 441 
Q 2250 441 2565 725 
Q 2881 1009 2881 1497 
Q 2881 1984 2565 2268 
Q 2250 2553 1709 2553 
Q 1456 2553 1204 2497 
Q 953 2441 691 2322 
L 691 4666 
z
" transform="scale(0.015625)"/>
       </defs>
       <use xlink:href="#DejaVuSans-35"/>
       <use xlink:href="#DejaVuSans-31" x="63.623047"/>
      </g>
     </g>
    </g>
    <g id="xtick_12">
     <g id="line2d_12">
      <g>
       <use xlink:href="#m3d302fb604" x="339.218182" y="252" style="stroke: #000000; stroke-width: 0.8"/>
      </g>
     </g>
     <g id="text_12">
      <!-- 56 -->
      <g transform="translate(332.855682 266.598437)scale(0.1 -0.1)">
       <use xlink:href="#DejaVuSans-35"/>
       <use xlink:href="#DejaVuSans-36" x="63.623047"/>
      </g>
     </g>
    </g>
    <g id="xtick_13">
     <g id="line2d_13">
      <g>
       <use xlink:href="#m3d302fb604" x="363.763636" y="252" style="stroke: #000000; stroke-width: 0.8"/>
      </g>
     </g>
     <g id="text_13">
      <!-- 61 -->
      <g transform="translate(357.401136 266.598437)scale(0.1 -0.1)">
       <use xlink:href="#DejaVuSans-36"/>
       <use xlink:href="#DejaVuSans-31" x="63.623047"/>
      </g>
     </g>
    </g>
    <g id="text_14">
     <!-- Program size -->
     <g transform="translate(189.022656 280.276563)scale(0.1 -0.1)">
      <defs>
       <path id="DejaVuSans-50" d="M 1259 4147 
L 1259 2394 
L 2053 2394 
Q 2494 2394 2734 2622 
Q 2975 2850 2975 3272 
Q 2975 3691 2734 3919 
Q 2494 4147 2053 4147 
L 1259 4147 
z
M 628 4666 
L 2053 4666 
Q 2838 4666 3239 4311 
Q 3641 3956 3641 3272 
Q 3641 2581 3239 2228 
Q 2838 1875 2053 1875 
L 1259 1875 
L 1259 0 
L 628 0 
L 628 4666 
z
" transform="scale(0.015625)"/>
       <path id="DejaVuSans-72" d="M 2631 2963 
Q 2534 3019 2420 3045 
Q 2306 3072 2169 3072 
Q 1681 3072 1420 2755 
Q 1159 2438 1159 1844 
L 1159 0 
L 581 0 
L 581 3500 
L 1159 3500 
L 1159 2956 
Q 1341 3275 1631 3429 
Q 1922 3584 2338 3584 
Q 2397 3584 2469 3576 
Q 2541 3569 2628 3553 
L 2631 2963 
z
" transform="scale(0.015625)"/>
       <path id="DejaVuSans-6f" d="M 1959 3097 
Q 1497 3097 1228 2736 
Q 959 2375 959 1747 
Q 959 1119 1226 758 
Q 1494 397 1959 397 
Q 2419 397 2687 759 
Q 2956 1122 2956 1747 
Q 2956 2369 2687 2733 
Q 2419 3097 1959 3097 
z
M 1959 3584 
Q 2709 3584 3137 3096 
Q 3566 2609 3566 1747 
Q 3566 888 3137 398 
Q 2709 -91 1959 -91 
Q 1206 -91 779 398 
Q 353 888 353 1747 
Q 353 2609 779 3096 
Q 1206 3584 1959 3584 
z
" transform="scale(0.015625)"/>
       <path id="DejaVuSans-67" d="M 2906 1791 
Q 2906 2416 2648 2759 
Q 2391 3103 1925 3103 
Q 1463 3103 1205 2759 
Q 947 2416 947 1791 
Q 947 1169 1205 825 
Q 1463 481 1925 481 
Q 2391 481 2648 825 
Q 2906 1169 2906 1791 
z
M 3481 434 
Q 3481 -459 3084 -895 
Q 2688 -1331 1869 -1331 
Q 1566 -1331 1297 -1286 
Q 1028 -1241 775 -1147 
L 775 -588 
Q 1028 -725 1275 -790 
Q 1522 -856 1778 -856 
Q 2344 -856 2625 -561 
Q 2906 -266 2906 331 
L 2906 616 
Q 2728 306 2450 153 
Q 2172 0 1784 0 
Q 1141 0 747 490 
Q 353 981 353 1791 
Q 353 2603 747 3093 
Q 1141 3584 1784 3584 
Q 2172 3584 2450 3431 
Q 2728 3278 2906 2969 
L 2906 3500 
L 3481 3500 
L 3481 434 
z
" transform="scale(0.015625)"/>
       <path id="DejaVuSans-61" d="M 2194 1759 
Q 1497 1759 1228 1600 
Q 959 1441 959 1056 
Q 959 750 1161 570 
Q 1363 391 1709 391 
Q 2188 391 2477 730 
Q 2766 1069 2766 1631 
L 2766 1759 
L 2194 1759 
z
M 3341 1997 
L 3341 0 
L 2766 0 
L 2766 531 
Q 2569 213 2275 61 
Q 1981 -91 1556 -91 
Q 1019 -91 701 211 
Q 384 513 384 1019 
Q 384 1609 779 1909 
Q 1175 2209 1959 2209 
L 2766 2209 
L 2766 2266 
Q 2766 2663 2505 2880 
Q 2244 3097 1772 3097 
Q 1472 3097 1187 3025 
Q 903 2953 641 2809 
L 641 3341 
Q 956 3463 1253 3523 
Q 1550 3584 1831 3584 
Q 2591 3584 2966 3190 
Q 3341 2797 3341 1997 
z
" transform="scale(0.015625)"/>
       <path id="DejaVuSans-6d" d="M 3328 2828 
Q 3544 3216 3844 3400 
Q 4144 3584 4550 3584 
Q 5097 3584 5394 3201 
Q 5691 2819 5691 2113 
L 5691 0 
L 5113 0 
L 5113 2094 
Q 5113 2597 4934 2840 
Q 4756 3084 4391 3084 
Q 3944 3084 3684 2787 
Q 3425 2491 3425 1978 
L 3425 0 
L 2847 0 
L 2847 2094 
Q 2847 2600 2669 2842 
Q 2491 3084 2119 3084 
Q 1678 3084 1418 2786 
Q 1159 2488 1159 1978 
L 1159 0 
L 581 0 
L 581 3500 
L 1159 3500 
L 1159 2956 
Q 1356 3278 1631 3431 
Q 1906 3584 2284 3584 
Q 2666 3584 2933 3390 
Q 3200 3197 3328 2828 
z
" transform="scale(0.015625)"/>
       <path id="DejaVuSans-20" transform="scale(0.015625)"/>
       <path id="DejaVuSans-73" d="M 2834 3397 
L 2834 2853 
Q 2591 2978 2328 3040 
Q 2066 3103 1784 3103 
Q 1356 3103 1142 2972 
Q 928 2841 928 2578 
Q 928 2378 1081 2264 
Q 1234 2150 1697 2047 
L 1894 2003 
Q 2506 1872 2764 1633 
Q 3022 1394 3022 966 
Q 3022 478 2636 193 
Q 2250 -91 1575 -91 
Q 1294 -91 989 -36 
Q 684 19 347 128 
L 347 722 
Q 666 556 975 473 
Q 1284 391 1588 391 
Q 1994 391 2212 530 
Q 2431 669 2431 922 
Q 2431 1156 2273 1281 
Q 2116 1406 1581 1522 
L 1381 1569 
Q 847 1681 609 1914 
Q 372 2147 372 2553 
Q 372 3047 722 3315 
Q 1072 3584 1716 3584 
Q 2034 3584 2315 3537 
Q 2597 3491 2834 3397 
z
" transform="scale(0.015625)"/>
       <path id="DejaVuSans-69" d="M 603 3500 
L 1178 3500 
L 1178 0 
L 603 0 
L 603 3500 
z
M 603 4863 
L 1178 4863 
L 1178 4134 
L 603 4134 
L 603 4863 
z
" transform="scale(0.015625)"/>
       <path id="DejaVuSans-7a" d="M 353 3500 
L 3084 3500 
L 3084 2975 
L 922 459 
L 3084 459 
L 3084 0 
L 275 0 
L 275 525 
L 2438 3041 
L 353 3041 
L 353 3500 
z
" transform="scale(0.015625)"/>
       <path id="DejaVuSans-65" d="M 3597 1894 
L 3597 1613 
L 953 1613 
Q 991 1019 1311 708 
Q 1631 397 2203 397 
Q 2534 397 2845 478 
Q 3156 559 3463 722 
L 3463 178 
Q 3153 47 2828 -22 
Q 2503 -91 2169 -91 
Q 1331 -91 842 396 
Q 353 884 353 1716 
Q 353 2575 817 3079 
Q 1281 3584 2069 3584 
Q 2775 3584 3186 3129 
Q 3597 2675 3597 1894 
z
M 3022 2063 
Q 3016 2534 2758 2815 
Q 2500 3097 2075 3097 
Q 1594 3097 1305 2825 
Q 1016 2553 972 2059 
L 3022 2063 
z
" transform="scale(0.015625)"/>
      </defs>
      <use xlink:href="#DejaVuSans-50"/>
      <use xlink:href="#DejaVuSans-72" x="58.552734"/>
      <use xlink:href="#DejaVuSans-6f" x="97.416016"/>
      <use xlink:href="#DejaVuSans-67" x="158.597656"/>
      <use xlink:href="#DejaVuSans-72" x="222.074219"/>
      <use xlink:href="#DejaVuSans-61" x="263.1875"/>
      <use xlink:href="#DejaVuSans-6d" x="324.466797"/>
      <use xlink:href="#DejaVuSans-20" x="421.878906"/>
      <use xlink:href="#DejaVuSans-73" x="453.666016"/>
      <use xlink:href="#DejaVuSans-69" x="505.765625"/>
      <use xlink:href="#DejaVuSans-7a" x="533.548828"/>
      <use xlink:href="#DejaVuSans-65" x="586.039062"/>
     </g>
    </g>
   </g>
   <g id="matplotlib.axis_2">
    <g id="ytick_1">
     <g id="line2d_14">
      <defs>
       <path id="m119a32bddc" d="M 0 0 
L -3.5 0 
" style="stroke: #000000; stroke-width: 0.8"/>
      </defs>
      <g>
       <use xlink:href="#m119a32bddc" x="54" y="233.413806" style="stroke: #000000; stroke-width: 0.8"/>
      </g>
     </g>
     <g id="text_15">
      <!-- $\mathdefault{10^{5}}$ -->
      <g transform="translate(29.4 237.213025)scale(0.1 -0.1)">
       <defs>
        <path id="DejaVuSans-30" d="M 2034 4250 
Q 1547 4250 1301 3770 
Q 1056 3291 1056 2328 
Q 1056 1369 1301 889 
Q 1547 409 2034 409 
Q 2525 409 2770 889 
Q 3016 1369 3016 2328 
Q 3016 3291 2770 3770 
Q 2525 4250 2034 4250 
z
M 2034 4750 
Q 2819 4750 3233 4129 
Q 3647 3509 3647 2328 
Q 3647 1150 3233 529 
Q 2819 -91 2034 -91 
Q 1250 -91 836 529 
Q 422 1150 422 2328 
Q 422 3509 836 4129 
Q 1250 4750 2034 4750 
z
" transform="scale(0.015625)"/>
       </defs>
       <use xlink:href="#DejaVuSans-31" transform="translate(0 0.684375)"/>
       <use xlink:href="#DejaVuSans-30" transform="translate(63.623047 0.684375)"/>
       <use xlink:href="#DejaVuSans-35" transform="translate(128.203125 38.965625)scale(0.7)"/>
      </g>
     </g>
    </g>
    <g id="ytick_2">
     <g id="line2d_15">
      <g>
       <use xlink:href="#m119a32bddc" x="54" y="184.190414" style="stroke: #000000; stroke-width: 0.8"/>
      </g>
     </g>
     <g id="text_16">
      <!-- $\mathdefault{10^{6}}$ -->
      <g transform="translate(29.4 187.989633)scale(0.1 -0.1)">
       <use xlink:href="#DejaVuSans-31" transform="translate(0 0.765625)"/>
       <use xlink:href="#DejaVuSans-30" transform="translate(63.623047 0.765625)"/>
       <use xlink:href="#DejaVuSans-36" transform="translate(128.203125 39.046875)scale(0.7)"/>
      </g>
     </g>
    </g>
    <g id="ytick_3">
     <g id="line2d_16">
      <g>
       <use xlink:href="#m119a32bddc" x="54" y="134.967022" style="stroke: #000000; stroke-width: 0.8"/>
      </g>
     </g>
     <g id="text_17">
      <!-- $\mathdefault{10^{7}}$ -->
      <g transform="translate(29.4 138.766241)scale(0.1 -0.1)">
       <defs>
        <path id="DejaVuSans-37" d="M 525 4666 
L 3525 4666 
L 3525 4397 
L 1831 0 
L 1172 0 
L 2766 4134 
L 525 4134 
L 525 4666 
z
" transform="scale(0.015625)"/>
       </defs>
       <use xlink:href="#DejaVuSans-31" transform="translate(0 0.684375)"/>
       <use xlink:href="#DejaVuSans-30" transform="translate(63.623047 0.684375)"/>
       <use xlink:href="#DejaVuSans-37" transform="translate(128.203125 38.965625)scale(0.7)"/>
      </g>
     </g>
    </g>
    <g id="ytick_4">
     <g id="line2d_17">
      <g>
       <use xlink:href="#m119a32bddc" x="54" y="85.74363" style="stroke: #000000; stroke-width: 0.8"/>
      </g>
     </g>
     <g id="text_18">
      <!-- $\mathdefault{10^{8}}$ -->
      <g transform="translate(29.4 89.542849)scale(0.1 -0.1)">
       <defs>
        <path id="DejaVuSans-38" d="M 2034 2216 
Q 1584 2216 1326 1975 
Q 1069 1734 1069 1313 
Q 1069 891 1326 650 
Q 1584 409 2034 409 
Q 2484 409 2743 651 
Q 3003 894 3003 1313 
Q 3003 1734 2745 1975 
Q 2488 2216 2034 2216 
z
M 1403 2484 
Q 997 2584 770 2862 
Q 544 3141 544 3541 
Q 544 4100 942 4425 
Q 1341 4750 2034 4750 
Q 2731 4750 3128 4425 
Q 3525 4100 3525 3541 
Q 3525 3141 3298 2862 
Q 3072 2584 2669 2484 
Q 3125 2378 3379 2068 
Q 3634 1759 3634 1313 
Q 3634 634 3220 271 
Q 2806 -91 2034 -91 
Q 1263 -91 848 271 
Q 434 634 434 1313 
Q 434 1759 690 2068 
Q 947 2378 1403 2484 
z
M 1172 3481 
Q 1172 3119 1398 2916 
Q 1625 2713 2034 2713 
Q 2441 2713 2670 2916 
Q 2900 3119 2900 3481 
Q 2900 3844 2670 4047 
Q 2441 4250 2034 4250 
Q 1625 4250 1398 4047 
Q 1172 3844 1172 3481 
z
" transform="scale(0.015625)"/>
       </defs>
       <use xlink:href="#DejaVuSans-31" transform="translate(0 0.765625)"/>
       <use xlink:href="#DejaVuSans-30" transform="translate(63.623047 0.765625)"/>
       <use xlink:href="#DejaVuSans-38" transform="translate(128.203125 39.046875)scale(0.7)"/>
      </g>
     </g>
    </g>
    <g id="ytick_5">
     <g id="line2d_18">
      <g>
       <use xlink:href="#m119a32bddc" x="54" y="36.520239" style="stroke: #000000; stroke-width: 0.8"/>
      </g>
     </g>
     <g id="text_19">
      <!-- $\mathdefault{10^{9}}$ -->
      <g transform="translate(29.4 40.319457)scale(0.1 -0.1)">
       <defs>
        <path id="DejaVuSans-39" d="M 703 97 
L 703 672 
Q 941 559 1184 500 
Q 1428 441 1663 441 
Q 2288 441 2617 861 
Q 2947 1281 2994 2138 
Q 2813 1869 2534 1725 
Q 2256 1581 1919 1581 
Q 1219 1581 811 2004 
Q 403 2428 403 3163 
Q 403 3881 828 4315 
Q 1253 4750 1959 4750 
Q 2769 4750 3195 4129 
Q 3622 3509 3622 2328 
Q 3622 1225 3098 567 
Q 2575 -91 1691 -91 
Q 1453 -91 1209 -44 
Q 966 3 703 97 
z
M 1959 2075 
Q 2384 2075 2632 2365 
Q 2881 2656 2881 3163 
Q 2881 3666 2632 3958 
Q 2384 4250 1959 4250 
Q 1534 4250 1286 3958 
Q 1038 3666 1038 3163 
Q 1038 2656 1286 2365 
Q 1534 2075 1959 2075 
z
" transform="scale(0.015625)"/>
       </defs>
       <use xlink:href="#DejaVuSans-31" transform="translate(0 0.765625)"/>
       <use xlink:href="#DejaVuSans-30" transform="translate(63.623047 0.765625)"/>
       <use xlink:href="#DejaVuSans-39" transform="translate(128.203125 39.046875)scale(0.7)"/>
      </g>
     </g>
    </g>
    <g id="ytick_6">
     <g id="line2d_19">
      <defs>
       <path id="m457dd17839" d="M 0 0 
L -2 0 
" style="stroke: #000000; stroke-width: 0.6"/>
      </defs>
      <g>
       <use xlink:href="#m457dd17839" x="54" y="248.231523" style="stroke: #000000; stroke-width: 0.6"/>
      </g>
     </g>
    </g>
    <g id="ytick_7">
     <g id="line2d_20">
      <g>
       <use xlink:href="#m457dd17839" x="54" y="244.333954" style="stroke: #000000; stroke-width: 0.6"/>
      </g>
     </g>
    </g>
    <g id="ytick_8">
     <g id="line2d_21">
      <g>
       <use xlink:href="#m457dd17839" x="54" y="241.038606" style="stroke: #000000; stroke-width: 0.6"/>
      </g>
     </g>
    </g>
    <g id="ytick_9">
     <g id="line2d_22">
      <g>
       <use xlink:href="#m457dd17839" x="54" y="238.184045" style="stroke: #000000; stroke-width: 0.6"/>
      </g>
     </g>
    </g>
    <g id="ytick_10">
     <g id="line2d_23">
      <g>
       <use xlink:href="#m457dd17839" x="54" y="235.666145" style="stroke: #000000; stroke-width: 0.6"/>
      </g>
     </g>
    </g>
    <g id="ytick_11">
     <g id="line2d_24">
      <g>
       <use xlink:href="#m457dd17839" x="54" y="218.596089" style="stroke: #000000; stroke-width: 0.6"/>
      </g>
     </g>
    </g>
    <g id="ytick_12">
     <g id="line2d_25">
      <g>
       <use xlink:href="#m457dd17839" x="54" y="209.928279" style="stroke: #000000; stroke-width: 0.6"/>
      </g>
     </g>
    </g>
    <g id="ytick_13">
     <g id="line2d_26">
      <g>
       <use xlink:href="#m457dd17839" x="54" y="203.778371" style="stroke: #000000; stroke-width: 0.6"/>
      </g>
     </g>
    </g>
    <g id="ytick_14">
     <g id="line2d_27">
      <g>
       <use xlink:href="#m457dd17839" x="54" y="199.008132" style="stroke: #000000; stroke-width: 0.6"/>
      </g>
     </g>
    </g>
    <g id="ytick_15">
     <g id="line2d_28">
      <g>
       <use xlink:href="#m457dd17839" x="54" y="195.110562" style="stroke: #000000; stroke-width: 0.6"/>
      </g>
     </g>
    </g>
    <g id="ytick_16">
     <g id="line2d_29">
      <g>
       <use xlink:href="#m457dd17839" x="54" y="191.815214" style="stroke: #000000; stroke-width: 0.6"/>
      </g>
     </g>
    </g>
    <g id="ytick_17">
     <g id="line2d_30">
      <g>
       <use xlink:href="#m457dd17839" x="54" y="188.960654" style="stroke: #000000; stroke-width: 0.6"/>
      </g>
     </g>
    </g>
    <g id="ytick_18">
     <g id="line2d_31">
      <g>
       <use xlink:href="#m457dd17839" x="54" y="186.442753" style="stroke: #000000; stroke-width: 0.6"/>
      </g>
     </g>
    </g>
    <g id="ytick_19">
     <g id="line2d_32">
      <g>
       <use xlink:href="#m457dd17839" x="54" y="169.372697" style="stroke: #000000; stroke-width: 0.6"/>
      </g>
     </g>
    </g>
    <g id="ytick_20">
     <g id="line2d_33">
      <g>
       <use xlink:href="#m457dd17839" x="54" y="160.704888" style="stroke: #000000; stroke-width: 0.6"/>
      </g>
     </g>
    </g>
    <g id="ytick_21">
     <g id="line2d_34">
      <g>
       <use xlink:href="#m457dd17839" x="54" y="154.554979" style="stroke: #000000; stroke-width: 0.6"/>
      </g>
     </g>
    </g>
    <g id="ytick_22">
     <g id="line2d_35">
      <g>
       <use xlink:href="#m457dd17839" x="54" y="149.78474" style="stroke: #000000; stroke-width: 0.6"/>
      </g>
     </g>
    </g>
    <g id="ytick_23">
     <g id="line2d_36">
      <g>
       <use xlink:href="#m457dd17839" x="54" y="145.88717" style="stroke: #000000; stroke-width: 0.6"/>
      </g>
     </g>
    </g>
    <g id="ytick_24">
     <g id="line2d_37">
      <g>
       <use xlink:href="#m457dd17839" x="54" y="142.591822" style="stroke: #000000; stroke-width: 0.6"/>
      </g>
     </g>
    </g>
    <g id="ytick_25">
     <g id="line2d_38">
      <g>
       <use xlink:href="#m457dd17839" x="54" y="139.737262" style="stroke: #000000; stroke-width: 0.6"/>
      </g>
     </g>
    </g>
    <g id="ytick_26">
     <g id="line2d_39">
      <g>
       <use xlink:href="#m457dd17839" x="54" y="137.219361" style="stroke: #000000; stroke-width: 0.6"/>
      </g>
     </g>
    </g>
    <g id="ytick_27">
     <g id="line2d_40">
      <g>
       <use xlink:href="#m457dd17839" x="54" y="120.149305" style="stroke: #000000; stroke-width: 0.6"/>
      </g>
     </g>
    </g>
    <g id="ytick_28">
     <g id="line2d_41">
      <g>
       <use xlink:href="#m457dd17839" x="54" y="111.481496" style="stroke: #000000; stroke-width: 0.6"/>
      </g>
     </g>
    </g>
    <g id="ytick_29">
     <g id="line2d_42">
      <g>
       <use xlink:href="#m457dd17839" x="54" y="105.331587" style="stroke: #000000; stroke-width: 0.6"/>
      </g>
     </g>
    </g>
    <g id="ytick_30">
     <g id="line2d_43">
      <g>
       <use xlink:href="#m457dd17839" x="54" y="100.561348" style="stroke: #000000; stroke-width: 0.6"/>
      </g>
     </g>
    </g>
    <g id="ytick_31">
     <g id="line2d_44">
      <g>
       <use xlink:href="#m457dd17839" x="54" y="96.663778" style="stroke: #000000; stroke-width: 0.6"/>
      </g>
     </g>
    </g>
    <g id="ytick_32">
     <g id="line2d_45">
      <g>
       <use xlink:href="#m457dd17839" x="54" y="93.36843" style="stroke: #000000; stroke-width: 0.6"/>
      </g>
     </g>
    </g>
    <g id="ytick_33">
     <g id="line2d_46">
      <g>
       <use xlink:href="#m457dd17839" x="54" y="90.51387" style="stroke: #000000; stroke-width: 0.6"/>
      </g>
     </g>
    </g>
    <g id="ytick_34">
     <g id="line2d_47">
      <g>
       <use xlink:href="#m457dd17839" x="54" y="87.995969" style="stroke: #000000; stroke-width: 0.6"/>
      </g>
     </g>
    </g>
    <g id="ytick_35">
     <g id="line2d_48">
      <g>
       <use xlink:href="#m457dd17839" x="54" y="70.925913" style="stroke: #000000; stroke-width: 0.6"/>
      </g>
     </g>
    </g>
    <g id="ytick_36">
     <g id="line2d_49">
      <g>
       <use xlink:href="#m457dd17839" x="54" y="62.258104" style="stroke: #000000; stroke-width: 0.6"/>
      </g>
     </g>
    </g>
    <g id="ytick_37">
     <g id="line2d_50">
      <g>
       <use xlink:href="#m457dd17839" x="54" y="56.108196" style="stroke: #000000; stroke-width: 0.6"/>
      </g>
     </g>
    </g>
    <g id="ytick_38">
     <g id="line2d_51">
      <g>
       <use xlink:href="#m457dd17839" x="54" y="51.337956" style="stroke: #000000; stroke-width: 0.6"/>
      </g>
     </g>
    </g>
    <g id="ytick_39">
     <g id="line2d_52">
      <g>
       <use xlink:href="#m457dd17839" x="54" y="47.440387" style="stroke: #000000; stroke-width: 0.6"/>
      </g>
     </g>
    </g>
    <g id="ytick_40">
     <g id="line2d_53">
      <g>
       <use xlink:href="#m457dd17839" x="54" y="44.145039" style="stroke: #000000; stroke-width: 0.6"/>
      </g>
     </g>
    </g>
    <g id="ytick_41">
     <g id="line2d_54">
      <g>
       <use xlink:href="#m457dd17839" x="54" y="41.290478" style="stroke: #000000; stroke-width: 0.6"/>
      </g>
     </g>
    </g>
    <g id="ytick_42">
     <g id="line2d_55">
      <g>
       <use xlink:href="#m457dd17839" x="54" y="38.772578" style="stroke: #000000; stroke-width: 0.6"/>
      </g>
     </g>
    </g>
    <g id="text_20">
     <!-- Median NEPS -->
     <g transform="translate(23.320312 176.144844)rotate(-90)scale(0.1 -0.1)">
      <defs>
       <path id="DejaVuSans-4d" d="M 628 4666 
L 1569 4666 
L 2759 1491 
L 3956 4666 
L 4897 4666 
L 4897 0 
L 4281 0 
L 4281 4097 
L 3078 897 
L 2444 897 
L 1241 4097 
L 1241 0 
L 628 0 
L 628 4666 
z
" transform="scale(0.015625)"/>
       <path id="DejaVuSans-64" d="M 2906 2969 
L 2906 4863 
L 3481 4863 
L 3481 0 
L 2906 0 
L 2906 525 
Q 2725 213 2448 61 
Q 2172 -91 1784 -91 
Q 1150 -91 751 415 
Q 353 922 353 1747 
Q 353 2572 751 3078 
Q 1150 3584 1784 3584 
Q 2172 3584 2448 3432 
Q 2725 3281 2906 2969 
z
M 947 1747 
Q 947 1113 1208 752 
Q 1469 391 1925 391 
Q 2381 391 2643 752 
Q 2906 1113 2906 1747 
Q 2906 2381 2643 2742 
Q 2381 3103 1925 3103 
Q 1469 3103 1208 2742 
Q 947 2381 947 1747 
z
" transform="scale(0.015625)"/>
       <path id="DejaVuSans-6e" d="M 3513 2113 
L 3513 0 
L 2938 0 
L 2938 2094 
Q 2938 2591 2744 2837 
Q 2550 3084 2163 3084 
Q 1697 3084 1428 2787 
Q 1159 2491 1159 1978 
L 1159 0 
L 581 0 
L 581 3500 
L 1159 3500 
L 1159 2956 
Q 1366 3272 1645 3428 
Q 1925 3584 2291 3584 
Q 2894 3584 3203 3211 
Q 3513 2838 3513 2113 
z
" transform="scale(0.015625)"/>
       <path id="DejaVuSans-4e" d="M 628 4666 
L 1478 4666 
L 3547 763 
L 3547 4666 
L 4159 4666 
L 4159 0 
L 3309 0 
L 1241 3903 
L 1241 0 
L 628 0 
L 628 4666 
z
" transform="scale(0.015625)"/>
       <path id="DejaVuSans-45" d="M 628 4666 
L 3578 4666 
L 3578 4134 
L 1259 4134 
L 1259 2753 
L 3481 2753 
L 3481 2222 
L 1259 2222 
L 1259 531 
L 3634 531 
L 3634 0 
L 628 0 
L 628 4666 
z
" transform="scale(0.015625)"/>
       <path id="DejaVuSans-53" d="M 3425 4513 
L 3425 3897 
Q 3066 4069 2747 4153 
Q 2428 4238 2131 4238 
Q 1616 4238 1336 4038 
Q 1056 3838 1056 3469 
Q 1056 3159 1242 3001 
Q 1428 2844 1947 2747 
L 2328 2669 
Q 3034 2534 3370 2195 
Q 3706 1856 3706 1288 
Q 3706 609 3251 259 
Q 2797 -91 1919 -91 
Q 1588 -91 1214 -16 
Q 841 59 441 206 
L 441 856 
Q 825 641 1194 531 
Q 1563 422 1919 422 
Q 2459 422 2753 634 
Q 3047 847 3047 1241 
Q 3047 1584 2836 1778 
Q 2625 1972 2144 2069 
L 1759 2144 
Q 1053 2284 737 2584 
Q 422 2884 422 3419 
Q 422 4038 858 4394 
Q 1294 4750 2059 4750 
Q 2388 4750 2728 4690 
Q 3069 4631 3425 4513 
z
" transform="scale(0.015625)"/>
      </defs>
      <use xlink:href="#DejaVuSans-4d"/>
      <use xlink:href="#DejaVuSans-65" x="86.279297"/>
      <use xlink:href="#DejaVuSans-64" x="147.802734"/>
      <use xlink:href="#DejaVuSans-69" x="211.279297"/>
      <use xlink:href="#DejaVuSans-61" x="239.0625"/>
      <use xlink:href="#DejaVuSans-6e" x="300.341797"/>
      <use xlink:href="#DejaVuSans-20" x="363.720703"/>
      <use xlink:href="#DejaVuSans-4e" x="395.507812"/>
      <use xlink:href="#DejaVuSans-45" x="470.3125"/>
      <use xlink:href="#DejaVuSans-50" x="533.496094"/>
      <use xlink:href="#DejaVuSans-53" x="593.798828"/>
     </g>
    </g>
   </g>
   <g id="line2d_56">
    <path d="M 69.218182 241.490156 
L 74.127273 226.798163 
L 79.036364 218.342234 
L 83.945455 212.161949 
L 88.854545 207.313743 
L 93.763636 203.457159 
L 98.672727 200.285881 
L 103.581818 197.679453 
L 108.490909 195.200287 
L 113.4 192.743334 
L 118.309091 191.431107 
L 123.218182 189.521875 
L 128.127273 188.126412 
L 133.036364 186.813727 
L 137.945455 185.649834 
L 142.854545 183.861927 
L 147.763636 183.712954 
L 152.672727 181.345858 
L 157.581818 181.02354 
L 162.490909 180.518748 
L 167.4 179.359754 
L 172.309091 177.875954 
L 177.218182 176.837961 
L 182.127273 176.126856 
L 187.036364 175.47694 
L 191.945455 174.104167 
L 196.854545 174.22134 
L 201.763636 174.159538 
L 206.672727 173.309377 
L 211.581818 174.103783 
L 216.490909 174.06176 
L 221.4 173.595798 
L 226.309091 172.636591 
L 231.218182 172.974971 
L 236.127273 170.336653 
L 241.036364 169.827927 
L 245.945455 169.523331 
L 250.854545 169.594739 
L 255.763636 168.46076 
L 260.672727 168.455368 
L 265.581818 167.790954 
L 270.490909 167.255439 
L 275.4 167.153993 
L 280.309091 166.747078 
L 285.218182 165.761666 
L 290.127273 165.886597 
L 295.036364 164.795575 
L 299.945455 164.220622 
L 304.854545 164.83912 
L 309.763636 164.704451 
L 314.672727 163.924413 
L 319.581818 164.276439 
L 324.490909 165.208826 
L 329.4 165.531409 
L 334.309091 162.392742 
L 339.218182 163.487259 
L 344.127273 162.554602 
L 349.036364 163.377025 
L 353.945455 161.245198 
L 358.854545 161.369159 
L 363.763636 160.773503 
L 368.672727 160.660127 
L 373.581818 161.166357 
" clip-path="url(#p5d825aa9ad)" style="fill: none; stroke: #1f77b4; stroke-width: 1.5; stroke-linecap: square"/>
   </g>
   <g id="line2d_57">
    <path d="M 69.218182 201.193144 
L 74.127273 191.398918 
L 79.036364 185.165899 
L 83.945455 178.014705 
L 88.854545 174.577056 
L 93.763636 170.401311 
L 98.672727 167.488576 
L 103.581818 165.291638 
L 108.490909 166.370038 
L 113.4 160.075809 
L 118.309091 164.611577 
L 123.218182 158.671583 
L 128.127273 160.661466 
L 133.036364 163.782325 
L 137.945455 158.595469 
L 142.854545 155.527166 
L 147.763636 161.769288 
L 152.672727 154.581782 
L 157.581818 160.184521 
L 162.490909 157.838365 
L 167.4 152.732956 
L 172.309091 155.634711 
L 177.218182 155.865015 
L 182.127273 154.326797 
L 187.036364 152.128973 
L 191.945455 149.181961 
L 196.854545 155.508148 
L 201.763636 153.84189 
L 206.672727 148.496445 
L 211.581818 152.080073 
L 216.490909 151.698447 
L 221.4 152.615566 
L 226.309091 153.960093 
L 231.218182 152.384295 
L 236.127273 152.200901 
L 241.036364 150.610309 
L 245.945455 162.52928 
L 250.854545 156.850032 
L 255.763636 146.342402 
L 260.672727 152.455688 
L 265.581818 151.24313 
L 270.490909 149.950618 
L 275.4 150.16585 
L 280.309091 152.225046 
L 285.218182 150.457149 
L 290.127273 151.329087 
L 295.036364 148.301144 
L 299.945455 145.450066 
L 304.854545 151.799339 
L 309.763636 152.924679 
L 314.672727 145.837561 
L 319.581818 146.3761 
L 324.490909 152.411781 
L 329.4 149.919785 
L 334.309091 152.565772 
L 339.218182 155.599269 
L 344.127273 147.835018 
L 349.036364 151.584629 
L 353.945455 145.421664 
L 358.854545 147.640207 
L 363.763636 147.005424 
L 368.672727 145.711637 
L 373.581818 146.553463 
" clip-path="url(#p5d825aa9ad)" style="fill: none; stroke: #ff7f0e; stroke-width: 1.5; stroke-linecap: square"/>
   </g>
   <g id="line2d_58">
    <path d="M 69.218182 201.959618 
L 74.127273 193.024577 
L 79.036364 186.138074 
L 83.945455 177.507613 
L 88.854545 174.153171 
L 93.763636 170.499434 
L 98.672727 167.283641 
L 103.581818 164.520899 
L 108.490909 165.595877 
L 113.4 159.02455 
L 118.309091 164.010989 
L 123.218182 158.034369 
L 128.127273 160.635669 
L 133.036364 163.820527 
L 137.945455 157.999883 
L 142.854545 155.066029 
L 147.763636 162.159187 
L 152.672727 154.548438 
L 157.581818 160.224907 
L 162.490909 158.302635 
L 167.4 152.988451 
L 172.309091 155.76906 
L 177.218182 156.028815 
L 182.127273 154.428844 
L 187.036364 151.821721 
L 191.945455 149.001938 
L 196.854545 154.759937 
L 201.763636 153.262594 
L 206.672727 147.821215 
L 211.581818 151.457429 
L 216.490909 152.091521 
L 221.4 152.153796 
L 226.309091 152.908173 
L 231.218182 151.268548 
L 236.127273 152.308993 
L 241.036364 149.680957 
L 245.945455 150.558025 
L 250.854545 156.839845 
L 255.763636 145.47489 
L 260.672727 151.275301 
L 265.581818 150.471289 
L 270.490909 148.730467 
L 275.4 149.410617 
L 280.309091 152.060159 
L 285.218182 149.789702 
L 290.127273 151.432377 
L 295.036364 147.571934 
L 299.945455 144.558372 
L 304.854545 151.118762 
L 309.763636 149.58946 
L 314.672727 142.909751 
L 319.581818 145.642005 
L 324.490909 152.275257 
L 329.4 149.502698 
L 334.309091 144.565413 
L 339.218182 150.761818 
L 344.127273 147.587805 
L 349.036364 151.576486 
L 353.945455 145.212896 
L 358.854545 147.690496 
L 363.763636 147.158645 
L 368.672727 145.619067 
L 373.581818 146.72404 
" clip-path="url(#p5d825aa9ad)" style="fill: none; stroke: #2ca02c; stroke-width: 1.5; stroke-linecap: square"/>
   </g>
   <g id="line2d_59">
    <path d="M 69.218182 128.24663 
L 74.127273 117.652104 
L 79.036364 109.049067 
L 83.945455 104.543369 
L 88.854545 98.27335 
L 93.763636 95.062924 
L 98.672727 94.900537 
L 103.581818 82.285104 
L 108.490909 83.542694 
L 113.4 85.2024 
L 118.309091 85.363246 
L 123.218182 81.490391 
L 128.127273 79.611255 
L 133.036364 76.414447 
L 137.945455 78.106611 
L 142.854545 72.042598 
L 147.763636 79.975094 
L 152.672727 74.891663 
L 157.581818 69.478329 
L 162.490909 70.976091 
L 167.4 70.711063 
L 172.309091 73.148984 
L 177.218182 74.139579 
L 182.127273 64.291948 
L 187.036364 68.625064 
L 191.945455 67.45264 
L 196.854545 68.041471 
L 201.763636 69.069441 
L 206.672727 64.754371 
L 211.581818 67.20462 
L 216.490909 64.04652 
L 221.4 69.815325 
L 226.309091 65.805437 
L 231.218182 60.059142 
L 236.127273 63.689341 
L 241.036364 63.973323 
L 245.945455 64.14352 
L 250.854545 64.743727 
L 255.763636 63.037166 
L 260.672727 61.285831 
L 265.581818 57.675073 
L 270.490909 63.612229 
L 275.4 58.940621 
L 280.309091 60.87066 
L 285.218182 55.742138 
L 290.127273 60.311833 
L 295.036364 59.291229 
L 299.945455 58.552336 
L 304.854545 56.0619 
L 309.763636 57.728075 
L 314.672727 57.429626 
L 319.581818 55.988642 
L 324.490909 54.632152 
L 329.4 57.948276 
L 334.309091 53.181107 
L 339.218182 54.038311 
L 344.127273 49.847991 
L 349.036364 56.796552 
L 353.945455 54.334372 
L 358.854545 54.84904 
L 363.763636 51.813617 
L 368.672727 50.976325 
L 373.581818 52.605194 
" clip-path="url(#p5d825aa9ad)" style="fill: none; stroke: #d62728; stroke-width: 1.5; stroke-linecap: square"/>
   </g>
   <g id="patch_3">
    <path d="M 54 252 
L 54 34.56 
" style="fill: none; stroke: #000000; stroke-width: 0.8; stroke-linejoin: miter; stroke-linecap: square"/>
   </g>
   <g id="patch_4">
    <path d="M 388.8 252 
L 388.8 34.56 
" style="fill: none; stroke: #000000; stroke-width: 0.8; stroke-linejoin: miter; stroke-linecap: square"/>
   </g>
   <g id="patch_5">
    <path d="M 54 252 
L 388.8 252 
" style="fill: none; stroke: #000000; stroke-width: 0.8; stroke-linejoin: miter; stroke-linecap: square"/>
   </g>
   <g id="patch_6">
    <path d="M 54 34.56 
L 388.8 34.56 
" style="fill: none; stroke: #000000; stroke-width: 0.8; stroke-linejoin: miter; stroke-linecap: square"/>
   </g>
   <g id="text_21">
    <!-- Median NEPS vs. Program Size (100 f.c., nicolau_b) -->
    <g transform="translate(69.081563 28.56)scale(0.12 -0.12)">
     <defs>
      <path id="DejaVuSans-76" d="M 191 3500 
L 800 3500 
L 1894 563 
L 2988 3500 
L 3597 3500 
L 2284 0 
L 1503 0 
L 191 3500 
z
" transform="scale(0.015625)"/>
      <path id="DejaVuSans-2e" d="M 684 794 
L 1344 794 
L 1344 0 
L 684 0 
L 684 794 
z
" transform="scale(0.015625)"/>
      <path id="DejaVuSans-28" d="M 1984 4856 
Q 1566 4138 1362 3434 
Q 1159 2731 1159 2009 
Q 1159 1288 1364 580 
Q 1569 -128 1984 -844 
L 1484 -844 
Q 1016 -109 783 600 
Q 550 1309 550 2009 
Q 550 2706 781 3412 
Q 1013 4119 1484 4856 
L 1984 4856 
z
" transform="scale(0.015625)"/>
      <path id="DejaVuSans-66" d="M 2375 4863 
L 2375 4384 
L 1825 4384 
Q 1516 4384 1395 4259 
Q 1275 4134 1275 3809 
L 1275 3500 
L 2222 3500 
L 2222 3053 
L 1275 3053 
L 1275 0 
L 697 0 
L 697 3053 
L 147 3053 
L 147 3500 
L 697 3500 
L 697 3744 
Q 697 4328 969 4595 
Q 1241 4863 1831 4863 
L 2375 4863 
z
" transform="scale(0.015625)"/>
      <path id="DejaVuSans-63" d="M 3122 3366 
L 3122 2828 
Q 2878 2963 2633 3030 
Q 2388 3097 2138 3097 
Q 1578 3097 1268 2742 
Q 959 2388 959 1747 
Q 959 1106 1268 751 
Q 1578 397 2138 397 
Q 2388 397 2633 464 
Q 2878 531 3122 666 
L 3122 134 
Q 2881 22 2623 -34 
Q 2366 -91 2075 -91 
Q 1284 -91 818 406 
Q 353 903 353 1747 
Q 353 2603 823 3093 
Q 1294 3584 2113 3584 
Q 2378 3584 2631 3529 
Q 2884 3475 3122 3366 
z
" transform="scale(0.015625)"/>
      <path id="DejaVuSans-2c" d="M 750 794 
L 1409 794 
L 1409 256 
L 897 -744 
L 494 -744 
L 750 256 
L 750 794 
z
" transform="scale(0.015625)"/>
      <path id="DejaVuSans-6c" d="M 603 4863 
L 1178 4863 
L 1178 0 
L 603 0 
L 603 4863 
z
" transform="scale(0.015625)"/>
      <path id="DejaVuSans-75" d="M 544 1381 
L 544 3500 
L 1119 3500 
L 1119 1403 
Q 1119 906 1312 657 
Q 1506 409 1894 409 
Q 2359 409 2629 706 
Q 2900 1003 2900 1516 
L 2900 3500 
L 3475 3500 
L 3475 0 
L 2900 0 
L 2900 538 
Q 2691 219 2414 64 
Q 2138 -91 1772 -91 
Q 1169 -91 856 284 
Q 544 659 544 1381 
z
M 1991 3584 
L 1991 3584 
z
" transform="scale(0.015625)"/>
      <path id="DejaVuSans-5f" d="M 3263 -1063 
L 3263 -1509 
L -63 -1509 
L -63 -1063 
L 3263 -1063 
z
" transform="scale(0.015625)"/>
      <path id="DejaVuSans-62" d="M 3116 1747 
Q 3116 2381 2855 2742 
Q 2594 3103 2138 3103 
Q 1681 3103 1420 2742 
Q 1159 2381 1159 1747 
Q 1159 1113 1420 752 
Q 1681 391 2138 391 
Q 2594 391 2855 752 
Q 3116 1113 3116 1747 
z
M 1159 2969 
Q 1341 3281 1617 3432 
Q 1894 3584 2278 3584 
Q 2916 3584 3314 3078 
Q 3713 2572 3713 1747 
Q 3713 922 3314 415 
Q 2916 -91 2278 -91 
Q 1894 -91 1617 61 
Q 1341 213 1159 525 
L 1159 0 
L 581 0 
L 581 4863 
L 1159 4863 
L 1159 2969 
z
" transform="scale(0.015625)"/>
      <path id="DejaVuSans-29" d="M 513 4856 
L 1013 4856 
Q 1481 4119 1714 3412 
Q 1947 2706 1947 2009 
Q 1947 1309 1714 600 
Q 1481 -109 1013 -844 
L 513 -844 
Q 928 -128 1133 580 
Q 1338 1288 1338 2009 
Q 1338 2731 1133 3434 
Q 928 4138 513 4856 
z
" transform="scale(0.015625)"/>
     </defs>
     <use xlink:href="#DejaVuSans-4d"/>
     <use xlink:href="#DejaVuSans-65" x="86.279297"/>
     <use xlink:href="#DejaVuSans-64" x="147.802734"/>
     <use xlink:href="#DejaVuSans-69" x="211.279297"/>
     <use xlink:href="#DejaVuSans-61" x="239.0625"/>
     <use xlink:href="#DejaVuSans-6e" x="300.341797"/>
     <use xlink:href="#DejaVuSans-20" x="363.720703"/>
     <use xlink:href="#DejaVuSans-4e" x="395.507812"/>
     <use xlink:href="#DejaVuSans-45" x="470.3125"/>
     <use xlink:href="#DejaVuSans-50" x="533.496094"/>
     <use xlink:href="#DejaVuSans-53" x="593.798828"/>
     <use xlink:href="#DejaVuSans-20" x="657.275391"/>
     <use xlink:href="#DejaVuSans-76" x="689.0625"/>
     <use xlink:href="#DejaVuSans-73" x="748.242188"/>
     <use xlink:href="#DejaVuSans-2e" x="800.341797"/>
     <use xlink:href="#DejaVuSans-20" x="832.128906"/>
     <use xlink:href="#DejaVuSans-50" x="863.916016"/>
     <use xlink:href="#DejaVuSans-72" x="922.46875"/>
     <use xlink:href="#DejaVuSans-6f" x="961.332031"/>
     <use xlink:href="#DejaVuSans-67" x="1022.513672"/>
     <use xlink:href="#DejaVuSans-72" x="1085.990234"/>
     <use xlink:href="#DejaVuSans-61" x="1127.103516"/>
     <use xlink:href="#DejaVuSans-6d" x="1188.382812"/>
     <use xlink:href="#DejaVuSans-20" x="1285.794922"/>
     <use xlink:href="#DejaVuSans-53" x="1317.582031"/>
     <use xlink:href="#DejaVuSans-69" x="1381.058594"/>
     <use xlink:href="#DejaVuSans-7a" x="1408.841797"/>
     <use xlink:href="#DejaVuSans-65" x="1461.332031"/>
     <use xlink:href="#DejaVuSans-20" x="1522.855469"/>
     <use xlink:href="#DejaVuSans-28" x="1554.642578"/>
     <use xlink:href="#DejaVuSans-31" x="1593.65625"/>
     <use xlink:href="#DejaVuSans-30" x="1657.279297"/>
     <use xlink:href="#DejaVuSans-30" x="1720.902344"/>
     <use xlink:href="#DejaVuSans-20" x="1784.525391"/>
     <use xlink:href="#DejaVuSans-66" x="1816.3125"/>
     <use xlink:href="#DejaVuSans-2e" x="1844.267578"/>
     <use xlink:href="#DejaVuSans-63" x="1876.054688"/>
     <use xlink:href="#DejaVuSans-2e" x="1931.035156"/>
     <use xlink:href="#DejaVuSans-2c" x="1962.822266"/>
     <use xlink:href="#DejaVuSans-20" x="1994.609375"/>
     <use xlink:href="#DejaVuSans-6e" x="2026.396484"/>
     <use xlink:href="#DejaVuSans-69" x="2089.775391"/>
     <use xlink:href="#DejaVuSans-63" x="2117.558594"/>
     <use xlink:href="#DejaVuSans-6f" x="2172.539062"/>
     <use xlink:href="#DejaVuSans-6c" x="2233.720703"/>
     <use xlink:href="#DejaVuSans-61" x="2261.503906"/>
     <use xlink:href="#DejaVuSans-75" x="2322.783203"/>
     <use xlink:href="#DejaVuSans-5f" x="2386.162109"/>
     <use xlink:href="#DejaVuSans-62" x="2436.162109"/>
     <use xlink:href="#DejaVuSans-29" x="2499.638672"/>
    </g>
   </g>
   <g id="legend_1">
    <g id="patch_7">
     <path d="M 61 101.2725 
L 171.19375 101.2725 
Q 173.19375 101.2725 173.19375 99.2725 
L 173.19375 41.56 
Q 173.19375 39.56 171.19375 39.56 
L 61 39.56 
Q 59 39.56 59 41.56 
L 59 99.2725 
Q 59 101.2725 61 101.2725 
z
" style="fill: #ffffff; opacity: 0.8; stroke: #cccccc; stroke-linejoin: miter"/>
    </g>
    <g id="line2d_60">
     <path d="M 63 47.658437 
L 73 47.658437 
L 83 47.658437 
" style="fill: none; stroke: #1f77b4; stroke-width: 1.5; stroke-linecap: square"/>
    </g>
    <g id="text_22">
     <!-- DEAP -->
     <g transform="translate(91 51.158437)scale(0.1 -0.1)">
      <defs>
       <path id="DejaVuSans-44" d="M 1259 4147 
L 1259 519 
L 2022 519 
Q 2988 519 3436 956 
Q 3884 1394 3884 2338 
Q 3884 3275 3436 3711 
Q 2988 4147 2022 4147 
L 1259 4147 
z
M 628 4666 
L 1925 4666 
Q 3281 4666 3915 4102 
Q 4550 3538 4550 2338 
Q 4550 1131 3912 565 
Q 3275 0 1925 0 
L 628 0 
L 628 4666 
z
" transform="scale(0.015625)"/>
       <path id="DejaVuSans-41" d="M 2188 4044 
L 1331 1722 
L 3047 1722 
L 2188 4044 
z
M 1831 4666 
L 2547 4666 
L 4325 0 
L 3669 0 
L 3244 1197 
L 1141 1197 
L 716 0 
L 50 0 
L 1831 4666 
z
" transform="scale(0.015625)"/>
      </defs>
      <use xlink:href="#DejaVuSans-44"/>
      <use xlink:href="#DejaVuSans-45" x="77.001953"/>
      <use xlink:href="#DejaVuSans-41" x="140.185547"/>
      <use xlink:href="#DejaVuSans-50" x="208.59375"/>
     </g>
    </g>
    <g id="line2d_61">
     <path d="M 63 62.336562 
L 73 62.336562 
L 83 62.336562 
" style="fill: none; stroke: #ff7f0e; stroke-width: 1.5; stroke-linecap: square"/>
    </g>
    <g id="text_23">
     <!-- TensorGP (CPU) -->
     <g transform="translate(91 65.836562)scale(0.1 -0.1)">
      <defs>
       <path id="DejaVuSans-54" d="M -19 4666 
L 3928 4666 
L 3928 4134 
L 2272 4134 
L 2272 0 
L 1638 0 
L 1638 4134 
L -19 4134 
L -19 4666 
z
" transform="scale(0.015625)"/>
       <path id="DejaVuSans-47" d="M 3809 666 
L 3809 1919 
L 2778 1919 
L 2778 2438 
L 4434 2438 
L 4434 434 
Q 4069 175 3628 42 
Q 3188 -91 2688 -91 
Q 1594 -91 976 548 
Q 359 1188 359 2328 
Q 359 3472 976 4111 
Q 1594 4750 2688 4750 
Q 3144 4750 3555 4637 
Q 3966 4525 4313 4306 
L 4313 3634 
Q 3963 3931 3569 4081 
Q 3175 4231 2741 4231 
Q 1884 4231 1454 3753 
Q 1025 3275 1025 2328 
Q 1025 1384 1454 906 
Q 1884 428 2741 428 
Q 3075 428 3337 486 
Q 3600 544 3809 666 
z
" transform="scale(0.015625)"/>
       <path id="DejaVuSans-43" d="M 4122 4306 
L 4122 3641 
Q 3803 3938 3442 4084 
Q 3081 4231 2675 4231 
Q 1875 4231 1450 3742 
Q 1025 3253 1025 2328 
Q 1025 1406 1450 917 
Q 1875 428 2675 428 
Q 3081 428 3442 575 
Q 3803 722 4122 1019 
L 4122 359 
Q 3791 134 3420 21 
Q 3050 -91 2638 -91 
Q 1578 -91 968 557 
Q 359 1206 359 2328 
Q 359 3453 968 4101 
Q 1578 4750 2638 4750 
Q 3056 4750 3426 4639 
Q 3797 4528 4122 4306 
z
" transform="scale(0.015625)"/>
       <path id="DejaVuSans-55" d="M 556 4666 
L 1191 4666 
L 1191 1831 
Q 1191 1081 1462 751 
Q 1734 422 2344 422 
Q 2950 422 3222 751 
Q 3494 1081 3494 1831 
L 3494 4666 
L 4128 4666 
L 4128 1753 
Q 4128 841 3676 375 
Q 3225 -91 2344 -91 
Q 1459 -91 1007 375 
Q 556 841 556 1753 
L 556 4666 
z
" transform="scale(0.015625)"/>
      </defs>
      <use xlink:href="#DejaVuSans-54"/>
      <use xlink:href="#DejaVuSans-65" x="44.083984"/>
      <use xlink:href="#DejaVuSans-6e" x="105.607422"/>
      <use xlink:href="#DejaVuSans-73" x="168.986328"/>
      <use xlink:href="#DejaVuSans-6f" x="221.085938"/>
      <use xlink:href="#DejaVuSans-72" x="282.267578"/>
      <use xlink:href="#DejaVuSans-47" x="323.380859"/>
      <use xlink:href="#DejaVuSans-50" x="400.871094"/>
      <use xlink:href="#DejaVuSans-20" x="461.173828"/>
      <use xlink:href="#DejaVuSans-28" x="492.960938"/>
      <use xlink:href="#DejaVuSans-43" x="531.974609"/>
      <use xlink:href="#DejaVuSans-50" x="601.798828"/>
      <use xlink:href="#DejaVuSans-55" x="662.101562"/>
      <use xlink:href="#DejaVuSans-29" x="735.294922"/>
     </g>
    </g>
    <g id="line2d_62">
     <path d="M 63 77.014687 
L 73 77.014687 
L 83 77.014687 
" style="fill: none; stroke: #2ca02c; stroke-width: 1.5; stroke-linecap: square"/>
    </g>
    <g id="text_24">
     <!-- TensorGP (GPU) -->
     <g transform="translate(91 80.514687)scale(0.1 -0.1)">
      <use xlink:href="#DejaVuSans-54"/>
      <use xlink:href="#DejaVuSans-65" x="44.083984"/>
      <use xlink:href="#DejaVuSans-6e" x="105.607422"/>
      <use xlink:href="#DejaVuSans-73" x="168.986328"/>
      <use xlink:href="#DejaVuSans-6f" x="221.085938"/>
      <use xlink:href="#DejaVuSans-72" x="282.267578"/>
      <use xlink:href="#DejaVuSans-47" x="323.380859"/>
      <use xlink:href="#DejaVuSans-50" x="400.871094"/>
      <use xlink:href="#DejaVuSans-20" x="461.173828"/>
      <use xlink:href="#DejaVuSans-28" x="492.960938"/>
      <use xlink:href="#DejaVuSans-47" x="531.974609"/>
      <use xlink:href="#DejaVuSans-50" x="609.464844"/>
      <use xlink:href="#DejaVuSans-55" x="669.767578"/>
      <use xlink:href="#DejaVuSans-29" x="742.960938"/>
     </g>
    </g>
    <g id="line2d_63">
     <path d="M 63 91.692813 
L 73 91.692813 
L 83 91.692813 
" style="fill: none; stroke: #d62728; stroke-width: 1.5; stroke-linecap: square"/>
    </g>
    <g id="text_25">
     <!-- Operon -->
     <g transform="translate(91 95.192813)scale(0.1 -0.1)">
      <defs>
       <path id="DejaVuSans-4f" d="M 2522 4238 
Q 1834 4238 1429 3725 
Q 1025 3213 1025 2328 
Q 1025 1447 1429 934 
Q 1834 422 2522 422 
Q 3209 422 3611 934 
Q 4013 1447 4013 2328 
Q 4013 3213 3611 3725 
Q 3209 4238 2522 4238 
z
M 2522 4750 
Q 3503 4750 4090 4092 
Q 4678 3434 4678 2328 
Q 4678 1225 4090 567 
Q 3503 -91 2522 -91 
Q 1538 -91 948 565 
Q 359 1222 359 2328 
Q 359 3434 948 4092 
Q 1538 4750 2522 4750 
z
" transform="scale(0.015625)"/>
       <path id="DejaVuSans-70" d="M 1159 525 
L 1159 -1331 
L 581 -1331 
L 581 3500 
L 1159 3500 
L 1159 2969 
Q 1341 3281 1617 3432 
Q 1894 3584 2278 3584 
Q 2916 3584 3314 3078 
Q 3713 2572 3713 1747 
Q 3713 922 3314 415 
Q 2916 -91 2278 -91 
Q 1894 -91 1617 61 
Q 1341 213 1159 525 
z
M 3116 1747 
Q 3116 2381 2855 2742 
Q 2594 3103 2138 3103 
Q 1681 3103 1420 2742 
Q 1159 2381 1159 1747 
Q 1159 1113 1420 752 
Q 1681 391 2138 391 
Q 2594 391 2855 752 
Q 3116 1113 3116 1747 
z
" transform="scale(0.015625)"/>
      </defs>
      <use xlink:href="#DejaVuSans-4f"/>
      <use xlink:href="#DejaVuSans-70" x="78.710938"/>
      <use xlink:href="#DejaVuSans-65" x="142.1875"/>
      <use xlink:href="#DejaVuSans-72" x="203.710938"/>
      <use xlink:href="#DejaVuSans-6f" x="242.574219"/>
      <use xlink:href="#DejaVuSans-6e" x="303.755859"/>
     </g>
    </g>
   </g>
  </g>
 </g>
 <defs>
  <clipPath id="p5d825aa9ad">
   <rect x="54" y="34.56" width="334.8" height="217.44"/>
  </clipPath>
 </defs>
</svg>
