<?xml version="1.0" encoding="utf-8" standalone="no"?>
<!DOCTYPE svg PUBLIC "-//W3C//DTD SVG 1.1//EN"
  "http://www.w3.org/Graphics/SVG/1.1/DTD/svg11.dtd">
<svg xmlns:xlink="http://www.w3.org/1999/xlink" width="432pt" height="288pt" viewBox="0 0 432 288" xmlns="http://www.w3.org/2000/svg" version="1.1">
 <metadata>
  <rdf:RDF xmlns:dc="http://purl.org/dc/elements/1.1/" xmlns:cc="http://creativecommons.org/ns#" xmlns:rdf="http://www.w3.org/1999/02/22-rdf-syntax-ns#">
   <cc:Work>
    <dc:type rdf:resource="http://purl.org/dc/dcmitype/StillImage"/>
    <dc:date>2022-01-12T03:40:10.418571</dc:date>
    <dc:format>image/svg+xml</dc:format>
    <dc:creator>
     <cc:Agent>
      <dc:title>Matplotlib v3.5.1, https://matplotlib.org/</dc:title>
     </cc:Agent>
    </dc:creator>
   </cc:Work>
  </rdf:RDF>
 </metadata>
 <defs>
  <style type="text/css">*{stroke-linejoin: round; stroke-linecap: butt}</style>
 </defs>
 <g id="figure_1">
  <g id="patch_1">
   <path d="M 0 288 
L 432 288 
L 432 0 
L 0 0 
L 0 288 
z
" style="fill: none"/>
  </g>
  <g id="axes_1">
   <g id="patch_2">
    <path d="M 54 252 
L 388.8 252 
L 388.8 34.56 
L 54 34.56 
z
" style="fill: #ffffff"/>
   </g>
   <g id="PolyCollection_1">
    <path d="M 69.218182 241.956068 
L 69.218182 242.116364 
L 74.127273 228.578356 
L 79.036364 222.791238 
L 83.945455 212.469865 
L 88.854545 209.632148 
L 93.763636 205.478874 
L 98.672727 202.608054 
L 103.581818 200.371728 
L 108.490909 197.287794 
L 113.4 194.526628 
L 118.309091 193.216707 
L 123.218182 190.140731 
L 128.127273 188.765035 
L 133.036364 187.945689 
L 137.945455 186.643665 
L 142.854545 184.847483 
L 147.763636 184.323304 
L 152.672727 182.982259 
L 157.581818 182.324018 
L 162.490909 180.990448 
L 167.4 179.984222 
L 172.309091 179.618626 
L 177.218182 178.414357 
L 182.127273 177.794962 
L 187.036364 176.630681 
L 191.945455 175.26607 
L 196.854545 175.50128 
L 201.763636 174.657547 
L 206.672727 172.608955 
L 211.581818 172.78406 
L 216.490909 172.341818 
L 221.4 172.410379 
L 226.309091 170.967169 
L 231.218182 170.600622 
L 236.127273 170.127705 
L 241.036364 169.107149 
L 245.945455 168.197999 
L 250.854545 171.156859 
L 255.763636 168.788147 
L 260.672727 168.110509 
L 265.581818 168.640703 
L 270.490909 168.113001 
L 275.4 166.206514 
L 280.309091 167.422622 
L 285.218182 164.851082 
L 290.127273 165.461516 
L 295.036364 164.295579 
L 299.945455 163.709257 
L 304.854545 164.386149 
L 309.763636 163.15353 
L 314.672727 162.569287 
L 319.581818 161.758598 
L 324.490909 163.280128 
L 329.4 162.141915 
L 334.309091 161.428402 
L 339.218182 163.535286 
L 344.127273 162.407467 
L 349.036364 162.440624 
L 353.945455 161.332156 
L 358.854545 160.079357 
L 363.763636 160.431998 
L 368.672727 159.879554 
L 373.581818 158.879474 
L 373.581818 158.528938 
L 373.581818 158.528938 
L 368.672727 158.876246 
L 363.763636 159.559927 
L 358.854545 159.705222 
L 353.945455 160.278156 
L 349.036364 160.914383 
L 344.127273 161.510136 
L 339.218182 162.007914 
L 334.309091 160.883476 
L 329.4 162.030744 
L 324.490909 162.185699 
L 319.581818 161.444216 
L 314.672727 162.105181 
L 309.763636 162.750025 
L 304.854545 163.981404 
L 299.945455 163.65246 
L 295.036364 163.75539 
L 290.127273 164.802031 
L 285.218182 164.687687 
L 280.309091 165.455486 
L 275.4 165.694581 
L 270.490909 167.245142 
L 265.581818 167.229187 
L 260.672727 167.736939 
L 255.763636 167.926371 
L 250.854545 169.649766 
L 245.945455 167.078727 
L 241.036364 168.54818 
L 236.127273 169.842104 
L 231.218182 169.866509 
L 226.309091 170.630623 
L 221.4 171.412231 
L 216.490909 171.943251 
L 211.581818 172.117449 
L 206.672727 172.176565 
L 201.763636 173.794777 
L 196.854545 175.376729 
L 191.945455 174.950844 
L 187.036364 176.237786 
L 182.127273 177.297655 
L 177.218182 177.281179 
L 172.309091 179.04808 
L 167.4 178.191487 
L 162.490909 180.723584 
L 157.581818 181.910985 
L 152.672727 182.465651 
L 147.763636 184.108417 
L 142.854545 184.106849 
L 137.945455 186.485085 
L 133.036364 187.804752 
L 128.127273 188.009829 
L 123.218182 189.512804 
L 118.309091 191.179281 
L 113.4 194.290036 
L 108.490909 197.061369 
L 103.581818 199.313494 
L 98.672727 202.319597 
L 93.763636 204.911124 
L 88.854545 207.974453 
L 83.945455 212.229721 
L 79.036364 219.28888 
L 74.127273 228.030867 
L 69.218182 241.956068 
z
" clip-path="url(#p48cadd94bf)" style="fill: #1f77b4"/>
   </g>
   <g id="PolyCollection_2">
    <path d="M 69.218182 202.171933 
L 69.218182 205.178686 
L 74.127273 194.841138 
L 79.036364 188.983797 
L 83.945455 180.421266 
L 88.854545 177.520198 
L 93.763636 173.684007 
L 98.672727 170.560679 
L 103.581818 168.784044 
L 108.490909 169.694258 
L 113.4 164.028299 
L 118.309091 167.2868 
L 123.218182 162.007332 
L 128.127273 164.346538 
L 133.036364 167.16812 
L 137.945455 162.031719 
L 142.854545 159.085859 
L 147.763636 165.841572 
L 152.672727 158.45999 
L 157.581818 163.773304 
L 162.490909 161.888287 
L 167.4 157.331089 
L 172.309091 159.457081 
L 177.218182 159.408282 
L 182.127273 158.996443 
L 187.036364 156.249582 
L 191.945455 153.912522 
L 196.854545 159.462806 
L 201.763636 158.105539 
L 206.672727 152.156584 
L 211.581818 155.614153 
L 216.490909 155.681756 
L 221.4 156.617503 
L 226.309091 158.051346 
L 231.218182 156.526622 
L 236.127273 156.233346 
L 241.036364 154.407188 
L 245.945455 178.442129 
L 250.854545 160.887578 
L 255.763636 150.456386 
L 260.672727 155.933125 
L 265.581818 155.595717 
L 270.490909 153.642962 
L 275.4 154.553152 
L 280.309091 156.483388 
L 285.218182 154.86464 
L 290.127273 155.985261 
L 295.036364 152.884676 
L 299.945455 149.982934 
L 304.854545 155.283025 
L 309.763636 154.460132 
L 314.672727 148.440618 
L 319.581818 150.759598 
L 324.490909 156.837272 
L 329.4 153.98775 
L 334.309091 150.010294 
L 339.218182 155.286693 
L 344.127273 152.506309 
L 349.036364 156.414349 
L 353.945455 150.628117 
L 358.854545 152.475571 
L 363.763636 154.372444 
L 368.672727 150.497938 
L 373.581818 160.236336 
L 373.581818 151.116532 
L 373.581818 151.116532 
L 368.672727 150.188105 
L 363.763636 149.345607 
L 358.854545 151.319316 
L 353.945455 149.452477 
L 349.036364 155.911794 
L 344.127273 151.542212 
L 339.218182 154.874531 
L 334.309091 149.618982 
L 329.4 153.901279 
L 324.490909 155.850234 
L 319.581818 149.628326 
L 314.672727 147.065759 
L 309.763636 154.083647 
L 304.854545 154.681734 
L 299.945455 149.299289 
L 295.036364 152.488729 
L 290.127273 155.431663 
L 285.218182 154.625368 
L 280.309091 156.163854 
L 275.4 153.904205 
L 270.490909 153.30856 
L 265.581818 154.763093 
L 260.672727 155.764143 
L 255.763636 149.956109 
L 250.854545 159.942135 
L 245.945455 159.58192 
L 241.036364 154.281393 
L 236.127273 155.763706 
L 231.218182 155.44465 
L 226.309091 157.706447 
L 221.4 156.507748 
L 216.490909 155.077289 
L 211.581818 155.122153 
L 206.672727 151.811202 
L 201.763636 157.450339 
L 196.854545 158.558985 
L 191.945455 153.180411 
L 187.036364 155.78377 
L 182.127273 157.681451 
L 177.218182 158.88624 
L 172.309091 159.009716 
L 167.4 156.938613 
L 162.490909 161.444973 
L 157.581818 163.360597 
L 152.672727 158.322164 
L 147.763636 165.379433 
L 142.854545 158.308735 
L 137.945455 161.906345 
L 133.036364 166.477495 
L 128.127273 164.225588 
L 123.218182 161.393287 
L 118.309091 166.815783 
L 113.4 162.809374 
L 108.490909 168.858574 
L 103.581818 168.210264 
L 98.672727 170.040394 
L 93.763636 173.047998 
L 88.854545 177.115208 
L 83.945455 179.985929 
L 79.036364 187.78261 
L 74.127273 194.37329 
L 69.218182 202.171933 
z
" clip-path="url(#p48cadd94bf)" style="fill: #ff7f0e"/>
   </g>
   <g id="PolyCollection_3">
    <path d="M 69.218182 203.430087 
L 69.218182 204.946125 
L 74.127273 196.041547 
L 79.036364 191.458727 
L 83.945455 182.440891 
L 88.854545 181.679229 
L 93.763636 174.888296 
L 98.672727 173.727964 
L 103.581818 169.553387 
L 108.490909 171.264916 
L 113.4 164.463225 
L 118.309091 168.517325 
L 123.218182 162.673477 
L 128.127273 165.631449 
L 133.036364 168.123656 
L 137.945455 163.524904 
L 142.854545 161.510624 
L 147.763636 166.21126 
L 152.672727 161.040592 
L 157.581818 164.435821 
L 162.490909 161.676043 
L 167.4 157.072287 
L 172.309091 160.423484 
L 177.218182 160.291352 
L 182.127273 159.223449 
L 187.036364 156.467269 
L 191.945455 154.033146 
L 196.854545 159.956029 
L 201.763636 157.9195 
L 206.672727 153.00316 
L 211.581818 156.093611 
L 216.490909 156.810552 
L 221.4 156.522363 
L 226.309091 158.034083 
L 231.218182 161.036457 
L 236.127273 161.380983 
L 241.036364 159.660151 
L 245.945455 157.204809 
L 250.854545 160.4691 
L 255.763636 150.790843 
L 260.672727 155.369237 
L 265.581818 154.79947 
L 270.490909 153.308951 
L 275.4 153.821881 
L 280.309091 156.178243 
L 285.218182 154.046083 
L 290.127273 155.049125 
L 295.036364 152.103079 
L 299.945455 149.02167 
L 304.854545 155.527308 
L 309.763636 153.425127 
L 314.672727 147.119868 
L 319.581818 150.19455 
L 324.490909 156.303536 
L 329.4 156.916378 
L 334.309091 148.687876 
L 339.218182 154.508704 
L 344.127273 157.654408 
L 349.036364 156.453692 
L 353.945455 150.048603 
L 358.854545 152.231306 
L 363.763636 151.742148 
L 368.672727 150.712969 
L 373.581818 151.259266 
L 373.581818 150.068 
L 373.581818 150.068 
L 368.672727 149.971073 
L 363.763636 151.075867 
L 358.854545 151.35066 
L 353.945455 149.493193 
L 349.036364 155.935482 
L 344.127273 157.336071 
L 339.218182 154.384539 
L 334.309091 148.48568 
L 329.4 151.357231 
L 324.490909 155.002035 
L 319.581818 149.593985 
L 314.672727 147.044269 
L 309.763636 153.308999 
L 304.854545 154.695385 
L 299.945455 148.843692 
L 295.036364 151.812784 
L 290.127273 154.710984 
L 285.218182 153.332508 
L 280.309091 155.777551 
L 275.4 153.325768 
L 270.490909 153.074921 
L 265.581818 154.588943 
L 260.672727 154.761262 
L 255.763636 149.732788 
L 250.854545 160.066124 
L 245.945455 151.956103 
L 241.036364 159.32592 
L 236.127273 161.234523 
L 231.218182 160.60113 
L 226.309091 157.431831 
L 221.4 156.4167 
L 216.490909 155.608412 
L 211.581818 155.639346 
L 206.672727 152.379096 
L 201.763636 157.451674 
L 196.854545 159.279464 
L 191.945455 153.121497 
L 187.036364 156.167932 
L 182.127273 158.713777 
L 177.218182 160.17632 
L 172.309091 160.078475 
L 167.4 156.847732 
L 162.490909 161.257906 
L 157.581818 163.272469 
L 152.672727 159.059135 
L 147.763636 165.723305 
L 142.854545 158.34576 
L 137.945455 161.647767 
L 133.036364 167.318501 
L 128.127273 164.843983 
L 123.218182 162.195495 
L 118.309091 168.239615 
L 113.4 163.807734 
L 108.490909 170.627881 
L 103.581818 167.732942 
L 98.672727 170.794771 
L 93.763636 174.097065 
L 88.854545 177.692446 
L 83.945455 182.391536 
L 79.036364 188.99725 
L 74.127273 194.072011 
L 69.218182 203.430087 
z
" clip-path="url(#p48cadd94bf)" style="fill: #2ca02c"/>
   </g>
   <g id="PolyCollection_4">
    <path d="M 69.218182 136.320952 
L 69.218182 142.247847 
L 74.127273 126.131431 
L 79.036364 114.750138 
L 83.945455 129.718094 
L 88.854545 108.350481 
L 93.763636 110.35744 
L 98.672727 98.147095 
L 103.581818 103.442118 
L 108.490909 93.55101 
L 113.4 47646.706675 
L 118.309091 92.208614 
L 123.218182 96.578102 
L 128.127273 90.39589 
L 133.036364 86.059385 
L 137.945455 86.668335 
L 142.854545 89.757051 
L 147.763636 84.170172 
L 152.672727 83.573377 
L 157.581818 81.342622 
L 162.490909 89.28963 
L 167.4 84.054596 
L 172.309091 80.020622 
L 177.218182 78.298188 
L 182.127273 81.447293 
L 187.036364 82.707526 
L 191.945455 75.287529 
L 196.854545 80.168646 
L 201.763636 78.914309 
L 206.672727 74.522942 
L 211.581818 74.475534 
L 216.490909 81.167786 
L 221.4 77.278554 
L 226.309091 96.953371 
L 231.218182 74.92549 
L 236.127273 86.366451 
L 241.036364 69.886676 
L 245.945455 72.002496 
L 250.854545 63.900024 
L 255.763636 71.221926 
L 260.672727 75.831823 
L 265.581818 72.020851 
L 270.490909 67.358228 
L 275.4 64.96335 
L 280.309091 68.740996 
L 285.218182 70.191491 
L 290.127273 79.247168 
L 295.036364 67.715881 
L 299.945455 65.064091 
L 304.854545 67.423965 
L 309.763636 71.060972 
L 314.672727 65.850653 
L 319.581818 62.997259 
L 324.490909 73.02954 
L 329.4 74.663678 
L 334.309091 94.972355 
L 339.218182 66.440285 
L 344.127273 58.620759 
L 349.036364 66.600818 
L 353.945455 63.830758 
L 358.854545 69.066545 
L 363.763636 61.117396 
L 368.672727 63.171462 
L 373.581818 60.805577 
L 373.581818 55.712152 
L 373.581818 55.712152 
L 368.672727 54.139578 
L 363.763636 57.859682 
L 358.854545 57.826304 
L 353.945455 57.615362 
L 349.036364 63.48864 
L 344.127273 45.216083 
L 339.218182 59.388415 
L 334.309091 50.528862 
L 329.4 60.137725 
L 324.490909 59.61079 
L 319.581818 61.047228 
L 314.672727 62.891645 
L 309.763636 64.351324 
L 304.854545 64.995227 
L 299.945455 62.245748 
L 295.036364 59.29701 
L 290.127273 54.886964 
L 285.218182 65.23867 
L 280.309091 58.190579 
L 275.4 61.175292 
L 270.490909 64.523302 
L 265.581818 66.504556 
L 260.672727 62.111217 
L 255.763636 68.103634 
L 250.854545 53.883659 
L 245.945455 68.518364 
L 241.036364 67.264661 
L 236.127273 58.52982 
L 231.218182 67.486609 
L 226.309091 68.223459 
L 221.4 72.170091 
L 216.490909 65.525973 
L 211.581818 70.873452 
L 206.672727 71.848251 
L 201.763636 72.237787 
L 196.854545 72.264576 
L 191.945455 71.66544 
L 187.036364 75.374089 
L 182.127273 70.284002 
L 177.218182 74.166662 
L 172.309091 77.074773 
L 167.4 74.738993 
L 162.490909 78.136797 
L 157.581818 75.404629 
L 152.672727 79.41084 
L 147.763636 81.037756 
L 142.854545 77.436439 
L 137.945455 78.48918 
L 133.036364 84.851426 
L 128.127273 73.193013 
L 123.218182 84.668866 
L 118.309091 87.863754 
L 113.4 44.443636 
L 108.490909 90.864855 
L 103.581818 92.969543 
L 98.672727 97.572087 
L 93.763636 93.214389 
L 88.854545 100.685445 
L 83.945455 104.220025 
L 79.036364 110.739464 
L 74.127273 120.469979 
L 69.218182 136.320952 
z
" clip-path="url(#p48cadd94bf)" style="fill: #d62728"/>
   </g>
   <g id="matplotlib.axis_1">
    <g id="xtick_1">
     <g id="line2d_1">
      <defs>
       <path id="mffd3d5aed3" d="M 0 0 
L 0 3.5 
" style="stroke: #000000; stroke-width: 0.8"/>
      </defs>
      <g>
       <use xlink:href="#mffd3d5aed3" x="69.218182" y="252" style="stroke: #000000; stroke-width: 0.8"/>
      </g>
     </g>
     <g id="text_1">
      <!-- 1 -->
      <g transform="translate(66.036932 266.598437)scale(0.1 -0.1)">
       <defs>
        <path id="DejaVuSans-31" d="M 794 531 
L 1825 531 
L 1825 4091 
L 703 3866 
L 703 4441 
L 1819 4666 
L 2450 4666 
L 2450 531 
L 3481 531 
L 3481 0 
L 794 0 
L 794 531 
z
" transform="scale(0.015625)"/>
       </defs>
       <use xlink:href="#DejaVuSans-31"/>
      </g>
     </g>
    </g>
    <g id="xtick_2">
     <g id="line2d_2">
      <g>
       <use xlink:href="#mffd3d5aed3" x="93.763636" y="252" style="stroke: #000000; stroke-width: 0.8"/>
      </g>
     </g>
     <g id="text_2">
      <!-- 6 -->
      <g transform="translate(90.582386 266.598437)scale(0.1 -0.1)">
       <defs>
        <path id="DejaVuSans-36" d="M 2113 2584 
Q 1688 2584 1439 2293 
Q 1191 2003 1191 1497 
Q 1191 994 1439 701 
Q 1688 409 2113 409 
Q 2538 409 2786 701 
Q 3034 994 3034 1497 
Q 3034 2003 2786 2293 
Q 2538 2584 2113 2584 
z
M 3366 4563 
L 3366 3988 
Q 3128 4100 2886 4159 
Q 2644 4219 2406 4219 
Q 1781 4219 1451 3797 
Q 1122 3375 1075 2522 
Q 1259 2794 1537 2939 
Q 1816 3084 2150 3084 
Q 2853 3084 3261 2657 
Q 3669 2231 3669 1497 
Q 3669 778 3244 343 
Q 2819 -91 2113 -91 
Q 1303 -91 875 529 
Q 447 1150 447 2328 
Q 447 3434 972 4092 
Q 1497 4750 2381 4750 
Q 2619 4750 2861 4703 
Q 3103 4656 3366 4563 
z
" transform="scale(0.015625)"/>
       </defs>
       <use xlink:href="#DejaVuSans-36"/>
      </g>
     </g>
    </g>
    <g id="xtick_3">
     <g id="line2d_3">
      <g>
       <use xlink:href="#mffd3d5aed3" x="118.309091" y="252" style="stroke: #000000; stroke-width: 0.8"/>
      </g>
     </g>
     <g id="text_3">
      <!-- 11 -->
      <g transform="translate(111.946591 266.598437)scale(0.1 -0.1)">
       <use xlink:href="#DejaVuSans-31"/>
       <use xlink:href="#DejaVuSans-31" x="63.623047"/>
      </g>
     </g>
    </g>
    <g id="xtick_4">
     <g id="line2d_4">
      <g>
       <use xlink:href="#mffd3d5aed3" x="142.854545" y="252" style="stroke: #000000; stroke-width: 0.8"/>
      </g>
     </g>
     <g id="text_4">
      <!-- 16 -->
      <g transform="translate(136.492045 266.598437)scale(0.1 -0.1)">
       <use xlink:href="#DejaVuSans-31"/>
       <use xlink:href="#DejaVuSans-36" x="63.623047"/>
      </g>
     </g>
    </g>
    <g id="xtick_5">
     <g id="line2d_5">
      <g>
       <use xlink:href="#mffd3d5aed3" x="167.4" y="252" style="stroke: #000000; stroke-width: 0.8"/>
      </g>
     </g>
     <g id="text_5">
      <!-- 21 -->
      <g transform="translate(161.0375 266.598437)scale(0.1 -0.1)">
       <defs>
        <path id="DejaVuSans-32" d="M 1228 531 
L 3431 531 
L 3431 0 
L 469 0 
L 469 531 
Q 828 903 1448 1529 
Q 2069 2156 2228 2338 
Q 2531 2678 2651 2914 
Q 2772 3150 2772 3378 
Q 2772 3750 2511 3984 
Q 2250 4219 1831 4219 
Q 1534 4219 1204 4116 
Q 875 4013 500 3803 
L 500 4441 
Q 881 4594 1212 4672 
Q 1544 4750 1819 4750 
Q 2544 4750 2975 4387 
Q 3406 4025 3406 3419 
Q 3406 3131 3298 2873 
Q 3191 2616 2906 2266 
Q 2828 2175 2409 1742 
Q 1991 1309 1228 531 
z
" transform="scale(0.015625)"/>
       </defs>
       <use xlink:href="#DejaVuSans-32"/>
       <use xlink:href="#DejaVuSans-31" x="63.623047"/>
      </g>
     </g>
    </g>
    <g id="xtick_6">
     <g id="line2d_6">
      <g>
       <use xlink:href="#mffd3d5aed3" x="191.945455" y="252" style="stroke: #000000; stroke-width: 0.8"/>
      </g>
     </g>
     <g id="text_6">
      <!-- 26 -->
      <g transform="translate(185.582955 266.598437)scale(0.1 -0.1)">
       <use xlink:href="#DejaVuSans-32"/>
       <use xlink:href="#DejaVuSans-36" x="63.623047"/>
      </g>
     </g>
    </g>
    <g id="xtick_7">
     <g id="line2d_7">
      <g>
       <use xlink:href="#mffd3d5aed3" x="216.490909" y="252" style="stroke: #000000; stroke-width: 0.8"/>
      </g>
     </g>
     <g id="text_7">
      <!-- 31 -->
      <g transform="translate(210.128409 266.598437)scale(0.1 -0.1)">
       <defs>
        <path id="DejaVuSans-33" d="M 2597 2516 
Q 3050 2419 3304 2112 
Q 3559 1806 3559 1356 
Q 3559 666 3084 287 
Q 2609 -91 1734 -91 
Q 1441 -91 1130 -33 
Q 819 25 488 141 
L 488 750 
Q 750 597 1062 519 
Q 1375 441 1716 441 
Q 2309 441 2620 675 
Q 2931 909 2931 1356 
Q 2931 1769 2642 2001 
Q 2353 2234 1838 2234 
L 1294 2234 
L 1294 2753 
L 1863 2753 
Q 2328 2753 2575 2939 
Q 2822 3125 2822 3475 
Q 2822 3834 2567 4026 
Q 2313 4219 1838 4219 
Q 1578 4219 1281 4162 
Q 984 4106 628 3988 
L 628 4550 
Q 988 4650 1302 4700 
Q 1616 4750 1894 4750 
Q 2613 4750 3031 4423 
Q 3450 4097 3450 3541 
Q 3450 3153 3228 2886 
Q 3006 2619 2597 2516 
z
" transform="scale(0.015625)"/>
       </defs>
       <use xlink:href="#DejaVuSans-33"/>
       <use xlink:href="#DejaVuSans-31" x="63.623047"/>
      </g>
     </g>
    </g>
    <g id="xtick_8">
     <g id="line2d_8">
      <g>
       <use xlink:href="#mffd3d5aed3" x="241.036364" y="252" style="stroke: #000000; stroke-width: 0.8"/>
      </g>
     </g>
     <g id="text_8">
      <!-- 36 -->
      <g transform="translate(234.673864 266.598437)scale(0.1 -0.1)">
       <use xlink:href="#DejaVuSans-33"/>
       <use xlink:href="#DejaVuSans-36" x="63.623047"/>
      </g>
     </g>
    </g>
    <g id="xtick_9">
     <g id="line2d_9">
      <g>
       <use xlink:href="#mffd3d5aed3" x="265.581818" y="252" style="stroke: #000000; stroke-width: 0.8"/>
      </g>
     </g>
     <g id="text_9">
      <!-- 41 -->
      <g transform="translate(259.219318 266.598437)scale(0.1 -0.1)">
       <defs>
        <path id="DejaVuSans-34" d="M 2419 4116 
L 825 1625 
L 2419 1625 
L 2419 4116 
z
M 2253 4666 
L 3047 4666 
L 3047 1625 
L 3713 1625 
L 3713 1100 
L 3047 1100 
L 3047 0 
L 2419 0 
L 2419 1100 
L 313 1100 
L 313 1709 
L 2253 4666 
z
" transform="scale(0.015625)"/>
       </defs>
       <use xlink:href="#DejaVuSans-34"/>
       <use xlink:href="#DejaVuSans-31" x="63.623047"/>
      </g>
     </g>
    </g>
    <g id="xtick_10">
     <g id="line2d_10">
      <g>
       <use xlink:href="#mffd3d5aed3" x="290.127273" y="252" style="stroke: #000000; stroke-width: 0.8"/>
      </g>
     </g>
     <g id="text_10">
      <!-- 46 -->
      <g transform="translate(283.764773 266.598437)scale(0.1 -0.1)">
       <use xlink:href="#DejaVuSans-34"/>
       <use xlink:href="#DejaVuSans-36" x="63.623047"/>
      </g>
     </g>
    </g>
    <g id="xtick_11">
     <g id="line2d_11">
      <g>
       <use xlink:href="#mffd3d5aed3" x="314.672727" y="252" style="stroke: #000000; stroke-width: 0.8"/>
      </g>
     </g>
     <g id="text_11">
      <!-- 51 -->
      <g transform="translate(308.310227 266.598437)scale(0.1 -0.1)">
       <defs>
        <path id="DejaVuSans-35" d="M 691 4666 
L 3169 4666 
L 3169 4134 
L 1269 4134 
L 1269 2991 
Q 1406 3038 1543 3061 
Q 1681 3084 1819 3084 
Q 2600 3084 3056 2656 
Q 3513 2228 3513 1497 
Q 3513 744 3044 326 
Q 2575 -91 1722 -91 
Q 1428 -91 1123 -41 
Q 819 9 494 109 
L 494 744 
Q 775 591 1075 516 
Q 1375 441 1709 441 
Q 2250 441 2565 725 
Q 2881 1009 2881 1497 
Q 2881 1984 2565 2268 
Q 2250 2553 1709 2553 
Q 1456 2553 1204 2497 
Q 953 2441 691 2322 
L 691 4666 
z
" transform="scale(0.015625)"/>
       </defs>
       <use xlink:href="#DejaVuSans-35"/>
       <use xlink:href="#DejaVuSans-31" x="63.623047"/>
      </g>
     </g>
    </g>
    <g id="xtick_12">
     <g id="line2d_12">
      <g>
       <use xlink:href="#mffd3d5aed3" x="339.218182" y="252" style="stroke: #000000; stroke-width: 0.8"/>
      </g>
     </g>
     <g id="text_12">
      <!-- 56 -->
      <g transform="translate(332.855682 266.598437)scale(0.1 -0.1)">
       <use xlink:href="#DejaVuSans-35"/>
       <use xlink:href="#DejaVuSans-36" x="63.623047"/>
      </g>
     </g>
    </g>
    <g id="xtick_13">
     <g id="line2d_13">
      <g>
       <use xlink:href="#mffd3d5aed3" x="363.763636" y="252" style="stroke: #000000; stroke-width: 0.8"/>
      </g>
     </g>
     <g id="text_13">
      <!-- 61 -->
      <g transform="translate(357.401136 266.598437)scale(0.1 -0.1)">
       <use xlink:href="#DejaVuSans-36"/>
       <use xlink:href="#DejaVuSans-31" x="63.623047"/>
      </g>
     </g>
    </g>
    <g id="text_14">
     <!-- Program size -->
     <g transform="translate(189.022656 280.276563)scale(0.1 -0.1)">
      <defs>
       <path id="DejaVuSans-50" d="M 1259 4147 
L 1259 2394 
L 2053 2394 
Q 2494 2394 2734 2622 
Q 2975 2850 2975 3272 
Q 2975 3691 2734 3919 
Q 2494 4147 2053 4147 
L 1259 4147 
z
M 628 4666 
L 2053 4666 
Q 2838 4666 3239 4311 
Q 3641 3956 3641 3272 
Q 3641 2581 3239 2228 
Q 2838 1875 2053 1875 
L 1259 1875 
L 1259 0 
L 628 0 
L 628 4666 
z
" transform="scale(0.015625)"/>
       <path id="DejaVuSans-72" d="M 2631 2963 
Q 2534 3019 2420 3045 
Q 2306 3072 2169 3072 
Q 1681 3072 1420 2755 
Q 1159 2438 1159 1844 
L 1159 0 
L 581 0 
L 581 3500 
L 1159 3500 
L 1159 2956 
Q 1341 3275 1631 3429 
Q 1922 3584 2338 3584 
Q 2397 3584 2469 3576 
Q 2541 3569 2628 3553 
L 2631 2963 
z
" transform="scale(0.015625)"/>
       <path id="DejaVuSans-6f" d="M 1959 3097 
Q 1497 3097 1228 2736 
Q 959 2375 959 1747 
Q 959 1119 1226 758 
Q 1494 397 1959 397 
Q 2419 397 2687 759 
Q 2956 1122 2956 1747 
Q 2956 2369 2687 2733 
Q 2419 3097 1959 3097 
z
M 1959 3584 
Q 2709 3584 3137 3096 
Q 3566 2609 3566 1747 
Q 3566 888 3137 398 
Q 2709 -91 1959 -91 
Q 1206 -91 779 398 
Q 353 888 353 1747 
Q 353 2609 779 3096 
Q 1206 3584 1959 3584 
z
" transform="scale(0.015625)"/>
       <path id="DejaVuSans-67" d="M 2906 1791 
Q 2906 2416 2648 2759 
Q 2391 3103 1925 3103 
Q 1463 3103 1205 2759 
Q 947 2416 947 1791 
Q 947 1169 1205 825 
Q 1463 481 1925 481 
Q 2391 481 2648 825 
Q 2906 1169 2906 1791 
z
M 3481 434 
Q 3481 -459 3084 -895 
Q 2688 -1331 1869 -1331 
Q 1566 -1331 1297 -1286 
Q 1028 -1241 775 -1147 
L 775 -588 
Q 1028 -725 1275 -790 
Q 1522 -856 1778 -856 
Q 2344 -856 2625 -561 
Q 2906 -266 2906 331 
L 2906 616 
Q 2728 306 2450 153 
Q 2172 0 1784 0 
Q 1141 0 747 490 
Q 353 981 353 1791 
Q 353 2603 747 3093 
Q 1141 3584 1784 3584 
Q 2172 3584 2450 3431 
Q 2728 3278 2906 2969 
L 2906 3500 
L 3481 3500 
L 3481 434 
z
" transform="scale(0.015625)"/>
       <path id="DejaVuSans-61" d="M 2194 1759 
Q 1497 1759 1228 1600 
Q 959 1441 959 1056 
Q 959 750 1161 570 
Q 1363 391 1709 391 
Q 2188 391 2477 730 
Q 2766 1069 2766 1631 
L 2766 1759 
L 2194 1759 
z
M 3341 1997 
L 3341 0 
L 2766 0 
L 2766 531 
Q 2569 213 2275 61 
Q 1981 -91 1556 -91 
Q 1019 -91 701 211 
Q 384 513 384 1019 
Q 384 1609 779 1909 
Q 1175 2209 1959 2209 
L 2766 2209 
L 2766 2266 
Q 2766 2663 2505 2880 
Q 2244 3097 1772 3097 
Q 1472 3097 1187 3025 
Q 903 2953 641 2809 
L 641 3341 
Q 956 3463 1253 3523 
Q 1550 3584 1831 3584 
Q 2591 3584 2966 3190 
Q 3341 2797 3341 1997 
z
" transform="scale(0.015625)"/>
       <path id="DejaVuSans-6d" d="M 3328 2828 
Q 3544 3216 3844 3400 
Q 4144 3584 4550 3584 
Q 5097 3584 5394 3201 
Q 5691 2819 5691 2113 
L 5691 0 
L 5113 0 
L 5113 2094 
Q 5113 2597 4934 2840 
Q 4756 3084 4391 3084 
Q 3944 3084 3684 2787 
Q 3425 2491 3425 1978 
L 3425 0 
L 2847 0 
L 2847 2094 
Q 2847 2600 2669 2842 
Q 2491 3084 2119 3084 
Q 1678 3084 1418 2786 
Q 1159 2488 1159 1978 
L 1159 0 
L 581 0 
L 581 3500 
L 1159 3500 
L 1159 2956 
Q 1356 3278 1631 3431 
Q 1906 3584 2284 3584 
Q 2666 3584 2933 3390 
Q 3200 3197 3328 2828 
z
" transform="scale(0.015625)"/>
       <path id="DejaVuSans-20" transform="scale(0.015625)"/>
       <path id="DejaVuSans-73" d="M 2834 3397 
L 2834 2853 
Q 2591 2978 2328 3040 
Q 2066 3103 1784 3103 
Q 1356 3103 1142 2972 
Q 928 2841 928 2578 
Q 928 2378 1081 2264 
Q 1234 2150 1697 2047 
L 1894 2003 
Q 2506 1872 2764 1633 
Q 3022 1394 3022 966 
Q 3022 478 2636 193 
Q 2250 -91 1575 -91 
Q 1294 -91 989 -36 
Q 684 19 347 128 
L 347 722 
Q 666 556 975 473 
Q 1284 391 1588 391 
Q 1994 391 2212 530 
Q 2431 669 2431 922 
Q 2431 1156 2273 1281 
Q 2116 1406 1581 1522 
L 1381 1569 
Q 847 1681 609 1914 
Q 372 2147 372 2553 
Q 372 3047 722 3315 
Q 1072 3584 1716 3584 
Q 2034 3584 2315 3537 
Q 2597 3491 2834 3397 
z
" transform="scale(0.015625)"/>
       <path id="DejaVuSans-69" d="M 603 3500 
L 1178 3500 
L 1178 0 
L 603 0 
L 603 3500 
z
M 603 4863 
L 1178 4863 
L 1178 4134 
L 603 4134 
L 603 4863 
z
" transform="scale(0.015625)"/>
       <path id="DejaVuSans-7a" d="M 353 3500 
L 3084 3500 
L 3084 2975 
L 922 459 
L 3084 459 
L 3084 0 
L 275 0 
L 275 525 
L 2438 3041 
L 353 3041 
L 353 3500 
z
" transform="scale(0.015625)"/>
       <path id="DejaVuSans-65" d="M 3597 1894 
L 3597 1613 
L 953 1613 
Q 991 1019 1311 708 
Q 1631 397 2203 397 
Q 2534 397 2845 478 
Q 3156 559 3463 722 
L 3463 178 
Q 3153 47 2828 -22 
Q 2503 -91 2169 -91 
Q 1331 -91 842 396 
Q 353 884 353 1716 
Q 353 2575 817 3079 
Q 1281 3584 2069 3584 
Q 2775 3584 3186 3129 
Q 3597 2675 3597 1894 
z
M 3022 2063 
Q 3016 2534 2758 2815 
Q 2500 3097 2075 3097 
Q 1594 3097 1305 2825 
Q 1016 2553 972 2059 
L 3022 2063 
z
" transform="scale(0.015625)"/>
      </defs>
      <use xlink:href="#DejaVuSans-50"/>
      <use xlink:href="#DejaVuSans-72" x="58.552734"/>
      <use xlink:href="#DejaVuSans-6f" x="97.416016"/>
      <use xlink:href="#DejaVuSans-67" x="158.597656"/>
      <use xlink:href="#DejaVuSans-72" x="222.074219"/>
      <use xlink:href="#DejaVuSans-61" x="263.1875"/>
      <use xlink:href="#DejaVuSans-6d" x="324.466797"/>
      <use xlink:href="#DejaVuSans-20" x="421.878906"/>
      <use xlink:href="#DejaVuSans-73" x="453.666016"/>
      <use xlink:href="#DejaVuSans-69" x="505.765625"/>
      <use xlink:href="#DejaVuSans-7a" x="533.548828"/>
      <use xlink:href="#DejaVuSans-65" x="586.039062"/>
     </g>
    </g>
   </g>
   <g id="matplotlib.axis_2">
    <g id="ytick_1">
     <g id="line2d_14">
      <defs>
       <path id="m83bb132dde" d="M 0 0 
L -3.5 0 
" style="stroke: #000000; stroke-width: 0.8"/>
      </defs>
      <g>
       <use xlink:href="#m83bb132dde" x="54" y="234.209639" style="stroke: #000000; stroke-width: 0.8"/>
      </g>
     </g>
     <g id="text_15">
      <!-- $\mathdefault{10^{4}}$ -->
      <g transform="translate(29.4 238.008858)scale(0.1 -0.1)">
       <defs>
        <path id="DejaVuSans-30" d="M 2034 4250 
Q 1547 4250 1301 3770 
Q 1056 3291 1056 2328 
Q 1056 1369 1301 889 
Q 1547 409 2034 409 
Q 2525 409 2770 889 
Q 3016 1369 3016 2328 
Q 3016 3291 2770 3770 
Q 2525 4250 2034 4250 
z
M 2034 4750 
Q 2819 4750 3233 4129 
Q 3647 3509 3647 2328 
Q 3647 1150 3233 529 
Q 2819 -91 2034 -91 
Q 1250 -91 836 529 
Q 422 1150 422 2328 
Q 422 3509 836 4129 
Q 1250 4750 2034 4750 
z
" transform="scale(0.015625)"/>
       </defs>
       <use xlink:href="#DejaVuSans-31" transform="translate(0 0.684375)"/>
       <use xlink:href="#DejaVuSans-30" transform="translate(63.623047 0.684375)"/>
       <use xlink:href="#DejaVuSans-34" transform="translate(128.203125 38.965625)scale(0.7)"/>
      </g>
     </g>
    </g>
    <g id="ytick_2">
     <g id="line2d_15">
      <g>
       <use xlink:href="#m83bb132dde" x="54" y="186.986037" style="stroke: #000000; stroke-width: 0.8"/>
      </g>
     </g>
     <g id="text_16">
      <!-- $\mathdefault{10^{5}}$ -->
      <g transform="translate(29.4 190.785256)scale(0.1 -0.1)">
       <use xlink:href="#DejaVuSans-31" transform="translate(0 0.684375)"/>
       <use xlink:href="#DejaVuSans-30" transform="translate(63.623047 0.684375)"/>
       <use xlink:href="#DejaVuSans-35" transform="translate(128.203125 38.965625)scale(0.7)"/>
      </g>
     </g>
    </g>
    <g id="ytick_3">
     <g id="line2d_16">
      <g>
       <use xlink:href="#m83bb132dde" x="54" y="139.762434" style="stroke: #000000; stroke-width: 0.8"/>
      </g>
     </g>
     <g id="text_17">
      <!-- $\mathdefault{10^{6}}$ -->
      <g transform="translate(29.4 143.561653)scale(0.1 -0.1)">
       <use xlink:href="#DejaVuSans-31" transform="translate(0 0.765625)"/>
       <use xlink:href="#DejaVuSans-30" transform="translate(63.623047 0.765625)"/>
       <use xlink:href="#DejaVuSans-36" transform="translate(128.203125 39.046875)scale(0.7)"/>
      </g>
     </g>
    </g>
    <g id="ytick_4">
     <g id="line2d_17">
      <g>
       <use xlink:href="#m83bb132dde" x="54" y="92.538832" style="stroke: #000000; stroke-width: 0.8"/>
      </g>
     </g>
     <g id="text_18">
      <!-- $\mathdefault{10^{7}}$ -->
      <g transform="translate(29.4 96.33805)scale(0.1 -0.1)">
       <defs>
        <path id="DejaVuSans-37" d="M 525 4666 
L 3525 4666 
L 3525 4397 
L 1831 0 
L 1172 0 
L 2766 4134 
L 525 4134 
L 525 4666 
z
" transform="scale(0.015625)"/>
       </defs>
       <use xlink:href="#DejaVuSans-31" transform="translate(0 0.684375)"/>
       <use xlink:href="#DejaVuSans-30" transform="translate(63.623047 0.684375)"/>
       <use xlink:href="#DejaVuSans-37" transform="translate(128.203125 38.965625)scale(0.7)"/>
      </g>
     </g>
    </g>
    <g id="ytick_5">
     <g id="line2d_18">
      <g>
       <use xlink:href="#m83bb132dde" x="54" y="45.315229" style="stroke: #000000; stroke-width: 0.8"/>
      </g>
     </g>
     <g id="text_19">
      <!-- $\mathdefault{10^{8}}$ -->
      <g transform="translate(29.4 49.114448)scale(0.1 -0.1)">
       <defs>
        <path id="DejaVuSans-38" d="M 2034 2216 
Q 1584 2216 1326 1975 
Q 1069 1734 1069 1313 
Q 1069 891 1326 650 
Q 1584 409 2034 409 
Q 2484 409 2743 651 
Q 3003 894 3003 1313 
Q 3003 1734 2745 1975 
Q 2488 2216 2034 2216 
z
M 1403 2484 
Q 997 2584 770 2862 
Q 544 3141 544 3541 
Q 544 4100 942 4425 
Q 1341 4750 2034 4750 
Q 2731 4750 3128 4425 
Q 3525 4100 3525 3541 
Q 3525 3141 3298 2862 
Q 3072 2584 2669 2484 
Q 3125 2378 3379 2068 
Q 3634 1759 3634 1313 
Q 3634 634 3220 271 
Q 2806 -91 2034 -91 
Q 1263 -91 848 271 
Q 434 634 434 1313 
Q 434 1759 690 2068 
Q 947 2378 1403 2484 
z
M 1172 3481 
Q 1172 3119 1398 2916 
Q 1625 2713 2034 2713 
Q 2441 2713 2670 2916 
Q 2900 3119 2900 3481 
Q 2900 3844 2670 4047 
Q 2441 4250 2034 4250 
Q 1625 4250 1398 4047 
Q 1172 3844 1172 3481 
z
" transform="scale(0.015625)"/>
       </defs>
       <use xlink:href="#DejaVuSans-31" transform="translate(0 0.765625)"/>
       <use xlink:href="#DejaVuSans-30" transform="translate(63.623047 0.765625)"/>
       <use xlink:href="#DejaVuSans-38" transform="translate(128.203125 39.046875)scale(0.7)"/>
      </g>
     </g>
    </g>
    <g id="ytick_6">
     <g id="line2d_19">
      <defs>
       <path id="m9853591b30" d="M 0 0 
L -2 0 
" style="stroke: #000000; stroke-width: 0.6"/>
      </defs>
      <g>
       <use xlink:href="#m9853591b30" x="54" y="248.42536" style="stroke: #000000; stroke-width: 0.6"/>
      </g>
     </g>
    </g>
    <g id="ytick_7">
     <g id="line2d_20">
      <g>
       <use xlink:href="#m9853591b30" x="54" y="244.686137" style="stroke: #000000; stroke-width: 0.6"/>
      </g>
     </g>
    </g>
    <g id="ytick_8">
     <g id="line2d_21">
      <g>
       <use xlink:href="#m9853591b30" x="54" y="241.524668" style="stroke: #000000; stroke-width: 0.6"/>
      </g>
     </g>
    </g>
    <g id="ytick_9">
     <g id="line2d_22">
      <g>
       <use xlink:href="#m9853591b30" x="54" y="238.786079" style="stroke: #000000; stroke-width: 0.6"/>
      </g>
     </g>
    </g>
    <g id="ytick_10">
     <g id="line2d_23">
      <g>
       <use xlink:href="#m9853591b30" x="54" y="236.370473" style="stroke: #000000; stroke-width: 0.6"/>
      </g>
     </g>
    </g>
    <g id="ytick_11">
     <g id="line2d_24">
      <g>
       <use xlink:href="#m9853591b30" x="54" y="219.993919" style="stroke: #000000; stroke-width: 0.6"/>
      </g>
     </g>
    </g>
    <g id="ytick_12">
     <g id="line2d_25">
      <g>
       <use xlink:href="#m9853591b30" x="54" y="211.678255" style="stroke: #000000; stroke-width: 0.6"/>
      </g>
     </g>
    </g>
    <g id="ytick_13">
     <g id="line2d_26">
      <g>
       <use xlink:href="#m9853591b30" x="54" y="205.778198" style="stroke: #000000; stroke-width: 0.6"/>
      </g>
     </g>
    </g>
    <g id="ytick_14">
     <g id="line2d_27">
      <g>
       <use xlink:href="#m9853591b30" x="54" y="201.201758" style="stroke: #000000; stroke-width: 0.6"/>
      </g>
     </g>
    </g>
    <g id="ytick_15">
     <g id="line2d_28">
      <g>
       <use xlink:href="#m9853591b30" x="54" y="197.462534" style="stroke: #000000; stroke-width: 0.6"/>
      </g>
     </g>
    </g>
    <g id="ytick_16">
     <g id="line2d_29">
      <g>
       <use xlink:href="#m9853591b30" x="54" y="194.301065" style="stroke: #000000; stroke-width: 0.6"/>
      </g>
     </g>
    </g>
    <g id="ytick_17">
     <g id="line2d_30">
      <g>
       <use xlink:href="#m9853591b30" x="54" y="191.562477" style="stroke: #000000; stroke-width: 0.6"/>
      </g>
     </g>
    </g>
    <g id="ytick_18">
     <g id="line2d_31">
      <g>
       <use xlink:href="#m9853591b30" x="54" y="189.14687" style="stroke: #000000; stroke-width: 0.6"/>
      </g>
     </g>
    </g>
    <g id="ytick_19">
     <g id="line2d_32">
      <g>
       <use xlink:href="#m9853591b30" x="54" y="172.770316" style="stroke: #000000; stroke-width: 0.6"/>
      </g>
     </g>
    </g>
    <g id="ytick_20">
     <g id="line2d_33">
      <g>
       <use xlink:href="#m9853591b30" x="54" y="164.454652" style="stroke: #000000; stroke-width: 0.6"/>
      </g>
     </g>
    </g>
    <g id="ytick_21">
     <g id="line2d_34">
      <g>
       <use xlink:href="#m9853591b30" x="54" y="158.554595" style="stroke: #000000; stroke-width: 0.6"/>
      </g>
     </g>
    </g>
    <g id="ytick_22">
     <g id="line2d_35">
      <g>
       <use xlink:href="#m9853591b30" x="54" y="153.978155" style="stroke: #000000; stroke-width: 0.6"/>
      </g>
     </g>
    </g>
    <g id="ytick_23">
     <g id="line2d_36">
      <g>
       <use xlink:href="#m9853591b30" x="54" y="150.238931" style="stroke: #000000; stroke-width: 0.6"/>
      </g>
     </g>
    </g>
    <g id="ytick_24">
     <g id="line2d_37">
      <g>
       <use xlink:href="#m9853591b30" x="54" y="147.077463" style="stroke: #000000; stroke-width: 0.6"/>
      </g>
     </g>
    </g>
    <g id="ytick_25">
     <g id="line2d_38">
      <g>
       <use xlink:href="#m9853591b30" x="54" y="144.338874" style="stroke: #000000; stroke-width: 0.6"/>
      </g>
     </g>
    </g>
    <g id="ytick_26">
     <g id="line2d_39">
      <g>
       <use xlink:href="#m9853591b30" x="54" y="141.923268" style="stroke: #000000; stroke-width: 0.6"/>
      </g>
     </g>
    </g>
    <g id="ytick_27">
     <g id="line2d_40">
      <g>
       <use xlink:href="#m9853591b30" x="54" y="125.546713" style="stroke: #000000; stroke-width: 0.6"/>
      </g>
     </g>
    </g>
    <g id="ytick_28">
     <g id="line2d_41">
      <g>
       <use xlink:href="#m9853591b30" x="54" y="117.23105" style="stroke: #000000; stroke-width: 0.6"/>
      </g>
     </g>
    </g>
    <g id="ytick_29">
     <g id="line2d_42">
      <g>
       <use xlink:href="#m9853591b30" x="54" y="111.330992" style="stroke: #000000; stroke-width: 0.6"/>
      </g>
     </g>
    </g>
    <g id="ytick_30">
     <g id="line2d_43">
      <g>
       <use xlink:href="#m9853591b30" x="54" y="106.754552" style="stroke: #000000; stroke-width: 0.6"/>
      </g>
     </g>
    </g>
    <g id="ytick_31">
     <g id="line2d_44">
      <g>
       <use xlink:href="#m9853591b30" x="54" y="103.015329" style="stroke: #000000; stroke-width: 0.6"/>
      </g>
     </g>
    </g>
    <g id="ytick_32">
     <g id="line2d_45">
      <g>
       <use xlink:href="#m9853591b30" x="54" y="99.85386" style="stroke: #000000; stroke-width: 0.6"/>
      </g>
     </g>
    </g>
    <g id="ytick_33">
     <g id="line2d_46">
      <g>
       <use xlink:href="#m9853591b30" x="54" y="97.115272" style="stroke: #000000; stroke-width: 0.6"/>
      </g>
     </g>
    </g>
    <g id="ytick_34">
     <g id="line2d_47">
      <g>
       <use xlink:href="#m9853591b30" x="54" y="94.699665" style="stroke: #000000; stroke-width: 0.6"/>
      </g>
     </g>
    </g>
    <g id="ytick_35">
     <g id="line2d_48">
      <g>
       <use xlink:href="#m9853591b30" x="54" y="78.323111" style="stroke: #000000; stroke-width: 0.6"/>
      </g>
     </g>
    </g>
    <g id="ytick_36">
     <g id="line2d_49">
      <g>
       <use xlink:href="#m9853591b30" x="54" y="70.007447" style="stroke: #000000; stroke-width: 0.6"/>
      </g>
     </g>
    </g>
    <g id="ytick_37">
     <g id="line2d_50">
      <g>
       <use xlink:href="#m9853591b30" x="54" y="64.10739" style="stroke: #000000; stroke-width: 0.6"/>
      </g>
     </g>
    </g>
    <g id="ytick_38">
     <g id="line2d_51">
      <g>
       <use xlink:href="#m9853591b30" x="54" y="59.53095" style="stroke: #000000; stroke-width: 0.6"/>
      </g>
     </g>
    </g>
    <g id="ytick_39">
     <g id="line2d_52">
      <g>
       <use xlink:href="#m9853591b30" x="54" y="55.791726" style="stroke: #000000; stroke-width: 0.6"/>
      </g>
     </g>
    </g>
    <g id="ytick_40">
     <g id="line2d_53">
      <g>
       <use xlink:href="#m9853591b30" x="54" y="52.630258" style="stroke: #000000; stroke-width: 0.6"/>
      </g>
     </g>
    </g>
    <g id="ytick_41">
     <g id="line2d_54">
      <g>
       <use xlink:href="#m9853591b30" x="54" y="49.891669" style="stroke: #000000; stroke-width: 0.6"/>
      </g>
     </g>
    </g>
    <g id="ytick_42">
     <g id="line2d_55">
      <g>
       <use xlink:href="#m9853591b30" x="54" y="47.476062" style="stroke: #000000; stroke-width: 0.6"/>
      </g>
     </g>
    </g>
    <g id="text_20">
     <!-- Median NEPS -->
     <g transform="translate(23.320312 176.144844)rotate(-90)scale(0.1 -0.1)">
      <defs>
       <path id="DejaVuSans-4d" d="M 628 4666 
L 1569 4666 
L 2759 1491 
L 3956 4666 
L 4897 4666 
L 4897 0 
L 4281 0 
L 4281 4097 
L 3078 897 
L 2444 897 
L 1241 4097 
L 1241 0 
L 628 0 
L 628 4666 
z
" transform="scale(0.015625)"/>
       <path id="DejaVuSans-64" d="M 2906 2969 
L 2906 4863 
L 3481 4863 
L 3481 0 
L 2906 0 
L 2906 525 
Q 2725 213 2448 61 
Q 2172 -91 1784 -91 
Q 1150 -91 751 415 
Q 353 922 353 1747 
Q 353 2572 751 3078 
Q 1150 3584 1784 3584 
Q 2172 3584 2448 3432 
Q 2725 3281 2906 2969 
z
M 947 1747 
Q 947 1113 1208 752 
Q 1469 391 1925 391 
Q 2381 391 2643 752 
Q 2906 1113 2906 1747 
Q 2906 2381 2643 2742 
Q 2381 3103 1925 3103 
Q 1469 3103 1208 2742 
Q 947 2381 947 1747 
z
" transform="scale(0.015625)"/>
       <path id="DejaVuSans-6e" d="M 3513 2113 
L 3513 0 
L 2938 0 
L 2938 2094 
Q 2938 2591 2744 2837 
Q 2550 3084 2163 3084 
Q 1697 3084 1428 2787 
Q 1159 2491 1159 1978 
L 1159 0 
L 581 0 
L 581 3500 
L 1159 3500 
L 1159 2956 
Q 1366 3272 1645 3428 
Q 1925 3584 2291 3584 
Q 2894 3584 3203 3211 
Q 3513 2838 3513 2113 
z
" transform="scale(0.015625)"/>
       <path id="DejaVuSans-4e" d="M 628 4666 
L 1478 4666 
L 3547 763 
L 3547 4666 
L 4159 4666 
L 4159 0 
L 3309 0 
L 1241 3903 
L 1241 0 
L 628 0 
L 628 4666 
z
" transform="scale(0.015625)"/>
       <path id="DejaVuSans-45" d="M 628 4666 
L 3578 4666 
L 3578 4134 
L 1259 4134 
L 1259 2753 
L 3481 2753 
L 3481 2222 
L 1259 2222 
L 1259 531 
L 3634 531 
L 3634 0 
L 628 0 
L 628 4666 
z
" transform="scale(0.015625)"/>
       <path id="DejaVuSans-53" d="M 3425 4513 
L 3425 3897 
Q 3066 4069 2747 4153 
Q 2428 4238 2131 4238 
Q 1616 4238 1336 4038 
Q 1056 3838 1056 3469 
Q 1056 3159 1242 3001 
Q 1428 2844 1947 2747 
L 2328 2669 
Q 3034 2534 3370 2195 
Q 3706 1856 3706 1288 
Q 3706 609 3251 259 
Q 2797 -91 1919 -91 
Q 1588 -91 1214 -16 
Q 841 59 441 206 
L 441 856 
Q 825 641 1194 531 
Q 1563 422 1919 422 
Q 2459 422 2753 634 
Q 3047 847 3047 1241 
Q 3047 1584 2836 1778 
Q 2625 1972 2144 2069 
L 1759 2144 
Q 1053 2284 737 2584 
Q 422 2884 422 3419 
Q 422 4038 858 4394 
Q 1294 4750 2059 4750 
Q 2388 4750 2728 4690 
Q 3069 4631 3425 4513 
z
" transform="scale(0.015625)"/>
      </defs>
      <use xlink:href="#DejaVuSans-4d"/>
      <use xlink:href="#DejaVuSans-65" x="86.279297"/>
      <use xlink:href="#DejaVuSans-64" x="147.802734"/>
      <use xlink:href="#DejaVuSans-69" x="211.279297"/>
      <use xlink:href="#DejaVuSans-61" x="239.0625"/>
      <use xlink:href="#DejaVuSans-6e" x="300.341797"/>
      <use xlink:href="#DejaVuSans-20" x="363.720703"/>
      <use xlink:href="#DejaVuSans-4e" x="395.507812"/>
      <use xlink:href="#DejaVuSans-45" x="470.3125"/>
      <use xlink:href="#DejaVuSans-50" x="533.496094"/>
      <use xlink:href="#DejaVuSans-53" x="593.798828"/>
     </g>
    </g>
   </g>
   <g id="line2d_56">
    <path d="M 69.218182 242.036059 
L 74.127273 228.302785 
L 79.036364 220.965387 
L 83.945455 212.349442 
L 88.854545 208.786557 
L 93.763636 205.193035 
L 98.672727 202.463318 
L 103.581818 199.835786 
L 108.490909 197.174269 
L 113.4 194.407991 
L 118.309091 192.172704 
L 123.218182 189.824364 
L 128.127273 188.383956 
L 133.036364 187.875099 
L 137.945455 186.564222 
L 142.854545 184.473823 
L 147.763636 184.215579 
L 152.672727 182.722328 
L 157.581818 182.116462 
L 162.490909 180.856582 
L 167.4 179.068272 
L 172.309091 179.331369 
L 177.218182 177.839943 
L 182.127273 177.544801 
L 187.036364 176.433293 
L 191.945455 175.107852 
L 196.854545 175.43891 
L 201.763636 174.221626 
L 206.672727 172.391621 
L 211.581818 172.448046 
L 216.490909 172.141566 
L 221.4 171.905233 
L 226.309091 170.798206 
L 231.218182 170.230281 
L 236.127273 169.984408 
L 241.036364 168.82576 
L 245.945455 167.630728 
L 250.854545 170.389472 
L 255.763636 168.352733 
L 260.672727 167.922873 
L 265.581818 167.922804 
L 270.490909 167.674481 
L 275.4 165.94895 
L 280.309091 166.415478 
L 285.218182 164.769222 
L 290.127273 165.129123 
L 295.036364 164.023706 
L 299.945455 163.680839 
L 304.854545 164.182778 
L 309.763636 162.950785 
L 314.672727 162.335921 
L 319.581818 161.600805 
L 324.490909 162.725614 
L 329.4 162.086254 
L 334.309091 161.154129 
L 339.218182 162.757385 
L 344.127273 161.953894 
L 349.036364 161.66331 
L 353.945455 160.798386 
L 358.854545 159.891436 
L 363.763636 159.991328 
L 368.672727 159.371766 
L 373.581818 158.703457 
" clip-path="url(#p48cadd94bf)" style="fill: none; stroke: #1f77b4; stroke-width: 1.5; stroke-linecap: square"/>
   </g>
   <g id="line2d_57">
    <path d="M 69.218182 203.620258 
L 74.127273 194.60588 
L 79.036364 188.374411 
L 83.945455 180.202443 
L 88.854545 177.316704 
L 93.763636 173.363537 
L 98.672727 170.298887 
L 103.581818 168.495147 
L 108.490909 169.27216 
L 113.4 163.409782 
L 118.309091 167.049939 
L 123.218182 161.698012 
L 128.127273 164.285974 
L 133.036364 166.819901 
L 137.945455 161.968936 
L 142.854545 158.693617 
L 147.763636 165.609201 
L 152.672727 158.390961 
L 157.581818 163.565912 
L 162.490909 161.665432 
L 167.4 157.133912 
L 172.309091 159.232179 
L 177.218182 159.1456 
L 182.127273 158.32841 
L 187.036364 156.015353 
L 191.945455 153.5432 
L 196.854545 159.005917 
L 201.763636 157.775323 
L 206.672727 151.983166 
L 211.581818 155.366678 
L 216.490909 155.377296 
L 221.4 156.562552 
L 226.309091 157.878172 
L 231.218182 155.978502 
L 236.127273 155.997181 
L 241.036364 154.344194 
L 245.945455 166.916368 
L 250.854545 160.409409 
L 255.763636 150.204722 
L 260.672727 155.84846 
L 265.581818 155.17518 
L 270.490909 153.475079 
L 275.4 154.226112 
L 280.309091 156.322999 
L 285.218182 154.744655 
L 290.127273 155.706594 
L 295.036364 152.685747 
L 299.945455 149.638263 
L 304.854545 154.980176 
L 309.763636 154.271026 
L 314.672727 147.74167 
L 319.581818 150.186163 
L 324.490909 156.337815 
L 329.4 153.944469 
L 334.309091 149.813704 
L 339.218182 155.079577 
L 344.127273 152.018596 
L 349.036364 156.161533 
L 353.945455 150.031874 
L 358.854545 151.889296 
L 363.763636 151.705397 
L 368.672727 150.342437 
L 373.581818 155.173639 
" clip-path="url(#p48cadd94bf)" style="fill: none; stroke: #ff7f0e; stroke-width: 1.5; stroke-linecap: square"/>
   </g>
   <g id="line2d_58">
    <path d="M 69.218182 204.174101 
L 74.127273 195.033145 
L 79.036364 190.191082 
L 83.945455 182.416198 
L 88.854545 179.589115 
L 93.763636 174.488865 
L 98.672727 172.208974 
L 103.581818 168.622973 
L 108.490909 170.943925 
L 113.4 164.132861 
L 118.309091 168.378 
L 123.218182 162.433093 
L 128.127273 165.233937 
L 133.036364 167.717128 
L 137.945455 162.564867 
L 142.854545 159.867204 
L 147.763636 165.965831 
L 152.672727 160.025943 
L 157.581818 163.845897 
L 162.490909 161.465909 
L 167.4 156.959702 
L 172.309091 160.250254 
L 177.218182 160.233755 
L 182.127273 158.96703 
L 187.036364 156.317054 
L 191.945455 153.572257 
L 196.854545 159.614957 
L 201.763636 157.684253 
L 206.672727 152.688754 
L 211.581818 155.865221 
L 216.490909 156.200676 
L 221.4 156.469463 
L 226.309091 157.730747 
L 231.218182 160.817638 
L 236.127273 161.307622 
L 241.036364 159.492354 
L 245.945455 154.413005 
L 250.854545 160.266622 
L 255.763636 150.254993 
L 260.672727 155.062997 
L 265.581818 154.693937 
L 270.490909 153.191602 
L 275.4 153.572325 
L 280.309091 155.976918 
L 285.218182 153.686192 
L 290.127273 154.879358 
L 295.036364 151.957418 
L 299.945455 148.932488 
L 304.854545 155.107129 
L 309.763636 153.366981 
L 314.672727 147.082034 
L 319.581818 149.892069 
L 324.490909 155.642463 
L 329.4 153.949021 
L 334.309091 148.586529 
L 339.218182 154.446528 
L 344.127273 157.494622 
L 349.036364 156.19295 
L 353.945455 149.769018 
L 358.854545 151.786257 
L 363.763636 151.406302 
L 368.672727 150.338666 
L 373.581818 150.654985 
" clip-path="url(#p48cadd94bf)" style="fill: none; stroke: #2ca02c; stroke-width: 1.5; stroke-linecap: square"/>
   </g>
   <g id="line2d_59">
    <path d="M 69.218182 139.071038 
L 74.127273 123.105968 
L 79.036364 112.646917 
L 83.945455 113.238105 
L 88.854545 104.161936 
L 93.763636 100.044559 
L 98.672727 97.857576 
L 103.581818 97.544512 
L 108.490909 92.163987 
L 113.4 88.627019 
L 118.309091 89.92134 
L 123.218182 89.770923 
L 128.127273 80.041256 
L 133.036364 85.446514 
L 137.945455 82.173691 
L 142.854545 82.685141 
L 147.763636 82.544219 
L 152.672727 81.386684 
L 157.581818 78.159467 
L 162.490909 82.964257 
L 167.4 78.872361 
L 172.309091 78.494851 
L 177.218182 76.128563 
L 182.127273 75.115302 
L 187.036364 78.71476 
L 191.945455 73.396626 
L 196.854545 75.83817 
L 201.763636 75.305553 
L 206.672727 73.142024 
L 211.581818 72.595513 
L 216.490909 71.890463 
L 221.4 74.565677 
L 226.309091 77.922088 
L 231.218182 70.870609 
L 236.127273 68.04875 
L 241.036364 68.533795 
L 245.945455 70.186532 
L 250.854545 58.286338 
L 255.763636 69.603572 
L 260.672727 67.844904 
L 265.581818 69.077795 
L 270.490909 65.89182 
L 275.4 62.981987 
L 280.309091 62.794708 
L 285.218182 67.565932 
L 290.127273 63.644772 
L 295.036364 63.077454 
L 299.945455 63.606545 
L 304.854545 66.173665 
L 309.763636 67.432975 
L 314.672727 64.31783 
L 319.581818 61.999076 
L 324.490909 65.241735 
L 329.4 66.140672 
L 334.309091 62.520973 
L 339.218182 62.612739 
L 344.127273 50.842213 
L 349.036364 64.985752 
L 353.945455 60.488502 
L 358.854545 62.685825 
L 363.763636 59.423924 
L 368.672727 58.162296 
L 373.581818 58.101149 
" clip-path="url(#p48cadd94bf)" style="fill: none; stroke: #d62728; stroke-width: 1.5; stroke-linecap: square"/>
   </g>
   <g id="patch_3">
    <path d="M 54 252 
L 54 34.56 
" style="fill: none; stroke: #000000; stroke-width: 0.8; stroke-linejoin: miter; stroke-linecap: square"/>
   </g>
   <g id="patch_4">
    <path d="M 388.8 252 
L 388.8 34.56 
" style="fill: none; stroke: #000000; stroke-width: 0.8; stroke-linejoin: miter; stroke-linecap: square"/>
   </g>
   <g id="patch_5">
    <path d="M 54 252 
L 388.8 252 
" style="fill: none; stroke: #000000; stroke-width: 0.8; stroke-linejoin: miter; stroke-linecap: square"/>
   </g>
   <g id="patch_6">
    <path d="M 54 34.56 
L 388.8 34.56 
" style="fill: none; stroke: #000000; stroke-width: 0.8; stroke-linejoin: miter; stroke-linecap: square"/>
   </g>
   <g id="text_21">
    <!-- Median NEPS vs. Program Size (10 f.c., nicolau_b) -->
    <g transform="translate(72.899063 28.56)scale(0.12 -0.12)">
     <defs>
      <path id="DejaVuSans-76" d="M 191 3500 
L 800 3500 
L 1894 563 
L 2988 3500 
L 3597 3500 
L 2284 0 
L 1503 0 
L 191 3500 
z
" transform="scale(0.015625)"/>
      <path id="DejaVuSans-2e" d="M 684 794 
L 1344 794 
L 1344 0 
L 684 0 
L 684 794 
z
" transform="scale(0.015625)"/>
      <path id="DejaVuSans-28" d="M 1984 4856 
Q 1566 4138 1362 3434 
Q 1159 2731 1159 2009 
Q 1159 1288 1364 580 
Q 1569 -128 1984 -844 
L 1484 -844 
Q 1016 -109 783 600 
Q 550 1309 550 2009 
Q 550 2706 781 3412 
Q 1013 4119 1484 4856 
L 1984 4856 
z
" transform="scale(0.015625)"/>
      <path id="DejaVuSans-66" d="M 2375 4863 
L 2375 4384 
L 1825 4384 
Q 1516 4384 1395 4259 
Q 1275 4134 1275 3809 
L 1275 3500 
L 2222 3500 
L 2222 3053 
L 1275 3053 
L 1275 0 
L 697 0 
L 697 3053 
L 147 3053 
L 147 3500 
L 697 3500 
L 697 3744 
Q 697 4328 969 4595 
Q 1241 4863 1831 4863 
L 2375 4863 
z
" transform="scale(0.015625)"/>
      <path id="DejaVuSans-63" d="M 3122 3366 
L 3122 2828 
Q 2878 2963 2633 3030 
Q 2388 3097 2138 3097 
Q 1578 3097 1268 2742 
Q 959 2388 959 1747 
Q 959 1106 1268 751 
Q 1578 397 2138 397 
Q 2388 397 2633 464 
Q 2878 531 3122 666 
L 3122 134 
Q 2881 22 2623 -34 
Q 2366 -91 2075 -91 
Q 1284 -91 818 406 
Q 353 903 353 1747 
Q 353 2603 823 3093 
Q 1294 3584 2113 3584 
Q 2378 3584 2631 3529 
Q 2884 3475 3122 3366 
z
" transform="scale(0.015625)"/>
      <path id="DejaVuSans-2c" d="M 750 794 
L 1409 794 
L 1409 256 
L 897 -744 
L 494 -744 
L 750 256 
L 750 794 
z
" transform="scale(0.015625)"/>
      <path id="DejaVuSans-6c" d="M 603 4863 
L 1178 4863 
L 1178 0 
L 603 0 
L 603 4863 
z
" transform="scale(0.015625)"/>
      <path id="DejaVuSans-75" d="M 544 1381 
L 544 3500 
L 1119 3500 
L 1119 1403 
Q 1119 906 1312 657 
Q 1506 409 1894 409 
Q 2359 409 2629 706 
Q 2900 1003 2900 1516 
L 2900 3500 
L 3475 3500 
L 3475 0 
L 2900 0 
L 2900 538 
Q 2691 219 2414 64 
Q 2138 -91 1772 -91 
Q 1169 -91 856 284 
Q 544 659 544 1381 
z
M 1991 3584 
L 1991 3584 
z
" transform="scale(0.015625)"/>
      <path id="DejaVuSans-5f" d="M 3263 -1063 
L 3263 -1509 
L -63 -1509 
L -63 -1063 
L 3263 -1063 
z
" transform="scale(0.015625)"/>
      <path id="DejaVuSans-62" d="M 3116 1747 
Q 3116 2381 2855 2742 
Q 2594 3103 2138 3103 
Q 1681 3103 1420 2742 
Q 1159 2381 1159 1747 
Q 1159 1113 1420 752 
Q 1681 391 2138 391 
Q 2594 391 2855 752 
Q 3116 1113 3116 1747 
z
M 1159 2969 
Q 1341 3281 1617 3432 
Q 1894 3584 2278 3584 
Q 2916 3584 3314 3078 
Q 3713 2572 3713 1747 
Q 3713 922 3314 415 
Q 2916 -91 2278 -91 
Q 1894 -91 1617 61 
Q 1341 213 1159 525 
L 1159 0 
L 581 0 
L 581 4863 
L 1159 4863 
L 1159 2969 
z
" transform="scale(0.015625)"/>
      <path id="DejaVuSans-29" d="M 513 4856 
L 1013 4856 
Q 1481 4119 1714 3412 
Q 1947 2706 1947 2009 
Q 1947 1309 1714 600 
Q 1481 -109 1013 -844 
L 513 -844 
Q 928 -128 1133 580 
Q 1338 1288 1338 2009 
Q 1338 2731 1133 3434 
Q 928 4138 513 4856 
z
" transform="scale(0.015625)"/>
     </defs>
     <use xlink:href="#DejaVuSans-4d"/>
     <use xlink:href="#DejaVuSans-65" x="86.279297"/>
     <use xlink:href="#DejaVuSans-64" x="147.802734"/>
     <use xlink:href="#DejaVuSans-69" x="211.279297"/>
     <use xlink:href="#DejaVuSans-61" x="239.0625"/>
     <use xlink:href="#DejaVuSans-6e" x="300.341797"/>
     <use xlink:href="#DejaVuSans-20" x="363.720703"/>
     <use xlink:href="#DejaVuSans-4e" x="395.507812"/>
     <use xlink:href="#DejaVuSans-45" x="470.3125"/>
     <use xlink:href="#DejaVuSans-50" x="533.496094"/>
     <use xlink:href="#DejaVuSans-53" x="593.798828"/>
     <use xlink:href="#DejaVuSans-20" x="657.275391"/>
     <use xlink:href="#DejaVuSans-76" x="689.0625"/>
     <use xlink:href="#DejaVuSans-73" x="748.242188"/>
     <use xlink:href="#DejaVuSans-2e" x="800.341797"/>
     <use xlink:href="#DejaVuSans-20" x="832.128906"/>
     <use xlink:href="#DejaVuSans-50" x="863.916016"/>
     <use xlink:href="#DejaVuSans-72" x="922.46875"/>
     <use xlink:href="#DejaVuSans-6f" x="961.332031"/>
     <use xlink:href="#DejaVuSans-67" x="1022.513672"/>
     <use xlink:href="#DejaVuSans-72" x="1085.990234"/>
     <use xlink:href="#DejaVuSans-61" x="1127.103516"/>
     <use xlink:href="#DejaVuSans-6d" x="1188.382812"/>
     <use xlink:href="#DejaVuSans-20" x="1285.794922"/>
     <use xlink:href="#DejaVuSans-53" x="1317.582031"/>
     <use xlink:href="#DejaVuSans-69" x="1381.058594"/>
     <use xlink:href="#DejaVuSans-7a" x="1408.841797"/>
     <use xlink:href="#DejaVuSans-65" x="1461.332031"/>
     <use xlink:href="#DejaVuSans-20" x="1522.855469"/>
     <use xlink:href="#DejaVuSans-28" x="1554.642578"/>
     <use xlink:href="#DejaVuSans-31" x="1593.65625"/>
     <use xlink:href="#DejaVuSans-30" x="1657.279297"/>
     <use xlink:href="#DejaVuSans-20" x="1720.902344"/>
     <use xlink:href="#DejaVuSans-66" x="1752.689453"/>
     <use xlink:href="#DejaVuSans-2e" x="1780.644531"/>
     <use xlink:href="#DejaVuSans-63" x="1812.431641"/>
     <use xlink:href="#DejaVuSans-2e" x="1867.412109"/>
     <use xlink:href="#DejaVuSans-2c" x="1899.199219"/>
     <use xlink:href="#DejaVuSans-20" x="1930.986328"/>
     <use xlink:href="#DejaVuSans-6e" x="1962.773438"/>
     <use xlink:href="#DejaVuSans-69" x="2026.152344"/>
     <use xlink:href="#DejaVuSans-63" x="2053.935547"/>
     <use xlink:href="#DejaVuSans-6f" x="2108.916016"/>
     <use xlink:href="#DejaVuSans-6c" x="2170.097656"/>
     <use xlink:href="#DejaVuSans-61" x="2197.880859"/>
     <use xlink:href="#DejaVuSans-75" x="2259.160156"/>
     <use xlink:href="#DejaVuSans-5f" x="2322.539062"/>
     <use xlink:href="#DejaVuSans-62" x="2372.539062"/>
     <use xlink:href="#DejaVuSans-29" x="2436.015625"/>
    </g>
   </g>
   <g id="legend_1">
    <g id="patch_7">
     <path d="M 61 101.2725 
L 171.19375 101.2725 
Q 173.19375 101.2725 173.19375 99.2725 
L 173.19375 41.56 
Q 173.19375 39.56 171.19375 39.56 
L 61 39.56 
Q 59 39.56 59 41.56 
L 59 99.2725 
Q 59 101.2725 61 101.2725 
z
" style="fill: #ffffff; opacity: 0.8; stroke: #cccccc; stroke-linejoin: miter"/>
    </g>
    <g id="line2d_60">
     <path d="M 63 47.658437 
L 73 47.658437 
L 83 47.658437 
" style="fill: none; stroke: #1f77b4; stroke-width: 1.5; stroke-linecap: square"/>
    </g>
    <g id="text_22">
     <!-- DEAP -->
     <g transform="translate(91 51.158437)scale(0.1 -0.1)">
      <defs>
       <path id="DejaVuSans-44" d="M 1259 4147 
L 1259 519 
L 2022 519 
Q 2988 519 3436 956 
Q 3884 1394 3884 2338 
Q 3884 3275 3436 3711 
Q 2988 4147 2022 4147 
L 1259 4147 
z
M 628 4666 
L 1925 4666 
Q 3281 4666 3915 4102 
Q 4550 3538 4550 2338 
Q 4550 1131 3912 565 
Q 3275 0 1925 0 
L 628 0 
L 628 4666 
z
" transform="scale(0.015625)"/>
       <path id="DejaVuSans-41" d="M 2188 4044 
L 1331 1722 
L 3047 1722 
L 2188 4044 
z
M 1831 4666 
L 2547 4666 
L 4325 0 
L 3669 0 
L 3244 1197 
L 1141 1197 
L 716 0 
L 50 0 
L 1831 4666 
z
" transform="scale(0.015625)"/>
      </defs>
      <use xlink:href="#DejaVuSans-44"/>
      <use xlink:href="#DejaVuSans-45" x="77.001953"/>
      <use xlink:href="#DejaVuSans-41" x="140.185547"/>
      <use xlink:href="#DejaVuSans-50" x="208.59375"/>
     </g>
    </g>
    <g id="line2d_61">
     <path d="M 63 62.336562 
L 73 62.336562 
L 83 62.336562 
" style="fill: none; stroke: #ff7f0e; stroke-width: 1.5; stroke-linecap: square"/>
    </g>
    <g id="text_23">
     <!-- TensorGP (CPU) -->
     <g transform="translate(91 65.836562)scale(0.1 -0.1)">
      <defs>
       <path id="DejaVuSans-54" d="M -19 4666 
L 3928 4666 
L 3928 4134 
L 2272 4134 
L 2272 0 
L 1638 0 
L 1638 4134 
L -19 4134 
L -19 4666 
z
" transform="scale(0.015625)"/>
       <path id="DejaVuSans-47" d="M 3809 666 
L 3809 1919 
L 2778 1919 
L 2778 2438 
L 4434 2438 
L 4434 434 
Q 4069 175 3628 42 
Q 3188 -91 2688 -91 
Q 1594 -91 976 548 
Q 359 1188 359 2328 
Q 359 3472 976 4111 
Q 1594 4750 2688 4750 
Q 3144 4750 3555 4637 
Q 3966 4525 4313 4306 
L 4313 3634 
Q 3963 3931 3569 4081 
Q 3175 4231 2741 4231 
Q 1884 4231 1454 3753 
Q 1025 3275 1025 2328 
Q 1025 1384 1454 906 
Q 1884 428 2741 428 
Q 3075 428 3337 486 
Q 3600 544 3809 666 
z
" transform="scale(0.015625)"/>
       <path id="DejaVuSans-43" d="M 4122 4306 
L 4122 3641 
Q 3803 3938 3442 4084 
Q 3081 4231 2675 4231 
Q 1875 4231 1450 3742 
Q 1025 3253 1025 2328 
Q 1025 1406 1450 917 
Q 1875 428 2675 428 
Q 3081 428 3442 575 
Q 3803 722 4122 1019 
L 4122 359 
Q 3791 134 3420 21 
Q 3050 -91 2638 -91 
Q 1578 -91 968 557 
Q 359 1206 359 2328 
Q 359 3453 968 4101 
Q 1578 4750 2638 4750 
Q 3056 4750 3426 4639 
Q 3797 4528 4122 4306 
z
" transform="scale(0.015625)"/>
       <path id="DejaVuSans-55" d="M 556 4666 
L 1191 4666 
L 1191 1831 
Q 1191 1081 1462 751 
Q 1734 422 2344 422 
Q 2950 422 3222 751 
Q 3494 1081 3494 1831 
L 3494 4666 
L 4128 4666 
L 4128 1753 
Q 4128 841 3676 375 
Q 3225 -91 2344 -91 
Q 1459 -91 1007 375 
Q 556 841 556 1753 
L 556 4666 
z
" transform="scale(0.015625)"/>
      </defs>
      <use xlink:href="#DejaVuSans-54"/>
      <use xlink:href="#DejaVuSans-65" x="44.083984"/>
      <use xlink:href="#DejaVuSans-6e" x="105.607422"/>
      <use xlink:href="#DejaVuSans-73" x="168.986328"/>
      <use xlink:href="#DejaVuSans-6f" x="221.085938"/>
      <use xlink:href="#DejaVuSans-72" x="282.267578"/>
      <use xlink:href="#DejaVuSans-47" x="323.380859"/>
      <use xlink:href="#DejaVuSans-50" x="400.871094"/>
      <use xlink:href="#DejaVuSans-20" x="461.173828"/>
      <use xlink:href="#DejaVuSans-28" x="492.960938"/>
      <use xlink:href="#DejaVuSans-43" x="531.974609"/>
      <use xlink:href="#DejaVuSans-50" x="601.798828"/>
      <use xlink:href="#DejaVuSans-55" x="662.101562"/>
      <use xlink:href="#DejaVuSans-29" x="735.294922"/>
     </g>
    </g>
    <g id="line2d_62">
     <path d="M 63 77.014687 
L 73 77.014687 
L 83 77.014687 
" style="fill: none; stroke: #2ca02c; stroke-width: 1.5; stroke-linecap: square"/>
    </g>
    <g id="text_24">
     <!-- TensorGP (GPU) -->
     <g transform="translate(91 80.514687)scale(0.1 -0.1)">
      <use xlink:href="#DejaVuSans-54"/>
      <use xlink:href="#DejaVuSans-65" x="44.083984"/>
      <use xlink:href="#DejaVuSans-6e" x="105.607422"/>
      <use xlink:href="#DejaVuSans-73" x="168.986328"/>
      <use xlink:href="#DejaVuSans-6f" x="221.085938"/>
      <use xlink:href="#DejaVuSans-72" x="282.267578"/>
      <use xlink:href="#DejaVuSans-47" x="323.380859"/>
      <use xlink:href="#DejaVuSans-50" x="400.871094"/>
      <use xlink:href="#DejaVuSans-20" x="461.173828"/>
      <use xlink:href="#DejaVuSans-28" x="492.960938"/>
      <use xlink:href="#DejaVuSans-47" x="531.974609"/>
      <use xlink:href="#DejaVuSans-50" x="609.464844"/>
      <use xlink:href="#DejaVuSans-55" x="669.767578"/>
      <use xlink:href="#DejaVuSans-29" x="742.960938"/>
     </g>
    </g>
    <g id="line2d_63">
     <path d="M 63 91.692813 
L 73 91.692813 
L 83 91.692813 
" style="fill: none; stroke: #d62728; stroke-width: 1.5; stroke-linecap: square"/>
    </g>
    <g id="text_25">
     <!-- Operon -->
     <g transform="translate(91 95.192813)scale(0.1 -0.1)">
      <defs>
       <path id="DejaVuSans-4f" d="M 2522 4238 
Q 1834 4238 1429 3725 
Q 1025 3213 1025 2328 
Q 1025 1447 1429 934 
Q 1834 422 2522 422 
Q 3209 422 3611 934 
Q 4013 1447 4013 2328 
Q 4013 3213 3611 3725 
Q 3209 4238 2522 4238 
z
M 2522 4750 
Q 3503 4750 4090 4092 
Q 4678 3434 4678 2328 
Q 4678 1225 4090 567 
Q 3503 -91 2522 -91 
Q 1538 -91 948 565 
Q 359 1222 359 2328 
Q 359 3434 948 4092 
Q 1538 4750 2522 4750 
z
" transform="scale(0.015625)"/>
       <path id="DejaVuSans-70" d="M 1159 525 
L 1159 -1331 
L 581 -1331 
L 581 3500 
L 1159 3500 
L 1159 2969 
Q 1341 3281 1617 3432 
Q 1894 3584 2278 3584 
Q 2916 3584 3314 3078 
Q 3713 2572 3713 1747 
Q 3713 922 3314 415 
Q 2916 -91 2278 -91 
Q 1894 -91 1617 61 
Q 1341 213 1159 525 
z
M 3116 1747 
Q 3116 2381 2855 2742 
Q 2594 3103 2138 3103 
Q 1681 3103 1420 2742 
Q 1159 2381 1159 1747 
Q 1159 1113 1420 752 
Q 1681 391 2138 391 
Q 2594 391 2855 752 
Q 3116 1113 3116 1747 
z
" transform="scale(0.015625)"/>
      </defs>
      <use xlink:href="#DejaVuSans-4f"/>
      <use xlink:href="#DejaVuSans-70" x="78.710938"/>
      <use xlink:href="#DejaVuSans-65" x="142.1875"/>
      <use xlink:href="#DejaVuSans-72" x="203.710938"/>
      <use xlink:href="#DejaVuSans-6f" x="242.574219"/>
      <use xlink:href="#DejaVuSans-6e" x="303.755859"/>
     </g>
    </g>
   </g>
  </g>
 </g>
 <defs>
  <clipPath id="p48cadd94bf">
   <rect x="54" y="34.56" width="334.8" height="217.44"/>
  </clipPath>
 </defs>
</svg>
