<?xml version="1.0" encoding="utf-8" standalone="no"?>
<!DOCTYPE svg PUBLIC "-//W3C//DTD SVG 1.1//EN"
  "http://www.w3.org/Graphics/SVG/1.1/DTD/svg11.dtd">
<svg xmlns:xlink="http://www.w3.org/1999/xlink" width="432pt" height="288pt" viewBox="0 0 432 288" xmlns="http://www.w3.org/2000/svg" version="1.1">
 <metadata>
  <rdf:RDF xmlns:dc="http://purl.org/dc/elements/1.1/" xmlns:cc="http://creativecommons.org/ns#" xmlns:rdf="http://www.w3.org/1999/02/22-rdf-syntax-ns#">
   <cc:Work>
    <dc:type rdf:resource="http://purl.org/dc/dcmitype/StillImage"/>
    <dc:date>2022-01-12T01:39:48.178397</dc:date>
    <dc:format>image/svg+xml</dc:format>
    <dc:creator>
     <cc:Agent>
      <dc:title>Matplotlib v3.5.1, https://matplotlib.org/</dc:title>
     </cc:Agent>
    </dc:creator>
   </cc:Work>
  </rdf:RDF>
 </metadata>
 <defs>
  <style type="text/css">*{stroke-linejoin: round; stroke-linecap: butt}</style>
 </defs>
 <g id="figure_1">
  <g id="patch_1">
   <path d="M 0 288 
L 432 288 
L 432 0 
L 0 0 
L 0 288 
z
" style="fill: none"/>
  </g>
  <g id="axes_1">
   <g id="patch_2">
    <path d="M 54 252 
L 388.8 252 
L 388.8 34.56 
L 54 34.56 
z
" style="fill: #ffffff"/>
   </g>
   <g id="patch_3">
    <path d="M 69.218182 252 
L 73.095426 252 
L 73.095426 252 
L 69.218182 252 
z
" clip-path="url(#p65924dc3bc)" style="fill: #1f77b4"/>
   </g>
   <g id="patch_4">
    <path d="M 74.064737 252 
L 77.94198 252 
L 77.94198 148.457143 
L 74.064737 148.457143 
z
" clip-path="url(#p65924dc3bc)" style="fill: #1f77b4"/>
   </g>
   <g id="patch_5">
    <path d="M 78.911291 252 
L 82.788535 252 
L 82.788535 182.971429 
L 78.911291 182.971429 
z
" clip-path="url(#p65924dc3bc)" style="fill: #1f77b4"/>
   </g>
   <g id="patch_6">
    <path d="M 83.757846 252 
L 87.63509 252 
L 87.63509 96.685714 
L 83.757846 96.685714 
z
" clip-path="url(#p65924dc3bc)" style="fill: #1f77b4"/>
   </g>
   <g id="patch_7">
    <path d="M 88.604401 252 
L 92.481644 252 
L 92.481644 127.748571 
L 88.604401 127.748571 
z
" clip-path="url(#p65924dc3bc)" style="fill: #1f77b4"/>
   </g>
   <g id="patch_8">
    <path d="M 93.450955 252 
L 97.328199 252 
L 97.328199 113.942857 
L 93.450955 113.942857 
z
" clip-path="url(#p65924dc3bc)" style="fill: #1f77b4"/>
   </g>
   <g id="patch_9">
    <path d="M 98.29751 252 
L 102.174754 252 
L 102.174754 133.665306 
L 98.29751 133.665306 
z
" clip-path="url(#p65924dc3bc)" style="fill: #1f77b4"/>
   </g>
   <g id="patch_10">
    <path d="M 103.144065 252 
L 107.021309 252 
L 107.021309 122.571429 
L 103.144065 122.571429 
z
" clip-path="url(#p65924dc3bc)" style="fill: #1f77b4"/>
   </g>
   <g id="patch_11">
    <path d="M 107.99062 252 
L 111.867863 252 
L 111.867863 136.952381 
L 107.99062 136.952381 
z
" clip-path="url(#p65924dc3bc)" style="fill: #1f77b4"/>
   </g>
   <g id="patch_12">
    <path d="M 112.837174 252 
L 116.714418 252 
L 116.714418 107.04 
L 112.837174 107.04 
z
" clip-path="url(#p65924dc3bc)" style="fill: #1f77b4"/>
   </g>
   <g id="patch_13">
    <path d="M 117.683729 252 
L 121.560973 252 
L 121.560973 120.218182 
L 117.683729 120.218182 
z
" clip-path="url(#p65924dc3bc)" style="fill: #1f77b4"/>
   </g>
   <g id="patch_14">
    <path d="M 122.530284 252 
L 126.407528 252 
L 126.407528 131.2 
L 122.530284 131.2 
z
" clip-path="url(#p65924dc3bc)" style="fill: #1f77b4"/>
   </g>
   <g id="patch_15">
    <path d="M 127.376838 252 
L 131.254082 252 
L 131.254082 140.492308 
L 127.376838 140.492308 
z
" clip-path="url(#p65924dc3bc)" style="fill: #1f77b4"/>
   </g>
   <g id="patch_16">
    <path d="M 132.223393 252 
L 136.100637 252 
L 136.100637 148.457143 
L 132.223393 148.457143 
z
" clip-path="url(#p65924dc3bc)" style="fill: #1f77b4"/>
   </g>
   <g id="patch_17">
    <path d="M 137.069948 252 
L 140.947192 252 
L 140.947192 141.554286 
L 137.069948 141.554286 
z
" clip-path="url(#p65924dc3bc)" style="fill: #1f77b4"/>
   </g>
   <g id="patch_18">
    <path d="M 141.916503 252 
L 145.793746 252 
L 145.793746 135.514286 
L 141.916503 135.514286 
z
" clip-path="url(#p65924dc3bc)" style="fill: #1f77b4"/>
   </g>
   <g id="patch_19">
    <path d="M 146.763057 252 
L 150.640301 252 
L 150.640301 130.184874 
L 146.763057 130.184874 
z
" clip-path="url(#p65924dc3bc)" style="fill: #1f77b4"/>
   </g>
   <g id="patch_20">
    <path d="M 151.609612 252 
L 155.486856 252 
L 155.486856 136.952381 
L 151.609612 136.952381 
z
" clip-path="url(#p65924dc3bc)" style="fill: #1f77b4"/>
   </g>
   <g id="patch_21">
    <path d="M 156.456167 252 
L 160.333411 252 
L 160.333411 143.007519 
L 156.456167 143.007519 
z
" clip-path="url(#p65924dc3bc)" style="fill: #1f77b4"/>
   </g>
   <g id="patch_22">
    <path d="M 161.302721 252 
L 165.179965 252 
L 165.179965 127.748571 
L 161.302721 127.748571 
z
" clip-path="url(#p65924dc3bc)" style="fill: #1f77b4"/>
   </g>
   <g id="patch_23">
    <path d="M 166.149276 252 
L 170.02652 252 
L 170.02652 133.665306 
L 166.149276 133.665306 
z
" clip-path="url(#p65924dc3bc)" style="fill: #1f77b4"/>
   </g>
   <g id="patch_24">
    <path d="M 170.995831 252 
L 174.873075 252 
L 174.873075 129.631169 
L 170.995831 129.631169 
z
" clip-path="url(#p65924dc3bc)" style="fill: #1f77b4"/>
   </g>
   <g id="patch_25">
    <path d="M 175.842386 252 
L 179.719629 252 
L 179.719629 134.951553 
L 175.842386 134.951553 
z
" clip-path="url(#p65924dc3bc)" style="fill: #1f77b4"/>
   </g>
   <g id="patch_26">
    <path d="M 180.68894 252 
L 184.566184 252 
L 184.566184 131.2 
L 180.68894 131.2 
z
" clip-path="url(#p65924dc3bc)" style="fill: #1f77b4"/>
   </g>
   <g id="patch_27">
    <path d="M 185.535495 252 
L 189.412739 252 
L 189.412739 136.032 
L 185.535495 136.032 
z
" clip-path="url(#p65924dc3bc)" style="fill: #1f77b4"/>
   </g>
   <g id="patch_28">
    <path d="M 190.38205 252 
L 194.259294 252 
L 194.259294 140.492308 
L 190.38205 140.492308 
z
" clip-path="url(#p65924dc3bc)" style="fill: #1f77b4"/>
   </g>
   <g id="patch_29">
    <path d="M 195.228605 252 
L 199.105848 252 
L 199.105848 136.952381 
L 195.228605 136.952381 
z
" clip-path="url(#p65924dc3bc)" style="fill: #1f77b4"/>
   </g>
   <g id="patch_30">
    <path d="M 200.075159 252 
L 203.952403 252 
L 203.952403 141.061224 
L 200.075159 141.061224 
z
" clip-path="url(#p65924dc3bc)" style="fill: #1f77b4"/>
   </g>
   <g id="patch_31">
    <path d="M 204.921714 252 
L 208.798958 252 
L 208.798958 137.745813 
L 204.921714 137.745813 
z
" clip-path="url(#p65924dc3bc)" style="fill: #1f77b4"/>
   </g>
   <g id="patch_32">
    <path d="M 209.768269 252 
L 213.645512 252 
L 213.645512 134.651429 
L 209.768269 134.651429 
z
" clip-path="url(#p65924dc3bc)" style="fill: #1f77b4"/>
   </g>
   <g id="patch_33">
    <path d="M 214.614823 252 
L 218.492067 252 
L 218.492067 145.117051 
L 214.614823 145.117051 
z
" clip-path="url(#p65924dc3bc)" style="fill: #1f77b4"/>
   </g>
   <g id="patch_34">
    <path d="M 219.461378 252 
L 223.338622 252 
L 223.338622 135.514286 
L 219.461378 135.514286 
z
" clip-path="url(#p65924dc3bc)" style="fill: #1f77b4"/>
   </g>
   <g id="patch_35">
    <path d="M 224.307933 252 
L 228.185177 252 
L 228.185177 132.768831 
L 224.307933 132.768831 
z
" clip-path="url(#p65924dc3bc)" style="fill: #1f77b4"/>
   </g>
   <g id="patch_36">
    <path d="M 229.154488 252 
L 233.031731 252 
L 233.031731 142.366387 
L 229.154488 142.366387 
z
" clip-path="url(#p65924dc3bc)" style="fill: #1f77b4"/>
   </g>
   <g id="patch_37">
    <path d="M 234.001042 252 
L 237.878286 252 
L 237.878286 133.665306 
L 234.001042 133.665306 
z
" clip-path="url(#p65924dc3bc)" style="fill: #1f77b4"/>
   </g>
   <g id="patch_38">
    <path d="M 238.847597 252 
L 242.724841 252 
L 242.724841 136.952381 
L 238.847597 136.952381 
z
" clip-path="url(#p65924dc3bc)" style="fill: #1f77b4"/>
   </g>
   <g id="patch_39">
    <path d="M 243.694152 252 
L 247.571395 252 
L 247.571395 140.061776 
L 243.694152 140.061776 
z
" clip-path="url(#p65924dc3bc)" style="fill: #1f77b4"/>
   </g>
   <g id="patch_40">
    <path d="M 248.540706 252 
L 252.41795 252 
L 252.41795 132.108271 
L 248.540706 132.108271 
z
" clip-path="url(#p65924dc3bc)" style="fill: #1f77b4"/>
   </g>
   <g id="patch_41">
    <path d="M 253.387261 252 
L 257.264505 252 
L 257.264505 129.872527 
L 253.387261 129.872527 
z
" clip-path="url(#p65924dc3bc)" style="fill: #1f77b4"/>
   </g>
   <g id="patch_42">
    <path d="M 258.233816 252 
L 262.11106 252 
L 262.11106 143.28 
L 258.233816 143.28 
z
" clip-path="url(#p65924dc3bc)" style="fill: #1f77b4"/>
   </g>
   <g id="patch_43">
    <path d="M 263.080371 252 
L 266.957614 252 
L 266.957614 145.931707 
L 263.080371 145.931707 
z
" clip-path="url(#p65924dc3bc)" style="fill: #1f77b4"/>
   </g>
   <g id="patch_44">
    <path d="M 267.926925 252 
L 271.804169 252 
L 271.804169 138.595918 
L 267.926925 138.595918 
z
" clip-path="url(#p65924dc3bc)" style="fill: #1f77b4"/>
   </g>
   <g id="patch_45">
    <path d="M 272.77348 252 
L 276.650724 252 
L 276.650724 146.049169 
L 272.77348 146.049169 
z
" clip-path="url(#p65924dc3bc)" style="fill: #1f77b4"/>
   </g>
   <g id="patch_46">
    <path d="M 277.620035 252 
L 281.497279 252 
L 281.497279 139.044156 
L 277.620035 139.044156 
z
" clip-path="url(#p65924dc3bc)" style="fill: #1f77b4"/>
   </g>
   <g id="patch_47">
    <path d="M 282.466589 252 
L 286.343833 252 
L 286.343833 132.350476 
L 282.466589 132.350476 
z
" clip-path="url(#p65924dc3bc)" style="fill: #1f77b4"/>
   </g>
   <g id="patch_48">
    <path d="M 287.313144 252 
L 291.190388 252 
L 291.190388 134.951553 
L 287.313144 134.951553 
z
" clip-path="url(#p65924dc3bc)" style="fill: #1f77b4"/>
   </g>
   <g id="patch_49">
    <path d="M 292.159699 252 
L 296.036943 252 
L 296.036943 137.441945 
L 292.159699 137.441945 
z
" clip-path="url(#p65924dc3bc)" style="fill: #1f77b4"/>
   </g>
   <g id="patch_50">
    <path d="M 297.006254 252 
L 300.883497 252 
L 300.883497 139.828571 
L 297.006254 139.828571 
z
" clip-path="url(#p65924dc3bc)" style="fill: #1f77b4"/>
   </g>
   <g id="patch_51">
    <path d="M 301.852808 252 
L 305.730052 252 
L 305.730052 142.117784 
L 301.852808 142.117784 
z
" clip-path="url(#p65924dc3bc)" style="fill: #1f77b4"/>
   </g>
   <g id="patch_52">
    <path d="M 306.699363 252 
L 310.576607 252 
L 310.576607 140.173714 
L 306.699363 140.173714 
z
" clip-path="url(#p65924dc3bc)" style="fill: #1f77b4"/>
   </g>
   <g id="patch_53">
    <path d="M 311.545918 252 
L 315.423162 252 
L 315.423162 142.366387 
L 311.545918 142.366387 
z
" clip-path="url(#p65924dc3bc)" style="fill: #1f77b4"/>
   </g>
   <g id="patch_54">
    <path d="M 316.392472 252 
L 320.269716 252 
L 320.269716 140.492308 
L 316.392472 140.492308 
z
" clip-path="url(#p65924dc3bc)" style="fill: #1f77b4"/>
   </g>
   <g id="patch_55">
    <path d="M 321.239027 252 
L 325.116271 252 
L 325.116271 142.596226 
L 321.239027 142.596226 
z
" clip-path="url(#p65924dc3bc)" style="fill: #1f77b4"/>
   </g>
   <g id="patch_56">
    <path d="M 326.085582 252 
L 329.962826 252 
L 329.962826 140.787302 
L 326.085582 140.787302 
z
" clip-path="url(#p65924dc3bc)" style="fill: #1f77b4"/>
   </g>
   <g id="patch_57">
    <path d="M 330.932137 252 
L 334.80938 252 
L 334.80938 139.044156 
L 330.932137 139.044156 
z
" clip-path="url(#p65924dc3bc)" style="fill: #1f77b4"/>
   </g>
   <g id="patch_58">
    <path d="M 335.778691 252 
L 339.655935 252 
L 339.655935 141.061224 
L 335.778691 141.061224 
z
" clip-path="url(#p65924dc3bc)" style="fill: #1f77b4"/>
   </g>
   <g id="patch_59">
    <path d="M 340.625246 252 
L 344.50249 252 
L 344.50249 143.007519 
L 340.625246 143.007519 
z
" clip-path="url(#p65924dc3bc)" style="fill: #1f77b4"/>
   </g>
   <g id="patch_60">
    <path d="M 345.471801 252 
L 349.349045 252 
L 349.349045 144.8867 
L 345.471801 144.8867 
z
" clip-path="url(#p65924dc3bc)" style="fill: #1f77b4"/>
   </g>
   <g id="patch_61">
    <path d="M 350.318356 252 
L 354.195599 252 
L 354.195599 143.192252 
L 350.318356 143.192252 
z
" clip-path="url(#p65924dc3bc)" style="fill: #1f77b4"/>
   </g>
   <g id="patch_62">
    <path d="M 355.16491 252 
L 359.042154 252 
L 359.042154 145.005714 
L 355.16491 145.005714 
z
" clip-path="url(#p65924dc3bc)" style="fill: #1f77b4"/>
   </g>
   <g id="patch_63">
    <path d="M 360.011465 252 
L 363.888709 252 
L 363.888709 146.759719 
L 360.011465 146.759719 
z
" clip-path="url(#p65924dc3bc)" style="fill: #1f77b4"/>
   </g>
   <g id="patch_64">
    <path d="M 364.85802 252 
L 368.735263 252 
L 368.735263 148.457143 
L 364.85802 148.457143 
z
" clip-path="url(#p65924dc3bc)" style="fill: #1f77b4"/>
   </g>
   <g id="patch_65">
    <path d="M 369.704574 252 
L 373.581818 252 
L 373.581818 150.10068 
L 369.704574 150.10068 
z
" clip-path="url(#p65924dc3bc)" style="fill: #1f77b4"/>
   </g>
   <g id="patch_66">
    <path d="M 69.218182 252 
L 73.095426 252 
L 73.095426 44.914286 
L 69.218182 44.914286 
z
" clip-path="url(#p65924dc3bc)" style="fill: #ff7f0e"/>
   </g>
   <g id="patch_67">
    <path d="M 74.064737 252 
L 77.94198 252 
L 77.94198 148.457143 
L 74.064737 148.457143 
z
" clip-path="url(#p65924dc3bc)" style="fill: #ff7f0e"/>
   </g>
   <g id="patch_68">
    <path d="M 78.911291 252 
L 82.788535 252 
L 82.788535 113.942857 
L 78.911291 113.942857 
z
" clip-path="url(#p65924dc3bc)" style="fill: #ff7f0e"/>
   </g>
   <g id="patch_69">
    <path d="M 83.757846 252 
L 87.63509 252 
L 87.63509 200.228571 
L 83.757846 200.228571 
z
" clip-path="url(#p65924dc3bc)" style="fill: #ff7f0e"/>
   </g>
   <g id="patch_70">
    <path d="M 88.604401 252 
L 92.481644 252 
L 92.481644 169.165714 
L 88.604401 169.165714 
z
" clip-path="url(#p65924dc3bc)" style="fill: #ff7f0e"/>
   </g>
   <g id="patch_71">
    <path d="M 93.450955 252 
L 97.328199 252 
L 97.328199 182.971429 
L 93.450955 182.971429 
z
" clip-path="url(#p65924dc3bc)" style="fill: #ff7f0e"/>
   </g>
   <g id="patch_72">
    <path d="M 98.29751 252 
L 102.174754 252 
L 102.174754 163.24898 
L 98.29751 163.24898 
z
" clip-path="url(#p65924dc3bc)" style="fill: #ff7f0e"/>
   </g>
   <g id="patch_73">
    <path d="M 103.144065 252 
L 107.021309 252 
L 107.021309 174.342857 
L 103.144065 174.342857 
z
" clip-path="url(#p65924dc3bc)" style="fill: #ff7f0e"/>
   </g>
   <g id="patch_74">
    <path d="M 107.99062 252 
L 111.867863 252 
L 111.867863 159.961905 
L 107.99062 159.961905 
z
" clip-path="url(#p65924dc3bc)" style="fill: #ff7f0e"/>
   </g>
   <g id="patch_75">
    <path d="M 112.837174 252 
L 116.714418 252 
L 116.714418 189.874286 
L 112.837174 189.874286 
z
" clip-path="url(#p65924dc3bc)" style="fill: #ff7f0e"/>
   </g>
   <g id="patch_76">
    <path d="M 117.683729 252 
L 121.560973 252 
L 121.560973 176.696104 
L 117.683729 176.696104 
z
" clip-path="url(#p65924dc3bc)" style="fill: #ff7f0e"/>
   </g>
   <g id="patch_77">
    <path d="M 122.530284 252 
L 126.407528 252 
L 126.407528 165.714286 
L 122.530284 165.714286 
z
" clip-path="url(#p65924dc3bc)" style="fill: #ff7f0e"/>
   </g>
   <g id="patch_78">
    <path d="M 127.376838 252 
L 131.254082 252 
L 131.254082 156.421978 
L 127.376838 156.421978 
z
" clip-path="url(#p65924dc3bc)" style="fill: #ff7f0e"/>
   </g>
   <g id="patch_79">
    <path d="M 132.223393 252 
L 136.100637 252 
L 136.100637 148.457143 
L 132.223393 148.457143 
z
" clip-path="url(#p65924dc3bc)" style="fill: #ff7f0e"/>
   </g>
   <g id="patch_80">
    <path d="M 137.069948 252 
L 140.947192 252 
L 140.947192 155.36 
L 137.069948 155.36 
z
" clip-path="url(#p65924dc3bc)" style="fill: #ff7f0e"/>
   </g>
   <g id="patch_81">
    <path d="M 141.916503 252 
L 145.793746 252 
L 145.793746 161.4 
L 141.916503 161.4 
z
" clip-path="url(#p65924dc3bc)" style="fill: #ff7f0e"/>
   </g>
   <g id="patch_82">
    <path d="M 146.763057 252 
L 150.640301 252 
L 150.640301 166.729412 
L 146.763057 166.729412 
z
" clip-path="url(#p65924dc3bc)" style="fill: #ff7f0e"/>
   </g>
   <g id="patch_83">
    <path d="M 151.609612 252 
L 155.486856 252 
L 155.486856 159.961905 
L 151.609612 159.961905 
z
" clip-path="url(#p65924dc3bc)" style="fill: #ff7f0e"/>
   </g>
   <g id="patch_84">
    <path d="M 156.456167 252 
L 160.333411 252 
L 160.333411 153.906767 
L 156.456167 153.906767 
z
" clip-path="url(#p65924dc3bc)" style="fill: #ff7f0e"/>
   </g>
   <g id="patch_85">
    <path d="M 161.302721 252 
L 165.179965 252 
L 165.179965 169.165714 
L 161.302721 169.165714 
z
" clip-path="url(#p65924dc3bc)" style="fill: #ff7f0e"/>
   </g>
   <g id="patch_86">
    <path d="M 166.149276 252 
L 170.02652 252 
L 170.02652 163.24898 
L 166.149276 163.24898 
z
" clip-path="url(#p65924dc3bc)" style="fill: #ff7f0e"/>
   </g>
   <g id="patch_87">
    <path d="M 170.995831 252 
L 174.873075 252 
L 174.873075 167.283117 
L 170.995831 167.283117 
z
" clip-path="url(#p65924dc3bc)" style="fill: #ff7f0e"/>
   </g>
   <g id="patch_88">
    <path d="M 175.842386 252 
L 179.719629 252 
L 179.719629 161.962733 
L 175.842386 161.962733 
z
" clip-path="url(#p65924dc3bc)" style="fill: #ff7f0e"/>
   </g>
   <g id="patch_89">
    <path d="M 180.68894 252 
L 184.566184 252 
L 184.566184 165.714286 
L 180.68894 165.714286 
z
" clip-path="url(#p65924dc3bc)" style="fill: #ff7f0e"/>
   </g>
   <g id="patch_90">
    <path d="M 185.535495 252 
L 189.412739 252 
L 189.412739 160.882286 
L 185.535495 160.882286 
z
" clip-path="url(#p65924dc3bc)" style="fill: #ff7f0e"/>
   </g>
   <g id="patch_91">
    <path d="M 190.38205 252 
L 194.259294 252 
L 194.259294 156.421978 
L 190.38205 156.421978 
z
" clip-path="url(#p65924dc3bc)" style="fill: #ff7f0e"/>
   </g>
   <g id="patch_92">
    <path d="M 195.228605 252 
L 199.105848 252 
L 199.105848 159.961905 
L 195.228605 159.961905 
z
" clip-path="url(#p65924dc3bc)" style="fill: #ff7f0e"/>
   </g>
   <g id="patch_93">
    <path d="M 200.075159 252 
L 203.952403 252 
L 203.952403 155.853061 
L 200.075159 155.853061 
z
" clip-path="url(#p65924dc3bc)" style="fill: #ff7f0e"/>
   </g>
   <g id="patch_94">
    <path d="M 204.921714 252 
L 208.798958 252 
L 208.798958 159.168473 
L 204.921714 159.168473 
z
" clip-path="url(#p65924dc3bc)" style="fill: #ff7f0e"/>
   </g>
   <g id="patch_95">
    <path d="M 209.768269 252 
L 213.645512 252 
L 213.645512 162.262857 
L 209.768269 162.262857 
z
" clip-path="url(#p65924dc3bc)" style="fill: #ff7f0e"/>
   </g>
   <g id="patch_96">
    <path d="M 214.614823 252 
L 218.492067 252 
L 218.492067 151.797235 
L 214.614823 151.797235 
z
" clip-path="url(#p65924dc3bc)" style="fill: #ff7f0e"/>
   </g>
   <g id="patch_97">
    <path d="M 219.461378 252 
L 223.338622 252 
L 223.338622 161.4 
L 219.461378 161.4 
z
" clip-path="url(#p65924dc3bc)" style="fill: #ff7f0e"/>
   </g>
   <g id="patch_98">
    <path d="M 224.307933 252 
L 228.185177 252 
L 228.185177 164.145455 
L 224.307933 164.145455 
z
" clip-path="url(#p65924dc3bc)" style="fill: #ff7f0e"/>
   </g>
   <g id="patch_99">
    <path d="M 229.154488 252 
L 233.031731 252 
L 233.031731 154.547899 
L 229.154488 154.547899 
z
" clip-path="url(#p65924dc3bc)" style="fill: #ff7f0e"/>
   </g>
   <g id="patch_100">
    <path d="M 234.001042 252 
L 237.878286 252 
L 237.878286 163.24898 
L 234.001042 163.24898 
z
" clip-path="url(#p65924dc3bc)" style="fill: #ff7f0e"/>
   </g>
   <g id="patch_101">
    <path d="M 238.847597 252 
L 242.724841 252 
L 242.724841 159.961905 
L 238.847597 159.961905 
z
" clip-path="url(#p65924dc3bc)" style="fill: #ff7f0e"/>
   </g>
   <g id="patch_102">
    <path d="M 243.694152 252 
L 247.571395 252 
L 247.571395 156.85251 
L 243.694152 156.85251 
z
" clip-path="url(#p65924dc3bc)" style="fill: #ff7f0e"/>
   </g>
   <g id="patch_103">
    <path d="M 248.540706 252 
L 252.41795 252 
L 252.41795 164.806015 
L 248.540706 164.806015 
z
" clip-path="url(#p65924dc3bc)" style="fill: #ff7f0e"/>
   </g>
   <g id="patch_104">
    <path d="M 253.387261 252 
L 257.264505 252 
L 257.264505 167.041758 
L 253.387261 167.041758 
z
" clip-path="url(#p65924dc3bc)" style="fill: #ff7f0e"/>
   </g>
   <g id="patch_105">
    <path d="M 258.233816 252 
L 262.11106 252 
L 262.11106 153.634286 
L 258.233816 153.634286 
z
" clip-path="url(#p65924dc3bc)" style="fill: #ff7f0e"/>
   </g>
   <g id="patch_106">
    <path d="M 263.080371 252 
L 266.957614 252 
L 266.957614 150.982578 
L 263.080371 150.982578 
z
" clip-path="url(#p65924dc3bc)" style="fill: #ff7f0e"/>
   </g>
   <g id="patch_107">
    <path d="M 267.926925 252 
L 271.804169 252 
L 271.804169 158.318367 
L 267.926925 158.318367 
z
" clip-path="url(#p65924dc3bc)" style="fill: #ff7f0e"/>
   </g>
   <g id="patch_108">
    <path d="M 272.77348 252 
L 276.650724 252 
L 276.650724 150.865116 
L 272.77348 150.865116 
z
" clip-path="url(#p65924dc3bc)" style="fill: #ff7f0e"/>
   </g>
   <g id="patch_109">
    <path d="M 277.620035 252 
L 281.497279 252 
L 281.497279 157.87013 
L 277.620035 157.87013 
z
" clip-path="url(#p65924dc3bc)" style="fill: #ff7f0e"/>
   </g>
   <g id="patch_110">
    <path d="M 282.466589 252 
L 286.343833 252 
L 286.343833 164.56381 
L 282.466589 164.56381 
z
" clip-path="url(#p65924dc3bc)" style="fill: #ff7f0e"/>
   </g>
   <g id="patch_111">
    <path d="M 287.313144 252 
L 291.190388 252 
L 291.190388 161.962733 
L 287.313144 161.962733 
z
" clip-path="url(#p65924dc3bc)" style="fill: #ff7f0e"/>
   </g>
   <g id="patch_112">
    <path d="M 292.159699 252 
L 296.036943 252 
L 296.036943 159.47234 
L 292.159699 159.47234 
z
" clip-path="url(#p65924dc3bc)" style="fill: #ff7f0e"/>
   </g>
   <g id="patch_113">
    <path d="M 297.006254 252 
L 300.883497 252 
L 300.883497 157.085714 
L 297.006254 157.085714 
z
" clip-path="url(#p65924dc3bc)" style="fill: #ff7f0e"/>
   </g>
   <g id="patch_114">
    <path d="M 301.852808 252 
L 305.730052 252 
L 305.730052 154.796501 
L 301.852808 154.796501 
z
" clip-path="url(#p65924dc3bc)" style="fill: #ff7f0e"/>
   </g>
   <g id="patch_115">
    <path d="M 306.699363 252 
L 310.576607 252 
L 310.576607 156.740571 
L 306.699363 156.740571 
z
" clip-path="url(#p65924dc3bc)" style="fill: #ff7f0e"/>
   </g>
   <g id="patch_116">
    <path d="M 311.545918 252 
L 315.423162 252 
L 315.423162 154.547899 
L 311.545918 154.547899 
z
" clip-path="url(#p65924dc3bc)" style="fill: #ff7f0e"/>
   </g>
   <g id="patch_117">
    <path d="M 316.392472 252 
L 320.269716 252 
L 320.269716 156.421978 
L 316.392472 156.421978 
z
" clip-path="url(#p65924dc3bc)" style="fill: #ff7f0e"/>
   </g>
   <g id="patch_118">
    <path d="M 321.239027 252 
L 325.116271 252 
L 325.116271 154.318059 
L 321.239027 154.318059 
z
" clip-path="url(#p65924dc3bc)" style="fill: #ff7f0e"/>
   </g>
   <g id="patch_119">
    <path d="M 326.085582 252 
L 329.962826 252 
L 329.962826 156.126984 
L 326.085582 156.126984 
z
" clip-path="url(#p65924dc3bc)" style="fill: #ff7f0e"/>
   </g>
   <g id="patch_120">
    <path d="M 330.932137 252 
L 334.80938 252 
L 334.80938 157.87013 
L 330.932137 157.87013 
z
" clip-path="url(#p65924dc3bc)" style="fill: #ff7f0e"/>
   </g>
   <g id="patch_121">
    <path d="M 335.778691 252 
L 339.655935 252 
L 339.655935 155.853061 
L 335.778691 155.853061 
z
" clip-path="url(#p65924dc3bc)" style="fill: #ff7f0e"/>
   </g>
   <g id="patch_122">
    <path d="M 340.625246 252 
L 344.50249 252 
L 344.50249 153.906767 
L 340.625246 153.906767 
z
" clip-path="url(#p65924dc3bc)" style="fill: #ff7f0e"/>
   </g>
   <g id="patch_123">
    <path d="M 345.471801 252 
L 349.349045 252 
L 349.349045 152.027586 
L 345.471801 152.027586 
z
" clip-path="url(#p65924dc3bc)" style="fill: #ff7f0e"/>
   </g>
   <g id="patch_124">
    <path d="M 350.318356 252 
L 354.195599 252 
L 354.195599 153.722034 
L 350.318356 153.722034 
z
" clip-path="url(#p65924dc3bc)" style="fill: #ff7f0e"/>
   </g>
   <g id="patch_125">
    <path d="M 355.16491 252 
L 359.042154 252 
L 359.042154 151.908571 
L 355.16491 151.908571 
z
" clip-path="url(#p65924dc3bc)" style="fill: #ff7f0e"/>
   </g>
   <g id="patch_126">
    <path d="M 360.011465 252 
L 363.888709 252 
L 363.888709 150.154567 
L 360.011465 150.154567 
z
" clip-path="url(#p65924dc3bc)" style="fill: #ff7f0e"/>
   </g>
   <g id="patch_127">
    <path d="M 364.85802 252 
L 368.735263 252 
L 368.735263 148.457143 
L 364.85802 148.457143 
z
" clip-path="url(#p65924dc3bc)" style="fill: #ff7f0e"/>
   </g>
   <g id="patch_128">
    <path d="M 369.704574 252 
L 373.581818 252 
L 373.581818 146.813605 
L 369.704574 146.813605 
z
" clip-path="url(#p65924dc3bc)" style="fill: #ff7f0e"/>
   </g>
   <g id="patch_129">
    <path d="M 69.218182 252 
L 73.095426 252 
L 73.095426 44.914286 
L 69.218182 44.914286 
z
" clip-path="url(#p65924dc3bc)" style="fill: #2ca02c"/>
   </g>
   <g id="patch_130">
    <path d="M 74.064737 252 
L 77.94198 252 
L 77.94198 252 
L 74.064737 252 
z
" clip-path="url(#p65924dc3bc)" style="fill: #2ca02c"/>
   </g>
   <g id="patch_131">
    <path d="M 78.911291 252 
L 82.788535 252 
L 82.788535 182.971429 
L 78.911291 182.971429 
z
" clip-path="url(#p65924dc3bc)" style="fill: #2ca02c"/>
   </g>
   <g id="patch_132">
    <path d="M 83.757846 252 
L 87.63509 252 
L 87.63509 200.228571 
L 83.757846 200.228571 
z
" clip-path="url(#p65924dc3bc)" style="fill: #2ca02c"/>
   </g>
   <g id="patch_133">
    <path d="M 88.604401 252 
L 92.481644 252 
L 92.481644 210.582857 
L 88.604401 210.582857 
z
" clip-path="url(#p65924dc3bc)" style="fill: #2ca02c"/>
   </g>
   <g id="patch_134">
    <path d="M 93.450955 252 
L 97.328199 252 
L 97.328199 217.485714 
L 93.450955 217.485714 
z
" clip-path="url(#p65924dc3bc)" style="fill: #2ca02c"/>
   </g>
   <g id="patch_135">
    <path d="M 98.29751 252 
L 102.174754 252 
L 102.174754 192.832653 
L 98.29751 192.832653 
z
" clip-path="url(#p65924dc3bc)" style="fill: #2ca02c"/>
   </g>
   <g id="patch_136">
    <path d="M 103.144065 252 
L 107.021309 252 
L 107.021309 200.228571 
L 103.144065 200.228571 
z
" clip-path="url(#p65924dc3bc)" style="fill: #2ca02c"/>
   </g>
   <g id="patch_137">
    <path d="M 107.99062 252 
L 111.867863 252 
L 111.867863 182.971429 
L 107.99062 182.971429 
z
" clip-path="url(#p65924dc3bc)" style="fill: #2ca02c"/>
   </g>
   <g id="patch_138">
    <path d="M 112.837174 252 
L 116.714418 252 
L 116.714418 189.874286 
L 112.837174 189.874286 
z
" clip-path="url(#p65924dc3bc)" style="fill: #2ca02c"/>
   </g>
   <g id="patch_139">
    <path d="M 117.683729 252 
L 121.560973 252 
L 121.560973 176.696104 
L 117.683729 176.696104 
z
" clip-path="url(#p65924dc3bc)" style="fill: #2ca02c"/>
   </g>
   <g id="patch_140">
    <path d="M 122.530284 252 
L 126.407528 252 
L 126.407528 165.714286 
L 122.530284 165.714286 
z
" clip-path="url(#p65924dc3bc)" style="fill: #2ca02c"/>
   </g>
   <g id="patch_141">
    <path d="M 127.376838 252 
L 131.254082 252 
L 131.254082 172.351648 
L 127.376838 172.351648 
z
" clip-path="url(#p65924dc3bc)" style="fill: #2ca02c"/>
   </g>
   <g id="patch_142">
    <path d="M 132.223393 252 
L 136.100637 252 
L 136.100637 178.040816 
L 132.223393 178.040816 
z
" clip-path="url(#p65924dc3bc)" style="fill: #2ca02c"/>
   </g>
   <g id="patch_143">
    <path d="M 137.069948 252 
L 140.947192 252 
L 140.947192 182.971429 
L 137.069948 182.971429 
z
" clip-path="url(#p65924dc3bc)" style="fill: #2ca02c"/>
   </g>
   <g id="patch_144">
    <path d="M 141.916503 252 
L 145.793746 252 
L 145.793746 161.4 
L 141.916503 161.4 
z
" clip-path="url(#p65924dc3bc)" style="fill: #2ca02c"/>
   </g>
   <g id="patch_145">
    <path d="M 146.763057 252 
L 150.640301 252 
L 150.640301 191.092437 
L 146.763057 191.092437 
z
" clip-path="url(#p65924dc3bc)" style="fill: #2ca02c"/>
   </g>
   <g id="patch_146">
    <path d="M 151.609612 252 
L 155.486856 252 
L 155.486856 182.971429 
L 151.609612 182.971429 
z
" clip-path="url(#p65924dc3bc)" style="fill: #2ca02c"/>
   </g>
   <g id="patch_147">
    <path d="M 156.456167 252 
L 160.333411 252 
L 160.333411 186.604511 
L 156.456167 186.604511 
z
" clip-path="url(#p65924dc3bc)" style="fill: #2ca02c"/>
   </g>
   <g id="patch_148">
    <path d="M 161.302721 252 
L 165.179965 252 
L 165.179965 189.874286 
L 161.302721 189.874286 
z
" clip-path="url(#p65924dc3bc)" style="fill: #2ca02c"/>
   </g>
   <g id="patch_149">
    <path d="M 166.149276 252 
L 170.02652 252 
L 170.02652 163.24898 
L 166.149276 163.24898 
z
" clip-path="url(#p65924dc3bc)" style="fill: #2ca02c"/>
   </g>
   <g id="patch_150">
    <path d="M 170.995831 252 
L 174.873075 252 
L 174.873075 195.522078 
L 170.995831 195.522078 
z
" clip-path="url(#p65924dc3bc)" style="fill: #2ca02c"/>
   </g>
   <g id="patch_151">
    <path d="M 175.842386 252 
L 179.719629 252 
L 179.719629 170.96646 
L 175.842386 170.96646 
z
" clip-path="url(#p65924dc3bc)" style="fill: #2ca02c"/>
   </g>
   <g id="patch_152">
    <path d="M 180.68894 252 
L 184.566184 252 
L 184.566184 191.6 
L 180.68894 191.6 
z
" clip-path="url(#p65924dc3bc)" style="fill: #2ca02c"/>
   </g>
   <g id="patch_153">
    <path d="M 185.535495 252 
L 189.412739 252 
L 189.412739 177.449143 
L 185.535495 177.449143 
z
" clip-path="url(#p65924dc3bc)" style="fill: #2ca02c"/>
   </g>
   <g id="patch_154">
    <path d="M 190.38205 252 
L 194.259294 252 
L 194.259294 164.386813 
L 190.38205 164.386813 
z
" clip-path="url(#p65924dc3bc)" style="fill: #2ca02c"/>
   </g>
   <g id="patch_155">
    <path d="M 195.228605 252 
L 199.105848 252 
L 199.105848 182.971429 
L 195.228605 182.971429 
z
" clip-path="url(#p65924dc3bc)" style="fill: #2ca02c"/>
   </g>
   <g id="patch_156">
    <path d="M 200.075159 252 
L 203.952403 252 
L 203.952403 178.040816 
L 200.075159 178.040816 
z
" clip-path="url(#p65924dc3bc)" style="fill: #2ca02c"/>
   </g>
   <g id="patch_157">
    <path d="M 204.921714 252 
L 208.798958 252 
L 208.798958 159.168473 
L 204.921714 159.168473 
z
" clip-path="url(#p65924dc3bc)" style="fill: #2ca02c"/>
   </g>
   <g id="patch_158">
    <path d="M 209.768269 252 
L 213.645512 252 
L 213.645512 176.068571 
L 209.768269 176.068571 
z
" clip-path="url(#p65924dc3bc)" style="fill: #2ca02c"/>
   </g>
   <g id="patch_159">
    <path d="M 214.614823 252 
L 218.492067 252 
L 218.492067 178.517972 
L 214.614823 178.517972 
z
" clip-path="url(#p65924dc3bc)" style="fill: #2ca02c"/>
   </g>
   <g id="patch_160">
    <path d="M 219.461378 252 
L 223.338622 252 
L 223.338622 180.814286 
L 219.461378 180.814286 
z
" clip-path="url(#p65924dc3bc)" style="fill: #2ca02c"/>
   </g>
   <g id="patch_161">
    <path d="M 224.307933 252 
L 228.185177 252 
L 228.185177 170.420779 
L 224.307933 170.420779 
z
" clip-path="url(#p65924dc3bc)" style="fill: #2ca02c"/>
   </g>
   <g id="patch_162">
    <path d="M 229.154488 252 
L 233.031731 252 
L 233.031731 166.729412 
L 229.154488 166.729412 
z
" clip-path="url(#p65924dc3bc)" style="fill: #2ca02c"/>
   </g>
   <g id="patch_163">
    <path d="M 234.001042 252 
L 237.878286 252 
L 237.878286 180.999184 
L 234.001042 180.999184 
z
" clip-path="url(#p65924dc3bc)" style="fill: #2ca02c"/>
   </g>
   <g id="patch_164">
    <path d="M 238.847597 252 
L 242.724841 252 
L 242.724841 171.466667 
L 238.847597 171.466667 
z
" clip-path="url(#p65924dc3bc)" style="fill: #2ca02c"/>
   </g>
   <g id="patch_165">
    <path d="M 243.694152 252 
L 247.571395 252 
L 247.571395 156.85251 
L 243.694152 156.85251 
z
" clip-path="url(#p65924dc3bc)" style="fill: #2ca02c"/>
   </g>
   <g id="patch_166">
    <path d="M 248.540706 252 
L 252.41795 252 
L 252.41795 197.503759 
L 248.540706 197.503759 
z
" clip-path="url(#p65924dc3bc)" style="fill: #2ca02c"/>
   </g>
   <g id="patch_167">
    <path d="M 253.387261 252 
L 257.264505 252 
L 257.264505 177.661538 
L 253.387261 177.661538 
z
" clip-path="url(#p65924dc3bc)" style="fill: #2ca02c"/>
   </g>
   <g id="patch_168">
    <path d="M 258.233816 252 
L 262.11106 252 
L 262.11106 158.811429 
L 258.233816 158.811429 
z
" clip-path="url(#p65924dc3bc)" style="fill: #2ca02c"/>
   </g>
   <g id="patch_169">
    <path d="M 263.080371 252 
L 266.957614 252 
L 266.957614 176.236934 
L 263.080371 176.236934 
z
" clip-path="url(#p65924dc3bc)" style="fill: #2ca02c"/>
   </g>
   <g id="patch_170">
    <path d="M 267.926925 252 
L 271.804169 252 
L 271.804169 173.110204 
L 267.926925 173.110204 
z
" clip-path="url(#p65924dc3bc)" style="fill: #2ca02c"/>
   </g>
   <g id="patch_171">
    <path d="M 272.77348 252 
L 276.650724 252 
L 276.650724 160.49701 
L 272.77348 160.49701 
z
" clip-path="url(#p65924dc3bc)" style="fill: #2ca02c"/>
   </g>
   <g id="patch_172">
    <path d="M 277.620035 252 
L 281.497279 252 
L 281.497279 176.696104 
L 277.620035 176.696104 
z
" clip-path="url(#p65924dc3bc)" style="fill: #2ca02c"/>
   </g>
   <g id="patch_173">
    <path d="M 282.466589 252 
L 286.343833 252 
L 286.343833 173.767619 
L 282.466589 173.767619 
z
" clip-path="url(#p65924dc3bc)" style="fill: #2ca02c"/>
   </g>
   <g id="patch_174">
    <path d="M 287.313144 252 
L 291.190388 252 
L 291.190388 184.47205 
L 287.313144 184.47205 
z
" clip-path="url(#p65924dc3bc)" style="fill: #2ca02c"/>
   </g>
   <g id="patch_175">
    <path d="M 292.159699 252 
L 296.036943 252 
L 296.036943 168.284498 
L 292.159699 168.284498 
z
" clip-path="url(#p65924dc3bc)" style="fill: #2ca02c"/>
   </g>
   <g id="patch_176">
    <path d="M 297.006254 252 
L 300.883497 252 
L 300.883497 165.714286 
L 297.006254 165.714286 
z
" clip-path="url(#p65924dc3bc)" style="fill: #2ca02c"/>
   </g>
   <g id="patch_177">
    <path d="M 301.852808 252 
L 305.730052 252 
L 305.730052 180.153936 
L 301.852808 180.153936 
z
" clip-path="url(#p65924dc3bc)" style="fill: #2ca02c"/>
   </g>
   <g id="patch_178">
    <path d="M 306.699363 252 
L 310.576607 252 
L 310.576607 169.165714 
L 306.699363 169.165714 
z
" clip-path="url(#p65924dc3bc)" style="fill: #2ca02c"/>
   </g>
   <g id="patch_179">
    <path d="M 311.545918 252 
L 315.423162 252 
L 315.423162 166.729412 
L 311.545918 166.729412 
z
" clip-path="url(#p65924dc3bc)" style="fill: #2ca02c"/>
   </g>
   <g id="patch_180">
    <path d="M 316.392472 252 
L 320.269716 252 
L 320.269716 160.404396 
L 316.392472 160.404396 
z
" clip-path="url(#p65924dc3bc)" style="fill: #2ca02c"/>
   </g>
   <g id="patch_181">
    <path d="M 321.239027 252 
L 325.116271 252 
L 325.116271 177.761725 
L 321.239027 177.761725 
z
" clip-path="url(#p65924dc3bc)" style="fill: #2ca02c"/>
   </g>
   <g id="patch_182">
    <path d="M 326.085582 252 
L 329.962826 252 
L 329.962826 171.466667 
L 326.085582 171.466667 
z
" clip-path="url(#p65924dc3bc)" style="fill: #2ca02c"/>
   </g>
   <g id="patch_183">
    <path d="M 330.932137 252 
L 334.80938 252 
L 334.80938 169.165714 
L 330.932137 169.165714 
z
" clip-path="url(#p65924dc3bc)" style="fill: #2ca02c"/>
   </g>
   <g id="patch_184">
    <path d="M 335.778691 252 
L 339.655935 252 
L 339.655935 178.040816 
L 335.778691 178.040816 
z
" clip-path="url(#p65924dc3bc)" style="fill: #2ca02c"/>
   </g>
   <g id="patch_185">
    <path d="M 340.625246 252 
L 344.50249 252 
L 344.50249 179.338346 
L 340.625246 179.338346 
z
" clip-path="url(#p65924dc3bc)" style="fill: #2ca02c"/>
   </g>
   <g id="patch_186">
    <path d="M 345.471801 252 
L 349.349045 252 
L 349.349045 180.591133 
L 345.471801 180.591133 
z
" clip-path="url(#p65924dc3bc)" style="fill: #2ca02c"/>
   </g>
   <g id="patch_187">
    <path d="M 350.318356 252 
L 354.195599 252 
L 354.195599 171.271671 
L 350.318356 171.271671 
z
" clip-path="url(#p65924dc3bc)" style="fill: #2ca02c"/>
   </g>
   <g id="patch_188">
    <path d="M 355.16491 252 
L 359.042154 252 
L 359.042154 169.165714 
L 355.16491 169.165714 
z
" clip-path="url(#p65924dc3bc)" style="fill: #2ca02c"/>
   </g>
   <g id="patch_189">
    <path d="M 360.011465 252 
L 363.888709 252 
L 363.888709 170.523653 
L 360.011465 170.523653 
z
" clip-path="url(#p65924dc3bc)" style="fill: #2ca02c"/>
   </g>
   <g id="patch_190">
    <path d="M 364.85802 252 
L 368.735263 252 
L 368.735263 158.477419 
L 364.85802 158.477419 
z
" clip-path="url(#p65924dc3bc)" style="fill: #2ca02c"/>
   </g>
   <g id="patch_191">
    <path d="M 369.704574 252 
L 373.581818 252 
L 373.581818 153.387755 
L 369.704574 153.387755 
z
" clip-path="url(#p65924dc3bc)" style="fill: #2ca02c"/>
   </g>
   <g id="patch_192">
    <path d="M 69.218182 252 
L 73.095426 252 
L 73.095426 252 
L 69.218182 252 
z
" clip-path="url(#p65924dc3bc)" style="fill: #d62728"/>
   </g>
   <g id="patch_193">
    <path d="M 74.064737 252 
L 77.94198 252 
L 77.94198 148.457143 
L 74.064737 148.457143 
z
" clip-path="url(#p65924dc3bc)" style="fill: #d62728"/>
   </g>
   <g id="patch_194">
    <path d="M 78.911291 252 
L 82.788535 252 
L 82.788535 182.971429 
L 78.911291 182.971429 
z
" clip-path="url(#p65924dc3bc)" style="fill: #d62728"/>
   </g>
   <g id="patch_195">
    <path d="M 83.757846 252 
L 87.63509 252 
L 87.63509 252 
L 83.757846 252 
z
" clip-path="url(#p65924dc3bc)" style="fill: #d62728"/>
   </g>
   <g id="patch_196">
    <path d="M 88.604401 252 
L 92.481644 252 
L 92.481644 210.582857 
L 88.604401 210.582857 
z
" clip-path="url(#p65924dc3bc)" style="fill: #d62728"/>
   </g>
   <g id="patch_197">
    <path d="M 93.450955 252 
L 97.328199 252 
L 97.328199 217.485714 
L 93.450955 217.485714 
z
" clip-path="url(#p65924dc3bc)" style="fill: #d62728"/>
   </g>
   <g id="patch_198">
    <path d="M 98.29751 252 
L 102.174754 252 
L 102.174754 222.416327 
L 98.29751 222.416327 
z
" clip-path="url(#p65924dc3bc)" style="fill: #d62728"/>
   </g>
   <g id="patch_199">
    <path d="M 103.144065 252 
L 107.021309 252 
L 107.021309 226.114286 
L 103.144065 226.114286 
z
" clip-path="url(#p65924dc3bc)" style="fill: #d62728"/>
   </g>
   <g id="patch_200">
    <path d="M 107.99062 252 
L 111.867863 252 
L 111.867863 228.990476 
L 107.99062 228.990476 
z
" clip-path="url(#p65924dc3bc)" style="fill: #d62728"/>
   </g>
   <g id="patch_201">
    <path d="M 112.837174 252 
L 116.714418 252 
L 116.714418 252 
L 112.837174 252 
z
" clip-path="url(#p65924dc3bc)" style="fill: #d62728"/>
   </g>
   <g id="patch_202">
    <path d="M 117.683729 252 
L 121.560973 252 
L 121.560973 252 
L 117.683729 252 
z
" clip-path="url(#p65924dc3bc)" style="fill: #d62728"/>
   </g>
   <g id="patch_203">
    <path d="M 122.530284 252 
L 126.407528 252 
L 126.407528 252 
L 122.530284 252 
z
" clip-path="url(#p65924dc3bc)" style="fill: #d62728"/>
   </g>
   <g id="patch_204">
    <path d="M 127.376838 252 
L 131.254082 252 
L 131.254082 236.07033 
L 127.376838 236.07033 
z
" clip-path="url(#p65924dc3bc)" style="fill: #d62728"/>
   </g>
   <g id="patch_205">
    <path d="M 132.223393 252 
L 136.100637 252 
L 136.100637 222.416327 
L 132.223393 222.416327 
z
" clip-path="url(#p65924dc3bc)" style="fill: #d62728"/>
   </g>
   <g id="patch_206">
    <path d="M 137.069948 252 
L 140.947192 252 
L 140.947192 224.388571 
L 137.069948 224.388571 
z
" clip-path="url(#p65924dc3bc)" style="fill: #d62728"/>
   </g>
   <g id="patch_207">
    <path d="M 141.916503 252 
L 145.793746 252 
L 145.793746 252 
L 141.916503 252 
z
" clip-path="url(#p65924dc3bc)" style="fill: #d62728"/>
   </g>
   <g id="patch_208">
    <path d="M 146.763057 252 
L 150.640301 252 
L 150.640301 227.636975 
L 146.763057 227.636975 
z
" clip-path="url(#p65924dc3bc)" style="fill: #d62728"/>
   </g>
   <g id="patch_209">
    <path d="M 151.609612 252 
L 155.486856 252 
L 155.486856 228.990476 
L 151.609612 228.990476 
z
" clip-path="url(#p65924dc3bc)" style="fill: #d62728"/>
   </g>
   <g id="patch_210">
    <path d="M 156.456167 252 
L 160.333411 252 
L 160.333411 219.302256 
L 156.456167 219.302256 
z
" clip-path="url(#p65924dc3bc)" style="fill: #d62728"/>
   </g>
   <g id="patch_211">
    <path d="M 161.302721 252 
L 165.179965 252 
L 165.179965 231.291429 
L 161.302721 231.291429 
z
" clip-path="url(#p65924dc3bc)" style="fill: #d62728"/>
   </g>
   <g id="patch_212">
    <path d="M 166.149276 252 
L 170.02652 252 
L 170.02652 252 
L 166.149276 252 
z
" clip-path="url(#p65924dc3bc)" style="fill: #d62728"/>
   </g>
   <g id="patch_213">
    <path d="M 170.995831 252 
L 174.873075 252 
L 174.873075 223.761039 
L 170.995831 223.761039 
z
" clip-path="url(#p65924dc3bc)" style="fill: #d62728"/>
   </g>
   <g id="patch_214">
    <path d="M 175.842386 252 
L 179.719629 252 
L 179.719629 242.996273 
L 175.842386 242.996273 
z
" clip-path="url(#p65924dc3bc)" style="fill: #d62728"/>
   </g>
   <g id="patch_215">
    <path d="M 180.68894 252 
L 184.566184 252 
L 184.566184 226.114286 
L 180.68894 226.114286 
z
" clip-path="url(#p65924dc3bc)" style="fill: #d62728"/>
   </g>
   <g id="patch_216">
    <path d="M 185.535495 252 
L 189.412739 252 
L 189.412739 235.433143 
L 185.535495 235.433143 
z
" clip-path="url(#p65924dc3bc)" style="fill: #d62728"/>
   </g>
   <g id="patch_217">
    <path d="M 190.38205 252 
L 194.259294 252 
L 194.259294 244.035165 
L 190.38205 244.035165 
z
" clip-path="url(#p65924dc3bc)" style="fill: #d62728"/>
   </g>
   <g id="patch_218">
    <path d="M 195.228605 252 
L 199.105848 252 
L 199.105848 228.990476 
L 195.228605 228.990476 
z
" clip-path="url(#p65924dc3bc)" style="fill: #d62728"/>
   </g>
   <g id="patch_219">
    <path d="M 200.075159 252 
L 203.952403 252 
L 203.952403 229.812245 
L 200.075159 229.812245 
z
" clip-path="url(#p65924dc3bc)" style="fill: #d62728"/>
   </g>
   <g id="patch_220">
    <path d="M 204.921714 252 
L 208.798958 252 
L 208.798958 252 
L 204.921714 252 
z
" clip-path="url(#p65924dc3bc)" style="fill: #d62728"/>
   </g>
   <g id="patch_221">
    <path d="M 209.768269 252 
L 213.645512 252 
L 213.645512 238.194286 
L 209.768269 238.194286 
z
" clip-path="url(#p65924dc3bc)" style="fill: #d62728"/>
   </g>
   <g id="patch_222">
    <path d="M 214.614823 252 
L 218.492067 252 
L 218.492067 225.279263 
L 214.614823 225.279263 
z
" clip-path="url(#p65924dc3bc)" style="fill: #d62728"/>
   </g>
   <g id="patch_223">
    <path d="M 219.461378 252 
L 223.338622 252 
L 223.338622 232.585714 
L 219.461378 232.585714 
z
" clip-path="url(#p65924dc3bc)" style="fill: #d62728"/>
   </g>
   <g id="patch_224">
    <path d="M 224.307933 252 
L 228.185177 252 
L 228.185177 245.724675 
L 224.307933 245.724675 
z
" clip-path="url(#p65924dc3bc)" style="fill: #d62728"/>
   </g>
   <g id="patch_225">
    <path d="M 229.154488 252 
L 233.031731 252 
L 233.031731 239.818487 
L 229.154488 239.818487 
z
" clip-path="url(#p65924dc3bc)" style="fill: #d62728"/>
   </g>
   <g id="patch_226">
    <path d="M 234.001042 252 
L 237.878286 252 
L 237.878286 234.249796 
L 234.001042 234.249796 
z
" clip-path="url(#p65924dc3bc)" style="fill: #d62728"/>
   </g>
   <g id="patch_227">
    <path d="M 238.847597 252 
L 242.724841 252 
L 242.724841 240.495238 
L 238.847597 240.495238 
z
" clip-path="url(#p65924dc3bc)" style="fill: #d62728"/>
   </g>
   <g id="patch_228">
    <path d="M 243.694152 252 
L 247.571395 252 
L 247.571395 252 
L 243.694152 252 
z
" clip-path="url(#p65924dc3bc)" style="fill: #d62728"/>
   </g>
   <g id="patch_229">
    <path d="M 248.540706 252 
L 252.41795 252 
L 252.41795 219.302256 
L 248.540706 219.302256 
z
" clip-path="url(#p65924dc3bc)" style="fill: #d62728"/>
   </g>
   <g id="patch_230">
    <path d="M 253.387261 252 
L 257.264505 252 
L 257.264505 241.38022 
L 253.387261 241.38022 
z
" clip-path="url(#p65924dc3bc)" style="fill: #d62728"/>
   </g>
   <g id="patch_231">
    <path d="M 258.233816 252 
L 262.11106 252 
L 262.11106 246.822857 
L 258.233816 246.822857 
z
" clip-path="url(#p65924dc3bc)" style="fill: #d62728"/>
   </g>
   <g id="patch_232">
    <path d="M 263.080371 252 
L 266.957614 252 
L 266.957614 226.745645 
L 263.080371 226.745645 
z
" clip-path="url(#p65924dc3bc)" style="fill: #d62728"/>
   </g>
   <g id="patch_233">
    <path d="M 267.926925 252 
L 271.804169 252 
L 271.804169 237.208163 
L 267.926925 237.208163 
z
" clip-path="url(#p65924dc3bc)" style="fill: #d62728"/>
   </g>
   <g id="patch_234">
    <path d="M 272.77348 252 
L 276.650724 252 
L 276.650724 242.368106 
L 272.77348 242.368106 
z
" clip-path="url(#p65924dc3bc)" style="fill: #d62728"/>
   </g>
   <g id="patch_235">
    <path d="M 277.620035 252 
L 281.497279 252 
L 281.497279 233.174026 
L 277.620035 233.174026 
z
" clip-path="url(#p65924dc3bc)" style="fill: #d62728"/>
   </g>
   <g id="patch_236">
    <path d="M 282.466589 252 
L 286.343833 252 
L 286.343833 242.79619 
L 282.466589 242.79619 
z
" clip-path="url(#p65924dc3bc)" style="fill: #d62728"/>
   </g>
   <g id="patch_237">
    <path d="M 287.313144 252 
L 291.190388 252 
L 291.190388 229.490683 
L 287.313144 229.490683 
z
" clip-path="url(#p65924dc3bc)" style="fill: #d62728"/>
   </g>
   <g id="patch_238">
    <path d="M 292.159699 252 
L 296.036943 252 
L 296.036943 243.187842 
L 292.159699 243.187842 
z
" clip-path="url(#p65924dc3bc)" style="fill: #d62728"/>
   </g>
   <g id="patch_239">
    <path d="M 297.006254 252 
L 300.883497 252 
L 300.883497 243.371429 
L 297.006254 243.371429 
z
" clip-path="url(#p65924dc3bc)" style="fill: #d62728"/>
   </g>
   <g id="patch_240">
    <path d="M 301.852808 252 
L 305.730052 252 
L 305.730052 226.642566 
L 301.852808 226.642566 
z
" clip-path="url(#p65924dc3bc)" style="fill: #d62728"/>
   </g>
   <g id="patch_241">
    <path d="M 306.699363 252 
L 310.576607 252 
L 310.576607 239.574857 
L 306.699363 239.574857 
z
" clip-path="url(#p65924dc3bc)" style="fill: #d62728"/>
   </g>
   <g id="patch_242">
    <path d="M 311.545918 252 
L 315.423162 252 
L 315.423162 239.818487 
L 311.545918 239.818487 
z
" clip-path="url(#p65924dc3bc)" style="fill: #d62728"/>
   </g>
   <g id="patch_243">
    <path d="M 316.392472 252 
L 320.269716 252 
L 320.269716 248.017582 
L 316.392472 248.017582 
z
" clip-path="url(#p65924dc3bc)" style="fill: #d62728"/>
   </g>
   <g id="patch_244">
    <path d="M 321.239027 252 
L 325.116271 252 
L 325.116271 228.556334 
L 321.239027 228.556334 
z
" clip-path="url(#p65924dc3bc)" style="fill: #d62728"/>
   </g>
   <g id="patch_245">
    <path d="M 326.085582 252 
L 329.962826 252 
L 329.962826 236.660317 
L 326.085582 236.660317 
z
" clip-path="url(#p65924dc3bc)" style="fill: #d62728"/>
   </g>
   <g id="patch_246">
    <path d="M 330.932137 252 
L 334.80938 252 
L 334.80938 240.704416 
L 330.932137 240.704416 
z
" clip-path="url(#p65924dc3bc)" style="fill: #d62728"/>
   </g>
   <g id="patch_247">
    <path d="M 335.778691 252 
L 339.655935 252 
L 339.655935 229.812245 
L 335.778691 229.812245 
z
" clip-path="url(#p65924dc3bc)" style="fill: #d62728"/>
   </g>
   <g id="patch_248">
    <path d="M 340.625246 252 
L 344.50249 252 
L 344.50249 226.568421 
L 340.625246 226.568421 
z
" clip-path="url(#p65924dc3bc)" style="fill: #d62728"/>
   </g>
   <g id="patch_249">
    <path d="M 345.471801 252 
L 349.349045 252 
L 349.349045 223.436453 
L 345.471801 223.436453 
z
" clip-path="url(#p65924dc3bc)" style="fill: #d62728"/>
   </g>
   <g id="patch_250">
    <path d="M 350.318356 252 
L 354.195599 252 
L 354.195599 234.450363 
L 350.318356 234.450363 
z
" clip-path="url(#p65924dc3bc)" style="fill: #d62728"/>
   </g>
   <g id="patch_251">
    <path d="M 355.16491 252 
L 359.042154 252 
L 359.042154 234.742857 
L 355.16491 234.742857 
z
" clip-path="url(#p65924dc3bc)" style="fill: #d62728"/>
   </g>
   <g id="patch_252">
    <path d="M 360.011465 252 
L 363.888709 252 
L 363.888709 231.630913 
L 360.011465 231.630913 
z
" clip-path="url(#p65924dc3bc)" style="fill: #d62728"/>
   </g>
   <g id="patch_253">
    <path d="M 364.85802 252 
L 368.735263 252 
L 368.735263 241.979724 
L 364.85802 241.979724 
z
" clip-path="url(#p65924dc3bc)" style="fill: #d62728"/>
   </g>
   <g id="patch_254">
    <path d="M 369.704574 252 
L 373.581818 252 
L 373.581818 245.42585 
L 369.704574 245.42585 
z
" clip-path="url(#p65924dc3bc)" style="fill: #d62728"/>
   </g>
   <g id="matplotlib.axis_1">
    <g id="xtick_1">
     <g id="line2d_1">
      <defs>
       <path id="m69c6fc9f68" d="M 0 0 
L 0 3.5 
" style="stroke: #000000; stroke-width: 0.8"/>
      </defs>
      <g>
       <use xlink:href="#m69c6fc9f68" x="66.310249" y="252" style="stroke: #000000; stroke-width: 0.8"/>
      </g>
     </g>
     <g id="text_1">
      <!-- 0 -->
      <g transform="translate(63.128999 266.598437)scale(0.1 -0.1)">
       <defs>
        <path id="DejaVuSans-30" d="M 2034 4250 
Q 1547 4250 1301 3770 
Q 1056 3291 1056 2328 
Q 1056 1369 1301 889 
Q 1547 409 2034 409 
Q 2525 409 2770 889 
Q 3016 1369 3016 2328 
Q 3016 3291 2770 3770 
Q 2525 4250 2034 4250 
z
M 2034 4750 
Q 2819 4750 3233 4129 
Q 3647 3509 3647 2328 
Q 3647 1150 3233 529 
Q 2819 -91 2034 -91 
Q 1250 -91 836 529 
Q 422 1150 422 2328 
Q 422 3509 836 4129 
Q 1250 4750 2034 4750 
z
" transform="scale(0.015625)"/>
       </defs>
       <use xlink:href="#DejaVuSans-30"/>
      </g>
     </g>
    </g>
    <g id="xtick_2">
     <g id="line2d_2">
      <g>
       <use xlink:href="#m69c6fc9f68" x="114.775796" y="252" style="stroke: #000000; stroke-width: 0.8"/>
      </g>
     </g>
     <g id="text_2">
      <!-- 10 -->
      <g transform="translate(108.413296 266.598437)scale(0.1 -0.1)">
       <defs>
        <path id="DejaVuSans-31" d="M 794 531 
L 1825 531 
L 1825 4091 
L 703 3866 
L 703 4441 
L 1819 4666 
L 2450 4666 
L 2450 531 
L 3481 531 
L 3481 0 
L 794 0 
L 794 531 
z
" transform="scale(0.015625)"/>
       </defs>
       <use xlink:href="#DejaVuSans-31"/>
       <use xlink:href="#DejaVuSans-30" x="63.623047"/>
      </g>
     </g>
    </g>
    <g id="xtick_3">
     <g id="line2d_3">
      <g>
       <use xlink:href="#m69c6fc9f68" x="163.241343" y="252" style="stroke: #000000; stroke-width: 0.8"/>
      </g>
     </g>
     <g id="text_3">
      <!-- 20 -->
      <g transform="translate(156.878843 266.598437)scale(0.1 -0.1)">
       <defs>
        <path id="DejaVuSans-32" d="M 1228 531 
L 3431 531 
L 3431 0 
L 469 0 
L 469 531 
Q 828 903 1448 1529 
Q 2069 2156 2228 2338 
Q 2531 2678 2651 2914 
Q 2772 3150 2772 3378 
Q 2772 3750 2511 3984 
Q 2250 4219 1831 4219 
Q 1534 4219 1204 4116 
Q 875 4013 500 3803 
L 500 4441 
Q 881 4594 1212 4672 
Q 1544 4750 1819 4750 
Q 2544 4750 2975 4387 
Q 3406 4025 3406 3419 
Q 3406 3131 3298 2873 
Q 3191 2616 2906 2266 
Q 2828 2175 2409 1742 
Q 1991 1309 1228 531 
z
" transform="scale(0.015625)"/>
       </defs>
       <use xlink:href="#DejaVuSans-32"/>
       <use xlink:href="#DejaVuSans-30" x="63.623047"/>
      </g>
     </g>
    </g>
    <g id="xtick_4">
     <g id="line2d_4">
      <g>
       <use xlink:href="#m69c6fc9f68" x="211.706891" y="252" style="stroke: #000000; stroke-width: 0.8"/>
      </g>
     </g>
     <g id="text_4">
      <!-- 30 -->
      <g transform="translate(205.344391 266.598437)scale(0.1 -0.1)">
       <defs>
        <path id="DejaVuSans-33" d="M 2597 2516 
Q 3050 2419 3304 2112 
Q 3559 1806 3559 1356 
Q 3559 666 3084 287 
Q 2609 -91 1734 -91 
Q 1441 -91 1130 -33 
Q 819 25 488 141 
L 488 750 
Q 750 597 1062 519 
Q 1375 441 1716 441 
Q 2309 441 2620 675 
Q 2931 909 2931 1356 
Q 2931 1769 2642 2001 
Q 2353 2234 1838 2234 
L 1294 2234 
L 1294 2753 
L 1863 2753 
Q 2328 2753 2575 2939 
Q 2822 3125 2822 3475 
Q 2822 3834 2567 4026 
Q 2313 4219 1838 4219 
Q 1578 4219 1281 4162 
Q 984 4106 628 3988 
L 628 4550 
Q 988 4650 1302 4700 
Q 1616 4750 1894 4750 
Q 2613 4750 3031 4423 
Q 3450 4097 3450 3541 
Q 3450 3153 3228 2886 
Q 3006 2619 2597 2516 
z
" transform="scale(0.015625)"/>
       </defs>
       <use xlink:href="#DejaVuSans-33"/>
       <use xlink:href="#DejaVuSans-30" x="63.623047"/>
      </g>
     </g>
    </g>
    <g id="xtick_5">
     <g id="line2d_5">
      <g>
       <use xlink:href="#m69c6fc9f68" x="260.172438" y="252" style="stroke: #000000; stroke-width: 0.8"/>
      </g>
     </g>
     <g id="text_5">
      <!-- 40 -->
      <g transform="translate(253.809938 266.598437)scale(0.1 -0.1)">
       <defs>
        <path id="DejaVuSans-34" d="M 2419 4116 
L 825 1625 
L 2419 1625 
L 2419 4116 
z
M 2253 4666 
L 3047 4666 
L 3047 1625 
L 3713 1625 
L 3713 1100 
L 3047 1100 
L 3047 0 
L 2419 0 
L 2419 1100 
L 313 1100 
L 313 1709 
L 2253 4666 
z
" transform="scale(0.015625)"/>
       </defs>
       <use xlink:href="#DejaVuSans-34"/>
       <use xlink:href="#DejaVuSans-30" x="63.623047"/>
      </g>
     </g>
    </g>
    <g id="xtick_6">
     <g id="line2d_6">
      <g>
       <use xlink:href="#m69c6fc9f68" x="308.637985" y="252" style="stroke: #000000; stroke-width: 0.8"/>
      </g>
     </g>
     <g id="text_6">
      <!-- 50 -->
      <g transform="translate(302.275485 266.598437)scale(0.1 -0.1)">
       <defs>
        <path id="DejaVuSans-35" d="M 691 4666 
L 3169 4666 
L 3169 4134 
L 1269 4134 
L 1269 2991 
Q 1406 3038 1543 3061 
Q 1681 3084 1819 3084 
Q 2600 3084 3056 2656 
Q 3513 2228 3513 1497 
Q 3513 744 3044 326 
Q 2575 -91 1722 -91 
Q 1428 -91 1123 -41 
Q 819 9 494 109 
L 494 744 
Q 775 591 1075 516 
Q 1375 441 1709 441 
Q 2250 441 2565 725 
Q 2881 1009 2881 1497 
Q 2881 1984 2565 2268 
Q 2250 2553 1709 2553 
Q 1456 2553 1204 2497 
Q 953 2441 691 2322 
L 691 4666 
z
" transform="scale(0.015625)"/>
       </defs>
       <use xlink:href="#DejaVuSans-35"/>
       <use xlink:href="#DejaVuSans-30" x="63.623047"/>
      </g>
     </g>
    </g>
    <g id="xtick_7">
     <g id="line2d_7">
      <g>
       <use xlink:href="#m69c6fc9f68" x="357.103532" y="252" style="stroke: #000000; stroke-width: 0.8"/>
      </g>
     </g>
     <g id="text_7">
      <!-- 60 -->
      <g transform="translate(350.741032 266.598437)scale(0.1 -0.1)">
       <defs>
        <path id="DejaVuSans-36" d="M 2113 2584 
Q 1688 2584 1439 2293 
Q 1191 2003 1191 1497 
Q 1191 994 1439 701 
Q 1688 409 2113 409 
Q 2538 409 2786 701 
Q 3034 994 3034 1497 
Q 3034 2003 2786 2293 
Q 2538 2584 2113 2584 
z
M 3366 4563 
L 3366 3988 
Q 3128 4100 2886 4159 
Q 2644 4219 2406 4219 
Q 1781 4219 1451 3797 
Q 1122 3375 1075 2522 
Q 1259 2794 1537 2939 
Q 1816 3084 2150 3084 
Q 2853 3084 3261 2657 
Q 3669 2231 3669 1497 
Q 3669 778 3244 343 
Q 2819 -91 2113 -91 
Q 1303 -91 875 529 
Q 447 1150 447 2328 
Q 447 3434 972 4092 
Q 1497 4750 2381 4750 
Q 2619 4750 2861 4703 
Q 3103 4656 3366 4563 
z
" transform="scale(0.015625)"/>
       </defs>
       <use xlink:href="#DejaVuSans-36"/>
       <use xlink:href="#DejaVuSans-30" x="63.623047"/>
      </g>
     </g>
    </g>
    <g id="text_8">
     <!-- Size bin number -->
     <g transform="translate(180.711719 280.276563)scale(0.1 -0.1)">
      <defs>
       <path id="DejaVuSans-53" d="M 3425 4513 
L 3425 3897 
Q 3066 4069 2747 4153 
Q 2428 4238 2131 4238 
Q 1616 4238 1336 4038 
Q 1056 3838 1056 3469 
Q 1056 3159 1242 3001 
Q 1428 2844 1947 2747 
L 2328 2669 
Q 3034 2534 3370 2195 
Q 3706 1856 3706 1288 
Q 3706 609 3251 259 
Q 2797 -91 1919 -91 
Q 1588 -91 1214 -16 
Q 841 59 441 206 
L 441 856 
Q 825 641 1194 531 
Q 1563 422 1919 422 
Q 2459 422 2753 634 
Q 3047 847 3047 1241 
Q 3047 1584 2836 1778 
Q 2625 1972 2144 2069 
L 1759 2144 
Q 1053 2284 737 2584 
Q 422 2884 422 3419 
Q 422 4038 858 4394 
Q 1294 4750 2059 4750 
Q 2388 4750 2728 4690 
Q 3069 4631 3425 4513 
z
" transform="scale(0.015625)"/>
       <path id="DejaVuSans-69" d="M 603 3500 
L 1178 3500 
L 1178 0 
L 603 0 
L 603 3500 
z
M 603 4863 
L 1178 4863 
L 1178 4134 
L 603 4134 
L 603 4863 
z
" transform="scale(0.015625)"/>
       <path id="DejaVuSans-7a" d="M 353 3500 
L 3084 3500 
L 3084 2975 
L 922 459 
L 3084 459 
L 3084 0 
L 275 0 
L 275 525 
L 2438 3041 
L 353 3041 
L 353 3500 
z
" transform="scale(0.015625)"/>
       <path id="DejaVuSans-65" d="M 3597 1894 
L 3597 1613 
L 953 1613 
Q 991 1019 1311 708 
Q 1631 397 2203 397 
Q 2534 397 2845 478 
Q 3156 559 3463 722 
L 3463 178 
Q 3153 47 2828 -22 
Q 2503 -91 2169 -91 
Q 1331 -91 842 396 
Q 353 884 353 1716 
Q 353 2575 817 3079 
Q 1281 3584 2069 3584 
Q 2775 3584 3186 3129 
Q 3597 2675 3597 1894 
z
M 3022 2063 
Q 3016 2534 2758 2815 
Q 2500 3097 2075 3097 
Q 1594 3097 1305 2825 
Q 1016 2553 972 2059 
L 3022 2063 
z
" transform="scale(0.015625)"/>
       <path id="DejaVuSans-20" transform="scale(0.015625)"/>
       <path id="DejaVuSans-62" d="M 3116 1747 
Q 3116 2381 2855 2742 
Q 2594 3103 2138 3103 
Q 1681 3103 1420 2742 
Q 1159 2381 1159 1747 
Q 1159 1113 1420 752 
Q 1681 391 2138 391 
Q 2594 391 2855 752 
Q 3116 1113 3116 1747 
z
M 1159 2969 
Q 1341 3281 1617 3432 
Q 1894 3584 2278 3584 
Q 2916 3584 3314 3078 
Q 3713 2572 3713 1747 
Q 3713 922 3314 415 
Q 2916 -91 2278 -91 
Q 1894 -91 1617 61 
Q 1341 213 1159 525 
L 1159 0 
L 581 0 
L 581 4863 
L 1159 4863 
L 1159 2969 
z
" transform="scale(0.015625)"/>
       <path id="DejaVuSans-6e" d="M 3513 2113 
L 3513 0 
L 2938 0 
L 2938 2094 
Q 2938 2591 2744 2837 
Q 2550 3084 2163 3084 
Q 1697 3084 1428 2787 
Q 1159 2491 1159 1978 
L 1159 0 
L 581 0 
L 581 3500 
L 1159 3500 
L 1159 2956 
Q 1366 3272 1645 3428 
Q 1925 3584 2291 3584 
Q 2894 3584 3203 3211 
Q 3513 2838 3513 2113 
z
" transform="scale(0.015625)"/>
       <path id="DejaVuSans-75" d="M 544 1381 
L 544 3500 
L 1119 3500 
L 1119 1403 
Q 1119 906 1312 657 
Q 1506 409 1894 409 
Q 2359 409 2629 706 
Q 2900 1003 2900 1516 
L 2900 3500 
L 3475 3500 
L 3475 0 
L 2900 0 
L 2900 538 
Q 2691 219 2414 64 
Q 2138 -91 1772 -91 
Q 1169 -91 856 284 
Q 544 659 544 1381 
z
M 1991 3584 
L 1991 3584 
z
" transform="scale(0.015625)"/>
       <path id="DejaVuSans-6d" d="M 3328 2828 
Q 3544 3216 3844 3400 
Q 4144 3584 4550 3584 
Q 5097 3584 5394 3201 
Q 5691 2819 5691 2113 
L 5691 0 
L 5113 0 
L 5113 2094 
Q 5113 2597 4934 2840 
Q 4756 3084 4391 3084 
Q 3944 3084 3684 2787 
Q 3425 2491 3425 1978 
L 3425 0 
L 2847 0 
L 2847 2094 
Q 2847 2600 2669 2842 
Q 2491 3084 2119 3084 
Q 1678 3084 1418 2786 
Q 1159 2488 1159 1978 
L 1159 0 
L 581 0 
L 581 3500 
L 1159 3500 
L 1159 2956 
Q 1356 3278 1631 3431 
Q 1906 3584 2284 3584 
Q 2666 3584 2933 3390 
Q 3200 3197 3328 2828 
z
" transform="scale(0.015625)"/>
       <path id="DejaVuSans-72" d="M 2631 2963 
Q 2534 3019 2420 3045 
Q 2306 3072 2169 3072 
Q 1681 3072 1420 2755 
Q 1159 2438 1159 1844 
L 1159 0 
L 581 0 
L 581 3500 
L 1159 3500 
L 1159 2956 
Q 1341 3275 1631 3429 
Q 1922 3584 2338 3584 
Q 2397 3584 2469 3576 
Q 2541 3569 2628 3553 
L 2631 2963 
z
" transform="scale(0.015625)"/>
      </defs>
      <use xlink:href="#DejaVuSans-53"/>
      <use xlink:href="#DejaVuSans-69" x="63.476562"/>
      <use xlink:href="#DejaVuSans-7a" x="91.259766"/>
      <use xlink:href="#DejaVuSans-65" x="143.75"/>
      <use xlink:href="#DejaVuSans-20" x="205.273438"/>
      <use xlink:href="#DejaVuSans-62" x="237.060547"/>
      <use xlink:href="#DejaVuSans-69" x="300.537109"/>
      <use xlink:href="#DejaVuSans-6e" x="328.320312"/>
      <use xlink:href="#DejaVuSans-20" x="391.699219"/>
      <use xlink:href="#DejaVuSans-6e" x="423.486328"/>
      <use xlink:href="#DejaVuSans-75" x="486.865234"/>
      <use xlink:href="#DejaVuSans-6d" x="550.244141"/>
      <use xlink:href="#DejaVuSans-62" x="647.65625"/>
      <use xlink:href="#DejaVuSans-65" x="711.132812"/>
      <use xlink:href="#DejaVuSans-72" x="772.65625"/>
     </g>
    </g>
   </g>
   <g id="matplotlib.axis_2">
    <g id="ytick_1">
     <g id="line2d_8">
      <defs>
       <path id="mc666803d9d" d="M 0 0 
L -3.5 0 
" style="stroke: #000000; stroke-width: 0.8"/>
      </defs>
      <g>
       <use xlink:href="#mc666803d9d" x="54" y="252" style="stroke: #000000; stroke-width: 0.8"/>
      </g>
     </g>
     <g id="text_9">
      <!-- 0.0 -->
      <g transform="translate(31.096875 255.799219)scale(0.1 -0.1)">
       <defs>
        <path id="DejaVuSans-2e" d="M 684 794 
L 1344 794 
L 1344 0 
L 684 0 
L 684 794 
z
" transform="scale(0.015625)"/>
       </defs>
       <use xlink:href="#DejaVuSans-30"/>
       <use xlink:href="#DejaVuSans-2e" x="63.623047"/>
       <use xlink:href="#DejaVuSans-30" x="95.410156"/>
      </g>
     </g>
    </g>
    <g id="ytick_2">
     <g id="line2d_9">
      <g>
       <use xlink:href="#mc666803d9d" x="54" y="210.582857" style="stroke: #000000; stroke-width: 0.8"/>
      </g>
     </g>
     <g id="text_10">
      <!-- 0.2 -->
      <g transform="translate(31.096875 214.382076)scale(0.1 -0.1)">
       <use xlink:href="#DejaVuSans-30"/>
       <use xlink:href="#DejaVuSans-2e" x="63.623047"/>
       <use xlink:href="#DejaVuSans-32" x="95.410156"/>
      </g>
     </g>
    </g>
    <g id="ytick_3">
     <g id="line2d_10">
      <g>
       <use xlink:href="#mc666803d9d" x="54" y="169.165714" style="stroke: #000000; stroke-width: 0.8"/>
      </g>
     </g>
     <g id="text_11">
      <!-- 0.4 -->
      <g transform="translate(31.096875 172.964933)scale(0.1 -0.1)">
       <use xlink:href="#DejaVuSans-30"/>
       <use xlink:href="#DejaVuSans-2e" x="63.623047"/>
       <use xlink:href="#DejaVuSans-34" x="95.410156"/>
      </g>
     </g>
    </g>
    <g id="ytick_4">
     <g id="line2d_11">
      <g>
       <use xlink:href="#mc666803d9d" x="54" y="127.748571" style="stroke: #000000; stroke-width: 0.8"/>
      </g>
     </g>
     <g id="text_12">
      <!-- 0.6 -->
      <g transform="translate(31.096875 131.54779)scale(0.1 -0.1)">
       <use xlink:href="#DejaVuSans-30"/>
       <use xlink:href="#DejaVuSans-2e" x="63.623047"/>
       <use xlink:href="#DejaVuSans-36" x="95.410156"/>
      </g>
     </g>
    </g>
    <g id="ytick_5">
     <g id="line2d_12">
      <g>
       <use xlink:href="#mc666803d9d" x="54" y="86.331429" style="stroke: #000000; stroke-width: 0.8"/>
      </g>
     </g>
     <g id="text_13">
      <!-- 0.8 -->
      <g transform="translate(31.096875 90.130647)scale(0.1 -0.1)">
       <defs>
        <path id="DejaVuSans-38" d="M 2034 2216 
Q 1584 2216 1326 1975 
Q 1069 1734 1069 1313 
Q 1069 891 1326 650 
Q 1584 409 2034 409 
Q 2484 409 2743 651 
Q 3003 894 3003 1313 
Q 3003 1734 2745 1975 
Q 2488 2216 2034 2216 
z
M 1403 2484 
Q 997 2584 770 2862 
Q 544 3141 544 3541 
Q 544 4100 942 4425 
Q 1341 4750 2034 4750 
Q 2731 4750 3128 4425 
Q 3525 4100 3525 3541 
Q 3525 3141 3298 2862 
Q 3072 2584 2669 2484 
Q 3125 2378 3379 2068 
Q 3634 1759 3634 1313 
Q 3634 634 3220 271 
Q 2806 -91 2034 -91 
Q 1263 -91 848 271 
Q 434 634 434 1313 
Q 434 1759 690 2068 
Q 947 2378 1403 2484 
z
M 1172 3481 
Q 1172 3119 1398 2916 
Q 1625 2713 2034 2713 
Q 2441 2713 2670 2916 
Q 2900 3119 2900 3481 
Q 2900 3844 2670 4047 
Q 2441 4250 2034 4250 
Q 1625 4250 1398 4047 
Q 1172 3844 1172 3481 
z
" transform="scale(0.015625)"/>
       </defs>
       <use xlink:href="#DejaVuSans-30"/>
       <use xlink:href="#DejaVuSans-2e" x="63.623047"/>
       <use xlink:href="#DejaVuSans-38" x="95.410156"/>
      </g>
     </g>
    </g>
    <g id="ytick_6">
     <g id="line2d_13">
      <g>
       <use xlink:href="#mc666803d9d" x="54" y="44.914286" style="stroke: #000000; stroke-width: 0.8"/>
      </g>
     </g>
     <g id="text_14">
      <!-- 1.0 -->
      <g transform="translate(31.096875 48.713504)scale(0.1 -0.1)">
       <use xlink:href="#DejaVuSans-31"/>
       <use xlink:href="#DejaVuSans-2e" x="63.623047"/>
       <use xlink:href="#DejaVuSans-30" x="95.410156"/>
      </g>
     </g>
    </g>
    <g id="text_15">
     <!-- Node type proportions -->
     <g transform="translate(25.017187 199.326875)rotate(-90)scale(0.1 -0.1)">
      <defs>
       <path id="DejaVuSans-4e" d="M 628 4666 
L 1478 4666 
L 3547 763 
L 3547 4666 
L 4159 4666 
L 4159 0 
L 3309 0 
L 1241 3903 
L 1241 0 
L 628 0 
L 628 4666 
z
" transform="scale(0.015625)"/>
       <path id="DejaVuSans-6f" d="M 1959 3097 
Q 1497 3097 1228 2736 
Q 959 2375 959 1747 
Q 959 1119 1226 758 
Q 1494 397 1959 397 
Q 2419 397 2687 759 
Q 2956 1122 2956 1747 
Q 2956 2369 2687 2733 
Q 2419 3097 1959 3097 
z
M 1959 3584 
Q 2709 3584 3137 3096 
Q 3566 2609 3566 1747 
Q 3566 888 3137 398 
Q 2709 -91 1959 -91 
Q 1206 -91 779 398 
Q 353 888 353 1747 
Q 353 2609 779 3096 
Q 1206 3584 1959 3584 
z
" transform="scale(0.015625)"/>
       <path id="DejaVuSans-64" d="M 2906 2969 
L 2906 4863 
L 3481 4863 
L 3481 0 
L 2906 0 
L 2906 525 
Q 2725 213 2448 61 
Q 2172 -91 1784 -91 
Q 1150 -91 751 415 
Q 353 922 353 1747 
Q 353 2572 751 3078 
Q 1150 3584 1784 3584 
Q 2172 3584 2448 3432 
Q 2725 3281 2906 2969 
z
M 947 1747 
Q 947 1113 1208 752 
Q 1469 391 1925 391 
Q 2381 391 2643 752 
Q 2906 1113 2906 1747 
Q 2906 2381 2643 2742 
Q 2381 3103 1925 3103 
Q 1469 3103 1208 2742 
Q 947 2381 947 1747 
z
" transform="scale(0.015625)"/>
       <path id="DejaVuSans-74" d="M 1172 4494 
L 1172 3500 
L 2356 3500 
L 2356 3053 
L 1172 3053 
L 1172 1153 
Q 1172 725 1289 603 
Q 1406 481 1766 481 
L 2356 481 
L 2356 0 
L 1766 0 
Q 1100 0 847 248 
Q 594 497 594 1153 
L 594 3053 
L 172 3053 
L 172 3500 
L 594 3500 
L 594 4494 
L 1172 4494 
z
" transform="scale(0.015625)"/>
       <path id="DejaVuSans-79" d="M 2059 -325 
Q 1816 -950 1584 -1140 
Q 1353 -1331 966 -1331 
L 506 -1331 
L 506 -850 
L 844 -850 
Q 1081 -850 1212 -737 
Q 1344 -625 1503 -206 
L 1606 56 
L 191 3500 
L 800 3500 
L 1894 763 
L 2988 3500 
L 3597 3500 
L 2059 -325 
z
" transform="scale(0.015625)"/>
       <path id="DejaVuSans-70" d="M 1159 525 
L 1159 -1331 
L 581 -1331 
L 581 3500 
L 1159 3500 
L 1159 2969 
Q 1341 3281 1617 3432 
Q 1894 3584 2278 3584 
Q 2916 3584 3314 3078 
Q 3713 2572 3713 1747 
Q 3713 922 3314 415 
Q 2916 -91 2278 -91 
Q 1894 -91 1617 61 
Q 1341 213 1159 525 
z
M 3116 1747 
Q 3116 2381 2855 2742 
Q 2594 3103 2138 3103 
Q 1681 3103 1420 2742 
Q 1159 2381 1159 1747 
Q 1159 1113 1420 752 
Q 1681 391 2138 391 
Q 2594 391 2855 752 
Q 3116 1113 3116 1747 
z
" transform="scale(0.015625)"/>
       <path id="DejaVuSans-73" d="M 2834 3397 
L 2834 2853 
Q 2591 2978 2328 3040 
Q 2066 3103 1784 3103 
Q 1356 3103 1142 2972 
Q 928 2841 928 2578 
Q 928 2378 1081 2264 
Q 1234 2150 1697 2047 
L 1894 2003 
Q 2506 1872 2764 1633 
Q 3022 1394 3022 966 
Q 3022 478 2636 193 
Q 2250 -91 1575 -91 
Q 1294 -91 989 -36 
Q 684 19 347 128 
L 347 722 
Q 666 556 975 473 
Q 1284 391 1588 391 
Q 1994 391 2212 530 
Q 2431 669 2431 922 
Q 2431 1156 2273 1281 
Q 2116 1406 1581 1522 
L 1381 1569 
Q 847 1681 609 1914 
Q 372 2147 372 2553 
Q 372 3047 722 3315 
Q 1072 3584 1716 3584 
Q 2034 3584 2315 3537 
Q 2597 3491 2834 3397 
z
" transform="scale(0.015625)"/>
      </defs>
      <use xlink:href="#DejaVuSans-4e"/>
      <use xlink:href="#DejaVuSans-6f" x="74.804688"/>
      <use xlink:href="#DejaVuSans-64" x="135.986328"/>
      <use xlink:href="#DejaVuSans-65" x="199.462891"/>
      <use xlink:href="#DejaVuSans-20" x="260.986328"/>
      <use xlink:href="#DejaVuSans-74" x="292.773438"/>
      <use xlink:href="#DejaVuSans-79" x="331.982422"/>
      <use xlink:href="#DejaVuSans-70" x="391.162109"/>
      <use xlink:href="#DejaVuSans-65" x="454.638672"/>
      <use xlink:href="#DejaVuSans-20" x="516.162109"/>
      <use xlink:href="#DejaVuSans-70" x="547.949219"/>
      <use xlink:href="#DejaVuSans-72" x="611.425781"/>
      <use xlink:href="#DejaVuSans-6f" x="650.289062"/>
      <use xlink:href="#DejaVuSans-70" x="711.470703"/>
      <use xlink:href="#DejaVuSans-6f" x="774.947266"/>
      <use xlink:href="#DejaVuSans-72" x="836.128906"/>
      <use xlink:href="#DejaVuSans-74" x="877.242188"/>
      <use xlink:href="#DejaVuSans-69" x="916.451172"/>
      <use xlink:href="#DejaVuSans-6f" x="944.234375"/>
      <use xlink:href="#DejaVuSans-6e" x="1005.416016"/>
      <use xlink:href="#DejaVuSans-73" x="1068.794922"/>
     </g>
    </g>
   </g>
   <g id="patch_255">
    <path d="M 54 252 
L 54 34.56 
" style="fill: none; stroke: #000000; stroke-width: 0.8; stroke-linejoin: miter; stroke-linecap: square"/>
   </g>
   <g id="patch_256">
    <path d="M 388.8 252 
L 388.8 34.56 
" style="fill: none; stroke: #000000; stroke-width: 0.8; stroke-linejoin: miter; stroke-linecap: square"/>
   </g>
   <g id="patch_257">
    <path d="M 54 252 
L 388.8 252 
" style="fill: none; stroke: #000000; stroke-width: 0.8; stroke-linejoin: miter; stroke-linecap: square"/>
   </g>
   <g id="patch_258">
    <path d="M 54 34.56 
L 388.8 34.56 
" style="fill: none; stroke: #000000; stroke-width: 0.8; stroke-linejoin: miter; stroke-linecap: square"/>
   </g>
   <g id="text_16">
    <!-- Proportions of each node type, per size bin (nicolau_b) -->
    <g transform="translate(57.568125 28.56)scale(0.12 -0.12)">
     <defs>
      <path id="DejaVuSans-50" d="M 1259 4147 
L 1259 2394 
L 2053 2394 
Q 2494 2394 2734 2622 
Q 2975 2850 2975 3272 
Q 2975 3691 2734 3919 
Q 2494 4147 2053 4147 
L 1259 4147 
z
M 628 4666 
L 2053 4666 
Q 2838 4666 3239 4311 
Q 3641 3956 3641 3272 
Q 3641 2581 3239 2228 
Q 2838 1875 2053 1875 
L 1259 1875 
L 1259 0 
L 628 0 
L 628 4666 
z
" transform="scale(0.015625)"/>
      <path id="DejaVuSans-66" d="M 2375 4863 
L 2375 4384 
L 1825 4384 
Q 1516 4384 1395 4259 
Q 1275 4134 1275 3809 
L 1275 3500 
L 2222 3500 
L 2222 3053 
L 1275 3053 
L 1275 0 
L 697 0 
L 697 3053 
L 147 3053 
L 147 3500 
L 697 3500 
L 697 3744 
Q 697 4328 969 4595 
Q 1241 4863 1831 4863 
L 2375 4863 
z
" transform="scale(0.015625)"/>
      <path id="DejaVuSans-61" d="M 2194 1759 
Q 1497 1759 1228 1600 
Q 959 1441 959 1056 
Q 959 750 1161 570 
Q 1363 391 1709 391 
Q 2188 391 2477 730 
Q 2766 1069 2766 1631 
L 2766 1759 
L 2194 1759 
z
M 3341 1997 
L 3341 0 
L 2766 0 
L 2766 531 
Q 2569 213 2275 61 
Q 1981 -91 1556 -91 
Q 1019 -91 701 211 
Q 384 513 384 1019 
Q 384 1609 779 1909 
Q 1175 2209 1959 2209 
L 2766 2209 
L 2766 2266 
Q 2766 2663 2505 2880 
Q 2244 3097 1772 3097 
Q 1472 3097 1187 3025 
Q 903 2953 641 2809 
L 641 3341 
Q 956 3463 1253 3523 
Q 1550 3584 1831 3584 
Q 2591 3584 2966 3190 
Q 3341 2797 3341 1997 
z
" transform="scale(0.015625)"/>
      <path id="DejaVuSans-63" d="M 3122 3366 
L 3122 2828 
Q 2878 2963 2633 3030 
Q 2388 3097 2138 3097 
Q 1578 3097 1268 2742 
Q 959 2388 959 1747 
Q 959 1106 1268 751 
Q 1578 397 2138 397 
Q 2388 397 2633 464 
Q 2878 531 3122 666 
L 3122 134 
Q 2881 22 2623 -34 
Q 2366 -91 2075 -91 
Q 1284 -91 818 406 
Q 353 903 353 1747 
Q 353 2603 823 3093 
Q 1294 3584 2113 3584 
Q 2378 3584 2631 3529 
Q 2884 3475 3122 3366 
z
" transform="scale(0.015625)"/>
      <path id="DejaVuSans-68" d="M 3513 2113 
L 3513 0 
L 2938 0 
L 2938 2094 
Q 2938 2591 2744 2837 
Q 2550 3084 2163 3084 
Q 1697 3084 1428 2787 
Q 1159 2491 1159 1978 
L 1159 0 
L 581 0 
L 581 4863 
L 1159 4863 
L 1159 2956 
Q 1366 3272 1645 3428 
Q 1925 3584 2291 3584 
Q 2894 3584 3203 3211 
Q 3513 2838 3513 2113 
z
" transform="scale(0.015625)"/>
      <path id="DejaVuSans-2c" d="M 750 794 
L 1409 794 
L 1409 256 
L 897 -744 
L 494 -744 
L 750 256 
L 750 794 
z
" transform="scale(0.015625)"/>
      <path id="DejaVuSans-28" d="M 1984 4856 
Q 1566 4138 1362 3434 
Q 1159 2731 1159 2009 
Q 1159 1288 1364 580 
Q 1569 -128 1984 -844 
L 1484 -844 
Q 1016 -109 783 600 
Q 550 1309 550 2009 
Q 550 2706 781 3412 
Q 1013 4119 1484 4856 
L 1984 4856 
z
" transform="scale(0.015625)"/>
      <path id="DejaVuSans-6c" d="M 603 4863 
L 1178 4863 
L 1178 0 
L 603 0 
L 603 4863 
z
" transform="scale(0.015625)"/>
      <path id="DejaVuSans-5f" d="M 3263 -1063 
L 3263 -1509 
L -63 -1509 
L -63 -1063 
L 3263 -1063 
z
" transform="scale(0.015625)"/>
      <path id="DejaVuSans-29" d="M 513 4856 
L 1013 4856 
Q 1481 4119 1714 3412 
Q 1947 2706 1947 2009 
Q 1947 1309 1714 600 
Q 1481 -109 1013 -844 
L 513 -844 
Q 928 -128 1133 580 
Q 1338 1288 1338 2009 
Q 1338 2731 1133 3434 
Q 928 4138 513 4856 
z
" transform="scale(0.015625)"/>
     </defs>
     <use xlink:href="#DejaVuSans-50"/>
     <use xlink:href="#DejaVuSans-72" x="58.552734"/>
     <use xlink:href="#DejaVuSans-6f" x="97.416016"/>
     <use xlink:href="#DejaVuSans-70" x="158.597656"/>
     <use xlink:href="#DejaVuSans-6f" x="222.074219"/>
     <use xlink:href="#DejaVuSans-72" x="283.255859"/>
     <use xlink:href="#DejaVuSans-74" x="324.369141"/>
     <use xlink:href="#DejaVuSans-69" x="363.578125"/>
     <use xlink:href="#DejaVuSans-6f" x="391.361328"/>
     <use xlink:href="#DejaVuSans-6e" x="452.542969"/>
     <use xlink:href="#DejaVuSans-73" x="515.921875"/>
     <use xlink:href="#DejaVuSans-20" x="568.021484"/>
     <use xlink:href="#DejaVuSans-6f" x="599.808594"/>
     <use xlink:href="#DejaVuSans-66" x="660.990234"/>
     <use xlink:href="#DejaVuSans-20" x="696.195312"/>
     <use xlink:href="#DejaVuSans-65" x="727.982422"/>
     <use xlink:href="#DejaVuSans-61" x="789.505859"/>
     <use xlink:href="#DejaVuSans-63" x="850.785156"/>
     <use xlink:href="#DejaVuSans-68" x="905.765625"/>
     <use xlink:href="#DejaVuSans-20" x="969.144531"/>
     <use xlink:href="#DejaVuSans-6e" x="1000.931641"/>
     <use xlink:href="#DejaVuSans-6f" x="1064.310547"/>
     <use xlink:href="#DejaVuSans-64" x="1125.492188"/>
     <use xlink:href="#DejaVuSans-65" x="1188.96875"/>
     <use xlink:href="#DejaVuSans-20" x="1250.492188"/>
     <use xlink:href="#DejaVuSans-74" x="1282.279297"/>
     <use xlink:href="#DejaVuSans-79" x="1321.488281"/>
     <use xlink:href="#DejaVuSans-70" x="1380.667969"/>
     <use xlink:href="#DejaVuSans-65" x="1444.144531"/>
     <use xlink:href="#DejaVuSans-2c" x="1505.667969"/>
     <use xlink:href="#DejaVuSans-20" x="1537.455078"/>
     <use xlink:href="#DejaVuSans-70" x="1569.242188"/>
     <use xlink:href="#DejaVuSans-65" x="1632.71875"/>
     <use xlink:href="#DejaVuSans-72" x="1694.242188"/>
     <use xlink:href="#DejaVuSans-20" x="1735.355469"/>
     <use xlink:href="#DejaVuSans-73" x="1767.142578"/>
     <use xlink:href="#DejaVuSans-69" x="1819.242188"/>
     <use xlink:href="#DejaVuSans-7a" x="1847.025391"/>
     <use xlink:href="#DejaVuSans-65" x="1899.515625"/>
     <use xlink:href="#DejaVuSans-20" x="1961.039062"/>
     <use xlink:href="#DejaVuSans-62" x="1992.826172"/>
     <use xlink:href="#DejaVuSans-69" x="2056.302734"/>
     <use xlink:href="#DejaVuSans-6e" x="2084.085938"/>
     <use xlink:href="#DejaVuSans-20" x="2147.464844"/>
     <use xlink:href="#DejaVuSans-28" x="2179.251953"/>
     <use xlink:href="#DejaVuSans-6e" x="2218.265625"/>
     <use xlink:href="#DejaVuSans-69" x="2281.644531"/>
     <use xlink:href="#DejaVuSans-63" x="2309.427734"/>
     <use xlink:href="#DejaVuSans-6f" x="2364.408203"/>
     <use xlink:href="#DejaVuSans-6c" x="2425.589844"/>
     <use xlink:href="#DejaVuSans-61" x="2453.373047"/>
     <use xlink:href="#DejaVuSans-75" x="2514.652344"/>
     <use xlink:href="#DejaVuSans-5f" x="2578.03125"/>
     <use xlink:href="#DejaVuSans-62" x="2628.03125"/>
     <use xlink:href="#DejaVuSans-29" x="2691.507812"/>
    </g>
   </g>
   <g id="legend_1">
    <g id="patch_259">
     <path d="M 216.235938 101.2725 
L 381.8 101.2725 
Q 383.8 101.2725 383.8 99.2725 
L 383.8 41.56 
Q 383.8 39.56 381.8 39.56 
L 216.235938 39.56 
Q 214.235938 39.56 214.235938 41.56 
L 214.235938 99.2725 
Q 214.235938 101.2725 216.235938 101.2725 
z
" style="fill: #ffffff; opacity: 0.8; stroke: #cccccc; stroke-linejoin: miter"/>
    </g>
    <g id="patch_260">
     <path d="M 218.235938 51.158437 
L 238.235938 51.158437 
L 238.235938 44.158437 
L 218.235938 44.158437 
z
" style="fill: #1f77b4"/>
    </g>
    <g id="text_17">
     <!-- Function node proportions -->
     <g transform="translate(246.235938 51.158437)scale(0.1 -0.1)">
      <defs>
       <path id="DejaVuSans-46" d="M 628 4666 
L 3309 4666 
L 3309 4134 
L 1259 4134 
L 1259 2759 
L 3109 2759 
L 3109 2228 
L 1259 2228 
L 1259 0 
L 628 0 
L 628 4666 
z
" transform="scale(0.015625)"/>
      </defs>
      <use xlink:href="#DejaVuSans-46"/>
      <use xlink:href="#DejaVuSans-75" x="52.019531"/>
      <use xlink:href="#DejaVuSans-6e" x="115.398438"/>
      <use xlink:href="#DejaVuSans-63" x="178.777344"/>
      <use xlink:href="#DejaVuSans-74" x="233.757812"/>
      <use xlink:href="#DejaVuSans-69" x="272.966797"/>
      <use xlink:href="#DejaVuSans-6f" x="300.75"/>
      <use xlink:href="#DejaVuSans-6e" x="361.931641"/>
      <use xlink:href="#DejaVuSans-20" x="425.310547"/>
      <use xlink:href="#DejaVuSans-6e" x="457.097656"/>
      <use xlink:href="#DejaVuSans-6f" x="520.476562"/>
      <use xlink:href="#DejaVuSans-64" x="581.658203"/>
      <use xlink:href="#DejaVuSans-65" x="645.134766"/>
      <use xlink:href="#DejaVuSans-20" x="706.658203"/>
      <use xlink:href="#DejaVuSans-70" x="738.445312"/>
      <use xlink:href="#DejaVuSans-72" x="801.921875"/>
      <use xlink:href="#DejaVuSans-6f" x="840.785156"/>
      <use xlink:href="#DejaVuSans-70" x="901.966797"/>
      <use xlink:href="#DejaVuSans-6f" x="965.443359"/>
      <use xlink:href="#DejaVuSans-72" x="1026.625"/>
      <use xlink:href="#DejaVuSans-74" x="1067.738281"/>
      <use xlink:href="#DejaVuSans-69" x="1106.947266"/>
      <use xlink:href="#DejaVuSans-6f" x="1134.730469"/>
      <use xlink:href="#DejaVuSans-6e" x="1195.912109"/>
      <use xlink:href="#DejaVuSans-73" x="1259.291016"/>
     </g>
    </g>
    <g id="patch_261">
     <path d="M 218.235938 65.836562 
L 238.235938 65.836562 
L 238.235938 58.836562 
L 218.235938 58.836562 
z
" style="fill: #ff7f0e"/>
    </g>
    <g id="text_18">
     <!-- Terminal node proportions -->
     <g transform="translate(246.235938 65.836562)scale(0.1 -0.1)">
      <defs>
       <path id="DejaVuSans-54" d="M -19 4666 
L 3928 4666 
L 3928 4134 
L 2272 4134 
L 2272 0 
L 1638 0 
L 1638 4134 
L -19 4134 
L -19 4666 
z
" transform="scale(0.015625)"/>
      </defs>
      <use xlink:href="#DejaVuSans-54"/>
      <use xlink:href="#DejaVuSans-65" x="44.083984"/>
      <use xlink:href="#DejaVuSans-72" x="105.607422"/>
      <use xlink:href="#DejaVuSans-6d" x="144.970703"/>
      <use xlink:href="#DejaVuSans-69" x="242.382812"/>
      <use xlink:href="#DejaVuSans-6e" x="270.166016"/>
      <use xlink:href="#DejaVuSans-61" x="333.544922"/>
      <use xlink:href="#DejaVuSans-6c" x="394.824219"/>
      <use xlink:href="#DejaVuSans-20" x="422.607422"/>
      <use xlink:href="#DejaVuSans-6e" x="454.394531"/>
      <use xlink:href="#DejaVuSans-6f" x="517.773438"/>
      <use xlink:href="#DejaVuSans-64" x="578.955078"/>
      <use xlink:href="#DejaVuSans-65" x="642.431641"/>
      <use xlink:href="#DejaVuSans-20" x="703.955078"/>
      <use xlink:href="#DejaVuSans-70" x="735.742188"/>
      <use xlink:href="#DejaVuSans-72" x="799.21875"/>
      <use xlink:href="#DejaVuSans-6f" x="838.082031"/>
      <use xlink:href="#DejaVuSans-70" x="899.263672"/>
      <use xlink:href="#DejaVuSans-6f" x="962.740234"/>
      <use xlink:href="#DejaVuSans-72" x="1023.921875"/>
      <use xlink:href="#DejaVuSans-74" x="1065.035156"/>
      <use xlink:href="#DejaVuSans-69" x="1104.244141"/>
      <use xlink:href="#DejaVuSans-6f" x="1132.027344"/>
      <use xlink:href="#DejaVuSans-6e" x="1193.208984"/>
      <use xlink:href="#DejaVuSans-73" x="1256.587891"/>
     </g>
    </g>
    <g id="patch_262">
     <path d="M 218.235938 80.514687 
L 238.235938 80.514687 
L 238.235938 73.514687 
L 218.235938 73.514687 
z
" style="fill: #2ca02c"/>
    </g>
    <g id="text_19">
     <!-- Variable node proportions -->
     <g transform="translate(246.235938 80.514687)scale(0.1 -0.1)">
      <defs>
       <path id="DejaVuSans-56" d="M 1831 0 
L 50 4666 
L 709 4666 
L 2188 738 
L 3669 4666 
L 4325 4666 
L 2547 0 
L 1831 0 
z
" transform="scale(0.015625)"/>
      </defs>
      <use xlink:href="#DejaVuSans-56"/>
      <use xlink:href="#DejaVuSans-61" x="60.658203"/>
      <use xlink:href="#DejaVuSans-72" x="121.9375"/>
      <use xlink:href="#DejaVuSans-69" x="163.050781"/>
      <use xlink:href="#DejaVuSans-61" x="190.833984"/>
      <use xlink:href="#DejaVuSans-62" x="252.113281"/>
      <use xlink:href="#DejaVuSans-6c" x="315.589844"/>
      <use xlink:href="#DejaVuSans-65" x="343.373047"/>
      <use xlink:href="#DejaVuSans-20" x="404.896484"/>
      <use xlink:href="#DejaVuSans-6e" x="436.683594"/>
      <use xlink:href="#DejaVuSans-6f" x="500.0625"/>
      <use xlink:href="#DejaVuSans-64" x="561.244141"/>
      <use xlink:href="#DejaVuSans-65" x="624.720703"/>
      <use xlink:href="#DejaVuSans-20" x="686.244141"/>
      <use xlink:href="#DejaVuSans-70" x="718.03125"/>
      <use xlink:href="#DejaVuSans-72" x="781.507812"/>
      <use xlink:href="#DejaVuSans-6f" x="820.371094"/>
      <use xlink:href="#DejaVuSans-70" x="881.552734"/>
      <use xlink:href="#DejaVuSans-6f" x="945.029297"/>
      <use xlink:href="#DejaVuSans-72" x="1006.210938"/>
      <use xlink:href="#DejaVuSans-74" x="1047.324219"/>
      <use xlink:href="#DejaVuSans-69" x="1086.533203"/>
      <use xlink:href="#DejaVuSans-6f" x="1114.316406"/>
      <use xlink:href="#DejaVuSans-6e" x="1175.498047"/>
      <use xlink:href="#DejaVuSans-73" x="1238.876953"/>
     </g>
    </g>
    <g id="patch_263">
     <path d="M 218.235938 95.192813 
L 238.235938 95.192813 
L 238.235938 88.192813 
L 218.235938 88.192813 
z
" style="fill: #d62728"/>
    </g>
    <g id="text_20">
     <!-- Constant node proportions -->
     <g transform="translate(246.235938 95.192813)scale(0.1 -0.1)">
      <defs>
       <path id="DejaVuSans-43" d="M 4122 4306 
L 4122 3641 
Q 3803 3938 3442 4084 
Q 3081 4231 2675 4231 
Q 1875 4231 1450 3742 
Q 1025 3253 1025 2328 
Q 1025 1406 1450 917 
Q 1875 428 2675 428 
Q 3081 428 3442 575 
Q 3803 722 4122 1019 
L 4122 359 
Q 3791 134 3420 21 
Q 3050 -91 2638 -91 
Q 1578 -91 968 557 
Q 359 1206 359 2328 
Q 359 3453 968 4101 
Q 1578 4750 2638 4750 
Q 3056 4750 3426 4639 
Q 3797 4528 4122 4306 
z
" transform="scale(0.015625)"/>
      </defs>
      <use xlink:href="#DejaVuSans-43"/>
      <use xlink:href="#DejaVuSans-6f" x="69.824219"/>
      <use xlink:href="#DejaVuSans-6e" x="131.005859"/>
      <use xlink:href="#DejaVuSans-73" x="194.384766"/>
      <use xlink:href="#DejaVuSans-74" x="246.484375"/>
      <use xlink:href="#DejaVuSans-61" x="285.693359"/>
      <use xlink:href="#DejaVuSans-6e" x="346.972656"/>
      <use xlink:href="#DejaVuSans-74" x="410.351562"/>
      <use xlink:href="#DejaVuSans-20" x="449.560547"/>
      <use xlink:href="#DejaVuSans-6e" x="481.347656"/>
      <use xlink:href="#DejaVuSans-6f" x="544.726562"/>
      <use xlink:href="#DejaVuSans-64" x="605.908203"/>
      <use xlink:href="#DejaVuSans-65" x="669.384766"/>
      <use xlink:href="#DejaVuSans-20" x="730.908203"/>
      <use xlink:href="#DejaVuSans-70" x="762.695312"/>
      <use xlink:href="#DejaVuSans-72" x="826.171875"/>
      <use xlink:href="#DejaVuSans-6f" x="865.035156"/>
      <use xlink:href="#DejaVuSans-70" x="926.216797"/>
      <use xlink:href="#DejaVuSans-6f" x="989.693359"/>
      <use xlink:href="#DejaVuSans-72" x="1050.875"/>
      <use xlink:href="#DejaVuSans-74" x="1091.988281"/>
      <use xlink:href="#DejaVuSans-69" x="1131.197266"/>
      <use xlink:href="#DejaVuSans-6f" x="1158.980469"/>
      <use xlink:href="#DejaVuSans-6e" x="1220.162109"/>
      <use xlink:href="#DejaVuSans-73" x="1283.541016"/>
     </g>
    </g>
   </g>
  </g>
 </g>
 <defs>
  <clipPath id="p65924dc3bc">
   <rect x="54" y="34.56" width="334.8" height="217.44"/>
  </clipPath>
 </defs>
</svg>
