<?xml version="1.0" encoding="utf-8" standalone="no"?>
<!DOCTYPE svg PUBLIC "-//W3C//DTD SVG 1.1//EN"
  "http://www.w3.org/Graphics/SVG/1.1/DTD/svg11.dtd">
<svg xmlns:xlink="http://www.w3.org/1999/xlink" width="460.8pt" height="345.6pt" viewBox="0 0 460.8 345.6" xmlns="http://www.w3.org/2000/svg" version="1.1">
 <metadata>
  <rdf:RDF xmlns:dc="http://purl.org/dc/elements/1.1/" xmlns:cc="http://creativecommons.org/ns#" xmlns:rdf="http://www.w3.org/1999/02/22-rdf-syntax-ns#">
   <cc:Work>
    <dc:type rdf:resource="http://purl.org/dc/dcmitype/StillImage"/>
    <dc:date>2022-10-26T08:09:11.646446</dc:date>
    <dc:format>image/svg+xml</dc:format>
    <dc:creator>
     <cc:Agent>
      <dc:title>Matplotlib v3.6.1, https://matplotlib.org/</dc:title>
     </cc:Agent>
    </dc:creator>
   </cc:Work>
  </rdf:RDF>
 </metadata>
 <defs>
  <style type="text/css">*{stroke-linejoin: round; stroke-linecap: butt}</style>
 </defs>
 <g id="figure_1">
  <g id="patch_1">
   <path d="M 0 345.6 
L 460.8 345.6 
L 460.8 0 
L 0 0 
z
" style="fill: #ffffff"/>
  </g>
  <g id="axes_1">
   <g id="patch_2">
    <path d="M 57.6 307.584 
L 414.72 307.584 
L 414.72 41.472 
L 57.6 41.472 
z
" style="fill: #ffffff"/>
   </g>
   <g id="patch_3">
    <path d="M 73.832727 307.584 
L 77.968454 307.584 
L 77.968454 192.744 
L 73.832727 192.744 
z
" clip-path="url(#p777405f4a5)" style="fill: #1f77b4"/>
   </g>
   <g id="patch_4">
    <path d="M 79.002386 307.584 
L 83.138112 307.584 
L 83.138112 168.984 
L 79.002386 168.984 
z
" clip-path="url(#p777405f4a5)" style="fill: #1f77b4"/>
   </g>
   <g id="patch_5">
    <path d="M 84.172044 307.584 
L 88.307771 307.584 
L 88.307771 198.684 
L 84.172044 198.684 
z
" clip-path="url(#p777405f4a5)" style="fill: #1f77b4"/>
   </g>
   <g id="patch_6">
    <path d="M 89.341702 307.584 
L 93.477429 307.584 
L 93.477429 163.044 
L 89.341702 163.044 
z
" clip-path="url(#p777405f4a5)" style="fill: #1f77b4"/>
   </g>
   <g id="patch_7">
    <path d="M 94.511361 307.584 
L 98.647087 307.584 
L 98.647087 234.324 
L 94.511361 234.324 
z
" clip-path="url(#p777405f4a5)" style="fill: #1f77b4"/>
   </g>
   <g id="patch_8">
    <path d="M 99.681019 307.584 
L 103.816746 307.584 
L 103.816746 127.404 
L 99.681019 127.404 
z
" clip-path="url(#p777405f4a5)" style="fill: #1f77b4"/>
   </g>
   <g id="patch_9">
    <path d="M 104.850677 307.584 
L 108.986404 307.584 
L 108.986404 230.364 
L 104.850677 230.364 
z
" clip-path="url(#p777405f4a5)" style="fill: #1f77b4"/>
   </g>
   <g id="patch_10">
    <path d="M 110.020336 307.584 
L 114.156063 307.584 
L 114.156063 131.364 
L 110.020336 131.364 
z
" clip-path="url(#p777405f4a5)" style="fill: #1f77b4"/>
   </g>
   <g id="patch_11">
    <path d="M 115.189994 307.584 
L 119.325721 307.584 
L 119.325721 232.344 
L 115.189994 232.344 
z
" clip-path="url(#p777405f4a5)" style="fill: #1f77b4"/>
   </g>
   <g id="patch_12">
    <path d="M 120.359653 307.584 
L 124.495379 307.584 
L 124.495379 129.384 
L 120.359653 129.384 
z
" clip-path="url(#p777405f4a5)" style="fill: #1f77b4"/>
   </g>
   <g id="patch_13">
    <path d="M 125.529311 307.584 
L 129.665038 307.584 
L 129.665038 238.284 
L 125.529311 238.284 
z
" clip-path="url(#p777405f4a5)" style="fill: #1f77b4"/>
   </g>
   <g id="patch_14">
    <path d="M 130.698969 307.584 
L 134.834696 307.584 
L 134.834696 123.444 
L 130.698969 123.444 
z
" clip-path="url(#p777405f4a5)" style="fill: #1f77b4"/>
   </g>
   <g id="patch_15">
    <path d="M 135.868628 307.584 
L 140.004354 307.584 
L 140.004354 236.304 
L 135.868628 236.304 
z
" clip-path="url(#p777405f4a5)" style="fill: #1f77b4"/>
   </g>
   <g id="patch_16">
    <path d="M 141.038286 307.584 
L 145.174013 307.584 
L 145.174013 125.424 
L 141.038286 125.424 
z
" clip-path="url(#p777405f4a5)" style="fill: #1f77b4"/>
   </g>
   <g id="patch_17">
    <path d="M 146.207944 307.584 
L 150.343671 307.584 
L 150.343671 224.424 
L 146.207944 224.424 
z
" clip-path="url(#p777405f4a5)" style="fill: #1f77b4"/>
   </g>
   <g id="patch_18">
    <path d="M 151.377603 307.584 
L 155.513329 307.584 
L 155.513329 137.304 
L 151.377603 137.304 
z
" clip-path="url(#p777405f4a5)" style="fill: #1f77b4"/>
   </g>
   <g id="patch_19">
    <path d="M 156.547261 307.584 
L 160.682988 307.584 
L 160.682988 236.304 
L 156.547261 236.304 
z
" clip-path="url(#p777405f4a5)" style="fill: #1f77b4"/>
   </g>
   <g id="patch_20">
    <path d="M 161.71692 307.584 
L 165.852646 307.584 
L 165.852646 125.424 
L 161.71692 125.424 
z
" clip-path="url(#p777405f4a5)" style="fill: #1f77b4"/>
   </g>
   <g id="patch_21">
    <path d="M 166.886578 307.584 
L 171.022305 307.584 
L 171.022305 218.484 
L 166.886578 218.484 
z
" clip-path="url(#p777405f4a5)" style="fill: #1f77b4"/>
   </g>
   <g id="patch_22">
    <path d="M 172.056236 307.584 
L 176.191963 307.584 
L 176.191963 143.244 
L 172.056236 143.244 
z
" clip-path="url(#p777405f4a5)" style="fill: #1f77b4"/>
   </g>
   <g id="patch_23">
    <path d="M 177.225895 307.584 
L 181.361621 307.584 
L 181.361621 230.364 
L 177.225895 230.364 
z
" clip-path="url(#p777405f4a5)" style="fill: #1f77b4"/>
   </g>
   <g id="patch_24">
    <path d="M 182.395553 307.584 
L 186.53128 307.584 
L 186.53128 131.364 
L 182.395553 131.364 
z
" clip-path="url(#p777405f4a5)" style="fill: #1f77b4"/>
   </g>
   <g id="patch_25">
    <path d="M 187.565211 307.584 
L 191.700938 307.584 
L 191.700938 216.504 
L 187.565211 216.504 
z
" clip-path="url(#p777405f4a5)" style="fill: #1f77b4"/>
   </g>
   <g id="patch_26">
    <path d="M 192.73487 307.584 
L 196.870596 307.584 
L 196.870596 145.224 
L 192.73487 145.224 
z
" clip-path="url(#p777405f4a5)" style="fill: #1f77b4"/>
   </g>
   <g id="patch_27">
    <path d="M 197.904528 307.584 
L 202.040255 307.584 
L 202.040255 212.544 
L 197.904528 212.544 
z
" clip-path="url(#p777405f4a5)" style="fill: #1f77b4"/>
   </g>
   <g id="patch_28">
    <path d="M 203.074186 307.584 
L 207.209913 307.584 
L 207.209913 149.184 
L 203.074186 149.184 
z
" clip-path="url(#p777405f4a5)" style="fill: #1f77b4"/>
   </g>
   <g id="patch_29">
    <path d="M 208.243845 307.584 
L 212.379572 307.584 
L 212.379572 216.504 
L 208.243845 216.504 
z
" clip-path="url(#p777405f4a5)" style="fill: #1f77b4"/>
   </g>
   <g id="patch_30">
    <path d="M 213.413503 307.584 
L 217.54923 307.584 
L 217.54923 145.224 
L 213.413503 145.224 
z
" clip-path="url(#p777405f4a5)" style="fill: #1f77b4"/>
   </g>
   <g id="patch_31">
    <path d="M 218.583162 307.584 
L 222.718888 307.584 
L 222.718888 224.424 
L 218.583162 224.424 
z
" clip-path="url(#p777405f4a5)" style="fill: #1f77b4"/>
   </g>
   <g id="patch_32">
    <path d="M 223.75282 307.584 
L 227.888547 307.584 
L 227.888547 137.304 
L 223.75282 137.304 
z
" clip-path="url(#p777405f4a5)" style="fill: #1f77b4"/>
   </g>
   <g id="patch_33">
    <path d="M 228.922478 307.584 
L 233.058205 307.584 
L 233.058205 212.544 
L 228.922478 212.544 
z
" clip-path="url(#p777405f4a5)" style="fill: #1f77b4"/>
   </g>
   <g id="patch_34">
    <path d="M 234.092137 307.584 
L 238.227863 307.584 
L 238.227863 149.184 
L 234.092137 149.184 
z
" clip-path="url(#p777405f4a5)" style="fill: #1f77b4"/>
   </g>
   <g id="patch_35">
    <path d="M 239.261795 307.584 
L 243.397522 307.584 
L 243.397522 226.404 
L 239.261795 226.404 
z
" clip-path="url(#p777405f4a5)" style="fill: #1f77b4"/>
   </g>
   <g id="patch_36">
    <path d="M 244.431453 307.584 
L 248.56718 307.584 
L 248.56718 135.324 
L 244.431453 135.324 
z
" clip-path="url(#p777405f4a5)" style="fill: #1f77b4"/>
   </g>
   <g id="patch_37">
    <path d="M 249.601112 307.584 
L 253.736838 307.584 
L 253.736838 224.424 
L 249.601112 224.424 
z
" clip-path="url(#p777405f4a5)" style="fill: #1f77b4"/>
   </g>
   <g id="patch_38">
    <path d="M 254.77077 307.584 
L 258.906497 307.584 
L 258.906497 137.304 
L 254.77077 137.304 
z
" clip-path="url(#p777405f4a5)" style="fill: #1f77b4"/>
   </g>
   <g id="patch_39">
    <path d="M 259.940428 307.584 
L 264.076155 307.584 
L 264.076155 220.464 
L 259.940428 220.464 
z
" clip-path="url(#p777405f4a5)" style="fill: #1f77b4"/>
   </g>
   <g id="patch_40">
    <path d="M 265.110087 307.584 
L 269.245814 307.584 
L 269.245814 141.264 
L 265.110087 141.264 
z
" clip-path="url(#p777405f4a5)" style="fill: #1f77b4"/>
   </g>
   <g id="patch_41">
    <path d="M 270.279745 307.584 
L 274.415472 307.584 
L 274.415472 212.544 
L 270.279745 212.544 
z
" clip-path="url(#p777405f4a5)" style="fill: #1f77b4"/>
   </g>
   <g id="patch_42">
    <path d="M 275.449404 307.584 
L 279.58513 307.584 
L 279.58513 149.184 
L 275.449404 149.184 
z
" clip-path="url(#p777405f4a5)" style="fill: #1f77b4"/>
   </g>
   <g id="patch_43">
    <path d="M 280.619062 307.584 
L 284.754789 307.584 
L 284.754789 214.524 
L 280.619062 214.524 
z
" clip-path="url(#p777405f4a5)" style="fill: #1f77b4"/>
   </g>
   <g id="patch_44">
    <path d="M 285.78872 307.584 
L 289.924447 307.584 
L 289.924447 147.204 
L 285.78872 147.204 
z
" clip-path="url(#p777405f4a5)" style="fill: #1f77b4"/>
   </g>
   <g id="patch_45">
    <path d="M 290.958379 307.584 
L 295.094105 307.584 
L 295.094105 208.584 
L 290.958379 208.584 
z
" clip-path="url(#p777405f4a5)" style="fill: #1f77b4"/>
   </g>
   <g id="patch_46">
    <path d="M 296.128037 307.584 
L 300.263764 307.584 
L 300.263764 153.144 
L 296.128037 153.144 
z
" clip-path="url(#p777405f4a5)" style="fill: #1f77b4"/>
   </g>
   <g id="patch_47">
    <path d="M 301.297695 307.584 
L 305.433422 307.584 
L 305.433422 224.424 
L 301.297695 224.424 
z
" clip-path="url(#p777405f4a5)" style="fill: #1f77b4"/>
   </g>
   <g id="patch_48">
    <path d="M 306.467354 307.584 
L 310.60308 307.584 
L 310.60308 137.304 
L 306.467354 137.304 
z
" clip-path="url(#p777405f4a5)" style="fill: #1f77b4"/>
   </g>
   <g id="patch_49">
    <path d="M 311.637012 307.584 
L 315.772739 307.584 
L 315.772739 208.584 
L 311.637012 208.584 
z
" clip-path="url(#p777405f4a5)" style="fill: #1f77b4"/>
   </g>
   <g id="patch_50">
    <path d="M 316.806671 307.584 
L 320.942397 307.584 
L 320.942397 153.144 
L 316.806671 153.144 
z
" clip-path="url(#p777405f4a5)" style="fill: #1f77b4"/>
   </g>
   <g id="patch_51">
    <path d="M 321.976329 307.584 
L 326.112056 307.584 
L 326.112056 200.664 
L 321.976329 200.664 
z
" clip-path="url(#p777405f4a5)" style="fill: #1f77b4"/>
   </g>
   <g id="patch_52">
    <path d="M 327.145987 307.584 
L 331.281714 307.584 
L 331.281714 161.064 
L 327.145987 161.064 
z
" clip-path="url(#p777405f4a5)" style="fill: #1f77b4"/>
   </g>
   <g id="patch_53">
    <path d="M 332.315646 307.584 
L 336.451372 307.584 
L 336.451372 184.824 
L 332.315646 184.824 
z
" clip-path="url(#p777405f4a5)" style="fill: #1f77b4"/>
   </g>
   <g id="patch_54">
    <path d="M 337.485304 307.584 
L 341.621031 307.584 
L 341.621031 176.904 
L 337.485304 176.904 
z
" clip-path="url(#p777405f4a5)" style="fill: #1f77b4"/>
   </g>
   <g id="patch_55">
    <path d="M 342.654962 307.584 
L 346.790689 307.584 
L 346.790689 210.564 
L 342.654962 210.564 
z
" clip-path="url(#p777405f4a5)" style="fill: #1f77b4"/>
   </g>
   <g id="patch_56">
    <path d="M 347.824621 307.584 
L 351.960347 307.584 
L 351.960347 151.164 
L 347.824621 151.164 
z
" clip-path="url(#p777405f4a5)" style="fill: #1f77b4"/>
   </g>
   <g id="patch_57">
    <path d="M 352.994279 307.584 
L 357.130006 307.584 
L 357.130006 186.804 
L 352.994279 186.804 
z
" clip-path="url(#p777405f4a5)" style="fill: #1f77b4"/>
   </g>
   <g id="patch_58">
    <path d="M 358.163937 307.584 
L 362.299664 307.584 
L 362.299664 174.924 
L 358.163937 174.924 
z
" clip-path="url(#p777405f4a5)" style="fill: #1f77b4"/>
   </g>
   <g id="patch_59">
    <path d="M 363.333596 307.584 
L 367.469323 307.584 
L 367.469323 198.684 
L 363.333596 198.684 
z
" clip-path="url(#p777405f4a5)" style="fill: #1f77b4"/>
   </g>
   <g id="patch_60">
    <path d="M 368.503254 307.584 
L 372.638981 307.584 
L 372.638981 163.044 
L 368.503254 163.044 
z
" clip-path="url(#p777405f4a5)" style="fill: #1f77b4"/>
   </g>
   <g id="patch_61">
    <path d="M 373.672913 307.584 
L 377.808639 307.584 
L 377.808639 184.824 
L 373.672913 184.824 
z
" clip-path="url(#p777405f4a5)" style="fill: #1f77b4"/>
   </g>
   <g id="patch_62">
    <path d="M 378.842571 307.584 
L 382.978298 307.584 
L 382.978298 176.904 
L 378.842571 176.904 
z
" clip-path="url(#p777405f4a5)" style="fill: #1f77b4"/>
   </g>
   <g id="patch_63">
    <path d="M 384.012229 307.584 
L 388.147956 307.584 
L 388.147956 192.744 
L 384.012229 192.744 
z
" clip-path="url(#p777405f4a5)" style="fill: #1f77b4"/>
   </g>
   <g id="patch_64">
    <path d="M 389.181888 307.584 
L 393.317614 307.584 
L 393.317614 168.984 
L 389.181888 168.984 
z
" clip-path="url(#p777405f4a5)" style="fill: #1f77b4"/>
   </g>
   <g id="patch_65">
    <path d="M 394.351546 307.584 
L 398.487273 307.584 
L 398.487273 54.144 
L 394.351546 54.144 
z
" clip-path="url(#p777405f4a5)" style="fill: #1f77b4"/>
   </g>
   <g id="matplotlib.axis_1">
    <g id="xtick_1">
     <g id="line2d_1">
      <defs>
       <path id="md3ef2bb51c" d="M 0 0 
L 0 3.5 
" style="stroke: #000000; stroke-width: 0.8"/>
      </defs>
      <g>
       <use xlink:href="#md3ef2bb51c" x="70.730932" y="307.584" style="stroke: #000000; stroke-width: 0.8"/>
      </g>
     </g>
     <g id="text_1">
      <!-- 0 -->
      <g transform="translate(67.549682 322.182437) scale(0.1 -0.1)">
       <defs>
        <path id="DejaVuSans-30" d="M 2034 4250 
Q 1547 4250 1301 3770 
Q 1056 3291 1056 2328 
Q 1056 1369 1301 889 
Q 1547 409 2034 409 
Q 2525 409 2770 889 
Q 3016 1369 3016 2328 
Q 3016 3291 2770 3770 
Q 2525 4250 2034 4250 
z
M 2034 4750 
Q 2819 4750 3233 4129 
Q 3647 3509 3647 2328 
Q 3647 1150 3233 529 
Q 2819 -91 2034 -91 
Q 1250 -91 836 529 
Q 422 1150 422 2328 
Q 422 3509 836 4129 
Q 1250 4750 2034 4750 
z
" transform="scale(0.015625)"/>
       </defs>
       <use xlink:href="#DejaVuSans-30"/>
      </g>
     </g>
    </g>
    <g id="xtick_2">
     <g id="line2d_2">
      <g>
       <use xlink:href="#md3ef2bb51c" x="122.427516" y="307.584" style="stroke: #000000; stroke-width: 0.8"/>
      </g>
     </g>
     <g id="text_2">
      <!-- 10 -->
      <g transform="translate(116.065016 322.182437) scale(0.1 -0.1)">
       <defs>
        <path id="DejaVuSans-31" d="M 794 531 
L 1825 531 
L 1825 4091 
L 703 3866 
L 703 4441 
L 1819 4666 
L 2450 4666 
L 2450 531 
L 3481 531 
L 3481 0 
L 794 0 
L 794 531 
z
" transform="scale(0.015625)"/>
       </defs>
       <use xlink:href="#DejaVuSans-31"/>
       <use xlink:href="#DejaVuSans-30" x="63.623047"/>
      </g>
     </g>
    </g>
    <g id="xtick_3">
     <g id="line2d_3">
      <g>
       <use xlink:href="#md3ef2bb51c" x="174.1241" y="307.584" style="stroke: #000000; stroke-width: 0.8"/>
      </g>
     </g>
     <g id="text_3">
      <!-- 20 -->
      <g transform="translate(167.7616 322.182437) scale(0.1 -0.1)">
       <defs>
        <path id="DejaVuSans-32" d="M 1228 531 
L 3431 531 
L 3431 0 
L 469 0 
L 469 531 
Q 828 903 1448 1529 
Q 2069 2156 2228 2338 
Q 2531 2678 2651 2914 
Q 2772 3150 2772 3378 
Q 2772 3750 2511 3984 
Q 2250 4219 1831 4219 
Q 1534 4219 1204 4116 
Q 875 4013 500 3803 
L 500 4441 
Q 881 4594 1212 4672 
Q 1544 4750 1819 4750 
Q 2544 4750 2975 4387 
Q 3406 4025 3406 3419 
Q 3406 3131 3298 2873 
Q 3191 2616 2906 2266 
Q 2828 2175 2409 1742 
Q 1991 1309 1228 531 
z
" transform="scale(0.015625)"/>
       </defs>
       <use xlink:href="#DejaVuSans-32"/>
       <use xlink:href="#DejaVuSans-30" x="63.623047"/>
      </g>
     </g>
    </g>
    <g id="xtick_4">
     <g id="line2d_4">
      <g>
       <use xlink:href="#md3ef2bb51c" x="225.820683" y="307.584" style="stroke: #000000; stroke-width: 0.8"/>
      </g>
     </g>
     <g id="text_4">
      <!-- 30 -->
      <g transform="translate(219.458183 322.182437) scale(0.1 -0.1)">
       <defs>
        <path id="DejaVuSans-33" d="M 2597 2516 
Q 3050 2419 3304 2112 
Q 3559 1806 3559 1356 
Q 3559 666 3084 287 
Q 2609 -91 1734 -91 
Q 1441 -91 1130 -33 
Q 819 25 488 141 
L 488 750 
Q 750 597 1062 519 
Q 1375 441 1716 441 
Q 2309 441 2620 675 
Q 2931 909 2931 1356 
Q 2931 1769 2642 2001 
Q 2353 2234 1838 2234 
L 1294 2234 
L 1294 2753 
L 1863 2753 
Q 2328 2753 2575 2939 
Q 2822 3125 2822 3475 
Q 2822 3834 2567 4026 
Q 2313 4219 1838 4219 
Q 1578 4219 1281 4162 
Q 984 4106 628 3988 
L 628 4550 
Q 988 4650 1302 4700 
Q 1616 4750 1894 4750 
Q 2613 4750 3031 4423 
Q 3450 4097 3450 3541 
Q 3450 3153 3228 2886 
Q 3006 2619 2597 2516 
z
" transform="scale(0.015625)"/>
       </defs>
       <use xlink:href="#DejaVuSans-33"/>
       <use xlink:href="#DejaVuSans-30" x="63.623047"/>
      </g>
     </g>
    </g>
    <g id="xtick_5">
     <g id="line2d_5">
      <g>
       <use xlink:href="#md3ef2bb51c" x="277.517267" y="307.584" style="stroke: #000000; stroke-width: 0.8"/>
      </g>
     </g>
     <g id="text_5">
      <!-- 40 -->
      <g transform="translate(271.154767 322.182437) scale(0.1 -0.1)">
       <defs>
        <path id="DejaVuSans-34" d="M 2419 4116 
L 825 1625 
L 2419 1625 
L 2419 4116 
z
M 2253 4666 
L 3047 4666 
L 3047 1625 
L 3713 1625 
L 3713 1100 
L 3047 1100 
L 3047 0 
L 2419 0 
L 2419 1100 
L 313 1100 
L 313 1709 
L 2253 4666 
z
" transform="scale(0.015625)"/>
       </defs>
       <use xlink:href="#DejaVuSans-34"/>
       <use xlink:href="#DejaVuSans-30" x="63.623047"/>
      </g>
     </g>
    </g>
    <g id="xtick_6">
     <g id="line2d_6">
      <g>
       <use xlink:href="#md3ef2bb51c" x="329.213851" y="307.584" style="stroke: #000000; stroke-width: 0.8"/>
      </g>
     </g>
     <g id="text_6">
      <!-- 50 -->
      <g transform="translate(322.851351 322.182437) scale(0.1 -0.1)">
       <defs>
        <path id="DejaVuSans-35" d="M 691 4666 
L 3169 4666 
L 3169 4134 
L 1269 4134 
L 1269 2991 
Q 1406 3038 1543 3061 
Q 1681 3084 1819 3084 
Q 2600 3084 3056 2656 
Q 3513 2228 3513 1497 
Q 3513 744 3044 326 
Q 2575 -91 1722 -91 
Q 1428 -91 1123 -41 
Q 819 9 494 109 
L 494 744 
Q 775 591 1075 516 
Q 1375 441 1709 441 
Q 2250 441 2565 725 
Q 2881 1009 2881 1497 
Q 2881 1984 2565 2268 
Q 2250 2553 1709 2553 
Q 1456 2553 1204 2497 
Q 953 2441 691 2322 
L 691 4666 
z
" transform="scale(0.015625)"/>
       </defs>
       <use xlink:href="#DejaVuSans-35"/>
       <use xlink:href="#DejaVuSans-30" x="63.623047"/>
      </g>
     </g>
    </g>
    <g id="xtick_7">
     <g id="line2d_7">
      <g>
       <use xlink:href="#md3ef2bb51c" x="380.910434" y="307.584" style="stroke: #000000; stroke-width: 0.8"/>
      </g>
     </g>
     <g id="text_7">
      <!-- 60 -->
      <g transform="translate(374.547934 322.182437) scale(0.1 -0.1)">
       <defs>
        <path id="DejaVuSans-36" d="M 2113 2584 
Q 1688 2584 1439 2293 
Q 1191 2003 1191 1497 
Q 1191 994 1439 701 
Q 1688 409 2113 409 
Q 2538 409 2786 701 
Q 3034 994 3034 1497 
Q 3034 2003 2786 2293 
Q 2538 2584 2113 2584 
z
M 3366 4563 
L 3366 3988 
Q 3128 4100 2886 4159 
Q 2644 4219 2406 4219 
Q 1781 4219 1451 3797 
Q 1122 3375 1075 2522 
Q 1259 2794 1537 2939 
Q 1816 3084 2150 3084 
Q 2853 3084 3261 2657 
Q 3669 2231 3669 1497 
Q 3669 778 3244 343 
Q 2819 -91 2113 -91 
Q 1303 -91 875 529 
Q 447 1150 447 2328 
Q 447 3434 972 4092 
Q 1497 4750 2381 4750 
Q 2619 4750 2861 4703 
Q 3103 4656 3366 4563 
z
" transform="scale(0.015625)"/>
       </defs>
       <use xlink:href="#DejaVuSans-36"/>
       <use xlink:href="#DejaVuSans-30" x="63.623047"/>
      </g>
     </g>
    </g>
    <g id="text_8">
     <!-- Size -->
     <g transform="translate(225.895938 335.860562) scale(0.1 -0.1)">
      <defs>
       <path id="DejaVuSans-53" d="M 3425 4513 
L 3425 3897 
Q 3066 4069 2747 4153 
Q 2428 4238 2131 4238 
Q 1616 4238 1336 4038 
Q 1056 3838 1056 3469 
Q 1056 3159 1242 3001 
Q 1428 2844 1947 2747 
L 2328 2669 
Q 3034 2534 3370 2195 
Q 3706 1856 3706 1288 
Q 3706 609 3251 259 
Q 2797 -91 1919 -91 
Q 1588 -91 1214 -16 
Q 841 59 441 206 
L 441 856 
Q 825 641 1194 531 
Q 1563 422 1919 422 
Q 2459 422 2753 634 
Q 3047 847 3047 1241 
Q 3047 1584 2836 1778 
Q 2625 1972 2144 2069 
L 1759 2144 
Q 1053 2284 737 2584 
Q 422 2884 422 3419 
Q 422 4038 858 4394 
Q 1294 4750 2059 4750 
Q 2388 4750 2728 4690 
Q 3069 4631 3425 4513 
z
" transform="scale(0.015625)"/>
       <path id="DejaVuSans-69" d="M 603 3500 
L 1178 3500 
L 1178 0 
L 603 0 
L 603 3500 
z
M 603 4863 
L 1178 4863 
L 1178 4134 
L 603 4134 
L 603 4863 
z
" transform="scale(0.015625)"/>
       <path id="DejaVuSans-7a" d="M 353 3500 
L 3084 3500 
L 3084 2975 
L 922 459 
L 3084 459 
L 3084 0 
L 275 0 
L 275 525 
L 2438 3041 
L 353 3041 
L 353 3500 
z
" transform="scale(0.015625)"/>
       <path id="DejaVuSans-65" d="M 3597 1894 
L 3597 1613 
L 953 1613 
Q 991 1019 1311 708 
Q 1631 397 2203 397 
Q 2534 397 2845 478 
Q 3156 559 3463 722 
L 3463 178 
Q 3153 47 2828 -22 
Q 2503 -91 2169 -91 
Q 1331 -91 842 396 
Q 353 884 353 1716 
Q 353 2575 817 3079 
Q 1281 3584 2069 3584 
Q 2775 3584 3186 3129 
Q 3597 2675 3597 1894 
z
M 3022 2063 
Q 3016 2534 2758 2815 
Q 2500 3097 2075 3097 
Q 1594 3097 1305 2825 
Q 1016 2553 972 2059 
L 3022 2063 
z
" transform="scale(0.015625)"/>
      </defs>
      <use xlink:href="#DejaVuSans-53"/>
      <use xlink:href="#DejaVuSans-69" x="63.476562"/>
      <use xlink:href="#DejaVuSans-7a" x="91.259766"/>
      <use xlink:href="#DejaVuSans-65" x="143.75"/>
     </g>
    </g>
   </g>
   <g id="matplotlib.axis_2">
    <g id="ytick_1">
     <g id="line2d_8">
      <defs>
       <path id="m6d74cc3191" d="M 0 0 
L -3.5 0 
" style="stroke: #000000; stroke-width: 0.8"/>
      </defs>
      <g>
       <use xlink:href="#m6d74cc3191" x="57.6" y="307.584" style="stroke: #000000; stroke-width: 0.8"/>
      </g>
     </g>
     <g id="text_9">
      <!-- 0 -->
      <g transform="translate(44.2375 311.383219) scale(0.1 -0.1)">
       <use xlink:href="#DejaVuSans-30"/>
      </g>
     </g>
    </g>
    <g id="ytick_2">
     <g id="line2d_9">
      <g>
       <use xlink:href="#m6d74cc3191" x="57.6" y="267.984" style="stroke: #000000; stroke-width: 0.8"/>
      </g>
     </g>
     <g id="text_10">
      <!-- 20 -->
      <g transform="translate(37.875 271.783219) scale(0.1 -0.1)">
       <use xlink:href="#DejaVuSans-32"/>
       <use xlink:href="#DejaVuSans-30" x="63.623047"/>
      </g>
     </g>
    </g>
    <g id="ytick_3">
     <g id="line2d_10">
      <g>
       <use xlink:href="#m6d74cc3191" x="57.6" y="228.384" style="stroke: #000000; stroke-width: 0.8"/>
      </g>
     </g>
     <g id="text_11">
      <!-- 40 -->
      <g transform="translate(37.875 232.183219) scale(0.1 -0.1)">
       <use xlink:href="#DejaVuSans-34"/>
       <use xlink:href="#DejaVuSans-30" x="63.623047"/>
      </g>
     </g>
    </g>
    <g id="ytick_4">
     <g id="line2d_11">
      <g>
       <use xlink:href="#m6d74cc3191" x="57.6" y="188.784" style="stroke: #000000; stroke-width: 0.8"/>
      </g>
     </g>
     <g id="text_12">
      <!-- 60 -->
      <g transform="translate(37.875 192.583219) scale(0.1 -0.1)">
       <use xlink:href="#DejaVuSans-36"/>
       <use xlink:href="#DejaVuSans-30" x="63.623047"/>
      </g>
     </g>
    </g>
    <g id="ytick_5">
     <g id="line2d_12">
      <g>
       <use xlink:href="#m6d74cc3191" x="57.6" y="149.184" style="stroke: #000000; stroke-width: 0.8"/>
      </g>
     </g>
     <g id="text_13">
      <!-- 80 -->
      <g transform="translate(37.875 152.983219) scale(0.1 -0.1)">
       <defs>
        <path id="DejaVuSans-38" d="M 2034 2216 
Q 1584 2216 1326 1975 
Q 1069 1734 1069 1313 
Q 1069 891 1326 650 
Q 1584 409 2034 409 
Q 2484 409 2743 651 
Q 3003 894 3003 1313 
Q 3003 1734 2745 1975 
Q 2488 2216 2034 2216 
z
M 1403 2484 
Q 997 2584 770 2862 
Q 544 3141 544 3541 
Q 544 4100 942 4425 
Q 1341 4750 2034 4750 
Q 2731 4750 3128 4425 
Q 3525 4100 3525 3541 
Q 3525 3141 3298 2862 
Q 3072 2584 2669 2484 
Q 3125 2378 3379 2068 
Q 3634 1759 3634 1313 
Q 3634 634 3220 271 
Q 2806 -91 2034 -91 
Q 1263 -91 848 271 
Q 434 634 434 1313 
Q 434 1759 690 2068 
Q 947 2378 1403 2484 
z
M 1172 3481 
Q 1172 3119 1398 2916 
Q 1625 2713 2034 2713 
Q 2441 2713 2670 2916 
Q 2900 3119 2900 3481 
Q 2900 3844 2670 4047 
Q 2441 4250 2034 4250 
Q 1625 4250 1398 4047 
Q 1172 3844 1172 3481 
z
" transform="scale(0.015625)"/>
       </defs>
       <use xlink:href="#DejaVuSans-38"/>
       <use xlink:href="#DejaVuSans-30" x="63.623047"/>
      </g>
     </g>
    </g>
    <g id="ytick_6">
     <g id="line2d_13">
      <g>
       <use xlink:href="#m6d74cc3191" x="57.6" y="109.584" style="stroke: #000000; stroke-width: 0.8"/>
      </g>
     </g>
     <g id="text_14">
      <!-- 100 -->
      <g transform="translate(31.5125 113.383219) scale(0.1 -0.1)">
       <use xlink:href="#DejaVuSans-31"/>
       <use xlink:href="#DejaVuSans-30" x="63.623047"/>
       <use xlink:href="#DejaVuSans-30" x="127.246094"/>
      </g>
     </g>
    </g>
    <g id="ytick_7">
     <g id="line2d_14">
      <g>
       <use xlink:href="#m6d74cc3191" x="57.6" y="69.984" style="stroke: #000000; stroke-width: 0.8"/>
      </g>
     </g>
     <g id="text_15">
      <!-- 120 -->
      <g transform="translate(31.5125 73.783219) scale(0.1 -0.1)">
       <use xlink:href="#DejaVuSans-31"/>
       <use xlink:href="#DejaVuSans-32" x="63.623047"/>
       <use xlink:href="#DejaVuSans-30" x="127.246094"/>
      </g>
     </g>
    </g>
    <g id="text_16">
     <!-- Size counts -->
     <g transform="translate(25.432812 203.092062) rotate(-90) scale(0.1 -0.1)">
      <defs>
       <path id="DejaVuSans-20" transform="scale(0.015625)"/>
       <path id="DejaVuSans-63" d="M 3122 3366 
L 3122 2828 
Q 2878 2963 2633 3030 
Q 2388 3097 2138 3097 
Q 1578 3097 1268 2742 
Q 959 2388 959 1747 
Q 959 1106 1268 751 
Q 1578 397 2138 397 
Q 2388 397 2633 464 
Q 2878 531 3122 666 
L 3122 134 
Q 2881 22 2623 -34 
Q 2366 -91 2075 -91 
Q 1284 -91 818 406 
Q 353 903 353 1747 
Q 353 2603 823 3093 
Q 1294 3584 2113 3584 
Q 2378 3584 2631 3529 
Q 2884 3475 3122 3366 
z
" transform="scale(0.015625)"/>
       <path id="DejaVuSans-6f" d="M 1959 3097 
Q 1497 3097 1228 2736 
Q 959 2375 959 1747 
Q 959 1119 1226 758 
Q 1494 397 1959 397 
Q 2419 397 2687 759 
Q 2956 1122 2956 1747 
Q 2956 2369 2687 2733 
Q 2419 3097 1959 3097 
z
M 1959 3584 
Q 2709 3584 3137 3096 
Q 3566 2609 3566 1747 
Q 3566 888 3137 398 
Q 2709 -91 1959 -91 
Q 1206 -91 779 398 
Q 353 888 353 1747 
Q 353 2609 779 3096 
Q 1206 3584 1959 3584 
z
" transform="scale(0.015625)"/>
       <path id="DejaVuSans-75" d="M 544 1381 
L 544 3500 
L 1119 3500 
L 1119 1403 
Q 1119 906 1312 657 
Q 1506 409 1894 409 
Q 2359 409 2629 706 
Q 2900 1003 2900 1516 
L 2900 3500 
L 3475 3500 
L 3475 0 
L 2900 0 
L 2900 538 
Q 2691 219 2414 64 
Q 2138 -91 1772 -91 
Q 1169 -91 856 284 
Q 544 659 544 1381 
z
M 1991 3584 
L 1991 3584 
z
" transform="scale(0.015625)"/>
       <path id="DejaVuSans-6e" d="M 3513 2113 
L 3513 0 
L 2938 0 
L 2938 2094 
Q 2938 2591 2744 2837 
Q 2550 3084 2163 3084 
Q 1697 3084 1428 2787 
Q 1159 2491 1159 1978 
L 1159 0 
L 581 0 
L 581 3500 
L 1159 3500 
L 1159 2956 
Q 1366 3272 1645 3428 
Q 1925 3584 2291 3584 
Q 2894 3584 3203 3211 
Q 3513 2838 3513 2113 
z
" transform="scale(0.015625)"/>
       <path id="DejaVuSans-74" d="M 1172 4494 
L 1172 3500 
L 2356 3500 
L 2356 3053 
L 1172 3053 
L 1172 1153 
Q 1172 725 1289 603 
Q 1406 481 1766 481 
L 2356 481 
L 2356 0 
L 1766 0 
Q 1100 0 847 248 
Q 594 497 594 1153 
L 594 3053 
L 172 3053 
L 172 3500 
L 594 3500 
L 594 4494 
L 1172 4494 
z
" transform="scale(0.015625)"/>
       <path id="DejaVuSans-73" d="M 2834 3397 
L 2834 2853 
Q 2591 2978 2328 3040 
Q 2066 3103 1784 3103 
Q 1356 3103 1142 2972 
Q 928 2841 928 2578 
Q 928 2378 1081 2264 
Q 1234 2150 1697 2047 
L 1894 2003 
Q 2506 1872 2764 1633 
Q 3022 1394 3022 966 
Q 3022 478 2636 193 
Q 2250 -91 1575 -91 
Q 1294 -91 989 -36 
Q 684 19 347 128 
L 347 722 
Q 666 556 975 473 
Q 1284 391 1588 391 
Q 1994 391 2212 530 
Q 2431 669 2431 922 
Q 2431 1156 2273 1281 
Q 2116 1406 1581 1522 
L 1381 1569 
Q 847 1681 609 1914 
Q 372 2147 372 2553 
Q 372 3047 722 3315 
Q 1072 3584 1716 3584 
Q 2034 3584 2315 3537 
Q 2597 3491 2834 3397 
z
" transform="scale(0.015625)"/>
      </defs>
      <use xlink:href="#DejaVuSans-53"/>
      <use xlink:href="#DejaVuSans-69" x="63.476562"/>
      <use xlink:href="#DejaVuSans-7a" x="91.259766"/>
      <use xlink:href="#DejaVuSans-65" x="143.75"/>
      <use xlink:href="#DejaVuSans-20" x="205.273438"/>
      <use xlink:href="#DejaVuSans-63" x="237.060547"/>
      <use xlink:href="#DejaVuSans-6f" x="292.041016"/>
      <use xlink:href="#DejaVuSans-75" x="353.222656"/>
      <use xlink:href="#DejaVuSans-6e" x="416.601562"/>
      <use xlink:href="#DejaVuSans-74" x="479.980469"/>
      <use xlink:href="#DejaVuSans-73" x="519.189453"/>
     </g>
    </g>
   </g>
   <g id="patch_66">
    <path d="M 57.6 307.584 
L 57.6 41.472 
" style="fill: none; stroke: #000000; stroke-width: 0.8; stroke-linejoin: miter; stroke-linecap: square"/>
   </g>
   <g id="patch_67">
    <path d="M 414.72 307.584 
L 414.72 41.472 
" style="fill: none; stroke: #000000; stroke-width: 0.8; stroke-linejoin: miter; stroke-linecap: square"/>
   </g>
   <g id="patch_68">
    <path d="M 57.6 307.584 
L 414.72 307.584 
" style="fill: none; stroke: #000000; stroke-width: 0.8; stroke-linejoin: miter; stroke-linecap: square"/>
   </g>
   <g id="patch_69">
    <path d="M 57.6 41.472 
L 414.72 41.472 
" style="fill: none; stroke: #000000; stroke-width: 0.8; stroke-linejoin: miter; stroke-linecap: square"/>
   </g>
   <g id="text_17">
    <!-- Number of instances of each size (nicolau_b) -->
    <g transform="translate(101.325 35.472) scale(0.12 -0.12)">
     <defs>
      <path id="DejaVuSans-4e" d="M 628 4666 
L 1478 4666 
L 3547 763 
L 3547 4666 
L 4159 4666 
L 4159 0 
L 3309 0 
L 1241 3903 
L 1241 0 
L 628 0 
L 628 4666 
z
" transform="scale(0.015625)"/>
      <path id="DejaVuSans-6d" d="M 3328 2828 
Q 3544 3216 3844 3400 
Q 4144 3584 4550 3584 
Q 5097 3584 5394 3201 
Q 5691 2819 5691 2113 
L 5691 0 
L 5113 0 
L 5113 2094 
Q 5113 2597 4934 2840 
Q 4756 3084 4391 3084 
Q 3944 3084 3684 2787 
Q 3425 2491 3425 1978 
L 3425 0 
L 2847 0 
L 2847 2094 
Q 2847 2600 2669 2842 
Q 2491 3084 2119 3084 
Q 1678 3084 1418 2786 
Q 1159 2488 1159 1978 
L 1159 0 
L 581 0 
L 581 3500 
L 1159 3500 
L 1159 2956 
Q 1356 3278 1631 3431 
Q 1906 3584 2284 3584 
Q 2666 3584 2933 3390 
Q 3200 3197 3328 2828 
z
" transform="scale(0.015625)"/>
      <path id="DejaVuSans-62" d="M 3116 1747 
Q 3116 2381 2855 2742 
Q 2594 3103 2138 3103 
Q 1681 3103 1420 2742 
Q 1159 2381 1159 1747 
Q 1159 1113 1420 752 
Q 1681 391 2138 391 
Q 2594 391 2855 752 
Q 3116 1113 3116 1747 
z
M 1159 2969 
Q 1341 3281 1617 3432 
Q 1894 3584 2278 3584 
Q 2916 3584 3314 3078 
Q 3713 2572 3713 1747 
Q 3713 922 3314 415 
Q 2916 -91 2278 -91 
Q 1894 -91 1617 61 
Q 1341 213 1159 525 
L 1159 0 
L 581 0 
L 581 4863 
L 1159 4863 
L 1159 2969 
z
" transform="scale(0.015625)"/>
      <path id="DejaVuSans-72" d="M 2631 2963 
Q 2534 3019 2420 3045 
Q 2306 3072 2169 3072 
Q 1681 3072 1420 2755 
Q 1159 2438 1159 1844 
L 1159 0 
L 581 0 
L 581 3500 
L 1159 3500 
L 1159 2956 
Q 1341 3275 1631 3429 
Q 1922 3584 2338 3584 
Q 2397 3584 2469 3576 
Q 2541 3569 2628 3553 
L 2631 2963 
z
" transform="scale(0.015625)"/>
      <path id="DejaVuSans-66" d="M 2375 4863 
L 2375 4384 
L 1825 4384 
Q 1516 4384 1395 4259 
Q 1275 4134 1275 3809 
L 1275 3500 
L 2222 3500 
L 2222 3053 
L 1275 3053 
L 1275 0 
L 697 0 
L 697 3053 
L 147 3053 
L 147 3500 
L 697 3500 
L 697 3744 
Q 697 4328 969 4595 
Q 1241 4863 1831 4863 
L 2375 4863 
z
" transform="scale(0.015625)"/>
      <path id="DejaVuSans-61" d="M 2194 1759 
Q 1497 1759 1228 1600 
Q 959 1441 959 1056 
Q 959 750 1161 570 
Q 1363 391 1709 391 
Q 2188 391 2477 730 
Q 2766 1069 2766 1631 
L 2766 1759 
L 2194 1759 
z
M 3341 1997 
L 3341 0 
L 2766 0 
L 2766 531 
Q 2569 213 2275 61 
Q 1981 -91 1556 -91 
Q 1019 -91 701 211 
Q 384 513 384 1019 
Q 384 1609 779 1909 
Q 1175 2209 1959 2209 
L 2766 2209 
L 2766 2266 
Q 2766 2663 2505 2880 
Q 2244 3097 1772 3097 
Q 1472 3097 1187 3025 
Q 903 2953 641 2809 
L 641 3341 
Q 956 3463 1253 3523 
Q 1550 3584 1831 3584 
Q 2591 3584 2966 3190 
Q 3341 2797 3341 1997 
z
" transform="scale(0.015625)"/>
      <path id="DejaVuSans-68" d="M 3513 2113 
L 3513 0 
L 2938 0 
L 2938 2094 
Q 2938 2591 2744 2837 
Q 2550 3084 2163 3084 
Q 1697 3084 1428 2787 
Q 1159 2491 1159 1978 
L 1159 0 
L 581 0 
L 581 4863 
L 1159 4863 
L 1159 2956 
Q 1366 3272 1645 3428 
Q 1925 3584 2291 3584 
Q 2894 3584 3203 3211 
Q 3513 2838 3513 2113 
z
" transform="scale(0.015625)"/>
      <path id="DejaVuSans-28" d="M 1984 4856 
Q 1566 4138 1362 3434 
Q 1159 2731 1159 2009 
Q 1159 1288 1364 580 
Q 1569 -128 1984 -844 
L 1484 -844 
Q 1016 -109 783 600 
Q 550 1309 550 2009 
Q 550 2706 781 3412 
Q 1013 4119 1484 4856 
L 1984 4856 
z
" transform="scale(0.015625)"/>
      <path id="DejaVuSans-6c" d="M 603 4863 
L 1178 4863 
L 1178 0 
L 603 0 
L 603 4863 
z
" transform="scale(0.015625)"/>
      <path id="DejaVuSans-5f" d="M 3263 -1063 
L 3263 -1509 
L -63 -1509 
L -63 -1063 
L 3263 -1063 
z
" transform="scale(0.015625)"/>
      <path id="DejaVuSans-29" d="M 513 4856 
L 1013 4856 
Q 1481 4119 1714 3412 
Q 1947 2706 1947 2009 
Q 1947 1309 1714 600 
Q 1481 -109 1013 -844 
L 513 -844 
Q 928 -128 1133 580 
Q 1338 1288 1338 2009 
Q 1338 2731 1133 3434 
Q 928 4138 513 4856 
z
" transform="scale(0.015625)"/>
     </defs>
     <use xlink:href="#DejaVuSans-4e"/>
     <use xlink:href="#DejaVuSans-75" x="74.804688"/>
     <use xlink:href="#DejaVuSans-6d" x="138.183594"/>
     <use xlink:href="#DejaVuSans-62" x="235.595703"/>
     <use xlink:href="#DejaVuSans-65" x="299.072266"/>
     <use xlink:href="#DejaVuSans-72" x="360.595703"/>
     <use xlink:href="#DejaVuSans-20" x="401.708984"/>
     <use xlink:href="#DejaVuSans-6f" x="433.496094"/>
     <use xlink:href="#DejaVuSans-66" x="494.677734"/>
     <use xlink:href="#DejaVuSans-20" x="529.882812"/>
     <use xlink:href="#DejaVuSans-69" x="561.669922"/>
     <use xlink:href="#DejaVuSans-6e" x="589.453125"/>
     <use xlink:href="#DejaVuSans-73" x="652.832031"/>
     <use xlink:href="#DejaVuSans-74" x="704.931641"/>
     <use xlink:href="#DejaVuSans-61" x="744.140625"/>
     <use xlink:href="#DejaVuSans-6e" x="805.419922"/>
     <use xlink:href="#DejaVuSans-63" x="868.798828"/>
     <use xlink:href="#DejaVuSans-65" x="923.779297"/>
     <use xlink:href="#DejaVuSans-73" x="985.302734"/>
     <use xlink:href="#DejaVuSans-20" x="1037.402344"/>
     <use xlink:href="#DejaVuSans-6f" x="1069.189453"/>
     <use xlink:href="#DejaVuSans-66" x="1130.371094"/>
     <use xlink:href="#DejaVuSans-20" x="1165.576172"/>
     <use xlink:href="#DejaVuSans-65" x="1197.363281"/>
     <use xlink:href="#DejaVuSans-61" x="1258.886719"/>
     <use xlink:href="#DejaVuSans-63" x="1320.166016"/>
     <use xlink:href="#DejaVuSans-68" x="1375.146484"/>
     <use xlink:href="#DejaVuSans-20" x="1438.525391"/>
     <use xlink:href="#DejaVuSans-73" x="1470.3125"/>
     <use xlink:href="#DejaVuSans-69" x="1522.412109"/>
     <use xlink:href="#DejaVuSans-7a" x="1550.195312"/>
     <use xlink:href="#DejaVuSans-65" x="1602.685547"/>
     <use xlink:href="#DejaVuSans-20" x="1664.208984"/>
     <use xlink:href="#DejaVuSans-28" x="1695.996094"/>
     <use xlink:href="#DejaVuSans-6e" x="1735.009766"/>
     <use xlink:href="#DejaVuSans-69" x="1798.388672"/>
     <use xlink:href="#DejaVuSans-63" x="1826.171875"/>
     <use xlink:href="#DejaVuSans-6f" x="1881.152344"/>
     <use xlink:href="#DejaVuSans-6c" x="1942.333984"/>
     <use xlink:href="#DejaVuSans-61" x="1970.117188"/>
     <use xlink:href="#DejaVuSans-75" x="2031.396484"/>
     <use xlink:href="#DejaVuSans-5f" x="2094.775391"/>
     <use xlink:href="#DejaVuSans-62" x="2144.775391"/>
     <use xlink:href="#DejaVuSans-29" x="2208.251953"/>
    </g>
   </g>
  </g>
 </g>
 <defs>
  <clipPath id="p777405f4a5">
   <rect x="57.6" y="41.472" width="357.12" height="266.112"/>
  </clipPath>
 </defs>
</svg>
