<?xml version="1.0" encoding="utf-8" standalone="no"?>
<!DOCTYPE svg PUBLIC "-//W3C//DTD SVG 1.1//EN"
  "http://www.w3.org/Graphics/SVG/1.1/DTD/svg11.dtd">
<svg xmlns:xlink="http://www.w3.org/1999/xlink" width="432pt" height="288pt" viewBox="0 0 432 288" xmlns="http://www.w3.org/2000/svg" version="1.1">
 <metadata>
  <rdf:RDF xmlns:dc="http://purl.org/dc/elements/1.1/" xmlns:cc="http://creativecommons.org/ns#" xmlns:rdf="http://www.w3.org/1999/02/22-rdf-syntax-ns#">
   <cc:Work>
    <dc:type rdf:resource="http://purl.org/dc/dcmitype/StillImage"/>
    <dc:date>2022-03-28T03:30:28.403547</dc:date>
    <dc:format>image/svg+xml</dc:format>
    <dc:creator>
     <cc:Agent>
      <dc:title>Matplotlib v3.5.1, https://matplotlib.org/</dc:title>
     </cc:Agent>
    </dc:creator>
   </cc:Work>
  </rdf:RDF>
 </metadata>
 <defs>
  <style type="text/css">*{stroke-linejoin: round; stroke-linecap: butt}</style>
 </defs>
 <g id="figure_1">
  <g id="patch_1">
   <path d="M 0 288 
L 432 288 
L 432 0 
L 0 0 
L 0 288 
z
" style="fill: none"/>
  </g>
  <g id="axes_1">
   <g id="patch_2">
    <path d="M 54 252 
L 388.8 252 
L 388.8 34.56 
L 54 34.56 
z
" style="fill: #ffffff"/>
   </g>
   <g id="patch_3">
    <path d="M 69.218182 252 
L 73.095426 252 
L 73.095426 158.164286 
L 69.218182 158.164286 
z
" clip-path="url(#pa2cea63a50)" style="fill: #1f77b4"/>
   </g>
   <g id="patch_4">
    <path d="M 74.064737 252 
L 77.94198 252 
L 77.94198 138.75 
L 74.064737 138.75 
z
" clip-path="url(#pa2cea63a50)" style="fill: #1f77b4"/>
   </g>
   <g id="patch_5">
    <path d="M 78.911291 252 
L 82.788535 252 
L 82.788535 163.017857 
L 78.911291 163.017857 
z
" clip-path="url(#pa2cea63a50)" style="fill: #1f77b4"/>
   </g>
   <g id="patch_6">
    <path d="M 83.757846 252 
L 87.63509 252 
L 87.63509 133.896429 
L 83.757846 133.896429 
z
" clip-path="url(#pa2cea63a50)" style="fill: #1f77b4"/>
   </g>
   <g id="patch_7">
    <path d="M 88.604401 252 
L 92.481644 252 
L 92.481644 192.139286 
L 88.604401 192.139286 
z
" clip-path="url(#pa2cea63a50)" style="fill: #1f77b4"/>
   </g>
   <g id="patch_8">
    <path d="M 93.450955 252 
L 97.328199 252 
L 97.328199 104.775 
L 93.450955 104.775 
z
" clip-path="url(#pa2cea63a50)" style="fill: #1f77b4"/>
   </g>
   <g id="patch_9">
    <path d="M 98.29751 252 
L 102.174754 252 
L 102.174754 188.903571 
L 98.29751 188.903571 
z
" clip-path="url(#pa2cea63a50)" style="fill: #1f77b4"/>
   </g>
   <g id="patch_10">
    <path d="M 103.144065 252 
L 107.021309 252 
L 107.021309 108.010714 
L 103.144065 108.010714 
z
" clip-path="url(#pa2cea63a50)" style="fill: #1f77b4"/>
   </g>
   <g id="patch_11">
    <path d="M 107.99062 252 
L 111.867863 252 
L 111.867863 190.521429 
L 107.99062 190.521429 
z
" clip-path="url(#pa2cea63a50)" style="fill: #1f77b4"/>
   </g>
   <g id="patch_12">
    <path d="M 112.837174 252 
L 116.714418 252 
L 116.714418 106.392857 
L 112.837174 106.392857 
z
" clip-path="url(#pa2cea63a50)" style="fill: #1f77b4"/>
   </g>
   <g id="patch_13">
    <path d="M 117.683729 252 
L 121.560973 252 
L 121.560973 195.375 
L 117.683729 195.375 
z
" clip-path="url(#pa2cea63a50)" style="fill: #1f77b4"/>
   </g>
   <g id="patch_14">
    <path d="M 122.530284 252 
L 126.407528 252 
L 126.407528 101.539286 
L 122.530284 101.539286 
z
" clip-path="url(#pa2cea63a50)" style="fill: #1f77b4"/>
   </g>
   <g id="patch_15">
    <path d="M 127.376838 252 
L 131.254082 252 
L 131.254082 193.757143 
L 127.376838 193.757143 
z
" clip-path="url(#pa2cea63a50)" style="fill: #1f77b4"/>
   </g>
   <g id="patch_16">
    <path d="M 132.223393 252 
L 136.100637 252 
L 136.100637 103.157143 
L 132.223393 103.157143 
z
" clip-path="url(#pa2cea63a50)" style="fill: #1f77b4"/>
   </g>
   <g id="patch_17">
    <path d="M 137.069948 252 
L 140.947192 252 
L 140.947192 184.05 
L 137.069948 184.05 
z
" clip-path="url(#pa2cea63a50)" style="fill: #1f77b4"/>
   </g>
   <g id="patch_18">
    <path d="M 141.916503 252 
L 145.793746 252 
L 145.793746 112.864286 
L 141.916503 112.864286 
z
" clip-path="url(#pa2cea63a50)" style="fill: #1f77b4"/>
   </g>
   <g id="patch_19">
    <path d="M 146.763057 252 
L 150.640301 252 
L 150.640301 193.757143 
L 146.763057 193.757143 
z
" clip-path="url(#pa2cea63a50)" style="fill: #1f77b4"/>
   </g>
   <g id="patch_20">
    <path d="M 151.609612 252 
L 155.486856 252 
L 155.486856 103.157143 
L 151.609612 103.157143 
z
" clip-path="url(#pa2cea63a50)" style="fill: #1f77b4"/>
   </g>
   <g id="patch_21">
    <path d="M 156.456167 252 
L 160.333411 252 
L 160.333411 179.196429 
L 156.456167 179.196429 
z
" clip-path="url(#pa2cea63a50)" style="fill: #1f77b4"/>
   </g>
   <g id="patch_22">
    <path d="M 161.302721 252 
L 165.179965 252 
L 165.179965 117.717857 
L 161.302721 117.717857 
z
" clip-path="url(#pa2cea63a50)" style="fill: #1f77b4"/>
   </g>
   <g id="patch_23">
    <path d="M 166.149276 252 
L 170.02652 252 
L 170.02652 188.903571 
L 166.149276 188.903571 
z
" clip-path="url(#pa2cea63a50)" style="fill: #1f77b4"/>
   </g>
   <g id="patch_24">
    <path d="M 170.995831 252 
L 174.873075 252 
L 174.873075 108.010714 
L 170.995831 108.010714 
z
" clip-path="url(#pa2cea63a50)" style="fill: #1f77b4"/>
   </g>
   <g id="patch_25">
    <path d="M 175.842386 252 
L 179.719629 252 
L 179.719629 177.578571 
L 175.842386 177.578571 
z
" clip-path="url(#pa2cea63a50)" style="fill: #1f77b4"/>
   </g>
   <g id="patch_26">
    <path d="M 180.68894 252 
L 184.566184 252 
L 184.566184 119.335714 
L 180.68894 119.335714 
z
" clip-path="url(#pa2cea63a50)" style="fill: #1f77b4"/>
   </g>
   <g id="patch_27">
    <path d="M 185.535495 252 
L 189.412739 252 
L 189.412739 174.342857 
L 185.535495 174.342857 
z
" clip-path="url(#pa2cea63a50)" style="fill: #1f77b4"/>
   </g>
   <g id="patch_28">
    <path d="M 190.38205 252 
L 194.259294 252 
L 194.259294 122.571429 
L 190.38205 122.571429 
z
" clip-path="url(#pa2cea63a50)" style="fill: #1f77b4"/>
   </g>
   <g id="patch_29">
    <path d="M 195.228605 252 
L 199.105848 252 
L 199.105848 177.578571 
L 195.228605 177.578571 
z
" clip-path="url(#pa2cea63a50)" style="fill: #1f77b4"/>
   </g>
   <g id="patch_30">
    <path d="M 200.075159 252 
L 203.952403 252 
L 203.952403 119.335714 
L 200.075159 119.335714 
z
" clip-path="url(#pa2cea63a50)" style="fill: #1f77b4"/>
   </g>
   <g id="patch_31">
    <path d="M 204.921714 252 
L 208.798958 252 
L 208.798958 184.05 
L 204.921714 184.05 
z
" clip-path="url(#pa2cea63a50)" style="fill: #1f77b4"/>
   </g>
   <g id="patch_32">
    <path d="M 209.768269 252 
L 213.645512 252 
L 213.645512 112.864286 
L 209.768269 112.864286 
z
" clip-path="url(#pa2cea63a50)" style="fill: #1f77b4"/>
   </g>
   <g id="patch_33">
    <path d="M 214.614823 252 
L 218.492067 252 
L 218.492067 174.342857 
L 214.614823 174.342857 
z
" clip-path="url(#pa2cea63a50)" style="fill: #1f77b4"/>
   </g>
   <g id="patch_34">
    <path d="M 219.461378 252 
L 223.338622 252 
L 223.338622 122.571429 
L 219.461378 122.571429 
z
" clip-path="url(#pa2cea63a50)" style="fill: #1f77b4"/>
   </g>
   <g id="patch_35">
    <path d="M 224.307933 252 
L 228.185177 252 
L 228.185177 185.667857 
L 224.307933 185.667857 
z
" clip-path="url(#pa2cea63a50)" style="fill: #1f77b4"/>
   </g>
   <g id="patch_36">
    <path d="M 229.154488 252 
L 233.031731 252 
L 233.031731 111.246429 
L 229.154488 111.246429 
z
" clip-path="url(#pa2cea63a50)" style="fill: #1f77b4"/>
   </g>
   <g id="patch_37">
    <path d="M 234.001042 252 
L 237.878286 252 
L 237.878286 184.05 
L 234.001042 184.05 
z
" clip-path="url(#pa2cea63a50)" style="fill: #1f77b4"/>
   </g>
   <g id="patch_38">
    <path d="M 238.847597 252 
L 242.724841 252 
L 242.724841 112.864286 
L 238.847597 112.864286 
z
" clip-path="url(#pa2cea63a50)" style="fill: #1f77b4"/>
   </g>
   <g id="patch_39">
    <path d="M 243.694152 252 
L 247.571395 252 
L 247.571395 180.814286 
L 243.694152 180.814286 
z
" clip-path="url(#pa2cea63a50)" style="fill: #1f77b4"/>
   </g>
   <g id="patch_40">
    <path d="M 248.540706 252 
L 252.41795 252 
L 252.41795 116.1 
L 248.540706 116.1 
z
" clip-path="url(#pa2cea63a50)" style="fill: #1f77b4"/>
   </g>
   <g id="patch_41">
    <path d="M 253.387261 252 
L 257.264505 252 
L 257.264505 174.342857 
L 253.387261 174.342857 
z
" clip-path="url(#pa2cea63a50)" style="fill: #1f77b4"/>
   </g>
   <g id="patch_42">
    <path d="M 258.233816 252 
L 262.11106 252 
L 262.11106 122.571429 
L 258.233816 122.571429 
z
" clip-path="url(#pa2cea63a50)" style="fill: #1f77b4"/>
   </g>
   <g id="patch_43">
    <path d="M 263.080371 252 
L 266.957614 252 
L 266.957614 175.960714 
L 263.080371 175.960714 
z
" clip-path="url(#pa2cea63a50)" style="fill: #1f77b4"/>
   </g>
   <g id="patch_44">
    <path d="M 267.926925 252 
L 271.804169 252 
L 271.804169 120.953571 
L 267.926925 120.953571 
z
" clip-path="url(#pa2cea63a50)" style="fill: #1f77b4"/>
   </g>
   <g id="patch_45">
    <path d="M 272.77348 252 
L 276.650724 252 
L 276.650724 171.107143 
L 272.77348 171.107143 
z
" clip-path="url(#pa2cea63a50)" style="fill: #1f77b4"/>
   </g>
   <g id="patch_46">
    <path d="M 277.620035 252 
L 281.497279 252 
L 281.497279 125.807143 
L 277.620035 125.807143 
z
" clip-path="url(#pa2cea63a50)" style="fill: #1f77b4"/>
   </g>
   <g id="patch_47">
    <path d="M 282.466589 252 
L 286.343833 252 
L 286.343833 184.05 
L 282.466589 184.05 
z
" clip-path="url(#pa2cea63a50)" style="fill: #1f77b4"/>
   </g>
   <g id="patch_48">
    <path d="M 287.313144 252 
L 291.190388 252 
L 291.190388 112.864286 
L 287.313144 112.864286 
z
" clip-path="url(#pa2cea63a50)" style="fill: #1f77b4"/>
   </g>
   <g id="patch_49">
    <path d="M 292.159699 252 
L 296.036943 252 
L 296.036943 171.107143 
L 292.159699 171.107143 
z
" clip-path="url(#pa2cea63a50)" style="fill: #1f77b4"/>
   </g>
   <g id="patch_50">
    <path d="M 297.006254 252 
L 300.883497 252 
L 300.883497 125.807143 
L 297.006254 125.807143 
z
" clip-path="url(#pa2cea63a50)" style="fill: #1f77b4"/>
   </g>
   <g id="patch_51">
    <path d="M 301.852808 252 
L 305.730052 252 
L 305.730052 164.635714 
L 301.852808 164.635714 
z
" clip-path="url(#pa2cea63a50)" style="fill: #1f77b4"/>
   </g>
   <g id="patch_52">
    <path d="M 306.699363 252 
L 310.576607 252 
L 310.576607 132.278571 
L 306.699363 132.278571 
z
" clip-path="url(#pa2cea63a50)" style="fill: #1f77b4"/>
   </g>
   <g id="patch_53">
    <path d="M 311.545918 252 
L 315.423162 252 
L 315.423162 151.692857 
L 311.545918 151.692857 
z
" clip-path="url(#pa2cea63a50)" style="fill: #1f77b4"/>
   </g>
   <g id="patch_54">
    <path d="M 316.392472 252 
L 320.269716 252 
L 320.269716 145.221429 
L 316.392472 145.221429 
z
" clip-path="url(#pa2cea63a50)" style="fill: #1f77b4"/>
   </g>
   <g id="patch_55">
    <path d="M 321.239027 252 
L 325.116271 252 
L 325.116271 172.725 
L 321.239027 172.725 
z
" clip-path="url(#pa2cea63a50)" style="fill: #1f77b4"/>
   </g>
   <g id="patch_56">
    <path d="M 326.085582 252 
L 329.962826 252 
L 329.962826 124.189286 
L 326.085582 124.189286 
z
" clip-path="url(#pa2cea63a50)" style="fill: #1f77b4"/>
   </g>
   <g id="patch_57">
    <path d="M 330.932137 252 
L 334.80938 252 
L 334.80938 153.310714 
L 330.932137 153.310714 
z
" clip-path="url(#pa2cea63a50)" style="fill: #1f77b4"/>
   </g>
   <g id="patch_58">
    <path d="M 335.778691 252 
L 339.655935 252 
L 339.655935 143.603571 
L 335.778691 143.603571 
z
" clip-path="url(#pa2cea63a50)" style="fill: #1f77b4"/>
   </g>
   <g id="patch_59">
    <path d="M 340.625246 252 
L 344.50249 252 
L 344.50249 163.017857 
L 340.625246 163.017857 
z
" clip-path="url(#pa2cea63a50)" style="fill: #1f77b4"/>
   </g>
   <g id="patch_60">
    <path d="M 345.471801 252 
L 349.349045 252 
L 349.349045 133.896429 
L 345.471801 133.896429 
z
" clip-path="url(#pa2cea63a50)" style="fill: #1f77b4"/>
   </g>
   <g id="patch_61">
    <path d="M 350.318356 252 
L 354.195599 252 
L 354.195599 151.692857 
L 350.318356 151.692857 
z
" clip-path="url(#pa2cea63a50)" style="fill: #1f77b4"/>
   </g>
   <g id="patch_62">
    <path d="M 355.16491 252 
L 359.042154 252 
L 359.042154 145.221429 
L 355.16491 145.221429 
z
" clip-path="url(#pa2cea63a50)" style="fill: #1f77b4"/>
   </g>
   <g id="patch_63">
    <path d="M 360.011465 252 
L 363.888709 252 
L 363.888709 158.164286 
L 360.011465 158.164286 
z
" clip-path="url(#pa2cea63a50)" style="fill: #1f77b4"/>
   </g>
   <g id="patch_64">
    <path d="M 364.85802 252 
L 368.735263 252 
L 368.735263 138.75 
L 364.85802 138.75 
z
" clip-path="url(#pa2cea63a50)" style="fill: #1f77b4"/>
   </g>
   <g id="patch_65">
    <path d="M 369.704574 252 
L 373.581818 252 
L 373.581818 44.914286 
L 369.704574 44.914286 
z
" clip-path="url(#pa2cea63a50)" style="fill: #1f77b4"/>
   </g>
   <g id="matplotlib.axis_1">
    <g id="xtick_1">
     <g id="line2d_1">
      <defs>
       <path id="m8e07ab4ea1" d="M 0 0 
L 0 3.5 
" style="stroke: #000000; stroke-width: 0.8"/>
      </defs>
      <g>
       <use xlink:href="#m8e07ab4ea1" x="66.310249" y="252" style="stroke: #000000; stroke-width: 0.8"/>
      </g>
     </g>
     <g id="text_1">
      <!-- 0 -->
      <g transform="translate(63.128999 266.598437)scale(0.1 -0.1)">
       <defs>
        <path id="DejaVuSans-30" d="M 2034 4250 
Q 1547 4250 1301 3770 
Q 1056 3291 1056 2328 
Q 1056 1369 1301 889 
Q 1547 409 2034 409 
Q 2525 409 2770 889 
Q 3016 1369 3016 2328 
Q 3016 3291 2770 3770 
Q 2525 4250 2034 4250 
z
M 2034 4750 
Q 2819 4750 3233 4129 
Q 3647 3509 3647 2328 
Q 3647 1150 3233 529 
Q 2819 -91 2034 -91 
Q 1250 -91 836 529 
Q 422 1150 422 2328 
Q 422 3509 836 4129 
Q 1250 4750 2034 4750 
z
" transform="scale(0.015625)"/>
       </defs>
       <use xlink:href="#DejaVuSans-30"/>
      </g>
     </g>
    </g>
    <g id="xtick_2">
     <g id="line2d_2">
      <g>
       <use xlink:href="#m8e07ab4ea1" x="114.775796" y="252" style="stroke: #000000; stroke-width: 0.8"/>
      </g>
     </g>
     <g id="text_2">
      <!-- 10 -->
      <g transform="translate(108.413296 266.598437)scale(0.1 -0.1)">
       <defs>
        <path id="DejaVuSans-31" d="M 794 531 
L 1825 531 
L 1825 4091 
L 703 3866 
L 703 4441 
L 1819 4666 
L 2450 4666 
L 2450 531 
L 3481 531 
L 3481 0 
L 794 0 
L 794 531 
z
" transform="scale(0.015625)"/>
       </defs>
       <use xlink:href="#DejaVuSans-31"/>
       <use xlink:href="#DejaVuSans-30" x="63.623047"/>
      </g>
     </g>
    </g>
    <g id="xtick_3">
     <g id="line2d_3">
      <g>
       <use xlink:href="#m8e07ab4ea1" x="163.241343" y="252" style="stroke: #000000; stroke-width: 0.8"/>
      </g>
     </g>
     <g id="text_3">
      <!-- 20 -->
      <g transform="translate(156.878843 266.598437)scale(0.1 -0.1)">
       <defs>
        <path id="DejaVuSans-32" d="M 1228 531 
L 3431 531 
L 3431 0 
L 469 0 
L 469 531 
Q 828 903 1448 1529 
Q 2069 2156 2228 2338 
Q 2531 2678 2651 2914 
Q 2772 3150 2772 3378 
Q 2772 3750 2511 3984 
Q 2250 4219 1831 4219 
Q 1534 4219 1204 4116 
Q 875 4013 500 3803 
L 500 4441 
Q 881 4594 1212 4672 
Q 1544 4750 1819 4750 
Q 2544 4750 2975 4387 
Q 3406 4025 3406 3419 
Q 3406 3131 3298 2873 
Q 3191 2616 2906 2266 
Q 2828 2175 2409 1742 
Q 1991 1309 1228 531 
z
" transform="scale(0.015625)"/>
       </defs>
       <use xlink:href="#DejaVuSans-32"/>
       <use xlink:href="#DejaVuSans-30" x="63.623047"/>
      </g>
     </g>
    </g>
    <g id="xtick_4">
     <g id="line2d_4">
      <g>
       <use xlink:href="#m8e07ab4ea1" x="211.706891" y="252" style="stroke: #000000; stroke-width: 0.8"/>
      </g>
     </g>
     <g id="text_4">
      <!-- 30 -->
      <g transform="translate(205.344391 266.598437)scale(0.1 -0.1)">
       <defs>
        <path id="DejaVuSans-33" d="M 2597 2516 
Q 3050 2419 3304 2112 
Q 3559 1806 3559 1356 
Q 3559 666 3084 287 
Q 2609 -91 1734 -91 
Q 1441 -91 1130 -33 
Q 819 25 488 141 
L 488 750 
Q 750 597 1062 519 
Q 1375 441 1716 441 
Q 2309 441 2620 675 
Q 2931 909 2931 1356 
Q 2931 1769 2642 2001 
Q 2353 2234 1838 2234 
L 1294 2234 
L 1294 2753 
L 1863 2753 
Q 2328 2753 2575 2939 
Q 2822 3125 2822 3475 
Q 2822 3834 2567 4026 
Q 2313 4219 1838 4219 
Q 1578 4219 1281 4162 
Q 984 4106 628 3988 
L 628 4550 
Q 988 4650 1302 4700 
Q 1616 4750 1894 4750 
Q 2613 4750 3031 4423 
Q 3450 4097 3450 3541 
Q 3450 3153 3228 2886 
Q 3006 2619 2597 2516 
z
" transform="scale(0.015625)"/>
       </defs>
       <use xlink:href="#DejaVuSans-33"/>
       <use xlink:href="#DejaVuSans-30" x="63.623047"/>
      </g>
     </g>
    </g>
    <g id="xtick_5">
     <g id="line2d_5">
      <g>
       <use xlink:href="#m8e07ab4ea1" x="260.172438" y="252" style="stroke: #000000; stroke-width: 0.8"/>
      </g>
     </g>
     <g id="text_5">
      <!-- 40 -->
      <g transform="translate(253.809938 266.598437)scale(0.1 -0.1)">
       <defs>
        <path id="DejaVuSans-34" d="M 2419 4116 
L 825 1625 
L 2419 1625 
L 2419 4116 
z
M 2253 4666 
L 3047 4666 
L 3047 1625 
L 3713 1625 
L 3713 1100 
L 3047 1100 
L 3047 0 
L 2419 0 
L 2419 1100 
L 313 1100 
L 313 1709 
L 2253 4666 
z
" transform="scale(0.015625)"/>
       </defs>
       <use xlink:href="#DejaVuSans-34"/>
       <use xlink:href="#DejaVuSans-30" x="63.623047"/>
      </g>
     </g>
    </g>
    <g id="xtick_6">
     <g id="line2d_6">
      <g>
       <use xlink:href="#m8e07ab4ea1" x="308.637985" y="252" style="stroke: #000000; stroke-width: 0.8"/>
      </g>
     </g>
     <g id="text_6">
      <!-- 50 -->
      <g transform="translate(302.275485 266.598437)scale(0.1 -0.1)">
       <defs>
        <path id="DejaVuSans-35" d="M 691 4666 
L 3169 4666 
L 3169 4134 
L 1269 4134 
L 1269 2991 
Q 1406 3038 1543 3061 
Q 1681 3084 1819 3084 
Q 2600 3084 3056 2656 
Q 3513 2228 3513 1497 
Q 3513 744 3044 326 
Q 2575 -91 1722 -91 
Q 1428 -91 1123 -41 
Q 819 9 494 109 
L 494 744 
Q 775 591 1075 516 
Q 1375 441 1709 441 
Q 2250 441 2565 725 
Q 2881 1009 2881 1497 
Q 2881 1984 2565 2268 
Q 2250 2553 1709 2553 
Q 1456 2553 1204 2497 
Q 953 2441 691 2322 
L 691 4666 
z
" transform="scale(0.015625)"/>
       </defs>
       <use xlink:href="#DejaVuSans-35"/>
       <use xlink:href="#DejaVuSans-30" x="63.623047"/>
      </g>
     </g>
    </g>
    <g id="xtick_7">
     <g id="line2d_7">
      <g>
       <use xlink:href="#m8e07ab4ea1" x="357.103532" y="252" style="stroke: #000000; stroke-width: 0.8"/>
      </g>
     </g>
     <g id="text_7">
      <!-- 60 -->
      <g transform="translate(350.741032 266.598437)scale(0.1 -0.1)">
       <defs>
        <path id="DejaVuSans-36" d="M 2113 2584 
Q 1688 2584 1439 2293 
Q 1191 2003 1191 1497 
Q 1191 994 1439 701 
Q 1688 409 2113 409 
Q 2538 409 2786 701 
Q 3034 994 3034 1497 
Q 3034 2003 2786 2293 
Q 2538 2584 2113 2584 
z
M 3366 4563 
L 3366 3988 
Q 3128 4100 2886 4159 
Q 2644 4219 2406 4219 
Q 1781 4219 1451 3797 
Q 1122 3375 1075 2522 
Q 1259 2794 1537 2939 
Q 1816 3084 2150 3084 
Q 2853 3084 3261 2657 
Q 3669 2231 3669 1497 
Q 3669 778 3244 343 
Q 2819 -91 2113 -91 
Q 1303 -91 875 529 
Q 447 1150 447 2328 
Q 447 3434 972 4092 
Q 1497 4750 2381 4750 
Q 2619 4750 2861 4703 
Q 3103 4656 3366 4563 
z
" transform="scale(0.015625)"/>
       </defs>
       <use xlink:href="#DejaVuSans-36"/>
       <use xlink:href="#DejaVuSans-30" x="63.623047"/>
      </g>
     </g>
    </g>
    <g id="text_8">
     <!-- Size -->
     <g transform="translate(211.135938 280.276563)scale(0.1 -0.1)">
      <defs>
       <path id="DejaVuSans-53" d="M 3425 4513 
L 3425 3897 
Q 3066 4069 2747 4153 
Q 2428 4238 2131 4238 
Q 1616 4238 1336 4038 
Q 1056 3838 1056 3469 
Q 1056 3159 1242 3001 
Q 1428 2844 1947 2747 
L 2328 2669 
Q 3034 2534 3370 2195 
Q 3706 1856 3706 1288 
Q 3706 609 3251 259 
Q 2797 -91 1919 -91 
Q 1588 -91 1214 -16 
Q 841 59 441 206 
L 441 856 
Q 825 641 1194 531 
Q 1563 422 1919 422 
Q 2459 422 2753 634 
Q 3047 847 3047 1241 
Q 3047 1584 2836 1778 
Q 2625 1972 2144 2069 
L 1759 2144 
Q 1053 2284 737 2584 
Q 422 2884 422 3419 
Q 422 4038 858 4394 
Q 1294 4750 2059 4750 
Q 2388 4750 2728 4690 
Q 3069 4631 3425 4513 
z
" transform="scale(0.015625)"/>
       <path id="DejaVuSans-69" d="M 603 3500 
L 1178 3500 
L 1178 0 
L 603 0 
L 603 3500 
z
M 603 4863 
L 1178 4863 
L 1178 4134 
L 603 4134 
L 603 4863 
z
" transform="scale(0.015625)"/>
       <path id="DejaVuSans-7a" d="M 353 3500 
L 3084 3500 
L 3084 2975 
L 922 459 
L 3084 459 
L 3084 0 
L 275 0 
L 275 525 
L 2438 3041 
L 353 3041 
L 353 3500 
z
" transform="scale(0.015625)"/>
       <path id="DejaVuSans-65" d="M 3597 1894 
L 3597 1613 
L 953 1613 
Q 991 1019 1311 708 
Q 1631 397 2203 397 
Q 2534 397 2845 478 
Q 3156 559 3463 722 
L 3463 178 
Q 3153 47 2828 -22 
Q 2503 -91 2169 -91 
Q 1331 -91 842 396 
Q 353 884 353 1716 
Q 353 2575 817 3079 
Q 1281 3584 2069 3584 
Q 2775 3584 3186 3129 
Q 3597 2675 3597 1894 
z
M 3022 2063 
Q 3016 2534 2758 2815 
Q 2500 3097 2075 3097 
Q 1594 3097 1305 2825 
Q 1016 2553 972 2059 
L 3022 2063 
z
" transform="scale(0.015625)"/>
      </defs>
      <use xlink:href="#DejaVuSans-53"/>
      <use xlink:href="#DejaVuSans-69" x="63.476562"/>
      <use xlink:href="#DejaVuSans-7a" x="91.259766"/>
      <use xlink:href="#DejaVuSans-65" x="143.75"/>
     </g>
    </g>
   </g>
   <g id="matplotlib.axis_2">
    <g id="ytick_1">
     <g id="line2d_8">
      <defs>
       <path id="m4807b47b97" d="M 0 0 
L -3.5 0 
" style="stroke: #000000; stroke-width: 0.8"/>
      </defs>
      <g>
       <use xlink:href="#m4807b47b97" x="54" y="252" style="stroke: #000000; stroke-width: 0.8"/>
      </g>
     </g>
     <g id="text_9">
      <!-- 0 -->
      <g transform="translate(40.6375 255.799219)scale(0.1 -0.1)">
       <use xlink:href="#DejaVuSans-30"/>
      </g>
     </g>
    </g>
    <g id="ytick_2">
     <g id="line2d_9">
      <g>
       <use xlink:href="#m4807b47b97" x="54" y="219.642857" style="stroke: #000000; stroke-width: 0.8"/>
      </g>
     </g>
     <g id="text_10">
      <!-- 20 -->
      <g transform="translate(34.275 223.442076)scale(0.1 -0.1)">
       <use xlink:href="#DejaVuSans-32"/>
       <use xlink:href="#DejaVuSans-30" x="63.623047"/>
      </g>
     </g>
    </g>
    <g id="ytick_3">
     <g id="line2d_10">
      <g>
       <use xlink:href="#m4807b47b97" x="54" y="187.285714" style="stroke: #000000; stroke-width: 0.8"/>
      </g>
     </g>
     <g id="text_11">
      <!-- 40 -->
      <g transform="translate(34.275 191.084933)scale(0.1 -0.1)">
       <use xlink:href="#DejaVuSans-34"/>
       <use xlink:href="#DejaVuSans-30" x="63.623047"/>
      </g>
     </g>
    </g>
    <g id="ytick_4">
     <g id="line2d_11">
      <g>
       <use xlink:href="#m4807b47b97" x="54" y="154.928571" style="stroke: #000000; stroke-width: 0.8"/>
      </g>
     </g>
     <g id="text_12">
      <!-- 60 -->
      <g transform="translate(34.275 158.72779)scale(0.1 -0.1)">
       <use xlink:href="#DejaVuSans-36"/>
       <use xlink:href="#DejaVuSans-30" x="63.623047"/>
      </g>
     </g>
    </g>
    <g id="ytick_5">
     <g id="line2d_12">
      <g>
       <use xlink:href="#m4807b47b97" x="54" y="122.571429" style="stroke: #000000; stroke-width: 0.8"/>
      </g>
     </g>
     <g id="text_13">
      <!-- 80 -->
      <g transform="translate(34.275 126.370647)scale(0.1 -0.1)">
       <defs>
        <path id="DejaVuSans-38" d="M 2034 2216 
Q 1584 2216 1326 1975 
Q 1069 1734 1069 1313 
Q 1069 891 1326 650 
Q 1584 409 2034 409 
Q 2484 409 2743 651 
Q 3003 894 3003 1313 
Q 3003 1734 2745 1975 
Q 2488 2216 2034 2216 
z
M 1403 2484 
Q 997 2584 770 2862 
Q 544 3141 544 3541 
Q 544 4100 942 4425 
Q 1341 4750 2034 4750 
Q 2731 4750 3128 4425 
Q 3525 4100 3525 3541 
Q 3525 3141 3298 2862 
Q 3072 2584 2669 2484 
Q 3125 2378 3379 2068 
Q 3634 1759 3634 1313 
Q 3634 634 3220 271 
Q 2806 -91 2034 -91 
Q 1263 -91 848 271 
Q 434 634 434 1313 
Q 434 1759 690 2068 
Q 947 2378 1403 2484 
z
M 1172 3481 
Q 1172 3119 1398 2916 
Q 1625 2713 2034 2713 
Q 2441 2713 2670 2916 
Q 2900 3119 2900 3481 
Q 2900 3844 2670 4047 
Q 2441 4250 2034 4250 
Q 1625 4250 1398 4047 
Q 1172 3844 1172 3481 
z
" transform="scale(0.015625)"/>
       </defs>
       <use xlink:href="#DejaVuSans-38"/>
       <use xlink:href="#DejaVuSans-30" x="63.623047"/>
      </g>
     </g>
    </g>
    <g id="ytick_6">
     <g id="line2d_13">
      <g>
       <use xlink:href="#m4807b47b97" x="54" y="90.214286" style="stroke: #000000; stroke-width: 0.8"/>
      </g>
     </g>
     <g id="text_14">
      <!-- 100 -->
      <g transform="translate(27.9125 94.013504)scale(0.1 -0.1)">
       <use xlink:href="#DejaVuSans-31"/>
       <use xlink:href="#DejaVuSans-30" x="63.623047"/>
       <use xlink:href="#DejaVuSans-30" x="127.246094"/>
      </g>
     </g>
    </g>
    <g id="ytick_7">
     <g id="line2d_14">
      <g>
       <use xlink:href="#m4807b47b97" x="54" y="57.857143" style="stroke: #000000; stroke-width: 0.8"/>
      </g>
     </g>
     <g id="text_15">
      <!-- 120 -->
      <g transform="translate(27.9125 61.656362)scale(0.1 -0.1)">
       <use xlink:href="#DejaVuSans-31"/>
       <use xlink:href="#DejaVuSans-32" x="63.623047"/>
       <use xlink:href="#DejaVuSans-30" x="127.246094"/>
      </g>
     </g>
    </g>
    <g id="text_16">
     <!-- Size counts -->
     <g transform="translate(21.832812 171.844063)rotate(-90)scale(0.1 -0.1)">
      <defs>
       <path id="DejaVuSans-20" transform="scale(0.015625)"/>
       <path id="DejaVuSans-63" d="M 3122 3366 
L 3122 2828 
Q 2878 2963 2633 3030 
Q 2388 3097 2138 3097 
Q 1578 3097 1268 2742 
Q 959 2388 959 1747 
Q 959 1106 1268 751 
Q 1578 397 2138 397 
Q 2388 397 2633 464 
Q 2878 531 3122 666 
L 3122 134 
Q 2881 22 2623 -34 
Q 2366 -91 2075 -91 
Q 1284 -91 818 406 
Q 353 903 353 1747 
Q 353 2603 823 3093 
Q 1294 3584 2113 3584 
Q 2378 3584 2631 3529 
Q 2884 3475 3122 3366 
z
" transform="scale(0.015625)"/>
       <path id="DejaVuSans-6f" d="M 1959 3097 
Q 1497 3097 1228 2736 
Q 959 2375 959 1747 
Q 959 1119 1226 758 
Q 1494 397 1959 397 
Q 2419 397 2687 759 
Q 2956 1122 2956 1747 
Q 2956 2369 2687 2733 
Q 2419 3097 1959 3097 
z
M 1959 3584 
Q 2709 3584 3137 3096 
Q 3566 2609 3566 1747 
Q 3566 888 3137 398 
Q 2709 -91 1959 -91 
Q 1206 -91 779 398 
Q 353 888 353 1747 
Q 353 2609 779 3096 
Q 1206 3584 1959 3584 
z
" transform="scale(0.015625)"/>
       <path id="DejaVuSans-75" d="M 544 1381 
L 544 3500 
L 1119 3500 
L 1119 1403 
Q 1119 906 1312 657 
Q 1506 409 1894 409 
Q 2359 409 2629 706 
Q 2900 1003 2900 1516 
L 2900 3500 
L 3475 3500 
L 3475 0 
L 2900 0 
L 2900 538 
Q 2691 219 2414 64 
Q 2138 -91 1772 -91 
Q 1169 -91 856 284 
Q 544 659 544 1381 
z
M 1991 3584 
L 1991 3584 
z
" transform="scale(0.015625)"/>
       <path id="DejaVuSans-6e" d="M 3513 2113 
L 3513 0 
L 2938 0 
L 2938 2094 
Q 2938 2591 2744 2837 
Q 2550 3084 2163 3084 
Q 1697 3084 1428 2787 
Q 1159 2491 1159 1978 
L 1159 0 
L 581 0 
L 581 3500 
L 1159 3500 
L 1159 2956 
Q 1366 3272 1645 3428 
Q 1925 3584 2291 3584 
Q 2894 3584 3203 3211 
Q 3513 2838 3513 2113 
z
" transform="scale(0.015625)"/>
       <path id="DejaVuSans-74" d="M 1172 4494 
L 1172 3500 
L 2356 3500 
L 2356 3053 
L 1172 3053 
L 1172 1153 
Q 1172 725 1289 603 
Q 1406 481 1766 481 
L 2356 481 
L 2356 0 
L 1766 0 
Q 1100 0 847 248 
Q 594 497 594 1153 
L 594 3053 
L 172 3053 
L 172 3500 
L 594 3500 
L 594 4494 
L 1172 4494 
z
" transform="scale(0.015625)"/>
       <path id="DejaVuSans-73" d="M 2834 3397 
L 2834 2853 
Q 2591 2978 2328 3040 
Q 2066 3103 1784 3103 
Q 1356 3103 1142 2972 
Q 928 2841 928 2578 
Q 928 2378 1081 2264 
Q 1234 2150 1697 2047 
L 1894 2003 
Q 2506 1872 2764 1633 
Q 3022 1394 3022 966 
Q 3022 478 2636 193 
Q 2250 -91 1575 -91 
Q 1294 -91 989 -36 
Q 684 19 347 128 
L 347 722 
Q 666 556 975 473 
Q 1284 391 1588 391 
Q 1994 391 2212 530 
Q 2431 669 2431 922 
Q 2431 1156 2273 1281 
Q 2116 1406 1581 1522 
L 1381 1569 
Q 847 1681 609 1914 
Q 372 2147 372 2553 
Q 372 3047 722 3315 
Q 1072 3584 1716 3584 
Q 2034 3584 2315 3537 
Q 2597 3491 2834 3397 
z
" transform="scale(0.015625)"/>
      </defs>
      <use xlink:href="#DejaVuSans-53"/>
      <use xlink:href="#DejaVuSans-69" x="63.476562"/>
      <use xlink:href="#DejaVuSans-7a" x="91.259766"/>
      <use xlink:href="#DejaVuSans-65" x="143.75"/>
      <use xlink:href="#DejaVuSans-20" x="205.273438"/>
      <use xlink:href="#DejaVuSans-63" x="237.060547"/>
      <use xlink:href="#DejaVuSans-6f" x="292.041016"/>
      <use xlink:href="#DejaVuSans-75" x="353.222656"/>
      <use xlink:href="#DejaVuSans-6e" x="416.601562"/>
      <use xlink:href="#DejaVuSans-74" x="479.980469"/>
      <use xlink:href="#DejaVuSans-73" x="519.189453"/>
     </g>
    </g>
   </g>
   <g id="patch_66">
    <path d="M 54 252 
L 54 34.56 
" style="fill: none; stroke: #000000; stroke-width: 0.8; stroke-linejoin: miter; stroke-linecap: square"/>
   </g>
   <g id="patch_67">
    <path d="M 388.8 252 
L 388.8 34.56 
" style="fill: none; stroke: #000000; stroke-width: 0.8; stroke-linejoin: miter; stroke-linecap: square"/>
   </g>
   <g id="patch_68">
    <path d="M 54 252 
L 388.8 252 
" style="fill: none; stroke: #000000; stroke-width: 0.8; stroke-linejoin: miter; stroke-linecap: square"/>
   </g>
   <g id="patch_69">
    <path d="M 54 34.56 
L 388.8 34.56 
" style="fill: none; stroke: #000000; stroke-width: 0.8; stroke-linejoin: miter; stroke-linecap: square"/>
   </g>
   <g id="text_17">
    <!-- Number of instances of each size (nicolau_b) -->
    <g transform="translate(86.565 28.56)scale(0.12 -0.12)">
     <defs>
      <path id="DejaVuSans-4e" d="M 628 4666 
L 1478 4666 
L 3547 763 
L 3547 4666 
L 4159 4666 
L 4159 0 
L 3309 0 
L 1241 3903 
L 1241 0 
L 628 0 
L 628 4666 
z
" transform="scale(0.015625)"/>
      <path id="DejaVuSans-6d" d="M 3328 2828 
Q 3544 3216 3844 3400 
Q 4144 3584 4550 3584 
Q 5097 3584 5394 3201 
Q 5691 2819 5691 2113 
L 5691 0 
L 5113 0 
L 5113 2094 
Q 5113 2597 4934 2840 
Q 4756 3084 4391 3084 
Q 3944 3084 3684 2787 
Q 3425 2491 3425 1978 
L 3425 0 
L 2847 0 
L 2847 2094 
Q 2847 2600 2669 2842 
Q 2491 3084 2119 3084 
Q 1678 3084 1418 2786 
Q 1159 2488 1159 1978 
L 1159 0 
L 581 0 
L 581 3500 
L 1159 3500 
L 1159 2956 
Q 1356 3278 1631 3431 
Q 1906 3584 2284 3584 
Q 2666 3584 2933 3390 
Q 3200 3197 3328 2828 
z
" transform="scale(0.015625)"/>
      <path id="DejaVuSans-62" d="M 3116 1747 
Q 3116 2381 2855 2742 
Q 2594 3103 2138 3103 
Q 1681 3103 1420 2742 
Q 1159 2381 1159 1747 
Q 1159 1113 1420 752 
Q 1681 391 2138 391 
Q 2594 391 2855 752 
Q 3116 1113 3116 1747 
z
M 1159 2969 
Q 1341 3281 1617 3432 
Q 1894 3584 2278 3584 
Q 2916 3584 3314 3078 
Q 3713 2572 3713 1747 
Q 3713 922 3314 415 
Q 2916 -91 2278 -91 
Q 1894 -91 1617 61 
Q 1341 213 1159 525 
L 1159 0 
L 581 0 
L 581 4863 
L 1159 4863 
L 1159 2969 
z
" transform="scale(0.015625)"/>
      <path id="DejaVuSans-72" d="M 2631 2963 
Q 2534 3019 2420 3045 
Q 2306 3072 2169 3072 
Q 1681 3072 1420 2755 
Q 1159 2438 1159 1844 
L 1159 0 
L 581 0 
L 581 3500 
L 1159 3500 
L 1159 2956 
Q 1341 3275 1631 3429 
Q 1922 3584 2338 3584 
Q 2397 3584 2469 3576 
Q 2541 3569 2628 3553 
L 2631 2963 
z
" transform="scale(0.015625)"/>
      <path id="DejaVuSans-66" d="M 2375 4863 
L 2375 4384 
L 1825 4384 
Q 1516 4384 1395 4259 
Q 1275 4134 1275 3809 
L 1275 3500 
L 2222 3500 
L 2222 3053 
L 1275 3053 
L 1275 0 
L 697 0 
L 697 3053 
L 147 3053 
L 147 3500 
L 697 3500 
L 697 3744 
Q 697 4328 969 4595 
Q 1241 4863 1831 4863 
L 2375 4863 
z
" transform="scale(0.015625)"/>
      <path id="DejaVuSans-61" d="M 2194 1759 
Q 1497 1759 1228 1600 
Q 959 1441 959 1056 
Q 959 750 1161 570 
Q 1363 391 1709 391 
Q 2188 391 2477 730 
Q 2766 1069 2766 1631 
L 2766 1759 
L 2194 1759 
z
M 3341 1997 
L 3341 0 
L 2766 0 
L 2766 531 
Q 2569 213 2275 61 
Q 1981 -91 1556 -91 
Q 1019 -91 701 211 
Q 384 513 384 1019 
Q 384 1609 779 1909 
Q 1175 2209 1959 2209 
L 2766 2209 
L 2766 2266 
Q 2766 2663 2505 2880 
Q 2244 3097 1772 3097 
Q 1472 3097 1187 3025 
Q 903 2953 641 2809 
L 641 3341 
Q 956 3463 1253 3523 
Q 1550 3584 1831 3584 
Q 2591 3584 2966 3190 
Q 3341 2797 3341 1997 
z
" transform="scale(0.015625)"/>
      <path id="DejaVuSans-68" d="M 3513 2113 
L 3513 0 
L 2938 0 
L 2938 2094 
Q 2938 2591 2744 2837 
Q 2550 3084 2163 3084 
Q 1697 3084 1428 2787 
Q 1159 2491 1159 1978 
L 1159 0 
L 581 0 
L 581 4863 
L 1159 4863 
L 1159 2956 
Q 1366 3272 1645 3428 
Q 1925 3584 2291 3584 
Q 2894 3584 3203 3211 
Q 3513 2838 3513 2113 
z
" transform="scale(0.015625)"/>
      <path id="DejaVuSans-28" d="M 1984 4856 
Q 1566 4138 1362 3434 
Q 1159 2731 1159 2009 
Q 1159 1288 1364 580 
Q 1569 -128 1984 -844 
L 1484 -844 
Q 1016 -109 783 600 
Q 550 1309 550 2009 
Q 550 2706 781 3412 
Q 1013 4119 1484 4856 
L 1984 4856 
z
" transform="scale(0.015625)"/>
      <path id="DejaVuSans-6c" d="M 603 4863 
L 1178 4863 
L 1178 0 
L 603 0 
L 603 4863 
z
" transform="scale(0.015625)"/>
      <path id="DejaVuSans-5f" d="M 3263 -1063 
L 3263 -1509 
L -63 -1509 
L -63 -1063 
L 3263 -1063 
z
" transform="scale(0.015625)"/>
      <path id="DejaVuSans-29" d="M 513 4856 
L 1013 4856 
Q 1481 4119 1714 3412 
Q 1947 2706 1947 2009 
Q 1947 1309 1714 600 
Q 1481 -109 1013 -844 
L 513 -844 
Q 928 -128 1133 580 
Q 1338 1288 1338 2009 
Q 1338 2731 1133 3434 
Q 928 4138 513 4856 
z
" transform="scale(0.015625)"/>
     </defs>
     <use xlink:href="#DejaVuSans-4e"/>
     <use xlink:href="#DejaVuSans-75" x="74.804688"/>
     <use xlink:href="#DejaVuSans-6d" x="138.183594"/>
     <use xlink:href="#DejaVuSans-62" x="235.595703"/>
     <use xlink:href="#DejaVuSans-65" x="299.072266"/>
     <use xlink:href="#DejaVuSans-72" x="360.595703"/>
     <use xlink:href="#DejaVuSans-20" x="401.708984"/>
     <use xlink:href="#DejaVuSans-6f" x="433.496094"/>
     <use xlink:href="#DejaVuSans-66" x="494.677734"/>
     <use xlink:href="#DejaVuSans-20" x="529.882812"/>
     <use xlink:href="#DejaVuSans-69" x="561.669922"/>
     <use xlink:href="#DejaVuSans-6e" x="589.453125"/>
     <use xlink:href="#DejaVuSans-73" x="652.832031"/>
     <use xlink:href="#DejaVuSans-74" x="704.931641"/>
     <use xlink:href="#DejaVuSans-61" x="744.140625"/>
     <use xlink:href="#DejaVuSans-6e" x="805.419922"/>
     <use xlink:href="#DejaVuSans-63" x="868.798828"/>
     <use xlink:href="#DejaVuSans-65" x="923.779297"/>
     <use xlink:href="#DejaVuSans-73" x="985.302734"/>
     <use xlink:href="#DejaVuSans-20" x="1037.402344"/>
     <use xlink:href="#DejaVuSans-6f" x="1069.189453"/>
     <use xlink:href="#DejaVuSans-66" x="1130.371094"/>
     <use xlink:href="#DejaVuSans-20" x="1165.576172"/>
     <use xlink:href="#DejaVuSans-65" x="1197.363281"/>
     <use xlink:href="#DejaVuSans-61" x="1258.886719"/>
     <use xlink:href="#DejaVuSans-63" x="1320.166016"/>
     <use xlink:href="#DejaVuSans-68" x="1375.146484"/>
     <use xlink:href="#DejaVuSans-20" x="1438.525391"/>
     <use xlink:href="#DejaVuSans-73" x="1470.3125"/>
     <use xlink:href="#DejaVuSans-69" x="1522.412109"/>
     <use xlink:href="#DejaVuSans-7a" x="1550.195312"/>
     <use xlink:href="#DejaVuSans-65" x="1602.685547"/>
     <use xlink:href="#DejaVuSans-20" x="1664.208984"/>
     <use xlink:href="#DejaVuSans-28" x="1695.996094"/>
     <use xlink:href="#DejaVuSans-6e" x="1735.009766"/>
     <use xlink:href="#DejaVuSans-69" x="1798.388672"/>
     <use xlink:href="#DejaVuSans-63" x="1826.171875"/>
     <use xlink:href="#DejaVuSans-6f" x="1881.152344"/>
     <use xlink:href="#DejaVuSans-6c" x="1942.333984"/>
     <use xlink:href="#DejaVuSans-61" x="1970.117188"/>
     <use xlink:href="#DejaVuSans-75" x="2031.396484"/>
     <use xlink:href="#DejaVuSans-5f" x="2094.775391"/>
     <use xlink:href="#DejaVuSans-62" x="2144.775391"/>
     <use xlink:href="#DejaVuSans-29" x="2208.251953"/>
    </g>
   </g>
  </g>
 </g>
 <defs>
  <clipPath id="pa2cea63a50">
   <rect x="54" y="34.56" width="334.8" height="217.44"/>
  </clipPath>
 </defs>
</svg>
