<?xml version="1.0" encoding="utf-8" standalone="no"?>
<!DOCTYPE svg PUBLIC "-//W3C//DTD SVG 1.1//EN"
  "http://www.w3.org/Graphics/SVG/1.1/DTD/svg11.dtd">
<svg xmlns:xlink="http://www.w3.org/1999/xlink" width="432pt" height="288pt" viewBox="0 0 432 288" xmlns="http://www.w3.org/2000/svg" version="1.1">
 <metadata>
  <rdf:RDF xmlns:dc="http://purl.org/dc/elements/1.1/" xmlns:cc="http://creativecommons.org/ns#" xmlns:rdf="http://www.w3.org/1999/02/22-rdf-syntax-ns#">
   <cc:Work>
    <dc:type rdf:resource="http://purl.org/dc/dcmitype/StillImage"/>
    <dc:date>2022-01-12T03:40:14.296350</dc:date>
    <dc:format>image/svg+xml</dc:format>
    <dc:creator>
     <cc:Agent>
      <dc:title>Matplotlib v3.5.1, https://matplotlib.org/</dc:title>
     </cc:Agent>
    </dc:creator>
   </cc:Work>
  </rdf:RDF>
 </metadata>
 <defs>
  <style type="text/css">*{stroke-linejoin: round; stroke-linecap: butt}</style>
 </defs>
 <g id="figure_1">
  <g id="patch_1">
   <path d="M 0 288 
L 432 288 
L 432 0 
L 0 0 
L 0 288 
z
" style="fill: none"/>
  </g>
  <g id="axes_1">
   <g id="patch_2">
    <path d="M 54 252 
L 388.8 252 
L 388.8 34.56 
L 54 34.56 
z
" style="fill: #ffffff"/>
   </g>
   <g id="PolyCollection_1">
    <path d="M 69.218182 241.8508 
L 69.218182 242.116364 
L 74.127273 231.164916 
L 79.036364 220.556936 
L 83.945455 215.671446 
L 88.854545 211.064656 
L 93.763636 208.441904 
L 98.672727 204.147583 
L 103.581818 203.200032 
L 108.490909 201.499528 
L 113.4 198.478069 
L 118.309091 198.475814 
L 123.218182 194.404169 
L 128.127273 195.118115 
L 133.036364 190.762146 
L 137.945455 196.189205 
L 142.854545 191.753712 
L 147.763636 190.762674 
L 152.672727 192.461744 
L 157.581818 190.295858 
L 162.490909 189.762203 
L 167.4 189.555362 
L 172.309091 189.74166 
L 177.218182 189.497783 
L 182.127273 189.047217 
L 187.036364 188.322568 
L 191.945455 183.87819 
L 196.854545 185.730388 
L 201.763636 186.24635 
L 206.672727 181.355688 
L 211.581818 184.468112 
L 216.490909 184.430075 
L 221.4 182.133313 
L 226.309091 182.207214 
L 231.218182 183.585919 
L 236.127273 183.450998 
L 241.036364 180.911764 
L 245.945455 184.358717 
L 250.854545 182.088948 
L 255.763636 176.853171 
L 260.672727 180.865103 
L 265.581818 180.899975 
L 270.490909 180.351972 
L 275.4 176.851781 
L 280.309091 189.253843 
L 285.218182 179.672555 
L 290.127273 181.445127 
L 295.036364 179.047399 
L 299.945455 180.291142 
L 304.854545 181.525177 
L 309.763636 177.315472 
L 314.672727 177.007787 
L 319.581818 179.648763 
L 324.490909 180.44709 
L 329.4 176.530856 
L 334.309091 175.582706 
L 339.218182 176.123951 
L 344.127273 174.249428 
L 349.036364 173.903151 
L 353.945455 174.414356 
L 358.854545 175.470501 
L 363.763636 175.851273 
L 368.672727 175.648825 
L 373.581818 173.48711 
L 373.581818 173.12473 
L 373.581818 173.12473 
L 368.672727 175.165698 
L 363.763636 175.477599 
L 358.854545 175.038195 
L 353.945455 173.939841 
L 349.036364 173.686211 
L 344.127273 173.966504 
L 339.218182 175.539206 
L 334.309091 175.187335 
L 329.4 175.886469 
L 324.490909 180.071698 
L 319.581818 179.235803 
L 314.672727 176.304742 
L 309.763636 177.210716 
L 304.854545 181.404119 
L 299.945455 179.525731 
L 295.036364 177.927451 
L 290.127273 181.146791 
L 285.218182 178.676204 
L 280.309091 179.782385 
L 275.4 176.436741 
L 270.490909 179.664768 
L 265.581818 180.309938 
L 260.672727 180.410789 
L 255.763636 175.926817 
L 250.854545 181.513696 
L 245.945455 183.556615 
L 241.036364 180.455654 
L 236.127273 182.657269 
L 231.218182 182.816019 
L 226.309091 181.942693 
L 221.4 181.955563 
L 216.490909 183.902454 
L 211.581818 184.264366 
L 206.672727 180.868431 
L 201.763636 185.373108 
L 196.854545 185.549362 
L 191.945455 182.326786 
L 187.036364 183.732729 
L 182.127273 188.639497 
L 177.218182 187.872049 
L 172.309091 189.325541 
L 167.4 188.772955 
L 162.490909 189.531353 
L 157.581818 189.887529 
L 152.672727 192.130683 
L 147.763636 190.673433 
L 142.854545 190.983316 
L 137.945455 193.566834 
L 133.036364 190.579934 
L 128.127273 194.743364 
L 123.218182 194.180805 
L 118.309091 198.227083 
L 113.4 197.757612 
L 108.490909 201.228182 
L 103.581818 202.612201 
L 98.672727 204.005246 
L 93.763636 208.206278 
L 88.854545 210.868055 
L 83.945455 215.061448 
L 79.036364 220.309062 
L 74.127273 230.193832 
L 69.218182 241.8508 
z
" clip-path="url(#pf56c1fafef)" style="fill: #1f77b4"/>
   </g>
   <g id="PolyCollection_2">
    <path d="M 69.218182 193.615027 
L 69.218182 198.691808 
L 74.127273 185.967617 
L 79.036364 177.743745 
L 83.945455 171.376444 
L 88.854545 172.103177 
L 93.763636 166.458817 
L 98.672727 161.391439 
L 103.581818 162.954931 
L 108.490909 156.535077 
L 113.4 157.116471 
L 118.309091 158.077992 
L 123.218182 153.126642 
L 128.127273 160.567064 
L 133.036364 150.719269 
L 137.945455 153.022541 
L 142.854545 151.477111 
L 147.763636 153.756214 
L 152.672727 158.500331 
L 157.581818 148.676914 
L 162.490909 151.108856 
L 167.4 150.382632 
L 172.309091 152.869281 
L 177.218182 146.44141 
L 182.127273 150.326511 
L 187.036364 151.013746 
L 191.945455 139.663108 
L 196.854545 147.053002 
L 201.763636 146.905253 
L 206.672727 139.654052 
L 211.581818 152.34072 
L 216.490909 149.715128 
L 221.4 141.729531 
L 226.309091 145.758968 
L 231.218182 143.019495 
L 236.127273 147.83684 
L 241.036364 141.733045 
L 245.945455 152.66607 
L 250.854545 145.9863 
L 255.763636 136.62561 
L 260.672727 145.420915 
L 265.581818 143.678305 
L 270.490909 144.610028 
L 275.4 140.871807 
L 280.309091 147.808316 
L 285.218182 140.096717 
L 290.127273 146.591791 
L 295.036364 142.041614 
L 299.945455 145.470466 
L 304.854545 146.753912 
L 309.763636 141.990662 
L 314.672727 141.468369 
L 319.581818 147.885423 
L 324.490909 144.893536 
L 329.4 139.443544 
L 334.309091 141.349433 
L 339.218182 135.416972 
L 344.127273 136.795089 
L 349.036364 135.173763 
L 353.945455 136.601391 
L 358.854545 137.383773 
L 363.763636 139.937946 
L 368.672727 138.132698 
L 373.581818 133.063391 
L 373.581818 132.170007 
L 373.581818 132.170007 
L 368.672727 137.562568 
L 363.763636 139.228608 
L 358.854545 136.921198 
L 353.945455 135.741447 
L 349.036364 135.069767 
L 344.127273 135.943538 
L 339.218182 134.65518 
L 334.309091 140.988407 
L 329.4 138.338039 
L 324.490909 144.328097 
L 319.581818 147.382642 
L 314.672727 141.170992 
L 309.763636 141.218471 
L 304.854545 145.470988 
L 299.945455 144.477245 
L 295.036364 141.457071 
L 290.127273 145.8576 
L 285.218182 138.173258 
L 280.309091 146.963147 
L 275.4 140.257441 
L 270.490909 144.13403 
L 265.581818 143.57943 
L 260.672727 144.785544 
L 255.763636 136.086806 
L 250.854545 145.891381 
L 245.945455 151.825218 
L 241.036364 140.342065 
L 236.127273 147.654149 
L 231.218182 142.517067 
L 226.309091 145.40738 
L 221.4 141.488548 
L 216.490909 149.145448 
L 211.581818 151.766598 
L 206.672727 138.75004 
L 201.763636 146.693231 
L 196.854545 146.674116 
L 191.945455 139.243576 
L 187.036364 150.338515 
L 182.127273 150.045275 
L 177.218182 146.210444 
L 172.309091 152.413366 
L 167.4 150.170709 
L 162.490909 151.017873 
L 157.581818 148.167275 
L 152.672727 158.110057 
L 147.763636 152.757155 
L 142.854545 150.502036 
L 137.945455 152.741412 
L 133.036364 149.624112 
L 128.127273 160.173301 
L 123.218182 152.637658 
L 118.309091 158.005184 
L 113.4 156.875137 
L 108.490909 156.106274 
L 103.581818 161.767002 
L 98.672727 160.622783 
L 93.763636 165.953463 
L 88.854545 170.427773 
L 83.945455 171.111552 
L 79.036364 176.935974 
L 74.127273 184.035199 
L 69.218182 193.615027 
z
" clip-path="url(#pf56c1fafef)" style="fill: #ff7f0e"/>
   </g>
   <g id="PolyCollection_3">
    <path d="M 69.218182 192.276105 
L 69.218182 193.9716 
L 74.127273 184.386913 
L 79.036364 177.171348 
L 83.945455 171.482024 
L 88.854545 170.119027 
L 93.763636 167.711191 
L 98.672727 161.958669 
L 103.581818 163.227837 
L 108.490909 158.037169 
L 113.4 158.635542 
L 118.309091 159.142301 
L 123.218182 153.619144 
L 128.127273 162.341696 
L 133.036364 150.013407 
L 137.945455 153.784182 
L 142.854545 151.610529 
L 147.763636 154.841983 
L 152.672727 159.680498 
L 157.581818 149.749185 
L 162.490909 151.739727 
L 167.4 151.50466 
L 172.309091 153.322155 
L 177.218182 147.62748 
L 182.127273 151.166768 
L 187.036364 152.027651 
L 191.945455 140.671182 
L 196.854545 147.943049 
L 201.763636 147.583543 
L 206.672727 140.558858 
L 211.581818 155.63802 
L 216.490909 155.492621 
L 221.4 147.287867 
L 226.309091 151.490834 
L 231.218182 148.666716 
L 236.127273 152.484977 
L 241.036364 146.058972 
L 245.945455 157.045933 
L 250.854545 151.502664 
L 255.763636 141.46087 
L 260.672727 149.418839 
L 265.581818 148.606585 
L 270.490909 149.051381 
L 275.4 145.040531 
L 280.309091 152.607214 
L 285.218182 144.067514 
L 290.127273 150.27056 
L 295.036364 145.763009 
L 299.945455 148.111196 
L 304.854545 148.838221 
L 309.763636 145.895962 
L 314.672727 145.855355 
L 319.581818 152.436284 
L 324.490909 149.568039 
L 329.4 144.238674 
L 334.309091 147.622072 
L 339.218182 141.60176 
L 344.127273 142.097267 
L 349.036364 141.728325 
L 353.945455 142.34415 
L 358.854545 143.537387 
L 363.763636 145.683051 
L 368.672727 143.750788 
L 373.581818 139.005229 
L 373.581818 138.757015 
L 373.581818 138.757015 
L 368.672727 143.592542 
L 363.763636 145.633329 
L 358.854545 143.091785 
L 353.945455 142.00754 
L 349.036364 141.240129 
L 344.127273 141.970966 
L 339.218182 141.288324 
L 334.309091 146.594982 
L 329.4 144.149708 
L 324.490909 148.977787 
L 319.581818 152.316749 
L 314.672727 145.594222 
L 309.763636 144.819277 
L 304.854545 148.76176 
L 299.945455 147.953924 
L 295.036364 145.544504 
L 290.127273 150.193884 
L 285.218182 143.770153 
L 280.309091 152.558668 
L 275.4 144.724199 
L 270.490909 148.755974 
L 265.581818 148.051237 
L 260.672727 149.088635 
L 255.763636 141.092869 
L 250.854545 151.028815 
L 245.945455 156.745838 
L 241.036364 145.910986 
L 236.127273 152.311908 
L 231.218182 148.335197 
L 226.309091 151.33794 
L 221.4 146.985311 
L 216.490909 154.493655 
L 211.581818 149.852366 
L 206.672727 139.632043 
L 201.763636 147.489166 
L 196.854545 147.239582 
L 191.945455 139.63311 
L 187.036364 151.011243 
L 182.127273 150.753083 
L 177.218182 147.286121 
L 172.309091 152.845321 
L 167.4 150.567421 
L 162.490909 150.967819 
L 157.581818 148.87448 
L 152.672727 158.407217 
L 147.763636 154.113061 
L 142.854545 151.465496 
L 137.945455 153.310359 
L 133.036364 149.902069 
L 128.127273 160.884892 
L 123.218182 152.886552 
L 118.309091 158.008808 
L 113.4 157.667331 
L 108.490909 156.408527 
L 103.581818 163.136616 
L 98.672727 160.269203 
L 93.763636 166.47346 
L 88.854545 169.611421 
L 83.945455 170.437337 
L 79.036364 176.704697 
L 74.127273 183.978714 
L 69.218182 192.276105 
z
" clip-path="url(#pf56c1fafef)" style="fill: #2ca02c"/>
   </g>
   <g id="PolyCollection_4">
    <path d="M 69.218182 122.277642 
L 69.218182 135.808876 
L 74.127273 120.266383 
L 79.036364 107.957032 
L 83.945455 105.34728 
L 88.854545 100.3275 
L 93.763636 92.121698 
L 98.672727 122.407517 
L 103.581818 87.758319 
L 108.490909 87.73371 
L 113.4 50120.218447 
L 118.309091 82.227592 
L 123.218182 79.123101 
L 128.127273 82.332027 
L 133.036364 78.303833 
L 137.945455 80.090781 
L 142.854545 79.015357 
L 147.763636 80.276646 
L 152.672727 78.26298 
L 157.581818 74.68771 
L 162.490909 77.146054 
L 167.4 69.961843 
L 172.309091 75.413092 
L 177.218182 75.712861 
L 182.127273 73.911354 
L 187.036364 74.032198 
L 191.945455 68.374472 
L 196.854545 66.993562 
L 201.763636 65.719246 
L 206.672727 69.289417 
L 211.581818 72.842983 
L 216.490909 65.065373 
L 221.4 77.748527 
L 226.309091 61.509104 
L 231.218182 65.964067 
L 236.127273 63.280256 
L 241.036364 65.304474 
L 245.945455 66.060159 
L 250.854545 63.498259 
L 255.763636 65.584555 
L 260.672727 65.684167 
L 265.581818 61.186014 
L 270.490909 69.505348 
L 275.4 57.314363 
L 280.309091 58.865809 
L 285.218182 66.627014 
L 290.127273 59.438229 
L 295.036364 69.098001 
L 299.945455 55.738402 
L 304.854545 58.484352 
L 309.763636 59.717443 
L 314.672727 54.505989 
L 319.581818 59.438308 
L 324.490909 58.700692 
L 329.4 55.115741 
L 334.309091 66.101667 
L 339.218182 55.183088 
L 344.127273 56.028897 
L 349.036364 51.765658 
L 353.945455 58.211203 
L 358.854545 54.614908 
L 363.763636 57.99714 
L 368.672727 57.863949 
L 373.581818 54.454069 
L 373.581818 47.915597 
L 373.581818 47.915597 
L 368.672727 50.708002 
L 363.763636 47.230768 
L 358.854545 49.1527 
L 353.945455 44.443636 
L 349.036364 47.405799 
L 344.127273 50.555421 
L 339.218182 53.060886 
L 334.309091 50.364382 
L 329.4 53.128792 
L 324.490909 52.293892 
L 319.581818 49.722398 
L 314.672727 48.673118 
L 309.763636 53.584394 
L 304.854545 53.618683 
L 299.945455 55.011013 
L 295.036364 47.522614 
L 290.127273 53.941482 
L 285.218182 52.923457 
L 280.309091 54.822944 
L 275.4 52.693018 
L 270.490909 54.720536 
L 265.581818 55.271519 
L 260.672727 59.507243 
L 255.763636 49.331867 
L 250.854545 59.01555 
L 245.945455 58.158776 
L 241.036364 60.635581 
L 236.127273 62.493745 
L 231.218182 63.696119 
L 226.309091 58.752986 
L 221.4 55.50301 
L 216.490909 62.587343 
L 211.581818 62.243095 
L 206.672727 63.954201 
L 201.763636 64.809595 
L 196.854545 64.914045 
L 191.945455 63.729749 
L 187.036364 69.470078 
L 182.127273 63.614162 
L 177.218182 67.479887 
L 172.309091 68.894515 
L 167.4 67.57142 
L 162.490909 72.901492 
L 157.581818 69.835848 
L 152.672727 70.029519 
L 147.763636 74.528432 
L 142.854545 75.95193 
L 137.945455 72.541264 
L 133.036364 70.289915 
L 128.127273 77.056824 
L 123.218182 76.220759 
L 118.309091 64.051932 
L 113.4 64.042147 
L 108.490909 82.583679 
L 103.581818 85.610347 
L 98.672727 76.922257 
L 93.763636 87.459137 
L 88.854545 96.039047 
L 83.945455 102.603374 
L 79.036364 105.967559 
L 74.127273 116.716457 
L 69.218182 122.277642 
z
" clip-path="url(#pf56c1fafef)" style="fill: #d62728"/>
   </g>
   <g id="matplotlib.axis_1">
    <g id="xtick_1">
     <g id="line2d_1">
      <defs>
       <path id="m1d0e56d10e" d="M 0 0 
L 0 3.5 
" style="stroke: #000000; stroke-width: 0.8"/>
      </defs>
      <g>
       <use xlink:href="#m1d0e56d10e" x="69.218182" y="252" style="stroke: #000000; stroke-width: 0.8"/>
      </g>
     </g>
     <g id="text_1">
      <!-- 1 -->
      <g transform="translate(66.036932 266.598437)scale(0.1 -0.1)">
       <defs>
        <path id="DejaVuSans-31" d="M 794 531 
L 1825 531 
L 1825 4091 
L 703 3866 
L 703 4441 
L 1819 4666 
L 2450 4666 
L 2450 531 
L 3481 531 
L 3481 0 
L 794 0 
L 794 531 
z
" transform="scale(0.015625)"/>
       </defs>
       <use xlink:href="#DejaVuSans-31"/>
      </g>
     </g>
    </g>
    <g id="xtick_2">
     <g id="line2d_2">
      <g>
       <use xlink:href="#m1d0e56d10e" x="93.763636" y="252" style="stroke: #000000; stroke-width: 0.8"/>
      </g>
     </g>
     <g id="text_2">
      <!-- 6 -->
      <g transform="translate(90.582386 266.598437)scale(0.1 -0.1)">
       <defs>
        <path id="DejaVuSans-36" d="M 2113 2584 
Q 1688 2584 1439 2293 
Q 1191 2003 1191 1497 
Q 1191 994 1439 701 
Q 1688 409 2113 409 
Q 2538 409 2786 701 
Q 3034 994 3034 1497 
Q 3034 2003 2786 2293 
Q 2538 2584 2113 2584 
z
M 3366 4563 
L 3366 3988 
Q 3128 4100 2886 4159 
Q 2644 4219 2406 4219 
Q 1781 4219 1451 3797 
Q 1122 3375 1075 2522 
Q 1259 2794 1537 2939 
Q 1816 3084 2150 3084 
Q 2853 3084 3261 2657 
Q 3669 2231 3669 1497 
Q 3669 778 3244 343 
Q 2819 -91 2113 -91 
Q 1303 -91 875 529 
Q 447 1150 447 2328 
Q 447 3434 972 4092 
Q 1497 4750 2381 4750 
Q 2619 4750 2861 4703 
Q 3103 4656 3366 4563 
z
" transform="scale(0.015625)"/>
       </defs>
       <use xlink:href="#DejaVuSans-36"/>
      </g>
     </g>
    </g>
    <g id="xtick_3">
     <g id="line2d_3">
      <g>
       <use xlink:href="#m1d0e56d10e" x="118.309091" y="252" style="stroke: #000000; stroke-width: 0.8"/>
      </g>
     </g>
     <g id="text_3">
      <!-- 11 -->
      <g transform="translate(111.946591 266.598437)scale(0.1 -0.1)">
       <use xlink:href="#DejaVuSans-31"/>
       <use xlink:href="#DejaVuSans-31" x="63.623047"/>
      </g>
     </g>
    </g>
    <g id="xtick_4">
     <g id="line2d_4">
      <g>
       <use xlink:href="#m1d0e56d10e" x="142.854545" y="252" style="stroke: #000000; stroke-width: 0.8"/>
      </g>
     </g>
     <g id="text_4">
      <!-- 16 -->
      <g transform="translate(136.492045 266.598437)scale(0.1 -0.1)">
       <use xlink:href="#DejaVuSans-31"/>
       <use xlink:href="#DejaVuSans-36" x="63.623047"/>
      </g>
     </g>
    </g>
    <g id="xtick_5">
     <g id="line2d_5">
      <g>
       <use xlink:href="#m1d0e56d10e" x="167.4" y="252" style="stroke: #000000; stroke-width: 0.8"/>
      </g>
     </g>
     <g id="text_5">
      <!-- 21 -->
      <g transform="translate(161.0375 266.598437)scale(0.1 -0.1)">
       <defs>
        <path id="DejaVuSans-32" d="M 1228 531 
L 3431 531 
L 3431 0 
L 469 0 
L 469 531 
Q 828 903 1448 1529 
Q 2069 2156 2228 2338 
Q 2531 2678 2651 2914 
Q 2772 3150 2772 3378 
Q 2772 3750 2511 3984 
Q 2250 4219 1831 4219 
Q 1534 4219 1204 4116 
Q 875 4013 500 3803 
L 500 4441 
Q 881 4594 1212 4672 
Q 1544 4750 1819 4750 
Q 2544 4750 2975 4387 
Q 3406 4025 3406 3419 
Q 3406 3131 3298 2873 
Q 3191 2616 2906 2266 
Q 2828 2175 2409 1742 
Q 1991 1309 1228 531 
z
" transform="scale(0.015625)"/>
       </defs>
       <use xlink:href="#DejaVuSans-32"/>
       <use xlink:href="#DejaVuSans-31" x="63.623047"/>
      </g>
     </g>
    </g>
    <g id="xtick_6">
     <g id="line2d_6">
      <g>
       <use xlink:href="#m1d0e56d10e" x="191.945455" y="252" style="stroke: #000000; stroke-width: 0.8"/>
      </g>
     </g>
     <g id="text_6">
      <!-- 26 -->
      <g transform="translate(185.582955 266.598437)scale(0.1 -0.1)">
       <use xlink:href="#DejaVuSans-32"/>
       <use xlink:href="#DejaVuSans-36" x="63.623047"/>
      </g>
     </g>
    </g>
    <g id="xtick_7">
     <g id="line2d_7">
      <g>
       <use xlink:href="#m1d0e56d10e" x="216.490909" y="252" style="stroke: #000000; stroke-width: 0.8"/>
      </g>
     </g>
     <g id="text_7">
      <!-- 31 -->
      <g transform="translate(210.128409 266.598437)scale(0.1 -0.1)">
       <defs>
        <path id="DejaVuSans-33" d="M 2597 2516 
Q 3050 2419 3304 2112 
Q 3559 1806 3559 1356 
Q 3559 666 3084 287 
Q 2609 -91 1734 -91 
Q 1441 -91 1130 -33 
Q 819 25 488 141 
L 488 750 
Q 750 597 1062 519 
Q 1375 441 1716 441 
Q 2309 441 2620 675 
Q 2931 909 2931 1356 
Q 2931 1769 2642 2001 
Q 2353 2234 1838 2234 
L 1294 2234 
L 1294 2753 
L 1863 2753 
Q 2328 2753 2575 2939 
Q 2822 3125 2822 3475 
Q 2822 3834 2567 4026 
Q 2313 4219 1838 4219 
Q 1578 4219 1281 4162 
Q 984 4106 628 3988 
L 628 4550 
Q 988 4650 1302 4700 
Q 1616 4750 1894 4750 
Q 2613 4750 3031 4423 
Q 3450 4097 3450 3541 
Q 3450 3153 3228 2886 
Q 3006 2619 2597 2516 
z
" transform="scale(0.015625)"/>
       </defs>
       <use xlink:href="#DejaVuSans-33"/>
       <use xlink:href="#DejaVuSans-31" x="63.623047"/>
      </g>
     </g>
    </g>
    <g id="xtick_8">
     <g id="line2d_8">
      <g>
       <use xlink:href="#m1d0e56d10e" x="241.036364" y="252" style="stroke: #000000; stroke-width: 0.8"/>
      </g>
     </g>
     <g id="text_8">
      <!-- 36 -->
      <g transform="translate(234.673864 266.598437)scale(0.1 -0.1)">
       <use xlink:href="#DejaVuSans-33"/>
       <use xlink:href="#DejaVuSans-36" x="63.623047"/>
      </g>
     </g>
    </g>
    <g id="xtick_9">
     <g id="line2d_9">
      <g>
       <use xlink:href="#m1d0e56d10e" x="265.581818" y="252" style="stroke: #000000; stroke-width: 0.8"/>
      </g>
     </g>
     <g id="text_9">
      <!-- 41 -->
      <g transform="translate(259.219318 266.598437)scale(0.1 -0.1)">
       <defs>
        <path id="DejaVuSans-34" d="M 2419 4116 
L 825 1625 
L 2419 1625 
L 2419 4116 
z
M 2253 4666 
L 3047 4666 
L 3047 1625 
L 3713 1625 
L 3713 1100 
L 3047 1100 
L 3047 0 
L 2419 0 
L 2419 1100 
L 313 1100 
L 313 1709 
L 2253 4666 
z
" transform="scale(0.015625)"/>
       </defs>
       <use xlink:href="#DejaVuSans-34"/>
       <use xlink:href="#DejaVuSans-31" x="63.623047"/>
      </g>
     </g>
    </g>
    <g id="xtick_10">
     <g id="line2d_10">
      <g>
       <use xlink:href="#m1d0e56d10e" x="290.127273" y="252" style="stroke: #000000; stroke-width: 0.8"/>
      </g>
     </g>
     <g id="text_10">
      <!-- 46 -->
      <g transform="translate(283.764773 266.598437)scale(0.1 -0.1)">
       <use xlink:href="#DejaVuSans-34"/>
       <use xlink:href="#DejaVuSans-36" x="63.623047"/>
      </g>
     </g>
    </g>
    <g id="xtick_11">
     <g id="line2d_11">
      <g>
       <use xlink:href="#m1d0e56d10e" x="314.672727" y="252" style="stroke: #000000; stroke-width: 0.8"/>
      </g>
     </g>
     <g id="text_11">
      <!-- 51 -->
      <g transform="translate(308.310227 266.598437)scale(0.1 -0.1)">
       <defs>
        <path id="DejaVuSans-35" d="M 691 4666 
L 3169 4666 
L 3169 4134 
L 1269 4134 
L 1269 2991 
Q 1406 3038 1543 3061 
Q 1681 3084 1819 3084 
Q 2600 3084 3056 2656 
Q 3513 2228 3513 1497 
Q 3513 744 3044 326 
Q 2575 -91 1722 -91 
Q 1428 -91 1123 -41 
Q 819 9 494 109 
L 494 744 
Q 775 591 1075 516 
Q 1375 441 1709 441 
Q 2250 441 2565 725 
Q 2881 1009 2881 1497 
Q 2881 1984 2565 2268 
Q 2250 2553 1709 2553 
Q 1456 2553 1204 2497 
Q 953 2441 691 2322 
L 691 4666 
z
" transform="scale(0.015625)"/>
       </defs>
       <use xlink:href="#DejaVuSans-35"/>
       <use xlink:href="#DejaVuSans-31" x="63.623047"/>
      </g>
     </g>
    </g>
    <g id="xtick_12">
     <g id="line2d_12">
      <g>
       <use xlink:href="#m1d0e56d10e" x="339.218182" y="252" style="stroke: #000000; stroke-width: 0.8"/>
      </g>
     </g>
     <g id="text_12">
      <!-- 56 -->
      <g transform="translate(332.855682 266.598437)scale(0.1 -0.1)">
       <use xlink:href="#DejaVuSans-35"/>
       <use xlink:href="#DejaVuSans-36" x="63.623047"/>
      </g>
     </g>
    </g>
    <g id="xtick_13">
     <g id="line2d_13">
      <g>
       <use xlink:href="#m1d0e56d10e" x="363.763636" y="252" style="stroke: #000000; stroke-width: 0.8"/>
      </g>
     </g>
     <g id="text_13">
      <!-- 61 -->
      <g transform="translate(357.401136 266.598437)scale(0.1 -0.1)">
       <use xlink:href="#DejaVuSans-36"/>
       <use xlink:href="#DejaVuSans-31" x="63.623047"/>
      </g>
     </g>
    </g>
    <g id="text_14">
     <!-- Program size -->
     <g transform="translate(189.022656 280.276563)scale(0.1 -0.1)">
      <defs>
       <path id="DejaVuSans-50" d="M 1259 4147 
L 1259 2394 
L 2053 2394 
Q 2494 2394 2734 2622 
Q 2975 2850 2975 3272 
Q 2975 3691 2734 3919 
Q 2494 4147 2053 4147 
L 1259 4147 
z
M 628 4666 
L 2053 4666 
Q 2838 4666 3239 4311 
Q 3641 3956 3641 3272 
Q 3641 2581 3239 2228 
Q 2838 1875 2053 1875 
L 1259 1875 
L 1259 0 
L 628 0 
L 628 4666 
z
" transform="scale(0.015625)"/>
       <path id="DejaVuSans-72" d="M 2631 2963 
Q 2534 3019 2420 3045 
Q 2306 3072 2169 3072 
Q 1681 3072 1420 2755 
Q 1159 2438 1159 1844 
L 1159 0 
L 581 0 
L 581 3500 
L 1159 3500 
L 1159 2956 
Q 1341 3275 1631 3429 
Q 1922 3584 2338 3584 
Q 2397 3584 2469 3576 
Q 2541 3569 2628 3553 
L 2631 2963 
z
" transform="scale(0.015625)"/>
       <path id="DejaVuSans-6f" d="M 1959 3097 
Q 1497 3097 1228 2736 
Q 959 2375 959 1747 
Q 959 1119 1226 758 
Q 1494 397 1959 397 
Q 2419 397 2687 759 
Q 2956 1122 2956 1747 
Q 2956 2369 2687 2733 
Q 2419 3097 1959 3097 
z
M 1959 3584 
Q 2709 3584 3137 3096 
Q 3566 2609 3566 1747 
Q 3566 888 3137 398 
Q 2709 -91 1959 -91 
Q 1206 -91 779 398 
Q 353 888 353 1747 
Q 353 2609 779 3096 
Q 1206 3584 1959 3584 
z
" transform="scale(0.015625)"/>
       <path id="DejaVuSans-67" d="M 2906 1791 
Q 2906 2416 2648 2759 
Q 2391 3103 1925 3103 
Q 1463 3103 1205 2759 
Q 947 2416 947 1791 
Q 947 1169 1205 825 
Q 1463 481 1925 481 
Q 2391 481 2648 825 
Q 2906 1169 2906 1791 
z
M 3481 434 
Q 3481 -459 3084 -895 
Q 2688 -1331 1869 -1331 
Q 1566 -1331 1297 -1286 
Q 1028 -1241 775 -1147 
L 775 -588 
Q 1028 -725 1275 -790 
Q 1522 -856 1778 -856 
Q 2344 -856 2625 -561 
Q 2906 -266 2906 331 
L 2906 616 
Q 2728 306 2450 153 
Q 2172 0 1784 0 
Q 1141 0 747 490 
Q 353 981 353 1791 
Q 353 2603 747 3093 
Q 1141 3584 1784 3584 
Q 2172 3584 2450 3431 
Q 2728 3278 2906 2969 
L 2906 3500 
L 3481 3500 
L 3481 434 
z
" transform="scale(0.015625)"/>
       <path id="DejaVuSans-61" d="M 2194 1759 
Q 1497 1759 1228 1600 
Q 959 1441 959 1056 
Q 959 750 1161 570 
Q 1363 391 1709 391 
Q 2188 391 2477 730 
Q 2766 1069 2766 1631 
L 2766 1759 
L 2194 1759 
z
M 3341 1997 
L 3341 0 
L 2766 0 
L 2766 531 
Q 2569 213 2275 61 
Q 1981 -91 1556 -91 
Q 1019 -91 701 211 
Q 384 513 384 1019 
Q 384 1609 779 1909 
Q 1175 2209 1959 2209 
L 2766 2209 
L 2766 2266 
Q 2766 2663 2505 2880 
Q 2244 3097 1772 3097 
Q 1472 3097 1187 3025 
Q 903 2953 641 2809 
L 641 3341 
Q 956 3463 1253 3523 
Q 1550 3584 1831 3584 
Q 2591 3584 2966 3190 
Q 3341 2797 3341 1997 
z
" transform="scale(0.015625)"/>
       <path id="DejaVuSans-6d" d="M 3328 2828 
Q 3544 3216 3844 3400 
Q 4144 3584 4550 3584 
Q 5097 3584 5394 3201 
Q 5691 2819 5691 2113 
L 5691 0 
L 5113 0 
L 5113 2094 
Q 5113 2597 4934 2840 
Q 4756 3084 4391 3084 
Q 3944 3084 3684 2787 
Q 3425 2491 3425 1978 
L 3425 0 
L 2847 0 
L 2847 2094 
Q 2847 2600 2669 2842 
Q 2491 3084 2119 3084 
Q 1678 3084 1418 2786 
Q 1159 2488 1159 1978 
L 1159 0 
L 581 0 
L 581 3500 
L 1159 3500 
L 1159 2956 
Q 1356 3278 1631 3431 
Q 1906 3584 2284 3584 
Q 2666 3584 2933 3390 
Q 3200 3197 3328 2828 
z
" transform="scale(0.015625)"/>
       <path id="DejaVuSans-20" transform="scale(0.015625)"/>
       <path id="DejaVuSans-73" d="M 2834 3397 
L 2834 2853 
Q 2591 2978 2328 3040 
Q 2066 3103 1784 3103 
Q 1356 3103 1142 2972 
Q 928 2841 928 2578 
Q 928 2378 1081 2264 
Q 1234 2150 1697 2047 
L 1894 2003 
Q 2506 1872 2764 1633 
Q 3022 1394 3022 966 
Q 3022 478 2636 193 
Q 2250 -91 1575 -91 
Q 1294 -91 989 -36 
Q 684 19 347 128 
L 347 722 
Q 666 556 975 473 
Q 1284 391 1588 391 
Q 1994 391 2212 530 
Q 2431 669 2431 922 
Q 2431 1156 2273 1281 
Q 2116 1406 1581 1522 
L 1381 1569 
Q 847 1681 609 1914 
Q 372 2147 372 2553 
Q 372 3047 722 3315 
Q 1072 3584 1716 3584 
Q 2034 3584 2315 3537 
Q 2597 3491 2834 3397 
z
" transform="scale(0.015625)"/>
       <path id="DejaVuSans-69" d="M 603 3500 
L 1178 3500 
L 1178 0 
L 603 0 
L 603 3500 
z
M 603 4863 
L 1178 4863 
L 1178 4134 
L 603 4134 
L 603 4863 
z
" transform="scale(0.015625)"/>
       <path id="DejaVuSans-7a" d="M 353 3500 
L 3084 3500 
L 3084 2975 
L 922 459 
L 3084 459 
L 3084 0 
L 275 0 
L 275 525 
L 2438 3041 
L 353 3041 
L 353 3500 
z
" transform="scale(0.015625)"/>
       <path id="DejaVuSans-65" d="M 3597 1894 
L 3597 1613 
L 953 1613 
Q 991 1019 1311 708 
Q 1631 397 2203 397 
Q 2534 397 2845 478 
Q 3156 559 3463 722 
L 3463 178 
Q 3153 47 2828 -22 
Q 2503 -91 2169 -91 
Q 1331 -91 842 396 
Q 353 884 353 1716 
Q 353 2575 817 3079 
Q 1281 3584 2069 3584 
Q 2775 3584 3186 3129 
Q 3597 2675 3597 1894 
z
M 3022 2063 
Q 3016 2534 2758 2815 
Q 2500 3097 2075 3097 
Q 1594 3097 1305 2825 
Q 1016 2553 972 2059 
L 3022 2063 
z
" transform="scale(0.015625)"/>
      </defs>
      <use xlink:href="#DejaVuSans-50"/>
      <use xlink:href="#DejaVuSans-72" x="58.552734"/>
      <use xlink:href="#DejaVuSans-6f" x="97.416016"/>
      <use xlink:href="#DejaVuSans-67" x="158.597656"/>
      <use xlink:href="#DejaVuSans-72" x="222.074219"/>
      <use xlink:href="#DejaVuSans-61" x="263.1875"/>
      <use xlink:href="#DejaVuSans-6d" x="324.466797"/>
      <use xlink:href="#DejaVuSans-20" x="421.878906"/>
      <use xlink:href="#DejaVuSans-73" x="453.666016"/>
      <use xlink:href="#DejaVuSans-69" x="505.765625"/>
      <use xlink:href="#DejaVuSans-7a" x="533.548828"/>
      <use xlink:href="#DejaVuSans-65" x="586.039062"/>
     </g>
    </g>
   </g>
   <g id="matplotlib.axis_2">
    <g id="ytick_1">
     <g id="line2d_14">
      <defs>
       <path id="mcba6d301c3" d="M 0 0 
L -3.5 0 
" style="stroke: #000000; stroke-width: 0.8"/>
      </defs>
      <g>
       <use xlink:href="#mcba6d301c3" x="54" y="225.3904" style="stroke: #000000; stroke-width: 0.8"/>
      </g>
     </g>
     <g id="text_15">
      <!-- $\mathdefault{10^{6}}$ -->
      <g transform="translate(29.4 229.189618)scale(0.1 -0.1)">
       <defs>
        <path id="DejaVuSans-30" d="M 2034 4250 
Q 1547 4250 1301 3770 
Q 1056 3291 1056 2328 
Q 1056 1369 1301 889 
Q 1547 409 2034 409 
Q 2525 409 2770 889 
Q 3016 1369 3016 2328 
Q 3016 3291 2770 3770 
Q 2525 4250 2034 4250 
z
M 2034 4750 
Q 2819 4750 3233 4129 
Q 3647 3509 3647 2328 
Q 3647 1150 3233 529 
Q 2819 -91 2034 -91 
Q 1250 -91 836 529 
Q 422 1150 422 2328 
Q 422 3509 836 4129 
Q 1250 4750 2034 4750 
z
" transform="scale(0.015625)"/>
       </defs>
       <use xlink:href="#DejaVuSans-31" transform="translate(0 0.765625)"/>
       <use xlink:href="#DejaVuSans-30" transform="translate(63.623047 0.765625)"/>
       <use xlink:href="#DejaVuSans-36" transform="translate(128.203125 39.046875)scale(0.7)"/>
      </g>
     </g>
    </g>
    <g id="ytick_2">
     <g id="line2d_15">
      <g>
       <use xlink:href="#mcba6d301c3" x="54" y="175.793155" style="stroke: #000000; stroke-width: 0.8"/>
      </g>
     </g>
     <g id="text_16">
      <!-- $\mathdefault{10^{7}}$ -->
      <g transform="translate(29.4 179.592374)scale(0.1 -0.1)">
       <defs>
        <path id="DejaVuSans-37" d="M 525 4666 
L 3525 4666 
L 3525 4397 
L 1831 0 
L 1172 0 
L 2766 4134 
L 525 4134 
L 525 4666 
z
" transform="scale(0.015625)"/>
       </defs>
       <use xlink:href="#DejaVuSans-31" transform="translate(0 0.684375)"/>
       <use xlink:href="#DejaVuSans-30" transform="translate(63.623047 0.684375)"/>
       <use xlink:href="#DejaVuSans-37" transform="translate(128.203125 38.965625)scale(0.7)"/>
      </g>
     </g>
    </g>
    <g id="ytick_3">
     <g id="line2d_16">
      <g>
       <use xlink:href="#mcba6d301c3" x="54" y="126.19591" style="stroke: #000000; stroke-width: 0.8"/>
      </g>
     </g>
     <g id="text_17">
      <!-- $\mathdefault{10^{8}}$ -->
      <g transform="translate(29.4 129.995129)scale(0.1 -0.1)">
       <defs>
        <path id="DejaVuSans-38" d="M 2034 2216 
Q 1584 2216 1326 1975 
Q 1069 1734 1069 1313 
Q 1069 891 1326 650 
Q 1584 409 2034 409 
Q 2484 409 2743 651 
Q 3003 894 3003 1313 
Q 3003 1734 2745 1975 
Q 2488 2216 2034 2216 
z
M 1403 2484 
Q 997 2584 770 2862 
Q 544 3141 544 3541 
Q 544 4100 942 4425 
Q 1341 4750 2034 4750 
Q 2731 4750 3128 4425 
Q 3525 4100 3525 3541 
Q 3525 3141 3298 2862 
Q 3072 2584 2669 2484 
Q 3125 2378 3379 2068 
Q 3634 1759 3634 1313 
Q 3634 634 3220 271 
Q 2806 -91 2034 -91 
Q 1263 -91 848 271 
Q 434 634 434 1313 
Q 434 1759 690 2068 
Q 947 2378 1403 2484 
z
M 1172 3481 
Q 1172 3119 1398 2916 
Q 1625 2713 2034 2713 
Q 2441 2713 2670 2916 
Q 2900 3119 2900 3481 
Q 2900 3844 2670 4047 
Q 2441 4250 2034 4250 
Q 1625 4250 1398 4047 
Q 1172 3844 1172 3481 
z
" transform="scale(0.015625)"/>
       </defs>
       <use xlink:href="#DejaVuSans-31" transform="translate(0 0.765625)"/>
       <use xlink:href="#DejaVuSans-30" transform="translate(63.623047 0.765625)"/>
       <use xlink:href="#DejaVuSans-38" transform="translate(128.203125 39.046875)scale(0.7)"/>
      </g>
     </g>
    </g>
    <g id="ytick_4">
     <g id="line2d_17">
      <g>
       <use xlink:href="#mcba6d301c3" x="54" y="76.598666" style="stroke: #000000; stroke-width: 0.8"/>
      </g>
     </g>
     <g id="text_18">
      <!-- $\mathdefault{10^{9}}$ -->
      <g transform="translate(29.4 80.397885)scale(0.1 -0.1)">
       <defs>
        <path id="DejaVuSans-39" d="M 703 97 
L 703 672 
Q 941 559 1184 500 
Q 1428 441 1663 441 
Q 2288 441 2617 861 
Q 2947 1281 2994 2138 
Q 2813 1869 2534 1725 
Q 2256 1581 1919 1581 
Q 1219 1581 811 2004 
Q 403 2428 403 3163 
Q 403 3881 828 4315 
Q 1253 4750 1959 4750 
Q 2769 4750 3195 4129 
Q 3622 3509 3622 2328 
Q 3622 1225 3098 567 
Q 2575 -91 1691 -91 
Q 1453 -91 1209 -44 
Q 966 3 703 97 
z
M 1959 2075 
Q 2384 2075 2632 2365 
Q 2881 2656 2881 3163 
Q 2881 3666 2632 3958 
Q 2384 4250 1959 4250 
Q 1534 4250 1286 3958 
Q 1038 3666 1038 3163 
Q 1038 2656 1286 2365 
Q 1534 2075 1959 2075 
z
" transform="scale(0.015625)"/>
       </defs>
       <use xlink:href="#DejaVuSans-31" transform="translate(0 0.765625)"/>
       <use xlink:href="#DejaVuSans-30" transform="translate(63.623047 0.765625)"/>
       <use xlink:href="#DejaVuSans-39" transform="translate(128.203125 39.046875)scale(0.7)"/>
      </g>
     </g>
    </g>
    <g id="ytick_5">
     <g id="line2d_18">
      <defs>
       <path id="mc7a6c14b1e" d="M 0 0 
L -2 0 
" style="stroke: #000000; stroke-width: 0.6"/>
      </defs>
      <g>
       <use xlink:href="#mc7a6c14b1e" x="54" y="251.323745" style="stroke: #000000; stroke-width: 0.6"/>
      </g>
     </g>
    </g>
    <g id="ytick_6">
     <g id="line2d_19">
      <g>
       <use xlink:href="#mc7a6c14b1e" x="54" y="245.127128" style="stroke: #000000; stroke-width: 0.6"/>
      </g>
     </g>
    </g>
    <g id="ytick_7">
     <g id="line2d_20">
      <g>
       <use xlink:href="#mc7a6c14b1e" x="54" y="240.320658" style="stroke: #000000; stroke-width: 0.6"/>
      </g>
     </g>
    </g>
    <g id="ytick_8">
     <g id="line2d_21">
      <g>
       <use xlink:href="#mc7a6c14b1e" x="54" y="236.393486" style="stroke: #000000; stroke-width: 0.6"/>
      </g>
     </g>
    </g>
    <g id="ytick_9">
     <g id="line2d_22">
      <g>
       <use xlink:href="#mc7a6c14b1e" x="54" y="233.07311" style="stroke: #000000; stroke-width: 0.6"/>
      </g>
     </g>
    </g>
    <g id="ytick_10">
     <g id="line2d_23">
      <g>
       <use xlink:href="#mc7a6c14b1e" x="54" y="230.196869" style="stroke: #000000; stroke-width: 0.6"/>
      </g>
     </g>
    </g>
    <g id="ytick_11">
     <g id="line2d_24">
      <g>
       <use xlink:href="#mc7a6c14b1e" x="54" y="227.659845" style="stroke: #000000; stroke-width: 0.6"/>
      </g>
     </g>
    </g>
    <g id="ytick_12">
     <g id="line2d_25">
      <g>
       <use xlink:href="#mc7a6c14b1e" x="54" y="210.460141" style="stroke: #000000; stroke-width: 0.6"/>
      </g>
     </g>
    </g>
    <g id="ytick_13">
     <g id="line2d_26">
      <g>
       <use xlink:href="#mc7a6c14b1e" x="54" y="201.7265" style="stroke: #000000; stroke-width: 0.6"/>
      </g>
     </g>
    </g>
    <g id="ytick_14">
     <g id="line2d_27">
      <g>
       <use xlink:href="#mc7a6c14b1e" x="54" y="195.529883" style="stroke: #000000; stroke-width: 0.6"/>
      </g>
     </g>
    </g>
    <g id="ytick_15">
     <g id="line2d_28">
      <g>
       <use xlink:href="#mc7a6c14b1e" x="54" y="190.723413" style="stroke: #000000; stroke-width: 0.6"/>
      </g>
     </g>
    </g>
    <g id="ytick_16">
     <g id="line2d_29">
      <g>
       <use xlink:href="#mc7a6c14b1e" x="54" y="186.796242" style="stroke: #000000; stroke-width: 0.6"/>
      </g>
     </g>
    </g>
    <g id="ytick_17">
     <g id="line2d_30">
      <g>
       <use xlink:href="#mc7a6c14b1e" x="54" y="183.475865" style="stroke: #000000; stroke-width: 0.6"/>
      </g>
     </g>
    </g>
    <g id="ytick_18">
     <g id="line2d_31">
      <g>
       <use xlink:href="#mc7a6c14b1e" x="54" y="180.599625" style="stroke: #000000; stroke-width: 0.6"/>
      </g>
     </g>
    </g>
    <g id="ytick_19">
     <g id="line2d_32">
      <g>
       <use xlink:href="#mc7a6c14b1e" x="54" y="178.062601" style="stroke: #000000; stroke-width: 0.6"/>
      </g>
     </g>
    </g>
    <g id="ytick_20">
     <g id="line2d_33">
      <g>
       <use xlink:href="#mc7a6c14b1e" x="54" y="160.862897" style="stroke: #000000; stroke-width: 0.6"/>
      </g>
     </g>
    </g>
    <g id="ytick_21">
     <g id="line2d_34">
      <g>
       <use xlink:href="#mc7a6c14b1e" x="54" y="152.129256" style="stroke: #000000; stroke-width: 0.6"/>
      </g>
     </g>
    </g>
    <g id="ytick_22">
     <g id="line2d_35">
      <g>
       <use xlink:href="#mc7a6c14b1e" x="54" y="145.932638" style="stroke: #000000; stroke-width: 0.6"/>
      </g>
     </g>
    </g>
    <g id="ytick_23">
     <g id="line2d_36">
      <g>
       <use xlink:href="#mc7a6c14b1e" x="54" y="141.126169" style="stroke: #000000; stroke-width: 0.6"/>
      </g>
     </g>
    </g>
    <g id="ytick_24">
     <g id="line2d_37">
      <g>
       <use xlink:href="#mc7a6c14b1e" x="54" y="137.198997" style="stroke: #000000; stroke-width: 0.6"/>
      </g>
     </g>
    </g>
    <g id="ytick_25">
     <g id="line2d_38">
      <g>
       <use xlink:href="#mc7a6c14b1e" x="54" y="133.878621" style="stroke: #000000; stroke-width: 0.6"/>
      </g>
     </g>
    </g>
    <g id="ytick_26">
     <g id="line2d_39">
      <g>
       <use xlink:href="#mc7a6c14b1e" x="54" y="131.00238" style="stroke: #000000; stroke-width: 0.6"/>
      </g>
     </g>
    </g>
    <g id="ytick_27">
     <g id="line2d_40">
      <g>
       <use xlink:href="#mc7a6c14b1e" x="54" y="128.465356" style="stroke: #000000; stroke-width: 0.6"/>
      </g>
     </g>
    </g>
    <g id="ytick_28">
     <g id="line2d_41">
      <g>
       <use xlink:href="#mc7a6c14b1e" x="54" y="111.265652" style="stroke: #000000; stroke-width: 0.6"/>
      </g>
     </g>
    </g>
    <g id="ytick_29">
     <g id="line2d_42">
      <g>
       <use xlink:href="#mc7a6c14b1e" x="54" y="102.532011" style="stroke: #000000; stroke-width: 0.6"/>
      </g>
     </g>
    </g>
    <g id="ytick_30">
     <g id="line2d_43">
      <g>
       <use xlink:href="#mc7a6c14b1e" x="54" y="96.335394" style="stroke: #000000; stroke-width: 0.6"/>
      </g>
     </g>
    </g>
    <g id="ytick_31">
     <g id="line2d_44">
      <g>
       <use xlink:href="#mc7a6c14b1e" x="54" y="91.528924" style="stroke: #000000; stroke-width: 0.6"/>
      </g>
     </g>
    </g>
    <g id="ytick_32">
     <g id="line2d_45">
      <g>
       <use xlink:href="#mc7a6c14b1e" x="54" y="87.601753" style="stroke: #000000; stroke-width: 0.6"/>
      </g>
     </g>
    </g>
    <g id="ytick_33">
     <g id="line2d_46">
      <g>
       <use xlink:href="#mc7a6c14b1e" x="54" y="84.281376" style="stroke: #000000; stroke-width: 0.6"/>
      </g>
     </g>
    </g>
    <g id="ytick_34">
     <g id="line2d_47">
      <g>
       <use xlink:href="#mc7a6c14b1e" x="54" y="81.405136" style="stroke: #000000; stroke-width: 0.6"/>
      </g>
     </g>
    </g>
    <g id="ytick_35">
     <g id="line2d_48">
      <g>
       <use xlink:href="#mc7a6c14b1e" x="54" y="78.868111" style="stroke: #000000; stroke-width: 0.6"/>
      </g>
     </g>
    </g>
    <g id="ytick_36">
     <g id="line2d_49">
      <g>
       <use xlink:href="#mc7a6c14b1e" x="54" y="61.668408" style="stroke: #000000; stroke-width: 0.6"/>
      </g>
     </g>
    </g>
    <g id="ytick_37">
     <g id="line2d_50">
      <g>
       <use xlink:href="#mc7a6c14b1e" x="54" y="52.934766" style="stroke: #000000; stroke-width: 0.6"/>
      </g>
     </g>
    </g>
    <g id="ytick_38">
     <g id="line2d_51">
      <g>
       <use xlink:href="#mc7a6c14b1e" x="54" y="46.738149" style="stroke: #000000; stroke-width: 0.6"/>
      </g>
     </g>
    </g>
    <g id="ytick_39">
     <g id="line2d_52">
      <g>
       <use xlink:href="#mc7a6c14b1e" x="54" y="41.93168" style="stroke: #000000; stroke-width: 0.6"/>
      </g>
     </g>
    </g>
    <g id="ytick_40">
     <g id="line2d_53">
      <g>
       <use xlink:href="#mc7a6c14b1e" x="54" y="38.004508" style="stroke: #000000; stroke-width: 0.6"/>
      </g>
     </g>
    </g>
    <g id="ytick_41">
     <g id="line2d_54">
      <g>
       <use xlink:href="#mc7a6c14b1e" x="54" y="34.684132" style="stroke: #000000; stroke-width: 0.6"/>
      </g>
     </g>
    </g>
    <g id="text_19">
     <!-- Median NEPS -->
     <g transform="translate(23.320312 176.144844)rotate(-90)scale(0.1 -0.1)">
      <defs>
       <path id="DejaVuSans-4d" d="M 628 4666 
L 1569 4666 
L 2759 1491 
L 3956 4666 
L 4897 4666 
L 4897 0 
L 4281 0 
L 4281 4097 
L 3078 897 
L 2444 897 
L 1241 4097 
L 1241 0 
L 628 0 
L 628 4666 
z
" transform="scale(0.015625)"/>
       <path id="DejaVuSans-64" d="M 2906 2969 
L 2906 4863 
L 3481 4863 
L 3481 0 
L 2906 0 
L 2906 525 
Q 2725 213 2448 61 
Q 2172 -91 1784 -91 
Q 1150 -91 751 415 
Q 353 922 353 1747 
Q 353 2572 751 3078 
Q 1150 3584 1784 3584 
Q 2172 3584 2448 3432 
Q 2725 3281 2906 2969 
z
M 947 1747 
Q 947 1113 1208 752 
Q 1469 391 1925 391 
Q 2381 391 2643 752 
Q 2906 1113 2906 1747 
Q 2906 2381 2643 2742 
Q 2381 3103 1925 3103 
Q 1469 3103 1208 2742 
Q 947 2381 947 1747 
z
" transform="scale(0.015625)"/>
       <path id="DejaVuSans-6e" d="M 3513 2113 
L 3513 0 
L 2938 0 
L 2938 2094 
Q 2938 2591 2744 2837 
Q 2550 3084 2163 3084 
Q 1697 3084 1428 2787 
Q 1159 2491 1159 1978 
L 1159 0 
L 581 0 
L 581 3500 
L 1159 3500 
L 1159 2956 
Q 1366 3272 1645 3428 
Q 1925 3584 2291 3584 
Q 2894 3584 3203 3211 
Q 3513 2838 3513 2113 
z
" transform="scale(0.015625)"/>
       <path id="DejaVuSans-4e" d="M 628 4666 
L 1478 4666 
L 3547 763 
L 3547 4666 
L 4159 4666 
L 4159 0 
L 3309 0 
L 1241 3903 
L 1241 0 
L 628 0 
L 628 4666 
z
" transform="scale(0.015625)"/>
       <path id="DejaVuSans-45" d="M 628 4666 
L 3578 4666 
L 3578 4134 
L 1259 4134 
L 1259 2753 
L 3481 2753 
L 3481 2222 
L 1259 2222 
L 1259 531 
L 3634 531 
L 3634 0 
L 628 0 
L 628 4666 
z
" transform="scale(0.015625)"/>
       <path id="DejaVuSans-53" d="M 3425 4513 
L 3425 3897 
Q 3066 4069 2747 4153 
Q 2428 4238 2131 4238 
Q 1616 4238 1336 4038 
Q 1056 3838 1056 3469 
Q 1056 3159 1242 3001 
Q 1428 2844 1947 2747 
L 2328 2669 
Q 3034 2534 3370 2195 
Q 3706 1856 3706 1288 
Q 3706 609 3251 259 
Q 2797 -91 1919 -91 
Q 1588 -91 1214 -16 
Q 841 59 441 206 
L 441 856 
Q 825 641 1194 531 
Q 1563 422 1919 422 
Q 2459 422 2753 634 
Q 3047 847 3047 1241 
Q 3047 1584 2836 1778 
Q 2625 1972 2144 2069 
L 1759 2144 
Q 1053 2284 737 2584 
Q 422 2884 422 3419 
Q 422 4038 858 4394 
Q 1294 4750 2059 4750 
Q 2388 4750 2728 4690 
Q 3069 4631 3425 4513 
z
" transform="scale(0.015625)"/>
      </defs>
      <use xlink:href="#DejaVuSans-4d"/>
      <use xlink:href="#DejaVuSans-65" x="86.279297"/>
      <use xlink:href="#DejaVuSans-64" x="147.802734"/>
      <use xlink:href="#DejaVuSans-69" x="211.279297"/>
      <use xlink:href="#DejaVuSans-61" x="239.0625"/>
      <use xlink:href="#DejaVuSans-6e" x="300.341797"/>
      <use xlink:href="#DejaVuSans-20" x="363.720703"/>
      <use xlink:href="#DejaVuSans-4e" x="395.507812"/>
      <use xlink:href="#DejaVuSans-45" x="470.3125"/>
      <use xlink:href="#DejaVuSans-50" x="533.496094"/>
      <use xlink:href="#DejaVuSans-53" x="593.798828"/>
     </g>
    </g>
   </g>
   <g id="line2d_55">
    <path d="M 69.218182 241.983173 
L 74.127273 230.673902 
L 79.036364 220.432642 
L 83.945455 215.364288 
L 88.854545 210.966131 
L 93.763636 208.323769 
L 98.672727 204.076297 
L 103.581818 202.904112 
L 108.490909 201.363428 
L 113.4 198.114829 
L 118.309091 198.351089 
L 123.218182 194.292198 
L 128.127273 194.929925 
L 133.036364 190.670847 
L 137.945455 194.838137 
L 142.854545 191.36507 
L 147.763636 190.718007 
L 152.672727 192.295577 
L 157.581818 190.090726 
L 162.490909 189.646469 
L 167.4 189.160606 
L 172.309091 189.532596 
L 177.218182 188.669582 
L 182.127273 188.842392 
L 187.036364 185.905625 
L 191.945455 183.088524 
L 196.854545 185.639685 
L 201.763636 185.805304 
L 206.672727 181.110681 
L 211.581818 184.365998 
L 216.490909 184.164649 
L 221.4 182.044255 
L 226.309091 182.074548 
L 231.218182 183.19753 
L 236.127273 183.050477 
L 241.036364 180.682501 
L 245.945455 183.953933 
L 250.854545 181.799401 
L 255.763636 176.385015 
L 260.672727 180.636748 
L 265.581818 180.602936 
L 270.490909 180.005629 
L 275.4 176.643261 
L 280.309091 184.001657 
L 285.218182 179.168619 
L 290.127273 181.295442 
L 295.036364 178.480147 
L 299.945455 179.905037 
L 304.854545 181.464563 
L 309.763636 177.263031 
L 314.672727 176.653396 
L 319.581818 179.441294 
L 324.490909 180.258576 
L 329.4 176.206253 
L 334.309091 175.384113 
L 339.218182 175.829594 
L 344.127273 174.107501 
L 349.036364 173.794408 
L 353.945455 174.175792 
L 358.854545 175.253264 
L 363.763636 175.663626 
L 368.672727 175.405907 
L 373.581818 173.305158 
" clip-path="url(#pf56c1fafef)" style="fill: none; stroke: #1f77b4; stroke-width: 1.5; stroke-linecap: square"/>
   </g>
   <g id="line2d_56">
    <path d="M 69.218182 196.004192 
L 74.127273 184.979745 
L 79.036364 177.336073 
L 83.945455 171.24359 
L 88.854545 171.24919 
L 93.763636 166.204658 
L 98.672727 161.003682 
L 103.581818 162.352778 
L 108.490909 156.319608 
L 113.4 156.995466 
L 118.309091 158.041557 
L 123.218182 152.880762 
L 128.127273 160.369283 
L 133.036364 150.164731 
L 137.945455 152.881518 
L 142.854545 150.984057 
L 147.763636 153.250893 
L 152.672727 158.30431 
L 157.581818 148.420587 
L 162.490909 151.063317 
L 167.4 150.27641 
L 172.309091 152.640118 
L 177.218182 146.325618 
L 182.127273 150.185434 
L 187.036364 150.673484 
L 191.945455 139.452321 
L 196.854545 146.862726 
L 201.763636 146.798982 
L 206.672727 139.197304 
L 211.581818 152.051746 
L 216.490909 149.428405 
L 221.4 141.608703 
L 226.309091 145.582456 
L 231.218182 142.766816 
L 236.127273 147.745301 
L 241.036364 141.026329 
L 245.945455 152.241541 
L 250.854545 145.938788 
L 255.763636 136.354523 
L 260.672727 145.100887 
L 265.581818 143.628811 
L 270.490909 144.370714 
L 275.4 140.562434 
L 280.309091 147.381586 
L 285.218182 139.113524 
L 290.127273 146.221568 
L 295.036364 141.74736 
L 299.945455 144.968131 
L 304.854545 146.1029 
L 309.763636 141.601106 
L 314.672727 141.319168 
L 319.581818 147.632566 
L 324.490909 144.608961 
L 329.4 138.8837 
L 334.309091 141.168164 
L 339.218182 135.032708 
L 344.127273 136.365105 
L 349.036364 135.121702 
L 353.945455 136.167128 
L 358.854545 137.151244 
L 363.763636 139.580357 
L 368.672727 137.845747 
L 373.581818 132.612067 
" clip-path="url(#pf56c1fafef)" style="fill: none; stroke: #ff7f0e; stroke-width: 1.5; stroke-linecap: square"/>
   </g>
   <g id="line2d_57">
    <path d="M 69.218182 193.107174 
L 74.127273 184.181847 
L 79.036364 176.936759 
L 83.945455 170.953348 
L 88.854545 169.863728 
L 93.763636 167.083436 
L 98.672727 161.097376 
L 103.581818 163.182179 
L 108.490909 157.207459 
L 113.4 158.145997 
L 118.309091 158.568099 
L 123.218182 153.249733 
L 128.127273 161.60098 
L 133.036364 149.957666 
L 137.945455 153.545968 
L 142.854545 151.53789 
L 147.763636 154.474439 
L 152.672727 159.03445 
L 157.581818 149.307393 
L 162.490909 151.350315 
L 167.4 151.030943 
L 172.309091 153.082419 
L 177.218182 147.456124 
L 182.127273 150.958933 
L 187.036364 151.513452 
L 191.945455 140.145893 
L 196.854545 147.588444 
L 201.763636 147.536303 
L 206.672727 140.090466 
L 211.581818 152.551519 
L 216.490909 154.987347 
L 221.4 147.136058 
L 226.309091 151.414252 
L 231.218182 148.500319 
L 236.127273 152.398269 
L 241.036364 145.984852 
L 245.945455 156.895363 
L 250.854545 151.264436 
L 255.763636 141.276084 
L 260.672727 149.253104 
L 265.581818 148.327122 
L 270.490909 148.903171 
L 275.4 144.881784 
L 280.309091 152.582927 
L 285.218182 143.91832 
L 290.127273 150.232188 
L 295.036364 145.653479 
L 299.945455 148.032416 
L 304.854545 148.799957 
L 309.763636 145.350893 
L 314.672727 145.724393 
L 319.581818 152.376434 
L 324.490909 149.270891 
L 329.4 144.194145 
L 334.309091 147.102405 
L 339.218182 141.444472 
L 344.127273 142.034024 
L 349.036364 141.482844 
L 353.945455 142.175187 
L 358.854545 143.313434 
L 363.763636 145.658176 
L 368.672727 143.67152 
L 373.581818 138.880764 
" clip-path="url(#pf56c1fafef)" style="fill: none; stroke: #2ca02c; stroke-width: 1.5; stroke-linecap: square"/>
   </g>
   <g id="line2d_58">
    <path d="M 69.218182 127.997749 
L 74.127273 118.41837 
L 79.036364 106.939334 
L 83.945455 103.931664 
L 88.854545 98.076723 
L 93.763636 89.664504 
L 98.672727 89.39156 
L 103.581818 86.657569 
L 108.490909 85.005142 
L 113.4 81.993255 
L 118.309091 71.27696 
L 123.218182 77.623083 
L 128.127273 79.533337 
L 133.036364 73.926305 
L 137.945455 75.986947 
L 142.854545 77.429229 
L 147.763636 77.211356 
L 152.672727 73.755223 
L 157.581818 72.125456 
L 162.490909 74.919389 
L 167.4 68.733488 
L 172.309091 71.90815 
L 177.218182 71.205393 
L 182.127273 68.153203 
L 187.036364 71.630581 
L 191.945455 65.927157 
L 196.854545 65.928718 
L 201.763636 65.259619 
L 206.672727 66.457044 
L 211.581818 66.89748 
L 216.490909 63.790742 
L 221.4 63.873204 
L 226.309091 60.086993 
L 231.218182 64.800257 
L 236.127273 62.883411 
L 241.036364 62.843772 
L 245.945455 61.749176 
L 250.854545 61.140501 
L 255.763636 55.960335 
L 260.672727 62.375042 
L 265.581818 58.026397 
L 270.490909 60.868562 
L 275.4 54.879989 
L 280.309091 56.749663 
L 285.218182 58.703363 
L 290.127273 56.51499 
L 295.036364 55.714837 
L 299.945455 55.371637 
L 304.854545 55.914419 
L 309.763636 56.433368 
L 314.672727 51.392715 
L 319.581818 54.037118 
L 324.490909 55.25996 
L 329.4 54.099364 
L 334.309091 56.826662 
L 339.218182 54.095861 
L 344.127273 53.118767 
L 349.036364 49.475606 
L 353.945455 50.245675 
L 358.854545 51.711123 
L 363.763636 51.948165 
L 368.672727 53.990164 
L 373.581818 50.937683 
" clip-path="url(#pf56c1fafef)" style="fill: none; stroke: #d62728; stroke-width: 1.5; stroke-linecap: square"/>
   </g>
   <g id="patch_3">
    <path d="M 54 252 
L 54 34.56 
" style="fill: none; stroke: #000000; stroke-width: 0.8; stroke-linejoin: miter; stroke-linecap: square"/>
   </g>
   <g id="patch_4">
    <path d="M 388.8 252 
L 388.8 34.56 
" style="fill: none; stroke: #000000; stroke-width: 0.8; stroke-linejoin: miter; stroke-linecap: square"/>
   </g>
   <g id="patch_5">
    <path d="M 54 252 
L 388.8 252 
" style="fill: none; stroke: #000000; stroke-width: 0.8; stroke-linejoin: miter; stroke-linecap: square"/>
   </g>
   <g id="patch_6">
    <path d="M 54 34.56 
L 388.8 34.56 
" style="fill: none; stroke: #000000; stroke-width: 0.8; stroke-linejoin: miter; stroke-linecap: square"/>
   </g>
   <g id="text_20">
    <!-- Median NEPS vs. Program Size (1000 f.c., nicolau_c) -->
    <g transform="translate(65.774063 28.56)scale(0.12 -0.12)">
     <defs>
      <path id="DejaVuSans-76" d="M 191 3500 
L 800 3500 
L 1894 563 
L 2988 3500 
L 3597 3500 
L 2284 0 
L 1503 0 
L 191 3500 
z
" transform="scale(0.015625)"/>
      <path id="DejaVuSans-2e" d="M 684 794 
L 1344 794 
L 1344 0 
L 684 0 
L 684 794 
z
" transform="scale(0.015625)"/>
      <path id="DejaVuSans-28" d="M 1984 4856 
Q 1566 4138 1362 3434 
Q 1159 2731 1159 2009 
Q 1159 1288 1364 580 
Q 1569 -128 1984 -844 
L 1484 -844 
Q 1016 -109 783 600 
Q 550 1309 550 2009 
Q 550 2706 781 3412 
Q 1013 4119 1484 4856 
L 1984 4856 
z
" transform="scale(0.015625)"/>
      <path id="DejaVuSans-66" d="M 2375 4863 
L 2375 4384 
L 1825 4384 
Q 1516 4384 1395 4259 
Q 1275 4134 1275 3809 
L 1275 3500 
L 2222 3500 
L 2222 3053 
L 1275 3053 
L 1275 0 
L 697 0 
L 697 3053 
L 147 3053 
L 147 3500 
L 697 3500 
L 697 3744 
Q 697 4328 969 4595 
Q 1241 4863 1831 4863 
L 2375 4863 
z
" transform="scale(0.015625)"/>
      <path id="DejaVuSans-63" d="M 3122 3366 
L 3122 2828 
Q 2878 2963 2633 3030 
Q 2388 3097 2138 3097 
Q 1578 3097 1268 2742 
Q 959 2388 959 1747 
Q 959 1106 1268 751 
Q 1578 397 2138 397 
Q 2388 397 2633 464 
Q 2878 531 3122 666 
L 3122 134 
Q 2881 22 2623 -34 
Q 2366 -91 2075 -91 
Q 1284 -91 818 406 
Q 353 903 353 1747 
Q 353 2603 823 3093 
Q 1294 3584 2113 3584 
Q 2378 3584 2631 3529 
Q 2884 3475 3122 3366 
z
" transform="scale(0.015625)"/>
      <path id="DejaVuSans-2c" d="M 750 794 
L 1409 794 
L 1409 256 
L 897 -744 
L 494 -744 
L 750 256 
L 750 794 
z
" transform="scale(0.015625)"/>
      <path id="DejaVuSans-6c" d="M 603 4863 
L 1178 4863 
L 1178 0 
L 603 0 
L 603 4863 
z
" transform="scale(0.015625)"/>
      <path id="DejaVuSans-75" d="M 544 1381 
L 544 3500 
L 1119 3500 
L 1119 1403 
Q 1119 906 1312 657 
Q 1506 409 1894 409 
Q 2359 409 2629 706 
Q 2900 1003 2900 1516 
L 2900 3500 
L 3475 3500 
L 3475 0 
L 2900 0 
L 2900 538 
Q 2691 219 2414 64 
Q 2138 -91 1772 -91 
Q 1169 -91 856 284 
Q 544 659 544 1381 
z
M 1991 3584 
L 1991 3584 
z
" transform="scale(0.015625)"/>
      <path id="DejaVuSans-5f" d="M 3263 -1063 
L 3263 -1509 
L -63 -1509 
L -63 -1063 
L 3263 -1063 
z
" transform="scale(0.015625)"/>
      <path id="DejaVuSans-29" d="M 513 4856 
L 1013 4856 
Q 1481 4119 1714 3412 
Q 1947 2706 1947 2009 
Q 1947 1309 1714 600 
Q 1481 -109 1013 -844 
L 513 -844 
Q 928 -128 1133 580 
Q 1338 1288 1338 2009 
Q 1338 2731 1133 3434 
Q 928 4138 513 4856 
z
" transform="scale(0.015625)"/>
     </defs>
     <use xlink:href="#DejaVuSans-4d"/>
     <use xlink:href="#DejaVuSans-65" x="86.279297"/>
     <use xlink:href="#DejaVuSans-64" x="147.802734"/>
     <use xlink:href="#DejaVuSans-69" x="211.279297"/>
     <use xlink:href="#DejaVuSans-61" x="239.0625"/>
     <use xlink:href="#DejaVuSans-6e" x="300.341797"/>
     <use xlink:href="#DejaVuSans-20" x="363.720703"/>
     <use xlink:href="#DejaVuSans-4e" x="395.507812"/>
     <use xlink:href="#DejaVuSans-45" x="470.3125"/>
     <use xlink:href="#DejaVuSans-50" x="533.496094"/>
     <use xlink:href="#DejaVuSans-53" x="593.798828"/>
     <use xlink:href="#DejaVuSans-20" x="657.275391"/>
     <use xlink:href="#DejaVuSans-76" x="689.0625"/>
     <use xlink:href="#DejaVuSans-73" x="748.242188"/>
     <use xlink:href="#DejaVuSans-2e" x="800.341797"/>
     <use xlink:href="#DejaVuSans-20" x="832.128906"/>
     <use xlink:href="#DejaVuSans-50" x="863.916016"/>
     <use xlink:href="#DejaVuSans-72" x="922.46875"/>
     <use xlink:href="#DejaVuSans-6f" x="961.332031"/>
     <use xlink:href="#DejaVuSans-67" x="1022.513672"/>
     <use xlink:href="#DejaVuSans-72" x="1085.990234"/>
     <use xlink:href="#DejaVuSans-61" x="1127.103516"/>
     <use xlink:href="#DejaVuSans-6d" x="1188.382812"/>
     <use xlink:href="#DejaVuSans-20" x="1285.794922"/>
     <use xlink:href="#DejaVuSans-53" x="1317.582031"/>
     <use xlink:href="#DejaVuSans-69" x="1381.058594"/>
     <use xlink:href="#DejaVuSans-7a" x="1408.841797"/>
     <use xlink:href="#DejaVuSans-65" x="1461.332031"/>
     <use xlink:href="#DejaVuSans-20" x="1522.855469"/>
     <use xlink:href="#DejaVuSans-28" x="1554.642578"/>
     <use xlink:href="#DejaVuSans-31" x="1593.65625"/>
     <use xlink:href="#DejaVuSans-30" x="1657.279297"/>
     <use xlink:href="#DejaVuSans-30" x="1720.902344"/>
     <use xlink:href="#DejaVuSans-30" x="1784.525391"/>
     <use xlink:href="#DejaVuSans-20" x="1848.148438"/>
     <use xlink:href="#DejaVuSans-66" x="1879.935547"/>
     <use xlink:href="#DejaVuSans-2e" x="1907.890625"/>
     <use xlink:href="#DejaVuSans-63" x="1939.677734"/>
     <use xlink:href="#DejaVuSans-2e" x="1994.658203"/>
     <use xlink:href="#DejaVuSans-2c" x="2026.445312"/>
     <use xlink:href="#DejaVuSans-20" x="2058.232422"/>
     <use xlink:href="#DejaVuSans-6e" x="2090.019531"/>
     <use xlink:href="#DejaVuSans-69" x="2153.398438"/>
     <use xlink:href="#DejaVuSans-63" x="2181.181641"/>
     <use xlink:href="#DejaVuSans-6f" x="2236.162109"/>
     <use xlink:href="#DejaVuSans-6c" x="2297.34375"/>
     <use xlink:href="#DejaVuSans-61" x="2325.126953"/>
     <use xlink:href="#DejaVuSans-75" x="2386.40625"/>
     <use xlink:href="#DejaVuSans-5f" x="2449.785156"/>
     <use xlink:href="#DejaVuSans-63" x="2499.785156"/>
     <use xlink:href="#DejaVuSans-29" x="2554.765625"/>
    </g>
   </g>
   <g id="legend_1">
    <g id="patch_7">
     <path d="M 61 101.2725 
L 171.19375 101.2725 
Q 173.19375 101.2725 173.19375 99.2725 
L 173.19375 41.56 
Q 173.19375 39.56 171.19375 39.56 
L 61 39.56 
Q 59 39.56 59 41.56 
L 59 99.2725 
Q 59 101.2725 61 101.2725 
z
" style="fill: #ffffff; opacity: 0.8; stroke: #cccccc; stroke-linejoin: miter"/>
    </g>
    <g id="line2d_59">
     <path d="M 63 47.658437 
L 73 47.658437 
L 83 47.658437 
" style="fill: none; stroke: #1f77b4; stroke-width: 1.5; stroke-linecap: square"/>
    </g>
    <g id="text_21">
     <!-- DEAP -->
     <g transform="translate(91 51.158437)scale(0.1 -0.1)">
      <defs>
       <path id="DejaVuSans-44" d="M 1259 4147 
L 1259 519 
L 2022 519 
Q 2988 519 3436 956 
Q 3884 1394 3884 2338 
Q 3884 3275 3436 3711 
Q 2988 4147 2022 4147 
L 1259 4147 
z
M 628 4666 
L 1925 4666 
Q 3281 4666 3915 4102 
Q 4550 3538 4550 2338 
Q 4550 1131 3912 565 
Q 3275 0 1925 0 
L 628 0 
L 628 4666 
z
" transform="scale(0.015625)"/>
       <path id="DejaVuSans-41" d="M 2188 4044 
L 1331 1722 
L 3047 1722 
L 2188 4044 
z
M 1831 4666 
L 2547 4666 
L 4325 0 
L 3669 0 
L 3244 1197 
L 1141 1197 
L 716 0 
L 50 0 
L 1831 4666 
z
" transform="scale(0.015625)"/>
      </defs>
      <use xlink:href="#DejaVuSans-44"/>
      <use xlink:href="#DejaVuSans-45" x="77.001953"/>
      <use xlink:href="#DejaVuSans-41" x="140.185547"/>
      <use xlink:href="#DejaVuSans-50" x="208.59375"/>
     </g>
    </g>
    <g id="line2d_60">
     <path d="M 63 62.336562 
L 73 62.336562 
L 83 62.336562 
" style="fill: none; stroke: #ff7f0e; stroke-width: 1.5; stroke-linecap: square"/>
    </g>
    <g id="text_22">
     <!-- TensorGP (CPU) -->
     <g transform="translate(91 65.836562)scale(0.1 -0.1)">
      <defs>
       <path id="DejaVuSans-54" d="M -19 4666 
L 3928 4666 
L 3928 4134 
L 2272 4134 
L 2272 0 
L 1638 0 
L 1638 4134 
L -19 4134 
L -19 4666 
z
" transform="scale(0.015625)"/>
       <path id="DejaVuSans-47" d="M 3809 666 
L 3809 1919 
L 2778 1919 
L 2778 2438 
L 4434 2438 
L 4434 434 
Q 4069 175 3628 42 
Q 3188 -91 2688 -91 
Q 1594 -91 976 548 
Q 359 1188 359 2328 
Q 359 3472 976 4111 
Q 1594 4750 2688 4750 
Q 3144 4750 3555 4637 
Q 3966 4525 4313 4306 
L 4313 3634 
Q 3963 3931 3569 4081 
Q 3175 4231 2741 4231 
Q 1884 4231 1454 3753 
Q 1025 3275 1025 2328 
Q 1025 1384 1454 906 
Q 1884 428 2741 428 
Q 3075 428 3337 486 
Q 3600 544 3809 666 
z
" transform="scale(0.015625)"/>
       <path id="DejaVuSans-43" d="M 4122 4306 
L 4122 3641 
Q 3803 3938 3442 4084 
Q 3081 4231 2675 4231 
Q 1875 4231 1450 3742 
Q 1025 3253 1025 2328 
Q 1025 1406 1450 917 
Q 1875 428 2675 428 
Q 3081 428 3442 575 
Q 3803 722 4122 1019 
L 4122 359 
Q 3791 134 3420 21 
Q 3050 -91 2638 -91 
Q 1578 -91 968 557 
Q 359 1206 359 2328 
Q 359 3453 968 4101 
Q 1578 4750 2638 4750 
Q 3056 4750 3426 4639 
Q 3797 4528 4122 4306 
z
" transform="scale(0.015625)"/>
       <path id="DejaVuSans-55" d="M 556 4666 
L 1191 4666 
L 1191 1831 
Q 1191 1081 1462 751 
Q 1734 422 2344 422 
Q 2950 422 3222 751 
Q 3494 1081 3494 1831 
L 3494 4666 
L 4128 4666 
L 4128 1753 
Q 4128 841 3676 375 
Q 3225 -91 2344 -91 
Q 1459 -91 1007 375 
Q 556 841 556 1753 
L 556 4666 
z
" transform="scale(0.015625)"/>
      </defs>
      <use xlink:href="#DejaVuSans-54"/>
      <use xlink:href="#DejaVuSans-65" x="44.083984"/>
      <use xlink:href="#DejaVuSans-6e" x="105.607422"/>
      <use xlink:href="#DejaVuSans-73" x="168.986328"/>
      <use xlink:href="#DejaVuSans-6f" x="221.085938"/>
      <use xlink:href="#DejaVuSans-72" x="282.267578"/>
      <use xlink:href="#DejaVuSans-47" x="323.380859"/>
      <use xlink:href="#DejaVuSans-50" x="400.871094"/>
      <use xlink:href="#DejaVuSans-20" x="461.173828"/>
      <use xlink:href="#DejaVuSans-28" x="492.960938"/>
      <use xlink:href="#DejaVuSans-43" x="531.974609"/>
      <use xlink:href="#DejaVuSans-50" x="601.798828"/>
      <use xlink:href="#DejaVuSans-55" x="662.101562"/>
      <use xlink:href="#DejaVuSans-29" x="735.294922"/>
     </g>
    </g>
    <g id="line2d_61">
     <path d="M 63 77.014687 
L 73 77.014687 
L 83 77.014687 
" style="fill: none; stroke: #2ca02c; stroke-width: 1.5; stroke-linecap: square"/>
    </g>
    <g id="text_23">
     <!-- TensorGP (GPU) -->
     <g transform="translate(91 80.514687)scale(0.1 -0.1)">
      <use xlink:href="#DejaVuSans-54"/>
      <use xlink:href="#DejaVuSans-65" x="44.083984"/>
      <use xlink:href="#DejaVuSans-6e" x="105.607422"/>
      <use xlink:href="#DejaVuSans-73" x="168.986328"/>
      <use xlink:href="#DejaVuSans-6f" x="221.085938"/>
      <use xlink:href="#DejaVuSans-72" x="282.267578"/>
      <use xlink:href="#DejaVuSans-47" x="323.380859"/>
      <use xlink:href="#DejaVuSans-50" x="400.871094"/>
      <use xlink:href="#DejaVuSans-20" x="461.173828"/>
      <use xlink:href="#DejaVuSans-28" x="492.960938"/>
      <use xlink:href="#DejaVuSans-47" x="531.974609"/>
      <use xlink:href="#DejaVuSans-50" x="609.464844"/>
      <use xlink:href="#DejaVuSans-55" x="669.767578"/>
      <use xlink:href="#DejaVuSans-29" x="742.960938"/>
     </g>
    </g>
    <g id="line2d_62">
     <path d="M 63 91.692813 
L 73 91.692813 
L 83 91.692813 
" style="fill: none; stroke: #d62728; stroke-width: 1.5; stroke-linecap: square"/>
    </g>
    <g id="text_24">
     <!-- Operon -->
     <g transform="translate(91 95.192813)scale(0.1 -0.1)">
      <defs>
       <path id="DejaVuSans-4f" d="M 2522 4238 
Q 1834 4238 1429 3725 
Q 1025 3213 1025 2328 
Q 1025 1447 1429 934 
Q 1834 422 2522 422 
Q 3209 422 3611 934 
Q 4013 1447 4013 2328 
Q 4013 3213 3611 3725 
Q 3209 4238 2522 4238 
z
M 2522 4750 
Q 3503 4750 4090 4092 
Q 4678 3434 4678 2328 
Q 4678 1225 4090 567 
Q 3503 -91 2522 -91 
Q 1538 -91 948 565 
Q 359 1222 359 2328 
Q 359 3434 948 4092 
Q 1538 4750 2522 4750 
z
" transform="scale(0.015625)"/>
       <path id="DejaVuSans-70" d="M 1159 525 
L 1159 -1331 
L 581 -1331 
L 581 3500 
L 1159 3500 
L 1159 2969 
Q 1341 3281 1617 3432 
Q 1894 3584 2278 3584 
Q 2916 3584 3314 3078 
Q 3713 2572 3713 1747 
Q 3713 922 3314 415 
Q 2916 -91 2278 -91 
Q 1894 -91 1617 61 
Q 1341 213 1159 525 
z
M 3116 1747 
Q 3116 2381 2855 2742 
Q 2594 3103 2138 3103 
Q 1681 3103 1420 2742 
Q 1159 2381 1159 1747 
Q 1159 1113 1420 752 
Q 1681 391 2138 391 
Q 2594 391 2855 752 
Q 3116 1113 3116 1747 
z
" transform="scale(0.015625)"/>
      </defs>
      <use xlink:href="#DejaVuSans-4f"/>
      <use xlink:href="#DejaVuSans-70" x="78.710938"/>
      <use xlink:href="#DejaVuSans-65" x="142.1875"/>
      <use xlink:href="#DejaVuSans-72" x="203.710938"/>
      <use xlink:href="#DejaVuSans-6f" x="242.574219"/>
      <use xlink:href="#DejaVuSans-6e" x="303.755859"/>
     </g>
    </g>
   </g>
  </g>
 </g>
 <defs>
  <clipPath id="pf56c1fafef">
   <rect x="54" y="34.56" width="334.8" height="217.44"/>
  </clipPath>
 </defs>
</svg>
