<?xml version="1.0" encoding="utf-8" standalone="no"?>
<!DOCTYPE svg PUBLIC "-//W3C//DTD SVG 1.1//EN"
  "http://www.w3.org/Graphics/SVG/1.1/DTD/svg11.dtd">
<svg xmlns:xlink="http://www.w3.org/1999/xlink" width="432pt" height="288pt" viewBox="0 0 432 288" xmlns="http://www.w3.org/2000/svg" version="1.1">
 <metadata>
  <rdf:RDF xmlns:dc="http://purl.org/dc/elements/1.1/" xmlns:cc="http://creativecommons.org/ns#" xmlns:rdf="http://www.w3.org/1999/02/22-rdf-syntax-ns#">
   <cc:Work>
    <dc:type rdf:resource="http://purl.org/dc/dcmitype/StillImage"/>
    <dc:date>2022-01-12T02:40:52.906685</dc:date>
    <dc:format>image/svg+xml</dc:format>
    <dc:creator>
     <cc:Agent>
      <dc:title>Matplotlib v3.5.1, https://matplotlib.org/</dc:title>
     </cc:Agent>
    </dc:creator>
   </cc:Work>
  </rdf:RDF>
 </metadata>
 <defs>
  <style type="text/css">*{stroke-linejoin: round; stroke-linecap: butt}</style>
 </defs>
 <g id="figure_1">
  <g id="patch_1">
   <path d="M 0 288 
L 432 288 
L 432 0 
L 0 0 
L 0 288 
z
" style="fill: none"/>
  </g>
  <g id="axes_1">
   <g id="patch_2">
    <path d="M 54 252 
L 388.8 252 
L 388.8 34.56 
L 54 34.56 
z
" style="fill: #ffffff"/>
   </g>
   <g id="PolyCollection_1">
    <path d="M 69.218182 242.116364 
L 69.218182 242.116364 
L 74.127273 234.66759 
L 79.036364 224.88633 
L 83.945455 221.595278 
L 88.854545 217.381431 
L 93.763636 217.709316 
L 98.672727 211.470958 
L 103.581818 212.421183 
L 108.490909 211.758449 
L 113.4 207.638892 
L 118.309091 210.851755 
L 123.218182 204.398903 
L 128.127273 207.739931 
L 133.036364 201.170745 
L 137.945455 205.692211 
L 142.854545 205.530326 
L 147.763636 205.218041 
L 152.672727 206.813081 
L 157.581818 205.867407 
L 162.490909 206.176273 
L 167.4 205.798292 
L 172.309091 207.344936 
L 177.218182 204.163789 
L 182.127273 205.948769 
L 187.036364 202.325913 
L 191.945455 199.55375 
L 196.854545 202.825011 
L 201.763636 203.889131 
L 206.672727 196.136169 
L 211.581818 202.107898 
L 216.490909 202.061416 
L 221.4 200.05527 
L 226.309091 200.639292 
L 231.218182 202.468236 
L 236.127273 202.981278 
L 241.036364 199.514075 
L 245.945455 204.0504 
L 250.854545 201.457978 
L 255.763636 193.23908 
L 260.672727 200.93438 
L 265.581818 200.587458 
L 270.490909 200.400823 
L 275.4 196.957078 
L 280.309091 203.997572 
L 285.218182 199.387834 
L 290.127273 201.689381 
L 295.036364 197.672579 
L 299.945455 200.109331 
L 304.854545 201.846046 
L 309.763636 197.581034 
L 314.672727 197.743527 
L 319.581818 200.456199 
L 324.490909 201.522032 
L 329.4 198.709 
L 334.309091 196.079602 
L 339.218182 197.037759 
L 344.127273 195.413948 
L 349.036364 194.555647 
L 353.945455 194.877813 
L 358.854545 196.573676 
L 363.763636 197.011199 
L 368.672727 196.931937 
L 373.581818 195.129727 
L 373.581818 195.129727 
L 373.581818 195.129727 
L 368.672727 196.931937 
L 363.763636 197.011199 
L 358.854545 196.573676 
L 353.945455 194.877813 
L 349.036364 194.555647 
L 344.127273 195.413948 
L 339.218182 197.037759 
L 334.309091 196.079602 
L 329.4 198.709 
L 324.490909 201.522032 
L 319.581818 200.456199 
L 314.672727 197.743527 
L 309.763636 197.581034 
L 304.854545 201.846046 
L 299.945455 200.109331 
L 295.036364 197.672579 
L 290.127273 201.689381 
L 285.218182 199.387834 
L 280.309091 203.997572 
L 275.4 196.957078 
L 270.490909 200.400823 
L 265.581818 200.587458 
L 260.672727 200.93438 
L 255.763636 193.23908 
L 250.854545 201.457978 
L 245.945455 204.0504 
L 241.036364 199.514075 
L 236.127273 202.981278 
L 231.218182 202.468236 
L 226.309091 200.639292 
L 221.4 200.05527 
L 216.490909 202.061416 
L 211.581818 202.107898 
L 206.672727 196.136169 
L 201.763636 203.889131 
L 196.854545 202.825011 
L 191.945455 199.55375 
L 187.036364 202.325913 
L 182.127273 205.948769 
L 177.218182 204.163789 
L 172.309091 207.344936 
L 167.4 205.798292 
L 162.490909 206.176273 
L 157.581818 205.867407 
L 152.672727 206.813081 
L 147.763636 205.218041 
L 142.854545 205.530326 
L 137.945455 205.692211 
L 133.036364 201.170745 
L 128.127273 207.739931 
L 123.218182 204.398903 
L 118.309091 210.851755 
L 113.4 207.638892 
L 108.490909 211.758449 
L 103.581818 212.421183 
L 98.672727 211.470958 
L 93.763636 217.709316 
L 88.854545 217.381431 
L 83.945455 221.595278 
L 79.036364 224.88633 
L 74.127273 234.66759 
L 69.218182 242.116364 
z
" clip-path="url(#pcba38ba3b5)" style="fill: #1f77b4"/>
   </g>
   <g id="PolyCollection_2">
    <path d="M 69.218182 147.516558 
L 69.218182 147.516558 
L 74.127273 141.332338 
L 79.036364 131.203498 
L 83.945455 125.226232 
L 88.854545 124.121819 
L 93.763636 122.732119 
L 98.672727 113.402125 
L 103.581818 118.222639 
L 108.490909 110.613664 
L 113.4 112.026423 
L 118.309091 116.187386 
L 123.218182 107.263149 
L 128.127273 119.391525 
L 133.036364 105.989183 
L 137.945455 108.885494 
L 142.854545 107.402922 
L 147.763636 112.025174 
L 152.672727 117.520127 
L 157.581818 107.890719 
L 162.490909 108.469828 
L 167.4 109.001883 
L 172.309091 110.674978 
L 177.218182 106.623143 
L 182.127273 110.427318 
L 187.036364 111.680216 
L 191.945455 99.49495 
L 196.854545 105.615128 
L 201.763636 105.779346 
L 206.672727 96.868551 
L 211.581818 110.132197 
L 216.490909 104.820135 
L 221.4 97.079584 
L 226.309091 102.122761 
L 231.218182 100.804232 
L 236.127273 104.826117 
L 241.036364 97.627907 
L 245.945455 108.370942 
L 250.854545 104.262123 
L 255.763636 93.1797 
L 260.672727 103.196632 
L 265.581818 102.203894 
L 270.490909 101.814542 
L 275.4 96.151886 
L 280.309091 104.396411 
L 285.218182 96.625217 
L 290.127273 101.232413 
L 295.036364 96.712942 
L 299.945455 98.361202 
L 304.854545 100.069198 
L 309.763636 97.680969 
L 314.672727 96.07272 
L 319.581818 102.123341 
L 324.490909 102.112726 
L 329.4 99.095449 
L 334.309091 100.003852 
L 339.218182 93.15366 
L 344.127273 93.25349 
L 349.036364 96.541468 
L 353.945455 93.92378 
L 358.854545 94.587124 
L 363.763636 96.487696 
L 368.672727 95.683858 
L 373.581818 92.192535 
L 373.581818 92.192535 
L 373.581818 92.192535 
L 368.672727 95.683858 
L 363.763636 96.487696 
L 358.854545 94.587124 
L 353.945455 93.92378 
L 349.036364 96.541468 
L 344.127273 93.25349 
L 339.218182 93.15366 
L 334.309091 100.003852 
L 329.4 99.095449 
L 324.490909 102.112726 
L 319.581818 102.123341 
L 314.672727 96.07272 
L 309.763636 97.680969 
L 304.854545 100.069198 
L 299.945455 98.361202 
L 295.036364 96.712942 
L 290.127273 101.232413 
L 285.218182 96.625217 
L 280.309091 104.396411 
L 275.4 96.151886 
L 270.490909 101.814542 
L 265.581818 102.203894 
L 260.672727 103.196632 
L 255.763636 93.1797 
L 250.854545 104.262123 
L 245.945455 108.370942 
L 241.036364 97.627907 
L 236.127273 104.826117 
L 231.218182 100.804232 
L 226.309091 102.122761 
L 221.4 97.079584 
L 216.490909 104.820135 
L 211.581818 110.132197 
L 206.672727 96.868551 
L 201.763636 105.779346 
L 196.854545 105.615128 
L 191.945455 99.49495 
L 187.036364 111.680216 
L 182.127273 110.427318 
L 177.218182 106.623143 
L 172.309091 110.674978 
L 167.4 109.001883 
L 162.490909 108.469828 
L 157.581818 107.890719 
L 152.672727 117.520127 
L 147.763636 112.025174 
L 142.854545 107.402922 
L 137.945455 108.885494 
L 133.036364 105.989183 
L 128.127273 119.391525 
L 123.218182 107.263149 
L 118.309091 116.187386 
L 113.4 112.026423 
L 108.490909 110.613664 
L 103.581818 118.222639 
L 98.672727 113.402125 
L 93.763636 122.732119 
L 88.854545 124.121819 
L 83.945455 125.226232 
L 79.036364 131.203498 
L 74.127273 141.332338 
L 69.218182 147.516558 
z
" clip-path="url(#pcba38ba3b5)" style="fill: #ff7f0e"/>
   </g>
   <g id="PolyCollection_3">
    <path d="M 69.218182 144.637597 
L 69.218182 144.637597 
L 74.127273 139.706656 
L 79.036364 130.617533 
L 83.945455 124.628863 
L 88.854545 127.15952 
L 93.763636 125.31732 
L 98.672727 115.017181 
L 103.581818 119.001164 
L 108.490909 111.944832 
L 113.4 114.411509 
L 118.309091 116.819385 
L 123.218182 107.568757 
L 128.127273 118.724725 
L 133.036364 104.889726 
L 137.945455 110.137374 
L 142.854545 107.719969 
L 147.763636 112.719026 
L 152.672727 117.744553 
L 157.581818 106.801164 
L 162.490909 109.078192 
L 167.4 110.789296 
L 172.309091 111.90556 
L 177.218182 108.510451 
L 182.127273 109.30497 
L 187.036364 111.622696 
L 191.945455 101.002195 
L 196.854545 107.379545 
L 201.763636 108.722893 
L 206.672727 98.926076 
L 211.581818 111.51319 
L 216.490909 107.530358 
L 221.4 101.478634 
L 226.309091 105.669967 
L 231.218182 106.628404 
L 236.127273 109.2263 
L 241.036364 101.3125 
L 245.945455 112.195042 
L 250.854545 106.719172 
L 255.763636 97.270999 
L 260.672727 105.266589 
L 265.581818 103.481319 
L 270.490909 103.914386 
L 275.4 98.329073 
L 280.309091 102.706795 
L 285.218182 98.627567 
L 290.127273 103.992343 
L 295.036364 98.465274 
L 299.945455 97.749513 
L 304.854545 102.346315 
L 309.763636 99.323031 
L 314.672727 99.010206 
L 319.581818 105.18628 
L 324.490909 100.320303 
L 329.4 96.942012 
L 334.309091 96.934932 
L 339.218182 93.809252 
L 344.127273 95.956086 
L 349.036364 93.987053 
L 353.945455 93.425642 
L 358.854545 94.948052 
L 363.763636 100.204407 
L 368.672727 97.824788 
L 373.581818 90.910203 
L 373.581818 90.910203 
L 373.581818 90.910203 
L 368.672727 97.824788 
L 363.763636 100.204407 
L 358.854545 94.948052 
L 353.945455 93.425642 
L 349.036364 93.987053 
L 344.127273 95.956086 
L 339.218182 93.809252 
L 334.309091 96.934932 
L 329.4 96.942012 
L 324.490909 100.320303 
L 319.581818 105.18628 
L 314.672727 99.010206 
L 309.763636 99.323031 
L 304.854545 102.346315 
L 299.945455 97.749513 
L 295.036364 98.465274 
L 290.127273 103.992343 
L 285.218182 98.627567 
L 280.309091 102.706795 
L 275.4 98.329073 
L 270.490909 103.914386 
L 265.581818 103.481319 
L 260.672727 105.266589 
L 255.763636 97.270999 
L 250.854545 106.719172 
L 245.945455 112.195042 
L 241.036364 101.3125 
L 236.127273 109.2263 
L 231.218182 106.628404 
L 226.309091 105.669967 
L 221.4 101.478634 
L 216.490909 107.530358 
L 211.581818 111.51319 
L 206.672727 98.926076 
L 201.763636 108.722893 
L 196.854545 107.379545 
L 191.945455 101.002195 
L 187.036364 111.622696 
L 182.127273 109.30497 
L 177.218182 108.510451 
L 172.309091 111.90556 
L 167.4 110.789296 
L 162.490909 109.078192 
L 157.581818 106.801164 
L 152.672727 117.744553 
L 147.763636 112.719026 
L 142.854545 107.719969 
L 137.945455 110.137374 
L 133.036364 104.889726 
L 128.127273 118.724725 
L 123.218182 107.568757 
L 118.309091 116.819385 
L 113.4 114.411509 
L 108.490909 111.944832 
L 103.581818 119.001164 
L 98.672727 115.017181 
L 93.763636 125.31732 
L 88.854545 127.15952 
L 83.945455 124.628863 
L 79.036364 130.617533 
L 74.127273 139.706656 
L 69.218182 144.637597 
z
" clip-path="url(#pcba38ba3b5)" style="fill: #2ca02c"/>
   </g>
   <g id="PolyCollection_4">
    <path d="M 69.218182 115.226393 
L 69.218182 115.226393 
L 74.127273 106.862203 
L 79.036364 96.143122 
L 83.945455 93.87019 
L 88.854545 93.107221 
L 93.763636 89.572099 
L 98.672727 79.023716 
L 103.581818 86.810806 
L 108.490909 84.442142 
L 113.4 44.443636 
L 118.309091 85.496346 
L 123.218182 75.851678 
L 128.127273 83.324845 
L 133.036364 75.393836 
L 137.945455 77.162433 
L 142.854545 78.569031 
L 147.763636 78.82149 
L 152.672727 84.104128 
L 157.581818 75.651605 
L 162.490909 78.206069 
L 167.4 80.202144 
L 172.309091 89.302893 
L 177.218182 78.254598 
L 182.127273 81.361169 
L 187.036364 76.694499 
L 191.945455 74.461758 
L 196.854545 74.679 
L 201.763636 70.670693 
L 206.672727 74.122726 
L 211.581818 78.426343 
L 216.490909 73.906146 
L 221.4 67.963303 
L 226.309091 71.948501 
L 231.218182 77.206647 
L 236.127273 76.983646 
L 241.036364 70.525751 
L 245.945455 79.32103 
L 250.854545 71.249123 
L 255.763636 66.376674 
L 260.672727 73.393846 
L 265.581818 70.67748 
L 270.490909 73.700755 
L 275.4 66.402735 
L 280.309091 70.568989 
L 285.218182 74.993495 
L 290.127273 67.322839 
L 295.036364 64.494533 
L 299.945455 66.145981 
L 304.854545 69.401753 
L 309.763636 69.488536 
L 314.672727 67.862016 
L 319.581818 67.886062 
L 324.490909 66.604518 
L 329.4 69.884883 
L 334.309091 62.170674 
L 339.218182 65.738592 
L 344.127273 67.33769 
L 349.036364 65.39913 
L 353.945455 65.603937 
L 358.854545 64.443892 
L 363.763636 64.17796 
L 368.672727 64.737663 
L 373.581818 64.866736 
L 373.581818 64.866736 
L 373.581818 64.866736 
L 368.672727 64.737663 
L 363.763636 64.17796 
L 358.854545 64.443892 
L 353.945455 65.603937 
L 349.036364 65.39913 
L 344.127273 67.33769 
L 339.218182 65.738592 
L 334.309091 62.170674 
L 329.4 69.884883 
L 324.490909 66.604518 
L 319.581818 67.886062 
L 314.672727 67.862016 
L 309.763636 69.488536 
L 304.854545 69.401753 
L 299.945455 66.145981 
L 295.036364 64.494533 
L 290.127273 67.322839 
L 285.218182 74.993495 
L 280.309091 70.568989 
L 275.4 66.402735 
L 270.490909 73.700755 
L 265.581818 70.67748 
L 260.672727 73.393846 
L 255.763636 66.376674 
L 250.854545 71.249123 
L 245.945455 79.32103 
L 241.036364 70.525751 
L 236.127273 76.983646 
L 231.218182 77.206647 
L 226.309091 71.948501 
L 221.4 67.963303 
L 216.490909 73.906146 
L 211.581818 78.426343 
L 206.672727 74.122726 
L 201.763636 70.670693 
L 196.854545 74.679 
L 191.945455 74.461758 
L 187.036364 76.694499 
L 182.127273 81.361169 
L 177.218182 78.254598 
L 172.309091 89.302893 
L 167.4 80.202144 
L 162.490909 78.206069 
L 157.581818 75.651605 
L 152.672727 84.104128 
L 147.763636 78.82149 
L 142.854545 78.569031 
L 137.945455 77.162433 
L 133.036364 75.393836 
L 128.127273 83.324845 
L 123.218182 75.851678 
L 118.309091 85.496346 
L 113.4 44.443636 
L 108.490909 84.442142 
L 103.581818 86.810806 
L 98.672727 79.023716 
L 93.763636 89.572099 
L 88.854545 93.107221 
L 83.945455 93.87019 
L 79.036364 96.143122 
L 74.127273 106.862203 
L 69.218182 115.226393 
z
" clip-path="url(#pcba38ba3b5)" style="fill: #d62728"/>
   </g>
   <g id="matplotlib.axis_1">
    <g id="xtick_1">
     <g id="line2d_1">
      <defs>
       <path id="mbd1c45e283" d="M 0 0 
L 0 3.5 
" style="stroke: #000000; stroke-width: 0.8"/>
      </defs>
      <g>
       <use xlink:href="#mbd1c45e283" x="69.218182" y="252" style="stroke: #000000; stroke-width: 0.8"/>
      </g>
     </g>
     <g id="text_1">
      <!-- 1 -->
      <g transform="translate(66.036932 266.598437)scale(0.1 -0.1)">
       <defs>
        <path id="DejaVuSans-31" d="M 794 531 
L 1825 531 
L 1825 4091 
L 703 3866 
L 703 4441 
L 1819 4666 
L 2450 4666 
L 2450 531 
L 3481 531 
L 3481 0 
L 794 0 
L 794 531 
z
" transform="scale(0.015625)"/>
       </defs>
       <use xlink:href="#DejaVuSans-31"/>
      </g>
     </g>
    </g>
    <g id="xtick_2">
     <g id="line2d_2">
      <g>
       <use xlink:href="#mbd1c45e283" x="93.763636" y="252" style="stroke: #000000; stroke-width: 0.8"/>
      </g>
     </g>
     <g id="text_2">
      <!-- 6 -->
      <g transform="translate(90.582386 266.598437)scale(0.1 -0.1)">
       <defs>
        <path id="DejaVuSans-36" d="M 2113 2584 
Q 1688 2584 1439 2293 
Q 1191 2003 1191 1497 
Q 1191 994 1439 701 
Q 1688 409 2113 409 
Q 2538 409 2786 701 
Q 3034 994 3034 1497 
Q 3034 2003 2786 2293 
Q 2538 2584 2113 2584 
z
M 3366 4563 
L 3366 3988 
Q 3128 4100 2886 4159 
Q 2644 4219 2406 4219 
Q 1781 4219 1451 3797 
Q 1122 3375 1075 2522 
Q 1259 2794 1537 2939 
Q 1816 3084 2150 3084 
Q 2853 3084 3261 2657 
Q 3669 2231 3669 1497 
Q 3669 778 3244 343 
Q 2819 -91 2113 -91 
Q 1303 -91 875 529 
Q 447 1150 447 2328 
Q 447 3434 972 4092 
Q 1497 4750 2381 4750 
Q 2619 4750 2861 4703 
Q 3103 4656 3366 4563 
z
" transform="scale(0.015625)"/>
       </defs>
       <use xlink:href="#DejaVuSans-36"/>
      </g>
     </g>
    </g>
    <g id="xtick_3">
     <g id="line2d_3">
      <g>
       <use xlink:href="#mbd1c45e283" x="118.309091" y="252" style="stroke: #000000; stroke-width: 0.8"/>
      </g>
     </g>
     <g id="text_3">
      <!-- 11 -->
      <g transform="translate(111.946591 266.598437)scale(0.1 -0.1)">
       <use xlink:href="#DejaVuSans-31"/>
       <use xlink:href="#DejaVuSans-31" x="63.623047"/>
      </g>
     </g>
    </g>
    <g id="xtick_4">
     <g id="line2d_4">
      <g>
       <use xlink:href="#mbd1c45e283" x="142.854545" y="252" style="stroke: #000000; stroke-width: 0.8"/>
      </g>
     </g>
     <g id="text_4">
      <!-- 16 -->
      <g transform="translate(136.492045 266.598437)scale(0.1 -0.1)">
       <use xlink:href="#DejaVuSans-31"/>
       <use xlink:href="#DejaVuSans-36" x="63.623047"/>
      </g>
     </g>
    </g>
    <g id="xtick_5">
     <g id="line2d_5">
      <g>
       <use xlink:href="#mbd1c45e283" x="167.4" y="252" style="stroke: #000000; stroke-width: 0.8"/>
      </g>
     </g>
     <g id="text_5">
      <!-- 21 -->
      <g transform="translate(161.0375 266.598437)scale(0.1 -0.1)">
       <defs>
        <path id="DejaVuSans-32" d="M 1228 531 
L 3431 531 
L 3431 0 
L 469 0 
L 469 531 
Q 828 903 1448 1529 
Q 2069 2156 2228 2338 
Q 2531 2678 2651 2914 
Q 2772 3150 2772 3378 
Q 2772 3750 2511 3984 
Q 2250 4219 1831 4219 
Q 1534 4219 1204 4116 
Q 875 4013 500 3803 
L 500 4441 
Q 881 4594 1212 4672 
Q 1544 4750 1819 4750 
Q 2544 4750 2975 4387 
Q 3406 4025 3406 3419 
Q 3406 3131 3298 2873 
Q 3191 2616 2906 2266 
Q 2828 2175 2409 1742 
Q 1991 1309 1228 531 
z
" transform="scale(0.015625)"/>
       </defs>
       <use xlink:href="#DejaVuSans-32"/>
       <use xlink:href="#DejaVuSans-31" x="63.623047"/>
      </g>
     </g>
    </g>
    <g id="xtick_6">
     <g id="line2d_6">
      <g>
       <use xlink:href="#mbd1c45e283" x="191.945455" y="252" style="stroke: #000000; stroke-width: 0.8"/>
      </g>
     </g>
     <g id="text_6">
      <!-- 26 -->
      <g transform="translate(185.582955 266.598437)scale(0.1 -0.1)">
       <use xlink:href="#DejaVuSans-32"/>
       <use xlink:href="#DejaVuSans-36" x="63.623047"/>
      </g>
     </g>
    </g>
    <g id="xtick_7">
     <g id="line2d_7">
      <g>
       <use xlink:href="#mbd1c45e283" x="216.490909" y="252" style="stroke: #000000; stroke-width: 0.8"/>
      </g>
     </g>
     <g id="text_7">
      <!-- 31 -->
      <g transform="translate(210.128409 266.598437)scale(0.1 -0.1)">
       <defs>
        <path id="DejaVuSans-33" d="M 2597 2516 
Q 3050 2419 3304 2112 
Q 3559 1806 3559 1356 
Q 3559 666 3084 287 
Q 2609 -91 1734 -91 
Q 1441 -91 1130 -33 
Q 819 25 488 141 
L 488 750 
Q 750 597 1062 519 
Q 1375 441 1716 441 
Q 2309 441 2620 675 
Q 2931 909 2931 1356 
Q 2931 1769 2642 2001 
Q 2353 2234 1838 2234 
L 1294 2234 
L 1294 2753 
L 1863 2753 
Q 2328 2753 2575 2939 
Q 2822 3125 2822 3475 
Q 2822 3834 2567 4026 
Q 2313 4219 1838 4219 
Q 1578 4219 1281 4162 
Q 984 4106 628 3988 
L 628 4550 
Q 988 4650 1302 4700 
Q 1616 4750 1894 4750 
Q 2613 4750 3031 4423 
Q 3450 4097 3450 3541 
Q 3450 3153 3228 2886 
Q 3006 2619 2597 2516 
z
" transform="scale(0.015625)"/>
       </defs>
       <use xlink:href="#DejaVuSans-33"/>
       <use xlink:href="#DejaVuSans-31" x="63.623047"/>
      </g>
     </g>
    </g>
    <g id="xtick_8">
     <g id="line2d_8">
      <g>
       <use xlink:href="#mbd1c45e283" x="241.036364" y="252" style="stroke: #000000; stroke-width: 0.8"/>
      </g>
     </g>
     <g id="text_8">
      <!-- 36 -->
      <g transform="translate(234.673864 266.598437)scale(0.1 -0.1)">
       <use xlink:href="#DejaVuSans-33"/>
       <use xlink:href="#DejaVuSans-36" x="63.623047"/>
      </g>
     </g>
    </g>
    <g id="xtick_9">
     <g id="line2d_9">
      <g>
       <use xlink:href="#mbd1c45e283" x="265.581818" y="252" style="stroke: #000000; stroke-width: 0.8"/>
      </g>
     </g>
     <g id="text_9">
      <!-- 41 -->
      <g transform="translate(259.219318 266.598437)scale(0.1 -0.1)">
       <defs>
        <path id="DejaVuSans-34" d="M 2419 4116 
L 825 1625 
L 2419 1625 
L 2419 4116 
z
M 2253 4666 
L 3047 4666 
L 3047 1625 
L 3713 1625 
L 3713 1100 
L 3047 1100 
L 3047 0 
L 2419 0 
L 2419 1100 
L 313 1100 
L 313 1709 
L 2253 4666 
z
" transform="scale(0.015625)"/>
       </defs>
       <use xlink:href="#DejaVuSans-34"/>
       <use xlink:href="#DejaVuSans-31" x="63.623047"/>
      </g>
     </g>
    </g>
    <g id="xtick_10">
     <g id="line2d_10">
      <g>
       <use xlink:href="#mbd1c45e283" x="290.127273" y="252" style="stroke: #000000; stroke-width: 0.8"/>
      </g>
     </g>
     <g id="text_10">
      <!-- 46 -->
      <g transform="translate(283.764773 266.598437)scale(0.1 -0.1)">
       <use xlink:href="#DejaVuSans-34"/>
       <use xlink:href="#DejaVuSans-36" x="63.623047"/>
      </g>
     </g>
    </g>
    <g id="xtick_11">
     <g id="line2d_11">
      <g>
       <use xlink:href="#mbd1c45e283" x="314.672727" y="252" style="stroke: #000000; stroke-width: 0.8"/>
      </g>
     </g>
     <g id="text_11">
      <!-- 51 -->
      <g transform="translate(308.310227 266.598437)scale(0.1 -0.1)">
       <defs>
        <path id="DejaVuSans-35" d="M 691 4666 
L 3169 4666 
L 3169 4134 
L 1269 4134 
L 1269 2991 
Q 1406 3038 1543 3061 
Q 1681 3084 1819 3084 
Q 2600 3084 3056 2656 
Q 3513 2228 3513 1497 
Q 3513 744 3044 326 
Q 2575 -91 1722 -91 
Q 1428 -91 1123 -41 
Q 819 9 494 109 
L 494 744 
Q 775 591 1075 516 
Q 1375 441 1709 441 
Q 2250 441 2565 725 
Q 2881 1009 2881 1497 
Q 2881 1984 2565 2268 
Q 2250 2553 1709 2553 
Q 1456 2553 1204 2497 
Q 953 2441 691 2322 
L 691 4666 
z
" transform="scale(0.015625)"/>
       </defs>
       <use xlink:href="#DejaVuSans-35"/>
       <use xlink:href="#DejaVuSans-31" x="63.623047"/>
      </g>
     </g>
    </g>
    <g id="xtick_12">
     <g id="line2d_12">
      <g>
       <use xlink:href="#mbd1c45e283" x="339.218182" y="252" style="stroke: #000000; stroke-width: 0.8"/>
      </g>
     </g>
     <g id="text_12">
      <!-- 56 -->
      <g transform="translate(332.855682 266.598437)scale(0.1 -0.1)">
       <use xlink:href="#DejaVuSans-35"/>
       <use xlink:href="#DejaVuSans-36" x="63.623047"/>
      </g>
     </g>
    </g>
    <g id="xtick_13">
     <g id="line2d_13">
      <g>
       <use xlink:href="#mbd1c45e283" x="363.763636" y="252" style="stroke: #000000; stroke-width: 0.8"/>
      </g>
     </g>
     <g id="text_13">
      <!-- 61 -->
      <g transform="translate(357.401136 266.598437)scale(0.1 -0.1)">
       <use xlink:href="#DejaVuSans-36"/>
       <use xlink:href="#DejaVuSans-31" x="63.623047"/>
      </g>
     </g>
    </g>
    <g id="text_14">
     <!-- Program size -->
     <g transform="translate(189.022656 280.276563)scale(0.1 -0.1)">
      <defs>
       <path id="DejaVuSans-50" d="M 1259 4147 
L 1259 2394 
L 2053 2394 
Q 2494 2394 2734 2622 
Q 2975 2850 2975 3272 
Q 2975 3691 2734 3919 
Q 2494 4147 2053 4147 
L 1259 4147 
z
M 628 4666 
L 2053 4666 
Q 2838 4666 3239 4311 
Q 3641 3956 3641 3272 
Q 3641 2581 3239 2228 
Q 2838 1875 2053 1875 
L 1259 1875 
L 1259 0 
L 628 0 
L 628 4666 
z
" transform="scale(0.015625)"/>
       <path id="DejaVuSans-72" d="M 2631 2963 
Q 2534 3019 2420 3045 
Q 2306 3072 2169 3072 
Q 1681 3072 1420 2755 
Q 1159 2438 1159 1844 
L 1159 0 
L 581 0 
L 581 3500 
L 1159 3500 
L 1159 2956 
Q 1341 3275 1631 3429 
Q 1922 3584 2338 3584 
Q 2397 3584 2469 3576 
Q 2541 3569 2628 3553 
L 2631 2963 
z
" transform="scale(0.015625)"/>
       <path id="DejaVuSans-6f" d="M 1959 3097 
Q 1497 3097 1228 2736 
Q 959 2375 959 1747 
Q 959 1119 1226 758 
Q 1494 397 1959 397 
Q 2419 397 2687 759 
Q 2956 1122 2956 1747 
Q 2956 2369 2687 2733 
Q 2419 3097 1959 3097 
z
M 1959 3584 
Q 2709 3584 3137 3096 
Q 3566 2609 3566 1747 
Q 3566 888 3137 398 
Q 2709 -91 1959 -91 
Q 1206 -91 779 398 
Q 353 888 353 1747 
Q 353 2609 779 3096 
Q 1206 3584 1959 3584 
z
" transform="scale(0.015625)"/>
       <path id="DejaVuSans-67" d="M 2906 1791 
Q 2906 2416 2648 2759 
Q 2391 3103 1925 3103 
Q 1463 3103 1205 2759 
Q 947 2416 947 1791 
Q 947 1169 1205 825 
Q 1463 481 1925 481 
Q 2391 481 2648 825 
Q 2906 1169 2906 1791 
z
M 3481 434 
Q 3481 -459 3084 -895 
Q 2688 -1331 1869 -1331 
Q 1566 -1331 1297 -1286 
Q 1028 -1241 775 -1147 
L 775 -588 
Q 1028 -725 1275 -790 
Q 1522 -856 1778 -856 
Q 2344 -856 2625 -561 
Q 2906 -266 2906 331 
L 2906 616 
Q 2728 306 2450 153 
Q 2172 0 1784 0 
Q 1141 0 747 490 
Q 353 981 353 1791 
Q 353 2603 747 3093 
Q 1141 3584 1784 3584 
Q 2172 3584 2450 3431 
Q 2728 3278 2906 2969 
L 2906 3500 
L 3481 3500 
L 3481 434 
z
" transform="scale(0.015625)"/>
       <path id="DejaVuSans-61" d="M 2194 1759 
Q 1497 1759 1228 1600 
Q 959 1441 959 1056 
Q 959 750 1161 570 
Q 1363 391 1709 391 
Q 2188 391 2477 730 
Q 2766 1069 2766 1631 
L 2766 1759 
L 2194 1759 
z
M 3341 1997 
L 3341 0 
L 2766 0 
L 2766 531 
Q 2569 213 2275 61 
Q 1981 -91 1556 -91 
Q 1019 -91 701 211 
Q 384 513 384 1019 
Q 384 1609 779 1909 
Q 1175 2209 1959 2209 
L 2766 2209 
L 2766 2266 
Q 2766 2663 2505 2880 
Q 2244 3097 1772 3097 
Q 1472 3097 1187 3025 
Q 903 2953 641 2809 
L 641 3341 
Q 956 3463 1253 3523 
Q 1550 3584 1831 3584 
Q 2591 3584 2966 3190 
Q 3341 2797 3341 1997 
z
" transform="scale(0.015625)"/>
       <path id="DejaVuSans-6d" d="M 3328 2828 
Q 3544 3216 3844 3400 
Q 4144 3584 4550 3584 
Q 5097 3584 5394 3201 
Q 5691 2819 5691 2113 
L 5691 0 
L 5113 0 
L 5113 2094 
Q 5113 2597 4934 2840 
Q 4756 3084 4391 3084 
Q 3944 3084 3684 2787 
Q 3425 2491 3425 1978 
L 3425 0 
L 2847 0 
L 2847 2094 
Q 2847 2600 2669 2842 
Q 2491 3084 2119 3084 
Q 1678 3084 1418 2786 
Q 1159 2488 1159 1978 
L 1159 0 
L 581 0 
L 581 3500 
L 1159 3500 
L 1159 2956 
Q 1356 3278 1631 3431 
Q 1906 3584 2284 3584 
Q 2666 3584 2933 3390 
Q 3200 3197 3328 2828 
z
" transform="scale(0.015625)"/>
       <path id="DejaVuSans-20" transform="scale(0.015625)"/>
       <path id="DejaVuSans-73" d="M 2834 3397 
L 2834 2853 
Q 2591 2978 2328 3040 
Q 2066 3103 1784 3103 
Q 1356 3103 1142 2972 
Q 928 2841 928 2578 
Q 928 2378 1081 2264 
Q 1234 2150 1697 2047 
L 1894 2003 
Q 2506 1872 2764 1633 
Q 3022 1394 3022 966 
Q 3022 478 2636 193 
Q 2250 -91 1575 -91 
Q 1294 -91 989 -36 
Q 684 19 347 128 
L 347 722 
Q 666 556 975 473 
Q 1284 391 1588 391 
Q 1994 391 2212 530 
Q 2431 669 2431 922 
Q 2431 1156 2273 1281 
Q 2116 1406 1581 1522 
L 1381 1569 
Q 847 1681 609 1914 
Q 372 2147 372 2553 
Q 372 3047 722 3315 
Q 1072 3584 1716 3584 
Q 2034 3584 2315 3537 
Q 2597 3491 2834 3397 
z
" transform="scale(0.015625)"/>
       <path id="DejaVuSans-69" d="M 603 3500 
L 1178 3500 
L 1178 0 
L 603 0 
L 603 3500 
z
M 603 4863 
L 1178 4863 
L 1178 4134 
L 603 4134 
L 603 4863 
z
" transform="scale(0.015625)"/>
       <path id="DejaVuSans-7a" d="M 353 3500 
L 3084 3500 
L 3084 2975 
L 922 459 
L 3084 459 
L 3084 0 
L 275 0 
L 275 525 
L 2438 3041 
L 353 3041 
L 353 3500 
z
" transform="scale(0.015625)"/>
       <path id="DejaVuSans-65" d="M 3597 1894 
L 3597 1613 
L 953 1613 
Q 991 1019 1311 708 
Q 1631 397 2203 397 
Q 2534 397 2845 478 
Q 3156 559 3463 722 
L 3463 178 
Q 3153 47 2828 -22 
Q 2503 -91 2169 -91 
Q 1331 -91 842 396 
Q 353 884 353 1716 
Q 353 2575 817 3079 
Q 1281 3584 2069 3584 
Q 2775 3584 3186 3129 
Q 3597 2675 3597 1894 
z
M 3022 2063 
Q 3016 2534 2758 2815 
Q 2500 3097 2075 3097 
Q 1594 3097 1305 2825 
Q 1016 2553 972 2059 
L 3022 2063 
z
" transform="scale(0.015625)"/>
      </defs>
      <use xlink:href="#DejaVuSans-50"/>
      <use xlink:href="#DejaVuSans-72" x="58.552734"/>
      <use xlink:href="#DejaVuSans-6f" x="97.416016"/>
      <use xlink:href="#DejaVuSans-67" x="158.597656"/>
      <use xlink:href="#DejaVuSans-72" x="222.074219"/>
      <use xlink:href="#DejaVuSans-61" x="263.1875"/>
      <use xlink:href="#DejaVuSans-6d" x="324.466797"/>
      <use xlink:href="#DejaVuSans-20" x="421.878906"/>
      <use xlink:href="#DejaVuSans-73" x="453.666016"/>
      <use xlink:href="#DejaVuSans-69" x="505.765625"/>
      <use xlink:href="#DejaVuSans-7a" x="533.548828"/>
      <use xlink:href="#DejaVuSans-65" x="586.039062"/>
     </g>
    </g>
   </g>
   <g id="matplotlib.axis_2">
    <g id="ytick_1">
     <g id="line2d_14">
      <defs>
       <path id="mcf6ff8c947" d="M 0 0 
L -3.5 0 
" style="stroke: #000000; stroke-width: 0.8"/>
      </defs>
      <g>
       <use xlink:href="#mcf6ff8c947" x="54" y="250.065058" style="stroke: #000000; stroke-width: 0.8"/>
      </g>
     </g>
     <g id="text_15">
      <!-- $\mathdefault{10^{6}}$ -->
      <g transform="translate(29.4 253.864276)scale(0.1 -0.1)">
       <defs>
        <path id="DejaVuSans-30" d="M 2034 4250 
Q 1547 4250 1301 3770 
Q 1056 3291 1056 2328 
Q 1056 1369 1301 889 
Q 1547 409 2034 409 
Q 2525 409 2770 889 
Q 3016 1369 3016 2328 
Q 3016 3291 2770 3770 
Q 2525 4250 2034 4250 
z
M 2034 4750 
Q 2819 4750 3233 4129 
Q 3647 3509 3647 2328 
Q 3647 1150 3233 529 
Q 2819 -91 2034 -91 
Q 1250 -91 836 529 
Q 422 1150 422 2328 
Q 422 3509 836 4129 
Q 1250 4750 2034 4750 
z
" transform="scale(0.015625)"/>
       </defs>
       <use xlink:href="#DejaVuSans-31" transform="translate(0 0.765625)"/>
       <use xlink:href="#DejaVuSans-30" transform="translate(63.623047 0.765625)"/>
       <use xlink:href="#DejaVuSans-36" transform="translate(128.203125 39.046875)scale(0.7)"/>
      </g>
     </g>
    </g>
    <g id="ytick_2">
     <g id="line2d_15">
      <g>
       <use xlink:href="#mcf6ff8c947" x="54" y="203.883517" style="stroke: #000000; stroke-width: 0.8"/>
      </g>
     </g>
     <g id="text_16">
      <!-- $\mathdefault{10^{7}}$ -->
      <g transform="translate(29.4 207.682736)scale(0.1 -0.1)">
       <defs>
        <path id="DejaVuSans-37" d="M 525 4666 
L 3525 4666 
L 3525 4397 
L 1831 0 
L 1172 0 
L 2766 4134 
L 525 4134 
L 525 4666 
z
" transform="scale(0.015625)"/>
       </defs>
       <use xlink:href="#DejaVuSans-31" transform="translate(0 0.684375)"/>
       <use xlink:href="#DejaVuSans-30" transform="translate(63.623047 0.684375)"/>
       <use xlink:href="#DejaVuSans-37" transform="translate(128.203125 38.965625)scale(0.7)"/>
      </g>
     </g>
    </g>
    <g id="ytick_3">
     <g id="line2d_16">
      <g>
       <use xlink:href="#mcf6ff8c947" x="54" y="157.701976" style="stroke: #000000; stroke-width: 0.8"/>
      </g>
     </g>
     <g id="text_17">
      <!-- $\mathdefault{10^{8}}$ -->
      <g transform="translate(29.4 161.501195)scale(0.1 -0.1)">
       <defs>
        <path id="DejaVuSans-38" d="M 2034 2216 
Q 1584 2216 1326 1975 
Q 1069 1734 1069 1313 
Q 1069 891 1326 650 
Q 1584 409 2034 409 
Q 2484 409 2743 651 
Q 3003 894 3003 1313 
Q 3003 1734 2745 1975 
Q 2488 2216 2034 2216 
z
M 1403 2484 
Q 997 2584 770 2862 
Q 544 3141 544 3541 
Q 544 4100 942 4425 
Q 1341 4750 2034 4750 
Q 2731 4750 3128 4425 
Q 3525 4100 3525 3541 
Q 3525 3141 3298 2862 
Q 3072 2584 2669 2484 
Q 3125 2378 3379 2068 
Q 3634 1759 3634 1313 
Q 3634 634 3220 271 
Q 2806 -91 2034 -91 
Q 1263 -91 848 271 
Q 434 634 434 1313 
Q 434 1759 690 2068 
Q 947 2378 1403 2484 
z
M 1172 3481 
Q 1172 3119 1398 2916 
Q 1625 2713 2034 2713 
Q 2441 2713 2670 2916 
Q 2900 3119 2900 3481 
Q 2900 3844 2670 4047 
Q 2441 4250 2034 4250 
Q 1625 4250 1398 4047 
Q 1172 3844 1172 3481 
z
" transform="scale(0.015625)"/>
       </defs>
       <use xlink:href="#DejaVuSans-31" transform="translate(0 0.765625)"/>
       <use xlink:href="#DejaVuSans-30" transform="translate(63.623047 0.765625)"/>
       <use xlink:href="#DejaVuSans-38" transform="translate(128.203125 39.046875)scale(0.7)"/>
      </g>
     </g>
    </g>
    <g id="ytick_4">
     <g id="line2d_17">
      <g>
       <use xlink:href="#mcf6ff8c947" x="54" y="111.520436" style="stroke: #000000; stroke-width: 0.8"/>
      </g>
     </g>
     <g id="text_18">
      <!-- $\mathdefault{10^{9}}$ -->
      <g transform="translate(29.4 115.319655)scale(0.1 -0.1)">
       <defs>
        <path id="DejaVuSans-39" d="M 703 97 
L 703 672 
Q 941 559 1184 500 
Q 1428 441 1663 441 
Q 2288 441 2617 861 
Q 2947 1281 2994 2138 
Q 2813 1869 2534 1725 
Q 2256 1581 1919 1581 
Q 1219 1581 811 2004 
Q 403 2428 403 3163 
Q 403 3881 828 4315 
Q 1253 4750 1959 4750 
Q 2769 4750 3195 4129 
Q 3622 3509 3622 2328 
Q 3622 1225 3098 567 
Q 2575 -91 1691 -91 
Q 1453 -91 1209 -44 
Q 966 3 703 97 
z
M 1959 2075 
Q 2384 2075 2632 2365 
Q 2881 2656 2881 3163 
Q 2881 3666 2632 3958 
Q 2384 4250 1959 4250 
Q 1534 4250 1286 3958 
Q 1038 3666 1038 3163 
Q 1038 2656 1286 2365 
Q 1534 2075 1959 2075 
z
" transform="scale(0.015625)"/>
       </defs>
       <use xlink:href="#DejaVuSans-31" transform="translate(0 0.765625)"/>
       <use xlink:href="#DejaVuSans-30" transform="translate(63.623047 0.765625)"/>
       <use xlink:href="#DejaVuSans-39" transform="translate(128.203125 39.046875)scale(0.7)"/>
      </g>
     </g>
    </g>
    <g id="ytick_5">
     <g id="line2d_18">
      <g>
       <use xlink:href="#mcf6ff8c947" x="54" y="65.338895" style="stroke: #000000; stroke-width: 0.8"/>
      </g>
     </g>
     <g id="text_19">
      <!-- $\mathdefault{10^{10}}$ -->
      <g transform="translate(24.9 69.138114)scale(0.1 -0.1)">
       <use xlink:href="#DejaVuSans-31" transform="translate(0 0.765625)"/>
       <use xlink:href="#DejaVuSans-30" transform="translate(63.623047 0.765625)"/>
       <use xlink:href="#DejaVuSans-31" transform="translate(128.203125 39.046875)scale(0.7)"/>
       <use xlink:href="#DejaVuSans-30" transform="translate(172.739258 39.046875)scale(0.7)"/>
      </g>
     </g>
    </g>
    <g id="ytick_6">
     <g id="line2d_19">
      <defs>
       <path id="m0a40285167" d="M 0 0 
L -2 0 
" style="stroke: #000000; stroke-width: 0.6"/>
      </defs>
      <g>
       <use xlink:href="#m0a40285167" x="54" y="236.163029" style="stroke: #000000; stroke-width: 0.6"/>
      </g>
     </g>
    </g>
    <g id="ytick_7">
     <g id="line2d_20">
      <g>
       <use xlink:href="#m0a40285167" x="54" y="228.030863" style="stroke: #000000; stroke-width: 0.6"/>
      </g>
     </g>
    </g>
    <g id="ytick_8">
     <g id="line2d_21">
      <g>
       <use xlink:href="#m0a40285167" x="54" y="222.261" style="stroke: #000000; stroke-width: 0.6"/>
      </g>
     </g>
    </g>
    <g id="ytick_9">
     <g id="line2d_22">
      <g>
       <use xlink:href="#m0a40285167" x="54" y="217.785546" style="stroke: #000000; stroke-width: 0.6"/>
      </g>
     </g>
    </g>
    <g id="ytick_10">
     <g id="line2d_23">
      <g>
       <use xlink:href="#m0a40285167" x="54" y="214.128834" style="stroke: #000000; stroke-width: 0.6"/>
      </g>
     </g>
    </g>
    <g id="ytick_11">
     <g id="line2d_24">
      <g>
       <use xlink:href="#m0a40285167" x="54" y="211.037128" style="stroke: #000000; stroke-width: 0.6"/>
      </g>
     </g>
    </g>
    <g id="ytick_12">
     <g id="line2d_25">
      <g>
       <use xlink:href="#m0a40285167" x="54" y="208.358971" style="stroke: #000000; stroke-width: 0.6"/>
      </g>
     </g>
    </g>
    <g id="ytick_13">
     <g id="line2d_26">
      <g>
       <use xlink:href="#m0a40285167" x="54" y="205.996668" style="stroke: #000000; stroke-width: 0.6"/>
      </g>
     </g>
    </g>
    <g id="ytick_14">
     <g id="line2d_27">
      <g>
       <use xlink:href="#m0a40285167" x="54" y="189.981488" style="stroke: #000000; stroke-width: 0.6"/>
      </g>
     </g>
    </g>
    <g id="ytick_15">
     <g id="line2d_28">
      <g>
       <use xlink:href="#m0a40285167" x="54" y="181.849322" style="stroke: #000000; stroke-width: 0.6"/>
      </g>
     </g>
    </g>
    <g id="ytick_16">
     <g id="line2d_29">
      <g>
       <use xlink:href="#m0a40285167" x="54" y="176.079459" style="stroke: #000000; stroke-width: 0.6"/>
      </g>
     </g>
    </g>
    <g id="ytick_17">
     <g id="line2d_30">
      <g>
       <use xlink:href="#m0a40285167" x="54" y="171.604005" style="stroke: #000000; stroke-width: 0.6"/>
      </g>
     </g>
    </g>
    <g id="ytick_18">
     <g id="line2d_31">
      <g>
       <use xlink:href="#m0a40285167" x="54" y="167.947293" style="stroke: #000000; stroke-width: 0.6"/>
      </g>
     </g>
    </g>
    <g id="ytick_19">
     <g id="line2d_32">
      <g>
       <use xlink:href="#m0a40285167" x="54" y="164.855588" style="stroke: #000000; stroke-width: 0.6"/>
      </g>
     </g>
    </g>
    <g id="ytick_20">
     <g id="line2d_33">
      <g>
       <use xlink:href="#m0a40285167" x="54" y="162.17743" style="stroke: #000000; stroke-width: 0.6"/>
      </g>
     </g>
    </g>
    <g id="ytick_21">
     <g id="line2d_34">
      <g>
       <use xlink:href="#m0a40285167" x="54" y="159.815128" style="stroke: #000000; stroke-width: 0.6"/>
      </g>
     </g>
    </g>
    <g id="ytick_22">
     <g id="line2d_35">
      <g>
       <use xlink:href="#m0a40285167" x="54" y="143.799947" style="stroke: #000000; stroke-width: 0.6"/>
      </g>
     </g>
    </g>
    <g id="ytick_23">
     <g id="line2d_36">
      <g>
       <use xlink:href="#m0a40285167" x="54" y="135.667782" style="stroke: #000000; stroke-width: 0.6"/>
      </g>
     </g>
    </g>
    <g id="ytick_24">
     <g id="line2d_37">
      <g>
       <use xlink:href="#m0a40285167" x="54" y="129.897919" style="stroke: #000000; stroke-width: 0.6"/>
      </g>
     </g>
    </g>
    <g id="ytick_25">
     <g id="line2d_38">
      <g>
       <use xlink:href="#m0a40285167" x="54" y="125.422465" style="stroke: #000000; stroke-width: 0.6"/>
      </g>
     </g>
    </g>
    <g id="ytick_26">
     <g id="line2d_39">
      <g>
       <use xlink:href="#m0a40285167" x="54" y="121.765753" style="stroke: #000000; stroke-width: 0.6"/>
      </g>
     </g>
    </g>
    <g id="ytick_27">
     <g id="line2d_40">
      <g>
       <use xlink:href="#m0a40285167" x="54" y="118.674047" style="stroke: #000000; stroke-width: 0.6"/>
      </g>
     </g>
    </g>
    <g id="ytick_28">
     <g id="line2d_41">
      <g>
       <use xlink:href="#m0a40285167" x="54" y="115.99589" style="stroke: #000000; stroke-width: 0.6"/>
      </g>
     </g>
    </g>
    <g id="ytick_29">
     <g id="line2d_42">
      <g>
       <use xlink:href="#m0a40285167" x="54" y="113.633587" style="stroke: #000000; stroke-width: 0.6"/>
      </g>
     </g>
    </g>
    <g id="ytick_30">
     <g id="line2d_43">
      <g>
       <use xlink:href="#m0a40285167" x="54" y="97.618407" style="stroke: #000000; stroke-width: 0.6"/>
      </g>
     </g>
    </g>
    <g id="ytick_31">
     <g id="line2d_44">
      <g>
       <use xlink:href="#m0a40285167" x="54" y="89.486241" style="stroke: #000000; stroke-width: 0.6"/>
      </g>
     </g>
    </g>
    <g id="ytick_32">
     <g id="line2d_45">
      <g>
       <use xlink:href="#m0a40285167" x="54" y="83.716378" style="stroke: #000000; stroke-width: 0.6"/>
      </g>
     </g>
    </g>
    <g id="ytick_33">
     <g id="line2d_46">
      <g>
       <use xlink:href="#m0a40285167" x="54" y="79.240924" style="stroke: #000000; stroke-width: 0.6"/>
      </g>
     </g>
    </g>
    <g id="ytick_34">
     <g id="line2d_47">
      <g>
       <use xlink:href="#m0a40285167" x="54" y="75.584212" style="stroke: #000000; stroke-width: 0.6"/>
      </g>
     </g>
    </g>
    <g id="ytick_35">
     <g id="line2d_48">
      <g>
       <use xlink:href="#m0a40285167" x="54" y="72.492506" style="stroke: #000000; stroke-width: 0.6"/>
      </g>
     </g>
    </g>
    <g id="ytick_36">
     <g id="line2d_49">
      <g>
       <use xlink:href="#m0a40285167" x="54" y="69.814349" style="stroke: #000000; stroke-width: 0.6"/>
      </g>
     </g>
    </g>
    <g id="ytick_37">
     <g id="line2d_50">
      <g>
       <use xlink:href="#m0a40285167" x="54" y="67.452047" style="stroke: #000000; stroke-width: 0.6"/>
      </g>
     </g>
    </g>
    <g id="ytick_38">
     <g id="line2d_51">
      <g>
       <use xlink:href="#m0a40285167" x="54" y="51.436866" style="stroke: #000000; stroke-width: 0.6"/>
      </g>
     </g>
    </g>
    <g id="ytick_39">
     <g id="line2d_52">
      <g>
       <use xlink:href="#m0a40285167" x="54" y="43.304701" style="stroke: #000000; stroke-width: 0.6"/>
      </g>
     </g>
    </g>
    <g id="ytick_40">
     <g id="line2d_53">
      <g>
       <use xlink:href="#m0a40285167" x="54" y="37.534837" style="stroke: #000000; stroke-width: 0.6"/>
      </g>
     </g>
    </g>
    <g id="text_20">
     <!-- Median NEPS -->
     <g transform="translate(18.820312 176.144844)rotate(-90)scale(0.1 -0.1)">
      <defs>
       <path id="DejaVuSans-4d" d="M 628 4666 
L 1569 4666 
L 2759 1491 
L 3956 4666 
L 4897 4666 
L 4897 0 
L 4281 0 
L 4281 4097 
L 3078 897 
L 2444 897 
L 1241 4097 
L 1241 0 
L 628 0 
L 628 4666 
z
" transform="scale(0.015625)"/>
       <path id="DejaVuSans-64" d="M 2906 2969 
L 2906 4863 
L 3481 4863 
L 3481 0 
L 2906 0 
L 2906 525 
Q 2725 213 2448 61 
Q 2172 -91 1784 -91 
Q 1150 -91 751 415 
Q 353 922 353 1747 
Q 353 2572 751 3078 
Q 1150 3584 1784 3584 
Q 2172 3584 2448 3432 
Q 2725 3281 2906 2969 
z
M 947 1747 
Q 947 1113 1208 752 
Q 1469 391 1925 391 
Q 2381 391 2643 752 
Q 2906 1113 2906 1747 
Q 2906 2381 2643 2742 
Q 2381 3103 1925 3103 
Q 1469 3103 1208 2742 
Q 947 2381 947 1747 
z
" transform="scale(0.015625)"/>
       <path id="DejaVuSans-6e" d="M 3513 2113 
L 3513 0 
L 2938 0 
L 2938 2094 
Q 2938 2591 2744 2837 
Q 2550 3084 2163 3084 
Q 1697 3084 1428 2787 
Q 1159 2491 1159 1978 
L 1159 0 
L 581 0 
L 581 3500 
L 1159 3500 
L 1159 2956 
Q 1366 3272 1645 3428 
Q 1925 3584 2291 3584 
Q 2894 3584 3203 3211 
Q 3513 2838 3513 2113 
z
" transform="scale(0.015625)"/>
       <path id="DejaVuSans-4e" d="M 628 4666 
L 1478 4666 
L 3547 763 
L 3547 4666 
L 4159 4666 
L 4159 0 
L 3309 0 
L 1241 3903 
L 1241 0 
L 628 0 
L 628 4666 
z
" transform="scale(0.015625)"/>
       <path id="DejaVuSans-45" d="M 628 4666 
L 3578 4666 
L 3578 4134 
L 1259 4134 
L 1259 2753 
L 3481 2753 
L 3481 2222 
L 1259 2222 
L 1259 531 
L 3634 531 
L 3634 0 
L 628 0 
L 628 4666 
z
" transform="scale(0.015625)"/>
       <path id="DejaVuSans-53" d="M 3425 4513 
L 3425 3897 
Q 3066 4069 2747 4153 
Q 2428 4238 2131 4238 
Q 1616 4238 1336 4038 
Q 1056 3838 1056 3469 
Q 1056 3159 1242 3001 
Q 1428 2844 1947 2747 
L 2328 2669 
Q 3034 2534 3370 2195 
Q 3706 1856 3706 1288 
Q 3706 609 3251 259 
Q 2797 -91 1919 -91 
Q 1588 -91 1214 -16 
Q 841 59 441 206 
L 441 856 
Q 825 641 1194 531 
Q 1563 422 1919 422 
Q 2459 422 2753 634 
Q 3047 847 3047 1241 
Q 3047 1584 2836 1778 
Q 2625 1972 2144 2069 
L 1759 2144 
Q 1053 2284 737 2584 
Q 422 2884 422 3419 
Q 422 4038 858 4394 
Q 1294 4750 2059 4750 
Q 2388 4750 2728 4690 
Q 3069 4631 3425 4513 
z
" transform="scale(0.015625)"/>
      </defs>
      <use xlink:href="#DejaVuSans-4d"/>
      <use xlink:href="#DejaVuSans-65" x="86.279297"/>
      <use xlink:href="#DejaVuSans-64" x="147.802734"/>
      <use xlink:href="#DejaVuSans-69" x="211.279297"/>
      <use xlink:href="#DejaVuSans-61" x="239.0625"/>
      <use xlink:href="#DejaVuSans-6e" x="300.341797"/>
      <use xlink:href="#DejaVuSans-20" x="363.720703"/>
      <use xlink:href="#DejaVuSans-4e" x="395.507812"/>
      <use xlink:href="#DejaVuSans-45" x="470.3125"/>
      <use xlink:href="#DejaVuSans-50" x="533.496094"/>
      <use xlink:href="#DejaVuSans-53" x="593.798828"/>
     </g>
    </g>
   </g>
   <g id="line2d_54">
    <path d="M 69.218182 242.116364 
L 74.127273 234.66759 
L 79.036364 224.88633 
L 83.945455 221.595278 
L 88.854545 217.381431 
L 93.763636 217.709316 
L 98.672727 211.470958 
L 103.581818 212.421183 
L 108.490909 211.758449 
L 113.4 207.638892 
L 118.309091 210.851755 
L 123.218182 204.398903 
L 128.127273 207.739931 
L 133.036364 201.170745 
L 137.945455 205.692211 
L 142.854545 205.530326 
L 147.763636 205.218041 
L 152.672727 206.813081 
L 157.581818 205.867407 
L 162.490909 206.176273 
L 167.4 205.798292 
L 172.309091 207.344936 
L 177.218182 204.163789 
L 182.127273 205.948769 
L 187.036364 202.325913 
L 191.945455 199.55375 
L 196.854545 202.825011 
L 201.763636 203.889131 
L 206.672727 196.136169 
L 211.581818 202.107898 
L 216.490909 202.061416 
L 221.4 200.05527 
L 226.309091 200.639292 
L 231.218182 202.468236 
L 236.127273 202.981278 
L 241.036364 199.514075 
L 245.945455 204.0504 
L 250.854545 201.457978 
L 255.763636 193.23908 
L 260.672727 200.93438 
L 265.581818 200.587458 
L 270.490909 200.400823 
L 275.4 196.957078 
L 280.309091 203.997572 
L 285.218182 199.387834 
L 290.127273 201.689381 
L 295.036364 197.672579 
L 299.945455 200.109331 
L 304.854545 201.846046 
L 309.763636 197.581034 
L 314.672727 197.743527 
L 319.581818 200.456199 
L 324.490909 201.522032 
L 329.4 198.709 
L 334.309091 196.079602 
L 339.218182 197.037759 
L 344.127273 195.413948 
L 349.036364 194.555647 
L 353.945455 194.877813 
L 358.854545 196.573676 
L 363.763636 197.011199 
L 368.672727 196.931937 
L 373.581818 195.129727 
" clip-path="url(#pcba38ba3b5)" style="fill: none; stroke: #1f77b4; stroke-width: 1.5; stroke-linecap: square"/>
   </g>
   <g id="line2d_55">
    <path d="M 69.218182 147.516558 
L 74.127273 141.332338 
L 79.036364 131.203498 
L 83.945455 125.226232 
L 88.854545 124.121819 
L 93.763636 122.732119 
L 98.672727 113.402125 
L 103.581818 118.222639 
L 108.490909 110.613664 
L 113.4 112.026423 
L 118.309091 116.187386 
L 123.218182 107.263149 
L 128.127273 119.391525 
L 133.036364 105.989183 
L 137.945455 108.885494 
L 142.854545 107.402922 
L 147.763636 112.025174 
L 152.672727 117.520127 
L 157.581818 107.890719 
L 162.490909 108.469828 
L 167.4 109.001883 
L 172.309091 110.674978 
L 177.218182 106.623143 
L 182.127273 110.427318 
L 187.036364 111.680216 
L 191.945455 99.49495 
L 196.854545 105.615128 
L 201.763636 105.779346 
L 206.672727 96.868551 
L 211.581818 110.132197 
L 216.490909 104.820135 
L 221.4 97.079584 
L 226.309091 102.122761 
L 231.218182 100.804232 
L 236.127273 104.826117 
L 241.036364 97.627907 
L 245.945455 108.370942 
L 250.854545 104.262123 
L 255.763636 93.1797 
L 260.672727 103.196632 
L 265.581818 102.203894 
L 270.490909 101.814542 
L 275.4 96.151886 
L 280.309091 104.396411 
L 285.218182 96.625217 
L 290.127273 101.232413 
L 295.036364 96.712942 
L 299.945455 98.361202 
L 304.854545 100.069198 
L 309.763636 97.680969 
L 314.672727 96.07272 
L 319.581818 102.123341 
L 324.490909 102.112726 
L 329.4 99.095449 
L 334.309091 100.003852 
L 339.218182 93.15366 
L 344.127273 93.25349 
L 349.036364 96.541468 
L 353.945455 93.92378 
L 358.854545 94.587124 
L 363.763636 96.487696 
L 368.672727 95.683858 
L 373.581818 92.192535 
" clip-path="url(#pcba38ba3b5)" style="fill: none; stroke: #ff7f0e; stroke-width: 1.5; stroke-linecap: square"/>
   </g>
   <g id="line2d_56">
    <path d="M 69.218182 144.637597 
L 74.127273 139.706656 
L 79.036364 130.617533 
L 83.945455 124.628863 
L 88.854545 127.15952 
L 93.763636 125.31732 
L 98.672727 115.017181 
L 103.581818 119.001164 
L 108.490909 111.944832 
L 113.4 114.411509 
L 118.309091 116.819385 
L 123.218182 107.568757 
L 128.127273 118.724725 
L 133.036364 104.889726 
L 137.945455 110.137374 
L 142.854545 107.719969 
L 147.763636 112.719026 
L 152.672727 117.744553 
L 157.581818 106.801164 
L 162.490909 109.078192 
L 167.4 110.789296 
L 172.309091 111.90556 
L 177.218182 108.510451 
L 182.127273 109.30497 
L 187.036364 111.622696 
L 191.945455 101.002195 
L 196.854545 107.379545 
L 201.763636 108.722893 
L 206.672727 98.926076 
L 211.581818 111.51319 
L 216.490909 107.530358 
L 221.4 101.478634 
L 226.309091 105.669967 
L 231.218182 106.628404 
L 236.127273 109.2263 
L 241.036364 101.3125 
L 245.945455 112.195042 
L 250.854545 106.719172 
L 255.763636 97.270999 
L 260.672727 105.266589 
L 265.581818 103.481319 
L 270.490909 103.914386 
L 275.4 98.329073 
L 280.309091 102.706795 
L 285.218182 98.627567 
L 290.127273 103.992343 
L 295.036364 98.465274 
L 299.945455 97.749513 
L 304.854545 102.346315 
L 309.763636 99.323031 
L 314.672727 99.010206 
L 319.581818 105.18628 
L 324.490909 100.320303 
L 329.4 96.942012 
L 334.309091 96.934932 
L 339.218182 93.809252 
L 344.127273 95.956086 
L 349.036364 93.987053 
L 353.945455 93.425642 
L 358.854545 94.948052 
L 363.763636 100.204407 
L 368.672727 97.824788 
L 373.581818 90.910203 
" clip-path="url(#pcba38ba3b5)" style="fill: none; stroke: #2ca02c; stroke-width: 1.5; stroke-linecap: square"/>
   </g>
   <g id="line2d_57">
    <path d="M 69.218182 115.226393 
L 74.127273 106.862203 
L 79.036364 96.143122 
L 83.945455 93.87019 
L 88.854545 93.107221 
L 93.763636 89.572099 
L 98.672727 79.023716 
L 103.581818 86.810806 
L 108.490909 84.442142 
L 113.4 44.443636 
L 118.309091 85.496346 
L 123.218182 75.851678 
L 128.127273 83.324845 
L 133.036364 75.393836 
L 137.945455 77.162433 
L 142.854545 78.569031 
L 147.763636 78.82149 
L 152.672727 84.104128 
L 157.581818 75.651605 
L 162.490909 78.206069 
L 167.4 80.202144 
L 172.309091 89.302893 
L 177.218182 78.254598 
L 182.127273 81.361169 
L 187.036364 76.694499 
L 191.945455 74.461758 
L 196.854545 74.679 
L 201.763636 70.670693 
L 206.672727 74.122726 
L 211.581818 78.426343 
L 216.490909 73.906146 
L 221.4 67.963303 
L 226.309091 71.948501 
L 231.218182 77.206647 
L 236.127273 76.983646 
L 241.036364 70.525751 
L 245.945455 79.32103 
L 250.854545 71.249123 
L 255.763636 66.376674 
L 260.672727 73.393846 
L 265.581818 70.67748 
L 270.490909 73.700755 
L 275.4 66.402735 
L 280.309091 70.568989 
L 285.218182 74.993495 
L 290.127273 67.322839 
L 295.036364 64.494533 
L 299.945455 66.145981 
L 304.854545 69.401753 
L 309.763636 69.488536 
L 314.672727 67.862016 
L 319.581818 67.886062 
L 324.490909 66.604518 
L 329.4 69.884883 
L 334.309091 62.170674 
L 339.218182 65.738592 
L 344.127273 67.33769 
L 349.036364 65.39913 
L 353.945455 65.603937 
L 358.854545 64.443892 
L 363.763636 64.17796 
L 368.672727 64.737663 
L 373.581818 64.866736 
" clip-path="url(#pcba38ba3b5)" style="fill: none; stroke: #d62728; stroke-width: 1.5; stroke-linecap: square"/>
   </g>
   <g id="patch_3">
    <path d="M 54 252 
L 54 34.56 
" style="fill: none; stroke: #000000; stroke-width: 0.8; stroke-linejoin: miter; stroke-linecap: square"/>
   </g>
   <g id="patch_4">
    <path d="M 388.8 252 
L 388.8 34.56 
" style="fill: none; stroke: #000000; stroke-width: 0.8; stroke-linejoin: miter; stroke-linecap: square"/>
   </g>
   <g id="patch_5">
    <path d="M 54 252 
L 388.8 252 
" style="fill: none; stroke: #000000; stroke-width: 0.8; stroke-linejoin: miter; stroke-linecap: square"/>
   </g>
   <g id="patch_6">
    <path d="M 54 34.56 
L 388.8 34.56 
" style="fill: none; stroke: #000000; stroke-width: 0.8; stroke-linejoin: miter; stroke-linecap: square"/>
   </g>
   <g id="text_21">
    <!-- Median NEPS vs. Program Size (100000 f.c., nicolau_c) -->
    <g transform="translate(58.139063 28.56)scale(0.12 -0.12)">
     <defs>
      <path id="DejaVuSans-76" d="M 191 3500 
L 800 3500 
L 1894 563 
L 2988 3500 
L 3597 3500 
L 2284 0 
L 1503 0 
L 191 3500 
z
" transform="scale(0.015625)"/>
      <path id="DejaVuSans-2e" d="M 684 794 
L 1344 794 
L 1344 0 
L 684 0 
L 684 794 
z
" transform="scale(0.015625)"/>
      <path id="DejaVuSans-28" d="M 1984 4856 
Q 1566 4138 1362 3434 
Q 1159 2731 1159 2009 
Q 1159 1288 1364 580 
Q 1569 -128 1984 -844 
L 1484 -844 
Q 1016 -109 783 600 
Q 550 1309 550 2009 
Q 550 2706 781 3412 
Q 1013 4119 1484 4856 
L 1984 4856 
z
" transform="scale(0.015625)"/>
      <path id="DejaVuSans-66" d="M 2375 4863 
L 2375 4384 
L 1825 4384 
Q 1516 4384 1395 4259 
Q 1275 4134 1275 3809 
L 1275 3500 
L 2222 3500 
L 2222 3053 
L 1275 3053 
L 1275 0 
L 697 0 
L 697 3053 
L 147 3053 
L 147 3500 
L 697 3500 
L 697 3744 
Q 697 4328 969 4595 
Q 1241 4863 1831 4863 
L 2375 4863 
z
" transform="scale(0.015625)"/>
      <path id="DejaVuSans-63" d="M 3122 3366 
L 3122 2828 
Q 2878 2963 2633 3030 
Q 2388 3097 2138 3097 
Q 1578 3097 1268 2742 
Q 959 2388 959 1747 
Q 959 1106 1268 751 
Q 1578 397 2138 397 
Q 2388 397 2633 464 
Q 2878 531 3122 666 
L 3122 134 
Q 2881 22 2623 -34 
Q 2366 -91 2075 -91 
Q 1284 -91 818 406 
Q 353 903 353 1747 
Q 353 2603 823 3093 
Q 1294 3584 2113 3584 
Q 2378 3584 2631 3529 
Q 2884 3475 3122 3366 
z
" transform="scale(0.015625)"/>
      <path id="DejaVuSans-2c" d="M 750 794 
L 1409 794 
L 1409 256 
L 897 -744 
L 494 -744 
L 750 256 
L 750 794 
z
" transform="scale(0.015625)"/>
      <path id="DejaVuSans-6c" d="M 603 4863 
L 1178 4863 
L 1178 0 
L 603 0 
L 603 4863 
z
" transform="scale(0.015625)"/>
      <path id="DejaVuSans-75" d="M 544 1381 
L 544 3500 
L 1119 3500 
L 1119 1403 
Q 1119 906 1312 657 
Q 1506 409 1894 409 
Q 2359 409 2629 706 
Q 2900 1003 2900 1516 
L 2900 3500 
L 3475 3500 
L 3475 0 
L 2900 0 
L 2900 538 
Q 2691 219 2414 64 
Q 2138 -91 1772 -91 
Q 1169 -91 856 284 
Q 544 659 544 1381 
z
M 1991 3584 
L 1991 3584 
z
" transform="scale(0.015625)"/>
      <path id="DejaVuSans-5f" d="M 3263 -1063 
L 3263 -1509 
L -63 -1509 
L -63 -1063 
L 3263 -1063 
z
" transform="scale(0.015625)"/>
      <path id="DejaVuSans-29" d="M 513 4856 
L 1013 4856 
Q 1481 4119 1714 3412 
Q 1947 2706 1947 2009 
Q 1947 1309 1714 600 
Q 1481 -109 1013 -844 
L 513 -844 
Q 928 -128 1133 580 
Q 1338 1288 1338 2009 
Q 1338 2731 1133 3434 
Q 928 4138 513 4856 
z
" transform="scale(0.015625)"/>
     </defs>
     <use xlink:href="#DejaVuSans-4d"/>
     <use xlink:href="#DejaVuSans-65" x="86.279297"/>
     <use xlink:href="#DejaVuSans-64" x="147.802734"/>
     <use xlink:href="#DejaVuSans-69" x="211.279297"/>
     <use xlink:href="#DejaVuSans-61" x="239.0625"/>
     <use xlink:href="#DejaVuSans-6e" x="300.341797"/>
     <use xlink:href="#DejaVuSans-20" x="363.720703"/>
     <use xlink:href="#DejaVuSans-4e" x="395.507812"/>
     <use xlink:href="#DejaVuSans-45" x="470.3125"/>
     <use xlink:href="#DejaVuSans-50" x="533.496094"/>
     <use xlink:href="#DejaVuSans-53" x="593.798828"/>
     <use xlink:href="#DejaVuSans-20" x="657.275391"/>
     <use xlink:href="#DejaVuSans-76" x="689.0625"/>
     <use xlink:href="#DejaVuSans-73" x="748.242188"/>
     <use xlink:href="#DejaVuSans-2e" x="800.341797"/>
     <use xlink:href="#DejaVuSans-20" x="832.128906"/>
     <use xlink:href="#DejaVuSans-50" x="863.916016"/>
     <use xlink:href="#DejaVuSans-72" x="922.46875"/>
     <use xlink:href="#DejaVuSans-6f" x="961.332031"/>
     <use xlink:href="#DejaVuSans-67" x="1022.513672"/>
     <use xlink:href="#DejaVuSans-72" x="1085.990234"/>
     <use xlink:href="#DejaVuSans-61" x="1127.103516"/>
     <use xlink:href="#DejaVuSans-6d" x="1188.382812"/>
     <use xlink:href="#DejaVuSans-20" x="1285.794922"/>
     <use xlink:href="#DejaVuSans-53" x="1317.582031"/>
     <use xlink:href="#DejaVuSans-69" x="1381.058594"/>
     <use xlink:href="#DejaVuSans-7a" x="1408.841797"/>
     <use xlink:href="#DejaVuSans-65" x="1461.332031"/>
     <use xlink:href="#DejaVuSans-20" x="1522.855469"/>
     <use xlink:href="#DejaVuSans-28" x="1554.642578"/>
     <use xlink:href="#DejaVuSans-31" x="1593.65625"/>
     <use xlink:href="#DejaVuSans-30" x="1657.279297"/>
     <use xlink:href="#DejaVuSans-30" x="1720.902344"/>
     <use xlink:href="#DejaVuSans-30" x="1784.525391"/>
     <use xlink:href="#DejaVuSans-30" x="1848.148438"/>
     <use xlink:href="#DejaVuSans-30" x="1911.771484"/>
     <use xlink:href="#DejaVuSans-20" x="1975.394531"/>
     <use xlink:href="#DejaVuSans-66" x="2007.181641"/>
     <use xlink:href="#DejaVuSans-2e" x="2035.136719"/>
     <use xlink:href="#DejaVuSans-63" x="2066.923828"/>
     <use xlink:href="#DejaVuSans-2e" x="2121.904297"/>
     <use xlink:href="#DejaVuSans-2c" x="2153.691406"/>
     <use xlink:href="#DejaVuSans-20" x="2185.478516"/>
     <use xlink:href="#DejaVuSans-6e" x="2217.265625"/>
     <use xlink:href="#DejaVuSans-69" x="2280.644531"/>
     <use xlink:href="#DejaVuSans-63" x="2308.427734"/>
     <use xlink:href="#DejaVuSans-6f" x="2363.408203"/>
     <use xlink:href="#DejaVuSans-6c" x="2424.589844"/>
     <use xlink:href="#DejaVuSans-61" x="2452.373047"/>
     <use xlink:href="#DejaVuSans-75" x="2513.652344"/>
     <use xlink:href="#DejaVuSans-5f" x="2577.03125"/>
     <use xlink:href="#DejaVuSans-63" x="2627.03125"/>
     <use xlink:href="#DejaVuSans-29" x="2682.011719"/>
    </g>
   </g>
   <g id="legend_1">
    <g id="patch_7">
     <path d="M 61 101.2725 
L 171.19375 101.2725 
Q 173.19375 101.2725 173.19375 99.2725 
L 173.19375 41.56 
Q 173.19375 39.56 171.19375 39.56 
L 61 39.56 
Q 59 39.56 59 41.56 
L 59 99.2725 
Q 59 101.2725 61 101.2725 
z
" style="fill: #ffffff; opacity: 0.8; stroke: #cccccc; stroke-linejoin: miter"/>
    </g>
    <g id="line2d_58">
     <path d="M 63 47.658437 
L 73 47.658437 
L 83 47.658437 
" style="fill: none; stroke: #1f77b4; stroke-width: 1.5; stroke-linecap: square"/>
    </g>
    <g id="text_22">
     <!-- DEAP -->
     <g transform="translate(91 51.158437)scale(0.1 -0.1)">
      <defs>
       <path id="DejaVuSans-44" d="M 1259 4147 
L 1259 519 
L 2022 519 
Q 2988 519 3436 956 
Q 3884 1394 3884 2338 
Q 3884 3275 3436 3711 
Q 2988 4147 2022 4147 
L 1259 4147 
z
M 628 4666 
L 1925 4666 
Q 3281 4666 3915 4102 
Q 4550 3538 4550 2338 
Q 4550 1131 3912 565 
Q 3275 0 1925 0 
L 628 0 
L 628 4666 
z
" transform="scale(0.015625)"/>
       <path id="DejaVuSans-41" d="M 2188 4044 
L 1331 1722 
L 3047 1722 
L 2188 4044 
z
M 1831 4666 
L 2547 4666 
L 4325 0 
L 3669 0 
L 3244 1197 
L 1141 1197 
L 716 0 
L 50 0 
L 1831 4666 
z
" transform="scale(0.015625)"/>
      </defs>
      <use xlink:href="#DejaVuSans-44"/>
      <use xlink:href="#DejaVuSans-45" x="77.001953"/>
      <use xlink:href="#DejaVuSans-41" x="140.185547"/>
      <use xlink:href="#DejaVuSans-50" x="208.59375"/>
     </g>
    </g>
    <g id="line2d_59">
     <path d="M 63 62.336562 
L 73 62.336562 
L 83 62.336562 
" style="fill: none; stroke: #ff7f0e; stroke-width: 1.5; stroke-linecap: square"/>
    </g>
    <g id="text_23">
     <!-- TensorGP (CPU) -->
     <g transform="translate(91 65.836562)scale(0.1 -0.1)">
      <defs>
       <path id="DejaVuSans-54" d="M -19 4666 
L 3928 4666 
L 3928 4134 
L 2272 4134 
L 2272 0 
L 1638 0 
L 1638 4134 
L -19 4134 
L -19 4666 
z
" transform="scale(0.015625)"/>
       <path id="DejaVuSans-47" d="M 3809 666 
L 3809 1919 
L 2778 1919 
L 2778 2438 
L 4434 2438 
L 4434 434 
Q 4069 175 3628 42 
Q 3188 -91 2688 -91 
Q 1594 -91 976 548 
Q 359 1188 359 2328 
Q 359 3472 976 4111 
Q 1594 4750 2688 4750 
Q 3144 4750 3555 4637 
Q 3966 4525 4313 4306 
L 4313 3634 
Q 3963 3931 3569 4081 
Q 3175 4231 2741 4231 
Q 1884 4231 1454 3753 
Q 1025 3275 1025 2328 
Q 1025 1384 1454 906 
Q 1884 428 2741 428 
Q 3075 428 3337 486 
Q 3600 544 3809 666 
z
" transform="scale(0.015625)"/>
       <path id="DejaVuSans-43" d="M 4122 4306 
L 4122 3641 
Q 3803 3938 3442 4084 
Q 3081 4231 2675 4231 
Q 1875 4231 1450 3742 
Q 1025 3253 1025 2328 
Q 1025 1406 1450 917 
Q 1875 428 2675 428 
Q 3081 428 3442 575 
Q 3803 722 4122 1019 
L 4122 359 
Q 3791 134 3420 21 
Q 3050 -91 2638 -91 
Q 1578 -91 968 557 
Q 359 1206 359 2328 
Q 359 3453 968 4101 
Q 1578 4750 2638 4750 
Q 3056 4750 3426 4639 
Q 3797 4528 4122 4306 
z
" transform="scale(0.015625)"/>
       <path id="DejaVuSans-55" d="M 556 4666 
L 1191 4666 
L 1191 1831 
Q 1191 1081 1462 751 
Q 1734 422 2344 422 
Q 2950 422 3222 751 
Q 3494 1081 3494 1831 
L 3494 4666 
L 4128 4666 
L 4128 1753 
Q 4128 841 3676 375 
Q 3225 -91 2344 -91 
Q 1459 -91 1007 375 
Q 556 841 556 1753 
L 556 4666 
z
" transform="scale(0.015625)"/>
      </defs>
      <use xlink:href="#DejaVuSans-54"/>
      <use xlink:href="#DejaVuSans-65" x="44.083984"/>
      <use xlink:href="#DejaVuSans-6e" x="105.607422"/>
      <use xlink:href="#DejaVuSans-73" x="168.986328"/>
      <use xlink:href="#DejaVuSans-6f" x="221.085938"/>
      <use xlink:href="#DejaVuSans-72" x="282.267578"/>
      <use xlink:href="#DejaVuSans-47" x="323.380859"/>
      <use xlink:href="#DejaVuSans-50" x="400.871094"/>
      <use xlink:href="#DejaVuSans-20" x="461.173828"/>
      <use xlink:href="#DejaVuSans-28" x="492.960938"/>
      <use xlink:href="#DejaVuSans-43" x="531.974609"/>
      <use xlink:href="#DejaVuSans-50" x="601.798828"/>
      <use xlink:href="#DejaVuSans-55" x="662.101562"/>
      <use xlink:href="#DejaVuSans-29" x="735.294922"/>
     </g>
    </g>
    <g id="line2d_60">
     <path d="M 63 77.014687 
L 73 77.014687 
L 83 77.014687 
" style="fill: none; stroke: #2ca02c; stroke-width: 1.5; stroke-linecap: square"/>
    </g>
    <g id="text_24">
     <!-- TensorGP (GPU) -->
     <g transform="translate(91 80.514687)scale(0.1 -0.1)">
      <use xlink:href="#DejaVuSans-54"/>
      <use xlink:href="#DejaVuSans-65" x="44.083984"/>
      <use xlink:href="#DejaVuSans-6e" x="105.607422"/>
      <use xlink:href="#DejaVuSans-73" x="168.986328"/>
      <use xlink:href="#DejaVuSans-6f" x="221.085938"/>
      <use xlink:href="#DejaVuSans-72" x="282.267578"/>
      <use xlink:href="#DejaVuSans-47" x="323.380859"/>
      <use xlink:href="#DejaVuSans-50" x="400.871094"/>
      <use xlink:href="#DejaVuSans-20" x="461.173828"/>
      <use xlink:href="#DejaVuSans-28" x="492.960938"/>
      <use xlink:href="#DejaVuSans-47" x="531.974609"/>
      <use xlink:href="#DejaVuSans-50" x="609.464844"/>
      <use xlink:href="#DejaVuSans-55" x="669.767578"/>
      <use xlink:href="#DejaVuSans-29" x="742.960938"/>
     </g>
    </g>
    <g id="line2d_61">
     <path d="M 63 91.692813 
L 73 91.692813 
L 83 91.692813 
" style="fill: none; stroke: #d62728; stroke-width: 1.5; stroke-linecap: square"/>
    </g>
    <g id="text_25">
     <!-- Operon -->
     <g transform="translate(91 95.192813)scale(0.1 -0.1)">
      <defs>
       <path id="DejaVuSans-4f" d="M 2522 4238 
Q 1834 4238 1429 3725 
Q 1025 3213 1025 2328 
Q 1025 1447 1429 934 
Q 1834 422 2522 422 
Q 3209 422 3611 934 
Q 4013 1447 4013 2328 
Q 4013 3213 3611 3725 
Q 3209 4238 2522 4238 
z
M 2522 4750 
Q 3503 4750 4090 4092 
Q 4678 3434 4678 2328 
Q 4678 1225 4090 567 
Q 3503 -91 2522 -91 
Q 1538 -91 948 565 
Q 359 1222 359 2328 
Q 359 3434 948 4092 
Q 1538 4750 2522 4750 
z
" transform="scale(0.015625)"/>
       <path id="DejaVuSans-70" d="M 1159 525 
L 1159 -1331 
L 581 -1331 
L 581 3500 
L 1159 3500 
L 1159 2969 
Q 1341 3281 1617 3432 
Q 1894 3584 2278 3584 
Q 2916 3584 3314 3078 
Q 3713 2572 3713 1747 
Q 3713 922 3314 415 
Q 2916 -91 2278 -91 
Q 1894 -91 1617 61 
Q 1341 213 1159 525 
z
M 3116 1747 
Q 3116 2381 2855 2742 
Q 2594 3103 2138 3103 
Q 1681 3103 1420 2742 
Q 1159 2381 1159 1747 
Q 1159 1113 1420 752 
Q 1681 391 2138 391 
Q 2594 391 2855 752 
Q 3116 1113 3116 1747 
z
" transform="scale(0.015625)"/>
      </defs>
      <use xlink:href="#DejaVuSans-4f"/>
      <use xlink:href="#DejaVuSans-70" x="78.710938"/>
      <use xlink:href="#DejaVuSans-65" x="142.1875"/>
      <use xlink:href="#DejaVuSans-72" x="203.710938"/>
      <use xlink:href="#DejaVuSans-6f" x="242.574219"/>
      <use xlink:href="#DejaVuSans-6e" x="303.755859"/>
     </g>
    </g>
   </g>
  </g>
 </g>
 <defs>
  <clipPath id="pcba38ba3b5">
   <rect x="54" y="34.56" width="334.8" height="217.44"/>
  </clipPath>
 </defs>
</svg>
