<?xml version="1.0" encoding="utf-8" standalone="no"?>
<!DOCTYPE svg PUBLIC "-//W3C//DTD SVG 1.1//EN"
  "http://www.w3.org/Graphics/SVG/1.1/DTD/svg11.dtd">
<svg xmlns:xlink="http://www.w3.org/1999/xlink" width="432pt" height="288pt" viewBox="0 0 432 288" xmlns="http://www.w3.org/2000/svg" version="1.1">
 <metadata>
  <rdf:RDF xmlns:dc="http://purl.org/dc/elements/1.1/" xmlns:cc="http://creativecommons.org/ns#" xmlns:rdf="http://www.w3.org/1999/02/22-rdf-syntax-ns#">
   <cc:Work>
    <dc:type rdf:resource="http://purl.org/dc/dcmitype/StillImage"/>
    <dc:date>2022-01-12T03:40:14.849335</dc:date>
    <dc:format>image/svg+xml</dc:format>
    <dc:creator>
     <cc:Agent>
      <dc:title>Matplotlib v3.5.1, https://matplotlib.org/</dc:title>
     </cc:Agent>
    </dc:creator>
   </cc:Work>
  </rdf:RDF>
 </metadata>
 <defs>
  <style type="text/css">*{stroke-linejoin: round; stroke-linecap: butt}</style>
 </defs>
 <g id="figure_1">
  <g id="patch_1">
   <path d="M 0 288 
L 432 288 
L 432 0 
L 0 0 
L 0 288 
z
" style="fill: none"/>
  </g>
  <g id="axes_1">
   <g id="patch_2">
    <path d="M 54 252 
L 388.8 252 
L 388.8 34.56 
L 54 34.56 
z
" style="fill: #ffffff"/>
   </g>
   <g id="PolyCollection_1">
    <path d="M 69.218182 242.032701 
L 69.218182 242.116364 
L 74.127273 234.434294 
L 79.036364 224.877652 
L 83.945455 220.905967 
L 88.854545 216.970536 
L 93.763636 216.902215 
L 98.672727 210.435706 
L 103.581818 212.224718 
L 108.490909 210.918778 
L 113.4 206.910735 
L 118.309091 210.67736 
L 123.218182 203.505048 
L 128.127273 206.24962 
L 133.036364 200.987989 
L 137.945455 204.963891 
L 142.854545 204.769982 
L 147.763636 204.646794 
L 152.672727 205.4744 
L 157.581818 204.560897 
L 162.490909 205.128494 
L 167.4 204.043036 
L 172.309091 206.174081 
L 177.218182 203.255736 
L 182.127273 204.601755 
L 187.036364 200.893374 
L 191.945455 197.154223 
L 196.854545 202.017323 
L 201.763636 204.010017 
L 206.672727 195.468644 
L 211.581818 201.022545 
L 216.490909 201.227819 
L 221.4 198.839457 
L 226.309091 201.257496 
L 231.218182 200.960049 
L 236.127273 201.62484 
L 241.036364 198.168204 
L 245.945455 202.478719 
L 250.854545 200.300993 
L 255.763636 191.78501 
L 260.672727 198.889084 
L 265.581818 199.415398 
L 270.490909 198.764656 
L 275.4 194.510179 
L 280.309091 202.915055 
L 285.218182 197.682807 
L 290.127273 200.805568 
L 295.036364 196.793765 
L 299.945455 199.177579 
L 304.854545 201.053188 
L 309.763636 196.115501 
L 314.672727 195.520203 
L 319.581818 198.924658 
L 324.490909 200.713241 
L 329.4 195.968115 
L 334.309091 194.718409 
L 339.218182 195.589346 
L 344.127273 193.673965 
L 349.036364 193.23649 
L 353.945455 193.038279 
L 358.854545 195.201838 
L 363.763636 195.863586 
L 368.672727 195.523917 
L 373.581818 193.430598 
L 373.581818 192.961024 
L 373.581818 192.961024 
L 368.672727 194.853025 
L 363.763636 195.209735 
L 358.854545 194.944607 
L 353.945455 192.741967 
L 349.036364 192.929415 
L 344.127273 193.493738 
L 339.218182 195.326927 
L 334.309091 194.308688 
L 329.4 195.856989 
L 324.490909 200.243361 
L 319.581818 198.700222 
L 314.672727 195.423604 
L 309.763636 195.791001 
L 304.854545 200.803086 
L 299.945455 199.126641 
L 295.036364 196.384521 
L 290.127273 200.665762 
L 285.218182 197.400609 
L 280.309091 202.732577 
L 275.4 194.363666 
L 270.490909 198.365646 
L 265.581818 199.167902 
L 260.672727 198.792281 
L 255.763636 191.417651 
L 250.854545 200.165629 
L 245.945455 201.976348 
L 241.036364 198.034498 
L 236.127273 200.941168 
L 231.218182 200.769444 
L 226.309091 197.053635 
L 221.4 198.693349 
L 216.490909 200.28533 
L 211.581818 200.720623 
L 206.672727 195.385747 
L 201.763636 203.460661 
L 196.854545 201.576844 
L 191.945455 197.042554 
L 187.036364 200.780373 
L 182.127273 204.34711 
L 177.218182 202.757814 
L 172.309091 206.044406 
L 167.4 203.907543 
L 162.490909 204.814902 
L 157.581818 204.28669 
L 152.672727 205.174769 
L 147.763636 204.044603 
L 142.854545 202.42534 
L 137.945455 204.83122 
L 133.036364 200.47182 
L 128.127273 206.141346 
L 123.218182 203.453945 
L 118.309091 210.161822 
L 113.4 206.811768 
L 108.490909 210.521715 
L 103.581818 211.97878 
L 98.672727 210.251216 
L 93.763636 216.768299 
L 88.854545 216.723937 
L 83.945455 220.607287 
L 79.036364 224.635889 
L 74.127273 234.251026 
L 69.218182 242.032701 
z
" clip-path="url(#pb5d6e6efed)" style="fill: #1f77b4"/>
   </g>
   <g id="PolyCollection_2">
    <path d="M 69.218182 173.598352 
L 69.218182 175.383379 
L 74.127273 166.367962 
L 79.036364 160.400127 
L 83.945455 156.009764 
L 88.854545 155.677169 
L 93.763636 151.046447 
L 98.672727 144.983187 
L 103.581818 145.663907 
L 108.490909 141.957423 
L 113.4 141.721603 
L 118.309091 144.429565 
L 123.218182 137.401884 
L 128.127273 145.418297 
L 133.036364 134.914515 
L 137.945455 137.46764 
L 142.854545 135.754546 
L 147.763636 138.743557 
L 152.672727 143.901656 
L 157.581818 133.89518 
L 162.490909 136.133531 
L 167.4 136.702917 
L 172.309091 137.790245 
L 177.218182 132.811563 
L 182.127273 135.585308 
L 187.036364 135.569621 
L 191.945455 125.949587 
L 196.854545 132.811207 
L 201.763636 132.579579 
L 206.672727 125.643207 
L 211.581818 136.673728 
L 216.490909 134.695665 
L 221.4 127.340797 
L 226.309091 131.804419 
L 231.218182 132.094278 
L 236.127273 133.935698 
L 241.036364 125.019979 
L 245.945455 136.015645 
L 250.854545 130.128057 
L 255.763636 120.468508 
L 260.672727 128.548765 
L 265.581818 127.419051 
L 270.490909 128.73433 
L 275.4 124.368538 
L 280.309091 131.052483 
L 285.218182 123.886896 
L 290.127273 138.107636 
L 295.036364 131.531072 
L 299.945455 126.488561 
L 304.854545 128.555365 
L 309.763636 124.792576 
L 314.672727 129.996196 
L 319.581818 132.533999 
L 324.490909 127.704521 
L 329.4 124.215489 
L 334.309091 125.825426 
L 339.218182 124.36156 
L 344.127273 134.860421 
L 349.036364 120.490911 
L 353.945455 121.250347 
L 358.854545 123.734866 
L 363.763636 123.939841 
L 368.672727 126.351818 
L 373.581818 119.881859 
L 373.581818 118.029024 
L 373.581818 118.029024 
L 368.672727 123.609916 
L 363.763636 123.560113 
L 358.854545 120.968375 
L 353.945455 121.157105 
L 349.036364 120.048946 
L 344.127273 124.547415 
L 339.218182 118.244125 
L 334.309091 125.048628 
L 329.4 123.962155 
L 324.490909 127.327148 
L 319.581818 129.893777 
L 314.672727 126.976225 
L 309.763636 124.39244 
L 304.854545 126.892738 
L 299.945455 126.416819 
L 295.036364 124.213655 
L 290.127273 137.785119 
L 285.218182 123.785385 
L 280.309091 130.774769 
L 275.4 124.201345 
L 270.490909 128.593372 
L 265.581818 127.096962 
L 260.672727 128.275356 
L 255.763636 120.234724 
L 250.854545 130.021148 
L 245.945455 135.685747 
L 241.036364 124.725776 
L 236.127273 130.978757 
L 231.218182 130.232506 
L 226.309091 131.028248 
L 221.4 126.482722 
L 216.490909 133.271081 
L 211.581818 136.297817 
L 206.672727 125.21585 
L 201.763636 131.713125 
L 196.854545 132.001118 
L 191.945455 125.530193 
L 187.036364 135.012591 
L 182.127273 135.343428 
L 177.218182 132.124441 
L 172.309091 137.268733 
L 167.4 135.414229 
L 162.490909 136.002352 
L 157.581818 133.553221 
L 152.672727 142.755864 
L 147.763636 138.12382 
L 142.854545 134.624768 
L 137.945455 136.64575 
L 133.036364 133.785217 
L 128.127273 144.544738 
L 123.218182 135.911491 
L 118.309091 142.202497 
L 113.4 141.294157 
L 108.490909 140.513759 
L 103.581818 145.346773 
L 98.672727 143.772878 
L 93.763636 150.976614 
L 88.854545 153.960825 
L 83.945455 154.940451 
L 79.036364 159.753307 
L 74.127273 166.040913 
L 69.218182 173.598352 
z
" clip-path="url(#pb5d6e6efed)" style="fill: #ff7f0e"/>
   </g>
   <g id="PolyCollection_3">
    <path d="M 69.218182 175.827346 
L 69.218182 176.146506 
L 74.127273 173.153311 
L 79.036364 162.154192 
L 83.945455 156.73964 
L 88.854545 156.130919 
L 93.763636 154.093858 
L 98.672727 147.221556 
L 103.581818 150.028056 
L 108.490909 144.339517 
L 113.4 144.775796 
L 118.309091 146.361218 
L 123.218182 140.691072 
L 128.127273 150.298421 
L 133.036364 138.502657 
L 137.945455 141.915878 
L 142.854545 141.328838 
L 147.763636 145.115168 
L 152.672727 147.901871 
L 157.581818 138.068835 
L 162.490909 141.025231 
L 167.4 139.992463 
L 172.309091 142.036379 
L 177.218182 136.356583 
L 182.127273 135.588053 
L 187.036364 142.920331 
L 191.945455 133.338538 
L 196.854545 140.201234 
L 201.763636 134.753709 
L 206.672727 126.455268 
L 211.581818 136.924498 
L 216.490909 134.152181 
L 221.4 127.349758 
L 226.309091 131.129812 
L 231.218182 129.503237 
L 236.127273 132.565031 
L 241.036364 125.788905 
L 245.945455 136.828589 
L 250.854545 131.403694 
L 255.763636 121.725676 
L 260.672727 129.758318 
L 265.581818 128.694906 
L 270.490909 129.024932 
L 275.4 125.340112 
L 280.309091 131.14597 
L 285.218182 124.123484 
L 290.127273 129.908146 
L 295.036364 125.586263 
L 299.945455 127.436773 
L 304.854545 128.601939 
L 309.763636 125.281036 
L 314.672727 125.310446 
L 319.581818 132.343791 
L 324.490909 128.753138 
L 329.4 124.611479 
L 334.309091 126.249697 
L 339.218182 123.075305 
L 344.127273 122.050843 
L 349.036364 123.058863 
L 353.945455 122.084647 
L 358.854545 123.908046 
L 363.763636 125.340552 
L 368.672727 122.843813 
L 373.581818 118.863436 
L 373.581818 118.079756 
L 373.581818 118.079756 
L 368.672727 122.506323 
L 363.763636 124.132637 
L 358.854545 122.933505 
L 353.945455 121.643867 
L 349.036364 119.316375 
L 344.127273 121.592013 
L 339.218182 119.116048 
L 334.309091 125.207361 
L 329.4 124.510358 
L 324.490909 128.092655 
L 319.581818 131.728491 
L 314.672727 124.711024 
L 309.763636 124.44087 
L 304.854545 128.121357 
L 299.945455 127.163035 
L 295.036364 124.816364 
L 290.127273 129.030266 
L 285.218182 123.631845 
L 280.309091 130.943102 
L 275.4 124.382912 
L 270.490909 128.297515 
L 265.581818 128.0774 
L 260.672727 129.255028 
L 255.763636 120.857328 
L 250.854545 130.895597 
L 245.945455 136.186259 
L 241.036364 125.094986 
L 236.127273 131.507164 
L 231.218182 128.262346 
L 226.309091 130.713017 
L 221.4 126.617561 
L 216.490909 133.742225 
L 211.581818 136.587071 
L 206.672727 123.632757 
L 201.763636 133.828302 
L 196.854545 134.14657 
L 191.945455 131.64283 
L 187.036364 139.996179 
L 182.127273 135.317336 
L 177.218182 133.479014 
L 172.309091 141.630919 
L 167.4 139.719913 
L 162.490909 139.757438 
L 157.581818 137.603667 
L 152.672727 147.8013 
L 147.763636 142.972925 
L 142.854545 140.440482 
L 137.945455 141.315266 
L 133.036364 138.014404 
L 128.127273 148.810404 
L 123.218182 140.399944 
L 118.309091 146.042366 
L 113.4 144.48987 
L 108.490909 143.776358 
L 103.581818 149.934407 
L 98.672727 146.770267 
L 93.763636 153.714315 
L 88.854545 156.003457 
L 83.945455 156.685297 
L 79.036364 161.933544 
L 74.127273 169.764021 
L 69.218182 175.827346 
z
" clip-path="url(#pb5d6e6efed)" style="fill: #2ca02c"/>
   </g>
   <g id="PolyCollection_4">
    <path d="M 69.218182 122.031663 
L 69.218182 123.885712 
L 74.127273 115.416961 
L 79.036364 114.021434 
L 83.945455 102.517038 
L 88.854545 106.621202 
L 93.763636 98.19901 
L 98.672727 89.976054 
L 103.581818 94.930725 
L 108.490909 87.566379 
L 113.4 46785.738028 
L 118.309091 89.29204 
L 123.218182 83.550336 
L 128.127273 86.375507 
L 133.036364 83.299698 
L 137.945455 83.636931 
L 142.854545 85.84798 
L 147.763636 85.164084 
L 152.672727 88.142224 
L 157.581818 80.071024 
L 162.490909 84.198972 
L 167.4 85.423225 
L 172.309091 81.528331 
L 177.218182 82.415542 
L 182.127273 83.169943 
L 187.036364 80.542301 
L 191.945455 78.726376 
L 196.854545 80.53826 
L 201.763636 73.317433 
L 206.672727 75.809583 
L 211.581818 80.447021 
L 216.490909 75.1497 
L 221.4 70.930407 
L 226.309091 73.307489 
L 231.218182 79.315557 
L 236.127273 81.959227 
L 241.036364 78.616222 
L 245.945455 81.780142 
L 250.854545 74.584988 
L 255.763636 71.057023 
L 260.672727 75.630939 
L 265.581818 72.052787 
L 270.490909 76.847174 
L 275.4 71.170449 
L 280.309091 70.77535 
L 285.218182 76.940854 
L 290.127273 72.755177 
L 295.036364 68.790388 
L 299.945455 70.148092 
L 304.854545 74.221735 
L 309.763636 70.902948 
L 314.672727 70.408248 
L 319.581818 70.419005 
L 324.490909 65.448841 
L 329.4 70.220038 
L 334.309091 64.295813 
L 339.218182 66.031896 
L 344.127273 69.688256 
L 349.036364 67.991841 
L 353.945455 68.080308 
L 358.854545 65.652926 
L 363.763636 67.089588 
L 368.672727 66.03131 
L 373.581818 65.650132 
L 373.581818 63.378175 
L 373.581818 63.378175 
L 368.672727 63.51977 
L 363.763636 65.096674 
L 358.854545 65.010257 
L 353.945455 67.130257 
L 349.036364 66.633467 
L 344.127273 66.655007 
L 339.218182 65.666921 
L 334.309091 62.842773 
L 329.4 69.425686 
L 324.490909 64.497004 
L 319.581818 68.754243 
L 314.672727 68.482286 
L 309.763636 69.688739 
L 304.854545 70.638819 
L 299.945455 68.318607 
L 295.036364 66.468982 
L 290.127273 68.240314 
L 285.218182 71.935648 
L 280.309091 68.675691 
L 275.4 69.683126 
L 270.490909 75.338996 
L 265.581818 71.869396 
L 260.672727 74.365531 
L 255.763636 69.530363 
L 250.854545 72.482648 
L 245.945455 80.469466 
L 241.036364 72.762657 
L 236.127273 76.296411 
L 231.218182 78.301774 
L 226.309091 72.644766 
L 221.4 67.662337 
L 216.490909 73.562467 
L 211.581818 76.879772 
L 206.672727 75.135283 
L 201.763636 72.132229 
L 196.854545 74.928818 
L 191.945455 74.270492 
L 187.036364 77.255612 
L 182.127273 81.025881 
L 177.218182 81.224542 
L 172.309091 80.249475 
L 167.4 80.873039 
L 162.490909 79.585401 
L 157.581818 79.649373 
L 152.672727 86.75567 
L 147.763636 79.62856 
L 142.854545 79.486987 
L 137.945455 82.321388 
L 133.036364 79.685323 
L 128.127273 81.237341 
L 123.218182 81.998791 
L 118.309091 89.017667 
L 113.4 44.443636 
L 108.490909 86.367319 
L 103.581818 88.248099 
L 98.672727 87.253684 
L 93.763636 95.812299 
L 88.854545 93.847055 
L 83.945455 99.858005 
L 79.036364 99.675394 
L 74.127273 114.244213 
L 69.218182 122.031663 
z
" clip-path="url(#pb5d6e6efed)" style="fill: #d62728"/>
   </g>
   <g id="matplotlib.axis_1">
    <g id="xtick_1">
     <g id="line2d_1">
      <defs>
       <path id="m7e175c05f9" d="M 0 0 
L 0 3.5 
" style="stroke: #000000; stroke-width: 0.8"/>
      </defs>
      <g>
       <use xlink:href="#m7e175c05f9" x="69.218182" y="252" style="stroke: #000000; stroke-width: 0.8"/>
      </g>
     </g>
     <g id="text_1">
      <!-- 1 -->
      <g transform="translate(66.036932 266.598437)scale(0.1 -0.1)">
       <defs>
        <path id="DejaVuSans-31" d="M 794 531 
L 1825 531 
L 1825 4091 
L 703 3866 
L 703 4441 
L 1819 4666 
L 2450 4666 
L 2450 531 
L 3481 531 
L 3481 0 
L 794 0 
L 794 531 
z
" transform="scale(0.015625)"/>
       </defs>
       <use xlink:href="#DejaVuSans-31"/>
      </g>
     </g>
    </g>
    <g id="xtick_2">
     <g id="line2d_2">
      <g>
       <use xlink:href="#m7e175c05f9" x="93.763636" y="252" style="stroke: #000000; stroke-width: 0.8"/>
      </g>
     </g>
     <g id="text_2">
      <!-- 6 -->
      <g transform="translate(90.582386 266.598437)scale(0.1 -0.1)">
       <defs>
        <path id="DejaVuSans-36" d="M 2113 2584 
Q 1688 2584 1439 2293 
Q 1191 2003 1191 1497 
Q 1191 994 1439 701 
Q 1688 409 2113 409 
Q 2538 409 2786 701 
Q 3034 994 3034 1497 
Q 3034 2003 2786 2293 
Q 2538 2584 2113 2584 
z
M 3366 4563 
L 3366 3988 
Q 3128 4100 2886 4159 
Q 2644 4219 2406 4219 
Q 1781 4219 1451 3797 
Q 1122 3375 1075 2522 
Q 1259 2794 1537 2939 
Q 1816 3084 2150 3084 
Q 2853 3084 3261 2657 
Q 3669 2231 3669 1497 
Q 3669 778 3244 343 
Q 2819 -91 2113 -91 
Q 1303 -91 875 529 
Q 447 1150 447 2328 
Q 447 3434 972 4092 
Q 1497 4750 2381 4750 
Q 2619 4750 2861 4703 
Q 3103 4656 3366 4563 
z
" transform="scale(0.015625)"/>
       </defs>
       <use xlink:href="#DejaVuSans-36"/>
      </g>
     </g>
    </g>
    <g id="xtick_3">
     <g id="line2d_3">
      <g>
       <use xlink:href="#m7e175c05f9" x="118.309091" y="252" style="stroke: #000000; stroke-width: 0.8"/>
      </g>
     </g>
     <g id="text_3">
      <!-- 11 -->
      <g transform="translate(111.946591 266.598437)scale(0.1 -0.1)">
       <use xlink:href="#DejaVuSans-31"/>
       <use xlink:href="#DejaVuSans-31" x="63.623047"/>
      </g>
     </g>
    </g>
    <g id="xtick_4">
     <g id="line2d_4">
      <g>
       <use xlink:href="#m7e175c05f9" x="142.854545" y="252" style="stroke: #000000; stroke-width: 0.8"/>
      </g>
     </g>
     <g id="text_4">
      <!-- 16 -->
      <g transform="translate(136.492045 266.598437)scale(0.1 -0.1)">
       <use xlink:href="#DejaVuSans-31"/>
       <use xlink:href="#DejaVuSans-36" x="63.623047"/>
      </g>
     </g>
    </g>
    <g id="xtick_5">
     <g id="line2d_5">
      <g>
       <use xlink:href="#m7e175c05f9" x="167.4" y="252" style="stroke: #000000; stroke-width: 0.8"/>
      </g>
     </g>
     <g id="text_5">
      <!-- 21 -->
      <g transform="translate(161.0375 266.598437)scale(0.1 -0.1)">
       <defs>
        <path id="DejaVuSans-32" d="M 1228 531 
L 3431 531 
L 3431 0 
L 469 0 
L 469 531 
Q 828 903 1448 1529 
Q 2069 2156 2228 2338 
Q 2531 2678 2651 2914 
Q 2772 3150 2772 3378 
Q 2772 3750 2511 3984 
Q 2250 4219 1831 4219 
Q 1534 4219 1204 4116 
Q 875 4013 500 3803 
L 500 4441 
Q 881 4594 1212 4672 
Q 1544 4750 1819 4750 
Q 2544 4750 2975 4387 
Q 3406 4025 3406 3419 
Q 3406 3131 3298 2873 
Q 3191 2616 2906 2266 
Q 2828 2175 2409 1742 
Q 1991 1309 1228 531 
z
" transform="scale(0.015625)"/>
       </defs>
       <use xlink:href="#DejaVuSans-32"/>
       <use xlink:href="#DejaVuSans-31" x="63.623047"/>
      </g>
     </g>
    </g>
    <g id="xtick_6">
     <g id="line2d_6">
      <g>
       <use xlink:href="#m7e175c05f9" x="191.945455" y="252" style="stroke: #000000; stroke-width: 0.8"/>
      </g>
     </g>
     <g id="text_6">
      <!-- 26 -->
      <g transform="translate(185.582955 266.598437)scale(0.1 -0.1)">
       <use xlink:href="#DejaVuSans-32"/>
       <use xlink:href="#DejaVuSans-36" x="63.623047"/>
      </g>
     </g>
    </g>
    <g id="xtick_7">
     <g id="line2d_7">
      <g>
       <use xlink:href="#m7e175c05f9" x="216.490909" y="252" style="stroke: #000000; stroke-width: 0.8"/>
      </g>
     </g>
     <g id="text_7">
      <!-- 31 -->
      <g transform="translate(210.128409 266.598437)scale(0.1 -0.1)">
       <defs>
        <path id="DejaVuSans-33" d="M 2597 2516 
Q 3050 2419 3304 2112 
Q 3559 1806 3559 1356 
Q 3559 666 3084 287 
Q 2609 -91 1734 -91 
Q 1441 -91 1130 -33 
Q 819 25 488 141 
L 488 750 
Q 750 597 1062 519 
Q 1375 441 1716 441 
Q 2309 441 2620 675 
Q 2931 909 2931 1356 
Q 2931 1769 2642 2001 
Q 2353 2234 1838 2234 
L 1294 2234 
L 1294 2753 
L 1863 2753 
Q 2328 2753 2575 2939 
Q 2822 3125 2822 3475 
Q 2822 3834 2567 4026 
Q 2313 4219 1838 4219 
Q 1578 4219 1281 4162 
Q 984 4106 628 3988 
L 628 4550 
Q 988 4650 1302 4700 
Q 1616 4750 1894 4750 
Q 2613 4750 3031 4423 
Q 3450 4097 3450 3541 
Q 3450 3153 3228 2886 
Q 3006 2619 2597 2516 
z
" transform="scale(0.015625)"/>
       </defs>
       <use xlink:href="#DejaVuSans-33"/>
       <use xlink:href="#DejaVuSans-31" x="63.623047"/>
      </g>
     </g>
    </g>
    <g id="xtick_8">
     <g id="line2d_8">
      <g>
       <use xlink:href="#m7e175c05f9" x="241.036364" y="252" style="stroke: #000000; stroke-width: 0.8"/>
      </g>
     </g>
     <g id="text_8">
      <!-- 36 -->
      <g transform="translate(234.673864 266.598437)scale(0.1 -0.1)">
       <use xlink:href="#DejaVuSans-33"/>
       <use xlink:href="#DejaVuSans-36" x="63.623047"/>
      </g>
     </g>
    </g>
    <g id="xtick_9">
     <g id="line2d_9">
      <g>
       <use xlink:href="#m7e175c05f9" x="265.581818" y="252" style="stroke: #000000; stroke-width: 0.8"/>
      </g>
     </g>
     <g id="text_9">
      <!-- 41 -->
      <g transform="translate(259.219318 266.598437)scale(0.1 -0.1)">
       <defs>
        <path id="DejaVuSans-34" d="M 2419 4116 
L 825 1625 
L 2419 1625 
L 2419 4116 
z
M 2253 4666 
L 3047 4666 
L 3047 1625 
L 3713 1625 
L 3713 1100 
L 3047 1100 
L 3047 0 
L 2419 0 
L 2419 1100 
L 313 1100 
L 313 1709 
L 2253 4666 
z
" transform="scale(0.015625)"/>
       </defs>
       <use xlink:href="#DejaVuSans-34"/>
       <use xlink:href="#DejaVuSans-31" x="63.623047"/>
      </g>
     </g>
    </g>
    <g id="xtick_10">
     <g id="line2d_10">
      <g>
       <use xlink:href="#m7e175c05f9" x="290.127273" y="252" style="stroke: #000000; stroke-width: 0.8"/>
      </g>
     </g>
     <g id="text_10">
      <!-- 46 -->
      <g transform="translate(283.764773 266.598437)scale(0.1 -0.1)">
       <use xlink:href="#DejaVuSans-34"/>
       <use xlink:href="#DejaVuSans-36" x="63.623047"/>
      </g>
     </g>
    </g>
    <g id="xtick_11">
     <g id="line2d_11">
      <g>
       <use xlink:href="#m7e175c05f9" x="314.672727" y="252" style="stroke: #000000; stroke-width: 0.8"/>
      </g>
     </g>
     <g id="text_11">
      <!-- 51 -->
      <g transform="translate(308.310227 266.598437)scale(0.1 -0.1)">
       <defs>
        <path id="DejaVuSans-35" d="M 691 4666 
L 3169 4666 
L 3169 4134 
L 1269 4134 
L 1269 2991 
Q 1406 3038 1543 3061 
Q 1681 3084 1819 3084 
Q 2600 3084 3056 2656 
Q 3513 2228 3513 1497 
Q 3513 744 3044 326 
Q 2575 -91 1722 -91 
Q 1428 -91 1123 -41 
Q 819 9 494 109 
L 494 744 
Q 775 591 1075 516 
Q 1375 441 1709 441 
Q 2250 441 2565 725 
Q 2881 1009 2881 1497 
Q 2881 1984 2565 2268 
Q 2250 2553 1709 2553 
Q 1456 2553 1204 2497 
Q 953 2441 691 2322 
L 691 4666 
z
" transform="scale(0.015625)"/>
       </defs>
       <use xlink:href="#DejaVuSans-35"/>
       <use xlink:href="#DejaVuSans-31" x="63.623047"/>
      </g>
     </g>
    </g>
    <g id="xtick_12">
     <g id="line2d_12">
      <g>
       <use xlink:href="#m7e175c05f9" x="339.218182" y="252" style="stroke: #000000; stroke-width: 0.8"/>
      </g>
     </g>
     <g id="text_12">
      <!-- 56 -->
      <g transform="translate(332.855682 266.598437)scale(0.1 -0.1)">
       <use xlink:href="#DejaVuSans-35"/>
       <use xlink:href="#DejaVuSans-36" x="63.623047"/>
      </g>
     </g>
    </g>
    <g id="xtick_13">
     <g id="line2d_13">
      <g>
       <use xlink:href="#m7e175c05f9" x="363.763636" y="252" style="stroke: #000000; stroke-width: 0.8"/>
      </g>
     </g>
     <g id="text_13">
      <!-- 61 -->
      <g transform="translate(357.401136 266.598437)scale(0.1 -0.1)">
       <use xlink:href="#DejaVuSans-36"/>
       <use xlink:href="#DejaVuSans-31" x="63.623047"/>
      </g>
     </g>
    </g>
    <g id="text_14">
     <!-- Program size -->
     <g transform="translate(189.022656 280.276563)scale(0.1 -0.1)">
      <defs>
       <path id="DejaVuSans-50" d="M 1259 4147 
L 1259 2394 
L 2053 2394 
Q 2494 2394 2734 2622 
Q 2975 2850 2975 3272 
Q 2975 3691 2734 3919 
Q 2494 4147 2053 4147 
L 1259 4147 
z
M 628 4666 
L 2053 4666 
Q 2838 4666 3239 4311 
Q 3641 3956 3641 3272 
Q 3641 2581 3239 2228 
Q 2838 1875 2053 1875 
L 1259 1875 
L 1259 0 
L 628 0 
L 628 4666 
z
" transform="scale(0.015625)"/>
       <path id="DejaVuSans-72" d="M 2631 2963 
Q 2534 3019 2420 3045 
Q 2306 3072 2169 3072 
Q 1681 3072 1420 2755 
Q 1159 2438 1159 1844 
L 1159 0 
L 581 0 
L 581 3500 
L 1159 3500 
L 1159 2956 
Q 1341 3275 1631 3429 
Q 1922 3584 2338 3584 
Q 2397 3584 2469 3576 
Q 2541 3569 2628 3553 
L 2631 2963 
z
" transform="scale(0.015625)"/>
       <path id="DejaVuSans-6f" d="M 1959 3097 
Q 1497 3097 1228 2736 
Q 959 2375 959 1747 
Q 959 1119 1226 758 
Q 1494 397 1959 397 
Q 2419 397 2687 759 
Q 2956 1122 2956 1747 
Q 2956 2369 2687 2733 
Q 2419 3097 1959 3097 
z
M 1959 3584 
Q 2709 3584 3137 3096 
Q 3566 2609 3566 1747 
Q 3566 888 3137 398 
Q 2709 -91 1959 -91 
Q 1206 -91 779 398 
Q 353 888 353 1747 
Q 353 2609 779 3096 
Q 1206 3584 1959 3584 
z
" transform="scale(0.015625)"/>
       <path id="DejaVuSans-67" d="M 2906 1791 
Q 2906 2416 2648 2759 
Q 2391 3103 1925 3103 
Q 1463 3103 1205 2759 
Q 947 2416 947 1791 
Q 947 1169 1205 825 
Q 1463 481 1925 481 
Q 2391 481 2648 825 
Q 2906 1169 2906 1791 
z
M 3481 434 
Q 3481 -459 3084 -895 
Q 2688 -1331 1869 -1331 
Q 1566 -1331 1297 -1286 
Q 1028 -1241 775 -1147 
L 775 -588 
Q 1028 -725 1275 -790 
Q 1522 -856 1778 -856 
Q 2344 -856 2625 -561 
Q 2906 -266 2906 331 
L 2906 616 
Q 2728 306 2450 153 
Q 2172 0 1784 0 
Q 1141 0 747 490 
Q 353 981 353 1791 
Q 353 2603 747 3093 
Q 1141 3584 1784 3584 
Q 2172 3584 2450 3431 
Q 2728 3278 2906 2969 
L 2906 3500 
L 3481 3500 
L 3481 434 
z
" transform="scale(0.015625)"/>
       <path id="DejaVuSans-61" d="M 2194 1759 
Q 1497 1759 1228 1600 
Q 959 1441 959 1056 
Q 959 750 1161 570 
Q 1363 391 1709 391 
Q 2188 391 2477 730 
Q 2766 1069 2766 1631 
L 2766 1759 
L 2194 1759 
z
M 3341 1997 
L 3341 0 
L 2766 0 
L 2766 531 
Q 2569 213 2275 61 
Q 1981 -91 1556 -91 
Q 1019 -91 701 211 
Q 384 513 384 1019 
Q 384 1609 779 1909 
Q 1175 2209 1959 2209 
L 2766 2209 
L 2766 2266 
Q 2766 2663 2505 2880 
Q 2244 3097 1772 3097 
Q 1472 3097 1187 3025 
Q 903 2953 641 2809 
L 641 3341 
Q 956 3463 1253 3523 
Q 1550 3584 1831 3584 
Q 2591 3584 2966 3190 
Q 3341 2797 3341 1997 
z
" transform="scale(0.015625)"/>
       <path id="DejaVuSans-6d" d="M 3328 2828 
Q 3544 3216 3844 3400 
Q 4144 3584 4550 3584 
Q 5097 3584 5394 3201 
Q 5691 2819 5691 2113 
L 5691 0 
L 5113 0 
L 5113 2094 
Q 5113 2597 4934 2840 
Q 4756 3084 4391 3084 
Q 3944 3084 3684 2787 
Q 3425 2491 3425 1978 
L 3425 0 
L 2847 0 
L 2847 2094 
Q 2847 2600 2669 2842 
Q 2491 3084 2119 3084 
Q 1678 3084 1418 2786 
Q 1159 2488 1159 1978 
L 1159 0 
L 581 0 
L 581 3500 
L 1159 3500 
L 1159 2956 
Q 1356 3278 1631 3431 
Q 1906 3584 2284 3584 
Q 2666 3584 2933 3390 
Q 3200 3197 3328 2828 
z
" transform="scale(0.015625)"/>
       <path id="DejaVuSans-20" transform="scale(0.015625)"/>
       <path id="DejaVuSans-73" d="M 2834 3397 
L 2834 2853 
Q 2591 2978 2328 3040 
Q 2066 3103 1784 3103 
Q 1356 3103 1142 2972 
Q 928 2841 928 2578 
Q 928 2378 1081 2264 
Q 1234 2150 1697 2047 
L 1894 2003 
Q 2506 1872 2764 1633 
Q 3022 1394 3022 966 
Q 3022 478 2636 193 
Q 2250 -91 1575 -91 
Q 1294 -91 989 -36 
Q 684 19 347 128 
L 347 722 
Q 666 556 975 473 
Q 1284 391 1588 391 
Q 1994 391 2212 530 
Q 2431 669 2431 922 
Q 2431 1156 2273 1281 
Q 2116 1406 1581 1522 
L 1381 1569 
Q 847 1681 609 1914 
Q 372 2147 372 2553 
Q 372 3047 722 3315 
Q 1072 3584 1716 3584 
Q 2034 3584 2315 3537 
Q 2597 3491 2834 3397 
z
" transform="scale(0.015625)"/>
       <path id="DejaVuSans-69" d="M 603 3500 
L 1178 3500 
L 1178 0 
L 603 0 
L 603 3500 
z
M 603 4863 
L 1178 4863 
L 1178 4134 
L 603 4134 
L 603 4863 
z
" transform="scale(0.015625)"/>
       <path id="DejaVuSans-7a" d="M 353 3500 
L 3084 3500 
L 3084 2975 
L 922 459 
L 3084 459 
L 3084 0 
L 275 0 
L 275 525 
L 2438 3041 
L 353 3041 
L 353 3500 
z
" transform="scale(0.015625)"/>
       <path id="DejaVuSans-65" d="M 3597 1894 
L 3597 1613 
L 953 1613 
Q 991 1019 1311 708 
Q 1631 397 2203 397 
Q 2534 397 2845 478 
Q 3156 559 3463 722 
L 3463 178 
Q 3153 47 2828 -22 
Q 2503 -91 2169 -91 
Q 1331 -91 842 396 
Q 353 884 353 1716 
Q 353 2575 817 3079 
Q 1281 3584 2069 3584 
Q 2775 3584 3186 3129 
Q 3597 2675 3597 1894 
z
M 3022 2063 
Q 3016 2534 2758 2815 
Q 2500 3097 2075 3097 
Q 1594 3097 1305 2825 
Q 1016 2553 972 2059 
L 3022 2063 
z
" transform="scale(0.015625)"/>
      </defs>
      <use xlink:href="#DejaVuSans-50"/>
      <use xlink:href="#DejaVuSans-72" x="58.552734"/>
      <use xlink:href="#DejaVuSans-6f" x="97.416016"/>
      <use xlink:href="#DejaVuSans-67" x="158.597656"/>
      <use xlink:href="#DejaVuSans-72" x="222.074219"/>
      <use xlink:href="#DejaVuSans-61" x="263.1875"/>
      <use xlink:href="#DejaVuSans-6d" x="324.466797"/>
      <use xlink:href="#DejaVuSans-20" x="421.878906"/>
      <use xlink:href="#DejaVuSans-73" x="453.666016"/>
      <use xlink:href="#DejaVuSans-69" x="505.765625"/>
      <use xlink:href="#DejaVuSans-7a" x="533.548828"/>
      <use xlink:href="#DejaVuSans-65" x="586.039062"/>
     </g>
    </g>
   </g>
   <g id="matplotlib.axis_2">
    <g id="ytick_1">
     <g id="line2d_14">
      <defs>
       <path id="m01a592e29c" d="M 0 0 
L -3.5 0 
" style="stroke: #000000; stroke-width: 0.8"/>
      </defs>
      <g>
       <use xlink:href="#m01a592e29c" x="54" y="248.257894" style="stroke: #000000; stroke-width: 0.8"/>
      </g>
     </g>
     <g id="text_15">
      <!-- $\mathdefault{10^{6}}$ -->
      <g transform="translate(29.4 252.057113)scale(0.1 -0.1)">
       <defs>
        <path id="DejaVuSans-30" d="M 2034 4250 
Q 1547 4250 1301 3770 
Q 1056 3291 1056 2328 
Q 1056 1369 1301 889 
Q 1547 409 2034 409 
Q 2525 409 2770 889 
Q 3016 1369 3016 2328 
Q 3016 3291 2770 3770 
Q 2525 4250 2034 4250 
z
M 2034 4750 
Q 2819 4750 3233 4129 
Q 3647 3509 3647 2328 
Q 3647 1150 3233 529 
Q 2819 -91 2034 -91 
Q 1250 -91 836 529 
Q 422 1150 422 2328 
Q 422 3509 836 4129 
Q 1250 4750 2034 4750 
z
" transform="scale(0.015625)"/>
       </defs>
       <use xlink:href="#DejaVuSans-31" transform="translate(0 0.765625)"/>
       <use xlink:href="#DejaVuSans-30" transform="translate(63.623047 0.765625)"/>
       <use xlink:href="#DejaVuSans-36" transform="translate(128.203125 39.046875)scale(0.7)"/>
      </g>
     </g>
    </g>
    <g id="ytick_2">
     <g id="line2d_15">
      <g>
       <use xlink:href="#m01a592e29c" x="54" y="201.997973" style="stroke: #000000; stroke-width: 0.8"/>
      </g>
     </g>
     <g id="text_16">
      <!-- $\mathdefault{10^{7}}$ -->
      <g transform="translate(29.4 205.797192)scale(0.1 -0.1)">
       <defs>
        <path id="DejaVuSans-37" d="M 525 4666 
L 3525 4666 
L 3525 4397 
L 1831 0 
L 1172 0 
L 2766 4134 
L 525 4134 
L 525 4666 
z
" transform="scale(0.015625)"/>
       </defs>
       <use xlink:href="#DejaVuSans-31" transform="translate(0 0.684375)"/>
       <use xlink:href="#DejaVuSans-30" transform="translate(63.623047 0.684375)"/>
       <use xlink:href="#DejaVuSans-37" transform="translate(128.203125 38.965625)scale(0.7)"/>
      </g>
     </g>
    </g>
    <g id="ytick_3">
     <g id="line2d_16">
      <g>
       <use xlink:href="#m01a592e29c" x="54" y="155.738053" style="stroke: #000000; stroke-width: 0.8"/>
      </g>
     </g>
     <g id="text_17">
      <!-- $\mathdefault{10^{8}}$ -->
      <g transform="translate(29.4 159.537271)scale(0.1 -0.1)">
       <defs>
        <path id="DejaVuSans-38" d="M 2034 2216 
Q 1584 2216 1326 1975 
Q 1069 1734 1069 1313 
Q 1069 891 1326 650 
Q 1584 409 2034 409 
Q 2484 409 2743 651 
Q 3003 894 3003 1313 
Q 3003 1734 2745 1975 
Q 2488 2216 2034 2216 
z
M 1403 2484 
Q 997 2584 770 2862 
Q 544 3141 544 3541 
Q 544 4100 942 4425 
Q 1341 4750 2034 4750 
Q 2731 4750 3128 4425 
Q 3525 4100 3525 3541 
Q 3525 3141 3298 2862 
Q 3072 2584 2669 2484 
Q 3125 2378 3379 2068 
Q 3634 1759 3634 1313 
Q 3634 634 3220 271 
Q 2806 -91 2034 -91 
Q 1263 -91 848 271 
Q 434 634 434 1313 
Q 434 1759 690 2068 
Q 947 2378 1403 2484 
z
M 1172 3481 
Q 1172 3119 1398 2916 
Q 1625 2713 2034 2713 
Q 2441 2713 2670 2916 
Q 2900 3119 2900 3481 
Q 2900 3844 2670 4047 
Q 2441 4250 2034 4250 
Q 1625 4250 1398 4047 
Q 1172 3844 1172 3481 
z
" transform="scale(0.015625)"/>
       </defs>
       <use xlink:href="#DejaVuSans-31" transform="translate(0 0.765625)"/>
       <use xlink:href="#DejaVuSans-30" transform="translate(63.623047 0.765625)"/>
       <use xlink:href="#DejaVuSans-38" transform="translate(128.203125 39.046875)scale(0.7)"/>
      </g>
     </g>
    </g>
    <g id="ytick_4">
     <g id="line2d_17">
      <g>
       <use xlink:href="#m01a592e29c" x="54" y="109.478132" style="stroke: #000000; stroke-width: 0.8"/>
      </g>
     </g>
     <g id="text_18">
      <!-- $\mathdefault{10^{9}}$ -->
      <g transform="translate(29.4 113.277351)scale(0.1 -0.1)">
       <defs>
        <path id="DejaVuSans-39" d="M 703 97 
L 703 672 
Q 941 559 1184 500 
Q 1428 441 1663 441 
Q 2288 441 2617 861 
Q 2947 1281 2994 2138 
Q 2813 1869 2534 1725 
Q 2256 1581 1919 1581 
Q 1219 1581 811 2004 
Q 403 2428 403 3163 
Q 403 3881 828 4315 
Q 1253 4750 1959 4750 
Q 2769 4750 3195 4129 
Q 3622 3509 3622 2328 
Q 3622 1225 3098 567 
Q 2575 -91 1691 -91 
Q 1453 -91 1209 -44 
Q 966 3 703 97 
z
M 1959 2075 
Q 2384 2075 2632 2365 
Q 2881 2656 2881 3163 
Q 2881 3666 2632 3958 
Q 2384 4250 1959 4250 
Q 1534 4250 1286 3958 
Q 1038 3666 1038 3163 
Q 1038 2656 1286 2365 
Q 1534 2075 1959 2075 
z
" transform="scale(0.015625)"/>
       </defs>
       <use xlink:href="#DejaVuSans-31" transform="translate(0 0.765625)"/>
       <use xlink:href="#DejaVuSans-30" transform="translate(63.623047 0.765625)"/>
       <use xlink:href="#DejaVuSans-39" transform="translate(128.203125 39.046875)scale(0.7)"/>
      </g>
     </g>
    </g>
    <g id="ytick_5">
     <g id="line2d_18">
      <g>
       <use xlink:href="#m01a592e29c" x="54" y="63.218211" style="stroke: #000000; stroke-width: 0.8"/>
      </g>
     </g>
     <g id="text_19">
      <!-- $\mathdefault{10^{10}}$ -->
      <g transform="translate(24.9 67.01743)scale(0.1 -0.1)">
       <use xlink:href="#DejaVuSans-31" transform="translate(0 0.765625)"/>
       <use xlink:href="#DejaVuSans-30" transform="translate(63.623047 0.765625)"/>
       <use xlink:href="#DejaVuSans-31" transform="translate(128.203125 39.046875)scale(0.7)"/>
       <use xlink:href="#DejaVuSans-30" transform="translate(172.739258 39.046875)scale(0.7)"/>
      </g>
     </g>
    </g>
    <g id="ytick_6">
     <g id="line2d_19">
      <defs>
       <path id="m1b3bb47197" d="M 0 0 
L -2 0 
" style="stroke: #000000; stroke-width: 0.6"/>
      </defs>
      <g>
       <use xlink:href="#m1b3bb47197" x="54" y="250.374632" style="stroke: #000000; stroke-width: 0.6"/>
      </g>
     </g>
    </g>
    <g id="ytick_7">
     <g id="line2d_20">
      <g>
       <use xlink:href="#m1b3bb47197" x="54" y="234.33227" style="stroke: #000000; stroke-width: 0.6"/>
      </g>
     </g>
    </g>
    <g id="ytick_8">
     <g id="line2d_21">
      <g>
       <use xlink:href="#m1b3bb47197" x="54" y="226.186302" style="stroke: #000000; stroke-width: 0.6"/>
      </g>
     </g>
    </g>
    <g id="ytick_9">
     <g id="line2d_22">
      <g>
       <use xlink:href="#m1b3bb47197" x="54" y="220.406646" style="stroke: #000000; stroke-width: 0.6"/>
      </g>
     </g>
    </g>
    <g id="ytick_10">
     <g id="line2d_23">
      <g>
       <use xlink:href="#m1b3bb47197" x="54" y="215.923597" style="stroke: #000000; stroke-width: 0.6"/>
      </g>
     </g>
    </g>
    <g id="ytick_11">
     <g id="line2d_24">
      <g>
       <use xlink:href="#m1b3bb47197" x="54" y="212.260679" style="stroke: #000000; stroke-width: 0.6"/>
      </g>
     </g>
    </g>
    <g id="ytick_12">
     <g id="line2d_25">
      <g>
       <use xlink:href="#m1b3bb47197" x="54" y="209.163726" style="stroke: #000000; stroke-width: 0.6"/>
      </g>
     </g>
    </g>
    <g id="ytick_13">
     <g id="line2d_26">
      <g>
       <use xlink:href="#m1b3bb47197" x="54" y="206.481023" style="stroke: #000000; stroke-width: 0.6"/>
      </g>
     </g>
    </g>
    <g id="ytick_14">
     <g id="line2d_27">
      <g>
       <use xlink:href="#m1b3bb47197" x="54" y="204.114711" style="stroke: #000000; stroke-width: 0.6"/>
      </g>
     </g>
    </g>
    <g id="ytick_15">
     <g id="line2d_28">
      <g>
       <use xlink:href="#m1b3bb47197" x="54" y="188.072349" style="stroke: #000000; stroke-width: 0.6"/>
      </g>
     </g>
    </g>
    <g id="ytick_16">
     <g id="line2d_29">
      <g>
       <use xlink:href="#m1b3bb47197" x="54" y="179.926382" style="stroke: #000000; stroke-width: 0.6"/>
      </g>
     </g>
    </g>
    <g id="ytick_17">
     <g id="line2d_30">
      <g>
       <use xlink:href="#m1b3bb47197" x="54" y="174.146726" style="stroke: #000000; stroke-width: 0.6"/>
      </g>
     </g>
    </g>
    <g id="ytick_18">
     <g id="line2d_31">
      <g>
       <use xlink:href="#m1b3bb47197" x="54" y="169.663676" style="stroke: #000000; stroke-width: 0.6"/>
      </g>
     </g>
    </g>
    <g id="ytick_19">
     <g id="line2d_32">
      <g>
       <use xlink:href="#m1b3bb47197" x="54" y="166.000758" style="stroke: #000000; stroke-width: 0.6"/>
      </g>
     </g>
    </g>
    <g id="ytick_20">
     <g id="line2d_33">
      <g>
       <use xlink:href="#m1b3bb47197" x="54" y="162.903805" style="stroke: #000000; stroke-width: 0.6"/>
      </g>
     </g>
    </g>
    <g id="ytick_21">
     <g id="line2d_34">
      <g>
       <use xlink:href="#m1b3bb47197" x="54" y="160.221102" style="stroke: #000000; stroke-width: 0.6"/>
      </g>
     </g>
    </g>
    <g id="ytick_22">
     <g id="line2d_35">
      <g>
       <use xlink:href="#m1b3bb47197" x="54" y="157.85479" style="stroke: #000000; stroke-width: 0.6"/>
      </g>
     </g>
    </g>
    <g id="ytick_23">
     <g id="line2d_36">
      <g>
       <use xlink:href="#m1b3bb47197" x="54" y="141.812429" style="stroke: #000000; stroke-width: 0.6"/>
      </g>
     </g>
    </g>
    <g id="ytick_24">
     <g id="line2d_37">
      <g>
       <use xlink:href="#m1b3bb47197" x="54" y="133.666461" style="stroke: #000000; stroke-width: 0.6"/>
      </g>
     </g>
    </g>
    <g id="ytick_25">
     <g id="line2d_38">
      <g>
       <use xlink:href="#m1b3bb47197" x="54" y="127.886805" style="stroke: #000000; stroke-width: 0.6"/>
      </g>
     </g>
    </g>
    <g id="ytick_26">
     <g id="line2d_39">
      <g>
       <use xlink:href="#m1b3bb47197" x="54" y="123.403756" style="stroke: #000000; stroke-width: 0.6"/>
      </g>
     </g>
    </g>
    <g id="ytick_27">
     <g id="line2d_40">
      <g>
       <use xlink:href="#m1b3bb47197" x="54" y="119.740838" style="stroke: #000000; stroke-width: 0.6"/>
      </g>
     </g>
    </g>
    <g id="ytick_28">
     <g id="line2d_41">
      <g>
       <use xlink:href="#m1b3bb47197" x="54" y="116.643884" style="stroke: #000000; stroke-width: 0.6"/>
      </g>
     </g>
    </g>
    <g id="ytick_29">
     <g id="line2d_42">
      <g>
       <use xlink:href="#m1b3bb47197" x="54" y="113.961181" style="stroke: #000000; stroke-width: 0.6"/>
      </g>
     </g>
    </g>
    <g id="ytick_30">
     <g id="line2d_43">
      <g>
       <use xlink:href="#m1b3bb47197" x="54" y="111.59487" style="stroke: #000000; stroke-width: 0.6"/>
      </g>
     </g>
    </g>
    <g id="ytick_31">
     <g id="line2d_44">
      <g>
       <use xlink:href="#m1b3bb47197" x="54" y="95.552508" style="stroke: #000000; stroke-width: 0.6"/>
      </g>
     </g>
    </g>
    <g id="ytick_32">
     <g id="line2d_45">
      <g>
       <use xlink:href="#m1b3bb47197" x="54" y="87.406541" style="stroke: #000000; stroke-width: 0.6"/>
      </g>
     </g>
    </g>
    <g id="ytick_33">
     <g id="line2d_46">
      <g>
       <use xlink:href="#m1b3bb47197" x="54" y="81.626885" style="stroke: #000000; stroke-width: 0.6"/>
      </g>
     </g>
    </g>
    <g id="ytick_34">
     <g id="line2d_47">
      <g>
       <use xlink:href="#m1b3bb47197" x="54" y="77.143835" style="stroke: #000000; stroke-width: 0.6"/>
      </g>
     </g>
    </g>
    <g id="ytick_35">
     <g id="line2d_48">
      <g>
       <use xlink:href="#m1b3bb47197" x="54" y="73.480917" style="stroke: #000000; stroke-width: 0.6"/>
      </g>
     </g>
    </g>
    <g id="ytick_36">
     <g id="line2d_49">
      <g>
       <use xlink:href="#m1b3bb47197" x="54" y="70.383964" style="stroke: #000000; stroke-width: 0.6"/>
      </g>
     </g>
    </g>
    <g id="ytick_37">
     <g id="line2d_50">
      <g>
       <use xlink:href="#m1b3bb47197" x="54" y="67.701261" style="stroke: #000000; stroke-width: 0.6"/>
      </g>
     </g>
    </g>
    <g id="ytick_38">
     <g id="line2d_51">
      <g>
       <use xlink:href="#m1b3bb47197" x="54" y="65.334949" style="stroke: #000000; stroke-width: 0.6"/>
      </g>
     </g>
    </g>
    <g id="ytick_39">
     <g id="line2d_52">
      <g>
       <use xlink:href="#m1b3bb47197" x="54" y="49.292588" style="stroke: #000000; stroke-width: 0.6"/>
      </g>
     </g>
    </g>
    <g id="ytick_40">
     <g id="line2d_53">
      <g>
       <use xlink:href="#m1b3bb47197" x="54" y="41.14662" style="stroke: #000000; stroke-width: 0.6"/>
      </g>
     </g>
    </g>
    <g id="ytick_41">
     <g id="line2d_54">
      <g>
       <use xlink:href="#m1b3bb47197" x="54" y="35.366964" style="stroke: #000000; stroke-width: 0.6"/>
      </g>
     </g>
    </g>
    <g id="text_20">
     <!-- Median NEPS -->
     <g transform="translate(18.820312 176.144844)rotate(-90)scale(0.1 -0.1)">
      <defs>
       <path id="DejaVuSans-4d" d="M 628 4666 
L 1569 4666 
L 2759 1491 
L 3956 4666 
L 4897 4666 
L 4897 0 
L 4281 0 
L 4281 4097 
L 3078 897 
L 2444 897 
L 1241 4097 
L 1241 0 
L 628 0 
L 628 4666 
z
" transform="scale(0.015625)"/>
       <path id="DejaVuSans-64" d="M 2906 2969 
L 2906 4863 
L 3481 4863 
L 3481 0 
L 2906 0 
L 2906 525 
Q 2725 213 2448 61 
Q 2172 -91 1784 -91 
Q 1150 -91 751 415 
Q 353 922 353 1747 
Q 353 2572 751 3078 
Q 1150 3584 1784 3584 
Q 2172 3584 2448 3432 
Q 2725 3281 2906 2969 
z
M 947 1747 
Q 947 1113 1208 752 
Q 1469 391 1925 391 
Q 2381 391 2643 752 
Q 2906 1113 2906 1747 
Q 2906 2381 2643 2742 
Q 2381 3103 1925 3103 
Q 1469 3103 1208 2742 
Q 947 2381 947 1747 
z
" transform="scale(0.015625)"/>
       <path id="DejaVuSans-6e" d="M 3513 2113 
L 3513 0 
L 2938 0 
L 2938 2094 
Q 2938 2591 2744 2837 
Q 2550 3084 2163 3084 
Q 1697 3084 1428 2787 
Q 1159 2491 1159 1978 
L 1159 0 
L 581 0 
L 581 3500 
L 1159 3500 
L 1159 2956 
Q 1366 3272 1645 3428 
Q 1925 3584 2291 3584 
Q 2894 3584 3203 3211 
Q 3513 2838 3513 2113 
z
" transform="scale(0.015625)"/>
       <path id="DejaVuSans-4e" d="M 628 4666 
L 1478 4666 
L 3547 763 
L 3547 4666 
L 4159 4666 
L 4159 0 
L 3309 0 
L 1241 3903 
L 1241 0 
L 628 0 
L 628 4666 
z
" transform="scale(0.015625)"/>
       <path id="DejaVuSans-45" d="M 628 4666 
L 3578 4666 
L 3578 4134 
L 1259 4134 
L 1259 2753 
L 3481 2753 
L 3481 2222 
L 1259 2222 
L 1259 531 
L 3634 531 
L 3634 0 
L 628 0 
L 628 4666 
z
" transform="scale(0.015625)"/>
       <path id="DejaVuSans-53" d="M 3425 4513 
L 3425 3897 
Q 3066 4069 2747 4153 
Q 2428 4238 2131 4238 
Q 1616 4238 1336 4038 
Q 1056 3838 1056 3469 
Q 1056 3159 1242 3001 
Q 1428 2844 1947 2747 
L 2328 2669 
Q 3034 2534 3370 2195 
Q 3706 1856 3706 1288 
Q 3706 609 3251 259 
Q 2797 -91 1919 -91 
Q 1588 -91 1214 -16 
Q 841 59 441 206 
L 441 856 
Q 825 641 1194 531 
Q 1563 422 1919 422 
Q 2459 422 2753 634 
Q 3047 847 3047 1241 
Q 3047 1584 2836 1778 
Q 2625 1972 2144 2069 
L 1759 2144 
Q 1053 2284 737 2584 
Q 422 2884 422 3419 
Q 422 4038 858 4394 
Q 1294 4750 2059 4750 
Q 2388 4750 2728 4690 
Q 3069 4631 3425 4513 
z
" transform="scale(0.015625)"/>
      </defs>
      <use xlink:href="#DejaVuSans-4d"/>
      <use xlink:href="#DejaVuSans-65" x="86.279297"/>
      <use xlink:href="#DejaVuSans-64" x="147.802734"/>
      <use xlink:href="#DejaVuSans-69" x="211.279297"/>
      <use xlink:href="#DejaVuSans-61" x="239.0625"/>
      <use xlink:href="#DejaVuSans-6e" x="300.341797"/>
      <use xlink:href="#DejaVuSans-20" x="363.720703"/>
      <use xlink:href="#DejaVuSans-4e" x="395.507812"/>
      <use xlink:href="#DejaVuSans-45" x="470.3125"/>
      <use xlink:href="#DejaVuSans-50" x="533.496094"/>
      <use xlink:href="#DejaVuSans-53" x="593.798828"/>
     </g>
    </g>
   </g>
   <g id="line2d_55">
    <path d="M 69.218182 242.074489 
L 74.127273 234.342451 
L 79.036364 224.756407 
L 83.945455 220.756072 
L 88.854545 216.846858 
L 93.763636 216.835146 
L 98.672727 210.343249 
L 103.581818 212.101373 
L 108.490909 210.719266 
L 113.4 206.861191 
L 118.309091 210.417937 
L 123.218182 203.47948 
L 128.127273 206.19541 
L 133.036364 200.728247 
L 137.945455 204.897446 
L 142.854545 203.563477 
L 147.763636 204.343442 
L 152.672727 205.324026 
L 157.581818 204.423326 
L 162.490909 204.971086 
L 167.4 203.975175 
L 172.309091 206.109139 
L 177.218182 203.005232 
L 182.127273 204.474029 
L 187.036364 200.836794 
L 191.945455 197.098311 
L 196.854545 201.795876 
L 201.763636 203.733461 
L 206.672727 195.427153 
L 211.581818 200.871017 
L 216.490909 200.751048 
L 221.4 198.76627 
L 226.309091 199.04581 
L 231.218182 200.864521 
L 236.127273 201.280096 
L 241.036364 198.10124 
L 245.945455 202.225964 
L 250.854545 200.233197 
L 255.763636 191.600491 
L 260.672727 198.840624 
L 265.581818 199.291269 
L 270.490909 198.56416 
L 275.4 194.436789 
L 280.309091 202.823609 
L 285.218182 197.541212 
L 290.127273 200.735544 
L 295.036364 196.588101 
L 299.945455 199.152094 
L 304.854545 200.927748 
L 309.763636 195.952596 
L 314.672727 195.471845 
L 319.581818 198.812126 
L 324.490909 200.476927 
L 329.4 195.912475 
L 334.309091 194.512504 
L 339.218182 195.457708 
L 344.127273 193.58365 
L 349.036364 193.082366 
L 353.945455 192.889577 
L 358.854545 195.072811 
L 363.763636 195.534 
L 368.672727 195.18567 
L 373.581818 193.194439 
" clip-path="url(#pb5d6e6efed)" style="fill: none; stroke: #1f77b4; stroke-width: 1.5; stroke-linecap: square"/>
   </g>
   <g id="line2d_56">
    <path d="M 69.218182 174.471047 
L 74.127273 166.203772 
L 79.036364 160.074114 
L 83.945455 155.467994 
L 88.854545 154.800674 
L 93.763636 151.0115 
L 98.672727 144.36892 
L 103.581818 145.504714 
L 108.490909 141.222626 
L 113.4 141.506744 
L 118.309091 143.285187 
L 123.218182 136.64287 
L 128.127273 144.97677 
L 133.036364 134.341933 
L 137.945455 137.052493 
L 142.854545 135.181716 
L 147.763636 138.431299 
L 152.672727 143.320593 
L 157.581818 133.723473 
L 162.490909 136.067834 
L 167.4 136.048242 
L 172.309091 137.527797 
L 177.218182 132.465065 
L 182.127273 135.464004 
L 187.036364 135.289175 
L 191.945455 125.738796 
L 196.854545 132.40208 
L 201.763636 132.141682 
L 206.672727 125.428392 
L 211.581818 136.484893 
L 216.490909 133.970749 
L 221.4 126.907179 
L 226.309091 131.412585 
L 231.218182 131.141833 
L 236.127273 132.402876 
L 241.036364 124.872339 
L 245.945455 135.850019 
L 250.854545 130.074531 
L 255.763636 120.351276 
L 260.672727 128.411595 
L 265.581818 127.257361 
L 270.490909 128.663727 
L 275.4 124.284768 
L 280.309091 130.913146 
L 285.218182 123.836076 
L 290.127273 137.94573 
L 295.036364 127.541041 
L 299.945455 126.452658 
L 304.854545 127.706857 
L 309.763636 124.591512 
L 314.672727 128.429519 
L 319.581818 131.170548 
L 324.490909 127.514948 
L 329.4 124.088423 
L 334.309091 125.433273 
L 339.218182 121.070895 
L 344.127273 129.049312 
L 349.036364 120.268713 
L 353.945455 121.203672 
L 358.854545 122.304039 
L 363.763636 123.74908 
L 368.672727 124.934127 
L 373.581818 118.93409 
" clip-path="url(#pb5d6e6efed)" style="fill: none; stroke: #ff7f0e; stroke-width: 1.5; stroke-linecap: square"/>
   </g>
   <g id="line2d_57">
    <path d="M 69.218182 175.986292 
L 74.127273 171.387278 
L 79.036364 162.043565 
L 83.945455 156.71245 
L 88.854545 156.067087 
L 93.763636 153.90319 
L 98.672727 146.994644 
L 103.581818 149.981177 
L 108.490909 144.055964 
L 113.4 144.632325 
L 118.309091 146.20116 
L 123.218182 140.544981 
L 128.127273 149.540639 
L 133.036364 138.257047 
L 137.945455 141.613328 
L 142.854545 140.87975 
L 147.763636 144.015507 
L 152.672727 147.851523 
L 157.581818 137.834905 
L 162.490909 140.381336 
L 167.4 139.855726 
L 172.309091 141.832626 
L 177.218182 134.866323 
L 182.127273 135.452238 
L 187.036364 141.405101 
L 191.945455 132.472799 
L 196.854545 136.946673 
L 201.763636 134.285678 
L 206.672727 124.994486 
L 211.581818 136.755076 
L 216.490909 133.946157 
L 221.4 126.980324 
L 226.309091 130.920334 
L 231.218182 128.873213 
L 236.127273 132.029136 
L 241.036364 125.43895 
L 245.945455 136.504857 
L 250.854545 131.148039 
L 255.763636 121.286811 
L 260.672727 129.505097 
L 265.581818 128.383781 
L 270.490909 128.657932 
L 275.4 124.855812 
L 280.309091 131.04428 
L 285.218182 123.876161 
L 290.127273 129.464411 
L 295.036364 125.197626 
L 299.945455 127.299438 
L 304.854545 128.360211 
L 309.763636 124.856561 
L 314.672727 125.0085 
L 319.581818 132.033785 
L 324.490909 128.420182 
L 329.4 124.560855 
L 334.309091 125.72177 
L 339.218182 120.998302 
L 344.127273 121.820119 
L 349.036364 121.1006 
L 353.945455 121.863048 
L 358.854545 123.414867 
L 363.763636 124.727518 
L 368.672727 122.674359 
L 373.581818 118.467775 
" clip-path="url(#pb5d6e6efed)" style="fill: none; stroke: #2ca02c; stroke-width: 1.5; stroke-linecap: square"/>
   </g>
   <g id="line2d_58">
    <path d="M 69.218182 122.937307 
L 74.127273 114.822031 
L 79.036364 105.594213 
L 83.945455 101.143562 
L 88.854545 99.235507 
L 93.763636 96.970233 
L 98.672727 88.568793 
L 103.581818 91.312831 
L 108.490909 86.957905 
L 113.4 86.958384 
L 118.309091 89.154385 
L 123.218182 82.75959 
L 128.127273 83.642608 
L 133.036364 81.411339 
L 137.945455 82.968393 
L 142.854545 82.416777 
L 147.763636 82.206272 
L 152.672727 87.436988 
L 157.581818 79.859092 
L 162.490909 81.760044 
L 167.4 83.019587 
L 172.309091 80.878729 
L 177.218182 81.811218 
L 182.127273 82.069324 
L 187.036364 78.831821 
L 191.945455 76.375152 
L 196.854545 77.538395 
L 201.763636 72.716093 
L 206.672727 75.469604 
L 211.581818 78.584325 
L 216.490909 74.340413 
L 221.4 69.229994 
L 226.309091 72.973395 
L 231.218182 78.802272 
L 236.127273 78.928956 
L 241.036364 75.477002 
L 245.945455 81.114117 
L 250.854545 73.506331 
L 255.763636 70.279195 
L 260.672727 74.988274 
L 265.581818 71.960882 
L 270.490909 76.078936 
L 275.4 70.413027 
L 280.309091 69.698104 
L 285.218182 74.282782 
L 290.127273 70.371185 
L 295.036364 67.596174 
L 299.945455 69.212532 
L 304.854545 72.350511 
L 309.763636 70.286672 
L 314.672727 69.422197 
L 319.581818 69.569385 
L 324.490909 64.967286 
L 329.4 69.818936 
L 334.309091 63.55616 
L 339.218182 65.84858 
L 344.127273 68.114441 
L 349.036364 67.301176 
L 353.945455 67.599667 
L 358.854545 65.329022 
L 363.763636 66.06843 
L 368.672727 64.736319 
L 373.581818 64.482055 
" clip-path="url(#pb5d6e6efed)" style="fill: none; stroke: #d62728; stroke-width: 1.5; stroke-linecap: square"/>
   </g>
   <g id="patch_3">
    <path d="M 54 252 
L 54 34.56 
" style="fill: none; stroke: #000000; stroke-width: 0.8; stroke-linejoin: miter; stroke-linecap: square"/>
   </g>
   <g id="patch_4">
    <path d="M 388.8 252 
L 388.8 34.56 
" style="fill: none; stroke: #000000; stroke-width: 0.8; stroke-linejoin: miter; stroke-linecap: square"/>
   </g>
   <g id="patch_5">
    <path d="M 54 252 
L 388.8 252 
" style="fill: none; stroke: #000000; stroke-width: 0.8; stroke-linejoin: miter; stroke-linecap: square"/>
   </g>
   <g id="patch_6">
    <path d="M 54 34.56 
L 388.8 34.56 
" style="fill: none; stroke: #000000; stroke-width: 0.8; stroke-linejoin: miter; stroke-linecap: square"/>
   </g>
   <g id="text_21">
    <!-- Median NEPS vs. Program Size (10000 f.c., nicolau_c) -->
    <g transform="translate(61.956563 28.56)scale(0.12 -0.12)">
     <defs>
      <path id="DejaVuSans-76" d="M 191 3500 
L 800 3500 
L 1894 563 
L 2988 3500 
L 3597 3500 
L 2284 0 
L 1503 0 
L 191 3500 
z
" transform="scale(0.015625)"/>
      <path id="DejaVuSans-2e" d="M 684 794 
L 1344 794 
L 1344 0 
L 684 0 
L 684 794 
z
" transform="scale(0.015625)"/>
      <path id="DejaVuSans-28" d="M 1984 4856 
Q 1566 4138 1362 3434 
Q 1159 2731 1159 2009 
Q 1159 1288 1364 580 
Q 1569 -128 1984 -844 
L 1484 -844 
Q 1016 -109 783 600 
Q 550 1309 550 2009 
Q 550 2706 781 3412 
Q 1013 4119 1484 4856 
L 1984 4856 
z
" transform="scale(0.015625)"/>
      <path id="DejaVuSans-66" d="M 2375 4863 
L 2375 4384 
L 1825 4384 
Q 1516 4384 1395 4259 
Q 1275 4134 1275 3809 
L 1275 3500 
L 2222 3500 
L 2222 3053 
L 1275 3053 
L 1275 0 
L 697 0 
L 697 3053 
L 147 3053 
L 147 3500 
L 697 3500 
L 697 3744 
Q 697 4328 969 4595 
Q 1241 4863 1831 4863 
L 2375 4863 
z
" transform="scale(0.015625)"/>
      <path id="DejaVuSans-63" d="M 3122 3366 
L 3122 2828 
Q 2878 2963 2633 3030 
Q 2388 3097 2138 3097 
Q 1578 3097 1268 2742 
Q 959 2388 959 1747 
Q 959 1106 1268 751 
Q 1578 397 2138 397 
Q 2388 397 2633 464 
Q 2878 531 3122 666 
L 3122 134 
Q 2881 22 2623 -34 
Q 2366 -91 2075 -91 
Q 1284 -91 818 406 
Q 353 903 353 1747 
Q 353 2603 823 3093 
Q 1294 3584 2113 3584 
Q 2378 3584 2631 3529 
Q 2884 3475 3122 3366 
z
" transform="scale(0.015625)"/>
      <path id="DejaVuSans-2c" d="M 750 794 
L 1409 794 
L 1409 256 
L 897 -744 
L 494 -744 
L 750 256 
L 750 794 
z
" transform="scale(0.015625)"/>
      <path id="DejaVuSans-6c" d="M 603 4863 
L 1178 4863 
L 1178 0 
L 603 0 
L 603 4863 
z
" transform="scale(0.015625)"/>
      <path id="DejaVuSans-75" d="M 544 1381 
L 544 3500 
L 1119 3500 
L 1119 1403 
Q 1119 906 1312 657 
Q 1506 409 1894 409 
Q 2359 409 2629 706 
Q 2900 1003 2900 1516 
L 2900 3500 
L 3475 3500 
L 3475 0 
L 2900 0 
L 2900 538 
Q 2691 219 2414 64 
Q 2138 -91 1772 -91 
Q 1169 -91 856 284 
Q 544 659 544 1381 
z
M 1991 3584 
L 1991 3584 
z
" transform="scale(0.015625)"/>
      <path id="DejaVuSans-5f" d="M 3263 -1063 
L 3263 -1509 
L -63 -1509 
L -63 -1063 
L 3263 -1063 
z
" transform="scale(0.015625)"/>
      <path id="DejaVuSans-29" d="M 513 4856 
L 1013 4856 
Q 1481 4119 1714 3412 
Q 1947 2706 1947 2009 
Q 1947 1309 1714 600 
Q 1481 -109 1013 -844 
L 513 -844 
Q 928 -128 1133 580 
Q 1338 1288 1338 2009 
Q 1338 2731 1133 3434 
Q 928 4138 513 4856 
z
" transform="scale(0.015625)"/>
     </defs>
     <use xlink:href="#DejaVuSans-4d"/>
     <use xlink:href="#DejaVuSans-65" x="86.279297"/>
     <use xlink:href="#DejaVuSans-64" x="147.802734"/>
     <use xlink:href="#DejaVuSans-69" x="211.279297"/>
     <use xlink:href="#DejaVuSans-61" x="239.0625"/>
     <use xlink:href="#DejaVuSans-6e" x="300.341797"/>
     <use xlink:href="#DejaVuSans-20" x="363.720703"/>
     <use xlink:href="#DejaVuSans-4e" x="395.507812"/>
     <use xlink:href="#DejaVuSans-45" x="470.3125"/>
     <use xlink:href="#DejaVuSans-50" x="533.496094"/>
     <use xlink:href="#DejaVuSans-53" x="593.798828"/>
     <use xlink:href="#DejaVuSans-20" x="657.275391"/>
     <use xlink:href="#DejaVuSans-76" x="689.0625"/>
     <use xlink:href="#DejaVuSans-73" x="748.242188"/>
     <use xlink:href="#DejaVuSans-2e" x="800.341797"/>
     <use xlink:href="#DejaVuSans-20" x="832.128906"/>
     <use xlink:href="#DejaVuSans-50" x="863.916016"/>
     <use xlink:href="#DejaVuSans-72" x="922.46875"/>
     <use xlink:href="#DejaVuSans-6f" x="961.332031"/>
     <use xlink:href="#DejaVuSans-67" x="1022.513672"/>
     <use xlink:href="#DejaVuSans-72" x="1085.990234"/>
     <use xlink:href="#DejaVuSans-61" x="1127.103516"/>
     <use xlink:href="#DejaVuSans-6d" x="1188.382812"/>
     <use xlink:href="#DejaVuSans-20" x="1285.794922"/>
     <use xlink:href="#DejaVuSans-53" x="1317.582031"/>
     <use xlink:href="#DejaVuSans-69" x="1381.058594"/>
     <use xlink:href="#DejaVuSans-7a" x="1408.841797"/>
     <use xlink:href="#DejaVuSans-65" x="1461.332031"/>
     <use xlink:href="#DejaVuSans-20" x="1522.855469"/>
     <use xlink:href="#DejaVuSans-28" x="1554.642578"/>
     <use xlink:href="#DejaVuSans-31" x="1593.65625"/>
     <use xlink:href="#DejaVuSans-30" x="1657.279297"/>
     <use xlink:href="#DejaVuSans-30" x="1720.902344"/>
     <use xlink:href="#DejaVuSans-30" x="1784.525391"/>
     <use xlink:href="#DejaVuSans-30" x="1848.148438"/>
     <use xlink:href="#DejaVuSans-20" x="1911.771484"/>
     <use xlink:href="#DejaVuSans-66" x="1943.558594"/>
     <use xlink:href="#DejaVuSans-2e" x="1971.513672"/>
     <use xlink:href="#DejaVuSans-63" x="2003.300781"/>
     <use xlink:href="#DejaVuSans-2e" x="2058.28125"/>
     <use xlink:href="#DejaVuSans-2c" x="2090.068359"/>
     <use xlink:href="#DejaVuSans-20" x="2121.855469"/>
     <use xlink:href="#DejaVuSans-6e" x="2153.642578"/>
     <use xlink:href="#DejaVuSans-69" x="2217.021484"/>
     <use xlink:href="#DejaVuSans-63" x="2244.804688"/>
     <use xlink:href="#DejaVuSans-6f" x="2299.785156"/>
     <use xlink:href="#DejaVuSans-6c" x="2360.966797"/>
     <use xlink:href="#DejaVuSans-61" x="2388.75"/>
     <use xlink:href="#DejaVuSans-75" x="2450.029297"/>
     <use xlink:href="#DejaVuSans-5f" x="2513.408203"/>
     <use xlink:href="#DejaVuSans-63" x="2563.408203"/>
     <use xlink:href="#DejaVuSans-29" x="2618.388672"/>
    </g>
   </g>
   <g id="legend_1">
    <g id="patch_7">
     <path d="M 61 101.2725 
L 171.19375 101.2725 
Q 173.19375 101.2725 173.19375 99.2725 
L 173.19375 41.56 
Q 173.19375 39.56 171.19375 39.56 
L 61 39.56 
Q 59 39.56 59 41.56 
L 59 99.2725 
Q 59 101.2725 61 101.2725 
z
" style="fill: #ffffff; opacity: 0.8; stroke: #cccccc; stroke-linejoin: miter"/>
    </g>
    <g id="line2d_59">
     <path d="M 63 47.658437 
L 73 47.658437 
L 83 47.658437 
" style="fill: none; stroke: #1f77b4; stroke-width: 1.5; stroke-linecap: square"/>
    </g>
    <g id="text_22">
     <!-- DEAP -->
     <g transform="translate(91 51.158437)scale(0.1 -0.1)">
      <defs>
       <path id="DejaVuSans-44" d="M 1259 4147 
L 1259 519 
L 2022 519 
Q 2988 519 3436 956 
Q 3884 1394 3884 2338 
Q 3884 3275 3436 3711 
Q 2988 4147 2022 4147 
L 1259 4147 
z
M 628 4666 
L 1925 4666 
Q 3281 4666 3915 4102 
Q 4550 3538 4550 2338 
Q 4550 1131 3912 565 
Q 3275 0 1925 0 
L 628 0 
L 628 4666 
z
" transform="scale(0.015625)"/>
       <path id="DejaVuSans-41" d="M 2188 4044 
L 1331 1722 
L 3047 1722 
L 2188 4044 
z
M 1831 4666 
L 2547 4666 
L 4325 0 
L 3669 0 
L 3244 1197 
L 1141 1197 
L 716 0 
L 50 0 
L 1831 4666 
z
" transform="scale(0.015625)"/>
      </defs>
      <use xlink:href="#DejaVuSans-44"/>
      <use xlink:href="#DejaVuSans-45" x="77.001953"/>
      <use xlink:href="#DejaVuSans-41" x="140.185547"/>
      <use xlink:href="#DejaVuSans-50" x="208.59375"/>
     </g>
    </g>
    <g id="line2d_60">
     <path d="M 63 62.336562 
L 73 62.336562 
L 83 62.336562 
" style="fill: none; stroke: #ff7f0e; stroke-width: 1.5; stroke-linecap: square"/>
    </g>
    <g id="text_23">
     <!-- TensorGP (CPU) -->
     <g transform="translate(91 65.836562)scale(0.1 -0.1)">
      <defs>
       <path id="DejaVuSans-54" d="M -19 4666 
L 3928 4666 
L 3928 4134 
L 2272 4134 
L 2272 0 
L 1638 0 
L 1638 4134 
L -19 4134 
L -19 4666 
z
" transform="scale(0.015625)"/>
       <path id="DejaVuSans-47" d="M 3809 666 
L 3809 1919 
L 2778 1919 
L 2778 2438 
L 4434 2438 
L 4434 434 
Q 4069 175 3628 42 
Q 3188 -91 2688 -91 
Q 1594 -91 976 548 
Q 359 1188 359 2328 
Q 359 3472 976 4111 
Q 1594 4750 2688 4750 
Q 3144 4750 3555 4637 
Q 3966 4525 4313 4306 
L 4313 3634 
Q 3963 3931 3569 4081 
Q 3175 4231 2741 4231 
Q 1884 4231 1454 3753 
Q 1025 3275 1025 2328 
Q 1025 1384 1454 906 
Q 1884 428 2741 428 
Q 3075 428 3337 486 
Q 3600 544 3809 666 
z
" transform="scale(0.015625)"/>
       <path id="DejaVuSans-43" d="M 4122 4306 
L 4122 3641 
Q 3803 3938 3442 4084 
Q 3081 4231 2675 4231 
Q 1875 4231 1450 3742 
Q 1025 3253 1025 2328 
Q 1025 1406 1450 917 
Q 1875 428 2675 428 
Q 3081 428 3442 575 
Q 3803 722 4122 1019 
L 4122 359 
Q 3791 134 3420 21 
Q 3050 -91 2638 -91 
Q 1578 -91 968 557 
Q 359 1206 359 2328 
Q 359 3453 968 4101 
Q 1578 4750 2638 4750 
Q 3056 4750 3426 4639 
Q 3797 4528 4122 4306 
z
" transform="scale(0.015625)"/>
       <path id="DejaVuSans-55" d="M 556 4666 
L 1191 4666 
L 1191 1831 
Q 1191 1081 1462 751 
Q 1734 422 2344 422 
Q 2950 422 3222 751 
Q 3494 1081 3494 1831 
L 3494 4666 
L 4128 4666 
L 4128 1753 
Q 4128 841 3676 375 
Q 3225 -91 2344 -91 
Q 1459 -91 1007 375 
Q 556 841 556 1753 
L 556 4666 
z
" transform="scale(0.015625)"/>
      </defs>
      <use xlink:href="#DejaVuSans-54"/>
      <use xlink:href="#DejaVuSans-65" x="44.083984"/>
      <use xlink:href="#DejaVuSans-6e" x="105.607422"/>
      <use xlink:href="#DejaVuSans-73" x="168.986328"/>
      <use xlink:href="#DejaVuSans-6f" x="221.085938"/>
      <use xlink:href="#DejaVuSans-72" x="282.267578"/>
      <use xlink:href="#DejaVuSans-47" x="323.380859"/>
      <use xlink:href="#DejaVuSans-50" x="400.871094"/>
      <use xlink:href="#DejaVuSans-20" x="461.173828"/>
      <use xlink:href="#DejaVuSans-28" x="492.960938"/>
      <use xlink:href="#DejaVuSans-43" x="531.974609"/>
      <use xlink:href="#DejaVuSans-50" x="601.798828"/>
      <use xlink:href="#DejaVuSans-55" x="662.101562"/>
      <use xlink:href="#DejaVuSans-29" x="735.294922"/>
     </g>
    </g>
    <g id="line2d_61">
     <path d="M 63 77.014687 
L 73 77.014687 
L 83 77.014687 
" style="fill: none; stroke: #2ca02c; stroke-width: 1.5; stroke-linecap: square"/>
    </g>
    <g id="text_24">
     <!-- TensorGP (GPU) -->
     <g transform="translate(91 80.514687)scale(0.1 -0.1)">
      <use xlink:href="#DejaVuSans-54"/>
      <use xlink:href="#DejaVuSans-65" x="44.083984"/>
      <use xlink:href="#DejaVuSans-6e" x="105.607422"/>
      <use xlink:href="#DejaVuSans-73" x="168.986328"/>
      <use xlink:href="#DejaVuSans-6f" x="221.085938"/>
      <use xlink:href="#DejaVuSans-72" x="282.267578"/>
      <use xlink:href="#DejaVuSans-47" x="323.380859"/>
      <use xlink:href="#DejaVuSans-50" x="400.871094"/>
      <use xlink:href="#DejaVuSans-20" x="461.173828"/>
      <use xlink:href="#DejaVuSans-28" x="492.960938"/>
      <use xlink:href="#DejaVuSans-47" x="531.974609"/>
      <use xlink:href="#DejaVuSans-50" x="609.464844"/>
      <use xlink:href="#DejaVuSans-55" x="669.767578"/>
      <use xlink:href="#DejaVuSans-29" x="742.960938"/>
     </g>
    </g>
    <g id="line2d_62">
     <path d="M 63 91.692813 
L 73 91.692813 
L 83 91.692813 
" style="fill: none; stroke: #d62728; stroke-width: 1.5; stroke-linecap: square"/>
    </g>
    <g id="text_25">
     <!-- Operon -->
     <g transform="translate(91 95.192813)scale(0.1 -0.1)">
      <defs>
       <path id="DejaVuSans-4f" d="M 2522 4238 
Q 1834 4238 1429 3725 
Q 1025 3213 1025 2328 
Q 1025 1447 1429 934 
Q 1834 422 2522 422 
Q 3209 422 3611 934 
Q 4013 1447 4013 2328 
Q 4013 3213 3611 3725 
Q 3209 4238 2522 4238 
z
M 2522 4750 
Q 3503 4750 4090 4092 
Q 4678 3434 4678 2328 
Q 4678 1225 4090 567 
Q 3503 -91 2522 -91 
Q 1538 -91 948 565 
Q 359 1222 359 2328 
Q 359 3434 948 4092 
Q 1538 4750 2522 4750 
z
" transform="scale(0.015625)"/>
       <path id="DejaVuSans-70" d="M 1159 525 
L 1159 -1331 
L 581 -1331 
L 581 3500 
L 1159 3500 
L 1159 2969 
Q 1341 3281 1617 3432 
Q 1894 3584 2278 3584 
Q 2916 3584 3314 3078 
Q 3713 2572 3713 1747 
Q 3713 922 3314 415 
Q 2916 -91 2278 -91 
Q 1894 -91 1617 61 
Q 1341 213 1159 525 
z
M 3116 1747 
Q 3116 2381 2855 2742 
Q 2594 3103 2138 3103 
Q 1681 3103 1420 2742 
Q 1159 2381 1159 1747 
Q 1159 1113 1420 752 
Q 1681 391 2138 391 
Q 2594 391 2855 752 
Q 3116 1113 3116 1747 
z
" transform="scale(0.015625)"/>
      </defs>
      <use xlink:href="#DejaVuSans-4f"/>
      <use xlink:href="#DejaVuSans-70" x="78.710938"/>
      <use xlink:href="#DejaVuSans-65" x="142.1875"/>
      <use xlink:href="#DejaVuSans-72" x="203.710938"/>
      <use xlink:href="#DejaVuSans-6f" x="242.574219"/>
      <use xlink:href="#DejaVuSans-6e" x="303.755859"/>
     </g>
    </g>
   </g>
  </g>
 </g>
 <defs>
  <clipPath id="pb5d6e6efed">
   <rect x="54" y="34.56" width="334.8" height="217.44"/>
  </clipPath>
 </defs>
</svg>
