<?xml version="1.0" encoding="utf-8" standalone="no"?>
<!DOCTYPE svg PUBLIC "-//W3C//DTD SVG 1.1//EN"
  "http://www.w3.org/Graphics/SVG/1.1/DTD/svg11.dtd">
<svg xmlns:xlink="http://www.w3.org/1999/xlink" width="432pt" height="288pt" viewBox="0 0 432 288" xmlns="http://www.w3.org/2000/svg" version="1.1">
 <metadata>
  <rdf:RDF xmlns:dc="http://purl.org/dc/elements/1.1/" xmlns:cc="http://creativecommons.org/ns#" xmlns:rdf="http://www.w3.org/1999/02/22-rdf-syntax-ns#">
   <cc:Work>
    <dc:type rdf:resource="http://purl.org/dc/dcmitype/StillImage"/>
    <dc:date>2022-01-12T03:40:13.765218</dc:date>
    <dc:format>image/svg+xml</dc:format>
    <dc:creator>
     <cc:Agent>
      <dc:title>Matplotlib v3.5.1, https://matplotlib.org/</dc:title>
     </cc:Agent>
    </dc:creator>
   </cc:Work>
  </rdf:RDF>
 </metadata>
 <defs>
  <style type="text/css">*{stroke-linejoin: round; stroke-linecap: butt}</style>
 </defs>
 <g id="figure_1">
  <g id="patch_1">
   <path d="M 0 288 
L 432 288 
L 432 0 
L 0 0 
L 0 288 
z
" style="fill: none"/>
  </g>
  <g id="axes_1">
   <g id="patch_2">
    <path d="M 54 252 
L 388.8 252 
L 388.8 34.56 
L 54 34.56 
z
" style="fill: #ffffff"/>
   </g>
   <g id="PolyCollection_1">
    <path d="M 69.218182 241.90972 
L 69.218182 242.116364 
L 74.127273 228.241064 
L 79.036364 220.067737 
L 83.945455 214.542743 
L 88.854545 210.396249 
L 93.763636 206.780207 
L 98.672727 203.63612 
L 103.581818 200.284272 
L 108.490909 198.473718 
L 113.4 196.417717 
L 118.309091 195.833755 
L 123.218182 192.497912 
L 128.127273 191.079781 
L 133.036364 205.645779 
L 137.945455 191.075428 
L 142.854545 187.294831 
L 147.763636 185.898603 
L 152.672727 185.483741 
L 157.581818 183.514882 
L 162.490909 182.714065 
L 167.4 181.687299 
L 172.309091 181.466867 
L 177.218182 179.746598 
L 182.127273 178.833521 
L 187.036364 177.060179 
L 191.945455 175.794209 
L 196.854545 176.182313 
L 201.763636 175.266288 
L 206.672727 173.836266 
L 211.581818 174.913398 
L 216.490909 174.80496 
L 221.4 172.70619 
L 226.309091 173.528158 
L 231.218182 173.018536 
L 236.127273 172.710636 
L 241.036364 172.058159 
L 245.945455 172.086009 
L 250.854545 170.354347 
L 255.763636 168.374201 
L 260.672727 168.792571 
L 265.581818 169.132191 
L 270.490909 168.252032 
L 275.4 167.152276 
L 280.309091 168.65582 
L 285.218182 166.40192 
L 290.127273 167.43578 
L 295.036364 165.969156 
L 299.945455 166.469507 
L 304.854545 166.355562 
L 309.763636 164.972754 
L 314.672727 164.438678 
L 319.581818 165.758701 
L 324.490909 165.201141 
L 329.4 163.971015 
L 334.309091 164.026713 
L 339.218182 162.974152 
L 344.127273 162.11313 
L 349.036364 162.016457 
L 353.945455 161.889017 
L 358.854545 161.965389 
L 363.763636 162.334471 
L 368.672727 161.463189 
L 373.581818 160.154131 
L 373.581818 159.917697 
L 373.581818 159.917697 
L 368.672727 161.40628 
L 363.763636 161.988898 
L 358.854545 161.875852 
L 353.945455 161.565125 
L 349.036364 161.845814 
L 344.127273 161.80783 
L 339.218182 162.548699 
L 334.309091 163.72407 
L 329.4 163.207989 
L 324.490909 164.993774 
L 319.581818 165.411631 
L 314.672727 163.996712 
L 309.763636 164.449334 
L 304.854545 166.024809 
L 299.945455 166.341862 
L 295.036364 165.863956 
L 290.127273 167.048653 
L 285.218182 166.332306 
L 280.309091 168.030732 
L 275.4 166.822112 
L 270.490909 168.085737 
L 265.581818 168.637306 
L 260.672727 168.55201 
L 255.763636 168.199935 
L 250.854545 169.928687 
L 245.945455 171.84857 
L 241.036364 171.375164 
L 236.127273 172.520964 
L 231.218182 172.698464 
L 226.309091 172.28752 
L 221.4 172.115854 
L 216.490909 174.64971 
L 211.581818 174.247692 
L 206.672727 173.638382 
L 201.763636 175.078843 
L 196.854545 175.906007 
L 191.945455 175.548909 
L 187.036364 176.789652 
L 182.127273 178.342115 
L 177.218182 179.208607 
L 172.309091 180.941495 
L 167.4 181.090325 
L 162.490909 182.121648 
L 157.581818 183.339697 
L 152.672727 185.156359 
L 147.763636 184.855641 
L 142.854545 186.885517 
L 137.945455 187.397376 
L 133.036364 192.816488 
L 128.127273 190.569607 
L 123.218182 192.13024 
L 118.309091 192.288458 
L 113.4 195.752246 
L 108.490909 198.351262 
L 103.581818 200.157394 
L 98.672727 203.090655 
L 93.763636 205.931328 
L 88.854545 209.953468 
L 83.945455 214.28823 
L 79.036364 219.841105 
L 74.127273 227.730358 
L 69.218182 241.90972 
z
" clip-path="url(#pc485bb5937)" style="fill: #1f77b4"/>
   </g>
   <g id="PolyCollection_2">
    <path d="M 69.218182 200.211136 
L 69.218182 200.709744 
L 74.127273 191.33887 
L 79.036364 184.6485 
L 83.945455 178.527249 
L 88.854545 177.974566 
L 93.763636 174.46159 
L 98.672727 169.27928 
L 103.581818 170.326948 
L 108.490909 164.116936 
L 113.4 164.958855 
L 118.309091 164.858413 
L 123.218182 160.020739 
L 128.127273 167.536686 
L 133.036364 157.36584 
L 137.945455 160.609083 
L 142.854545 158.482062 
L 147.763636 160.772503 
L 152.672727 165.836573 
L 157.581818 156.326425 
L 162.490909 158.975593 
L 167.4 158.758013 
L 172.309091 160.308518 
L 177.218182 154.368672 
L 182.127273 158.03095 
L 187.036364 158.470822 
L 191.945455 148.453007 
L 196.854545 155.635497 
L 201.763636 155.09893 
L 206.672727 148.384596 
L 211.581818 159.382817 
L 216.490909 157.040654 
L 221.4 149.697283 
L 226.309091 152.946104 
L 231.218182 150.579072 
L 236.127273 155.004065 
L 241.036364 149.230787 
L 245.945455 158.753897 
L 250.854545 153.185437 
L 255.763636 143.931236 
L 260.672727 151.314056 
L 265.581818 150.458029 
L 270.490909 150.901025 
L 275.4 146.893499 
L 280.309091 153.968144 
L 285.218182 146.011191 
L 290.127273 152.268436 
L 295.036364 147.879575 
L 299.945455 150.360581 
L 304.854545 150.55609 
L 309.763636 149.461564 
L 314.672727 148.515753 
L 319.581818 154.208422 
L 324.490909 150.404498 
L 329.4 145.511496 
L 334.309091 148.627914 
L 339.218182 142.892528 
L 344.127273 143.581043 
L 349.036364 143.870633 
L 353.945455 144.553898 
L 358.854545 145.95542 
L 363.763636 148.111288 
L 368.672727 145.969556 
L 373.581818 141.323071 
L 373.581818 140.808295 
L 373.581818 140.808295 
L 368.672727 145.176277 
L 363.763636 147.177438 
L 358.854545 145.419305 
L 353.945455 144.363932 
L 349.036364 143.516628 
L 344.127273 143.341429 
L 339.218182 141.807211 
L 334.309091 147.964606 
L 329.4 144.734447 
L 324.490909 150.149492 
L 319.581818 153.963348 
L 314.672727 147.843773 
L 309.763636 148.434397 
L 304.854545 149.661092 
L 299.945455 149.414759 
L 295.036364 147.020237 
L 290.127273 151.488697 
L 285.218182 145.393814 
L 280.309091 153.426854 
L 275.4 146.43584 
L 270.490909 149.986236 
L 265.581818 150.09522 
L 260.672727 151.049305 
L 255.763636 143.419766 
L 250.854545 152.469466 
L 245.945455 158.172721 
L 241.036364 147.199572 
L 236.127273 154.040033 
L 231.218182 149.658793 
L 226.309091 152.806194 
L 221.4 149.006322 
L 216.490909 156.324342 
L 211.581818 159.00287 
L 206.672727 147.44909 
L 201.763636 154.91607 
L 196.854545 155.13046 
L 191.945455 147.901579 
L 187.036364 157.929355 
L 182.127273 157.591575 
L 177.218182 154.270766 
L 172.309091 160.054352 
L 167.4 158.040574 
L 162.490909 158.740459 
L 157.581818 156.05635 
L 152.672727 165.483599 
L 147.763636 160.51612 
L 142.854545 157.905154 
L 137.945455 160.203479 
L 133.036364 156.907669 
L 128.127273 167.127917 
L 123.218182 159.022682 
L 118.309091 164.375796 
L 113.4 163.943941 
L 108.490909 163.771935 
L 103.581818 169.358819 
L 98.672727 168.093277 
L 93.763636 173.317707 
L 88.854545 177.326213 
L 83.945455 177.457749 
L 79.036364 183.543808 
L 74.127273 190.444733 
L 69.218182 200.211136 
z
" clip-path="url(#pc485bb5937)" style="fill: #ff7f0e"/>
   </g>
   <g id="PolyCollection_3">
    <path d="M 69.218182 197.86592 
L 69.218182 198.736026 
L 74.127273 191.104867 
L 79.036364 183.368841 
L 83.945455 177.898335 
L 88.854545 177.891491 
L 93.763636 174.507687 
L 98.672727 172.515208 
L 103.581818 171.331441 
L 108.490909 164.474201 
L 113.4 165.734549 
L 118.309091 166.064592 
L 123.218182 160.726642 
L 128.127273 168.199109 
L 133.036364 157.628141 
L 137.945455 160.958376 
L 142.854545 158.962785 
L 147.763636 161.365289 
L 152.672727 166.431545 
L 157.581818 156.4576 
L 162.490909 158.858955 
L 167.4 162.217737 
L 172.309091 160.65348 
L 177.218182 154.718888 
L 182.127273 158.273884 
L 187.036364 158.840846 
L 191.945455 148.066663 
L 196.854545 155.767655 
L 201.763636 158.79485 
L 206.672727 147.425485 
L 211.581818 160.147716 
L 216.490909 157.405995 
L 221.4 149.724283 
L 226.309091 154.005805 
L 231.218182 151.230772 
L 236.127273 155.829132 
L 241.036364 149.399178 
L 245.945455 159.861948 
L 250.854545 153.846066 
L 255.763636 144.418491 
L 260.672727 152.424924 
L 265.581818 151.412923 
L 270.490909 151.397226 
L 275.4 148.13484 
L 280.309091 155.157906 
L 285.218182 146.900378 
L 290.127273 153.233449 
L 295.036364 148.599289 
L 299.945455 151.432934 
L 304.854545 152.146049 
L 309.763636 148.377025 
L 314.672727 149.28114 
L 319.581818 155.192802 
L 324.490909 151.931904 
L 329.4 146.533925 
L 334.309091 149.618049 
L 339.218182 143.408159 
L 344.127273 144.344708 
L 349.036364 143.704819 
L 353.945455 144.743984 
L 358.854545 145.999701 
L 363.763636 147.636774 
L 368.672727 146.176157 
L 373.581818 141.398196 
L 373.581818 141.062875 
L 373.581818 141.062875 
L 368.672727 145.431359 
L 363.763636 147.349931 
L 358.854545 145.515814 
L 353.945455 143.661783 
L 349.036364 143.375955 
L 344.127273 143.898545 
L 339.218182 142.980297 
L 334.309091 149.310996 
L 329.4 146.087171 
L 324.490909 151.631018 
L 319.581818 155.132233 
L 314.672727 147.583173 
L 309.763636 148.265268 
L 304.854545 151.34325 
L 299.945455 150.698556 
L 295.036364 147.826908 
L 290.127273 152.988809 
L 285.218182 146.343972 
L 280.309091 154.560901 
L 275.4 148.00548 
L 270.490909 151.135483 
L 265.581818 150.83167 
L 260.672727 151.940305 
L 255.763636 144.171116 
L 250.854545 153.494289 
L 245.945455 159.560306 
L 241.036364 148.662298 
L 236.127273 155.077965 
L 231.218182 150.788216 
L 226.309091 153.813147 
L 221.4 149.647612 
L 216.490909 157.188856 
L 211.581818 159.981825 
L 206.672727 146.567094 
L 201.763636 152.684746 
L 196.854545 155.083481 
L 191.945455 147.689239 
L 187.036364 158.455801 
L 182.127273 158.210644 
L 177.218182 154.204762 
L 172.309091 160.449728 
L 167.4 155.613567 
L 162.490909 158.820257 
L 157.581818 155.435111 
L 152.672727 166.042734 
L 147.763636 161.088673 
L 142.854545 158.547093 
L 137.945455 160.517358 
L 133.036364 157.190014 
L 128.127273 167.713116 
L 123.218182 159.986276 
L 118.309091 165.391931 
L 113.4 164.706197 
L 108.490909 163.697117 
L 103.581818 169.057565 
L 98.672727 169.728839 
L 93.763636 173.82997 
L 88.854545 177.235248 
L 83.945455 177.261321 
L 79.036364 182.46073 
L 74.127273 190.317768 
L 69.218182 197.86592 
z
" clip-path="url(#pc485bb5937)" style="fill: #2ca02c"/>
   </g>
   <g id="PolyCollection_4">
    <path d="M 69.218182 131.615497 
L 69.218182 136.492912 
L 74.127273 128.029493 
L 79.036364 126.330694 
L 83.945455 48706.210062 
L 88.854545 101.965502 
L 93.763636 98.258978 
L 98.672727 94.349752 
L 103.581818 97.475706 
L 108.490909 83.333366 
L 113.4 48706.210062 
L 118.309091 86.357457 
L 123.218182 86.00327 
L 128.127273 83.71422 
L 133.036364 81.462956 
L 137.945455 81.755394 
L 142.854545 88.709244 
L 147.763636 75.606554 
L 152.672727 92.026136 
L 157.581818 71.907008 
L 162.490909 74.965895 
L 167.4 77.626417 
L 172.309091 81.364449 
L 177.218182 79.066065 
L 182.127273 75.177405 
L 187.036364 72.080732 
L 191.945455 67.502308 
L 196.854545 71.8484 
L 201.763636 67.64131 
L 206.672727 71.441603 
L 211.581818 65.349414 
L 216.490909 48706.210062 
L 221.4 65.727111 
L 226.309091 73.058973 
L 231.218182 68.121281 
L 236.127273 66.146422 
L 241.036364 68.920115 
L 245.945455 65.728945 
L 250.854545 64.935898 
L 255.763636 62.377466 
L 260.672727 64.254167 
L 265.581818 65.955324 
L 270.490909 63.118184 
L 275.4 61.115597 
L 280.309091 59.390268 
L 285.218182 61.159712 
L 290.127273 72.339828 
L 295.036364 87.1349 
L 299.945455 91.560816 
L 304.854545 59.098822 
L 309.763636 58.567707 
L 314.672727 57.351289 
L 319.581818 59.231132 
L 324.490909 56.613462 
L 329.4 59.918237 
L 334.309091 56.846579 
L 339.218182 59.296234 
L 344.127273 52.546204 
L 349.036364 55.428459 
L 353.945455 63.993283 
L 358.854545 53.953251 
L 363.763636 58.25772 
L 368.672727 54.624061 
L 373.581818 53.273673 
L 373.581818 51.107407 
L 373.581818 51.107407 
L 368.672727 50.764533 
L 363.763636 53.995151 
L 358.854545 51.527465 
L 353.945455 48.757275 
L 349.036364 53.609125 
L 344.127273 49.171742 
L 339.218182 50.491027 
L 334.309091 52.168089 
L 329.4 54.427429 
L 324.490909 49.616724 
L 319.581818 56.224597 
L 314.672727 50.1076 
L 309.763636 56.315622 
L 304.854545 55.261219 
L 299.945455 45.092931 
L 295.036364 44.752941 
L 290.127273 50.645467 
L 285.218182 59.99981 
L 280.309091 56.387261 
L 275.4 57.639085 
L 270.490909 61.73792 
L 265.581818 55.972771 
L 260.672727 58.616967 
L 255.763636 58.753293 
L 250.854545 61.426071 
L 245.945455 61.54427 
L 241.036364 62.191047 
L 236.127273 61.784489 
L 231.218182 62.337743 
L 226.309091 54.912176 
L 221.4 63.122974 
L 216.490909 51.223085 
L 211.581818 58.670476 
L 206.672727 65.762517 
L 201.763636 64.234193 
L 196.854545 66.073101 
L 191.945455 65.280589 
L 187.036364 69.960386 
L 182.127273 67.521857 
L 177.218182 66.501386 
L 172.309091 72.554364 
L 167.4 69.770096 
L 162.490909 73.355713 
L 157.581818 68.614951 
L 152.672727 72.22101 
L 147.763636 57.774483 
L 142.854545 65.525143 
L 137.945455 78.604903 
L 133.036364 78.301189 
L 128.127273 78.128144 
L 123.218182 80.613579 
L 118.309091 82.622192 
L 113.4 44.443636 
L 108.490909 82.163587 
L 103.581818 93.460553 
L 98.672727 92.1723 
L 93.763636 92.6762 
L 88.854545 92.403134 
L 83.945455 80.327956 
L 79.036364 101.647983 
L 74.127273 114.885179 
L 69.218182 131.615497 
z
" clip-path="url(#pc485bb5937)" style="fill: #d62728"/>
   </g>
   <g id="matplotlib.axis_1">
    <g id="xtick_1">
     <g id="line2d_1">
      <defs>
       <path id="m9e02fd77a2" d="M 0 0 
L 0 3.5 
" style="stroke: #000000; stroke-width: 0.8"/>
      </defs>
      <g>
       <use xlink:href="#m9e02fd77a2" x="69.218182" y="252" style="stroke: #000000; stroke-width: 0.8"/>
      </g>
     </g>
     <g id="text_1">
      <!-- 1 -->
      <g transform="translate(66.036932 266.598437)scale(0.1 -0.1)">
       <defs>
        <path id="DejaVuSans-31" d="M 794 531 
L 1825 531 
L 1825 4091 
L 703 3866 
L 703 4441 
L 1819 4666 
L 2450 4666 
L 2450 531 
L 3481 531 
L 3481 0 
L 794 0 
L 794 531 
z
" transform="scale(0.015625)"/>
       </defs>
       <use xlink:href="#DejaVuSans-31"/>
      </g>
     </g>
    </g>
    <g id="xtick_2">
     <g id="line2d_2">
      <g>
       <use xlink:href="#m9e02fd77a2" x="93.763636" y="252" style="stroke: #000000; stroke-width: 0.8"/>
      </g>
     </g>
     <g id="text_2">
      <!-- 6 -->
      <g transform="translate(90.582386 266.598437)scale(0.1 -0.1)">
       <defs>
        <path id="DejaVuSans-36" d="M 2113 2584 
Q 1688 2584 1439 2293 
Q 1191 2003 1191 1497 
Q 1191 994 1439 701 
Q 1688 409 2113 409 
Q 2538 409 2786 701 
Q 3034 994 3034 1497 
Q 3034 2003 2786 2293 
Q 2538 2584 2113 2584 
z
M 3366 4563 
L 3366 3988 
Q 3128 4100 2886 4159 
Q 2644 4219 2406 4219 
Q 1781 4219 1451 3797 
Q 1122 3375 1075 2522 
Q 1259 2794 1537 2939 
Q 1816 3084 2150 3084 
Q 2853 3084 3261 2657 
Q 3669 2231 3669 1497 
Q 3669 778 3244 343 
Q 2819 -91 2113 -91 
Q 1303 -91 875 529 
Q 447 1150 447 2328 
Q 447 3434 972 4092 
Q 1497 4750 2381 4750 
Q 2619 4750 2861 4703 
Q 3103 4656 3366 4563 
z
" transform="scale(0.015625)"/>
       </defs>
       <use xlink:href="#DejaVuSans-36"/>
      </g>
     </g>
    </g>
    <g id="xtick_3">
     <g id="line2d_3">
      <g>
       <use xlink:href="#m9e02fd77a2" x="118.309091" y="252" style="stroke: #000000; stroke-width: 0.8"/>
      </g>
     </g>
     <g id="text_3">
      <!-- 11 -->
      <g transform="translate(111.946591 266.598437)scale(0.1 -0.1)">
       <use xlink:href="#DejaVuSans-31"/>
       <use xlink:href="#DejaVuSans-31" x="63.623047"/>
      </g>
     </g>
    </g>
    <g id="xtick_4">
     <g id="line2d_4">
      <g>
       <use xlink:href="#m9e02fd77a2" x="142.854545" y="252" style="stroke: #000000; stroke-width: 0.8"/>
      </g>
     </g>
     <g id="text_4">
      <!-- 16 -->
      <g transform="translate(136.492045 266.598437)scale(0.1 -0.1)">
       <use xlink:href="#DejaVuSans-31"/>
       <use xlink:href="#DejaVuSans-36" x="63.623047"/>
      </g>
     </g>
    </g>
    <g id="xtick_5">
     <g id="line2d_5">
      <g>
       <use xlink:href="#m9e02fd77a2" x="167.4" y="252" style="stroke: #000000; stroke-width: 0.8"/>
      </g>
     </g>
     <g id="text_5">
      <!-- 21 -->
      <g transform="translate(161.0375 266.598437)scale(0.1 -0.1)">
       <defs>
        <path id="DejaVuSans-32" d="M 1228 531 
L 3431 531 
L 3431 0 
L 469 0 
L 469 531 
Q 828 903 1448 1529 
Q 2069 2156 2228 2338 
Q 2531 2678 2651 2914 
Q 2772 3150 2772 3378 
Q 2772 3750 2511 3984 
Q 2250 4219 1831 4219 
Q 1534 4219 1204 4116 
Q 875 4013 500 3803 
L 500 4441 
Q 881 4594 1212 4672 
Q 1544 4750 1819 4750 
Q 2544 4750 2975 4387 
Q 3406 4025 3406 3419 
Q 3406 3131 3298 2873 
Q 3191 2616 2906 2266 
Q 2828 2175 2409 1742 
Q 1991 1309 1228 531 
z
" transform="scale(0.015625)"/>
       </defs>
       <use xlink:href="#DejaVuSans-32"/>
       <use xlink:href="#DejaVuSans-31" x="63.623047"/>
      </g>
     </g>
    </g>
    <g id="xtick_6">
     <g id="line2d_6">
      <g>
       <use xlink:href="#m9e02fd77a2" x="191.945455" y="252" style="stroke: #000000; stroke-width: 0.8"/>
      </g>
     </g>
     <g id="text_6">
      <!-- 26 -->
      <g transform="translate(185.582955 266.598437)scale(0.1 -0.1)">
       <use xlink:href="#DejaVuSans-32"/>
       <use xlink:href="#DejaVuSans-36" x="63.623047"/>
      </g>
     </g>
    </g>
    <g id="xtick_7">
     <g id="line2d_7">
      <g>
       <use xlink:href="#m9e02fd77a2" x="216.490909" y="252" style="stroke: #000000; stroke-width: 0.8"/>
      </g>
     </g>
     <g id="text_7">
      <!-- 31 -->
      <g transform="translate(210.128409 266.598437)scale(0.1 -0.1)">
       <defs>
        <path id="DejaVuSans-33" d="M 2597 2516 
Q 3050 2419 3304 2112 
Q 3559 1806 3559 1356 
Q 3559 666 3084 287 
Q 2609 -91 1734 -91 
Q 1441 -91 1130 -33 
Q 819 25 488 141 
L 488 750 
Q 750 597 1062 519 
Q 1375 441 1716 441 
Q 2309 441 2620 675 
Q 2931 909 2931 1356 
Q 2931 1769 2642 2001 
Q 2353 2234 1838 2234 
L 1294 2234 
L 1294 2753 
L 1863 2753 
Q 2328 2753 2575 2939 
Q 2822 3125 2822 3475 
Q 2822 3834 2567 4026 
Q 2313 4219 1838 4219 
Q 1578 4219 1281 4162 
Q 984 4106 628 3988 
L 628 4550 
Q 988 4650 1302 4700 
Q 1616 4750 1894 4750 
Q 2613 4750 3031 4423 
Q 3450 4097 3450 3541 
Q 3450 3153 3228 2886 
Q 3006 2619 2597 2516 
z
" transform="scale(0.015625)"/>
       </defs>
       <use xlink:href="#DejaVuSans-33"/>
       <use xlink:href="#DejaVuSans-31" x="63.623047"/>
      </g>
     </g>
    </g>
    <g id="xtick_8">
     <g id="line2d_8">
      <g>
       <use xlink:href="#m9e02fd77a2" x="241.036364" y="252" style="stroke: #000000; stroke-width: 0.8"/>
      </g>
     </g>
     <g id="text_8">
      <!-- 36 -->
      <g transform="translate(234.673864 266.598437)scale(0.1 -0.1)">
       <use xlink:href="#DejaVuSans-33"/>
       <use xlink:href="#DejaVuSans-36" x="63.623047"/>
      </g>
     </g>
    </g>
    <g id="xtick_9">
     <g id="line2d_9">
      <g>
       <use xlink:href="#m9e02fd77a2" x="265.581818" y="252" style="stroke: #000000; stroke-width: 0.8"/>
      </g>
     </g>
     <g id="text_9">
      <!-- 41 -->
      <g transform="translate(259.219318 266.598437)scale(0.1 -0.1)">
       <defs>
        <path id="DejaVuSans-34" d="M 2419 4116 
L 825 1625 
L 2419 1625 
L 2419 4116 
z
M 2253 4666 
L 3047 4666 
L 3047 1625 
L 3713 1625 
L 3713 1100 
L 3047 1100 
L 3047 0 
L 2419 0 
L 2419 1100 
L 313 1100 
L 313 1709 
L 2253 4666 
z
" transform="scale(0.015625)"/>
       </defs>
       <use xlink:href="#DejaVuSans-34"/>
       <use xlink:href="#DejaVuSans-31" x="63.623047"/>
      </g>
     </g>
    </g>
    <g id="xtick_10">
     <g id="line2d_10">
      <g>
       <use xlink:href="#m9e02fd77a2" x="290.127273" y="252" style="stroke: #000000; stroke-width: 0.8"/>
      </g>
     </g>
     <g id="text_10">
      <!-- 46 -->
      <g transform="translate(283.764773 266.598437)scale(0.1 -0.1)">
       <use xlink:href="#DejaVuSans-34"/>
       <use xlink:href="#DejaVuSans-36" x="63.623047"/>
      </g>
     </g>
    </g>
    <g id="xtick_11">
     <g id="line2d_11">
      <g>
       <use xlink:href="#m9e02fd77a2" x="314.672727" y="252" style="stroke: #000000; stroke-width: 0.8"/>
      </g>
     </g>
     <g id="text_11">
      <!-- 51 -->
      <g transform="translate(308.310227 266.598437)scale(0.1 -0.1)">
       <defs>
        <path id="DejaVuSans-35" d="M 691 4666 
L 3169 4666 
L 3169 4134 
L 1269 4134 
L 1269 2991 
Q 1406 3038 1543 3061 
Q 1681 3084 1819 3084 
Q 2600 3084 3056 2656 
Q 3513 2228 3513 1497 
Q 3513 744 3044 326 
Q 2575 -91 1722 -91 
Q 1428 -91 1123 -41 
Q 819 9 494 109 
L 494 744 
Q 775 591 1075 516 
Q 1375 441 1709 441 
Q 2250 441 2565 725 
Q 2881 1009 2881 1497 
Q 2881 1984 2565 2268 
Q 2250 2553 1709 2553 
Q 1456 2553 1204 2497 
Q 953 2441 691 2322 
L 691 4666 
z
" transform="scale(0.015625)"/>
       </defs>
       <use xlink:href="#DejaVuSans-35"/>
       <use xlink:href="#DejaVuSans-31" x="63.623047"/>
      </g>
     </g>
    </g>
    <g id="xtick_12">
     <g id="line2d_12">
      <g>
       <use xlink:href="#m9e02fd77a2" x="339.218182" y="252" style="stroke: #000000; stroke-width: 0.8"/>
      </g>
     </g>
     <g id="text_12">
      <!-- 56 -->
      <g transform="translate(332.855682 266.598437)scale(0.1 -0.1)">
       <use xlink:href="#DejaVuSans-35"/>
       <use xlink:href="#DejaVuSans-36" x="63.623047"/>
      </g>
     </g>
    </g>
    <g id="xtick_13">
     <g id="line2d_13">
      <g>
       <use xlink:href="#m9e02fd77a2" x="363.763636" y="252" style="stroke: #000000; stroke-width: 0.8"/>
      </g>
     </g>
     <g id="text_13">
      <!-- 61 -->
      <g transform="translate(357.401136 266.598437)scale(0.1 -0.1)">
       <use xlink:href="#DejaVuSans-36"/>
       <use xlink:href="#DejaVuSans-31" x="63.623047"/>
      </g>
     </g>
    </g>
    <g id="text_14">
     <!-- Program size -->
     <g transform="translate(189.022656 280.276563)scale(0.1 -0.1)">
      <defs>
       <path id="DejaVuSans-50" d="M 1259 4147 
L 1259 2394 
L 2053 2394 
Q 2494 2394 2734 2622 
Q 2975 2850 2975 3272 
Q 2975 3691 2734 3919 
Q 2494 4147 2053 4147 
L 1259 4147 
z
M 628 4666 
L 2053 4666 
Q 2838 4666 3239 4311 
Q 3641 3956 3641 3272 
Q 3641 2581 3239 2228 
Q 2838 1875 2053 1875 
L 1259 1875 
L 1259 0 
L 628 0 
L 628 4666 
z
" transform="scale(0.015625)"/>
       <path id="DejaVuSans-72" d="M 2631 2963 
Q 2534 3019 2420 3045 
Q 2306 3072 2169 3072 
Q 1681 3072 1420 2755 
Q 1159 2438 1159 1844 
L 1159 0 
L 581 0 
L 581 3500 
L 1159 3500 
L 1159 2956 
Q 1341 3275 1631 3429 
Q 1922 3584 2338 3584 
Q 2397 3584 2469 3576 
Q 2541 3569 2628 3553 
L 2631 2963 
z
" transform="scale(0.015625)"/>
       <path id="DejaVuSans-6f" d="M 1959 3097 
Q 1497 3097 1228 2736 
Q 959 2375 959 1747 
Q 959 1119 1226 758 
Q 1494 397 1959 397 
Q 2419 397 2687 759 
Q 2956 1122 2956 1747 
Q 2956 2369 2687 2733 
Q 2419 3097 1959 3097 
z
M 1959 3584 
Q 2709 3584 3137 3096 
Q 3566 2609 3566 1747 
Q 3566 888 3137 398 
Q 2709 -91 1959 -91 
Q 1206 -91 779 398 
Q 353 888 353 1747 
Q 353 2609 779 3096 
Q 1206 3584 1959 3584 
z
" transform="scale(0.015625)"/>
       <path id="DejaVuSans-67" d="M 2906 1791 
Q 2906 2416 2648 2759 
Q 2391 3103 1925 3103 
Q 1463 3103 1205 2759 
Q 947 2416 947 1791 
Q 947 1169 1205 825 
Q 1463 481 1925 481 
Q 2391 481 2648 825 
Q 2906 1169 2906 1791 
z
M 3481 434 
Q 3481 -459 3084 -895 
Q 2688 -1331 1869 -1331 
Q 1566 -1331 1297 -1286 
Q 1028 -1241 775 -1147 
L 775 -588 
Q 1028 -725 1275 -790 
Q 1522 -856 1778 -856 
Q 2344 -856 2625 -561 
Q 2906 -266 2906 331 
L 2906 616 
Q 2728 306 2450 153 
Q 2172 0 1784 0 
Q 1141 0 747 490 
Q 353 981 353 1791 
Q 353 2603 747 3093 
Q 1141 3584 1784 3584 
Q 2172 3584 2450 3431 
Q 2728 3278 2906 2969 
L 2906 3500 
L 3481 3500 
L 3481 434 
z
" transform="scale(0.015625)"/>
       <path id="DejaVuSans-61" d="M 2194 1759 
Q 1497 1759 1228 1600 
Q 959 1441 959 1056 
Q 959 750 1161 570 
Q 1363 391 1709 391 
Q 2188 391 2477 730 
Q 2766 1069 2766 1631 
L 2766 1759 
L 2194 1759 
z
M 3341 1997 
L 3341 0 
L 2766 0 
L 2766 531 
Q 2569 213 2275 61 
Q 1981 -91 1556 -91 
Q 1019 -91 701 211 
Q 384 513 384 1019 
Q 384 1609 779 1909 
Q 1175 2209 1959 2209 
L 2766 2209 
L 2766 2266 
Q 2766 2663 2505 2880 
Q 2244 3097 1772 3097 
Q 1472 3097 1187 3025 
Q 903 2953 641 2809 
L 641 3341 
Q 956 3463 1253 3523 
Q 1550 3584 1831 3584 
Q 2591 3584 2966 3190 
Q 3341 2797 3341 1997 
z
" transform="scale(0.015625)"/>
       <path id="DejaVuSans-6d" d="M 3328 2828 
Q 3544 3216 3844 3400 
Q 4144 3584 4550 3584 
Q 5097 3584 5394 3201 
Q 5691 2819 5691 2113 
L 5691 0 
L 5113 0 
L 5113 2094 
Q 5113 2597 4934 2840 
Q 4756 3084 4391 3084 
Q 3944 3084 3684 2787 
Q 3425 2491 3425 1978 
L 3425 0 
L 2847 0 
L 2847 2094 
Q 2847 2600 2669 2842 
Q 2491 3084 2119 3084 
Q 1678 3084 1418 2786 
Q 1159 2488 1159 1978 
L 1159 0 
L 581 0 
L 581 3500 
L 1159 3500 
L 1159 2956 
Q 1356 3278 1631 3431 
Q 1906 3584 2284 3584 
Q 2666 3584 2933 3390 
Q 3200 3197 3328 2828 
z
" transform="scale(0.015625)"/>
       <path id="DejaVuSans-20" transform="scale(0.015625)"/>
       <path id="DejaVuSans-73" d="M 2834 3397 
L 2834 2853 
Q 2591 2978 2328 3040 
Q 2066 3103 1784 3103 
Q 1356 3103 1142 2972 
Q 928 2841 928 2578 
Q 928 2378 1081 2264 
Q 1234 2150 1697 2047 
L 1894 2003 
Q 2506 1872 2764 1633 
Q 3022 1394 3022 966 
Q 3022 478 2636 193 
Q 2250 -91 1575 -91 
Q 1294 -91 989 -36 
Q 684 19 347 128 
L 347 722 
Q 666 556 975 473 
Q 1284 391 1588 391 
Q 1994 391 2212 530 
Q 2431 669 2431 922 
Q 2431 1156 2273 1281 
Q 2116 1406 1581 1522 
L 1381 1569 
Q 847 1681 609 1914 
Q 372 2147 372 2553 
Q 372 3047 722 3315 
Q 1072 3584 1716 3584 
Q 2034 3584 2315 3537 
Q 2597 3491 2834 3397 
z
" transform="scale(0.015625)"/>
       <path id="DejaVuSans-69" d="M 603 3500 
L 1178 3500 
L 1178 0 
L 603 0 
L 603 3500 
z
M 603 4863 
L 1178 4863 
L 1178 4134 
L 603 4134 
L 603 4863 
z
" transform="scale(0.015625)"/>
       <path id="DejaVuSans-7a" d="M 353 3500 
L 3084 3500 
L 3084 2975 
L 922 459 
L 3084 459 
L 3084 0 
L 275 0 
L 275 525 
L 2438 3041 
L 353 3041 
L 353 3500 
z
" transform="scale(0.015625)"/>
       <path id="DejaVuSans-65" d="M 3597 1894 
L 3597 1613 
L 953 1613 
Q 991 1019 1311 708 
Q 1631 397 2203 397 
Q 2534 397 2845 478 
Q 3156 559 3463 722 
L 3463 178 
Q 3153 47 2828 -22 
Q 2503 -91 2169 -91 
Q 1331 -91 842 396 
Q 353 884 353 1716 
Q 353 2575 817 3079 
Q 1281 3584 2069 3584 
Q 2775 3584 3186 3129 
Q 3597 2675 3597 1894 
z
M 3022 2063 
Q 3016 2534 2758 2815 
Q 2500 3097 2075 3097 
Q 1594 3097 1305 2825 
Q 1016 2553 972 2059 
L 3022 2063 
z
" transform="scale(0.015625)"/>
      </defs>
      <use xlink:href="#DejaVuSans-50"/>
      <use xlink:href="#DejaVuSans-72" x="58.552734"/>
      <use xlink:href="#DejaVuSans-6f" x="97.416016"/>
      <use xlink:href="#DejaVuSans-67" x="158.597656"/>
      <use xlink:href="#DejaVuSans-72" x="222.074219"/>
      <use xlink:href="#DejaVuSans-61" x="263.1875"/>
      <use xlink:href="#DejaVuSans-6d" x="324.466797"/>
      <use xlink:href="#DejaVuSans-20" x="421.878906"/>
      <use xlink:href="#DejaVuSans-73" x="453.666016"/>
      <use xlink:href="#DejaVuSans-69" x="505.765625"/>
      <use xlink:href="#DejaVuSans-7a" x="533.548828"/>
      <use xlink:href="#DejaVuSans-65" x="586.039062"/>
     </g>
    </g>
   </g>
   <g id="matplotlib.axis_2">
    <g id="ytick_1">
     <g id="line2d_14">
      <defs>
       <path id="m12f897a5e0" d="M 0 0 
L -3.5 0 
" style="stroke: #000000; stroke-width: 0.8"/>
      </defs>
      <g>
       <use xlink:href="#m12f897a5e0" x="54" y="231.404759" style="stroke: #000000; stroke-width: 0.8"/>
      </g>
     </g>
     <g id="text_15">
      <!-- $\mathdefault{10^{5}}$ -->
      <g transform="translate(29.4 235.203978)scale(0.1 -0.1)">
       <defs>
        <path id="DejaVuSans-30" d="M 2034 4250 
Q 1547 4250 1301 3770 
Q 1056 3291 1056 2328 
Q 1056 1369 1301 889 
Q 1547 409 2034 409 
Q 2525 409 2770 889 
Q 3016 1369 3016 2328 
Q 3016 3291 2770 3770 
Q 2525 4250 2034 4250 
z
M 2034 4750 
Q 2819 4750 3233 4129 
Q 3647 3509 3647 2328 
Q 3647 1150 3233 529 
Q 2819 -91 2034 -91 
Q 1250 -91 836 529 
Q 422 1150 422 2328 
Q 422 3509 836 4129 
Q 1250 4750 2034 4750 
z
" transform="scale(0.015625)"/>
       </defs>
       <use xlink:href="#DejaVuSans-31" transform="translate(0 0.684375)"/>
       <use xlink:href="#DejaVuSans-30" transform="translate(63.623047 0.684375)"/>
       <use xlink:href="#DejaVuSans-35" transform="translate(128.203125 38.965625)scale(0.7)"/>
      </g>
     </g>
    </g>
    <g id="ytick_2">
     <g id="line2d_15">
      <g>
       <use xlink:href="#m12f897a5e0" x="54" y="183.171122" style="stroke: #000000; stroke-width: 0.8"/>
      </g>
     </g>
     <g id="text_16">
      <!-- $\mathdefault{10^{6}}$ -->
      <g transform="translate(29.4 186.970341)scale(0.1 -0.1)">
       <use xlink:href="#DejaVuSans-31" transform="translate(0 0.765625)"/>
       <use xlink:href="#DejaVuSans-30" transform="translate(63.623047 0.765625)"/>
       <use xlink:href="#DejaVuSans-36" transform="translate(128.203125 39.046875)scale(0.7)"/>
      </g>
     </g>
    </g>
    <g id="ytick_3">
     <g id="line2d_16">
      <g>
       <use xlink:href="#m12f897a5e0" x="54" y="134.937485" style="stroke: #000000; stroke-width: 0.8"/>
      </g>
     </g>
     <g id="text_17">
      <!-- $\mathdefault{10^{7}}$ -->
      <g transform="translate(29.4 138.736704)scale(0.1 -0.1)">
       <defs>
        <path id="DejaVuSans-37" d="M 525 4666 
L 3525 4666 
L 3525 4397 
L 1831 0 
L 1172 0 
L 2766 4134 
L 525 4134 
L 525 4666 
z
" transform="scale(0.015625)"/>
       </defs>
       <use xlink:href="#DejaVuSans-31" transform="translate(0 0.684375)"/>
       <use xlink:href="#DejaVuSans-30" transform="translate(63.623047 0.684375)"/>
       <use xlink:href="#DejaVuSans-37" transform="translate(128.203125 38.965625)scale(0.7)"/>
      </g>
     </g>
    </g>
    <g id="ytick_4">
     <g id="line2d_17">
      <g>
       <use xlink:href="#m12f897a5e0" x="54" y="86.703848" style="stroke: #000000; stroke-width: 0.8"/>
      </g>
     </g>
     <g id="text_18">
      <!-- $\mathdefault{10^{8}}$ -->
      <g transform="translate(29.4 90.503067)scale(0.1 -0.1)">
       <defs>
        <path id="DejaVuSans-38" d="M 2034 2216 
Q 1584 2216 1326 1975 
Q 1069 1734 1069 1313 
Q 1069 891 1326 650 
Q 1584 409 2034 409 
Q 2484 409 2743 651 
Q 3003 894 3003 1313 
Q 3003 1734 2745 1975 
Q 2488 2216 2034 2216 
z
M 1403 2484 
Q 997 2584 770 2862 
Q 544 3141 544 3541 
Q 544 4100 942 4425 
Q 1341 4750 2034 4750 
Q 2731 4750 3128 4425 
Q 3525 4100 3525 3541 
Q 3525 3141 3298 2862 
Q 3072 2584 2669 2484 
Q 3125 2378 3379 2068 
Q 3634 1759 3634 1313 
Q 3634 634 3220 271 
Q 2806 -91 2034 -91 
Q 1263 -91 848 271 
Q 434 634 434 1313 
Q 434 1759 690 2068 
Q 947 2378 1403 2484 
z
M 1172 3481 
Q 1172 3119 1398 2916 
Q 1625 2713 2034 2713 
Q 2441 2713 2670 2916 
Q 2900 3119 2900 3481 
Q 2900 3844 2670 4047 
Q 2441 4250 2034 4250 
Q 1625 4250 1398 4047 
Q 1172 3844 1172 3481 
z
" transform="scale(0.015625)"/>
       </defs>
       <use xlink:href="#DejaVuSans-31" transform="translate(0 0.765625)"/>
       <use xlink:href="#DejaVuSans-30" transform="translate(63.623047 0.765625)"/>
       <use xlink:href="#DejaVuSans-38" transform="translate(128.203125 39.046875)scale(0.7)"/>
      </g>
     </g>
    </g>
    <g id="ytick_5">
     <g id="line2d_18">
      <g>
       <use xlink:href="#m12f897a5e0" x="54" y="38.470211" style="stroke: #000000; stroke-width: 0.8"/>
      </g>
     </g>
     <g id="text_19">
      <!-- $\mathdefault{10^{9}}$ -->
      <g transform="translate(29.4 42.26943)scale(0.1 -0.1)">
       <defs>
        <path id="DejaVuSans-39" d="M 703 97 
L 703 672 
Q 941 559 1184 500 
Q 1428 441 1663 441 
Q 2288 441 2617 861 
Q 2947 1281 2994 2138 
Q 2813 1869 2534 1725 
Q 2256 1581 1919 1581 
Q 1219 1581 811 2004 
Q 403 2428 403 3163 
Q 403 3881 828 4315 
Q 1253 4750 1959 4750 
Q 2769 4750 3195 4129 
Q 3622 3509 3622 2328 
Q 3622 1225 3098 567 
Q 2575 -91 1691 -91 
Q 1453 -91 1209 -44 
Q 966 3 703 97 
z
M 1959 2075 
Q 2384 2075 2632 2365 
Q 2881 2656 2881 3163 
Q 2881 3666 2632 3958 
Q 2384 4250 1959 4250 
Q 1534 4250 1286 3958 
Q 1038 3666 1038 3163 
Q 1038 2656 1286 2365 
Q 1534 2075 1959 2075 
z
" transform="scale(0.015625)"/>
       </defs>
       <use xlink:href="#DejaVuSans-31" transform="translate(0 0.765625)"/>
       <use xlink:href="#DejaVuSans-30" transform="translate(63.623047 0.765625)"/>
       <use xlink:href="#DejaVuSans-39" transform="translate(128.203125 39.046875)scale(0.7)"/>
      </g>
     </g>
    </g>
    <g id="ytick_6">
     <g id="line2d_19">
      <defs>
       <path id="mff88d3b280" d="M 0 0 
L -2 0 
" style="stroke: #000000; stroke-width: 0.6"/>
      </defs>
      <g>
       <use xlink:href="#mff88d3b280" x="54" y="250.598853" style="stroke: #000000; stroke-width: 0.6"/>
      </g>
     </g>
    </g>
    <g id="ytick_7">
     <g id="line2d_20">
      <g>
       <use xlink:href="#mff88d3b280" x="54" y="245.924531" style="stroke: #000000; stroke-width: 0.6"/>
      </g>
     </g>
    </g>
    <g id="ytick_8">
     <g id="line2d_21">
      <g>
       <use xlink:href="#mff88d3b280" x="54" y="242.105332" style="stroke: #000000; stroke-width: 0.6"/>
      </g>
     </g>
    </g>
    <g id="ytick_9">
     <g id="line2d_22">
      <g>
       <use xlink:href="#mff88d3b280" x="54" y="238.876244" style="stroke: #000000; stroke-width: 0.6"/>
      </g>
     </g>
    </g>
    <g id="ytick_10">
     <g id="line2d_23">
      <g>
       <use xlink:href="#mff88d3b280" x="54" y="236.079082" style="stroke: #000000; stroke-width: 0.6"/>
      </g>
     </g>
    </g>
    <g id="ytick_11">
     <g id="line2d_24">
      <g>
       <use xlink:href="#mff88d3b280" x="54" y="233.61181" style="stroke: #000000; stroke-width: 0.6"/>
      </g>
     </g>
    </g>
    <g id="ytick_12">
     <g id="line2d_25">
      <g>
       <use xlink:href="#mff88d3b280" x="54" y="216.884988" style="stroke: #000000; stroke-width: 0.6"/>
      </g>
     </g>
    </g>
    <g id="ytick_13">
     <g id="line2d_26">
      <g>
       <use xlink:href="#mff88d3b280" x="54" y="208.391466" style="stroke: #000000; stroke-width: 0.6"/>
      </g>
     </g>
    </g>
    <g id="ytick_14">
     <g id="line2d_27">
      <g>
       <use xlink:href="#mff88d3b280" x="54" y="202.365216" style="stroke: #000000; stroke-width: 0.6"/>
      </g>
     </g>
    </g>
    <g id="ytick_15">
     <g id="line2d_28">
      <g>
       <use xlink:href="#mff88d3b280" x="54" y="197.690894" style="stroke: #000000; stroke-width: 0.6"/>
      </g>
     </g>
    </g>
    <g id="ytick_16">
     <g id="line2d_29">
      <g>
       <use xlink:href="#mff88d3b280" x="54" y="193.871694" style="stroke: #000000; stroke-width: 0.6"/>
      </g>
     </g>
    </g>
    <g id="ytick_17">
     <g id="line2d_30">
      <g>
       <use xlink:href="#mff88d3b280" x="54" y="190.642607" style="stroke: #000000; stroke-width: 0.6"/>
      </g>
     </g>
    </g>
    <g id="ytick_18">
     <g id="line2d_31">
      <g>
       <use xlink:href="#mff88d3b280" x="54" y="187.845445" style="stroke: #000000; stroke-width: 0.6"/>
      </g>
     </g>
    </g>
    <g id="ytick_19">
     <g id="line2d_32">
      <g>
       <use xlink:href="#mff88d3b280" x="54" y="185.378172" style="stroke: #000000; stroke-width: 0.6"/>
      </g>
     </g>
    </g>
    <g id="ytick_20">
     <g id="line2d_33">
      <g>
       <use xlink:href="#mff88d3b280" x="54" y="168.651351" style="stroke: #000000; stroke-width: 0.6"/>
      </g>
     </g>
    </g>
    <g id="ytick_21">
     <g id="line2d_34">
      <g>
       <use xlink:href="#mff88d3b280" x="54" y="160.157829" style="stroke: #000000; stroke-width: 0.6"/>
      </g>
     </g>
    </g>
    <g id="ytick_22">
     <g id="line2d_35">
      <g>
       <use xlink:href="#mff88d3b280" x="54" y="154.131579" style="stroke: #000000; stroke-width: 0.6"/>
      </g>
     </g>
    </g>
    <g id="ytick_23">
     <g id="line2d_36">
      <g>
       <use xlink:href="#mff88d3b280" x="54" y="149.457257" style="stroke: #000000; stroke-width: 0.6"/>
      </g>
     </g>
    </g>
    <g id="ytick_24">
     <g id="line2d_37">
      <g>
       <use xlink:href="#mff88d3b280" x="54" y="145.638057" style="stroke: #000000; stroke-width: 0.6"/>
      </g>
     </g>
    </g>
    <g id="ytick_25">
     <g id="line2d_38">
      <g>
       <use xlink:href="#mff88d3b280" x="54" y="142.40897" style="stroke: #000000; stroke-width: 0.6"/>
      </g>
     </g>
    </g>
    <g id="ytick_26">
     <g id="line2d_39">
      <g>
       <use xlink:href="#mff88d3b280" x="54" y="139.611808" style="stroke: #000000; stroke-width: 0.6"/>
      </g>
     </g>
    </g>
    <g id="ytick_27">
     <g id="line2d_40">
      <g>
       <use xlink:href="#mff88d3b280" x="54" y="137.144535" style="stroke: #000000; stroke-width: 0.6"/>
      </g>
     </g>
    </g>
    <g id="ytick_28">
     <g id="line2d_41">
      <g>
       <use xlink:href="#mff88d3b280" x="54" y="120.417714" style="stroke: #000000; stroke-width: 0.6"/>
      </g>
     </g>
    </g>
    <g id="ytick_29">
     <g id="line2d_42">
      <g>
       <use xlink:href="#mff88d3b280" x="54" y="111.924192" style="stroke: #000000; stroke-width: 0.6"/>
      </g>
     </g>
    </g>
    <g id="ytick_30">
     <g id="line2d_43">
      <g>
       <use xlink:href="#mff88d3b280" x="54" y="105.897942" style="stroke: #000000; stroke-width: 0.6"/>
      </g>
     </g>
    </g>
    <g id="ytick_31">
     <g id="line2d_44">
      <g>
       <use xlink:href="#mff88d3b280" x="54" y="101.22362" style="stroke: #000000; stroke-width: 0.6"/>
      </g>
     </g>
    </g>
    <g id="ytick_32">
     <g id="line2d_45">
      <g>
       <use xlink:href="#mff88d3b280" x="54" y="97.40442" style="stroke: #000000; stroke-width: 0.6"/>
      </g>
     </g>
    </g>
    <g id="ytick_33">
     <g id="line2d_46">
      <g>
       <use xlink:href="#mff88d3b280" x="54" y="94.175333" style="stroke: #000000; stroke-width: 0.6"/>
      </g>
     </g>
    </g>
    <g id="ytick_34">
     <g id="line2d_47">
      <g>
       <use xlink:href="#mff88d3b280" x="54" y="91.37817" style="stroke: #000000; stroke-width: 0.6"/>
      </g>
     </g>
    </g>
    <g id="ytick_35">
     <g id="line2d_48">
      <g>
       <use xlink:href="#mff88d3b280" x="54" y="88.910898" style="stroke: #000000; stroke-width: 0.6"/>
      </g>
     </g>
    </g>
    <g id="ytick_36">
     <g id="line2d_49">
      <g>
       <use xlink:href="#mff88d3b280" x="54" y="72.184076" style="stroke: #000000; stroke-width: 0.6"/>
      </g>
     </g>
    </g>
    <g id="ytick_37">
     <g id="line2d_50">
      <g>
       <use xlink:href="#mff88d3b280" x="54" y="63.690555" style="stroke: #000000; stroke-width: 0.6"/>
      </g>
     </g>
    </g>
    <g id="ytick_38">
     <g id="line2d_51">
      <g>
       <use xlink:href="#mff88d3b280" x="54" y="57.664305" style="stroke: #000000; stroke-width: 0.6"/>
      </g>
     </g>
    </g>
    <g id="ytick_39">
     <g id="line2d_52">
      <g>
       <use xlink:href="#mff88d3b280" x="54" y="52.989983" style="stroke: #000000; stroke-width: 0.6"/>
      </g>
     </g>
    </g>
    <g id="ytick_40">
     <g id="line2d_53">
      <g>
       <use xlink:href="#mff88d3b280" x="54" y="49.170783" style="stroke: #000000; stroke-width: 0.6"/>
      </g>
     </g>
    </g>
    <g id="ytick_41">
     <g id="line2d_54">
      <g>
       <use xlink:href="#mff88d3b280" x="54" y="45.941696" style="stroke: #000000; stroke-width: 0.6"/>
      </g>
     </g>
    </g>
    <g id="ytick_42">
     <g id="line2d_55">
      <g>
       <use xlink:href="#mff88d3b280" x="54" y="43.144533" style="stroke: #000000; stroke-width: 0.6"/>
      </g>
     </g>
    </g>
    <g id="ytick_43">
     <g id="line2d_56">
      <g>
       <use xlink:href="#mff88d3b280" x="54" y="40.677261" style="stroke: #000000; stroke-width: 0.6"/>
      </g>
     </g>
    </g>
    <g id="text_20">
     <!-- Median NEPS -->
     <g transform="translate(23.320312 176.144844)rotate(-90)scale(0.1 -0.1)">
      <defs>
       <path id="DejaVuSans-4d" d="M 628 4666 
L 1569 4666 
L 2759 1491 
L 3956 4666 
L 4897 4666 
L 4897 0 
L 4281 0 
L 4281 4097 
L 3078 897 
L 2444 897 
L 1241 4097 
L 1241 0 
L 628 0 
L 628 4666 
z
" transform="scale(0.015625)"/>
       <path id="DejaVuSans-64" d="M 2906 2969 
L 2906 4863 
L 3481 4863 
L 3481 0 
L 2906 0 
L 2906 525 
Q 2725 213 2448 61 
Q 2172 -91 1784 -91 
Q 1150 -91 751 415 
Q 353 922 353 1747 
Q 353 2572 751 3078 
Q 1150 3584 1784 3584 
Q 2172 3584 2448 3432 
Q 2725 3281 2906 2969 
z
M 947 1747 
Q 947 1113 1208 752 
Q 1469 391 1925 391 
Q 2381 391 2643 752 
Q 2906 1113 2906 1747 
Q 2906 2381 2643 2742 
Q 2381 3103 1925 3103 
Q 1469 3103 1208 2742 
Q 947 2381 947 1747 
z
" transform="scale(0.015625)"/>
       <path id="DejaVuSans-6e" d="M 3513 2113 
L 3513 0 
L 2938 0 
L 2938 2094 
Q 2938 2591 2744 2837 
Q 2550 3084 2163 3084 
Q 1697 3084 1428 2787 
Q 1159 2491 1159 1978 
L 1159 0 
L 581 0 
L 581 3500 
L 1159 3500 
L 1159 2956 
Q 1366 3272 1645 3428 
Q 1925 3584 2291 3584 
Q 2894 3584 3203 3211 
Q 3513 2838 3513 2113 
z
" transform="scale(0.015625)"/>
       <path id="DejaVuSans-4e" d="M 628 4666 
L 1478 4666 
L 3547 763 
L 3547 4666 
L 4159 4666 
L 4159 0 
L 3309 0 
L 1241 3903 
L 1241 0 
L 628 0 
L 628 4666 
z
" transform="scale(0.015625)"/>
       <path id="DejaVuSans-45" d="M 628 4666 
L 3578 4666 
L 3578 4134 
L 1259 4134 
L 1259 2753 
L 3481 2753 
L 3481 2222 
L 1259 2222 
L 1259 531 
L 3634 531 
L 3634 0 
L 628 0 
L 628 4666 
z
" transform="scale(0.015625)"/>
       <path id="DejaVuSans-53" d="M 3425 4513 
L 3425 3897 
Q 3066 4069 2747 4153 
Q 2428 4238 2131 4238 
Q 1616 4238 1336 4038 
Q 1056 3838 1056 3469 
Q 1056 3159 1242 3001 
Q 1428 2844 1947 2747 
L 2328 2669 
Q 3034 2534 3370 2195 
Q 3706 1856 3706 1288 
Q 3706 609 3251 259 
Q 2797 -91 1919 -91 
Q 1588 -91 1214 -16 
Q 841 59 441 206 
L 441 856 
Q 825 641 1194 531 
Q 1563 422 1919 422 
Q 2459 422 2753 634 
Q 3047 847 3047 1241 
Q 3047 1584 2836 1778 
Q 2625 1972 2144 2069 
L 1759 2144 
Q 1053 2284 737 2584 
Q 422 2884 422 3419 
Q 422 4038 858 4394 
Q 1294 4750 2059 4750 
Q 2388 4750 2728 4690 
Q 3069 4631 3425 4513 
z
" transform="scale(0.015625)"/>
      </defs>
      <use xlink:href="#DejaVuSans-4d"/>
      <use xlink:href="#DejaVuSans-65" x="86.279297"/>
      <use xlink:href="#DejaVuSans-64" x="147.802734"/>
      <use xlink:href="#DejaVuSans-69" x="211.279297"/>
      <use xlink:href="#DejaVuSans-61" x="239.0625"/>
      <use xlink:href="#DejaVuSans-6e" x="300.341797"/>
      <use xlink:href="#DejaVuSans-20" x="363.720703"/>
      <use xlink:href="#DejaVuSans-4e" x="395.507812"/>
      <use xlink:href="#DejaVuSans-45" x="470.3125"/>
      <use xlink:href="#DejaVuSans-50" x="533.496094"/>
      <use xlink:href="#DejaVuSans-53" x="593.798828"/>
     </g>
    </g>
   </g>
   <g id="line2d_57">
    <path d="M 69.218182 242.012787 
L 74.127273 227.984155 
L 79.036364 219.954114 
L 83.945455 214.4151 
L 88.854545 210.173688 
L 93.763636 206.351468 
L 98.672727 203.361612 
L 103.581818 200.220737 
L 108.490909 198.412401 
L 113.4 196.082339 
L 118.309091 193.986193 
L 123.218182 192.313269 
L 128.127273 190.823141 
L 133.036364 198.263953 
L 137.945455 189.15578 
L 142.854545 187.089174 
L 147.763636 185.370631 
L 152.672727 185.319411 
L 157.581818 183.427107 
L 162.490909 182.415762 
L 167.4 181.386686 
L 172.309091 181.202534 
L 177.218182 179.475875 
L 182.127273 178.586377 
L 187.036364 176.924479 
L 191.945455 175.6712 
L 196.854545 176.043704 
L 201.763636 175.172356 
L 206.672727 173.73709 
L 211.581818 174.5779 
L 216.490909 174.727191 
L 221.4 172.408942 
L 226.309091 172.898656 
L 231.218182 172.857888 
L 236.127273 172.615585 
L 241.036364 171.713878 
L 245.945455 171.966953 
L 250.854545 170.140436 
L 255.763636 168.286887 
L 260.672727 168.671946 
L 265.581818 168.883287 
L 270.490909 168.16872 
L 275.4 166.986543 
L 280.309091 168.340944 
L 285.218182 166.367084 
L 290.127273 167.241322 
L 295.036364 165.91649 
L 299.945455 166.405587 
L 304.854545 166.189533 
L 309.763636 164.709409 
L 314.672727 164.216529 
L 319.581818 165.584447 
L 324.490909 165.097201 
L 329.4 163.586028 
L 334.309091 163.874845 
L 339.218182 162.760345 
L 344.127273 161.959924 
L 349.036364 161.930962 
L 353.945455 161.726445 
L 358.854545 161.920573 
L 363.763636 162.160972 
L 368.672727 161.434715 
L 373.581818 160.03558 
" clip-path="url(#pc485bb5937)" style="fill: none; stroke: #1f77b4; stroke-width: 1.5; stroke-linecap: square"/>
   </g>
   <g id="line2d_58">
    <path d="M 69.218182 200.458957 
L 74.127273 190.887031 
L 79.036364 184.088872 
L 83.945455 177.985674 
L 88.854545 177.647881 
L 93.763636 173.881842 
L 98.672727 168.677886 
L 103.581818 169.837291 
L 108.490909 163.943725 
L 113.4 164.445252 
L 118.309091 164.615714 
L 123.218182 159.515767 
L 128.127273 167.331304 
L 133.036364 157.135502 
L 137.945455 160.405299 
L 142.854545 158.191622 
L 147.763636 160.643919 
L 152.672727 165.659342 
L 157.581818 156.190952 
L 162.490909 158.857696 
L 167.4 158.396222 
L 172.309091 160.181049 
L 177.218182 154.319662 
L 182.127273 157.810111 
L 187.036364 158.198339 
L 191.945455 148.175479 
L 196.854545 155.381456 
L 201.763636 155.0073 
L 206.672727 147.911621 
L 211.581818 159.191982 
L 216.490909 156.679436 
L 221.4 149.348953 
L 226.309091 152.876032 
L 231.218182 150.113879 
L 236.127273 154.516504 
L 241.036364 148.19057 
L 245.945455 158.461294 
L 250.854545 152.824393 
L 255.763636 143.67394 
L 260.672727 151.181262 
L 265.581818 150.275839 
L 270.490909 150.438637 
L 275.4 146.66342 
L 280.309091 153.695751 
L 285.218182 145.700228 
L 290.127273 151.874938 
L 295.036364 147.4455 
L 299.945455 149.882332 
L 304.854545 150.103812 
L 309.763636 148.941685 
L 314.672727 148.177068 
L 319.581818 154.085527 
L 324.490909 150.276607 
L 329.4 145.119369 
L 334.309091 148.293635 
L 339.218182 142.342841 
L 344.127273 143.460894 
L 349.036364 143.692883 
L 353.945455 144.458699 
L 358.854545 145.685648 
L 363.763636 147.63916 
L 368.672727 145.569161 
L 373.581818 141.064102 
" clip-path="url(#pc485bb5937)" style="fill: none; stroke: #ff7f0e; stroke-width: 1.5; stroke-linecap: square"/>
   </g>
   <g id="line2d_59">
    <path d="M 69.218182 198.296456 
L 74.127273 190.707621 
L 79.036364 182.909865 
L 83.945455 177.577407 
L 88.854545 177.5608 
L 93.763636 174.166088 
L 98.672727 171.075729 
L 103.581818 170.163664 
L 108.490909 164.082056 
L 113.4 165.214063 
L 118.309091 165.725562 
L 123.218182 160.353189 
L 128.127273 167.954703 
L 133.036364 157.407932 
L 137.945455 160.736707 
L 142.854545 158.753908 
L 147.763636 161.226524 
L 152.672727 166.236238 
L 157.581818 155.940117 
L 162.490909 158.839597 
L 167.4 158.65646 
L 172.309091 160.551356 
L 177.218182 154.460248 
L 182.127273 158.24224 
L 187.036364 158.647439 
L 191.945455 147.877101 
L 196.854545 155.422775 
L 201.763636 155.517805 
L 206.672727 146.991893 
L 211.581818 160.064606 
L 216.490909 157.297144 
L 221.4 149.685912 
L 226.309091 153.909254 
L 231.218182 151.008325 
L 236.127273 155.450182 
L 241.036364 149.027498 
L 245.945455 159.710584 
L 250.854545 153.669439 
L 255.763636 144.294439 
L 260.672727 152.181213 
L 265.581818 151.120281 
L 270.490909 151.265945 
L 275.4 148.07006 
L 280.309091 154.857277 
L 285.218182 146.620328 
L 290.127273 153.110772 
L 295.036364 148.209539 
L 299.945455 151.062527 
L 304.854545 151.740804 
L 309.763636 148.321072 
L 314.672727 148.414957 
L 319.581818 155.162496 
L 324.490909 151.780921 
L 329.4 146.309357 
L 334.309091 149.46396 
L 339.218182 143.193135 
L 344.127273 144.120439 
L 349.036364 143.539742 
L 353.945455 144.195896 
L 358.854545 145.75636 
L 363.763636 147.492862 
L 368.672727 145.800448 
L 373.581818 141.229864 
" clip-path="url(#pc485bb5937)" style="fill: none; stroke: #2ca02c; stroke-width: 1.5; stroke-linecap: square"/>
   </g>
   <g id="line2d_60">
    <path d="M 69.218182 133.912568 
L 74.127273 120.442836 
L 79.036364 110.546553 
L 83.945455 103.857806 
L 88.854545 96.64335 
L 93.763636 95.282152 
L 98.672727 93.232746 
L 103.581818 95.372076 
L 108.490909 82.740312 
L 113.4 83.935394 
L 118.309091 84.406678 
L 123.218182 83.135558 
L 128.127273 80.735527 
L 133.036364 79.822475 
L 137.945455 80.120975 
L 142.854545 74.061236 
L 147.763636 64.847698 
L 152.672727 79.865264 
L 157.581818 70.196375 
L 162.490909 74.145337 
L 167.4 73.332085 
L 172.309091 76.499615 
L 177.218182 71.855458 
L 182.127273 71.001834 
L 187.036364 70.993743 
L 191.945455 66.362008 
L 196.854545 68.762345 
L 201.763636 65.868557 
L 206.672727 68.41019 
L 211.581818 61.744876 
L 216.490909 67.508065 
L 221.4 64.384601 
L 226.309091 62.079053 
L 231.218182 65.030541 
L 236.127273 63.852124 
L 241.036364 65.286534 
L 245.945455 63.532285 
L 250.854545 63.10756 
L 255.763636 60.487099 
L 260.672727 61.246508 
L 265.581818 60.374944 
L 270.490909 62.416686 
L 275.4 59.305303 
L 280.309091 57.834997 
L 285.218182 60.571734 
L 290.127273 58.801389 
L 295.036364 56.671307 
L 299.945455 57.449366 
L 304.854545 57.092262 
L 309.763636 57.411413 
L 314.672727 53.417883 
L 319.581818 57.673971 
L 324.490909 52.824317 
L 329.4 56.993439 
L 334.309091 54.376991 
L 339.218182 54.434345 
L 344.127273 50.791097 
L 349.036364 54.499047 
L 353.945455 55.01956 
L 358.854545 52.705264 
L 363.763636 56.0182 
L 368.672727 52.605534 
L 373.581818 52.16255 
" clip-path="url(#pc485bb5937)" style="fill: none; stroke: #d62728; stroke-width: 1.5; stroke-linecap: square"/>
   </g>
   <g id="patch_3">
    <path d="M 54 252 
L 54 34.56 
" style="fill: none; stroke: #000000; stroke-width: 0.8; stroke-linejoin: miter; stroke-linecap: square"/>
   </g>
   <g id="patch_4">
    <path d="M 388.8 252 
L 388.8 34.56 
" style="fill: none; stroke: #000000; stroke-width: 0.8; stroke-linejoin: miter; stroke-linecap: square"/>
   </g>
   <g id="patch_5">
    <path d="M 54 252 
L 388.8 252 
" style="fill: none; stroke: #000000; stroke-width: 0.8; stroke-linejoin: miter; stroke-linecap: square"/>
   </g>
   <g id="patch_6">
    <path d="M 54 34.56 
L 388.8 34.56 
" style="fill: none; stroke: #000000; stroke-width: 0.8; stroke-linejoin: miter; stroke-linecap: square"/>
   </g>
   <g id="text_21">
    <!-- Median NEPS vs. Program Size (100 f.c., nicolau_c) -->
    <g transform="translate(69.591563 28.56)scale(0.12 -0.12)">
     <defs>
      <path id="DejaVuSans-76" d="M 191 3500 
L 800 3500 
L 1894 563 
L 2988 3500 
L 3597 3500 
L 2284 0 
L 1503 0 
L 191 3500 
z
" transform="scale(0.015625)"/>
      <path id="DejaVuSans-2e" d="M 684 794 
L 1344 794 
L 1344 0 
L 684 0 
L 684 794 
z
" transform="scale(0.015625)"/>
      <path id="DejaVuSans-28" d="M 1984 4856 
Q 1566 4138 1362 3434 
Q 1159 2731 1159 2009 
Q 1159 1288 1364 580 
Q 1569 -128 1984 -844 
L 1484 -844 
Q 1016 -109 783 600 
Q 550 1309 550 2009 
Q 550 2706 781 3412 
Q 1013 4119 1484 4856 
L 1984 4856 
z
" transform="scale(0.015625)"/>
      <path id="DejaVuSans-66" d="M 2375 4863 
L 2375 4384 
L 1825 4384 
Q 1516 4384 1395 4259 
Q 1275 4134 1275 3809 
L 1275 3500 
L 2222 3500 
L 2222 3053 
L 1275 3053 
L 1275 0 
L 697 0 
L 697 3053 
L 147 3053 
L 147 3500 
L 697 3500 
L 697 3744 
Q 697 4328 969 4595 
Q 1241 4863 1831 4863 
L 2375 4863 
z
" transform="scale(0.015625)"/>
      <path id="DejaVuSans-63" d="M 3122 3366 
L 3122 2828 
Q 2878 2963 2633 3030 
Q 2388 3097 2138 3097 
Q 1578 3097 1268 2742 
Q 959 2388 959 1747 
Q 959 1106 1268 751 
Q 1578 397 2138 397 
Q 2388 397 2633 464 
Q 2878 531 3122 666 
L 3122 134 
Q 2881 22 2623 -34 
Q 2366 -91 2075 -91 
Q 1284 -91 818 406 
Q 353 903 353 1747 
Q 353 2603 823 3093 
Q 1294 3584 2113 3584 
Q 2378 3584 2631 3529 
Q 2884 3475 3122 3366 
z
" transform="scale(0.015625)"/>
      <path id="DejaVuSans-2c" d="M 750 794 
L 1409 794 
L 1409 256 
L 897 -744 
L 494 -744 
L 750 256 
L 750 794 
z
" transform="scale(0.015625)"/>
      <path id="DejaVuSans-6c" d="M 603 4863 
L 1178 4863 
L 1178 0 
L 603 0 
L 603 4863 
z
" transform="scale(0.015625)"/>
      <path id="DejaVuSans-75" d="M 544 1381 
L 544 3500 
L 1119 3500 
L 1119 1403 
Q 1119 906 1312 657 
Q 1506 409 1894 409 
Q 2359 409 2629 706 
Q 2900 1003 2900 1516 
L 2900 3500 
L 3475 3500 
L 3475 0 
L 2900 0 
L 2900 538 
Q 2691 219 2414 64 
Q 2138 -91 1772 -91 
Q 1169 -91 856 284 
Q 544 659 544 1381 
z
M 1991 3584 
L 1991 3584 
z
" transform="scale(0.015625)"/>
      <path id="DejaVuSans-5f" d="M 3263 -1063 
L 3263 -1509 
L -63 -1509 
L -63 -1063 
L 3263 -1063 
z
" transform="scale(0.015625)"/>
      <path id="DejaVuSans-29" d="M 513 4856 
L 1013 4856 
Q 1481 4119 1714 3412 
Q 1947 2706 1947 2009 
Q 1947 1309 1714 600 
Q 1481 -109 1013 -844 
L 513 -844 
Q 928 -128 1133 580 
Q 1338 1288 1338 2009 
Q 1338 2731 1133 3434 
Q 928 4138 513 4856 
z
" transform="scale(0.015625)"/>
     </defs>
     <use xlink:href="#DejaVuSans-4d"/>
     <use xlink:href="#DejaVuSans-65" x="86.279297"/>
     <use xlink:href="#DejaVuSans-64" x="147.802734"/>
     <use xlink:href="#DejaVuSans-69" x="211.279297"/>
     <use xlink:href="#DejaVuSans-61" x="239.0625"/>
     <use xlink:href="#DejaVuSans-6e" x="300.341797"/>
     <use xlink:href="#DejaVuSans-20" x="363.720703"/>
     <use xlink:href="#DejaVuSans-4e" x="395.507812"/>
     <use xlink:href="#DejaVuSans-45" x="470.3125"/>
     <use xlink:href="#DejaVuSans-50" x="533.496094"/>
     <use xlink:href="#DejaVuSans-53" x="593.798828"/>
     <use xlink:href="#DejaVuSans-20" x="657.275391"/>
     <use xlink:href="#DejaVuSans-76" x="689.0625"/>
     <use xlink:href="#DejaVuSans-73" x="748.242188"/>
     <use xlink:href="#DejaVuSans-2e" x="800.341797"/>
     <use xlink:href="#DejaVuSans-20" x="832.128906"/>
     <use xlink:href="#DejaVuSans-50" x="863.916016"/>
     <use xlink:href="#DejaVuSans-72" x="922.46875"/>
     <use xlink:href="#DejaVuSans-6f" x="961.332031"/>
     <use xlink:href="#DejaVuSans-67" x="1022.513672"/>
     <use xlink:href="#DejaVuSans-72" x="1085.990234"/>
     <use xlink:href="#DejaVuSans-61" x="1127.103516"/>
     <use xlink:href="#DejaVuSans-6d" x="1188.382812"/>
     <use xlink:href="#DejaVuSans-20" x="1285.794922"/>
     <use xlink:href="#DejaVuSans-53" x="1317.582031"/>
     <use xlink:href="#DejaVuSans-69" x="1381.058594"/>
     <use xlink:href="#DejaVuSans-7a" x="1408.841797"/>
     <use xlink:href="#DejaVuSans-65" x="1461.332031"/>
     <use xlink:href="#DejaVuSans-20" x="1522.855469"/>
     <use xlink:href="#DejaVuSans-28" x="1554.642578"/>
     <use xlink:href="#DejaVuSans-31" x="1593.65625"/>
     <use xlink:href="#DejaVuSans-30" x="1657.279297"/>
     <use xlink:href="#DejaVuSans-30" x="1720.902344"/>
     <use xlink:href="#DejaVuSans-20" x="1784.525391"/>
     <use xlink:href="#DejaVuSans-66" x="1816.3125"/>
     <use xlink:href="#DejaVuSans-2e" x="1844.267578"/>
     <use xlink:href="#DejaVuSans-63" x="1876.054688"/>
     <use xlink:href="#DejaVuSans-2e" x="1931.035156"/>
     <use xlink:href="#DejaVuSans-2c" x="1962.822266"/>
     <use xlink:href="#DejaVuSans-20" x="1994.609375"/>
     <use xlink:href="#DejaVuSans-6e" x="2026.396484"/>
     <use xlink:href="#DejaVuSans-69" x="2089.775391"/>
     <use xlink:href="#DejaVuSans-63" x="2117.558594"/>
     <use xlink:href="#DejaVuSans-6f" x="2172.539062"/>
     <use xlink:href="#DejaVuSans-6c" x="2233.720703"/>
     <use xlink:href="#DejaVuSans-61" x="2261.503906"/>
     <use xlink:href="#DejaVuSans-75" x="2322.783203"/>
     <use xlink:href="#DejaVuSans-5f" x="2386.162109"/>
     <use xlink:href="#DejaVuSans-63" x="2436.162109"/>
     <use xlink:href="#DejaVuSans-29" x="2491.142578"/>
    </g>
   </g>
   <g id="legend_1">
    <g id="patch_7">
     <path d="M 61 101.2725 
L 171.19375 101.2725 
Q 173.19375 101.2725 173.19375 99.2725 
L 173.19375 41.56 
Q 173.19375 39.56 171.19375 39.56 
L 61 39.56 
Q 59 39.56 59 41.56 
L 59 99.2725 
Q 59 101.2725 61 101.2725 
z
" style="fill: #ffffff; opacity: 0.8; stroke: #cccccc; stroke-linejoin: miter"/>
    </g>
    <g id="line2d_61">
     <path d="M 63 47.658437 
L 73 47.658437 
L 83 47.658437 
" style="fill: none; stroke: #1f77b4; stroke-width: 1.5; stroke-linecap: square"/>
    </g>
    <g id="text_22">
     <!-- DEAP -->
     <g transform="translate(91 51.158437)scale(0.1 -0.1)">
      <defs>
       <path id="DejaVuSans-44" d="M 1259 4147 
L 1259 519 
L 2022 519 
Q 2988 519 3436 956 
Q 3884 1394 3884 2338 
Q 3884 3275 3436 3711 
Q 2988 4147 2022 4147 
L 1259 4147 
z
M 628 4666 
L 1925 4666 
Q 3281 4666 3915 4102 
Q 4550 3538 4550 2338 
Q 4550 1131 3912 565 
Q 3275 0 1925 0 
L 628 0 
L 628 4666 
z
" transform="scale(0.015625)"/>
       <path id="DejaVuSans-41" d="M 2188 4044 
L 1331 1722 
L 3047 1722 
L 2188 4044 
z
M 1831 4666 
L 2547 4666 
L 4325 0 
L 3669 0 
L 3244 1197 
L 1141 1197 
L 716 0 
L 50 0 
L 1831 4666 
z
" transform="scale(0.015625)"/>
      </defs>
      <use xlink:href="#DejaVuSans-44"/>
      <use xlink:href="#DejaVuSans-45" x="77.001953"/>
      <use xlink:href="#DejaVuSans-41" x="140.185547"/>
      <use xlink:href="#DejaVuSans-50" x="208.59375"/>
     </g>
    </g>
    <g id="line2d_62">
     <path d="M 63 62.336562 
L 73 62.336562 
L 83 62.336562 
" style="fill: none; stroke: #ff7f0e; stroke-width: 1.5; stroke-linecap: square"/>
    </g>
    <g id="text_23">
     <!-- TensorGP (CPU) -->
     <g transform="translate(91 65.836562)scale(0.1 -0.1)">
      <defs>
       <path id="DejaVuSans-54" d="M -19 4666 
L 3928 4666 
L 3928 4134 
L 2272 4134 
L 2272 0 
L 1638 0 
L 1638 4134 
L -19 4134 
L -19 4666 
z
" transform="scale(0.015625)"/>
       <path id="DejaVuSans-47" d="M 3809 666 
L 3809 1919 
L 2778 1919 
L 2778 2438 
L 4434 2438 
L 4434 434 
Q 4069 175 3628 42 
Q 3188 -91 2688 -91 
Q 1594 -91 976 548 
Q 359 1188 359 2328 
Q 359 3472 976 4111 
Q 1594 4750 2688 4750 
Q 3144 4750 3555 4637 
Q 3966 4525 4313 4306 
L 4313 3634 
Q 3963 3931 3569 4081 
Q 3175 4231 2741 4231 
Q 1884 4231 1454 3753 
Q 1025 3275 1025 2328 
Q 1025 1384 1454 906 
Q 1884 428 2741 428 
Q 3075 428 3337 486 
Q 3600 544 3809 666 
z
" transform="scale(0.015625)"/>
       <path id="DejaVuSans-43" d="M 4122 4306 
L 4122 3641 
Q 3803 3938 3442 4084 
Q 3081 4231 2675 4231 
Q 1875 4231 1450 3742 
Q 1025 3253 1025 2328 
Q 1025 1406 1450 917 
Q 1875 428 2675 428 
Q 3081 428 3442 575 
Q 3803 722 4122 1019 
L 4122 359 
Q 3791 134 3420 21 
Q 3050 -91 2638 -91 
Q 1578 -91 968 557 
Q 359 1206 359 2328 
Q 359 3453 968 4101 
Q 1578 4750 2638 4750 
Q 3056 4750 3426 4639 
Q 3797 4528 4122 4306 
z
" transform="scale(0.015625)"/>
       <path id="DejaVuSans-55" d="M 556 4666 
L 1191 4666 
L 1191 1831 
Q 1191 1081 1462 751 
Q 1734 422 2344 422 
Q 2950 422 3222 751 
Q 3494 1081 3494 1831 
L 3494 4666 
L 4128 4666 
L 4128 1753 
Q 4128 841 3676 375 
Q 3225 -91 2344 -91 
Q 1459 -91 1007 375 
Q 556 841 556 1753 
L 556 4666 
z
" transform="scale(0.015625)"/>
      </defs>
      <use xlink:href="#DejaVuSans-54"/>
      <use xlink:href="#DejaVuSans-65" x="44.083984"/>
      <use xlink:href="#DejaVuSans-6e" x="105.607422"/>
      <use xlink:href="#DejaVuSans-73" x="168.986328"/>
      <use xlink:href="#DejaVuSans-6f" x="221.085938"/>
      <use xlink:href="#DejaVuSans-72" x="282.267578"/>
      <use xlink:href="#DejaVuSans-47" x="323.380859"/>
      <use xlink:href="#DejaVuSans-50" x="400.871094"/>
      <use xlink:href="#DejaVuSans-20" x="461.173828"/>
      <use xlink:href="#DejaVuSans-28" x="492.960938"/>
      <use xlink:href="#DejaVuSans-43" x="531.974609"/>
      <use xlink:href="#DejaVuSans-50" x="601.798828"/>
      <use xlink:href="#DejaVuSans-55" x="662.101562"/>
      <use xlink:href="#DejaVuSans-29" x="735.294922"/>
     </g>
    </g>
    <g id="line2d_63">
     <path d="M 63 77.014687 
L 73 77.014687 
L 83 77.014687 
" style="fill: none; stroke: #2ca02c; stroke-width: 1.5; stroke-linecap: square"/>
    </g>
    <g id="text_24">
     <!-- TensorGP (GPU) -->
     <g transform="translate(91 80.514687)scale(0.1 -0.1)">
      <use xlink:href="#DejaVuSans-54"/>
      <use xlink:href="#DejaVuSans-65" x="44.083984"/>
      <use xlink:href="#DejaVuSans-6e" x="105.607422"/>
      <use xlink:href="#DejaVuSans-73" x="168.986328"/>
      <use xlink:href="#DejaVuSans-6f" x="221.085938"/>
      <use xlink:href="#DejaVuSans-72" x="282.267578"/>
      <use xlink:href="#DejaVuSans-47" x="323.380859"/>
      <use xlink:href="#DejaVuSans-50" x="400.871094"/>
      <use xlink:href="#DejaVuSans-20" x="461.173828"/>
      <use xlink:href="#DejaVuSans-28" x="492.960938"/>
      <use xlink:href="#DejaVuSans-47" x="531.974609"/>
      <use xlink:href="#DejaVuSans-50" x="609.464844"/>
      <use xlink:href="#DejaVuSans-55" x="669.767578"/>
      <use xlink:href="#DejaVuSans-29" x="742.960938"/>
     </g>
    </g>
    <g id="line2d_64">
     <path d="M 63 91.692813 
L 73 91.692813 
L 83 91.692813 
" style="fill: none; stroke: #d62728; stroke-width: 1.5; stroke-linecap: square"/>
    </g>
    <g id="text_25">
     <!-- Operon -->
     <g transform="translate(91 95.192813)scale(0.1 -0.1)">
      <defs>
       <path id="DejaVuSans-4f" d="M 2522 4238 
Q 1834 4238 1429 3725 
Q 1025 3213 1025 2328 
Q 1025 1447 1429 934 
Q 1834 422 2522 422 
Q 3209 422 3611 934 
Q 4013 1447 4013 2328 
Q 4013 3213 3611 3725 
Q 3209 4238 2522 4238 
z
M 2522 4750 
Q 3503 4750 4090 4092 
Q 4678 3434 4678 2328 
Q 4678 1225 4090 567 
Q 3503 -91 2522 -91 
Q 1538 -91 948 565 
Q 359 1222 359 2328 
Q 359 3434 948 4092 
Q 1538 4750 2522 4750 
z
" transform="scale(0.015625)"/>
       <path id="DejaVuSans-70" d="M 1159 525 
L 1159 -1331 
L 581 -1331 
L 581 3500 
L 1159 3500 
L 1159 2969 
Q 1341 3281 1617 3432 
Q 1894 3584 2278 3584 
Q 2916 3584 3314 3078 
Q 3713 2572 3713 1747 
Q 3713 922 3314 415 
Q 2916 -91 2278 -91 
Q 1894 -91 1617 61 
Q 1341 213 1159 525 
z
M 3116 1747 
Q 3116 2381 2855 2742 
Q 2594 3103 2138 3103 
Q 1681 3103 1420 2742 
Q 1159 2381 1159 1747 
Q 1159 1113 1420 752 
Q 1681 391 2138 391 
Q 2594 391 2855 752 
Q 3116 1113 3116 1747 
z
" transform="scale(0.015625)"/>
      </defs>
      <use xlink:href="#DejaVuSans-4f"/>
      <use xlink:href="#DejaVuSans-70" x="78.710938"/>
      <use xlink:href="#DejaVuSans-65" x="142.1875"/>
      <use xlink:href="#DejaVuSans-72" x="203.710938"/>
      <use xlink:href="#DejaVuSans-6f" x="242.574219"/>
      <use xlink:href="#DejaVuSans-6e" x="303.755859"/>
     </g>
    </g>
   </g>
  </g>
 </g>
 <defs>
  <clipPath id="pc485bb5937">
   <rect x="54" y="34.56" width="334.8" height="217.44"/>
  </clipPath>
 </defs>
</svg>
